<svg width="65" height="102" viewBox="0 0 65 102" fill="none" xmlns="http://www.w3.org/2000/svg">
<path d="M59.1094 102H0.662109V100.389C18.582 79.0508 29.4463 64.6953 33.2549 57.3223C37.1123 49.9492 39.041 42.7471 39.041 35.7158C39.041 30.5889 37.4541 26.3408 34.2803 22.9717C31.1064 19.5537 27.2246 17.8447 22.6348 17.8447C15.1152 17.8447 9.28027 21.6045 5.12988 29.124L2.41992 28.1719C5.05664 18.7969 9.06055 11.8633 14.4316 7.37109C19.8027 2.87891 26.0039 0.632812 33.0352 0.632812C38.0645 0.632812 42.6543 1.80469 46.8047 4.14844C50.9551 6.49219 54.2021 9.71484 56.5459 13.8164C58.8896 17.8691 60.0615 21.6777 60.0615 25.2422C60.0615 31.7363 58.2549 38.3281 54.6416 45.0176C49.71 54.0508 38.9434 66.6484 22.3418 82.8105H43.8018C49.0752 82.8105 52.4932 82.5908 54.0557 82.1514C55.667 81.7119 56.9854 80.9795 58.0107 79.9541C59.0361 78.8799 60.3789 76.6582 62.0391 73.2891H64.6758L59.1094 102Z" fill="#C92B1D"/>
</svg>
