<svg width="173" height="280" viewBox="0 0 173 280" fill="none" xmlns="http://www.w3.org/2000/svg">
<path d="M53.7715 139.859V132.955C68.7637 128.615 79.153 124.604 84.9395 120.922C90.7259 117.108 95.7233 111.387 99.9316 103.76C104.14 96.0007 106.244 88.1758 106.244 80.2852C106.244 69.3698 102.233 60.0326 94.2109 52.2734C86.3203 44.3828 76.457 40.4375 64.6211 40.4375C46.2096 40.4375 30.5599 50.1693 17.6719 69.6328L10.373 67.0684C19.8418 45.1061 31.9408 28.6016 46.6699 17.5547C61.5306 6.50781 78.0352 0.984375 96.1836 0.984375C114.727 0.984375 129.982 6.63932 141.949 17.9492C154.048 29.2591 160.098 42.4759 160.098 57.5996C160.098 67.4629 157.27 76.9974 151.615 86.2031C146.092 95.2773 137.346 103.299 125.379 110.27C140.766 117.766 152.47 127.037 160.492 138.084C168.646 148.999 172.723 162.742 172.723 179.312C172.723 207.193 162.596 230.93 142.344 250.525C122.223 269.989 95.1973 279.721 61.2676 279.721C38.6478 279.721 22.1432 275.973 11.7539 268.477C4.25781 263.216 0.509766 256.443 0.509766 248.158C0.509766 242.109 2.67969 236.98 7.01953 232.771C11.3594 228.432 16.3568 226.262 22.0117 226.262C26.3516 226.262 30.4284 227.182 34.2422 229.023C36.3464 230.076 43.7767 235.862 56.5332 246.383C69.4212 256.772 81.4544 261.967 92.6328 261.967C102.365 261.967 110.715 258.153 117.686 250.525C124.656 242.766 128.141 232.969 128.141 221.133C128.141 203.116 121.828 186.546 109.203 171.422C96.5781 156.167 78.1009 145.646 53.7715 139.859Z" fill="#C92B1D"/>
</svg>
