<svg width="308" height="98" viewBox="0 0 308 98" fill="none" xmlns="http://www.w3.org/2000/svg">
<path d="M57.2422 68.6133H24.498L20.6016 77.6367C19.3255 80.6445 18.6875 83.1283 18.6875 85.0879C18.6875 87.6855 19.7357 89.5996 21.832 90.8301C23.0625 91.5592 26.0931 92.1061 30.9238 92.4707V95H0.09375V92.4707C3.42057 91.9694 6.15495 90.6022 8.29688 88.3691C10.4388 86.0905 13.082 81.4193 16.2266 74.3555L49.3809 0.390625H50.6797L84.1074 76.4062C87.2975 83.6068 89.918 88.1413 91.9688 90.0098C93.5182 91.4225 95.7057 92.2428 98.5312 92.4707V95H53.6875V92.4707H55.5332C59.1335 92.4707 61.6628 91.9694 63.1211 90.9668C64.1237 90.2376 64.625 89.1895 64.625 87.8223C64.625 87.002 64.4883 86.1589 64.2148 85.293C64.1237 84.8828 63.4401 83.1738 62.1641 80.166L57.2422 68.6133ZM54.918 63.5547L41.1094 31.6309L26.8906 63.5547H54.918ZM193.619 0.185547V32.3145H190.953C188.948 23.929 185.211 17.5033 179.742 13.0371C174.273 8.57096 168.076 6.33789 161.148 6.33789C155.361 6.33789 150.051 8.0013 145.221 11.3281C140.39 14.6549 136.858 19.0072 134.625 24.3848C131.754 31.2663 130.318 38.9225 130.318 47.3535C130.318 55.6478 131.367 63.2129 133.463 70.0488C135.559 76.8392 138.84 81.9889 143.307 85.498C147.773 88.9616 153.561 90.6934 160.67 90.6934C166.503 90.6934 171.835 89.4173 176.666 86.8652C181.542 84.3132 186.669 79.9154 192.047 73.6719V81.6699C186.852 87.0931 181.428 91.0352 175.777 93.4961C170.172 95.9115 163.609 97.1191 156.09 97.1191C146.201 97.1191 137.405 95.1367 129.703 91.1719C122.047 87.207 116.122 81.5104 111.93 74.082C107.783 66.6536 105.709 58.7467 105.709 50.3613C105.709 41.5202 108.01 33.1348 112.613 25.2051C117.262 17.2754 123.505 11.123 131.344 6.74805C139.228 2.37305 147.59 0.185547 156.432 0.185547C162.949 0.185547 169.83 1.59831 177.076 4.42383C181.269 6.06445 183.935 6.88477 185.074 6.88477C186.533 6.88477 187.786 6.36068 188.834 5.3125C189.928 4.21875 190.634 2.50977 190.953 0.185547H193.619ZM239.625 50.4297V79.1406C239.625 83.8802 239.876 86.8424 240.377 88.0273C240.924 89.2122 241.949 90.2604 243.453 91.1719C245.003 92.0378 247.076 92.4707 249.674 92.4707H252.75V95H204.283V92.4707H207.359C210.048 92.4707 212.213 91.9922 213.854 91.0352C215.038 90.3971 215.95 89.3034 216.588 87.7539C217.089 86.6602 217.34 83.7891 217.34 79.1406V18.1641C217.34 13.4245 217.089 10.4622 216.588 9.27734C216.087 8.09245 215.061 7.06706 213.512 6.20117C212.008 5.28971 209.957 4.83398 207.359 4.83398H204.283V2.30469H252.75V4.83398H249.674C246.985 4.83398 244.82 5.3125 243.18 6.26953C241.995 6.90755 241.061 8.0013 240.377 9.55078C239.876 10.6445 239.625 13.5156 239.625 18.1641V44.4141H272.369V18.1641C272.369 13.4245 272.118 10.4622 271.617 9.27734C271.116 8.09245 270.09 7.06706 268.541 6.20117C266.992 5.28971 264.918 4.83398 262.32 4.83398H259.312V2.30469H307.711V4.83398H304.703C301.969 4.83398 299.804 5.3125 298.209 6.26953C297.024 6.90755 296.09 8.0013 295.406 9.55078C294.905 10.6445 294.654 13.5156 294.654 18.1641V79.1406C294.654 83.8802 294.905 86.8424 295.406 88.0273C295.908 89.2122 296.933 90.2604 298.482 91.1719C300.032 92.0378 302.105 92.4707 304.703 92.4707H307.711V95H259.312V92.4707H262.32C265.055 92.4707 267.219 91.9922 268.814 91.0352C269.999 90.3971 270.934 89.3034 271.617 87.7539C272.118 86.6602 272.369 83.7891 272.369 79.1406V50.4297H239.625Z" fill="black"/>
</svg>
