<svg width="477" height="98" viewBox="0 0 477 98" fill="none" xmlns="http://www.w3.org/2000/svg">
<path d="M57.2422 68.6133H24.498L20.6016 77.6367C19.3255 80.6445 18.6875 83.1283 18.6875 85.0879C18.6875 87.6855 19.7357 89.5996 21.832 90.8301C23.0625 91.5592 26.0931 92.1061 30.9238 92.4707V95H0.09375V92.4707C3.42057 91.9694 6.15495 90.6022 8.29688 88.3691C10.4388 86.0905 13.082 81.4193 16.2266 74.3555L49.3809 0.390625H50.6797L84.1074 76.4062C87.2975 83.6068 89.918 88.1413 91.9688 90.0098C93.5182 91.4225 95.7057 92.2428 98.5312 92.4707V95H53.6875V92.4707H55.5332C59.1335 92.4707 61.6628 91.9694 63.1211 90.9668C64.1237 90.2376 64.625 89.1895 64.625 87.8223C64.625 87.002 64.4883 86.1589 64.2148 85.293C64.1237 84.8828 63.4401 83.1738 62.1641 80.166L57.2422 68.6133ZM54.918 63.5547L41.1094 31.6309L26.8906 63.5547H54.918ZM137.975 53.0273V78.7305C137.975 83.7435 138.271 86.9108 138.863 88.2324C139.501 89.5085 140.595 90.5339 142.145 91.3086C143.74 92.0833 146.633 92.4707 150.826 92.4707V95H103.727V92.4707C108.01 92.4707 110.904 92.0833 112.408 91.3086C113.958 90.4883 115.029 89.4401 115.621 88.1641C116.259 86.888 116.578 83.7435 116.578 78.7305V18.5742C116.578 13.5612 116.259 10.4167 115.621 9.14062C115.029 7.81901 113.958 6.77083 112.408 5.99609C110.859 5.22135 107.965 4.83398 103.727 4.83398V2.30469H144.127C157.434 2.30469 166.982 4.67448 172.77 9.41406C178.557 14.1536 181.451 20.0781 181.451 27.1875C181.451 33.2031 179.583 38.3529 175.846 42.6367C172.109 46.9206 166.959 49.8372 160.396 51.3867C155.976 52.4805 148.502 53.0273 137.975 53.0273ZM137.975 7.63672V47.6953C139.479 47.7865 140.618 47.832 141.393 47.832C146.952 47.832 151.236 46.1914 154.244 42.9102C157.252 39.5833 158.756 34.4564 158.756 27.5293C158.756 20.6478 157.252 15.612 154.244 12.4219C151.236 9.23177 146.747 7.63672 140.777 7.63672H137.975ZM223.561 53.0273V78.7305C223.561 83.7435 223.857 86.9108 224.449 88.2324C225.087 89.5085 226.181 90.5339 227.73 91.3086C229.326 92.0833 232.219 92.4707 236.412 92.4707V95H189.312V92.4707C193.596 92.4707 196.49 92.0833 197.994 91.3086C199.544 90.4883 200.615 89.4401 201.207 88.1641C201.845 86.888 202.164 83.7435 202.164 78.7305V18.5742C202.164 13.5612 201.845 10.4167 201.207 9.14062C200.615 7.81901 199.544 6.77083 197.994 5.99609C196.445 5.22135 193.551 4.83398 189.312 4.83398V2.30469H229.713C243.02 2.30469 252.568 4.67448 258.355 9.41406C264.143 14.1536 267.037 20.0781 267.037 27.1875C267.037 33.2031 265.169 38.3529 261.432 42.6367C257.695 46.9206 252.545 49.8372 245.982 51.3867C241.562 52.4805 234.088 53.0273 223.561 53.0273ZM223.561 7.63672V47.6953C225.064 47.7865 226.204 47.832 226.979 47.832C232.538 47.832 236.822 46.1914 239.83 42.9102C242.838 39.5833 244.342 34.4564 244.342 27.5293C244.342 20.6478 242.838 15.612 239.83 12.4219C236.822 9.23177 232.333 7.63672 226.363 7.63672H223.561ZM308.531 52.7539V78.7305C308.531 83.7435 308.827 86.9108 309.42 88.2324C310.058 89.5085 311.152 90.5339 312.701 91.3086C314.251 92.0833 317.145 92.4707 321.383 92.4707V95H273.941V92.4707C278.225 92.4707 281.119 92.0833 282.623 91.3086C284.173 90.4883 285.243 89.4401 285.836 88.1641C286.474 86.888 286.793 83.7435 286.793 78.7305V18.5742C286.793 13.5612 286.474 10.4167 285.836 9.14062C285.243 7.81901 284.173 6.77083 282.623 5.99609C281.074 5.22135 278.18 4.83398 273.941 4.83398V2.30469H317.008C328.219 2.30469 336.422 3.07943 341.617 4.62891C346.812 6.17839 351.051 9.04948 354.332 13.2422C357.613 17.3893 359.254 22.2656 359.254 27.8711C359.254 34.707 356.793 40.3581 351.871 44.8242C348.727 47.6497 344.329 49.7689 338.678 51.1816L360.963 82.5586C363.88 86.6146 365.953 89.1439 367.184 90.1465C369.052 91.5592 371.217 92.334 373.678 92.4707V95H344.488L314.615 52.7539H308.531ZM308.531 7.29492V47.9004H312.428C318.762 47.9004 323.502 47.3307 326.646 46.1914C329.791 45.0065 332.252 42.9102 334.029 39.9023C335.852 36.849 336.764 32.8841 336.764 28.0078C336.764 20.944 335.1 15.7259 331.773 12.3535C328.492 8.98112 323.183 7.29492 315.846 7.29492H308.531ZM426.588 1.00586C441.354 0.458984 453.339 4.76562 462.545 13.9258C471.796 23.0859 476.422 34.5475 476.422 48.3105C476.422 60.0684 472.981 70.4134 466.1 79.3457C456.985 91.1947 444.111 97.1191 427.477 97.1191C410.797 97.1191 397.9 91.4681 388.785 80.166C381.585 71.2337 377.984 60.638 377.984 48.3789C377.984 34.6159 382.656 23.1543 391.998 13.9941C401.386 4.78841 412.916 0.458984 426.588 1.00586ZM427.408 5.38086C418.932 5.38086 412.483 9.71029 408.062 18.3691C404.462 25.4785 402.662 35.6868 402.662 48.9941C402.662 64.8079 405.442 76.4974 411.002 84.0625C414.876 89.349 420.299 91.9922 427.271 91.9922C431.965 91.9922 435.885 90.8529 439.029 88.5742C443.04 85.6576 446.161 81.0091 448.395 74.6289C450.628 68.2031 451.744 59.8405 451.744 49.541C451.744 37.2819 450.605 28.1217 448.326 22.0605C446.048 15.9538 443.131 11.6471 439.576 9.14062C436.067 6.63411 432.011 5.38086 427.408 5.38086Z" fill="black"/>
</svg>
