<svg width="111" height="21" viewBox="0 0 111 21" fill="none" xmlns="http://www.w3.org/2000/svg">
<path d="M6.0166 2.90527C5.37207 2.90527 4.76172 3.08105 4.18555 3.43262C3.60938 3.77441 3.32129 4.3457 3.32129 5.14648C3.32129 6.25 2.85254 6.80176 1.91504 6.80176C1.53418 6.80176 1.23633 6.70898 1.02148 6.52344C0.816406 6.32812 0.699219 6.16699 0.669922 6.04004C0.640625 5.90332 0.625977 5.78613 0.625977 5.68848C0.625977 5.38574 0.71875 5.0293 0.904297 4.61914C1.09961 4.20898 1.39746 3.77441 1.79785 3.31543C2.20801 2.85645 2.83301 2.47559 3.67285 2.17285C4.52246 1.86035 5.49414 1.7041 6.58789 1.7041C8.13086 1.7041 9.24414 2.05078 9.92773 2.74414C10.6211 3.42773 10.9678 4.17969 10.9678 5C10.9678 5.55664 10.7139 6.25 10.2061 7.08008C9.69824 7.91016 8.86328 8.5791 7.70117 9.08691C8.78516 9.2041 9.76172 9.6875 10.6309 10.5371C11.5 11.3867 11.9346 12.5 11.9346 13.877C11.9346 15.8984 11.2559 17.4805 9.89844 18.623C8.55078 19.7656 6.88574 20.3369 4.90332 20.3369C3.81934 20.3369 2.7793 20.1416 1.7832 19.751C0.787109 19.3604 0.289062 18.8623 0.289062 18.2568C0.289062 17.9736 0.44043 17.7197 0.743164 17.4951C1.0459 17.2607 1.41699 17.1436 1.85645 17.1436C2.54004 17.1436 3.03809 17.4072 3.35059 17.9346C3.80957 18.7158 4.45898 19.1064 5.29883 19.1064C5.94336 19.1064 6.62695 18.7256 7.34961 17.9639C8.08203 17.2021 8.44824 15.9814 8.44824 14.3018C8.44824 11.8018 7.37891 10.5518 5.24023 10.5518C5.10352 10.5518 4.58105 10.6494 3.67285 10.8447L3.49707 9.64355C5.0791 9.28223 6.20215 8.71582 6.86621 7.94434C7.54004 7.16309 7.87695 6.34277 7.87695 5.4834C7.87695 4.68262 7.68652 4.05273 7.30566 3.59375C6.9248 3.13477 6.49512 2.90527 6.0166 2.90527ZM16.1826 19.8242C15.8506 19.502 15.6846 19.1113 15.6846 18.6523C15.6846 18.1934 15.8506 17.7979 16.1826 17.4658C16.5146 17.1338 16.9102 16.9678 17.3691 16.9678C17.8281 16.9678 18.2236 17.1338 18.5557 17.4658C18.8877 17.7979 19.0537 18.1934 19.0537 18.6523C19.0537 19.1113 18.8877 19.502 18.5557 19.8242C18.2236 20.1367 17.8281 20.293 17.3691 20.293C16.9102 20.293 16.5146 20.1367 16.1826 19.8242ZM27.2422 17.5684V7.09473C27.2422 6.61621 27.2227 6.25977 27.1836 6.02539C27.1445 5.78125 27.0859 5.63477 27.0078 5.58594C26.9395 5.53711 26.8467 5.5127 26.7295 5.5127C26.5342 5.5127 26.0947 5.62988 25.4111 5.86426C24.7275 6.08887 24.0781 6.3623 23.4629 6.68457L22.9209 5.68848C23.7803 5.26855 24.9473 4.61426 26.4219 3.72559C27.9062 2.83691 28.7607 2.33398 28.9854 2.2168C29.5615 1.875 29.9766 1.7041 30.2305 1.7041C30.4941 1.7041 30.626 1.875 30.626 2.2168C30.5674 3.47656 30.5381 4.63379 30.5381 5.68848V17.5684C30.5381 17.7051 30.5479 17.832 30.5674 17.9492C30.5869 18.0566 30.6113 18.1543 30.6406 18.2422C30.6699 18.3301 30.7188 18.4131 30.7871 18.4912C30.8652 18.5596 30.9238 18.6182 30.9629 18.667C31.002 18.7158 31.0801 18.7598 31.1973 18.7988C31.3242 18.8379 31.4121 18.8672 31.4609 18.8867C31.5098 18.9062 31.6172 18.9258 31.7832 18.9453C31.959 18.9648 32.0762 18.9746 32.1348 18.9746C32.1934 18.9746 32.3203 18.9844 32.5156 19.0039C32.7207 19.0234 32.8623 19.0332 32.9404 19.0332C33.0381 19.1113 33.0869 19.2822 33.0869 19.5459C33.0869 19.8096 33.0381 19.9805 32.9404 20.0586C31.6611 20.0195 30.3232 20 28.9268 20C27.0713 20 25.499 20.0195 24.21 20.0586C24.1318 19.9805 24.0928 19.8145 24.0928 19.5605C24.0928 19.2969 24.1318 19.1211 24.21 19.0332C25.499 18.9453 26.3193 18.7939 26.6709 18.5791C27.0518 18.3545 27.2422 18.0176 27.2422 17.5684ZM38.2139 19.8242C37.8818 19.502 37.7158 19.1113 37.7158 18.6523C37.7158 18.1934 37.8818 17.7979 38.2139 17.4658C38.5459 17.1338 38.9414 16.9678 39.4004 16.9678C39.8594 16.9678 40.2549 17.1338 40.5869 17.4658C40.9189 17.7979 41.085 18.1934 41.085 18.6523C41.085 19.1113 40.9189 19.502 40.5869 19.8242C40.2549 20.1367 39.8594 20.293 39.4004 20.293C38.9414 20.293 38.5459 20.1367 38.2139 19.8242Z" fill="#C92B1D"/>
<path d="M57.1982 17.7441C57.1982 18.1836 57.3447 18.4717 57.6377 18.6084C57.9404 18.7354 58.6631 18.7988 59.8057 18.7988C60.8408 18.7988 61.7637 18.6914 62.5742 18.4766C63.3848 18.252 64.1416 17.8809 64.8447 17.3633C65.5479 16.8457 66.085 16.0938 66.4561 15.1074C66.8369 14.1113 67.0273 12.9004 67.0273 11.4746C67.0273 10.5371 66.9443 9.62402 66.7783 8.73535C66.6123 7.84668 66.3291 6.97754 65.9287 6.12793C65.5283 5.27832 65.0254 4.54102 64.4199 3.91602C63.8242 3.28125 63.0625 2.77344 62.1348 2.39258C61.2168 2.01172 60.1914 1.82129 59.0586 1.82129C58.4141 1.82129 57.9404 1.88965 57.6377 2.02637C57.3447 2.15332 57.1982 2.43652 57.1982 2.87598V17.7441ZM51.2803 20L51.2217 19.9414V19.2822C51.2217 19.1064 51.2998 19.0137 51.4561 19.0039H51.8809C52.4766 19.0039 52.9014 18.9062 53.1553 18.7109C53.4092 18.5059 53.5361 18.1641 53.5361 17.6855V2.93457C53.5361 2.45605 53.4092 2.11914 53.1553 1.92383C52.9111 1.71875 52.4863 1.61621 51.8809 1.61621H51.4561C51.2998 1.61621 51.2217 1.5332 51.2217 1.36719V0.678711L51.2803 0.620117H60.1572C63.1748 0.620117 65.7334 1.60645 67.833 3.5791C69.9424 5.54199 70.9971 7.9248 70.9971 10.7275C70.9971 12.1436 70.7822 13.4082 70.3525 14.5215C69.9229 15.6348 69.3613 16.5283 68.668 17.2021C67.9746 17.8662 67.1641 18.418 66.2363 18.8574C65.3086 19.2969 64.3955 19.5996 63.4971 19.7656C62.5986 19.9219 61.666 20 60.6992 20H51.2803ZM80.665 18.5645C79.3271 19.7266 78.0771 20.3027 76.915 20.293C75.6357 20.293 74.7178 20.0342 74.1611 19.5166C73.6045 18.999 73.3262 18.208 73.3262 17.1436C73.3262 16.04 73.7559 15.1904 74.6152 14.5947C75.4746 13.999 76.7832 13.4424 78.541 12.9248L80.709 12.2949C80.709 10.5176 80.5332 9.33105 80.1816 8.73535C79.8301 8.12988 79.3027 7.82715 78.5996 7.82715C78.0039 7.82715 77.501 7.91992 77.0908 8.10547C76.6807 8.29102 76.4756 8.54492 76.4756 8.86719C76.4756 9.0918 76.5049 9.34082 76.5635 9.61426C76.6221 9.87793 76.6514 10.0586 76.6514 10.1562C76.6514 10.4004 76.4902 10.6543 76.168 10.918C75.8555 11.1719 75.499 11.2988 75.0986 11.2988C74.1611 11.2988 73.6875 10.8789 73.6777 10.0391C73.6777 9.17969 74.2734 8.4082 75.4648 7.72461C76.6562 7.03125 77.8428 6.68457 79.0244 6.68457C80.4893 6.68457 81.6758 7.06055 82.584 7.8125C83.4922 8.55469 83.9463 9.90723 83.9463 11.8701V16.2207C83.9463 16.6602 83.9561 16.9971 83.9756 17.2314C83.9951 17.4561 84.0391 17.7051 84.1074 17.9785C84.1758 18.2422 84.293 18.4375 84.459 18.5645C84.6348 18.6816 84.8594 18.7402 85.1328 18.7402C85.416 18.7402 85.6357 18.6621 85.792 18.5059C85.958 18.3398 86.0508 18.2568 86.0703 18.2568C86.1289 18.2568 86.207 18.335 86.3047 18.4912C86.4121 18.6377 86.4658 18.7598 86.4658 18.8574C86.4658 18.9355 86.3535 19.0869 86.1289 19.3115C85.9141 19.5264 85.5723 19.7461 85.1035 19.9707C84.6445 20.1855 84.166 20.293 83.668 20.293C82.7891 20.293 82.125 20.1562 81.6758 19.8828C81.2266 19.5996 80.9141 19.1602 80.7383 18.5645H80.665ZM80.709 17.4512V13.4229L78.9951 13.9355C78.0186 14.2383 77.3545 14.6045 77.0029 15.0342C76.6514 15.4639 76.4756 16.0205 76.4756 16.7041C76.4756 18.0029 77.1055 18.6523 78.3652 18.6523C78.9316 18.6523 79.7129 18.252 80.709 17.4512ZM92.4863 8.38379V15.957C92.4863 17.4219 92.7451 18.1494 93.2627 18.1396C94.0049 18.1396 94.6836 17.8906 95.2988 17.3926L95.9873 18.0811C94.8643 19.5654 93.4531 20.3027 91.7539 20.293C90.0352 20.293 89.1758 19.2773 89.1758 17.2461V8.38379H87.6523C87.291 8.38379 87.1104 8.30566 87.1104 8.14941V7.22656C87.1104 7.07031 87.4912 6.9873 88.2529 6.97754C88.9561 6.97754 89.4297 6.66504 89.6738 6.04004C89.9277 5.40527 90.0547 4.41895 90.0547 3.08105L92.4863 2.14355V6.97754H95.3281C95.7676 6.97754 95.9873 7.08008 95.9873 7.28516V7.88574C95.9873 8.22754 95.6162 8.39355 94.874 8.38379H92.4863ZM104.864 18.5645C103.526 19.7266 102.276 20.3027 101.114 20.293C99.835 20.293 98.917 20.0342 98.3604 19.5166C97.8037 18.999 97.5254 18.208 97.5254 17.1436C97.5254 16.04 97.9551 15.1904 98.8145 14.5947C99.6738 13.999 100.982 13.4424 102.74 12.9248L104.908 12.2949C104.908 10.5176 104.732 9.33105 104.381 8.73535C104.029 8.12988 103.502 7.82715 102.799 7.82715C102.203 7.82715 101.7 7.91992 101.29 8.10547C100.88 8.29102 100.675 8.54492 100.675 8.86719C100.675 9.0918 100.704 9.34082 100.763 9.61426C100.821 9.87793 100.851 10.0586 100.851 10.1562C100.851 10.4004 100.689 10.6543 100.367 10.918C100.055 11.1719 99.6982 11.2988 99.2979 11.2988C98.3604 11.2988 97.8867 10.8789 97.877 10.0391C97.877 9.17969 98.4727 8.4082 99.6641 7.72461C100.855 7.03125 102.042 6.68457 103.224 6.68457C104.688 6.68457 105.875 7.06055 106.783 7.8125C107.691 8.55469 108.146 9.90723 108.146 11.8701V16.2207C108.146 16.6602 108.155 16.9971 108.175 17.2314C108.194 17.4561 108.238 17.7051 108.307 17.9785C108.375 18.2422 108.492 18.4375 108.658 18.5645C108.834 18.6816 109.059 18.7402 109.332 18.7402C109.615 18.7402 109.835 18.6621 109.991 18.5059C110.157 18.3398 110.25 18.2568 110.27 18.2568C110.328 18.2568 110.406 18.335 110.504 18.4912C110.611 18.6377 110.665 18.7598 110.665 18.8574C110.665 18.9355 110.553 19.0869 110.328 19.3115C110.113 19.5264 109.771 19.7461 109.303 19.9707C108.844 20.1855 108.365 20.293 107.867 20.293C106.988 20.293 106.324 20.1562 105.875 19.8828C105.426 19.5996 105.113 19.1602 104.938 18.5645H104.864ZM104.908 17.4512V13.4229L103.194 13.9355C102.218 14.2383 101.554 14.6045 101.202 15.0342C100.851 15.4639 100.675 16.0205 100.675 16.7041C100.675 18.0029 101.305 18.6523 102.564 18.6523C103.131 18.6523 103.912 18.252 104.908 17.4512Z" fill="black"/>
</svg>
