<svg width="191" height="95" viewBox="0 0 191 95" fill="none" xmlns="http://www.w3.org/2000/svg">
<path d="M86.3887 62.4609L82.9023 95H0.597656V92.4707H3.67383C6.36263 92.4707 8.52734 91.9922 10.168 91.0352C11.3529 90.3971 12.2643 89.3034 12.9023 87.7539C13.4036 86.6602 13.6543 83.7891 13.6543 79.1406V18.1641C13.6543 13.4245 13.4036 10.4622 12.9023 9.27734C12.401 8.09245 11.3757 7.06706 9.82617 6.20117C8.32227 5.28971 6.27148 4.83398 3.67383 4.83398H0.597656V2.30469H50.0215V4.83398H45.9883C43.2995 4.83398 41.1348 5.3125 39.4941 6.26953C38.3092 6.90755 37.375 8.0013 36.6914 9.55078C36.1901 10.6445 35.9395 13.5156 35.9395 18.1641V77.2266C35.9395 81.9661 36.2129 84.9967 36.7598 86.3184C37.3066 87.5944 38.3776 88.5514 39.9727 89.1895C41.112 89.5996 43.8691 89.8047 48.2441 89.8047H55.9688C60.8906 89.8047 64.9922 88.9388 68.2734 87.207C71.5547 85.4753 74.3802 82.7409 76.75 79.0039C79.1654 75.2669 81.444 69.7526 83.5859 62.4609H86.3887ZM149.621 68.6133H116.877L112.98 77.6367C111.704 80.6445 111.066 83.1283 111.066 85.0879C111.066 87.6855 112.115 89.5996 114.211 90.8301C115.441 91.5592 118.472 92.1061 123.303 92.4707V95H92.4727V92.4707C95.7995 91.9694 98.5339 90.6022 100.676 88.3691C102.818 86.0905 105.461 81.4193 108.605 74.3555L141.76 0.390625H143.059L176.486 76.4062C179.676 83.6068 182.297 88.1413 184.348 90.0098C185.897 91.4225 188.085 92.2428 190.91 92.4707V95H146.066V92.4707H147.912C151.512 92.4707 154.042 91.9694 155.5 90.9668C156.503 90.2376 157.004 89.1895 157.004 87.8223C157.004 87.002 156.867 86.1589 156.594 85.293C156.503 84.8828 155.819 83.1738 154.543 80.166L149.621 68.6133ZM147.297 63.5547L133.488 31.6309L119.27 63.5547H147.297Z" fill="black"/>
</svg>
