<svg width="163" height="56" viewBox="0 0 163 56" fill="none" xmlns="http://www.w3.org/2000/svg">
<path d="M7.0166 3.90527C6.37207 3.90527 5.76172 4.08105 5.18555 4.43262C4.60938 4.77441 4.32129 5.3457 4.32129 6.14648C4.32129 7.25 3.85254 7.80176 2.91504 7.80176C2.53418 7.80176 2.23633 7.70898 2.02148 7.52344C1.81641 7.32812 1.69922 7.16699 1.66992 7.04004C1.64062 6.90332 1.62598 6.78613 1.62598 6.68848C1.62598 6.38574 1.71875 6.0293 1.9043 5.61914C2.09961 5.20898 2.39746 4.77441 2.79785 4.31543C3.20801 3.85645 3.83301 3.47559 4.67285 3.17285C5.52246 2.86035 6.49414 2.7041 7.58789 2.7041C9.13086 2.7041 10.2441 3.05078 10.9277 3.74414C11.6211 4.42773 11.9678 5.17969 11.9678 6C11.9678 6.55664 11.7139 7.25 11.2061 8.08008C10.6982 8.91016 9.86328 9.5791 8.70117 10.0869C9.78516 10.2041 10.7617 10.6875 11.6309 11.5371C12.5 12.3867 12.9346 13.5 12.9346 14.877C12.9346 16.8984 12.2559 18.4805 10.8984 19.623C9.55078 20.7656 7.88574 21.3369 5.90332 21.3369C4.81934 21.3369 3.7793 21.1416 2.7832 20.751C1.78711 20.3604 1.28906 19.8623 1.28906 19.2568C1.28906 18.9736 1.44043 18.7197 1.74316 18.4951C2.0459 18.2607 2.41699 18.1436 2.85645 18.1436C3.54004 18.1436 4.03809 18.4072 4.35059 18.9346C4.80957 19.7158 5.45898 20.1064 6.29883 20.1064C6.94336 20.1064 7.62695 19.7256 8.34961 18.9639C9.08203 18.2021 9.44824 16.9814 9.44824 15.3018C9.44824 12.8018 8.37891 11.5518 6.24023 11.5518C6.10352 11.5518 5.58105 11.6494 4.67285 11.8447L4.49707 10.6436C6.0791 10.2822 7.20215 9.71582 7.86621 8.94434C8.54004 8.16309 8.87695 7.34277 8.87695 6.4834C8.87695 5.68262 8.68652 5.05273 8.30566 4.59375C7.9248 4.13477 7.49512 3.90527 7.0166 3.90527ZM17.1826 20.8242C16.8506 20.502 16.6846 20.1113 16.6846 19.6523C16.6846 19.1934 16.8506 18.7979 17.1826 18.4658C17.5146 18.1338 17.9102 17.9678 18.3691 17.9678C18.8281 17.9678 19.2236 18.1338 19.5557 18.4658C19.8877 18.7979 20.0537 19.1934 20.0537 19.6523C20.0537 20.1113 19.8877 20.502 19.5557 20.8242C19.2236 21.1367 18.8281 21.293 18.3691 21.293C17.9102 21.293 17.5146 21.1367 17.1826 20.8242ZM23.5547 7.05469C23.5547 6.01953 24.0576 5.03809 25.0635 4.11035C26.0791 3.17285 27.417 2.7041 29.0771 2.7041C29.7998 2.7041 30.4736 2.77734 31.0986 2.92383C31.7334 3.07031 32.3389 3.30469 32.915 3.62695C33.501 3.94922 33.9551 4.43262 34.2773 5.07715C34.6094 5.71191 34.7754 6.46875 34.7754 7.34766C34.7754 8.36328 34.4238 9.34961 33.7207 10.3066C33.0273 11.2539 31.8994 12.4893 30.3369 14.0127C30.2393 14.1104 29.9072 14.4277 29.3408 14.9648C28.7842 15.4922 28.3496 15.917 28.0371 16.2393C27.7344 16.5518 27.4268 16.9424 27.1143 17.4111C26.8018 17.8799 26.6455 18.2852 26.6455 18.627H31.5088C32.0654 18.627 32.4854 18.4609 32.7686 18.1289C33.0518 17.7871 33.335 17.1035 33.6182 16.0781L34.9072 16.3564C34.6631 17.46 34.4434 19.0078 34.248 21H23.5254C23.5254 20.082 23.7598 19.1885 24.2285 18.3193C24.707 17.4502 25.6641 16.2441 27.0996 14.7012L29.2676 12.416C30.0098 11.6152 30.5176 10.8486 30.791 10.1162C31.0742 9.37402 31.2158 8.49023 31.2158 7.46484C31.2158 6.24414 30.957 5.3457 30.4395 4.76953C29.9316 4.19336 29.4092 3.90527 28.8721 3.90527C28.1299 3.90527 27.5098 4.10059 27.0117 4.49121C26.5137 4.88184 26.2646 5.27246 26.2646 5.66309C26.2646 6.00488 26.3037 6.26855 26.3818 6.4541C26.4404 6.61035 26.4697 6.82031 26.4697 7.08398C26.4697 7.50391 26.3232 7.82129 26.0303 8.03613C25.7471 8.24121 25.415 8.34375 25.0342 8.34375C24.6338 8.34375 24.2871 8.22168 23.9941 7.97754C23.7012 7.72363 23.5547 7.41602 23.5547 7.05469ZM39.2139 20.8242C38.8818 20.502 38.7158 20.1113 38.7158 19.6523C38.7158 19.1934 38.8818 18.7979 39.2139 18.4658C39.5459 18.1338 39.9414 17.9678 40.4004 17.9678C40.8594 17.9678 41.2549 18.1338 41.5869 18.4658C41.9189 18.7979 42.085 19.1934 42.085 19.6523C42.085 20.1113 41.9189 20.502 41.5869 20.8242C41.2549 21.1367 40.8594 21.293 40.4004 21.293C39.9414 21.293 39.5459 21.1367 39.2139 20.8242Z" fill="#C92B1D"/>
<path d="M67.9395 3.93457C67.9395 3.45605 67.8125 3.11914 67.5586 2.92383C67.3145 2.71875 66.9043 2.61621 66.3281 2.61621H65.9033C65.7275 2.61621 65.6396 2.5332 65.6396 2.36719V1.64941L65.6982 1.62012C67.0557 1.63965 68.125 1.64941 68.9062 1.64941L72.1143 1.62012L72.1729 1.64941V2.36719C72.1729 2.52344 72.0947 2.60645 71.9385 2.61621H71.5137C70.4102 2.61621 69.8584 3.05566 69.8584 3.93457V20.2529C69.8584 20.9951 69.4775 21.3662 68.7158 21.3662C68.1982 21.3662 67.7295 21.0928 67.3096 20.5459L56.8066 6.89355V18.7148C56.8066 19.5938 57.3584 20.0332 58.4619 20.0332H58.8867C59.043 20.0332 59.1211 20.126 59.1211 20.3115V21L59.0625 21.0586C57.5977 21.0195 56.5186 21 55.8252 21C55.8252 21 54.6924 21.0195 52.4268 21.0586L52.3682 21V20.3115C52.3682 20.1357 52.4512 20.043 52.6172 20.0332H53.0273C54.2871 20.0332 54.917 19.5938 54.917 18.7148V4.19824C54.6729 3.85645 54.4775 3.59766 54.3311 3.42188C54.1846 3.23633 53.9697 3.05566 53.6865 2.87988C53.4131 2.7041 53.125 2.61621 52.8223 2.61621C52.4219 2.61621 52.2217 2.50391 52.2217 2.2793V1.70801L52.3096 1.62012H56.6602L67.9395 15.9609V3.93457ZM77.4756 12.4453H82.2803C82.3193 12.4062 82.3389 12.2988 82.3389 12.123C82.3389 11.0391 82.124 10.2383 81.6943 9.7207C81.2646 9.20312 80.8008 8.94434 80.3027 8.94434C80.1074 8.94434 79.8877 8.98828 79.6436 9.07617C79.3994 9.16406 79.126 9.32031 78.8232 9.54492C78.5303 9.75977 78.2568 10.1162 78.0029 10.6143C77.749 11.1123 77.5732 11.7227 77.4756 12.4453ZM84.7705 17.7334L85.5176 18.3633C84.5605 20.3262 82.8027 21.3027 80.2441 21.293C78.1055 21.293 76.5088 20.707 75.4541 19.5352C74.4092 18.3535 73.8867 16.8594 73.8867 15.0527C73.8867 12.875 74.541 11.1025 75.8496 9.73535C77.1582 8.36816 78.6523 7.68457 80.332 7.68457C82.334 7.68457 83.7451 8.19727 84.5654 9.22266C85.3857 10.2383 85.7959 11.5029 85.7959 13.0166C85.7959 13.4365 85.4053 13.6465 84.624 13.6465H77.3291V14.4229C77.3291 15.9072 77.7197 17.1475 78.501 18.1436C79.2822 19.1299 80.2539 19.623 81.416 19.623C82.6172 19.623 83.7354 18.9932 84.7705 17.7334ZM92.666 9.38379V16.957C92.666 18.4219 92.9248 19.1494 93.4424 19.1396C94.1846 19.1396 94.8633 18.8906 95.4785 18.3926L96.167 19.0811C95.0439 20.5654 93.6328 21.3027 91.9336 21.293C90.2148 21.293 89.3555 20.2773 89.3555 18.2461V9.38379H87.832C87.4707 9.38379 87.29 9.30566 87.29 9.14941V8.22656C87.29 8.07031 87.6709 7.9873 88.4326 7.97754C89.1357 7.97754 89.6094 7.66504 89.8535 7.04004C90.1074 6.40527 90.2344 5.41895 90.2344 4.08105L92.666 3.14355V7.97754H95.5078C95.9473 7.97754 96.167 8.08008 96.167 8.28516V8.88574C96.167 9.22754 95.7959 9.39355 95.0537 9.38379H92.666ZM102.466 10.292L105.293 17.9971L107.417 12.6943L106.494 10.3506C106.299 9.85254 106.064 9.51074 105.791 9.3252C105.518 9.12988 105.142 9.00293 104.663 8.94434C104.468 8.9248 104.365 8.85156 104.355 8.72461V7.97754L104.458 7.91895C105.698 7.95801 106.714 7.97754 107.505 7.97754L111.167 7.91895L111.284 7.97754V8.69531C111.284 8.83203 111.196 8.91504 111.021 8.94434L110.508 9.00293C110.068 9.06152 109.81 9.18359 109.731 9.36914C109.653 9.54492 109.702 9.85254 109.878 10.292L112.676 18.0264L115.459 10.3506C115.596 9.87207 115.605 9.56934 115.488 9.44238C115.371 9.30566 114.951 9.14941 114.229 8.97363L114.111 8.94434C113.955 8.90527 113.877 8.83203 113.877 8.72461V8.00684L113.994 7.91895C115.352 7.95801 116.47 7.97754 117.349 7.97754L119.385 7.91895L119.458 7.97754V8.66602C119.458 8.82227 119.346 8.91504 119.121 8.94434C118.516 9.02246 118.062 9.19824 117.759 9.47168C117.456 9.74512 117.192 10.165 116.968 10.7314L113.218 20.0039C112.876 20.9023 112.412 21.3564 111.826 21.3662C111.162 21.3662 110.645 20.9219 110.273 20.0332L108.076 14.4229L105.864 19.9453C105.747 20.248 105.635 20.4873 105.527 20.6631C105.43 20.8291 105.288 20.9854 105.103 21.1318C104.927 21.2881 104.722 21.3662 104.487 21.3662C104.067 21.3662 103.74 21.2588 103.506 21.0439C103.271 20.8389 103.066 20.502 102.891 20.0332L99.3457 10.9658C99.082 10.3018 98.8086 9.81836 98.5254 9.51562C98.252 9.20312 97.8076 9.0127 97.1924 8.94434C96.9678 8.9248 96.8555 8.85156 96.8555 8.72461V7.97754L96.958 7.91895C98.2568 7.95801 99.3164 7.97754 100.137 7.97754L103.345 7.91895L103.462 7.97754V8.69531C103.462 8.83203 103.35 8.91504 103.125 8.94434C102.686 9.00293 102.427 9.14453 102.349 9.36914C102.271 9.58398 102.31 9.8916 102.466 10.292ZM127.324 8.91504C126.426 8.91504 125.728 9.4375 125.229 10.4824C124.741 11.5176 124.497 12.7334 124.497 14.1299C124.497 14.9502 124.619 15.79 124.863 16.6494C125.107 17.5088 125.513 18.2852 126.079 18.9785C126.646 19.6621 127.31 20.0039 128.071 20.0039C128.774 20.0039 129.395 19.6768 129.932 19.0225C130.469 18.3584 130.737 17.1768 130.737 15.4775C130.737 13.3779 130.425 11.7617 129.8 10.6289C129.185 9.48633 128.359 8.91504 127.324 8.91504ZM120.85 14.7891C120.85 12.6699 121.445 10.9561 122.637 9.64746C123.838 8.33887 125.498 7.68457 127.617 7.68457C128.779 7.68457 129.814 7.88965 130.723 8.2998C131.641 8.70996 132.354 9.25684 132.861 9.94043C133.369 10.6143 133.745 11.3418 133.989 12.123C134.243 12.9043 134.37 13.7051 134.37 14.5254C134.37 15.3066 134.229 16.0879 133.945 16.8691C133.672 17.6406 133.267 18.3633 132.729 19.0371C132.202 19.7012 131.494 20.2432 130.605 20.6631C129.717 21.083 128.711 21.293 127.588 21.293C125.508 21.293 123.862 20.6289 122.651 19.3008C121.45 17.9727 120.85 16.4688 120.85 14.7891ZM141.592 9.57422C142.812 8.31445 144.092 7.68457 145.43 7.68457C145.947 7.68457 146.367 7.86035 146.689 8.21191C147.012 8.55371 147.173 8.93457 147.173 9.35449C147.173 9.83301 147.031 10.2383 146.748 10.5703C146.475 10.9023 146.113 11.0684 145.664 11.0684C145.4 11.0684 145.146 11.0098 144.902 10.8926C144.668 10.7656 144.478 10.6289 144.331 10.4824C144.185 10.3262 144.033 10.1846 143.877 10.0576C143.721 9.93066 143.584 9.86719 143.467 9.86719C143.105 9.86719 142.739 9.99902 142.368 10.2627C141.851 10.624 141.592 11.3223 141.592 12.3574V18.6855C141.592 18.9492 141.65 19.1689 141.768 19.3447C141.895 19.5107 142.051 19.6377 142.236 19.7256C142.422 19.8135 142.686 19.8965 143.027 19.9746L143.276 20.0332C143.433 20.0723 143.511 20.165 143.511 20.3115V21L143.452 21.0586C141.851 21.0195 140.659 21 139.878 21L136.406 21.0586L136.348 21V20.3115C136.348 20.1553 136.416 20.0625 136.553 20.0332L136.846 19.9746C137.344 19.877 137.71 19.7354 137.944 19.5498C138.179 19.3545 138.296 19.0664 138.296 18.6855V11.376C138.296 10.6729 138.242 10.2139 138.135 9.99902C138.037 9.77441 137.871 9.65234 137.637 9.63281L136.406 9.51562L136.348 8.49023C138.789 8.16797 140.469 7.87012 141.387 7.59668C141.523 7.59668 141.592 7.62598 141.592 7.68457L141.533 9.57422H141.592ZM149.912 18.6855V4.11035C149.912 3.19238 149.844 2.59668 149.707 2.32324C149.58 2.0498 149.351 1.91309 149.019 1.91309L148.052 1.85449C147.935 1.85449 147.876 1.80566 147.876 1.70801L147.788 0.84375C148.53 0.785156 149.468 0.677734 150.601 0.521484C151.743 0.355469 152.485 0.199219 152.827 0.0527344C153.149 0.0527344 153.306 0.155273 153.296 0.360352C153.237 1.16113 153.208 2.21094 153.208 3.50977V13.5293C153.501 13.4902 153.799 13.3877 154.102 13.2217C154.404 13.0557 154.668 12.875 154.893 12.6797C155.176 12.4355 155.469 12.1426 155.771 11.8008C156.084 11.4492 156.431 11.0244 156.812 10.5264C157.114 10.0674 157.202 9.70605 157.075 9.44238C156.958 9.16895 156.758 9.02246 156.475 9.00293L155.845 8.94434C155.581 8.9248 155.454 8.82227 155.464 8.63672V7.97754L155.61 7.91895C156.948 7.95801 157.969 7.97754 158.672 7.97754L162.129 7.91895L162.217 7.97754V8.63672C162.217 8.75391 162.202 8.83691 162.173 8.88574C162.144 8.9248 162.056 8.94434 161.909 8.94434L161.016 9.00293C160.752 9.02246 160.386 9.17871 159.917 9.47168C159.448 9.75488 159.023 10.0869 158.643 10.4678L156.387 12.9287C156.27 13.0654 156.299 13.2656 156.475 13.5293L159.961 18.6562C160.479 19.457 161.04 19.8867 161.646 19.9453L162.51 20.0332C162.666 20.0527 162.749 20.1162 162.759 20.2236V21L162.656 21.0586C161.26 21.0195 160.171 21 159.39 21L156.87 21.0586L156.812 21V20.2236C156.812 19.8623 156.65 19.3398 156.328 18.6562C155.986 17.9336 155.308 16.8154 154.292 15.3018C154.048 14.96 153.687 14.7695 153.208 14.7305V18.6855C153.208 19.0664 153.311 19.3398 153.516 19.5059C153.73 19.6621 154.121 19.8184 154.688 19.9746L154.893 20.0332C155.049 20.0527 155.127 20.1455 155.127 20.3115V21L155.068 21.0586C153.467 21.0195 152.28 21 151.509 21L147.935 21.0586L147.876 21V20.3115C147.876 20.1553 147.954 20.0625 148.11 20.0332L148.477 19.9746C148.975 19.8965 149.336 19.7646 149.561 19.5791C149.795 19.3838 149.912 19.0859 149.912 18.6855ZM7.58789 46.3574H12.085L9.59473 39.5752L7.0166 46.0059C7.0166 46.1426 7.0459 46.2354 7.10449 46.2842C7.16309 46.333 7.32422 46.3574 7.58789 46.3574ZM4.43848 52.627C4.19434 53.0664 4.16016 53.4082 4.33594 53.6523C4.52148 53.8867 5.02441 54.0039 5.84473 54.0039C6.26465 54.0039 6.47461 54.1064 6.47461 54.3115V54.9121L6.32812 55.0293C4.49219 54.9902 3.33496 54.9707 2.85645 54.9707L0.292969 55.0293L0.0585938 54.9414V54.3115C0.0585938 54.1162 0.258789 54.0137 0.65918 54.0039C1.00098 54.0039 1.3623 53.8574 1.74316 53.5645C2.12402 53.2617 2.43164 52.832 2.66602 52.2754L9.36035 36.1914C9.62402 35.5762 10.0439 35.2637 10.6201 35.2539C11.2842 35.2539 11.7334 35.5664 11.9678 36.1914L18.0322 52.2754C18.2568 52.8711 18.4863 53.3105 18.7207 53.5938C18.9648 53.8672 19.2627 54.0039 19.6143 54.0039H20.4639C20.6885 54.0039 20.8154 54.0234 20.8447 54.0625C20.8838 54.0918 20.9033 54.1748 20.9033 54.3115V54.9121L20.7568 55.0293C18.833 54.9902 17.4951 54.9707 16.7432 54.9707L12.4219 55.0293L12.1729 54.8828V54.3115C12.1729 54.1162 12.4365 54.0137 12.9639 54.0039H13.7695C14.2676 54.0039 14.5166 53.7451 14.5166 53.2275C14.5166 53.0029 14.4971 52.8613 14.458 52.8027L12.5977 47.7637H7.0752C6.75293 47.7637 6.53809 47.793 6.43066 47.8516C6.32324 47.9004 6.23047 48.0127 6.15234 48.1885L4.43848 52.627ZM27.1875 43.5742C28.4082 42.3145 29.6875 41.6846 31.0254 41.6846C31.543 41.6846 31.9629 41.8604 32.2852 42.2119C32.6074 42.5537 32.7686 42.9346 32.7686 43.3545C32.7686 43.833 32.627 44.2383 32.3438 44.5703C32.0703 44.9023 31.709 45.0684 31.2598 45.0684C30.9961 45.0684 30.7422 45.0098 30.498 44.8926C30.2637 44.7656 30.0732 44.6289 29.9268 44.4824C29.7803 44.3262 29.6289 44.1846 29.4727 44.0576C29.3164 43.9307 29.1797 43.8672 29.0625 43.8672C28.7012 43.8672 28.335 43.999 27.9639 44.2627C27.4463 44.624 27.1875 45.3223 27.1875 46.3574V52.6855C27.1875 52.9492 27.2461 53.1689 27.3633 53.3447C27.4902 53.5107 27.6465 53.6377 27.832 53.7256C28.0176 53.8135 28.2812 53.8965 28.623 53.9746L28.8721 54.0332C29.0283 54.0723 29.1064 54.165 29.1064 54.3115V55L29.0479 55.0586C27.4463 55.0195 26.2549 55 25.4736 55L22.002 55.0586L21.9434 55V54.3115C21.9434 54.1553 22.0117 54.0625 22.1484 54.0332L22.4414 53.9746C22.9395 53.877 23.3057 53.7354 23.54 53.5498C23.7744 53.3545 23.8916 53.0664 23.8916 52.6855V45.376C23.8916 44.6729 23.8379 44.2139 23.7305 43.999C23.6328 43.7744 23.4668 43.6523 23.2324 43.6328L22.002 43.5156L21.9434 42.4902C24.3848 42.168 26.0645 41.8701 26.9824 41.5967C27.1191 41.5967 27.1875 41.626 27.1875 41.6846L27.1289 43.5742H27.1875ZM59.1504 52.6855C59.1504 53.0859 59.2627 53.3789 59.4873 53.5645C59.7217 53.7402 60.0977 53.877 60.6152 53.9746L60.9521 54.0332C61.1084 54.0527 61.1865 54.1455 61.1865 54.3115V55L61.1279 55.0586C59.4482 55.0195 58.2178 55 57.4365 55L54.0234 55.0586L53.9648 55V54.3115C53.9648 54.1553 54.043 54.0625 54.1992 54.0332L54.4043 53.9746C54.7656 53.877 55.0293 53.7891 55.1953 53.7109C55.3711 53.6328 55.5225 53.5107 55.6494 53.3447C55.7861 53.1689 55.8545 52.9492 55.8545 52.6855V46.1523C55.8545 44.9902 55.752 44.2236 55.5469 43.8525C55.3516 43.4814 54.9512 43.2959 54.3457 43.2959C54.0234 43.2959 53.5352 43.4277 52.8809 43.6914C52.2363 43.9551 51.5967 44.3164 50.9619 44.7754V52.6855C50.9619 53.0664 51.0645 53.3398 51.2695 53.5059C51.4844 53.6621 51.8701 53.8184 52.4268 53.9746L52.6465 54.0332C52.8027 54.0527 52.8809 54.1455 52.8809 54.3115V55L52.8223 55.0586C51.2207 55.0195 50.0293 55 49.248 55L45.6738 55.0586L45.6152 55V54.3115C45.6152 54.1553 45.6982 54.0625 45.8643 54.0332L46.2158 53.9746C46.7139 53.8965 47.0801 53.7646 47.3145 53.5791C47.5488 53.3838 47.666 53.0859 47.666 52.6855V38.1104C47.666 37.1924 47.5977 36.5967 47.4609 36.3232C47.334 36.0498 47.0996 35.9131 46.7578 35.9131L45.8057 35.8545C45.6885 35.8545 45.625 35.8057 45.6152 35.708L45.5273 34.8438C46.2695 34.7852 47.2119 34.6777 48.3545 34.5215C49.4971 34.3555 50.2344 34.1992 50.5664 34.0527C50.8887 34.0527 51.0498 34.1553 51.0498 34.3604C50.9912 35.1611 50.9619 36.2109 50.9619 37.5098V43.5742C51.7627 42.9785 52.5928 42.5098 53.4521 42.168C54.3115 41.8262 55.0293 41.6553 55.6055 41.6553C56.8652 41.6553 57.7686 42.0557 58.3154 42.8564C58.8721 43.6475 59.1504 44.8535 59.1504 46.4746V52.6855ZM45.0439 52.3926C44.0869 54.3359 42.5195 55.3027 40.3418 55.293C38.2617 55.293 36.6797 54.7412 35.5957 53.6377C34.5215 52.5244 33.9844 50.9668 33.9844 48.9648C33.9844 46.8652 34.6143 45.127 35.874 43.75C37.1338 42.373 38.6621 41.6846 40.459 41.6846C42.002 41.6846 43.1787 41.9873 43.9893 42.5928C44.7998 43.1885 45.2051 43.9258 45.2051 44.8047C45.2051 45.2832 45.0684 45.6836 44.7949 46.0059C44.5215 46.3184 44.1553 46.4746 43.6963 46.4746C43.2178 46.4746 42.8223 46.3477 42.5098 46.0938C42.207 45.8301 42.0361 45.4883 41.9971 45.0684C41.8604 43.6523 41.3086 42.9443 40.3418 42.9443C39.5215 42.9443 38.8232 43.418 38.2471 44.3652C37.6807 45.3125 37.3975 46.5967 37.3975 48.2178C37.3975 49.7998 37.7637 51.123 38.4961 52.1875C39.2285 53.2422 40.1025 53.7695 41.1182 53.7695C42.1826 53.7695 43.2959 53.1201 44.458 51.8213L45.0439 52.3926ZM67.9395 45.3613V52.6855C67.9395 53.0859 68.0518 53.3789 68.2764 53.5645C68.5107 53.7402 68.8672 53.877 69.3457 53.9746L69.6533 54.0332C69.8096 54.0723 69.8877 54.165 69.8877 54.3115V55L69.8291 55.0586C68.208 55.0195 67.0068 55 66.2256 55L62.7246 55.0586L62.666 55V54.3115C62.666 54.1553 62.7344 54.0625 62.8711 54.0332L63.2373 53.9746C63.7354 53.8965 64.0918 53.7646 64.3066 53.5791C64.5312 53.3838 64.6436 53.0859 64.6436 52.6855V45.376C64.6436 44.6729 64.585 44.1943 64.4678 43.9404C64.3604 43.6768 64.1992 43.5352 63.9844 43.5156L62.7539 43.3838L62.6953 42.4902C65.3711 42.1289 67.0801 41.8311 67.8223 41.5967C67.959 41.5967 68.0273 41.626 68.0273 41.6846C68.0176 41.8506 68.0078 42.0654 67.998 42.3291C67.998 42.5928 67.9883 43.0518 67.9688 43.7061C67.9492 44.3604 67.9395 44.9121 67.9395 45.3613ZM64.9805 39.1504C64.6387 38.7988 64.4678 38.374 64.4678 37.876C64.4678 37.3682 64.6387 36.9434 64.9805 36.6016C65.332 36.25 65.7568 36.0742 66.2549 36.0742C66.7627 36.0742 67.1875 36.25 67.5293 36.6016C67.8809 36.9434 68.0566 37.3682 68.0566 37.876C68.0566 38.374 67.8809 38.7988 67.5293 39.1504C67.1875 39.4922 66.7627 39.6631 66.2549 39.6631C65.7568 39.6631 65.332 39.4922 64.9805 39.1504ZM76.1719 43.3838V50.957C76.1719 52.4219 76.4307 53.1494 76.9482 53.1396C77.6904 53.1396 78.3691 52.8906 78.9844 52.3926L79.6729 53.0811C78.5498 54.5654 77.1387 55.3027 75.4395 55.293C73.7207 55.293 72.8613 54.2773 72.8613 52.2461V43.3838H71.3379C70.9766 43.3838 70.7959 43.3057 70.7959 43.1494V42.2266C70.7959 42.0703 71.1768 41.9873 71.9385 41.9775C72.6416 41.9775 73.1152 41.665 73.3594 41.04C73.6133 40.4053 73.7402 39.4189 73.7402 38.0811L76.1719 37.1436V41.9775H79.0137C79.4531 41.9775 79.6729 42.0801 79.6729 42.2852V42.8857C79.6729 43.2275 79.3018 43.3936 78.5596 43.3838H76.1719ZM84.7412 46.4453H89.5459C89.585 46.4062 89.6045 46.2988 89.6045 46.123C89.6045 45.0391 89.3896 44.2383 88.96 43.7207C88.5303 43.2031 88.0664 42.9443 87.5684 42.9443C87.373 42.9443 87.1533 42.9883 86.9092 43.0762C86.665 43.1641 86.3916 43.3203 86.0889 43.5449C85.7959 43.7598 85.5225 44.1162 85.2686 44.6143C85.0146 45.1123 84.8389 45.7227 84.7412 46.4453ZM92.0361 51.7334L92.7832 52.3633C91.8262 54.3262 90.0684 55.3027 87.5098 55.293C85.3711 55.293 83.7744 54.707 82.7197 53.5352C81.6748 52.3535 81.1523 50.8594 81.1523 49.0527C81.1523 46.875 81.8066 45.1025 83.1152 43.7354C84.4238 42.3682 85.918 41.6846 87.5977 41.6846C89.5996 41.6846 91.0107 42.1973 91.8311 43.2227C92.6514 44.2383 93.0615 45.5029 93.0615 47.0166C93.0615 47.4365 92.6709 47.6465 91.8896 47.6465H84.5947V48.4229C84.5947 49.9072 84.9854 51.1475 85.7666 52.1436C86.5479 53.1299 87.5195 53.623 88.6816 53.623C89.8828 53.623 91.001 52.9932 92.0361 51.7334ZM106.333 52.3926C105.376 54.3359 103.809 55.3027 101.631 55.293C99.5508 55.293 97.9688 54.7412 96.8848 53.6377C95.8105 52.5244 95.2734 50.9668 95.2734 48.9648C95.2734 46.8652 95.9033 45.127 97.1631 43.75C98.4229 42.373 99.9512 41.6846 101.748 41.6846C103.291 41.6846 104.468 41.9873 105.278 42.5928C106.089 43.1885 106.494 43.9258 106.494 44.8047C106.494 45.2832 106.357 45.6836 106.084 46.0059C105.811 46.3184 105.444 46.4746 104.985 46.4746C104.507 46.4746 104.111 46.3477 103.799 46.0938C103.496 45.8301 103.325 45.4883 103.286 45.0684C103.149 43.6523 102.598 42.9443 101.631 42.9443C100.811 42.9443 100.112 43.418 99.5361 44.3652C98.9697 45.3125 98.6865 46.5967 98.6865 48.2178C98.6865 49.7998 99.0527 51.123 99.7852 52.1875C100.518 53.2422 101.392 53.7695 102.407 53.7695C103.472 53.7695 104.585 53.1201 105.747 51.8213L106.333 52.3926ZM113.174 43.3838V50.957C113.174 52.4219 113.433 53.1494 113.95 53.1396C114.692 53.1396 115.371 52.8906 115.986 52.3926L116.675 53.0811C115.552 54.5654 114.141 55.3027 112.441 55.293C110.723 55.293 109.863 54.2773 109.863 52.2461V43.3838H108.34C107.979 43.3838 107.798 43.3057 107.798 43.1494V42.2266C107.798 42.0703 108.179 41.9873 108.94 41.9775C109.644 41.9775 110.117 41.665 110.361 41.04C110.615 40.4053 110.742 39.4189 110.742 38.0811L113.174 37.1436V41.9775H116.016C116.455 41.9775 116.675 42.0801 116.675 42.2852V42.8857C116.675 43.2275 116.304 43.3936 115.562 43.3838H113.174ZM130.986 51.543C130.986 52.0605 131.118 52.4609 131.382 52.7441C131.655 53.0273 132.163 53.1885 132.905 53.2275L132.935 54.165C131.079 54.4092 129.673 54.8096 128.716 55.3662H127.69L127.778 53.9453C126.362 54.8438 125.073 55.293 123.911 55.293C122.329 55.293 121.235 54.917 120.63 54.165C120.034 53.4033 119.736 52.4023 119.736 51.1621V44.4385C119.736 43.96 119.678 43.6084 119.561 43.3838C119.443 43.1494 119.214 43.0225 118.872 43.0029L117.935 42.9443L117.847 42.8857V41.9775L117.993 41.9189C119.575 41.958 120.688 41.9775 121.333 41.9775L123.076 41.9189C123.057 42.8174 123.042 43.6377 123.032 44.3799V50.7373C123.032 51.8604 123.198 52.6514 123.53 53.1104C123.862 53.5693 124.238 53.7988 124.658 53.7988C125.82 53.7988 126.831 53.4277 127.69 52.6855V44.4385C127.69 43.4814 127.412 43.0029 126.855 43.0029L125.918 42.9443L125.801 42.8857V41.9775L125.918 41.9189C127.598 41.958 128.706 41.9775 129.243 41.9775L131.045 41.9189C131.006 42.7588 130.986 43.5791 130.986 44.3799V51.543ZM139.834 43.5742C141.055 42.3145 142.334 41.6846 143.672 41.6846C144.189 41.6846 144.609 41.8604 144.932 42.2119C145.254 42.5537 145.415 42.9346 145.415 43.3545C145.415 43.833 145.273 44.2383 144.99 44.5703C144.717 44.9023 144.355 45.0684 143.906 45.0684C143.643 45.0684 143.389 45.0098 143.145 44.8926C142.91 44.7656 142.72 44.6289 142.573 44.4824C142.427 44.3262 142.275 44.1846 142.119 44.0576C141.963 43.9307 141.826 43.8672 141.709 43.8672C141.348 43.8672 140.981 43.999 140.61 44.2627C140.093 44.624 139.834 45.3223 139.834 46.3574V52.6855C139.834 52.9492 139.893 53.1689 140.01 53.3447C140.137 53.5107 140.293 53.6377 140.479 53.7256C140.664 53.8135 140.928 53.8965 141.27 53.9746L141.519 54.0332C141.675 54.0723 141.753 54.165 141.753 54.3115V55L141.694 55.0586C140.093 55.0195 138.901 55 138.12 55L134.648 55.0586L134.59 55V54.3115C134.59 54.1553 134.658 54.0625 134.795 54.0332L135.088 53.9746C135.586 53.877 135.952 53.7354 136.187 53.5498C136.421 53.3545 136.538 53.0664 136.538 52.6855V45.376C136.538 44.6729 136.484 44.2139 136.377 43.999C136.279 43.7744 136.113 43.6523 135.879 43.6328L134.648 43.5156L134.59 42.4902C137.031 42.168 138.711 41.8701 139.629 41.5967C139.766 41.5967 139.834 41.626 139.834 41.6846L139.775 43.5742H139.834ZM150.132 46.4453H154.937C154.976 46.4062 154.995 46.2988 154.995 46.123C154.995 45.0391 154.78 44.2383 154.351 43.7207C153.921 43.2031 153.457 42.9443 152.959 42.9443C152.764 42.9443 152.544 42.9883 152.3 43.0762C152.056 43.1641 151.782 43.3203 151.479 43.5449C151.187 43.7598 150.913 44.1162 150.659 44.6143C150.405 45.1123 150.229 45.7227 150.132 46.4453ZM157.427 51.7334L158.174 52.3633C157.217 54.3262 155.459 55.3027 152.9 55.293C150.762 55.293 149.165 54.707 148.11 53.5352C147.065 52.3535 146.543 50.8594 146.543 49.0527C146.543 46.875 147.197 45.1025 148.506 43.7354C149.814 42.3682 151.309 41.6846 152.988 41.6846C154.99 41.6846 156.401 42.1973 157.222 43.2227C158.042 44.2383 158.452 45.5029 158.452 47.0166C158.452 47.4365 158.062 47.6465 157.28 47.6465H149.985V48.4229C149.985 49.9072 150.376 51.1475 151.157 52.1436C151.938 53.1299 152.91 53.623 154.072 53.623C155.273 53.623 156.392 52.9932 157.427 51.7334Z" fill="black"/>
</svg>
