<svg width="187" height="93" viewBox="0 0 187 93" fill="none" xmlns="http://www.w3.org/2000/svg">
<path d="M35.1875 50.7539V76.7305C35.1875 81.7435 35.4837 84.9108 36.0762 86.2324C36.7142 87.5085 37.8079 88.5339 39.3574 89.3086C40.9069 90.0833 43.8008 90.4707 48.0391 90.4707V93H0.597656V90.4707C4.88151 90.4707 7.77539 90.0833 9.2793 89.3086C10.8288 88.4883 11.8997 87.4401 12.4922 86.1641C13.1302 84.888 13.4492 81.7435 13.4492 76.7305V16.5742C13.4492 11.5612 13.1302 8.41667 12.4922 7.14062C11.8997 5.81901 10.8288 4.77083 9.2793 3.99609C7.72982 3.22135 4.83594 2.83398 0.597656 2.83398V0.304688H43.6641C54.875 0.304688 63.0781 1.07943 68.2734 2.62891C73.4688 4.17839 77.707 7.04948 80.9883 11.2422C84.2695 15.3893 85.9102 20.2656 85.9102 25.8711C85.9102 32.707 83.4492 38.3581 78.5273 42.8242C75.3828 45.6497 70.985 47.7689 65.334 49.1816L87.6191 80.5586C90.5358 84.6146 92.6094 87.1439 93.8398 88.1465C95.7083 89.5592 97.873 90.334 100.334 90.4707V93H71.1445L41.2715 50.7539H35.1875ZM35.1875 5.29492V45.9004H39.084C45.4186 45.9004 50.1582 45.3307 53.3027 44.1914C56.4473 43.0065 58.9082 40.9102 60.6855 37.9023C62.5085 34.849 63.4199 30.8841 63.4199 26.0078C63.4199 18.944 61.7565 13.7259 58.4297 10.3535C55.1484 6.98112 49.8392 5.29492 42.502 5.29492H35.1875ZM137.316 5.63672V43.3711H139.162C145.041 43.3711 149.302 41.5254 151.945 37.834C154.589 34.1426 156.275 28.6966 157.004 21.4961H159.602V70.0312H157.004C156.457 64.7448 155.295 60.4154 153.518 57.043C151.786 53.6706 149.758 51.4147 147.434 50.2754C145.109 49.0905 141.737 48.498 137.316 48.498V74.6113C137.316 79.7155 137.521 82.8372 137.932 83.9766C138.387 85.1159 139.208 86.0501 140.393 86.7793C141.577 87.5085 143.492 87.873 146.135 87.873H151.672C160.331 87.873 167.258 85.8678 172.453 81.8574C177.694 77.847 181.454 71.7402 183.732 63.5371H186.262L182.092 93H101.975V90.4707H105.051C107.74 90.4707 109.904 89.9922 111.545 89.0352C112.73 88.3971 113.641 87.3034 114.279 85.7539C114.781 84.6602 115.031 81.7891 115.031 77.1406V16.1641C115.031 11.9714 114.917 9.39648 114.689 8.43945C114.234 6.8444 113.391 5.61393 112.16 4.74805C110.428 3.47201 108.059 2.83398 105.051 2.83398H101.975V0.304688H179.562V27.7168H176.965C175.643 21.0176 173.775 16.2096 171.359 13.293C168.99 10.3763 165.617 8.23438 161.242 6.86719C158.69 6.04688 153.905 5.63672 146.887 5.63672H137.316Z" fill="black"/>
</svg>
