<svg width="163" height="28" viewBox="0 0 163 28" fill="none" xmlns="http://www.w3.org/2000/svg">
<path d="M53.8 20V6.88H57.9C58.7933 6.88 59.5867 7 60.28 7.24C60.9733 7.46667 61.5133 7.85333 61.9 8.4C62.3 8.93333 62.5 9.65333 62.5 10.56C62.5 11.44 62.3 12.1667 61.9 12.74C61.5133 13.3133 60.9733 13.7467 60.28 14.04C59.5867 14.32 58.7933 14.46 57.9 14.46H55.46V20H53.8ZM55.46 13.1H57.66C58.6867 13.1 59.4733 12.8933 60.02 12.48C60.5667 12.0533 60.84 11.4133 60.84 10.56C60.84 9.70667 60.5667 9.10667 60.02 8.76C59.4733 8.4 58.6867 8.22 57.66 8.22H55.46V13.1ZM61 20L57.58 14L58.88 13.12L62.88 20H61ZM68.7714 20.24C67.9047 20.24 67.1114 20.04 66.3914 19.64C65.6847 19.2267 65.1247 18.6467 64.7114 17.9C64.2981 17.14 64.0914 16.22 64.0914 15.14C64.0914 14.0867 64.3047 13.18 64.7314 12.42C65.1581 11.66 65.7047 11.0733 66.3714 10.66C67.0381 10.2467 67.7447 10.04 68.4914 10.04C69.3181 10.04 70.0181 10.2333 70.5914 10.62C71.1781 10.9933 71.6181 11.52 71.9114 12.2C72.2047 12.88 72.3514 13.68 72.3514 14.6C72.3514 14.7733 72.3447 14.94 72.3314 15.1C72.3314 15.26 72.3114 15.42 72.2714 15.58H65.2714V14.28H70.8714C70.8714 13.3467 70.6647 12.6333 70.2514 12.14C69.8514 11.6333 69.2714 11.38 68.5114 11.38C68.0714 11.38 67.6381 11.5067 67.2114 11.76C66.7847 12 66.4314 12.3933 66.1514 12.94C65.8847 13.4867 65.7514 14.2133 65.7514 15.12C65.7514 15.9467 65.8914 16.64 66.1714 17.2C66.4647 17.76 66.8581 18.1867 67.3514 18.48C67.8447 18.76 68.3847 18.9 68.9714 18.9C69.4381 18.9 69.8714 18.8333 70.2714 18.7C70.6847 18.5667 71.0581 18.3867 71.3914 18.16L71.9914 19.24C71.5647 19.5333 71.0847 19.7733 70.5514 19.96C70.0314 20.1467 69.4381 20.24 68.7714 20.24ZM76.4933 20.18C76.0799 20.18 75.7466 20.1 75.4933 19.94C75.2399 19.7667 75.0533 19.52 74.9333 19.2C74.8133 18.8667 74.7533 18.4667 74.7533 18V5.76H76.3933V18.12C76.3933 18.3867 76.4399 18.5733 76.5333 18.68C76.6266 18.7733 76.7399 18.82 76.8733 18.82C76.9266 18.82 76.9733 18.82 77.0133 18.82C77.0666 18.8067 77.1333 18.7933 77.2133 18.78L77.4533 20.02C77.3333 20.06 77.1933 20.0933 77.0333 20.12C76.8866 20.16 76.7066 20.18 76.4933 20.18ZM82.0909 20.24C81.5576 20.24 81.0709 20.1333 80.6309 19.92C80.2043 19.6933 79.8643 19.38 79.6109 18.98C79.3576 18.5667 79.2309 18.0667 79.2309 17.48C79.2309 16.3867 79.7109 15.56 80.6709 15C81.6309 14.44 83.1509 14.0467 85.2309 13.82C85.2176 13.42 85.1509 13.0333 85.0309 12.66C84.9243 12.2867 84.7243 11.9867 84.4309 11.76C84.1376 11.5333 83.7309 11.42 83.2109 11.42C82.6509 11.42 82.1243 11.5267 81.6309 11.74C81.1376 11.94 80.6976 12.1667 80.3109 12.42L79.6709 11.3C79.9643 11.1 80.3109 10.9067 80.7109 10.72C81.1109 10.52 81.5443 10.36 82.0109 10.24C82.4776 10.1067 82.9709 10.04 83.4909 10.04C84.2776 10.04 84.9176 10.2067 85.4109 10.54C85.9176 10.86 86.2843 11.32 86.5109 11.92C86.7509 12.52 86.8709 13.2267 86.8709 14.04V20H85.5109L85.3709 18.84H85.3109C84.8443 19.2267 84.3443 19.56 83.8109 19.84C83.2776 20.1067 82.7043 20.24 82.0909 20.24ZM82.5509 18.88C83.0309 18.88 83.4776 18.7733 83.8909 18.56C84.3176 18.3467 84.7643 18.0333 85.2309 17.62V15C84.1376 15.1333 83.2709 15.3067 82.6309 15.52C82.0043 15.72 81.5509 15.9733 81.2709 16.28C80.9909 16.5867 80.8509 16.9533 80.8509 17.38C80.8509 17.9133 81.0176 18.3 81.3509 18.54C81.6843 18.7667 82.0843 18.88 82.5509 18.88ZM92.7156 20.18C91.689 20.18 90.969 19.88 90.5556 19.28C90.1423 18.68 89.9356 17.9 89.9356 16.94V11.62H88.4956V10.38L90.0156 10.28L90.2156 7.16H91.5956V10.28H94.2356V11.62H91.5956V16.96C91.5956 17.5467 91.7023 18.0067 91.9156 18.34C92.1423 18.6733 92.5356 18.84 93.0956 18.84C93.269 18.84 93.449 18.8267 93.6356 18.8C93.8223 18.76 94.009 18.6933 94.1956 18.6L94.5556 19.76C94.3023 19.88 94.0156 19.98 93.6956 20.06C93.3756 20.14 93.049 20.18 92.7156 20.18ZM100.08 20.24C99.2133 20.24 98.42 20.04 97.7 19.64C96.9933 19.2267 96.4333 18.6467 96.02 17.9C95.6067 17.14 95.4 16.22 95.4 15.14C95.4 14.0867 95.6133 13.18 96.04 12.42C96.4667 11.66 97.0133 11.0733 97.68 10.66C98.3467 10.2467 99.0533 10.04 99.8 10.04C100.627 10.04 101.327 10.2333 101.9 10.62C102.487 10.9933 102.927 11.52 103.22 12.2C103.513 12.88 103.66 13.68 103.66 14.6C103.66 14.7733 103.653 14.94 103.64 15.1C103.64 15.26 103.62 15.42 103.58 15.58H96.58V14.28H102.18C102.18 13.3467 101.973 12.6333 101.56 12.14C101.16 11.6333 100.58 11.38 99.82 11.38C99.38 11.38 98.9467 11.5067 98.52 11.76C98.0933 12 97.74 12.3933 97.46 12.94C97.1933 13.4867 97.06 14.2133 97.06 15.12C97.06 15.9467 97.2 16.64 97.48 17.2C97.7733 17.76 98.1667 18.1867 98.66 18.48C99.1533 18.76 99.6933 18.9 100.28 18.9C100.747 18.9 101.18 18.8333 101.58 18.7C101.993 18.5667 102.367 18.3867 102.7 18.16L103.3 19.24C102.873 19.5333 102.393 19.7733 101.86 19.96C101.34 20.1467 100.747 20.24 100.08 20.24ZM109.382 20.24C108.155 20.24 107.175 19.8 106.442 18.92C105.722 18.0267 105.362 16.7733 105.362 15.16C105.362 14.1067 105.555 13.2 105.942 12.44C106.342 11.6667 106.862 11.0733 107.502 10.66C108.142 10.2467 108.835 10.04 109.582 10.04C110.155 10.04 110.642 10.14 111.042 10.34C111.455 10.5267 111.875 10.8 112.302 11.16L112.222 9.5V5.76H113.882V20H112.522L112.382 18.86H112.322C111.949 19.2333 111.509 19.56 111.002 19.84C110.495 20.1067 109.955 20.24 109.382 20.24ZM109.742 18.86C110.195 18.86 110.622 18.7467 111.022 18.52C111.422 18.2933 111.822 17.96 112.222 17.52V12.44C111.822 12.0667 111.429 11.8067 111.042 11.66C110.655 11.5 110.262 11.42 109.862 11.42C109.342 11.42 108.869 11.58 108.442 11.9C108.029 12.2067 107.695 12.64 107.442 13.2C107.189 13.7467 107.062 14.3933 107.062 15.14C107.062 16.3 107.295 17.2133 107.762 17.88C108.229 18.5333 108.889 18.86 109.742 18.86ZM122.7 20L119.98 6.88H121.76L123.1 14.02C123.233 14.7267 123.36 15.4333 123.48 16.14C123.6 16.8467 123.713 17.5733 123.82 18.32H123.9C124.033 17.5733 124.173 16.8467 124.32 16.14C124.48 15.4333 124.64 14.7267 124.8 14.02L126.58 6.88H128.26L129.98 14.02C130.14 14.7133 130.3 15.42 130.46 16.14C130.62 16.8467 130.773 17.5733 130.92 18.32H131C131.106 17.5733 131.22 16.8467 131.34 16.14C131.46 15.4333 131.58 14.7267 131.7 14.02L133.08 6.88H134.78L132.04 20H129.9L128.02 12.12C127.913 11.6267 127.806 11.1333 127.7 10.64C127.606 10.1333 127.513 9.6 127.42 9.04H127.34C127.26 9.6 127.166 10.1333 127.06 10.64C126.966 11.1333 126.866 11.6267 126.76 12.12L124.84 20H122.7ZM140.662 20.24C139.876 20.24 139.136 20.04 138.442 19.64C137.762 19.24 137.209 18.66 136.782 17.9C136.369 17.14 136.162 16.2267 136.162 15.16C136.162 14.0667 136.369 13.14 136.782 12.38C137.209 11.62 137.762 11.04 138.442 10.64C139.136 10.24 139.876 10.04 140.662 10.04C141.462 10.04 142.202 10.24 142.882 10.64C143.562 11.04 144.109 11.62 144.522 12.38C144.949 13.14 145.162 14.0667 145.162 15.16C145.162 16.2267 144.949 17.14 144.522 17.9C144.109 18.66 143.562 19.24 142.882 19.64C142.202 20.04 141.462 20.24 140.662 20.24ZM140.662 18.88C141.222 18.88 141.716 18.7267 142.142 18.42C142.569 18.1 142.896 17.66 143.122 17.1C143.349 16.54 143.462 15.8933 143.462 15.16C143.462 14.4133 143.349 13.76 143.122 13.2C142.896 12.6267 142.569 12.1867 142.142 11.88C141.716 11.56 141.222 11.4 140.662 11.4C140.102 11.4 139.609 11.56 139.182 11.88C138.769 12.1867 138.442 12.6267 138.202 13.2C137.976 13.76 137.862 14.4133 137.862 15.16C137.862 15.8933 137.976 16.54 138.202 17.1C138.442 17.66 138.769 18.1 139.182 18.42C139.609 18.7267 140.102 18.88 140.662 18.88ZM147.722 20V10.28H149.082L149.222 12.04H149.282C149.602 11.4267 150.002 10.94 150.482 10.58C150.962 10.22 151.482 10.04 152.042 10.04C152.255 10.04 152.442 10.0533 152.602 10.08C152.762 10.1067 152.922 10.16 153.082 10.24L152.722 11.64C152.575 11.6 152.435 11.5733 152.302 11.56C152.182 11.5333 152.022 11.52 151.822 11.52C151.409 11.52 150.975 11.6867 150.522 12.02C150.082 12.3533 149.695 12.9333 149.362 13.76V20H147.722ZM154.656 20V5.76H156.296V15.38H156.336L160.456 10.28H162.296L159.056 14.2L162.736 20H160.936L158.096 15.32L156.296 17.44V20H154.656Z" fill="#C92B1D"/>
<line x1="-8" y1="17.5" x2="40" y2="17.5" stroke="#C92B1D"/>
</svg>
