<svg width="277" height="93" viewBox="0 0 277 93" fill="none" xmlns="http://www.w3.org/2000/svg">
<path d="M83.3203 0.304688V25.3926H80.8594C79.401 19.6048 77.7832 15.4577 76.0059 12.9512C74.2285 10.3991 71.7904 8.37109 68.6914 6.86719C66.9596 6.04688 63.929 5.63672 59.5996 5.63672H52.6953V77.1406C52.6953 81.8802 52.946 84.8424 53.4473 86.0273C53.9941 87.2122 55.0195 88.2604 56.5234 89.1719C58.0729 90.0378 60.1693 90.4707 62.8125 90.4707H65.8887V93H17.3535V90.4707H20.4297C23.1185 90.4707 25.2832 89.9922 26.9238 89.0352C28.1087 88.3971 29.043 87.3034 29.7266 85.7539C30.2279 84.6602 30.4785 81.7891 30.4785 77.1406V5.63672H23.7793C17.5358 5.63672 13.0013 6.95833 10.1758 9.60156C6.21094 13.293 3.70443 18.5566 2.65625 25.3926H0.0585938V0.304688H83.3203ZM126.523 5.63672V43.3711H128.369C134.248 43.3711 138.509 41.5254 141.152 37.834C143.796 34.1426 145.482 28.6966 146.211 21.4961H148.809V70.0312H146.211C145.664 64.7448 144.502 60.4154 142.725 57.043C140.993 53.6706 138.965 51.4147 136.641 50.2754C134.316 49.0905 130.944 48.498 126.523 48.498V74.6113C126.523 79.7155 126.729 82.8372 127.139 83.9766C127.594 85.1159 128.415 86.0501 129.6 86.7793C130.785 87.5085 132.699 87.873 135.342 87.873H140.879C149.538 87.873 156.465 85.8678 161.66 81.8574C166.901 77.847 170.661 71.7402 172.939 63.5371H175.469L171.299 93H91.1816V90.4707H94.2578C96.9466 90.4707 99.1113 89.9922 100.752 89.0352C101.937 88.3971 102.848 87.3034 103.486 85.7539C103.988 84.6602 104.238 81.7891 104.238 77.1406V16.1641C104.238 11.9714 104.124 9.39648 103.896 8.43945C103.441 6.8444 102.598 5.61393 101.367 4.74805C99.6354 3.47201 97.2656 2.83398 94.2578 2.83398H91.1816V0.304688H168.77V27.7168H166.172C164.85 21.0176 162.982 16.2096 160.566 13.293C158.197 10.3763 154.824 8.23438 150.449 6.86719C147.897 6.04688 143.112 5.63672 136.094 5.63672H126.523ZM183.604 93V90.4707H186.68C189.368 90.4707 191.419 90.0605 192.832 89.2402C194.29 88.3743 195.361 87.2122 196.045 85.7539C196.455 84.7969 196.66 81.9258 196.66 77.1406V16.1641C196.66 11.4245 196.41 8.46224 195.908 7.27734C195.407 6.09245 194.382 5.06706 192.832 4.20117C191.328 3.28971 189.277 2.83398 186.68 2.83398H183.604V0.304688H225.098C236.172 0.304688 245.081 1.80859 251.826 4.81641C260.075 8.50781 266.318 14.0905 270.557 21.5645C274.84 29.0384 276.982 37.4922 276.982 46.9258C276.982 53.4427 275.934 59.4583 273.838 64.9727C271.742 70.4414 269.03 74.9759 265.703 78.5762C262.376 82.1309 258.525 85.002 254.15 87.1895C249.821 89.3314 244.512 90.9948 238.223 92.1797C235.443 92.7266 231.068 93 225.098 93H183.604ZM218.945 5.56836V77.8926C218.945 81.7207 219.128 84.0677 219.492 84.9336C219.857 85.7995 220.472 86.4603 221.338 86.916C222.568 87.5996 224.346 87.9414 226.67 87.9414C234.281 87.9414 240.091 85.3438 244.102 80.1484C249.57 73.1302 252.305 62.2383 252.305 47.4727C252.305 35.5781 250.436 26.0762 246.699 18.9668C243.737 13.4069 239.932 9.62435 235.283 7.61914C232.002 6.20638 226.556 5.52279 218.945 5.56836Z" fill="black"/>
</svg>
