<svg width="460" height="98" viewBox="0 0 460 98" fill="none" xmlns="http://www.w3.org/2000/svg">
<path d="M137.77 2.30469V4.83398C136.038 4.9707 134.579 5.44922 133.395 6.26953C132.21 7.08984 131.161 8.3431 130.25 10.0293C129.977 10.5762 128.541 14.1081 125.943 20.625L96.8906 97.1191H94.2246L71.2559 37.373L45.9629 97.1191H43.4336L12.9453 21.4453C9.84635 13.8346 7.68164 9.23177 6.45117 7.63672C5.2207 6.04167 3.14714 5.10742 0.230469 4.83398V2.30469H40.4258V4.83398C37.1901 4.92513 35.0254 5.42643 33.9316 6.33789C32.8835 7.20378 32.3594 8.29753 32.3594 9.61914C32.3594 11.3509 33.4759 15.0195 35.709 20.625L53.8926 65.6055L68.4531 30.4688L64.625 20.625C62.5286 15.2474 60.9108 11.6699 59.7715 9.89258C58.6322 8.06966 57.3105 6.77083 55.8066 5.99609C54.3483 5.22135 52.1836 4.83398 49.3125 4.83398V2.30469H94.2246V4.83398C91.0801 4.87956 88.8242 5.13021 87.457 5.58594C86.5 5.90495 85.748 6.45182 85.2012 7.22656C84.6543 7.95573 84.3809 8.79883 84.3809 9.75586C84.3809 10.804 85.4062 14.0169 87.457 19.3945L104.342 63.2812L119.449 23.5645C121.044 19.4629 122.024 16.6602 122.389 15.1562C122.753 13.6523 122.936 12.2624 122.936 10.9863C122.936 9.11784 122.298 7.65951 121.021 6.61133C119.745 5.51758 117.307 4.92513 113.707 4.83398V2.30469H137.77ZM193.072 1.00586C207.838 0.458984 219.824 4.76562 229.029 13.9258C238.281 23.0859 242.906 34.5475 242.906 48.3105C242.906 60.0684 239.465 70.4134 232.584 79.3457C223.469 91.1947 210.595 97.1191 193.961 97.1191C177.281 97.1191 164.384 91.4681 155.27 80.166C148.069 71.2337 144.469 60.638 144.469 48.3789C144.469 34.6159 149.14 23.1543 158.482 13.9941C167.87 4.78841 179.4 0.458984 193.072 1.00586ZM193.893 5.38086C185.416 5.38086 178.967 9.71029 174.547 18.3691C170.947 25.4785 169.146 35.6868 169.146 48.9941C169.146 64.8079 171.926 76.4974 177.486 84.0625C181.36 89.349 186.783 91.9922 193.756 91.9922C198.45 91.9922 202.369 90.8529 205.514 88.5742C209.524 85.6576 212.646 81.0091 214.879 74.6289C217.112 68.2031 218.229 59.8405 218.229 49.541C218.229 37.2819 217.089 28.1217 214.811 22.0605C212.532 15.9538 209.615 11.6471 206.061 9.14062C202.551 6.63411 198.495 5.38086 193.893 5.38086ZM285.152 52.7539V78.7305C285.152 83.7435 285.449 86.9108 286.041 88.2324C286.679 89.5085 287.773 90.5339 289.322 91.3086C290.872 92.0833 293.766 92.4707 298.004 92.4707V95H250.562V92.4707C254.846 92.4707 257.74 92.0833 259.244 91.3086C260.794 90.4883 261.865 89.4401 262.457 88.1641C263.095 86.888 263.414 83.7435 263.414 78.7305V18.5742C263.414 13.5612 263.095 10.4167 262.457 9.14062C261.865 7.81901 260.794 6.77083 259.244 5.99609C257.695 5.22135 254.801 4.83398 250.562 4.83398V2.30469H293.629C304.84 2.30469 313.043 3.07943 318.238 4.62891C323.434 6.17839 327.672 9.04948 330.953 13.2422C334.234 17.3893 335.875 22.2656 335.875 27.8711C335.875 34.707 333.414 40.3581 328.492 44.8242C325.348 47.6497 320.95 49.7689 315.299 51.1816L337.584 82.5586C340.501 86.6146 342.574 89.1439 343.805 90.1465C345.673 91.5592 347.838 92.334 350.299 92.4707V95H321.109L291.236 52.7539H285.152ZM285.152 7.29492V47.9004H289.049C295.383 47.9004 300.123 47.3307 303.268 46.1914C306.412 45.0065 308.873 42.9102 310.65 39.9023C312.473 36.849 313.385 32.8841 313.385 28.0078C313.385 20.944 311.721 15.7259 308.395 12.3535C305.113 8.98112 299.804 7.29492 292.467 7.29492H285.152ZM407.447 37.7832L440.055 78.5938C444.658 84.3359 448.622 88.2324 451.949 90.2832C454.365 91.7415 456.917 92.4707 459.605 92.4707V95H411.344V92.4707C414.397 92.1973 416.357 91.7188 417.223 91.0352C418.134 90.3516 418.59 89.5085 418.59 88.5059C418.59 86.5918 416.493 82.9915 412.301 77.7051L391.041 50.9766L387.623 53.8477V79.1406C387.623 83.9714 387.896 86.9792 388.443 88.1641C388.99 89.349 390.038 90.3743 391.588 91.2402C393.137 92.0605 395.621 92.4707 399.039 92.4707V95H352.281V92.4707H355.357C358.046 92.4707 360.211 91.9922 361.852 91.0352C363.036 90.3971 363.948 89.3034 364.586 87.7539C365.087 86.6602 365.338 83.7891 365.338 79.1406V18.1641C365.338 13.4245 365.087 10.4622 364.586 9.27734C364.085 8.09245 363.059 7.06706 361.51 6.20117C360.006 5.28971 357.955 4.83398 355.357 4.83398H352.281V2.30469H398.424V4.83398C395.279 4.83398 392.887 5.28971 391.246 6.20117C390.061 6.83919 389.127 7.91016 388.443 9.41406C387.896 10.5534 387.623 13.4701 387.623 18.1641V47.0117L422.008 19.1895C426.793 15.3158 429.186 12.2168 429.186 9.89258C429.186 8.16081 428.206 6.79362 426.246 5.79102C425.243 5.28971 422.76 4.9707 418.795 4.83398V2.30469H454.957V4.83398C451.721 5.06185 449.169 5.6543 447.301 6.61133C445.478 7.52279 441.24 10.6673 434.586 16.0449L407.447 37.7832Z" fill="black"/>
</svg>
