<svg width="74" height="86" viewBox="0 0 74 86" fill="none" xmlns="http://www.w3.org/2000/svg">
<path d="M52.0844 0H56.0112C57.827 0.927846 58.5629 2.92051 58.2192 5.97798C58.1663 6.45516 58.2324 6.91908 58.4175 7.36975C60.8327 12.9898 62.4325 18.7823 63.2169 24.747C64.3628 33.4599 66.0244 40.8429 68.2015 46.896C69.4311 50.3158 68.0957 53.0595 68.7965 56.4661C70.4095 64.2953 72.0446 72.3941 73.7017 80.7624C74.0896 82.7064 73.3227 83.8994 71.4011 84.3412L70.7004 84.5003C68.5937 84.9774 67.2584 84.1733 66.6942 82.0879C65.4162 77.3691 63.9353 72.7387 62.2518 68.1967C60.6255 63.7828 57.2937 61.3704 52.6661 60.8269C45.7468 60.014 39.3872 59.7754 33.5873 60.1112C25.0373 60.606 19.2286 64.9581 16.1612 73.1673C14.1912 78.4428 10.3437 82.0879 5.71611 85.3883C3.79897 86.7536 0.824105 85.6667 0.427456 83.4134C0.339312 82.9097 0.423052 82.4369 0.67867 81.9951C21.1986 46.1095 36.474 19.9796 46.5048 3.60534C47.448 2.06777 49.3078 0.86599 52.0844 0ZM52.0711 17.7484C52.6441 17.121 52.9261 16.4008 52.9173 15.5878C52.8909 14.4567 52.3135 13.8912 51.1853 13.8912C50.8496 13.8919 50.5209 13.9882 50.2377 14.1689C49.9545 14.3496 49.7283 14.6072 49.5855 14.9118C48.1399 17.9428 46.7252 20.6512 45.3413 23.0371C39.6296 32.8988 33.5344 43.136 27.0558 53.7488C27.0106 53.8239 26.9857 53.9099 26.9838 53.9976C26.9818 54.0854 27.003 54.1717 27.0449 54.2476C27.0868 54.3235 27.1479 54.3861 27.2219 54.429C27.296 54.4718 27.3802 54.4933 27.4657 54.4911L57.5978 54.3983C58.0494 54.3982 58.4936 54.2839 58.8895 54.0659C59.2854 53.8479 59.6205 53.5332 59.8639 53.1506C60.1073 52.7681 60.2514 52.3299 60.2828 51.8763C60.3142 51.4227 60.232 50.9681 60.0438 50.5544C58.1663 46.4453 57.0028 41.6073 56.2888 37.1801C55.2311 30.5792 53.715 24.6674 51.7406 19.445C51.633 19.1593 51.607 18.8493 51.6654 18.5496C51.7238 18.2499 51.8643 17.9725 52.0711 17.7484Z" fill="#020202"/>
</svg>
