<svg width="77" height="88" viewBox="0 0 77 88" fill="none" xmlns="http://www.w3.org/2000/svg">
<path d="M50.7593 0H55.0023C57.8754 1.77328 59.6278 4.22824 60.2594 7.3649C63.8175 25.0799 67.638 43.4542 71.7209 62.488C73.0018 68.4673 74.4429 74.6024 76.044 80.8936C76.382 82.2302 75.6526 83.451 73.8557 84.556C72.8595 85.1708 71.5474 85.0906 69.9196 84.3154C69.1331 83.9381 68.5286 83.2652 68.2385 82.4441C66.5484 77.6856 65.3208 72.5663 64.5558 67.0861C64.1155 63.9583 61.8472 62.0737 58.7516 62.1405C51.6265 62.2875 44.0345 62.8623 37.1762 61.5657C27.5694 59.7345 19.6838 65.8563 16.0145 74.4777C14.3199 78.4742 11.3845 81.9629 8.76933 85.3446C7.38167 87.1446 5.69159 87.5099 3.69906 86.4406C3.12976 86.1377 2.59603 85.7812 2.0979 85.3713C0.283269 83.8654 0.140936 82.2124 1.67092 80.4124C3.68569 78.0465 5.7538 76.5495 7.39497 73.6891C19.9106 51.7147 32.2572 30.2749 44.4348 9.36986C45.3599 7.78371 47.468 4.66042 50.7593 0ZM29.5442 53.078C29.5005 53.1642 29.4798 53.2601 29.4841 53.3566C29.4883 53.4531 29.5173 53.5469 29.5683 53.6289C29.6193 53.7109 29.6904 53.7783 29.775 53.8246C29.8596 53.871 29.9548 53.8947 30.0512 53.8934L61.3002 53.88C61.3539 53.879 61.4068 53.8664 61.455 53.8431C61.5033 53.8198 61.5456 53.7864 61.5788 53.7454C61.6121 53.7044 61.6355 53.6568 61.6473 53.6061C61.6591 53.5553 61.659 53.5028 61.6471 53.4523C58.8095 40.1304 56.0386 26.7685 53.3344 13.3664C53.2455 12.9565 53.0542 12.6001 52.7607 12.2971C52.7256 12.261 52.6828 12.2333 52.6355 12.2161C52.5882 12.1989 52.5377 12.1926 52.4876 12.1977C52.4376 12.2029 52.3893 12.2193 52.3465 12.2458C52.3037 12.2722 52.2673 12.3081 52.2403 12.3506C44.1278 24.8972 36.5625 38.473 29.5442 53.078Z" fill="#020202"/>
</svg>
