<svg width="68" height="85" viewBox="0 0 68 85" fill="none" xmlns="http://www.w3.org/2000/svg">
<path d="M20.5431 65.4129C17.4081 72.4975 12.8526 78.1242 6.87655 82.2932C6.14839 82.8032 5.27084 83.0608 4.37837 83.0265C2.86432 82.9732 1.67537 82.5287 0.811467 81.6932C0.579502 81.4696 0.394663 81.202 0.268013 80.9063C0.141363 80.6106 0.0754831 80.2928 0.0742368 79.9719C0.0729904 79.651 0.136401 79.3334 0.260756 79.0381C0.385111 78.7429 0.567863 78.4759 0.798095 78.2531C12.0867 67.3063 14.8921 53.2794 18.3255 38.4258C19.6169 32.8168 21.3981 27.9279 23.6692 23.7589C27.1559 17.3321 31.5111 11.2521 30.3889 3.37193C30.2911 2.6927 30.4529 2.00197 30.8419 1.43818C31.2309 0.874396 31.8182 0.479228 32.4863 0.331881L32.8336 0.26521C33.7219 0.0645846 34.6539 0.220099 35.4303 0.698505C36.2067 1.17691 36.7659 1.94023 36.9884 2.82525C42.145 23.4122 48.7134 43.6704 56.6933 63.5996C59.138 69.7197 62.5046 74.4397 66.6192 79.3065C66.835 79.564 66.9953 79.8632 67.0898 80.1851C67.1844 80.5071 67.2111 80.8448 67.1684 81.1769C67.1257 81.509 67.0145 81.8283 66.8418 82.1145C66.6691 82.4008 66.4386 82.6477 66.165 82.8399C64.1344 84.2621 62.1795 84.4532 60.3003 83.4132C54.4757 80.1865 48.1166 73.893 47.1681 66.8129C46.5937 62.5995 43.5344 59.5862 39.0056 60.5728C32.139 62.0795 24.5509 56.3594 20.5431 65.4129ZM29.5205 36.9325C27.383 40.5725 18.3655 54.6394 29.4537 54.2794C31.4932 54.2083 33.457 54.315 35.3452 54.5994C41.8912 55.5861 41.4771 48.546 41.3836 44.4259C41.3034 40.6125 38.2976 36.5325 36.7078 33.0257C36.4585 32.4657 36.3516 31.879 36.3872 31.2657C36.4495 30.0835 36.3872 28.8968 36.2002 27.7056C35.8706 25.6789 34.7128 24.9234 32.7268 25.4389C32.3794 25.5278 32.0721 25.6923 31.805 25.9323C30.3978 27.2123 29.948 28.7634 30.4557 30.5857C31.0524 32.7279 30.7407 34.8435 29.5205 36.9325Z" fill="#020202"/>
</svg>
