<svg width="63" height="85" viewBox="0 0 63 85" fill="none" xmlns="http://www.w3.org/2000/svg">
<path d="M45.864 70.7105C45.3173 65.2746 42.9172 59.4924 36.0772 61.371C29.2772 63.2495 18.9839 56.6679 15.8639 66.4204C14.6905 70.0576 14.7572 73.5084 12.6638 76.9457C10.1705 81.0493 6.47712 85.3659 1.39711 81.7687C1.05886 81.5303 0.771672 81.2268 0.552461 80.8759C0.333251 80.5251 0.186408 80.134 0.120575 79.7256C0.0547429 79.3173 0.0713031 78.8999 0.16916 78.498C0.267016 78.0962 0.444264 77.7178 0.690483 77.3854C2.89493 74.4099 4.68155 71.0658 6.05044 67.353C12.6905 49.3002 18.3172 30.5945 26.6772 12.3551C28.2772 8.86444 23.3839 0.590756 30.2772 0.191061C33.4239 0.00453731 34.7972 2.13624 35.4772 4.81419C40.5883 24.7723 47.1083 46.0538 55.0372 68.6587C56.7439 73.535 60.2239 74.7341 62.7039 78.5978C63.0061 79.0508 63.0773 79.5393 62.9173 80.0633C61.7706 83.9182 59.255 84.9929 55.3706 83.2875C49.9439 80.9027 46.4506 76.5194 45.864 70.7105ZM20.8505 51.765C20.7883 51.9248 20.8416 52.0092 21.0105 52.0181C25.0639 52.3823 29.1217 52.7731 33.1839 53.1906C37.3439 53.6169 40.3705 50.4193 38.8905 46.116C37.5172 42.1457 35.8372 38.3752 34.5839 34.3916C33.6594 31.4694 32.7217 28.4894 31.7706 25.4517C31.2995 23.9418 30.7972 23.9285 30.2639 25.4118L20.8505 51.765Z" fill="#020202"/>
</svg>
