<svg width="1252" height="417" viewBox="0 0 1252 417" fill="none" xmlns="http://www.w3.org/2000/svg">
<path d="M1119.04 39.5736C1117.59 45.855 1116.09 52.0819 1114.56 58.2542C1113.35 63.1668 1110.76 65.1654 1106.79 64.2501C1106.42 64.1649 1106.08 63.9978 1105.79 63.7612C1105.5 63.5246 1105.26 63.2245 1105.1 62.8833C1104.94 62.542 1104.85 62.1684 1104.85 61.79C1104.85 61.4117 1104.94 61.0384 1105.1 60.6979C1106.18 58.4431 1107.35 56.5284 1107.9 54.0595C1111.47 38.146 1115.05 23.005 1118.65 8.63664C1119.89 3.67363 1123.84 2.25023 1128.48 2.31321C1133.04 2.372 1137.66 2.38039 1142.34 2.33841C1145.66 2.31321 1151.32 -1.32717 1153.25 2.94304C1153.52 3.54723 1153.56 4.23432 1153.36 4.86865C1153.15 5.50297 1152.72 6.03842 1152.15 6.36928C1149.71 7.76329 1147.08 8.49808 1144.25 8.57366C1138.71 8.72482 1133.21 8.82979 1127.73 8.88857C1126.83 8.90537 1126.26 9.35464 1126.03 10.2364L1120.72 31.4111C1120.69 31.5123 1120.69 31.6179 1120.71 31.7208C1120.73 31.8236 1120.77 31.9213 1120.83 32.0072C1120.89 32.0932 1120.97 32.1654 1121.06 32.219C1121.15 32.2726 1121.25 32.3064 1121.35 32.318C1126.86 32.8807 1132.14 32.4902 1137.19 31.1465C1137.52 31.0548 1137.87 31.0165 1138.2 31.0332C1141.76 31.1759 1143.58 31.9023 1143.68 33.2124C1143.8 34.7911 1143.39 35.7653 1142.45 36.1348C1140.68 36.8234 1139.11 37.3944 1137.74 37.8479C1136.17 38.3685 1134.56 38.6289 1132.92 38.6289C1128.43 38.6205 1124.24 38.5953 1120.34 38.5533C1119.64 38.5449 1119.21 38.885 1119.04 39.5736Z" fill="black"/>
<path d="M1021.98 31.983C1026.36 32.1842 1032.77 32.6746 1036.96 30.9394C1038.49 30.3023 1040.1 30.1221 1041.8 30.3987C1043.6 30.6921 1044.34 31.7399 1044.03 33.5422C1042.93 39.8669 1024.92 38.4209 1020.63 38.2574C1020.1 38.2323 1019.77 38.4796 1019.64 38.9993C1018.53 43.5679 1017.48 48.501 1016.49 53.7989C1015.88 57.1016 1014.99 59.6416 1013.84 61.4187C1012.22 63.9209 1008.42 65.8322 1005.87 63.2042C1005.37 62.6863 1005.09 61.9958 1005.09 61.2766C1005.09 60.5575 1005.36 59.8652 1005.86 59.344C1007.37 57.7597 1008.36 55.8359 1008.81 53.5725C1011.79 38.576 1015.14 23.1603 1018.86 7.32545C1019.94 2.69822 1024.87 2.84911 1028.57 2.6605C1033.01 2.43417 1037.61 2.2749 1042.37 2.18269C1043.9 2.14916 1045.44 1.81805 1046.99 1.18935C1049.4 0.208577 1052.69 1.51627 1052.47 4.53403C1052.44 4.9273 1052.32 5.30812 1052.1 5.6419C1051.89 5.97568 1051.6 6.25183 1051.25 6.44527C1044.22 10.3558 1035.21 9.09838 1027.58 9.2367C1027.13 9.24354 1026.69 9.40603 1026.33 9.69799C1025.98 9.98995 1025.73 10.3944 1025.63 10.8462L1021.21 30.9645C1021.06 31.61 1021.32 31.9495 1021.98 31.983Z" fill="black"/>
<path d="M920.909 31.2561C920.814 31.762 921.007 32.0232 921.487 32.0398C924.997 32.131 928.685 32.131 932.549 32.0398C936.174 31.9652 939.102 25.7825 942.608 31.0819C943.301 32.1186 943.202 33.0682 942.313 33.9307C940.384 35.805 938.318 37.4014 936.115 38.7201C935.721 38.9606 935.3 39.0767 934.851 39.0684L920.436 38.8196C919.878 38.8113 919.543 39.0933 919.433 39.6655C918.426 44.8654 917.426 50.1939 916.434 55.6508C916.025 57.9315 915.529 59.5653 914.947 60.5522C913.07 63.7119 907.922 66.797 905.537 61.933C905.326 61.5012 905.273 61.0025 905.389 60.5322C905.504 60.0619 905.78 59.6528 906.163 59.3828C908.572 57.6786 909.268 55.2403 909.799 52.3294C912.342 38.3303 914.947 24.3436 917.615 10.3694C918.004 8.34172 917.591 5.96569 919.858 4.95805C924.887 2.71886 932.538 3.39062 938.393 3.5399C939.479 3.57307 940.542 3.44038 941.581 3.14182C944.178 2.40786 947.153 0.74091 948.759 4.37338C948.954 4.80829 949.019 5.29499 948.945 5.76847C948.871 6.24194 948.662 6.67964 948.346 7.02308C947.071 8.41636 944.957 9.46131 943.092 9.54839C940.577 9.66035 938.098 9.98379 935.572 9.89671C932.29 9.77231 929.114 9.88427 926.044 10.2326C925.689 10.2713 925.354 10.4309 925.089 10.6882C924.824 10.9455 924.641 11.2871 924.569 11.6632L920.909 31.2561Z" fill="black"/>
<path d="M1249.5 5.35855V7.07187C1249.37 7.51054 1249.19 7.88714 1248.97 8.20167C1248.74 8.52447 1248.43 8.68173 1248.03 8.67345C1240.56 8.44997 1232.92 8.62379 1225.09 9.19489C1224.68 9.228 1224.4 9.4432 1224.26 9.84049C1222.62 14.4425 1221.21 19.8721 1220.02 26.1295C1219.61 28.3808 1219.56 30.5204 1219.88 32.5482C1219.95 33.0365 1220.24 33.289 1220.74 33.3055C1226.95 33.4959 1232.89 33.26 1238.57 32.5979C1239.87 32.4406 1240.56 33.0159 1240.64 34.3236L1240.75 36.1487C1240.77 36.4352 1240.73 36.7222 1240.63 36.9925C1240.53 37.2628 1240.38 37.5108 1240.19 37.7217C1239.99 37.9327 1239.75 38.1022 1239.49 38.2201C1239.23 38.3381 1238.94 38.4021 1238.65 38.4083L1218.61 38.9173C1218.05 38.9317 1217.52 39.147 1217.1 39.5235C1216.69 39.9 1216.43 40.4122 1216.37 40.9658C1215.93 44.6159 1215.48 48.3654 1214.24 51.8789C1212.89 55.736 1211.7 59.6096 1210.69 63.4997C1210.19 65.362 1209.01 66.049 1207.14 65.5607L1206.51 65.3993C1205.19 65.0517 1204.56 64.1991 1204.62 62.8417C1204.84 57.7762 1205.76 52.1148 1207.36 45.8575C1209.92 35.9169 1212.46 25.4052 1214.99 14.3224C1215.73 11.0862 1216.63 8.0444 1217.71 5.19715C1217.85 4.846 1218.08 4.53918 1218.38 4.31112C1218.67 4.08305 1219.03 3.94275 1219.4 3.90595C1226.19 3.20241 1233.3 3.18172 1240.73 3.84387C1241.93 3.95147 1243.4 3.8687 1245.13 3.59556C1248.09 3.14033 1249.55 3.72799 1249.5 5.35855Z" fill="black"/>
<path d="M823.644 32.9268C827.056 32.57 830.803 32.4455 834.885 32.5534C835.952 32.5866 836.817 32.2755 837.48 31.62C838.28 30.8484 839.036 30.0187 839.747 29.1309C841.049 27.5213 842.544 27.3056 844.234 28.4837L844.719 28.8198C846.352 29.9565 846.578 31.3379 845.398 32.9641C843.821 35.1296 842.087 37.2827 840.196 39.4233C838.523 41.315 835.988 41.7755 834.145 39.9958C833.801 39.6672 833.352 39.481 832.884 39.4731L822.468 39.3735C822.251 39.3697 822.039 39.4451 821.87 39.5863C821.701 39.7275 821.587 39.9255 821.547 40.1451C820.455 46.3927 819.433 52.6735 818.479 58.9875C817.873 62.97 810.331 66.4672 807.457 63.1318C807.228 62.8669 807.054 62.5571 806.945 62.2213C806.837 61.8855 806.796 61.5308 806.826 61.1789C806.855 60.8271 806.954 60.4854 807.117 60.175C807.28 59.8645 807.503 59.5917 807.772 59.3733C808.427 58.834 809.11 58.3445 809.821 57.9047C811.592 56.7971 811.761 54.4822 812.04 52.603C813.261 44.5466 815.472 31.7652 818.673 14.2586C819.025 12.342 818.709 10.6619 818.661 8.7702C818.638 7.85762 818.967 6.97246 819.578 6.3063C820.188 5.64015 821.031 5.24659 821.923 5.21081C826.555 5.04902 831.114 4.21518 835.77 4.35208C839.06 4.45164 842.439 4.1571 845.907 3.46845C847.896 3.07849 849.318 3.76299 850.175 5.52195C852.127 9.54182 843.542 10.973 841.469 10.973C836.578 10.9647 831.825 10.9813 827.209 11.0228C826.716 11.0228 826.425 11.2759 826.336 11.782L822.917 32.1178C822.812 32.7235 823.054 32.9931 823.644 32.9268Z" fill="black"/>
<path d="M715.689 40.3132C721.631 40.8058 727.651 40.5019 733.747 39.4014C734.393 39.2861 734.87 38.9507 735.177 38.3952L737.2 34.8107C738.395 32.6936 740.429 31.7346 743.301 31.9337C743.883 31.9757 744.425 32.1958 744.93 32.594C747.144 34.3653 747.501 36.4248 745.999 38.7725L739.65 48.7555C739.3 49.3006 738.806 49.6569 738.17 49.8246C735.715 50.4954 733.461 50.1128 731.411 48.6769C730.951 48.352 730.441 48.1896 729.882 48.1896L714.785 48.221C714.466 48.2214 714.158 48.3311 713.916 48.5301C713.675 48.7292 713.516 49.0044 713.469 49.3058L710.509 68.8317C710.41 69.4291 710.558 69.9636 710.953 70.4352L712.86 72.7463C713.277 73.2493 713.343 73.7891 713.058 74.3656C710.64 79.3021 705.657 77.6199 701.266 79.0348C698.651 79.868 695.51 79.4593 693.931 77.1168C693.638 76.6812 693.448 76.1897 693.373 75.6768C693.299 75.164 693.342 74.6421 693.5 74.1478C693.659 73.6536 693.928 73.1988 694.289 72.8155C694.651 72.4322 695.096 72.1295 695.592 71.9288L699.063 70.5453C699.345 70.4296 699.592 70.2465 699.782 70.013C699.971 69.7794 700.097 69.5029 700.148 69.209L709.144 15.4107C709.239 14.8215 709.111 14.2145 708.782 13.697L706.808 10.5685C706.491 10.0654 706.452 9.54136 706.693 8.99636C707.516 7.13076 708.968 6.09316 711.051 5.88354C721.73 4.80401 733.165 4.41097 745.357 4.70444C746.187 4.72445 746.987 5.01251 747.627 5.52195C748.877 6.53859 749.485 7.64432 749.452 8.83914C749.364 11.2602 748.054 12.5127 745.522 12.5965L722.004 13.3197C720.393 13.3721 719.45 14.1582 719.176 15.6779L715.015 39.48C714.927 39.9935 715.152 40.2713 715.689 40.3132Z" fill="black"/>
<path d="M616.648 40.5536C622.224 40.8407 626.981 40.5377 630.918 39.6445C636.004 38.4801 635.669 30.6488 636.539 26.6932C636.668 26.0984 636.923 25.5349 637.288 25.0372C637.653 24.5394 638.121 24.1179 638.663 23.7984C639.204 23.4789 639.809 23.2682 640.439 23.179C641.069 23.0899 641.712 23.1242 642.328 23.2799L643.264 23.5192C645.963 24.2104 647.012 25.8532 646.41 28.4477C645.372 32.9296 645.657 37.9219 642.88 41.8296C637.493 49.4217 624.444 49.9481 615.443 49.1665C614.752 49.1134 614.361 49.4111 614.272 50.0597L611.829 68.3383C611.751 68.9869 612.002 69.476 612.582 69.8056L615.443 71.4644C616.132 71.8646 616.628 72.508 616.822 73.2547C617.016 74.0014 616.893 74.7911 616.48 75.4519C614.339 78.897 609.287 78.0198 605.874 78.2431C601.658 78.5302 597.475 81.4171 594.18 76.9831C593.908 76.6194 593.722 76.204 593.634 75.7653C593.547 75.3266 593.56 74.8751 593.673 74.4417C593.786 74.0083 593.995 73.6033 594.288 73.2546C594.581 72.9059 594.949 72.6216 595.367 72.4214L600.236 70.0927C600.525 69.9547 600.775 69.752 600.964 69.5021C601.153 69.2522 601.277 68.9623 601.323 68.6573L609.32 15.2572C609.498 14.0237 608.991 13.1465 607.798 12.6254C602.929 10.536 605.69 5.63941 609.604 5.51181C620.797 5.17687 632.424 3.82113 643.382 5.25662C646.025 5.59688 647.692 7.04832 648.384 9.61093C648.495 10.0363 648.456 10.4456 648.267 10.8391C647.252 13.0082 645.512 13.944 643.047 13.6462C635.786 12.7424 628.542 12.5829 621.315 13.1677C620.932 13.1991 620.571 13.3527 620.289 13.6041C620.008 13.8555 619.821 14.1903 619.759 14.5554L615.761 39.5009C615.649 40.1602 615.945 40.5111 616.648 40.5536Z" fill="black"/>
<path d="M536.182 15.2548C540.672 18.0357 546.911 22.5073 546.122 29.0171C545.085 37.502 542.855 45.102 534.805 48.4359C530.304 50.2898 524.215 51.1694 516.536 51.0746C515.854 51.0641 515.473 51.4064 515.39 52.1016L513.439 69.103C513.367 69.7876 513.661 70.1563 514.322 70.209C521.614 70.8726 520.731 79.2785 513.749 78.2199C510.353 77.7037 507.071 78.0092 503.902 79.1363C501.301 80.0527 499.18 78.7413 497.926 76.3712C497.724 75.9835 497.602 75.5579 497.567 75.1206C497.532 74.6833 497.585 74.2436 497.723 73.8289C497.861 73.4141 498.081 73.0331 498.369 72.7094C498.657 72.3857 499.007 72.1262 499.397 71.947L502.819 70.367C503.469 70.0721 503.835 69.5612 503.918 68.8344L510.234 16.6927C510.286 16.2834 510.23 15.8665 510.073 15.4839C509.915 15.1012 509.661 14.7662 509.337 14.5122L506.55 12.3318C506.343 12.1686 506.187 11.9458 506.102 11.6905C506.017 11.4352 506.006 11.1584 506.07 10.8939C506.751 8.23942 508.32 6.87531 510.776 6.80158C518.641 6.5593 526.584 6.24856 534.603 5.86935C537.617 5.73241 539.976 6.68571 541.679 8.72924C541.954 9.05817 542.159 9.44271 542.279 9.85803C542.4 10.2734 542.434 10.7103 542.378 11.1405C542.323 11.5708 542.18 11.9849 541.958 12.3561C541.736 12.7273 541.44 13.0473 541.09 13.2956C539.728 14.2647 538.154 14.7176 536.368 14.6544C535.543 14.6228 535.481 14.823 536.182 15.2548ZM529.138 21.1642C526.516 19.9634 524.71 18.0779 523.719 15.5077C523.623 15.2532 523.455 15.0326 523.235 14.8727C523.015 14.7128 522.753 14.6205 522.481 14.607C520.933 14.5438 520.05 15.3022 519.833 16.8823C518.812 24.5508 517.717 32.3563 516.551 40.2986C516.324 41.8471 516.974 42.5897 518.502 42.5265C528.318 42.0841 534.928 42.7319 536.724 30.4075C537.344 26.2204 532.482 22.6969 529.138 21.1642Z" fill="black"/>
<path d="M414.449 67.9986C414.32 69.4608 414.976 70.2193 416.418 70.2743C420.121 70.3842 421.913 71.9893 421.794 75.0894C421.769 75.7142 421.584 76.3187 421.255 76.8577C420.926 77.3967 420.461 77.8563 419.894 78.202C419.328 78.5477 418.674 78.7707 417.983 78.8542C417.291 78.9377 416.58 78.8796 415.902 78.6843C412.544 77.7278 409.223 77.8103 405.941 78.9316C402.841 80.0035 399.532 79.4758 398.063 76.1118C397.745 75.3915 397.711 74.5742 397.966 73.8286C398.222 73.0831 398.747 72.466 399.435 72.1047L402.696 70.3732C403.229 70.0914 403.684 69.6772 404.017 69.1696C404.35 68.662 404.551 68.0776 404.601 67.4709C406.097 49.4747 407.937 31.9236 410.122 14.8178C410.273 13.6745 409.805 12.9489 408.718 12.6411C405.349 11.6736 404.294 9.65635 405.553 6.58917C405.792 6.00317 406.196 5.50255 406.713 5.15041C407.23 4.79826 407.838 4.61035 408.459 4.61035C418.34 4.66532 427.988 5.41287 437.406 6.85302C440.936 7.3917 443.756 9.16714 445.865 12.1793C451.241 19.8638 448.69 31.6872 444.654 39.4541C441.426 45.6379 433.902 49.5626 427.429 50.0738C424.06 50.3376 420.616 50.3761 417.096 50.1892C416.386 50.1453 415.999 50.4861 415.934 51.2116L414.449 67.9986ZM430.367 40.3281C438.665 37.6732 444.59 14.9167 431.965 14.6199C428.069 14.5319 424.286 14.433 420.616 14.3231C420.392 14.3177 420.173 14.399 420.003 14.5514C419.833 14.7038 419.724 14.9162 419.696 15.1476L416.806 41.301C416.79 41.4403 416.803 41.5815 416.844 41.7152C416.886 41.8489 416.955 41.9721 417.046 42.0765C417.138 42.181 417.25 42.2644 417.376 42.3212C417.501 42.378 417.637 42.4068 417.774 42.4059C421.875 42.3949 426.073 41.7023 430.367 40.3281Z" fill="black"/>
<path d="M319.348 51.8063L317.923 68.1996C317.814 69.436 318.376 70.0542 319.61 70.0542C322.296 70.0321 324.239 71.125 325.44 73.3328C325.642 73.7046 325.77 74.1131 325.816 74.5349C325.862 74.9567 325.826 75.3836 325.709 75.7912C325.592 76.1987 325.396 76.579 325.134 76.9101C324.871 77.2412 324.547 77.5167 324.179 77.7209C319.299 80.4035 315.303 76.5949 309.965 78.4826C306.82 79.5755 302.464 80.5359 300.892 76.4624C299.058 71.6107 304.642 71.1802 307.148 69.6567C307.411 69.4988 307.632 69.2791 307.792 69.0165C307.952 68.7539 308.045 68.4565 308.065 68.1499L311.717 14.7972C311.745 14.3825 311.629 13.9698 311.387 13.6289C311.146 13.288 310.793 13.0397 310.39 12.9261C308.447 12.3851 306.902 11.3143 305.756 9.71364C305.265 9.01816 305.227 8.29509 305.641 7.54442C306.788 5.52424 308.442 4.54727 310.603 4.61351C316.477 4.80117 322.612 4.88397 329.01 4.86189C337.885 4.82877 347.498 7.57754 350.446 17.1982C352.323 23.3471 352.018 29.7885 349.529 36.5225C344.812 49.2231 332.514 51.0611 320.609 50.6803C319.834 50.6582 319.413 51.0335 319.348 51.8063ZM332.432 41.0265C340.194 38.9897 342.258 29.8161 341.603 22.8779C340.604 12.3631 330.254 13.4394 322.705 13.9362C321.952 13.9803 321.553 14.3832 321.51 15.1449L319.921 40.9437C319.877 41.6502 320.205 42.031 320.904 42.0862C324.768 42.3953 328.611 42.0421 332.432 41.0265Z" fill="black"/>
<path d="M219.835 51.6227L219.51 68.5603C219.505 68.7235 219.534 68.8859 219.595 69.0375C219.656 69.1892 219.748 69.327 219.865 69.4424C219.982 69.5578 220.122 69.6484 220.276 69.7087C220.43 69.769 220.594 69.7977 220.76 69.7931C223.9 69.7368 226.452 70.6599 228.416 72.5625C229.02 73.1425 229.368 73.9343 229.384 74.7658C229.4 75.5974 229.083 76.4016 228.501 77.0038C226.298 79.2892 223.74 79.8802 220.828 78.7769C216.821 77.2571 212.568 77.3697 208.069 79.1147C207.084 79.4969 206.001 79.5327 205.003 79.216C202.514 78.4167 201.133 77.2233 200.859 75.636C200.47 73.4069 201.344 71.8702 203.479 71.0258L208.069 69.202C208.389 69.0781 208.663 68.8642 208.859 68.5875C209.054 68.3108 209.161 67.9839 209.165 67.6484L209.867 14.1675C209.879 13.143 209.371 12.704 208.343 12.8503C205.146 13.3119 203.154 12.1973 202.366 9.5067C202.129 8.70028 202.169 7.83893 202.478 7.05492C202.787 6.2709 203.35 5.60756 204.078 5.16675C208.086 2.73503 211.58 4.76146 215.896 4.15353C227.73 2.49861 243.367 2.5155 250.029 13.5764C256.846 24.9076 252.29 44.4458 238.144 48.4142C232.709 49.9453 227.045 50.6095 221.154 50.4069C220.286 50.3731 219.846 50.7784 219.835 51.6227ZM219.955 13.7622V40.0383C219.955 40.3742 220.09 40.6963 220.331 40.9339C220.572 41.1714 220.899 41.3048 221.239 41.3048H229.563C233.029 41.3048 236.353 40.0042 238.803 37.6892C241.254 35.3742 242.631 32.2344 242.631 28.9605V24.84C242.631 21.5661 241.254 18.4263 238.803 16.1113C236.353 13.7962 233.029 12.4957 229.563 12.4957H221.239C220.899 12.4957 220.572 12.6291 220.331 12.8666C220.09 13.1042 219.955 13.4263 219.955 13.7622Z" fill="black"/>
<path d="M119.436 51.8906L119.419 68.1178C119.419 68.5158 119.577 68.8982 119.86 69.1843C120.144 69.4704 120.53 69.6376 120.937 69.6505C123.995 69.7505 126.661 70.478 128.935 71.833C129.519 72.1785 129.999 72.6684 130.326 73.2533C130.653 73.8381 130.817 74.4971 130.799 75.1635C130.782 75.8298 130.585 76.4799 130.227 77.0477C129.87 77.6156 129.366 78.0812 128.765 78.3972C125.098 80.3298 118.293 78.4639 114.422 77.6309C109.579 76.5979 104.07 82.479 100.182 77.1977C99.8988 76.8129 99.6973 76.3769 99.5887 75.9148C99.4802 75.4528 99.4667 74.974 99.5492 74.506C99.6317 74.0381 99.8084 73.5903 100.069 73.1887C100.33 72.7871 100.67 72.4396 101.069 72.1663C103.308 70.6224 105.713 69.7005 108.283 69.4006C109.056 69.3118 109.431 68.8842 109.408 68.1178C108.896 50.8021 108.868 33.1754 109.323 15.2377C109.332 14.9031 109.205 14.5781 108.969 14.3322C108.734 14.0863 108.407 13.9389 108.061 13.9215L103.593 13.7216C101.603 13.6216 100.057 12.7609 98.9538 11.1392C98.499 10.4728 98.3967 9.80641 98.6468 9.13999C99.4654 6.88529 101.097 5.72461 103.541 5.65797C109.897 5.48026 116.605 5.1526 123.666 4.67501C128.1 4.37512 134.836 5.12484 138.997 6.79088C152.385 12.1055 154.415 25.5838 150.1 37.7792C148.042 43.5992 143.648 47.3256 136.917 48.9583C131.05 50.3911 125.513 51.0853 120.306 51.0409C119.726 51.0409 119.436 51.3241 119.436 51.8906ZM119.624 14.2381L119.249 40.928C119.248 41.1505 119.338 41.3641 119.497 41.523C119.657 41.6819 119.874 41.7733 120.101 41.7777L128.407 41.8943C131.898 41.9416 135.264 40.7115 137.764 38.4746C140.265 36.2376 141.697 33.1769 141.743 29.9655L141.811 25.8004C141.835 24.2093 141.517 22.6289 140.877 21.1498C140.236 19.6706 139.285 18.3215 138.079 17.1797C136.872 16.0378 135.432 15.1256 133.843 14.4951C132.254 13.8646 130.546 13.5281 128.816 13.505L120.511 13.4051C120.396 13.4028 120.283 13.4226 120.176 13.4633C120.07 13.504 119.973 13.5647 119.89 13.6421C119.808 13.7194 119.742 13.8119 119.696 13.9142C119.651 14.0164 119.626 14.1265 119.624 14.2381Z" fill="black"/>
<path d="M22.4035 50.3384L22.3862 69.2405C22.3862 69.9091 22.7209 70.3171 23.3903 70.4644L32.6171 72.4192C33.2634 72.5552 33.6789 72.9348 33.8635 73.5581C34.3136 75.1219 34.2271 76.6291 33.6039 78.0797C33.2807 78.8389 32.6979 79.2525 31.8555 79.3205C29.7666 79.5018 27.7585 79.4452 25.8312 79.1505C20.8455 78.38 16.0503 78.3743 11.4456 79.1336C9.02201 79.5302 6.58113 79.5302 4.12294 79.1336C3.45358 79.0202 3.0208 78.6519 2.82461 78.0287C2.38606 76.6121 2.34566 75.1276 2.70343 73.5751C2.85346 72.9065 3.26893 72.4929 3.94983 72.3342L11.7918 70.5154C12.1274 70.4323 12.4253 70.2419 12.6385 69.9741C12.8516 69.7063 12.9679 69.3764 12.969 69.0365V13.401C12.9692 13.2121 12.9303 13.0251 12.8547 12.8514C12.7791 12.6777 12.6683 12.5209 12.529 12.3906C12.3898 12.2602 12.225 12.159 12.0447 12.0931C11.8644 12.0272 11.6724 11.9979 11.4802 12.0072C8.9066 12.1545 6.35609 12.0695 3.82866 11.7522C1.43971 11.4575 0.164456 10.2167 0.0028852 8.02955C-0.00865558 7.85956 0.0144259 7.70091 0.0721298 7.55359C0.380164 6.79679 0.861206 6.14503 1.45532 5.67954C2.04943 5.21405 2.73033 4.95541 3.41319 4.93585C14.527 4.59588 24.6598 4.52223 33.8116 4.71487C36.9045 4.78287 41.9767 6.23906 49.0281 9.08344C49.6052 9.32142 50.061 9.69538 50.3957 10.2053L57.0259 20.2683C57.4298 20.8803 57.4702 21.5092 57.1471 22.1552C54.8101 26.9147 56.2642 32.5581 54.2561 37.1307C48.4223 50.3724 36.2352 51.0693 23.5807 49.3355C22.7959 49.2222 22.4035 49.5565 22.4035 50.3384ZM22.3343 16.2907L22.4035 38.0146C22.4035 38.5763 22.5165 39.1325 22.736 39.6513C22.9554 40.17 23.277 40.6411 23.6823 41.0375C24.0876 41.434 24.5687 41.7479 25.0978 41.9613C25.627 42.1747 26.1939 42.2834 26.766 42.2812L30.1243 42.2642C34.4073 42.2498 38.5094 40.6676 41.5285 37.8656C44.5477 35.0636 46.2365 31.2713 46.2237 27.3226V26.8467C46.2174 24.891 45.7933 22.9557 44.9755 21.1514C44.1577 19.3471 42.9624 17.7092 41.4577 16.3312C39.9531 14.9532 38.1686 13.862 36.2061 13.1201C34.2437 12.3782 32.1418 12 30.0205 12.0072L26.6621 12.0242C25.5127 12.0286 24.412 12.4801 23.6008 13.2798C22.7897 14.0795 22.3343 15.1621 22.3343 16.2907Z" fill="black"/>
<path d="M1205.53 172.489C1205.66 172.538 1205.79 172.593 1205.92 172.652C1206.18 172.771 1206.46 172.83 1206.75 172.83L1237.2 172.86C1238.78 172.86 1239.56 173.611 1239.53 175.113L1239.5 176.611C1239.47 178.212 1238.61 179.013 1236.92 179.013L1203.26 179.191C1202.19 179.196 1201.12 178.977 1200.14 178.55C1199.16 178.123 1198.3 177.499 1197.6 176.72C1196.91 175.942 1196.41 175.029 1196.13 174.047C1195.85 173.064 1195.81 172.036 1196 171.036C1199.77 151.376 1203.74 130.119 1207.9 107.266C1208.16 105.833 1209.49 104.884 1211.89 104.419C1213.29 104.152 1214.7 104.973 1216.12 106.88C1216.43 107.29 1216.65 107.753 1216.77 108.244C1216.89 108.735 1216.9 109.244 1216.81 109.742L1205.35 172.192C1205.34 172.249 1205.35 172.31 1205.38 172.364C1205.41 172.418 1205.46 172.462 1205.53 172.489Z" fill="black"/>
<path d="M1107.33 170.203C1107.37 170.562 1107.55 170.894 1107.84 171.133C1108.13 171.373 1108.5 171.505 1108.88 171.502L1135.2 171.177C1138.15 171.138 1139.67 172.52 1139.75 175.324L1139.77 175.781C1139.83 177.995 1138.69 179.112 1136.35 179.131C1123.9 179.239 1112.64 179.2 1102.55 179.013C1098.88 178.935 1097.16 177.218 1097.39 173.863C1097.8 167.921 1098.84 161.152 1100.51 153.558C1103.96 138.004 1105.94 123.262 1109.09 107.973C1109.64 105.297 1111.34 104.112 1114.2 104.417L1115.47 104.564C1118.15 104.85 1119.21 106.242 1118.65 108.741C1116.52 118.146 1114.79 127.261 1113.47 136.085C1111.91 146.489 1109.23 157.173 1107.4 167.591C1107.25 168.467 1107.22 169.338 1107.33 170.203Z" fill="black"/>
<path d="M639.766 166.206C639.285 165.397 639.011 164.515 638.942 163.558C638.92 163.19 638.981 162.821 639.121 162.48C639.261 162.139 639.476 161.835 639.751 161.59C642.995 158.74 646.362 158.74 649.852 161.59C650.989 162.517 651.234 163.642 650.587 164.963C648.323 169.579 647.176 174.624 641.677 176.473C637.1 178.012 632.493 178.89 627.856 179.107C622.416 179.373 617.995 179.008 614.594 178.012C602.714 174.55 600.406 162.685 601.2 151.723C601.719 144.582 602.724 136.726 604.214 128.156C605.493 120.773 607.757 112.77 614.388 108.746C622.181 104.026 631.87 103.908 641.251 104.81C643.25 105.008 644.853 105.762 646.059 107.074C646.577 107.645 646.857 108.395 646.841 109.167C646.824 109.939 646.513 110.673 645.97 111.216C644.53 112.666 642.775 113.243 640.707 112.947C634.429 112.015 621.857 111.409 617.461 117.001C615.707 119.249 614.452 122.218 613.697 125.907C612.119 133.698 610.962 141.939 610.227 150.628C609.639 157.418 609.566 167.7 617.094 170.319C624.43 172.849 631.473 171.428 638.663 169.135C638.948 169.044 639.21 168.889 639.427 168.682C639.645 168.475 639.813 168.221 639.919 167.939C640.025 167.657 640.066 167.355 640.04 167.055C640.013 166.755 639.919 166.465 639.766 166.206Z" fill="black"/>
<path d="M738.022 168.586C738.814 160.316 752.495 162.787 748.832 169.473C746.798 173.172 744.212 176.086 740.04 177.122C733.163 178.828 725.836 179.479 718.062 179.075C703.858 178.32 699.567 167.018 701.122 154.783C702.338 145.305 704.217 133.899 706.758 120.565C707.715 115.506 710.347 107.695 716.193 106.245C722.552 104.667 728.872 104.085 735.151 104.499C737.045 104.618 738.181 105.599 738.56 107.443C738.61 107.7 738.61 107.956 738.56 108.213C738.142 110.294 736.866 111.418 734.733 111.586C729.988 111.95 725.193 112.572 720.349 113.45C718.695 113.745 717.598 114.83 717.06 116.704C716.482 118.677 716.003 120.615 715.625 122.518C713.143 134.955 711.284 146.159 710.048 156.129C709.509 160.41 710.157 164.453 711.991 168.26C712.243 168.788 712.663 169.224 713.187 169.503C720.11 173.201 729.2 171.766 737.125 169.651C737.673 169.503 737.972 169.148 738.022 168.586Z" fill="black"/>
<path d="M817.61 113.9C816.741 115.657 816.128 117.513 815.771 119.468C813.697 130.673 811.689 141.799 809.748 152.847C809.058 156.682 806.959 168.411 811.633 170.351C818.177 173.061 827.219 171.106 834.176 170.069C835.085 169.936 835.912 169.494 836.506 168.825C839.172 165.834 844.965 165.286 846.544 169.566C847.77 172.898 842.345 176.333 839.601 176.97C830.866 179.004 822.034 179.641 813.104 178.881C799.756 177.755 798.239 166.708 799.863 156.549C801.999 143.181 804.496 129.385 807.357 115.158C807.521 114.388 808.088 112.833 809.058 110.494C810.453 107.176 812.123 105.059 815.97 104.866C819.495 104.674 825.134 103.282 827.709 106.229C827.983 106.542 828.185 106.908 828.3 107.303C828.416 107.697 828.442 108.111 828.379 108.517C828.315 108.922 828.162 109.31 827.93 109.653C827.698 109.997 827.393 110.288 827.035 110.508C824.787 111.9 822.105 112.725 818.989 112.981C818.345 113.031 817.886 113.337 817.61 113.9Z" fill="black"/>
<path d="M908.985 170.381C910.395 170.894 911.884 171.176 913.452 171.225C922.633 171.541 930.752 170.786 937.809 168.96C939.685 168.471 941.323 169.611 942.261 171.151C942.672 171.833 942.826 172.639 942.695 173.425C942.564 174.211 942.157 174.927 941.546 175.445C936.975 179.309 923.412 179.176 916.578 179.191C911.904 179.191 907.725 178.524 904.043 177.192C901.015 176.096 899.402 173.762 899.204 170.189C898.896 164.77 899.239 159.454 900.231 154.242C902.554 142.111 904.757 129.782 906.842 117.256C907.303 114.503 908.509 108.254 910.459 106.255C912.375 104.291 915.219 103.862 918.99 104.967C921.68 105.757 922.534 107.445 921.551 110.031C921.449 110.305 921.288 110.553 921.079 110.757C920.871 110.962 920.62 111.118 920.345 111.216C917.953 112.074 916.554 113.693 916.147 116.072C913.725 130.118 911.174 144.564 908.494 159.41C907.948 162.46 907.809 165.722 908.077 169.197C908.127 169.789 908.43 170.184 908.985 170.381Z" fill="black"/>
<path d="M1007.3 169.238C1007.35 170.64 1008.13 171.341 1009.64 171.341C1018.96 171.401 1027.86 171.05 1036.34 170.29C1039.03 170.043 1040.99 171.055 1042.22 173.326C1042.63 174.077 1042.59 174.808 1042.11 175.519C1040.7 177.593 1038.53 178.669 1035.61 178.748C1028.47 178.955 1021.44 179.099 1014.52 179.178C1010.34 179.222 998.48 179.415 997.922 174.423C997.327 169.129 997.576 163.846 998.671 158.572C1001.15 146.603 1003.44 134.555 1005.56 122.428C1006.35 117.856 1007.32 113.269 1008.46 108.667C1009.17 105.763 1011.13 104.331 1014.33 104.371H1015.25C1018.7 104.41 1019.89 105.956 1018.8 109.007C1017.35 113.047 1016.21 117.342 1015.38 121.895C1013 135.069 1010.49 148.386 1007.85 161.846C1007.39 164.226 1007.2 166.69 1007.3 169.238Z" fill="black"/>
<path d="M542.406 165.239C542.587 163.09 541.119 162.213 540.331 160.414C540.129 159.956 540.104 159.493 540.255 159.025C541.573 154.814 548.493 155.881 551.491 157.022C551.941 157.192 552.349 157.452 552.688 157.785C553.026 158.118 553.289 158.516 553.457 158.954C553.626 159.391 553.697 159.858 553.666 160.324C553.635 160.79 553.503 161.244 553.278 161.657C549.841 167.988 551.279 173.925 542.436 176.674C537.873 178.087 533.542 178.901 529.444 179.116C507.578 180.227 499.356 168.793 500.097 148.746C500.39 140.772 501.42 133.398 503.187 126.623C508.653 105.684 529.171 102.701 548.644 107.76C550.744 108.306 551.946 109.661 552.248 111.825C552.299 112.196 552.188 112.547 551.915 112.878C550.219 114.945 548.044 115.646 545.389 114.984C541.29 113.96 536.672 113.477 531.533 113.536C520.671 113.643 514.059 119.141 511.697 130.03C510.041 137.682 509.238 145.222 509.289 152.65C509.35 161.642 512.227 170.489 523.205 171.351C528.555 171.78 533.855 171.171 539.105 169.524C541.114 168.9 542.214 167.472 542.406 165.239Z" fill="black"/>
<path d="M345.014 156.039C342.885 154.941 340.414 153.526 341.322 150.592C341.51 150.003 341.854 149.478 342.316 149.075C342.778 148.672 343.341 148.405 343.942 148.304C348.11 147.592 352.11 147.848 355.941 149.072C356.379 149.211 356.776 149.457 357.097 149.788C357.418 150.119 357.653 150.525 357.781 150.971C357.909 151.416 357.926 151.886 357.831 152.34C357.736 152.794 357.532 153.217 357.236 153.571C355.747 155.347 354.467 157.198 354.452 159.651C354.442 163.132 353.996 166.498 353.112 169.748C352.179 173.219 349.296 175.602 344.463 176.896C333.998 179.68 323.89 180.778 314.228 175.226C300.8 167.506 299.312 148.53 301.188 134.174C303.167 118.915 313.648 105.929 329.442 104.574C337.749 103.867 351.088 104.619 355.569 113.001C356.67 115.078 356.248 116.763 354.303 118.057L353.946 118.298C352.99 118.931 351.825 119.155 350.706 118.921C349.587 118.687 348.605 118.014 347.976 117.049C346.607 114.953 344.632 113.643 342.052 113.122C329.527 110.604 320.59 113.448 315.241 121.654C311.757 126.991 309.881 133.03 309.613 139.772C309.063 153.646 311.325 170.561 328.549 170.937C333.204 171.037 337.466 170.596 341.337 169.613C345.967 168.424 345.907 161.396 345.788 157.288C345.768 156.716 345.51 156.3 345.014 156.039Z" fill="black"/>
<path d="M444.061 114.039C440.38 112.095 433.993 112.484 429.751 112.723C409.616 113.859 408.374 138.588 410.089 155.214C411.863 172.378 426.424 173.125 439.537 169.612C443.233 168.625 443.677 163.631 443.839 160.312C443.869 159.714 443.667 159.221 443.233 158.832L441.385 157.143C440.978 156.776 440.675 156.305 440.508 155.78C440.341 155.255 440.316 154.695 440.435 154.157C440.554 153.618 440.813 153.122 441.186 152.719C441.558 152.316 442.03 152.021 442.553 151.865C445.993 150.828 449.585 151.062 453.33 152.568C453.718 152.725 454.069 152.965 454.357 153.271C454.645 153.578 454.865 153.944 455.001 154.344C455.137 154.744 455.186 155.169 455.146 155.59C455.105 156.011 454.974 156.418 454.764 156.784C450.817 163.616 453.685 173.125 444.238 176.325C427.06 182.126 405.669 180.451 401.647 158.757C395.823 127.3 408.403 96.5162 446.249 106.175C449.156 106.922 451.536 108.437 453.389 110.72C453.664 111.058 453.868 111.451 453.987 111.872C454.106 112.294 454.138 112.736 454.081 113.17C454.024 113.605 453.88 114.023 453.656 114.399C453.433 114.774 453.136 115.1 452.783 115.354C449.132 118.031 447.136 115.668 444.061 114.039Z" fill="black"/>
<path d="M245.769 154.131L242.728 153.194C242.045 152.98 241.456 152.553 241.054 151.982C240.652 151.41 240.461 150.726 240.51 150.039C240.727 146.958 243.969 145.693 246.839 145.842C250.36 146.02 255.898 145.559 258.473 148.059C258.777 148.355 259.013 148.708 259.169 149.095C259.324 149.483 259.394 149.897 259.375 150.311C259.357 150.726 259.249 151.133 259.059 151.506C258.869 151.879 258.601 152.21 258.271 152.479C256.736 153.759 256.006 155.352 256.022 157.287C256.043 160.938 255.665 164.867 254.89 169.074C254.466 171.306 253.375 173.017 251.617 174.208C249.393 175.726 246.989 176.768 244.404 177.333C234.15 179.566 225.2 180.533 215.319 175.86C208.338 172.566 203.591 167.144 201.079 159.593C195.277 142.136 197.899 121.3 214.434 110.555C223.416 104.706 236.989 104.513 246.839 107.578C251.741 109.111 257.139 112.966 257.247 118.309C257.264 119.122 257.007 119.917 256.515 120.577C256.023 121.237 255.322 121.726 254.517 121.97C249.802 123.414 248.824 119.991 247.072 116.94C246.78 116.438 246.317 116.04 245.753 115.809C225.82 107.861 209.564 119.291 207.78 138.951C207.097 146.422 208.431 157.257 213.224 163.418C220.189 172.378 231.234 171.961 241.472 170.011C244.316 169.466 245.867 167.779 246.125 164.951C246.436 161.548 246.637 158.373 246.73 155.426C246.74 155.139 246.651 154.857 246.478 154.623C246.304 154.389 246.055 154.216 245.769 154.131Z" fill="black"/>
<path d="M58.2292 156.745C58.0621 163.049 58.9587 171.013 53.4267 174.88C50.529 176.9 47.2412 178.119 43.5633 178.535C35.9187 179.388 24.2772 180.118 17.3925 175.885C2.55939 166.734 -0.814545 150.197 2.31622 133.843C2.65057 132.092 2.11865 130.889 2.11865 129.199C2.11865 128.61 2.33648 128.118 2.77216 127.722C4.36287 126.321 5.48245 124.661 6.13089 122.743C7.39231 118.982 10.2647 116.256 12.7268 113.272C14.0743 111.658 15.7917 110.465 17.8789 109.693C21.8303 108.252 25.8426 107.059 29.9156 106.115C32.8133 105.455 36.0606 105.45 39.6574 106.1C42.9503 106.688 46.4661 107.262 50.2048 107.82C51.486 108.018 52.6665 108.634 53.5635 109.571L59.9466 116.317C61.4259 117.88 61.4867 119.505 60.129 121.19L59.8098 121.586C59.1414 122.414 58.1772 122.949 57.1217 123.077C56.0662 123.205 55.0025 122.916 54.1562 122.271C52.3527 120.89 50.7975 119.322 49.4905 117.566C47.1196 114.353 40.6149 113.485 37.0282 113.165C31.5114 112.678 25.7514 115.282 20.5537 117.185C19.4134 117.605 18.4854 118.452 17.97 119.545C15.584 124.631 11.9821 128.864 10.7207 134.529C8.78545 143.167 9.97089 151.634 14.277 159.927C19.5962 170.175 31.025 174.896 41.9675 171.332C49.5968 168.85 50.2808 162.744 49.992 155.633C49.9312 153.989 49.1662 152.918 47.6971 152.42C45.7923 151.781 44.0294 150.852 42.4082 149.634C42.0038 149.328 41.6932 148.915 41.5117 148.441C41.3302 147.967 41.2853 147.452 41.3819 146.953C41.4785 146.455 41.7128 145.994 42.0582 145.622C42.4035 145.251 42.8461 144.984 43.3353 144.853C46.77 143.939 52.2261 146.923 55.524 148.111C56.1319 148.345 56.6335 148.715 57.0286 149.223L60.4329 153.669C60.8889 154.248 60.747 154.562 60.0074 154.613C59.673 154.623 59.3691 154.74 59.0955 154.963C58.8332 155.178 58.6201 155.449 58.4706 155.756C58.3212 156.063 58.2388 156.401 58.2292 156.745Z" fill="black"/>
<path d="M146.887 152.995C143.557 152.985 141.418 151.825 140.471 149.515C140.301 149.098 140.222 148.649 140.24 148.198C140.258 147.747 140.372 147.306 140.575 146.904C140.778 146.501 141.065 146.147 141.416 145.865C141.766 145.583 142.174 145.381 142.61 145.27C147.675 143.98 152.641 144.235 157.506 146.035C158.007 146.219 158.455 146.525 158.808 146.925C159.162 147.325 159.411 147.807 159.532 148.328C159.654 148.849 159.645 149.392 159.505 149.908C159.366 150.424 159.1 150.897 158.733 151.285L157.207 152.875C156.838 153.265 156.649 153.725 156.639 154.255C156.539 158.485 156.215 163.275 155.667 168.625C154.605 179.111 133.651 179.876 126.965 178.856C106.519 175.735 98.5474 157.945 99.9084 138.985C100.876 125.445 106.694 115.61 117.363 109.48C126.666 104.155 143.387 104.2 152.257 110.455C155.328 112.615 157.118 115.495 157.626 119.095C157.905 120.985 157.247 122.45 155.652 123.49C155.303 123.72 154.929 123.865 154.53 123.925C151.419 124.415 149.455 123.12 148.637 120.04C148.019 117.77 146.643 116.225 144.509 115.405C135.336 111.895 127.154 112.645 119.965 117.655C108.568 125.59 106.923 141.745 110.438 154.42C113.33 164.8 120.025 170.34 130.525 171.04C136.009 171.41 141.104 170.685 145.81 168.865C146.029 168.781 146.22 168.636 146.36 168.448C146.501 168.259 146.585 168.035 146.603 167.8L147.65 153.76C147.69 153.26 147.436 153.005 146.887 152.995Z" fill="black"/>
<path d="M36.0654 264.429C35.0532 265.078 35.0268 265.766 35.9862 266.494C37.8171 267.862 39.1595 269.4 40.0134 271.11C41.6374 274.332 43.9745 276.831 46.3116 279.449C48.4638 281.895 46.8001 285.393 49.3088 287.182C51.3158 288.611 52.8474 290.453 53.9037 292.706C54.96 294.994 57.0858 296.191 59.2644 297.217C60.9149 297.993 62.156 299.269 63.2255 300.716C63.4133 300.969 63.5348 301.265 63.5789 301.576C63.6231 301.888 63.5885 302.206 63.4784 302.501C63.3683 302.796 63.1862 303.059 62.9484 303.266C62.7106 303.473 62.4246 303.618 62.1164 303.688C57.1254 304.793 53.7057 301.136 49.5333 299.295C46.5228 297.967 45.6778 295.678 45.11 292.706C44.9906 292.096 44.6515 291.557 44.1593 291.193C41.5538 289.256 39.8725 286.625 39.1155 283.302C39.0115 282.853 38.7983 282.437 38.4949 282.092C35.9862 279.295 33.9176 276.384 32.2892 273.359C32.1957 273.181 32.0526 273.034 31.877 272.936C31.7015 272.837 31.5011 272.792 31.3 272.804C31.0989 272.817 30.9057 272.887 30.7438 273.006C30.582 273.126 30.4583 273.29 30.3878 273.478C28.7418 277.756 26.3343 281.421 23.1654 284.473C22.7506 284.869 22.4495 285.373 22.2939 285.933C21.845 287.485 21.6206 289.115 20.6831 290.483C18.8258 293.219 16.9816 295.976 15.1507 298.756C14.3642 299.952 13.1309 300.794 11.7177 301.097C9.66676 301.535 7.60258 302.189 5.52519 303.057C3.37298 303.951 0.890678 303.556 0.0852496 301.044C0.0144526 300.832 -0.0126775 300.607 0.00546658 300.384C0.0236107 300.16 0.08666 299.942 0.190879 299.742C1.51125 297.112 4.24443 296.283 6.80595 295.271C10.0013 293.982 12.6948 287.919 14.0812 284.92C15.9694 280.816 19.4551 278.081 21.066 273.872C21.9727 271.505 23.6671 269.3 26.1494 267.257C26.4111 267.042 26.6256 266.777 26.7798 266.476C26.9339 266.176 27.0243 265.847 27.0453 265.51C27.0664 265.173 27.0177 264.836 26.9021 264.519C26.7866 264.201 26.6068 263.911 26.3739 263.666C23.6143 260.773 20.3662 258.221 19.8513 253.96C19.7984 253.495 19.6268 253.079 19.3363 252.71C17.7122 250.646 15.9694 249.199 14.7942 246.713C13.4078 243.793 9.68437 236.284 6.19858 235.6C4.12119 235.179 2.63357 233.662 1.73572 231.049C1.60368 230.663 1.71811 230.383 2.07901 230.207C4.59653 229.024 6.71353 228.765 8.43001 229.431C11.9422 230.786 15.6261 231.562 17.5142 235.284C18.5705 237.362 19.7588 239.379 21.0792 241.334C22.9409 244.109 23.8388 247.173 26.1098 249.764C27.9716 251.856 28.8562 254.42 30.1106 256.88C30.7707 258.169 31.6686 258.366 32.8041 257.472C34.3226 256.275 35.6693 254.302 36.3427 252.487C38.0328 247.954 39.7757 244.543 41.5714 242.255C43.3935 239.922 44.9868 237.651 46.3512 235.442C48.7278 231.601 51.8967 231.154 55.7258 229.839C57.7592 229.129 60.0566 230.339 60.5452 232.443C60.6772 233.022 60.5408 233.522 60.1359 233.942C59.1588 234.96 57.8868 235.924 56.32 236.836C50.4707 240.255 45.5589 250.922 42.2184 257.327C40.5723 260.475 38.5213 262.842 36.0654 264.429Z" fill="black"/>
<path d="M130.035 272.554C125.568 279.399 121.173 286.289 116.848 293.222C113.471 298.632 109.414 303.082 102.113 302.108C101.588 302.037 101.156 301.8 100.818 301.397C98.7493 298.935 99.8839 296.5 102.767 295.736C107.385 294.512 110.108 289.43 112.377 285.494C116.603 278.149 121.084 271.404 125.817 265.261C125.958 265.076 126.038 264.851 126.045 264.618C126.052 264.385 125.987 264.154 125.857 263.958C121.106 256.639 116.425 249.148 111.816 241.487C109.908 238.301 107.919 236.195 104.529 235.062C104.181 234.946 103.86 234.762 103.587 234.52C103.313 234.279 103.093 233.986 102.938 233.658C102.783 233.331 102.698 232.976 102.686 232.615C102.675 232.255 102.739 231.896 102.874 231.561C103.488 230.025 104.582 229.275 106.157 229.31C109.294 229.376 112.777 228.744 114.753 231.798C119.922 239.81 125.025 248.047 130.062 256.507C130.462 257.174 130.876 257.187 131.303 256.546C136.775 248.297 141.816 240.556 146.425 233.325C148.294 230.389 153.126 229.02 156.209 229.073C156.914 229.08 157.594 229.334 158.127 229.79C158.659 230.246 159.011 230.873 159.118 231.561C159.421 233.448 158.731 234.703 157.05 235.326C154.807 236.168 153.312 237.169 151.991 239.235C146.839 247.336 141.416 255.691 135.721 264.3C135.563 264.539 135.483 264.82 135.49 265.107C135.497 265.393 135.592 265.672 135.761 265.906L160.346 299.067C160.636 299.459 160.812 299.922 160.854 300.404C160.897 300.887 160.804 301.371 160.587 301.805C160.097 302.779 159.412 303.384 158.531 303.621C155.995 304.306 154.033 303.692 152.645 301.778C145.633 292.151 138.439 282.396 131.063 272.514C130.707 272.041 130.364 272.054 130.035 272.554Z" fill="black"/>
<path d="M229.347 258.32C234.145 250.524 238.858 242.706 243.488 234.867C244.479 233.191 245.551 232.009 246.701 231.322C249.556 229.602 253.765 227.459 256.341 230.925C256.588 231.262 256.757 231.649 256.835 232.059C256.913 232.469 256.899 232.891 256.793 233.295C256.688 233.698 256.494 234.074 256.225 234.394C255.956 234.714 255.62 234.97 255.239 235.144C252.69 236.322 250.99 237.724 249.503 240.237C244.502 248.65 239.376 256.926 234.127 265.066C234.056 265.177 234.018 265.305 234.018 265.434C234.018 265.563 234.056 265.688 234.127 265.793L256.062 298.307C256.492 298.943 256.689 299.706 256.621 300.469C256.554 301.233 256.225 301.95 255.691 302.501C255.354 302.844 254.982 303.113 254.575 303.307C252.309 304.427 250.472 303.938 249.065 301.839L229.387 272.526C229.148 272.165 228.904 272.165 228.656 272.526C224.098 279.29 219.818 286.217 215.816 293.307C213.718 297.051 210.943 300.503 206.734 301.971C202.91 303.307 197.904 298.823 202.804 295.992C205.344 294.52 207.332 292.478 208.766 289.868C213.351 281.552 218.414 273.518 223.956 265.767C224.061 265.618 224.119 265.441 224.121 265.26C224.124 265.078 224.071 264.9 223.969 264.748C219.499 258.134 214.807 250.573 209.894 242.063C208.115 238.985 205.845 236.749 203.083 235.356C200.639 234.139 201.927 230.978 203.946 230.158C210.054 227.697 213.732 233.226 216.374 237.803C220.464 244.84 224.584 251.679 228.736 258.32C228.768 258.372 228.813 258.415 228.866 258.444C228.92 258.474 228.98 258.49 229.041 258.49C229.103 258.49 229.163 258.474 229.216 258.444C229.27 258.415 229.315 258.372 229.347 258.32Z" fill="black"/>
<path d="M326.425 258.717C326.916 259.277 327.354 259.237 327.74 258.597C332.587 250.485 337.246 242.227 341.716 233.821C342.268 232.791 343.079 231.946 344.148 231.289C347.146 229.476 350.801 227.531 353.615 230.956C353.825 231.215 353.978 231.516 354.066 231.84C354.154 232.163 354.174 232.501 354.124 232.832C354.074 233.163 353.957 233.479 353.778 233.759C353.6 234.04 353.365 234.279 353.089 234.461C350.472 236.207 348.29 237.979 346.883 240.965C342.886 249.441 337.916 257.358 332.802 265.235C332.469 265.75 332.46 266.27 332.776 266.794L352.024 298.781C353.032 300.442 352.694 301.744 351.012 302.686L350.078 303.219C347.852 304.463 346.081 303.983 344.766 301.779L328.043 273.778C327.953 273.626 327.827 273.5 327.677 273.411C327.527 273.321 327.357 273.271 327.183 273.266C327.008 273.261 326.836 273.3 326.68 273.38C326.525 273.46 326.392 273.579 326.294 273.724C323.783 277.443 321.363 281.201 319.299 285.28C317.204 289.429 314.991 293.316 312.66 296.941C310.569 300.207 306.507 303.072 302.983 300.127C302.705 299.896 302.479 299.608 302.32 299.282C302.161 298.956 302.073 298.599 302.062 298.235C302.051 297.871 302.116 297.509 302.255 297.173C302.393 296.837 302.601 296.536 302.865 296.288C305.481 293.823 307.322 291.01 308.86 287.838C312.41 280.473 316.643 273.507 321.561 266.941C321.731 266.713 321.826 266.437 321.83 266.153C321.835 265.87 321.75 265.595 321.587 265.368C316.635 258.34 311.976 250.676 307.611 242.378C306.279 239.836 304.232 237.664 301.471 235.86C301.251 235.717 301.062 235.529 300.915 235.307C300.768 235.084 300.667 234.833 300.616 234.568C300.24 232.4 301.085 231.062 303.154 230.556C306.818 229.667 309.658 230.902 311.674 234.261C315.679 240.916 319.632 247.691 323.533 254.586C324.383 256.087 325.347 257.465 326.425 258.717Z" fill="black"/>
<path d="M426.706 274.725C426.655 274.629 426.58 274.548 426.488 274.489C426.397 274.431 426.291 274.397 426.181 274.39C426.071 274.383 425.96 274.405 425.86 274.451C425.759 274.498 425.671 274.569 425.605 274.658C423.968 276.912 422.706 278.935 421.82 280.727C418.831 286.797 415.77 292.546 412.637 297.977C412.031 299.023 411.127 299.852 410.063 300.337C408.999 300.823 407.834 300.938 406.744 300.665C406.619 300.63 406.494 300.586 406.368 300.532C403.943 299.485 403.424 297.844 404.811 295.608C406.565 292.795 408.194 289.649 409.697 286.171C412.078 280.696 415.304 275.195 419.376 269.667C419.729 269.192 419.911 268.614 419.894 268.023C419.877 267.433 419.662 266.864 419.282 266.406C416.839 263.451 414.602 260.093 412.57 256.331C409.174 249.995 405.496 242.076 400.059 237.577C399.649 237.236 399.345 236.787 399.181 236.282C399.017 235.777 399 235.236 399.132 234.722C399.263 234.208 399.539 233.741 399.926 233.375C400.313 233.009 400.796 232.759 401.321 232.652C403.272 232.262 405.294 232.324 407.388 232.839C408.078 233.007 408.601 233.402 408.959 234.023L424.411 260.949C424.528 261.158 424.7 261.331 424.908 261.451C425.117 261.571 425.354 261.633 425.596 261.632C425.838 261.631 426.076 261.565 426.285 261.443C426.494 261.321 426.667 261.146 426.787 260.936C430.483 254.316 434.148 247.555 437.781 240.652C439.768 236.885 439.486 233.691 444.158 231.747C447.165 230.496 450.588 228.793 452.454 232.972C452.7 233.529 452.733 234.155 452.544 234.732C452.356 235.309 451.961 235.796 451.434 236.1C448.588 237.75 446.843 239.999 445.675 243.047C443.25 249.365 440.556 254.667 437.593 258.953C435.893 261.41 434.237 264.055 432.626 266.885C432.417 267.256 432.306 267.674 432.303 268.1C432.301 268.526 432.408 268.946 432.613 269.321L449.004 298.922C450.087 300.874 449.599 302.294 447.541 303.181L447.084 303.381C444.561 304.472 442.645 303.82 441.339 301.424L426.706 274.725Z" fill="black"/>
<path d="M526.071 276.809C525.038 277.843 524.204 279.09 523.568 280.55C521.549 285.194 519.493 289.883 517.401 294.618C516.332 297.022 514.506 297.901 511.925 297.257C511.529 297.158 511.165 296.981 510.833 296.727C509.349 295.593 508.86 294.133 509.367 292.346C511.621 284.468 515.424 278.414 518.48 271.502C518.697 271.012 518.791 270.477 518.753 269.943C518.714 269.41 518.544 268.895 518.258 268.441C513.861 261.521 509.768 254.219 505.98 246.536C504.334 243.189 502.233 240.251 499.592 237.611C499.311 237.328 499.096 236.988 498.962 236.616C498.829 236.243 498.779 235.845 498.817 235.452C498.855 235.058 498.98 234.677 499.183 234.336C499.386 233.995 499.662 233.701 499.993 233.475C503.27 231.244 507.501 232.06 509.312 235.53C513.359 243.23 517.166 250.409 520.733 257.067C521.978 259.38 523.407 261.57 525.02 263.638C525.969 264.872 526.771 264.786 527.426 263.38C531.168 255.271 534.749 247.267 538.169 239.366C538.805 237.897 538.819 236.4 539.179 234.877C539.286 234.393 539.559 233.96 539.953 233.652C542.732 231.53 548.028 228.877 551.208 231.257C552.785 232.428 552.831 233.788 551.347 235.339C549.577 237.189 547.392 238.591 546.576 241.162C543.802 249.87 540.16 257.974 535.653 265.475C534.796 266.899 534.136 268.418 533.676 270.033C533.528 270.55 533.565 271.058 533.786 271.557L545.968 298.496C546.853 300.455 546.392 302.028 544.585 303.217C544.262 303.425 543.917 303.579 543.548 303.679C541.032 304.332 539.248 303.489 538.197 301.149L527.274 277.026C526.979 276.382 526.578 276.31 526.071 276.809Z" fill="black"/>
<path d="M627.894 281.277C627.664 279.488 627.06 279.348 626.084 280.858C625.218 282.19 624.089 283.57 622.698 284.996C620.224 287.54 616.286 286.757 615.291 283.304C615.152 282.801 615.18 282.307 615.374 281.822C616.659 278.551 617.833 274.609 616.203 271.184C611.67 261.64 607.519 252.568 603.751 243.965C602.673 241.519 600.932 239.744 599.246 237.745C598.944 237.386 598.733 236.959 598.632 236.499C598.531 236.039 598.543 235.561 598.667 235.107C598.792 234.653 599.024 234.237 599.344 233.895C599.664 233.553 600.062 233.295 600.504 233.145C602.729 232.39 610.094 232.278 610.108 236.361C610.108 237.339 610.297 238.271 610.675 239.156C615.023 249.324 619.529 259.175 624.19 268.709C624.384 269.101 624.646 269.432 624.978 269.702C625.039 269.751 625.11 269.787 625.185 269.808C625.26 269.829 625.339 269.835 625.416 269.825C625.494 269.814 625.568 269.788 625.635 269.748C625.703 269.707 625.761 269.654 625.807 269.59C631.459 261.678 633.532 251.598 636.421 242.414C637.001 240.559 637.273 238.695 637.236 236.822C637.199 234.846 638.213 233.336 640.276 232.292C643.068 230.895 645.749 229.049 648.706 231.566C649.263 232.042 649.613 232.722 649.68 233.459C649.747 234.195 649.527 234.931 649.066 235.508C647.559 237.353 646.385 239.212 645.776 241.519C642.764 252.884 638.535 263.411 635.191 274.595C635.016 275.191 634.993 275.797 635.122 276.412L639.945 299.409C640.378 301.468 639.622 302.876 637.678 303.631C637.328 303.761 636.969 303.84 636.6 303.868C633.984 304.083 632.339 302.908 631.667 300.345C629.935 293.747 628.677 287.391 627.894 281.277Z" fill="black"/>
<path d="M725.552 282.583C721.731 282.84 718.753 281.302 716.618 277.968C711.079 269.322 705.809 257.803 700.809 243.41C699.833 240.591 695.641 236.718 695.839 233.721C696.144 229.358 702.211 230.768 705.062 231.465C706.983 231.94 707.964 233.092 708.005 234.923C708.035 236.387 708.299 237.826 708.797 239.24C713.066 251.339 718.021 262.536 723.662 272.834C723.739 272.97 723.849 273.084 723.984 273.167C724.118 273.25 724.271 273.298 724.429 273.307C724.586 273.316 724.743 273.286 724.883 273.218C725.024 273.151 725.144 273.049 725.232 272.923C728.474 268.393 730.975 263.357 732.733 257.818C735.447 249.281 737.474 241.436 738.816 234.284C739.415 231.089 741.377 229.358 744.701 229.091C745.148 229.052 745.595 229.071 746.042 229.15C748.939 229.714 749.991 231.381 749.198 234.151C745.641 246.724 742.028 259.228 738.358 271.662C735.492 281.411 734.517 290.729 732.718 300.374C732.301 302.619 730.919 303.792 728.571 303.891C728.164 303.901 727.763 303.856 727.366 303.757C724.602 303.065 723.438 301.348 723.875 298.608L726.299 283.369C726.381 282.805 726.132 282.543 725.552 282.583Z" fill="black"/>
<path d="M824.282 291.141C826.742 281.105 830.795 270.742 833.223 260.136C834.124 256.193 835.764 251.289 835.78 247.069C835.791 245.385 835.823 243.593 835.877 241.692C835.941 239.9 836.788 238.835 838.418 238.499C841.86 237.766 845.108 237.766 845.928 242.246C846.711 246.493 846.915 249.317 846.539 250.718C842.637 265.013 839.651 277.661 837.582 288.664C837.432 289.479 837.035 290.147 836.392 290.668C834.333 292.363 832.891 294.486 832.065 297.039C829.557 304.827 820.599 306.212 815.613 299.988C811.861 295.285 809.255 290.071 807.797 284.347C804.956 273.17 802.04 261.993 799.048 250.816C797.226 244.027 794.588 239.536 791.136 237.342C789.544 236.332 788.917 234.132 789.689 232.373C789.953 231.766 790.386 231.249 790.937 230.884C791.487 230.52 792.132 230.324 792.792 230.32C797.124 230.309 801.209 230.521 805.047 230.955C806.162 231.085 807.09 231.764 807.829 232.992C809.202 235.251 808.607 237.06 806.044 238.417C805.144 238.895 804.924 239.596 805.385 240.519C806.886 243.571 808.108 246.976 809.052 250.735C812.493 264.323 815.131 278.791 820.872 291.467C822.309 294.649 823.445 294.541 824.282 291.141Z" fill="black"/>
<path d="M923.52 293.096C927.901 278.029 932.276 262.962 936.647 247.896C937.612 244.554 942.712 238.958 946.603 241.756C948.308 242.979 949.094 244.922 948.961 247.585C948.931 248.217 948.681 248.745 948.211 249.17L945.515 251.626C945.045 252.061 944.729 252.59 944.566 253.212C940.512 268.257 936.203 282.796 931.638 296.826C930.627 299.966 927.962 303.712 924.378 303.883C917.225 304.225 912.875 296.064 910.961 289.847C906.682 276.003 902.899 263.04 899.611 250.958C897.834 244.45 895.302 239.176 892.014 235.135C891.819 234.899 891.689 234.614 891.638 234.308C891.587 234.003 891.616 233.687 891.723 233.394C893.561 228.249 900.637 230.798 904.129 232.228C904.89 232.536 905.501 233.137 905.828 233.9C906.155 234.662 906.172 235.525 905.875 236.3C905.355 237.668 905.217 238.508 905.661 239.938C910.685 256.59 914.943 271.185 918.435 283.723C919.467 287.433 920.881 290.603 922.678 293.235C923.056 293.785 923.337 293.738 923.52 293.096Z" fill="black"/>
<path d="M1222.7 288.593C1229.85 270.884 1235.81 252.738 1242.97 235.809C1244.16 233.013 1246.3 231.695 1249.39 231.856C1249.95 231.886 1250.41 232.116 1250.77 232.547C1252.24 234.271 1252.39 236.686 1251.22 239.793C1244.95 256.381 1238.53 273.399 1231.95 290.849C1230.9 293.66 1227.95 296.396 1226.67 299.583C1226.12 300.966 1225.88 302.65 1224.4 303.417C1222.19 304.574 1220.14 303.507 1219.11 301.447C1217.76 298.721 1216.14 296.035 1214.24 293.389C1211.82 290.022 1211.51 286.233 1209.9 282.535C1205.95 273.494 1202.25 263.682 1198.8 253.098C1197.59 249.385 1195.98 245.582 1194.23 242.079C1192.73 239.042 1190.38 236.927 1187.2 235.734C1186.73 235.554 1186.4 235.243 1186.2 234.802C1185.77 233.84 1185.81 232.883 1186.33 231.931C1188.01 228.804 1196.12 230.969 1198.56 232.246C1199.09 232.521 1199.53 232.95 1199.82 233.479C1203.27 239.954 1206.29 246.824 1208.87 254.091C1211.67 262.009 1215.29 270.448 1219.72 279.408C1219.99 279.949 1220.12 280.52 1220.11 281.122C1220.04 283.677 1220.54 286.173 1221.59 288.608C1221.97 289.49 1222.34 289.485 1222.7 288.593Z" fill="black"/>
<path d="M1024.25 290.436C1024.28 290.477 1024.31 290.509 1024.36 290.53C1024.4 290.55 1024.45 290.559 1024.5 290.554C1024.55 290.549 1024.59 290.531 1024.63 290.503C1024.67 290.474 1024.7 290.435 1024.72 290.39C1031.11 273.118 1037.52 254.639 1043.95 234.952C1044.95 231.888 1046.97 230.474 1050 230.712C1050.19 230.722 1050.37 230.763 1050.54 230.835C1053.45 231.991 1054.37 234.018 1053.29 236.918C1051.35 242.149 1049.47 247.592 1047.65 253.246C1042.96 267.804 1037.84 282.043 1032.28 295.962C1031.56 297.788 1030.59 299.526 1029.39 301.177C1026.39 305.31 1021.01 304.474 1018.5 300.373C1015.91 296.173 1013.67 291.396 1011.79 286.041C1007.28 273.226 1002.77 260.443 998.244 247.69C996.798 243.604 994.693 240.091 992.336 236.5C990.628 233.9 991.194 231.934 994.033 230.603C994.253 230.5 994.489 230.433 994.74 230.402C997.925 230.01 1000.22 231.011 1001.64 233.405C1004.07 237.521 1005.95 241.432 1007.28 245.136C1011.59 257.125 1015.93 269.507 1020.27 282.28C1021.34 285.396 1022.67 288.115 1024.25 290.436Z" fill="black"/>
<path d="M1123.82 289.184C1123.85 289.262 1123.91 289.328 1123.98 289.374C1124.05 289.42 1124.13 289.443 1124.22 289.442C1124.3 289.44 1124.39 289.413 1124.46 289.364C1124.53 289.316 1124.58 289.248 1124.62 289.169C1130.47 273.867 1136.19 258.437 1141.77 242.879C1142.24 241.579 1142.58 240.232 1142.8 238.839C1143.25 235.95 1142.96 233.784 1145.59 231.802C1148.28 229.764 1150.76 230 1153.01 232.509C1153.36 232.888 1153.52 233.334 1153.48 233.846C1153.32 236.365 1152.85 238.829 1152.05 241.235C1146.29 258.627 1139.56 276.499 1131.87 294.853C1130.7 297.65 1129.26 300.036 1127.56 302.013C1124.46 305.623 1119.89 303.564 1118.28 299.8C1110.88 282.378 1103.83 264.705 1097.13 246.782C1095.82 243.279 1093.85 240.042 1091.21 237.072C1089.27 234.88 1089.46 232.883 1091.79 231.08C1092.29 230.691 1092.84 230.461 1093.45 230.389C1096.48 230.02 1098.8 231.116 1100.41 233.677C1103.29 238.265 1105.52 242.68 1107.12 246.92C1112.26 260.624 1117.83 274.712 1123.82 289.184Z" fill="black"/>
<path d="M1111.75 350.193C1107.8 350.109 1103.9 349.65 1100.06 348.817C1098.25 348.427 1097.35 347.33 1097.37 345.526V344.372C1097.39 342.294 1098.47 341.271 1100.62 341.303C1112.08 341.493 1123.28 341.493 1134.2 341.303C1136.99 341.261 1138.82 342.563 1139.68 345.21C1140.05 346.349 1139.27 347.551 1137.35 348.817C1136.9 349.108 1136.39 349.292 1135.86 349.355C1132.27 349.745 1128.37 349.94 1124.15 349.94C1123.25 349.929 1122.81 350.357 1122.82 351.221L1123.38 411.792C1123.41 414.967 1121.91 416.396 1118.88 416.079C1118.69 416.058 1118.5 416.043 1118.3 416.032C1115.1 415.853 1113.48 414.076 1113.46 410.701C1113.3 389.778 1113.16 370.041 1113.07 351.49C1113.06 350.647 1112.62 350.214 1111.75 350.193Z" fill="black"/>
<path d="M1022.74 351.476L1022.54 412.304C1022.53 415.31 1020.92 416.541 1017.72 415.998C1017.3 415.934 1017.03 415.891 1016.9 415.87C1013.56 415.305 1011.9 413.583 1011.92 410.705L1012.36 351.86C1012.37 351.114 1011.97 350.708 1011.16 350.644C1006.54 350.341 1000.92 350.82 996.826 348.63C996.043 348.207 995.471 347.519 995.234 346.714C994.997 345.909 995.114 345.052 995.559 344.328C996.809 342.281 998.677 341.317 1001.16 341.434C1012.33 341.978 1023.09 341.94 1033.44 341.322C1036.6 341.141 1039.07 342.175 1040.85 344.424C1041.26 344.936 1041.36 345.496 1041.15 346.103C1039.2 351.892 1029.12 350.453 1024.05 350.309C1023.17 350.277 1022.74 350.666 1022.74 351.476Z" fill="black"/>
<path d="M1223.11 349.633V412.591C1223.12 414.549 1222.17 415.693 1220.26 416.023C1219.68 416.129 1219.11 416.15 1218.56 416.087C1215.87 415.767 1214.53 414.241 1214.53 411.506L1214.5 349.058C1214.5 348.943 1214.48 348.829 1214.43 348.723C1214.39 348.617 1214.32 348.522 1214.24 348.442C1214.16 348.363 1214.06 348.302 1213.96 348.262C1213.86 348.223 1213.74 348.206 1213.63 348.212L1199.85 348.803C1199.36 348.823 1198.88 348.703 1198.45 348.459C1198.03 348.214 1197.68 347.853 1197.45 347.418C1197.21 346.983 1197.11 346.49 1197.14 345.995C1197.17 345.501 1197.33 345.025 1197.61 344.621C1199.18 342.398 1201.36 341.291 1204.18 341.302C1212.22 341.344 1222.93 341.488 1236.31 341.733C1237.7 341.754 1238.36 342.472 1238.28 343.887L1238.13 346.281C1238.06 347.515 1237.41 348.143 1236.18 348.164L1224.27 348.42C1223.49 348.441 1223.11 348.845 1223.11 349.633Z" fill="black"/>
<path d="M915.207 350.246L905.654 350.182C903.065 350.16 901.339 348.899 900.476 346.398C900.307 345.937 900.297 345.486 900.444 345.046C901.086 343.189 902.291 342.181 904.06 342.02C907.575 341.719 911.528 341.719 915.917 342.02C922.675 342.47 929.227 341.826 936.032 341.327C938.864 341.113 940.979 342.245 942.379 344.724C942.675 345.253 942.793 345.865 942.716 346.467C942.639 347.069 942.371 347.627 941.953 348.057C938.843 351.26 931.327 350.278 927.127 350.262C926.38 350.251 925.99 350.632 925.959 351.405C925.317 369.124 924.806 387.004 924.427 405.045C924.406 406.237 924.58 408.549 924.948 411.984C925.012 412.563 924.89 413.105 924.585 413.61C923.427 415.52 921.648 416.341 919.249 416.073C914.243 415.526 914.78 406.671 914.875 403.419C915.37 386.452 915.891 369.167 916.438 351.566C916.47 350.697 916.059 350.257 915.207 350.246Z" fill="black"/>
<path d="M818.18 349.899C815.238 349.715 812.248 349.802 809.209 350.16C807.434 350.366 805.722 350.117 804.074 349.411C801.667 348.369 801.057 345.178 802.919 343.339C804.106 342.166 805.583 341.591 807.348 341.613C818.827 341.765 830.157 341.662 841.337 341.304C841.823 341.288 842.308 341.374 842.76 341.556C843.213 341.738 843.624 342.012 843.968 342.362C845.145 343.566 845.632 344.787 845.429 346.025C845.065 348.304 843.744 349.46 841.465 349.492L831.195 349.655C830.607 349.665 830.045 349.895 829.615 350.301C829.185 350.707 828.919 351.26 828.868 351.853C827.274 370.206 825.99 388.543 825.016 406.864C824.936 408.443 825.466 409.989 826.236 411.243C826.417 411.534 826.539 411.859 826.595 412.198C826.651 412.538 826.64 412.886 826.562 413.222C826.485 413.558 826.342 413.875 826.143 414.156C825.944 414.437 825.692 414.675 825.401 414.857C819.801 418.374 814.938 414.043 815.259 408.215C816.383 387.778 817.672 368.703 819.127 350.99C819.138 350.855 819.122 350.719 819.08 350.59C819.037 350.461 818.97 350.343 818.882 350.241C818.794 350.139 818.686 350.056 818.565 349.998C818.445 349.939 818.314 349.906 818.18 349.899Z" fill="black"/>
<path d="M625.969 350.539C618.539 350.592 611.881 350.673 605.996 350.781C603.999 350.813 602.507 350.016 601.52 348.388C601.261 347.953 601.107 347.473 601.068 346.98C601.03 346.487 601.107 345.992 601.296 345.529C601.485 345.065 601.781 344.643 602.164 344.292C602.547 343.94 603.009 343.666 603.518 343.489C606.193 342.567 609.224 341.662 612.06 341.694C621.582 341.824 632.918 341.694 646.067 341.306C648.266 341.242 649.996 341.861 651.256 343.166C651.865 343.8 652.196 344.616 652.186 345.459C652.176 346.302 651.826 347.114 651.203 347.741C648.171 350.797 643.428 350.102 639.237 350.91C638.571 351.04 638.149 351.401 637.971 351.994C633.62 366.535 628.805 382.967 623.526 401.291C623.122 402.682 622.611 404.089 621.993 405.511C621.915 405.685 621.885 405.872 621.904 406.058C621.924 406.245 621.992 406.424 622.104 406.581C622.216 406.738 622.368 406.868 622.547 406.96C622.727 407.053 622.928 407.105 623.134 407.112C628.359 407.29 633.299 406.077 636.384 411.316C636.717 411.876 636.693 412.426 636.312 412.965C634.529 415.476 631.931 416.49 628.519 416.005C623.597 415.304 618.515 414.884 613.272 414.744C609.01 414.63 608.208 410.944 609.741 408.001C610.918 405.738 611.875 403.307 612.612 400.709C617.308 384.293 622.117 367.99 627.039 351.8C627.289 350.948 626.932 350.528 625.969 350.539Z" fill="black"/>
<path d="M719.888 350.224C714.845 350.17 709.491 350.311 703.826 350.648C699.064 350.925 696.189 345.592 700.291 343.048C701.976 342.005 703.875 341.488 705.987 341.499C717.72 341.564 730.18 341.499 743.367 341.303C746.297 341.254 749.246 342.347 749.447 345.266C749.502 346.145 749.207 347.013 748.613 347.715C748.019 348.417 747.166 348.907 746.206 349.099C742.176 349.914 738.3 350.224 734.576 350.028C733.947 349.997 733.327 350.174 732.834 350.526C732.341 350.878 732.009 351.38 731.902 351.936L721.921 405.95C721.786 406.689 722.11 407.206 722.891 407.499C725.876 408.625 729.759 410.141 728.569 413.762C728.371 414.359 727.971 414.888 727.424 415.276C726.877 415.664 726.208 415.893 725.51 415.931C720.455 416.224 709.119 417.105 710.328 409.668C713.673 389.152 717.214 369.718 720.95 351.366C720.976 351.227 720.969 351.085 720.928 350.949C720.887 350.813 720.813 350.686 720.713 350.578C720.612 350.47 720.486 350.382 720.343 350.321C720.201 350.26 720.046 350.227 719.888 350.224Z" fill="black"/>
<path d="M529.106 350.206C521.313 349.919 513.426 349.991 505.444 350.421C501.945 350.619 500.148 349.13 500.053 345.953C500.033 345.17 500.297 344.404 500.804 343.777C501.31 343.15 502.03 342.698 502.846 342.494C505.503 341.821 508.166 341.468 510.834 341.435C520.88 341.314 531.472 341.275 542.609 341.319C544.531 341.33 546.316 341.717 547.964 342.478C548.75 342.84 549.362 343.46 549.684 344.218C550.007 344.976 550.015 345.818 549.708 346.582C548.498 349.577 545.74 349.527 542.841 350.09C542.129 350.233 541.643 350.619 541.382 351.248L518.342 406.27C518.291 406.4 518.274 406.54 518.291 406.678C518.308 406.816 518.36 406.947 518.441 407.062C518.523 407.177 518.632 407.271 518.76 407.338C518.889 407.404 519.032 407.441 519.178 407.445L536.044 407.925C536.839 407.946 537.603 408.214 538.215 408.686C539.721 409.833 540.391 411.008 540.225 412.211C539.834 414.925 538.167 416.226 535.226 416.116C527.244 415.807 519.249 415.669 511.243 415.702C508.919 415.713 506.873 415.029 505.105 413.65C504.495 413.179 504.09 412.517 503.966 411.787C503.842 411.056 504.006 410.307 504.429 409.679C506.232 407.009 507.768 404.196 509.037 401.239C516.011 384.901 522.992 368.304 529.978 351.447C530.298 350.652 530.007 350.239 529.106 350.206Z" fill="black"/>
<path d="M414.705 406.298C414.277 407.145 414.549 407.575 415.52 407.586L438.733 408.021C441.787 408.077 443.18 409.566 442.914 412.488L442.862 413.006C442.788 413.854 442.387 414.644 441.738 415.22C441.089 415.797 440.24 416.117 439.358 416.118C429.052 416.129 418.117 416.118 406.551 416.085C402.613 416.068 398.501 412.839 401.19 408.757C402.636 406.571 403.867 404.519 404.885 402.6C414.115 385.324 423.05 368.148 431.689 351.072C432.048 350.369 431.822 350.001 431.013 349.968C422.049 349.588 412.727 349.633 403.046 350.101C401.034 350.202 399.744 349.321 399.177 347.458C399.062 347.079 399.021 346.689 399.056 346.287C399.253 343.822 400.606 342.367 403.116 341.92C405.787 341.441 408.303 341.24 410.662 341.318C420.979 341.653 431.689 341.775 442.793 341.686C444.447 341.675 445.8 342.289 446.852 343.527C447.19 343.916 447.433 344.372 447.565 344.863C447.696 345.355 447.713 345.869 447.613 346.368C447.514 346.867 447.301 347.339 446.989 347.751C446.677 348.162 446.275 348.502 445.812 348.746C444.493 349.438 443.533 350.364 442.932 351.524C433.274 370.205 423.865 388.463 414.705 406.298Z" fill="black"/>
<path d="M13.7869 407.611C13.3039 408.417 13.5396 408.82 14.4943 408.82L49.9837 408.803C50.098 408.803 50.2087 408.82 50.3115 408.854C55.8209 410.715 56.2868 412.968 51.709 415.612C51.2918 415.867 50.8077 416.003 50.3115 416.003L3.31438 416.122C2.76145 416.126 2.21661 415.991 1.73003 415.732C1.24345 415.473 0.830785 415.097 0.530043 414.64C0.229301 414.182 0.0501523 413.657 0.00909684 413.113C-0.0319586 412.569 0.0663996 412.023 0.295112 411.526C2.50349 406.726 4.09077 402.198 7.12729 397.824C18.1232 382.004 29.2053 366.168 40.3738 350.315C40.4219 350.248 40.4501 350.169 40.4552 350.087C40.4604 350.004 40.4422 349.923 40.4028 349.85C40.3634 349.778 40.3043 349.717 40.2321 349.676C40.1599 349.635 40.0775 349.614 39.9942 349.617L5.4365 349.634C4.61796 349.634 3.82052 349.378 3.15911 348.902C1.08875 347.404 0.295111 346.144 0.778195 345.123C1.66385 343.262 3.31438 342.337 5.7298 342.348C17.5308 342.36 29.4814 342.326 41.5815 342.246C44.4685 342.224 47.574 341.934 50.8981 341.378C53.026 341.026 54.3257 341.889 54.7973 343.966C54.9813 344.76 54.8088 345.475 54.2797 346.11C50.691 350.315 50.0527 355.592 46.7574 360.205C36.9347 373.947 27.112 387.917 17.2893 402.113C16.0816 403.838 14.9141 405.671 13.7869 407.611Z" fill="black"/>
<path d="M138.956 350.15L106.166 349.948C105.379 349.947 104.605 349.75 103.921 349.374C100.811 347.686 99.6102 346.178 100.318 344.851C101.455 342.69 102.621 341.593 103.816 341.56C119.759 341.2 134.581 341.217 148.284 341.61C149.056 341.634 149.81 341.838 150.484 342.203C151.158 342.569 151.731 343.086 152.156 343.711C152.581 344.336 152.844 345.051 152.925 345.796C153.005 346.54 152.9 347.293 152.618 347.99C151.249 351.354 149.34 354.69 146.892 357.998C134.929 374.189 123.286 390.244 111.961 406.165C111.66 406.581 111.689 406.975 112.049 407.346C112.153 407.459 112.42 407.51 112.849 407.498C123.651 407.206 135.544 407.054 148.528 407.043C150.941 407.043 152.537 408.455 153.314 411.279C153.442 411.695 153.39 412.111 153.158 412.528C151.881 414.902 149.99 416.089 147.484 416.089C134.303 416.111 119.712 416.122 103.712 416.122C100.388 416.122 97.3941 413.844 98.9256 410.232C100.701 406.047 102.389 402.013 105.087 398.3C117.073 381.862 128.542 366.155 139.495 351.18C139.982 350.504 139.803 350.161 138.956 350.15Z" fill="black"/>
<path d="M215.129 407.567L246.749 407.095C247.338 407.084 247.923 407.255 248.423 407.584C251.077 409.338 252.21 410.996 251.823 412.559C251.23 414.876 249.727 416.045 247.313 416.067C233.977 416.146 219.941 416.14 205.204 416.05C200.318 416.017 199.942 411.328 201.804 407.972C203.057 405.723 204.338 403.547 205.648 401.445C215.681 385.321 226.614 368.641 238.447 351.404C239.062 350.505 238.817 350.038 237.712 350.004C226.996 349.757 216.843 349.751 207.254 349.988C204.657 350.055 202.772 348.936 201.599 346.631C200.984 345.451 202.123 343.888 205.016 341.943C205.651 341.525 206.388 341.302 207.134 341.302L247.005 341.42C247.807 341.423 248.596 341.626 249.299 342.008C250.001 342.39 250.595 342.94 251.026 343.607C251.456 344.274 251.709 345.036 251.762 345.824C251.815 346.612 251.665 347.4 251.327 348.115C249.812 351.32 248.247 354.165 246.629 356.649C236.152 372.694 225.373 389.167 214.292 406.066C213.62 407.089 213.899 407.59 215.129 407.567Z" fill="black"/>
<path d="M333.08 349.729C324.032 349.426 314.78 349.437 305.322 349.763C302.404 349.853 300.877 348.505 300.74 345.718C300.719 345.437 300.767 345.156 300.882 344.875C301.827 342.493 303.391 341.302 305.574 341.302L341.661 341.336C342.295 341.337 342.919 341.509 343.474 341.836C344.029 342.163 344.498 342.635 344.838 343.206C345.177 343.778 345.375 344.432 345.414 345.106C345.454 345.781 345.332 346.455 345.062 347.066C343.729 350.123 342.364 352.949 340.968 355.544C331.322 373.467 322.127 390.424 313.384 406.414C313.313 406.54 313.276 406.684 313.276 406.831C313.275 406.978 313.311 407.123 313.38 407.25C313.449 407.377 313.548 407.482 313.668 407.555C313.788 407.627 313.923 407.664 314.061 407.661C323.57 407.403 332.681 407.487 341.394 407.914C341.811 407.935 342.22 408.046 342.597 408.241C342.973 408.437 343.309 408.712 343.584 409.05C343.859 409.389 344.067 409.783 344.197 410.211C344.327 410.638 344.374 411.09 344.338 411.538L344.306 411.993C344.075 414.757 342.664 416.134 340.071 416.122L304.629 416.055C303.909 416.056 303.201 415.854 302.576 415.468C301.952 415.082 301.434 414.527 301.075 413.858C300.715 413.19 300.527 412.431 300.529 411.66C300.531 410.888 300.724 410.131 301.087 409.465L333.301 350.168C333.322 350.122 333.334 350.072 333.333 350.021C333.333 349.97 333.322 349.92 333.3 349.877C333.278 349.833 333.246 349.797 333.208 349.771C333.169 349.745 333.125 349.731 333.08 349.729Z" fill="black"/>
</svg>
