<svg width="30" height="42" viewBox="0 0 30 42" fill="none" xmlns="http://www.w3.org/2000/svg">
<path d="M28.3812 29.2472C27.5765 32.5148 25.11 34.9428 23.1605 37.5324C22.7766 38.0447 22.2772 38.4192 21.6623 38.656C17.9332 40.0982 13.9621 41.1853 9.74886 41.9171C8.83731 42.0721 7.92358 42.0097 7.00767 41.7299C5.52258 41.2778 4.2403 41.4457 2.68979 40.7031C0.64425 39.7172 -0.234591 38.0361 0.0532673 35.6596C1.18289 26.2745 2.3147 16.9044 3.44869 7.54938C3.55337 6.70343 4.08983 5.8381 3.80197 5.01151C2.80755 2.11848 4.82256 -0.0319296 7.83853 0.000358814C11.8773 0.0391049 16.0229 0.112292 20.2753 0.21992C20.6649 0.228418 21.0426 0.340036 21.3679 0.542804C23.2041 1.70088 25.0577 2.95152 26.9288 4.29471C27.8272 4.94048 28.403 5.80581 28.6559 6.8907C29.9687 12.5003 30.3198 17.6707 29.7092 22.402C29.4475 24.447 29.0049 26.7287 28.3812 29.2472ZM20.4062 27.7361C21.7408 24.4556 22.3078 20.4066 22.1072 15.5892C22.0352 13.8973 21.6427 12.1214 21.0604 10.5522C20.7158 9.6266 19.837 8.62351 18.4239 7.54293C18.2145 7.38364 17.979 7.30614 17.7173 7.31045L11.9994 7.38794C11.7508 7.39225 11.6134 7.51494 11.5872 7.75603L8.76099 34.3939C8.72173 34.7556 8.88747 34.9278 9.2582 34.9106C10.9461 34.8395 12.7845 34.8654 14.3153 34C17.3858 32.2521 19.4161 30.1642 20.4062 27.7361Z" fill="black"/>
</svg>
