<svg width="37" height="34" viewBox="0 0 37 34" fill="none" xmlns="http://www.w3.org/2000/svg">
<path d="M2.73803 5.4444C0.165006 3.631 1.30232 -0.143147 4.60728 0.00419174C11.4612 0.29887 17.9566 0.563324 24.0936 0.797556C24.6393 0.819929 25.1698 0.988116 25.6307 1.28491C27.9954 2.82252 30.437 4.4187 32.9556 6.07343C33.6463 6.53056 34.1305 7.11991 34.4082 7.8415C35.1439 9.76824 35.8984 11.8442 36.6716 14.0694C36.9681 14.9194 37.0638 15.8318 36.9587 16.8065C36.711 19.1413 36.4351 21.3362 36.1311 23.3914C36.0465 23.9508 35.8087 24.4765 35.4442 24.9102L31.1314 30.0217C30.6179 30.6347 29.9314 31.0789 29.1608 31.2967C27.0063 31.8974 24.7336 32.534 22.3426 33.2065C20.7586 33.6561 19.0526 33.8846 17.2247 33.8922C12.7055 33.9186 8.45651 33.9545 4.4778 33.9999C2.47906 34.0225 -0.251643 31.4668 0.0186093 29.336C1.00953 21.5573 2.00985 13.8068 3.01955 6.08476C3.05333 5.81275 2.95949 5.5993 2.73803 5.4444ZM30.3826 14.4548C29.8308 12.936 29.5437 10.947 28.153 10.0346C26.7717 9.12788 25.3585 8.17962 23.9134 7.18981C23.325 6.78647 22.6336 6.5604 21.9203 6.53811L9.17341 6.1131C8.97072 6.10554 8.85813 6.20377 8.83561 6.40777L6.23443 27.6359C6.22971 27.6788 6.23368 27.7221 6.24612 27.7632C6.25856 27.8043 6.27919 27.8423 6.3067 27.8748C6.33421 27.9072 6.368 27.9335 6.40595 27.9519C6.4439 27.9703 6.48518 27.9804 6.52718 27.9816L18.5759 28.4633C18.7657 28.4708 18.9567 28.442 19.139 28.3783C21.2409 27.6756 23.326 27.0088 25.3942 26.3779C27.331 25.7885 28.4064 24.0488 29.6112 22.5187C30.6697 21.1643 30.5064 19.0166 30.7711 17.3335C30.9024 16.4986 30.7729 15.539 30.3826 14.4548Z" fill="black"/>
</svg>
