<svg width="41" height="54" viewBox="0 0 41 54" fill="none" xmlns="http://www.w3.org/2000/svg">
<path d="M9.18259 0.00740729C14.6345 0.269295 20.053 0.62411 25.5799 0.674798C26.8025 0.691694 27.9001 1.00708 28.8727 1.62097C31.6458 3.37815 34.1189 5.00579 36.2919 6.5039C37.1936 7.12797 37.8629 8.04121 38.1925 9.09743C38.8428 11.2207 39.4791 13.2961 40.1015 15.3236C40.6739 17.199 40.9713 19.2603 40.9935 21.5075C41.038 25.8216 40.8546 28.9305 40.4433 30.8341C39.8653 33.4755 39.0067 36.4154 37.8674 39.6538C36.5086 43.4976 33.1658 46.1587 30.5899 48.9719C29.7452 49.8899 28.5114 50.6136 26.8887 51.143C22.1481 52.6862 18.6636 53.5169 16.4351 53.6352C13.3396 53.7985 10.1079 53.9196 6.74008 53.9984C3.57233 54.0745 0.77137 51.388 0.137819 48.6086C-0.0789218 47.6737 -0.0400201 46.1165 0.254525 43.9369C1.68835 33.2812 3.21943 21.7638 4.84776 9.38466C4.90334 8.99042 4.83109 8.62153 4.63103 8.27798C2.936 5.33808 3.34725 2.90788 5.86478 0.987372C6.79843 0.27211 7.90438 -0.0545445 9.18259 0.00740729ZM17.9606 44.4184C19.5612 43.9453 21.7536 42.8217 23.1707 41.977C24.3433 41.273 25.6355 40.0621 27.047 38.3443C28.1196 37.0377 28.906 35.5227 29.4062 33.7993C30.7233 29.2374 31.1318 24.7149 30.6316 20.2319C30.4593 18.7225 30.0981 17.0864 29.5479 15.3236C28.8893 13.2031 27.3805 12.4935 25.8133 11.2432C24.8908 10.5111 23.7959 10.1675 22.5288 10.2126C20.2169 10.2914 17.9828 10.2914 15.8265 10.2126C15.553 10.2041 15.2864 10.2993 15.0796 10.4792C14.8727 10.6591 14.7406 10.9107 14.7095 11.1841L10.8582 43.6412C10.797 44.1425 11.0165 44.4043 11.5167 44.4269C13.459 44.5282 16.0766 44.976 17.9606 44.4184Z" fill="black"/>
</svg>
