<svg width="55" height="67" viewBox="0 0 55 67" fill="none" xmlns="http://www.w3.org/2000/svg">
<path d="M6.19067 10.5512C2.33047 6.38193 5.01536 -0.0941987 10.7625 0.00103859C18.4901 0.128022 26.5879 0.463114 35.0559 1.00632C36.4935 1.10508 37.8773 1.54952 39.2072 2.33964C42.5498 4.34315 45.6516 6.24084 48.5126 8.03271C49.8784 8.89338 50.8201 10.1456 51.3377 11.7893C52.8257 16.5829 55.1439 21.3448 54.993 26.4347C54.8312 31.6515 55.4998 36.678 53.5697 41.7784C52.1033 45.6514 50.874 51.3762 47.9088 54.1805C44.9328 56.9952 42.0215 59.6019 39.1748 62.0005C38.4439 62.6204 37.5851 63.069 36.6625 63.3126C31.0016 64.8259 25.2113 66.593 19.3563 66.6989C15.7836 66.7623 12.1643 66.8611 8.49815 66.9951C3.31169 67.1856 -0.645528 61.7359 0.0876927 56.8577C2.35924 41.8314 4.53014 26.8262 6.60041 11.8422C6.66511 11.3484 6.52852 10.918 6.19067 10.5512ZM25.3623 54.6143C29.1937 53.4785 32.5255 51.6161 35.3578 49.0271C37.3633 47.1929 38.7543 45.2846 39.5307 43.3022C40.5227 40.7837 41.1984 38.4522 41.5578 36.3076C41.9532 33.9443 42.1185 30.8685 42.0538 27.0802C42.0107 24.149 41.0079 21.9268 40.1776 19.2813C39.3258 16.5935 36.6409 15.5776 34.5814 13.948C33.6254 13.1932 32.5111 12.8122 31.2388 12.8052C27.1198 12.791 23.3675 12.7452 19.9817 12.6676C19.5935 12.6605 19.3743 12.8475 19.324 13.2284L13.9973 53.8842C13.9839 53.9921 13.9925 54.1016 14.0229 54.2061C14.0532 54.3107 14.1045 54.4083 14.1738 54.4931C14.2432 54.5779 14.3291 54.6482 14.4266 54.7C14.524 54.7517 14.631 54.7837 14.7413 54.7942C17.1063 55.0411 19.3635 55.2245 21.5128 55.3445C22.2892 55.3938 23.5723 55.1505 25.3623 54.6143Z" fill="black"/>
</svg>
