<svg width="58" height="70" viewBox="0 0 58 70" fill="none" xmlns="http://www.w3.org/2000/svg">
<path d="M5.53569 11.6786C0.138514 7.14146 3.66232 -0.435248 10.5092 0.0195765C18.6644 0.559449 26.8531 0.866363 35.0752 0.940319C36.4729 0.95511 37.7478 1.26572 38.9001 1.87215C42.6395 3.83197 46.4941 6.02474 50.4639 8.45047C51.9433 9.35272 52.9543 10.5397 53.497 12.0114C54.5229 14.7551 55.5488 17.51 56.5748 20.2759C57.6007 23.0492 58.0727 25.7893 57.9909 28.496C57.9092 31.5282 57.82 34.5234 57.7233 37.4816C57.5449 42.8729 54.3222 48.7191 52.3596 53.7776C51.8392 55.1088 51.0029 56.244 49.8506 57.1832C46.6093 59.7939 43.3792 62.3231 40.1602 64.7711C39.0693 65.6011 37.7938 66.1498 36.4468 66.3685C29.0127 67.5444 21.3109 68.7018 13.3415 69.8407C11.0295 70.1735 8.42757 69.9849 5.53569 69.2749C1.53241 68.2876 -0.407888 65.3701 0.0716134 61.4764C1.92271 46.2416 3.91877 30.0972 6.0598 13.0431C6.09447 12.791 6.06466 12.534 5.97309 12.2956C5.88153 12.0573 5.73113 11.8451 5.53569 11.6786ZM44.0631 38.9681C44.3437 38.2192 44.4945 37.4277 44.5091 36.6274C44.5538 33.2624 44.6058 30.1009 44.6652 27.1426C44.6876 26.2552 43.8661 23.8812 42.2008 20.0208C41.03 17.3251 38.0303 16.2269 35.7555 14.5185C34.6329 13.6828 33.2093 13.2576 31.4846 13.2428C27.2545 13.2132 23.3405 13.1503 19.7423 13.0542C19.326 13.0394 19.0956 13.2391 19.051 13.6532L14.3006 56.6397C14.2113 57.4236 14.557 57.7379 15.3376 57.5826C19.7386 56.6804 24.3738 55.8816 29.2432 55.1865C31.4734 54.8685 33.2018 54.2509 34.4285 53.3339C37.4616 51.093 40.7623 48.7524 42.0001 44.9141C42.6543 42.8951 43.342 40.9131 44.0631 38.9681Z" fill="black"/>
</svg>
