<svg width="95" height="110" viewBox="0 0 95 110" fill="none" xmlns="http://www.w3.org/2000/svg">
<path d="M10.1034 20.8529C10.1505 20.4832 10.0928 20.1082 9.93721 19.7713C9.78157 19.4344 9.5343 19.1495 9.22401 18.9494C0.412021 13.3446 3.40209 -0.209054 13.9202 0.00244721C29.0583 0.307949 44.4192 0.877829 60.0028 1.71208C61.4361 1.79302 62.828 2.20963 64.0658 2.92821C70.1398 6.48848 76.3897 10.2309 82.8155 14.1554C84.9144 15.4479 86.3919 17.1517 87.2479 19.2667C89.2178 24.1782 91.1878 29.1191 93.1577 34.0894C96.2885 41.9502 94.4769 52.1022 94.4944 60.527C94.4944 63.8288 93.7206 67.1717 92.1728 70.5557C89.8041 75.7492 87.5879 80.7077 85.5242 85.4313C84.293 88.263 82.282 90.6189 79.4912 92.4989C74.5898 95.7889 69.6474 99.0907 64.6639 102.404C62.4196 103.9 59.8558 104.859 57.171 105.207C45.1051 106.746 32.9219 108.279 20.6215 109.807C12.302 110.829 -1.38202 107.991 0.113025 96.5703C3.43144 71.1079 6.76158 45.8688 10.1034 20.8529ZM64.8925 78.3812C69.3601 75.0148 73.6869 63.0121 74.0211 57.5484C74.3729 52.0141 74.3025 46.9733 73.8101 42.426C73.5052 39.5825 72.1098 35.517 69.6239 30.2295C69.3712 29.6888 68.9686 29.2303 68.463 28.9076L57.646 22.1043C56.7361 21.5389 55.6974 21.2285 54.6383 21.2054L31.509 20.8353C31.1931 20.829 30.8863 20.9411 30.6488 21.1498C30.4112 21.3585 30.2601 21.6487 30.225 21.9633L22.2221 88.9386C22.0697 90.1842 22.615 90.7247 23.8579 90.5602C32.453 89.4674 41.177 88.2983 50.03 87.0528C56.2036 86.1715 60.2139 81.9062 64.8925 78.3812Z" fill="black"/>
</svg>
