<svg width="128" height="135" viewBox="0 0 128 135" fill="none" xmlns="http://www.w3.org/2000/svg">
<path d="M12.0064 23.6342C11.1426 23.1394 10.2569 22.6445 9.34925 22.1497C0.960873 17.5871 1.83924 4.31416 10.9962 1.01775C13.1043 0.260961 15.6296 -0.0737721 18.5721 0.01355C39.9456 0.624805 60.7044 1.43254 80.8482 2.43674C82.8977 2.53862 84.8081 3.10621 86.5795 4.13952L112.491 19.4864C114.56 20.706 116.183 22.5573 117.125 24.7694C120.375 32.4246 123.5 40.2399 126.501 48.2154C127.848 51.7956 128.287 55.4777 127.819 59.2616C127.013 65.7817 126.582 72.4764 126.523 79.3457C126.494 82.6348 125.711 85.6766 124.173 88.4709C119.943 96.1989 115.661 103.57 111.327 110.585C109.819 113.016 107.638 114.944 104.784 116.37C96.6294 120.46 88.6582 124.418 80.8701 128.246C78.6643 129.328 76.2743 129.994 73.8213 130.211C56.049 131.783 39.3528 133.347 23.7326 134.904C18.4624 135.428 12.731 133.798 6.53856 130.014C0.390006 126.26 -0.664069 121.631 0.324091 115.082C4.95014 84.3013 9.21757 54.5899 13.1263 25.9482C13.2727 24.9295 12.8994 24.1581 12.0064 23.6342ZM88.0068 98.4911C93.6942 95.5003 96.8344 87.0737 99.5573 81.5943C102.346 75.9838 101.687 69.1509 102.258 63.0165C103.027 54.5462 99.2279 46.7746 96.1097 39.4832C95.724 38.5746 95.0634 37.811 94.2212 37.3001C87.6774 33.4579 79.4428 26.4285 71.6474 26.0792C60.9752 25.6135 50.281 25.206 39.565 24.8567C38.4817 24.8276 37.8669 25.3442 37.7205 26.4067L26.741 108.97C26.6385 109.756 26.9898 110.141 27.795 110.127C40.0335 109.894 53.3115 109.152 67.6288 107.9C74.524 107.289 82.0119 101.657 88.0068 98.4911Z" fill="black"/>
</svg>
