<svg width="96" height="99" viewBox="0 0 96 99" fill="none" xmlns="http://www.w3.org/2000/svg">
<path d="M8.56974 17.3589C-1.68676 13.1678 1.18445 -0.063999 12.3821 0.00023304C15.0193 0.0109384 17.6725 0.101934 20.3416 0.273219C34.3891 1.14035 47.9049 1.69703 60.889 1.94325C62.154 1.96434 63.3914 2.31867 64.478 2.97096C70.7308 6.69642 77.4781 10.7966 84.7198 15.2714C86.6233 16.4383 88.0217 18.2421 88.915 20.6829C90.7866 25.8001 92.7113 30.7085 94.6892 35.4081C95.6676 37.7419 96.0982 40.1666 95.9813 42.6824C95.7048 48.8915 95.2529 54.8704 94.6255 60.6192C94.3277 63.4026 93.4716 65.8755 92.0573 68.038C89.4626 72.0204 86.7775 76.2704 84.002 80.788C82.3219 83.5286 80.2535 85.4395 77.7971 86.5207C71.9377 89.09 65.7435 91.7663 59.2142 94.5497C57.25 95.3788 55.1692 95.8727 53.0571 96.011C41.3916 96.7818 29.2369 97.756 16.593 98.9336C14.0834 99.1691 11.7387 98.7783 9.55869 97.7613C4.47032 95.4008 -0.793499 91.9162 0.0997573 85.5251C3.17299 63.4615 6.33662 41.3496 9.59063 19.1895C9.72887 18.3117 9.38856 17.7015 8.56974 17.3589ZM70.8744 68.8569C72.5811 65.9023 76.1541 60.9564 76.537 57.6003C77.191 51.6909 78.6266 44.3364 76.3775 38.5234C75.2609 35.6436 74.2241 32.8335 73.267 30.0929C72.9893 29.2734 72.4368 28.5754 71.7038 28.1178C67.7798 25.6234 63.723 23.0488 59.5332 20.3939C58.2359 19.5696 56.7205 19.1414 54.9871 19.1092C45.5229 18.9594 36.6488 18.5954 28.3649 18.0173C28.0726 17.9941 27.7826 18.0843 27.5542 18.2694C27.3259 18.4545 27.1766 18.7205 27.1367 19.0129L18.9697 79.8246C18.9584 79.9154 18.9665 80.0076 18.9934 80.0951C19.0203 80.1825 19.0655 80.2632 19.1259 80.3316C19.1863 80.4 19.2606 80.4547 19.3437 80.4918C19.4268 80.529 19.5169 80.5479 19.6078 80.5472L49.4682 80.0333C51.3459 80.0018 53.1919 79.529 54.8595 78.6523C59.4215 76.2757 68.3063 73.3211 70.8744 68.8569Z" fill="black"/>
</svg>
