<svg width="72" height="70" viewBox="0 0 72 70" fill="none" xmlns="http://www.w3.org/2000/svg">
<path d="M6.2134 12.0499C-0.869892 9.55292 1.18546 -0.389101 8.93063 0.0117865C20.9993 0.645571 32.4332 1.04646 43.2323 1.21445C45.6244 1.24881 48.0513 1.60388 50.0718 2.86382C54.5772 5.68149 58.9782 8.38461 63.2746 10.9732C64.9544 11.9888 66.1272 13.3633 66.793 15.0966C68.2406 18.8535 69.665 22.5188 71.0662 26.0924C71.8171 28.0014 72.1151 29.9829 71.9603 32.037C71.6119 36.756 71.2017 41.2498 70.7294 45.5183C70.6133 46.5262 70.2611 47.4502 69.6728 48.2901C66.9478 52.1539 64.3042 55.8536 61.7418 59.389C60.8283 60.6489 59.6865 61.5347 58.3162 62.0463C54.3604 63.5201 49.9905 65.1465 45.2064 66.9257C42.5666 67.9107 39.8804 68.4567 37.1477 68.5636C28.7716 68.892 20.38 69.3577 11.973 69.961C9.94474 70.1061 8.23386 69.8465 6.84042 69.1821C3.38006 67.5328 -0.579568 64.6693 0.0707017 60.2366C2.46276 44.0484 4.75417 28.3832 6.94496 13.2411C7.03011 12.6531 6.78626 12.256 6.2134 12.0499ZM42.0015 55.8497C45.485 54.1087 51.14 52.8259 53.2766 49.8479C55.6339 46.5606 58.4091 43.216 58.6065 38.8865C58.7575 35.4732 59.6864 32.0026 58.3627 28.681C57.4492 26.4131 56.6247 24.2101 55.8893 22.0721C55.6339 21.3385 55.1338 20.7158 54.4727 20.3082L44.1961 13.9398C43.8478 13.7183 43.4645 13.6 43.0465 13.5847L20.0665 12.8746C19.7181 12.8593 19.5207 13.0273 19.4742 13.3785L13.5289 56.5255C13.5189 56.5987 13.525 56.6732 13.5468 56.7439C13.5685 56.8146 13.6054 56.8799 13.655 56.9353C13.7046 56.9907 13.7656 57.0349 13.834 57.065C13.9024 57.0951 13.9766 57.1103 14.0515 57.1097C21.4831 57.0333 28.8799 57.0371 36.2419 57.1211C38.3243 57.144 40.2442 56.7202 42.0015 55.8497Z" fill="black"/>
</svg>
