<svg width="53" height="51" viewBox="0 0 53 51" fill="none" xmlns="http://www.w3.org/2000/svg">
<path d="M4.59862 8.78615C2.61624 7.80848 1.59195 6.40098 1.52568 4.56363C1.38487 0.67824 4.34188 -0.114008 7.68818 0.0124145C16.9264 0.366398 25.2728 0.711953 32.7275 1.04908C34.1107 1.10808 35.2289 1.04065 36.4714 1.84133C40.0109 4.13379 43.5698 6.44593 47.148 8.77772C47.9556 9.30375 48.5788 10.0735 48.9289 10.9775C50.0443 13.8712 51.1984 16.8856 52.3911 20.0209C52.9267 21.4256 53.109 22.7882 52.9378 24.1086C52.5513 27.0584 52.2116 30.1516 51.919 33.388C51.8269 34.4187 51.4542 35.4049 50.8422 36.2367C48.893 38.8832 46.8913 41.5015 44.8371 44.0918C44.1303 44.9852 43.2799 45.6117 42.2859 45.9713C39.2378 47.0669 35.8639 48.23 32.1642 49.4605C30.1598 50.1292 28.0283 50.4804 25.7698 50.5141C19.8613 50.604 13.8396 50.7641 7.70471 50.9945C4.78912 51.104 2.82606 49.5701 1.02039 47.5473C-0.304883 46.064 -0.0481039 44.1002 0.200384 42.2882C1.61953 32.0395 3.00832 21.7852 4.36672 11.5253C4.46612 10.8061 4.62899 10.1038 4.85539 9.41826C4.95478 9.13171 4.86919 8.921 4.59862 8.78615ZM31.9075 40.5014C34.6325 39.4479 38.0285 38.8663 39.8176 36.2536C41.3168 34.0707 43.2965 31.9974 43.3131 29.1486C43.3296 26.1313 43.9757 23.5439 42.8243 20.6109C42.3163 19.3129 41.8828 18.0122 41.5239 16.7086C41.3422 16.0404 40.9298 15.4649 40.3643 15.0904L33.3901 10.4381C32.7237 9.99708 31.9526 9.75207 31.162 9.73011L13.685 9.23284C13.6358 9.23048 13.5877 9.24759 13.5506 9.28059C13.5135 9.31359 13.4905 9.35991 13.4862 9.40984L9.3613 41.2262C9.32265 41.5465 9.46069 41.7066 9.77545 41.7066C14.7286 41.701 19.9579 41.7881 25.4633 41.9679C27.8074 42.0438 29.7539 41.3358 31.9075 40.5014Z" fill="black"/>
</svg>
