<svg width="73" height="84" viewBox="0 0 73 84" fill="none" xmlns="http://www.w3.org/2000/svg">
<path d="M25.0021 43.5497C24.4729 43.665 24.001 43.9644 23.6696 44.395C23.3381 44.8257 23.1682 45.3601 23.1899 45.9042C23.4456 51.4559 23.2913 57.0431 22.7269 62.6657C22.0787 69.0776 22.7401 74.5717 29.4336 77.1657C31.9602 78.1368 34.2487 77.9772 36.8282 78.2299C38.6713 78.4162 39.4209 79.4227 39.077 81.2497C39.0152 81.6133 38.8829 81.9281 38.6801 82.1941C38.164 82.8996 37.4386 83.424 36.6058 83.6936C35.773 83.9633 34.8747 83.9646 34.037 83.6974C25.0771 80.7974 16.0907 80.7442 7.07788 83.5377C4.68357 84.2827 0.847389 84.2827 0.424086 81.0102C0.337808 80.3635 0.510419 79.7085 0.90434 79.1878C1.29826 78.6671 1.88161 78.3228 2.52739 78.2299C4.71005 77.9373 7.02497 78.3896 9.16794 77.6446C14.2829 75.8886 16.7786 71.9732 16.6551 65.8983C16.3729 51.6909 16.3685 34.6146 16.6419 14.6694C16.6948 10.9801 15.275 8.33285 12.3824 6.72765C10.332 5.59692 7.85835 5.94279 5.59633 5.71664C4.99365 5.65286 4.43913 5.35524 4.04935 4.88637C3.65958 4.41749 3.4649 3.81387 3.50626 3.20242L3.58563 2.19142C3.70027 0.541875 4.57335 -0.154303 6.20483 0.102884C19.896 2.29784 32.5687 0.701507 45.6911 0.102884C48.8923 -0.0390123 52.2082 0.0984495 55.6387 0.515269C65.7715 1.73912 68.7743 6.63453 72.6237 14.9887C72.8618 15.5119 72.7869 15.9864 72.3989 16.4121C68.0865 21.241 64.6736 13.4721 62.2792 11.1974C57.9051 7.05579 52.4728 5.17123 45.9821 5.54371C40.2234 5.87184 34.6455 6.25319 29.2484 6.68774C26.0339 6.9405 23.838 10.04 23.3354 12.9932C22.2859 19.0682 21.9905 24.8549 22.4491 30.3533C22.8062 34.7033 26.8541 36.5657 30.6903 36.8584C35.6024 37.222 40.585 37.2885 45.6382 37.0579C51.5512 36.7919 51.3792 32.5749 52.0539 28.1451C52.118 27.7344 52.2932 27.3481 52.5611 27.0273C52.8289 26.7064 53.1793 26.4629 53.5751 26.3226C57.0409 25.0854 60.3612 28.3579 58.7473 31.9231C57.4951 34.7078 57.3628 37.6565 58.3505 40.7694C59.4352 44.1572 59.6292 47.8908 58.9325 51.9703C58.8531 52.4403 58.6151 52.8084 58.2182 53.0744C55.2948 55.0565 52.5565 52.7818 52.1332 49.7886C51.6835 46.5029 50.7575 42.685 46.6038 42.6052C41.2596 42.5076 35.6641 42.481 29.8172 42.5253C28.124 42.5387 26.6424 43.1905 25.0021 43.5497Z" fill="#020202"/>
</svg>
