<svg width="69" height="85" viewBox="0 0 69 85" fill="none" xmlns="http://www.w3.org/2000/svg">
<path d="M2.55711 0H4.65546C9.08971 1.20141 13.6119 1.72702 18.2221 1.57685C24.8383 1.37367 31.4545 0.848051 38.0707 0H50.2649C51.611 0.362189 52.9923 0.640455 54.4088 0.8348C61.6541 1.80211 66.471 5.51233 68.2526 12.9195C68.9521 15.8745 68.345 21.9698 64.1615 22.0493C59.9516 22.1156 61.0206 18.0873 60.8886 15.4239C60.651 10.9717 58.192 8.54235 53.5114 8.13599C45.3115 7.42928 37.3053 7.31003 29.4925 7.77822C14.3554 8.69253 19.4627 24.3815 20.7428 33.5775C20.8044 34.0192 20.9935 34.3902 21.3103 34.6906C24.8339 38.0563 30.2844 37.831 34.7714 37.1552C38.0575 36.6517 41.1456 37.1155 44.3921 37.4468C47.2603 37.756 48.7824 35.4238 48.9584 30.4503C48.9727 30.0977 49.0588 29.7517 49.2115 29.4337C49.3642 29.1157 49.5801 28.8326 49.8459 28.6016C50.1118 28.3707 50.422 28.1969 50.7574 28.091C51.0927 27.985 51.4461 27.9492 51.7958 27.9857L52.9307 28.1182C55.0686 28.3479 56.1244 29.5449 56.098 31.7092C56.0101 37.9282 56.2476 43.7718 56.8107 49.24C57.057 51.6075 56.032 53.0827 53.7357 53.6657C53.595 53.7011 53.4498 53.7232 53.3002 53.732C51.0479 53.7938 49.8953 52.6984 49.8426 50.4458C49.7546 46.4794 47.8454 44.4697 44.115 44.4167C39.3552 44.3372 34.5602 44.3946 29.7301 44.5889C24.724 44.7833 22.0097 47.0978 21.5874 51.5324C21.0419 57.2655 20.624 62.6984 20.3337 67.8309C19.9246 75.1453 25.5598 77.9677 32.132 77.4907C37.7408 77.0799 36.751 86.0772 30.8254 84.6859C21.8646 82.5922 12.6265 81.7442 3.85041 84.8581C3.51608 84.973 3.18178 84.9686 2.84745 84.8449C-0.847754 83.427 -0.412261 77.3317 3.82403 77.3317C10.0267 77.3317 13.1588 74.1736 13.2204 67.8574C13.3876 50.967 13.5371 33.3964 13.6691 15.1457C13.7087 10.0176 9.51202 7.16868 4.61587 7.60596C2.1348 7.83122 0.0760267 5.7641 0.392759 3.29945C0.52473 2.17755 1.2462 1.07773 2.55711 0Z" fill="#020202"/>
</svg>
