<svg width="51" height="84" viewBox="0 0 51 84" fill="none" xmlns="http://www.w3.org/2000/svg">
<path d="M9.5043 7.72111C8.2865 18.5617 8.27307 29.3448 9.464 40.0702C9.51773 40.5666 9.79533 40.8148 10.2968 40.8148L44.4533 41.0541C44.9963 41.0564 45.5183 41.2633 45.9145 41.6333C46.3107 42.0033 46.5516 42.5089 46.5889 43.0485C46.5979 43.2346 46.5934 43.4208 46.5755 43.6069C46.5206 44.2967 46.2443 44.9507 45.7873 45.4725C45.3303 45.9943 44.7167 46.3564 44.0369 46.5054C37.7867 47.8971 30.9321 48.2738 23.4731 47.6356C18.9959 47.2544 14.4158 47.3697 9.73265 47.9813C9.49479 48.0101 9.27546 48.1243 9.11503 48.3026C8.95461 48.4809 8.86389 48.7115 8.85958 48.9519L8.61783 81.5137C8.60887 83.1624 7.78058 83.8804 6.13297 83.6676C5.61362 83.5967 5.09875 83.5303 4.58835 83.4682C2.9497 83.2555 2.09455 82.3292 2.02291 80.6893C1.44535 66.343 0.397695 51.7573 0.854369 37.5971C1.23045 25.7283 1.611 14.6306 1.99604 4.30404C2.02748 3.37758 2.42241 2.49971 3.09699 1.85676C3.77157 1.21381 4.67271 0.856403 5.60914 0.860384L47.2874 0.926868C49.1588 0.935732 50.0722 1.86201 50.0274 3.70572L50.0005 4.82259C49.9647 6.48015 49.1051 7.3045 47.4217 7.29564L10.2027 7.10948C10.0307 7.10835 9.86421 7.17015 9.73531 7.28302C9.60642 7.39589 9.52415 7.55189 9.5043 7.72111Z" fill="#020202"/>
</svg>
