<svg width="51" height="85" viewBox="0 0 51 85" fill="none" xmlns="http://www.w3.org/2000/svg">
<path d="M8.20709 26.6223C7.88949 34.099 8.70998 40.4622 17.6954 40.9262C24.4003 41.2709 31.705 41.2179 39.6097 40.7671C42.9357 40.5727 44.6913 42.1414 44.8766 45.4732C44.8942 45.6588 44.8986 45.84 44.8898 46.0168C44.881 49.2867 43.2621 50.6743 40.0332 50.1794C32.2697 48.9951 24.5855 48.9686 16.9808 50.0998C11.1714 50.9615 9.46427 55.7074 9.13344 60.851C8.73644 67.2672 8.82906 73.6702 9.41133 80.0599C9.72893 83.6657 8.06151 84.5937 4.84582 84.6997C1.90803 84.7969 0.443575 83.215 0.452397 79.9538C0.522975 58.8404 0.492087 37.1569 0.359754 14.9034C0.320054 6.20702 3.39018 0.798291 12.5212 0.811548C25.0928 0.829223 36.4778 0.882254 46.6763 0.970631C48.9877 0.988307 50.3155 2.14606 50.6595 4.44388C50.8713 5.85793 50.1302 7.3029 48.4363 8.77881C47.7626 9.36025 46.897 9.67599 46.0014 9.667L13.9636 9.29581C12.6728 9.28285 11.4263 9.76505 10.4809 10.6431C9.53548 11.5211 8.96322 12.728 8.882 14.0152C8.63498 17.8685 8.41 22.0708 8.20709 26.6223Z" fill="#020202"/>
</svg>
