<svg width="42" height="77" viewBox="0 0 42 77" fill="none" xmlns="http://www.w3.org/2000/svg">
<path d="M0.673035 35.2272C1.17765 22.2609 0.633198 11.0341 12.9829 3.3782C20.645 -1.35237 29.5155 -0.930706 36.9253 4.41919C41.7766 7.92429 42.6619 12.1497 39.5812 17.0955C37.7752 19.9945 33.8844 18.9535 32.9283 15.8701C30.299 7.35767 22.3978 4.31377 15.7848 10.9945C12.5092 14.2976 10.358 18.6153 9.33109 23.9476C7.75529 32.1174 7.82611 40.8714 9.54355 50.2095C11.323 59.9606 14.8951 71.8199 27.683 68.6574C31.4631 67.7263 33.2425 65.1743 33.0212 61.0016C32.8707 58.0411 32.9548 54.9796 33.2735 51.8171C33.6055 48.4833 31.5605 46.8626 29.5421 44.6883C25.2263 40.0368 35.0131 35.2931 38.4259 41.9607C40.3381 45.7118 41.334 49.2652 41.4137 52.6209C41.5465 58.3047 40.9843 64.3969 39.7272 70.8975C38.147 79.0805 19.3038 76.5769 14.6561 75.101C0.0887497 70.4363 0.208263 46.9153 0.673035 35.2272Z" fill="#020202"/>
</svg>
