<svg width="43" height="79" viewBox="0 0 43 79" fill="none" xmlns="http://www.w3.org/2000/svg">
<path d="M32.1037 48.5569C31.3087 46.8044 29.8511 45.6539 28.6586 44.169C28.3759 43.8123 28.2699 43.4109 28.3405 42.965C29.2813 36.7443 36.0391 39.3396 39.6433 41.1322C41.1406 41.8814 42.2934 43.6874 42.2934 45.3195C42.2934 51.1121 42.2801 56.1956 41.9356 62.5501C41.6309 67.9413 44.228 75.473 36.7414 77.3593C25.0014 80.3158 10.6378 79.1251 5.6423 66.0684C-1.04482 48.5703 -1.39816 31.6742 4.58226 15.38C8.04066 5.9353 14.7189 -0.419142 25.2134 0.0758356C35.5577 0.557436 41.0434 5.75247 41.6706 15.6609C41.8119 17.9263 40.8977 19.6074 38.9277 20.7044C38.4772 20.9541 38.0002 21.079 37.4967 21.079C34.7317 21.0344 33.2962 19.5896 33.1902 16.7446C33.0224 12.5261 30.9376 10.0066 26.936 9.1861C21.2117 8.02224 15.7525 10.8717 13.6191 16.37C8.21291 30.3453 7.92141 45.0118 12.7446 60.3695C14.8382 67.0182 22.1658 70.3493 28.5393 70.2289C30.4341 70.2022 31.5472 68.8242 32.276 67.2457C35.0939 61.2168 35.0365 54.9872 32.1037 48.5569Z" fill="#020202"/>
</svg>
