<svg width="67" height="84" viewBox="0 0 67 84" fill="none" xmlns="http://www.w3.org/2000/svg">
<path d="M43.3345 8.93575C25.8217 7.04229 11.2453 15.6621 9.30538 34.0803C8.69416 39.8886 8.62772 45.5425 9.10607 51.0419C9.74386 58.3862 12.8576 64.3491 18.4471 68.9304C26.6588 75.6701 39.8001 79.7218 50.0181 75.6171C53.0476 74.4078 54.4428 71.8479 54.2036 67.9374C53.9645 63.9121 54.022 59.8251 54.3764 55.6763C54.5358 53.796 53.5393 52.1542 53.8183 50.4329C54.589 45.6794 61.5915 47.0035 61.6845 50.7904C61.9059 60.1473 61.9148 68.6171 61.711 76.1997C61.5782 80.9267 57.8178 82.8599 53.2868 82.8864C50.0535 82.904 46.7051 83.0629 43.2415 83.3631C37.271 83.875 31.4423 83.5793 25.7552 82.4759C-3.57015 76.7691 -2.29456 48.1289 2.92741 25.8577C5.83736 13.4906 10.9929 5.47987 24.1474 2.95085C33.5815 1.14125 43.0732 1.04857 52.6224 2.67279C56.901 3.41428 59.4787 0.368863 63.1727 0.805814C65.2101 1.04415 66.1712 2.26232 66.056 4.46032C65.7903 9.73021 61.2061 11.9812 56.3562 10.9881C52.0156 10.0965 47.6751 9.41242 43.3345 8.93575Z" fill="#020202"/>
</svg>
