<svg width="66" height="85" viewBox="0 0 66 85" fill="none" xmlns="http://www.w3.org/2000/svg">
<path d="M26.8615 4.11399C37.8601 0.561518 53.9986 -1.67034 64.2249 5.05163C65.5964 5.94966 66.2089 7.89098 65.5831 9.40969C64.5533 11.8572 62.5161 12.7377 59.4712 12.0509C40.9227 7.83815 17.1411 9.39649 11.7217 31.1471C9.3915 40.5368 8.23305 51.8545 13.0266 60.7687C21.6817 76.8671 36.4886 77.7387 53.2129 74.7937C54.0023 74.6534 54.7214 74.2543 55.2549 73.6605C55.7885 73.0667 56.1056 72.3124 56.1557 71.5186C56.493 65.9632 56.5107 60.3329 56.2089 54.6278C56.058 51.6256 57.5005 50.1377 60.5365 50.1641L61.7615 50.1773C64.8862 50.2037 66.1778 51.7489 65.6363 54.8127C65.0371 58.1935 64.5311 61.2045 64.8374 64.7306C65.2635 69.6609 65.0149 74.107 64.0917 78.0689C63.4526 80.8158 61.6861 82.4622 58.7921 83.008C49.6666 84.7248 40.7851 85.0594 32.1477 84.0117C18.7701 82.4005 9.64449 75.4629 4.77101 63.1987C0.660944 52.8802 -0.248945 42.5925 2.04133 32.3357C5.28144 17.8265 13.5548 8.41922 26.8615 4.11399Z" fill="#020202"/>
</svg>
