<svg width="63" height="78" viewBox="0 0 63 78" fill="none" xmlns="http://www.w3.org/2000/svg">
<path d="M59.6994 53.7301C59.5258 60.2745 60.4567 68.542 54.7137 72.5572C51.7054 74.6544 48.2922 75.919 44.4741 76.3511C36.538 77.2363 24.4524 77.9951 17.3052 73.6005C1.90631 64.1 -1.5963 46.9327 1.65387 29.9551C2.00098 28.1372 1.44876 26.8884 1.44876 25.1337C1.44876 24.5225 1.67491 24.0114 2.1272 23.6004C3.77858 22.1461 4.94086 20.423 5.61403 18.4312C6.92357 14.5267 9.90552 11.6971 12.4615 8.59877C13.8604 6.92315 15.6433 5.68487 17.8101 4.88394C21.9122 3.38747 26.0775 2.14919 30.3059 1.16911C33.3141 0.4841 36.6852 0.478827 40.4193 1.15329C43.8377 1.76453 47.4876 2.35997 51.3689 2.93958C52.699 3.14505 53.9245 3.78396 54.8557 4.75747L61.4822 11.7603C63.0179 13.3833 63.081 15.0694 61.6716 16.8188L61.3402 17.2298C60.6463 18.0898 59.6453 18.645 58.5496 18.7778C57.4538 18.9106 56.3496 18.6105 55.471 17.9412C53.5987 16.508 51.9842 14.8797 50.6273 13.0566C48.166 9.72113 41.4132 8.82008 37.6897 8.48812C31.9625 7.98227 25.9828 10.6854 20.5869 12.6614C19.4031 13.097 18.4398 13.977 17.9047 15.1116C15.4277 20.3914 11.6884 24.786 10.3788 30.6665C8.36984 39.6348 9.60048 48.4239 14.0708 57.0339C19.5929 67.6726 31.4576 72.573 42.8174 68.874C50.7378 66.2973 51.4477 59.9584 51.148 52.5761C51.0849 50.8689 50.2907 49.7571 48.7656 49.2407C46.7881 48.5767 44.9579 47.6125 43.275 46.3478C42.8551 46.0305 42.5326 45.6014 42.3442 45.1094C42.1559 44.6174 42.1092 44.0822 42.2095 43.565C42.3098 43.0477 42.553 42.569 42.9116 42.1834C43.2701 41.7979 43.7295 41.521 44.2374 41.3842C47.8031 40.4357 53.4673 43.534 56.891 44.7671C57.5221 45.0094 58.0427 45.3941 58.453 45.921L61.9871 50.5369C62.4605 51.1376 62.3132 51.4643 61.5454 51.517C61.1982 51.5275 60.8827 51.6487 60.5987 51.8806C60.3264 52.1036 60.1052 52.3842 59.95 52.7034C59.7948 53.0225 59.7093 53.3727 59.6994 53.7301Z" fill="black"/>
</svg>
