<svg width="52" height="79" viewBox="0 0 52 79" fill="none" xmlns="http://www.w3.org/2000/svg">
<path d="M39.4192 67.0233C40.2418 58.4381 54.4443 61.0029 50.6415 67.9447C48.5305 71.7842 45.8452 74.8097 41.5147 75.8848C34.3747 77.6561 26.769 78.3318 18.6977 77.912C3.95206 77.1288 -0.502706 65.3953 1.11155 52.6943C2.37399 42.8549 4.32458 31.0139 6.96328 17.1713C7.95667 11.9188 10.6885 3.80984 16.7575 2.30476C23.3594 0.666572 29.9199 0.0624914 36.439 0.492515C38.4051 0.615378 39.5848 1.63413 39.978 3.54876C40.0298 3.81496 40.0298 4.08116 39.978 4.34737C39.5434 6.50772 38.2189 7.67493 36.0045 7.84898C31.0789 8.22781 26.1015 8.87285 21.0725 9.78409C19.3547 10.0913 18.2166 11.2175 17.6578 13.1628C17.0576 15.2106 16.5609 17.2225 16.1677 19.1985C13.591 32.1095 11.6612 43.7406 10.3781 54.0918C9.81929 58.5354 10.4919 62.7333 12.3959 66.6854C12.6576 67.2334 13.0928 67.6856 13.6376 67.9754C20.8242 71.8149 30.2614 70.3252 38.4879 68.129C39.057 67.9754 39.3674 67.6069 39.4192 67.0233Z" fill="black"/>
</svg>
