<svg width="46" height="79" viewBox="0 0 46 79" fill="none" xmlns="http://www.w3.org/2000/svg">
<path d="M10.9037 68.887C12.3669 69.4199 13.9125 69.7119 15.5405 69.7631C25.0717 70.091 33.5004 69.3071 40.8265 67.4114C42.774 66.9041 44.4741 68.0877 45.4478 69.6863C45.8747 70.3942 46.0344 71.2305 45.8986 72.0466C45.7627 72.8627 45.3402 73.6058 44.706 74.1438C39.961 78.1556 25.8805 78.0173 18.7862 78.0327C13.9331 78.0327 9.59511 77.341 5.77232 75.9576C2.6296 74.8202 0.955205 72.3967 0.749125 68.6872C0.429701 63.0614 0.785193 57.5433 1.81559 52.1327C4.22673 39.5388 6.51422 26.74 8.67806 13.7362C9.15719 10.8772 10.4091 4.39071 12.4339 2.31564C14.4225 0.276431 17.3746 -0.169317 21.2901 0.978377C24.0825 1.79816 24.9687 3.55044 23.9486 6.23522C23.8423 6.51942 23.6751 6.77683 23.4588 6.98929C23.2425 7.20176 22.9824 7.36411 22.6967 7.4649C20.2134 8.35641 18.7605 10.037 18.3381 12.5065C15.8239 27.0884 13.1757 42.0853 10.3937 57.4972C9.82693 60.6636 9.68272 64.0503 9.96093 67.6573C10.0125 68.2722 10.3267 68.6821 10.9037 68.887Z" fill="black"/>
</svg>
