<svg width="45" height="79" viewBox="0 0 45 79" fill="none" xmlns="http://www.w3.org/2000/svg">
<path d="M10.8075 68.7024C10.8515 69.0751 11.0412 69.4191 11.3402 69.6681C11.6392 69.9171 12.0263 70.0533 12.4266 70.0506L39.7415 69.7135C42.8071 69.6727 44.383 71.1076 44.4693 74.0184L44.4856 74.4933C44.5503 76.7913 43.3683 77.9505 40.9396 77.9709C28.0189 78.0832 16.3233 78.0424 5.8529 77.8483C2.04253 77.7666 0.25608 75.9844 0.493554 72.5017C0.91453 66.333 1.99396 59.3063 3.73183 51.4218C7.31013 35.2747 9.36644 19.9703 12.6371 4.09905C13.2092 1.32107 14.9794 0.0903785 17.9478 0.406987L19.2593 0.560182C22.0443 0.856364 23.1452 2.30153 22.5623 4.89567C20.3495 14.6595 18.5578 24.122 17.1869 33.2832C15.5677 44.0836 12.7828 55.1751 10.8884 65.9908C10.7265 66.8998 10.6995 67.8037 10.8075 68.7024Z" fill="black"/>
</svg>
