<svg width="47" height="79" viewBox="0 0 47 79" fill="none" xmlns="http://www.w3.org/2000/svg">
<path d="M10.7549 71.0753C10.8963 71.1266 11.0323 71.183 11.1629 71.2446C11.4348 71.3677 11.7232 71.4293 12.0278 71.4293L43.638 71.4601C45.2808 71.4601 46.0858 72.24 46.0532 73.7997L46.0205 75.3543C45.9879 77.0167 45.0958 77.8479 43.3443 77.8479L8.40492 78.0326C7.28606 78.0381 6.17961 77.8111 5.1642 77.3679C4.1488 76.9246 3.24933 76.2759 2.52968 75.4679C1.81002 74.6598 1.28788 73.7122 1.00025 72.6923C0.712631 71.6724 0.666616 70.6054 0.86549 69.5668C4.78208 49.1567 8.89996 27.0893 13.2191 3.36471C13.4911 1.8768 14.8727 0.891693 17.3641 0.409403C18.8111 0.132342 20.2744 0.984053 21.754 2.96452C22.0747 3.38921 22.3033 3.87025 22.4265 4.38004C22.5497 4.88984 22.5652 5.41834 22.472 5.93523L10.5754 70.7674C10.5606 70.8264 10.5704 70.8894 10.6032 70.9455C10.6359 71.0016 10.6895 71.0475 10.7549 71.0753Z" fill="black"/>
</svg>
