<svg width="63" height="78" viewBox="0 0 63 78" fill="none" xmlns="http://www.w3.org/2000/svg">
<path d="M49.7388 49.8374C46.2814 49.827 44.061 48.6227 43.0777 46.2246C42.9012 45.7912 42.8196 45.325 42.8383 44.8572C42.857 44.3895 42.9756 43.9313 43.1861 43.5135C43.3966 43.0957 43.6941 42.7281 44.0584 42.4355C44.4228 42.143 44.8455 41.9323 45.298 41.8176C50.5565 40.4784 55.7115 40.7432 60.763 42.6118C61.2829 42.8026 61.7474 43.12 62.1145 43.5356C62.4817 43.9511 62.7401 44.4518 62.8664 44.9924C62.9926 45.5329 62.9829 46.0965 62.838 46.6324C62.6931 47.1683 62.4175 47.6596 62.0362 48.0621L60.4525 49.7128C60.0695 50.1177 59.8728 50.5952 59.8624 51.1454C59.7589 55.5368 59.4225 60.5096 58.8532 66.0637C57.7508 76.9487 35.9973 77.7429 29.0567 76.684C7.8312 73.4449 -0.444721 54.9762 0.968243 35.2929C1.97233 21.2363 8.01236 11.0261 19.0883 4.6622C28.7462 -0.865958 46.1054 -0.819251 55.313 5.67439C58.5012 7.9168 60.3593 10.9067 60.8872 14.644C61.1771 16.6061 60.4939 18.127 58.8376 19.2067C58.4753 19.4455 58.0872 19.596 57.6731 19.6583C54.4435 20.167 52.4043 18.8226 51.5554 15.6251C50.9137 13.2685 49.4852 11.6645 47.27 10.8132C37.7467 7.16933 29.2534 7.94795 21.79 13.1491C9.95841 21.3868 8.25044 38.1582 11.8993 51.3167C14.9012 62.0928 21.8521 67.8441 32.7522 68.5708C38.4454 68.9549 43.735 68.2023 48.6208 66.3129C48.8481 66.2253 49.0461 66.0751 49.1917 65.8794C49.3373 65.6837 49.4247 65.4506 49.4438 65.2072L50.5307 50.6316C50.5721 50.1125 50.3081 49.8478 49.7388 49.8374Z" fill="black"/>
</svg>
