<svg width="64" height="78" viewBox="0 0 64 78" fill="none" xmlns="http://www.w3.org/2000/svg">
<path d="M49.3915 51.0169L46.2352 50.0435C45.526 49.8215 44.9143 49.3788 44.4971 48.7854C44.08 48.1921 43.8812 47.4821 43.9324 46.7681C44.1578 43.5698 47.5235 42.2566 50.5026 42.4111C54.1581 42.5965 59.9071 42.1175 62.5803 44.7132C62.8956 45.0202 63.1414 45.3863 63.3027 45.7886C63.4639 46.1909 63.5369 46.6207 63.5173 47.0513C63.4977 47.4818 63.3857 47.9039 63.1885 48.2911C62.9913 48.6784 62.713 49.0225 62.371 49.3019C60.7767 50.6306 60.0199 52.2838 60.036 54.2923C60.0574 58.0828 59.6656 62.1617 58.8604 66.529C58.4202 68.8465 57.2876 70.6233 55.4625 71.8593C53.1544 73.4352 50.6583 74.5168 47.9744 75.1039C37.3299 77.4214 28.0381 78.4257 17.7801 73.5743C10.5335 70.1546 5.60577 64.5256 2.99699 56.6871C-3.02576 38.564 -0.304252 16.9335 16.8622 5.77844C26.1862 -0.293524 40.2768 -0.494378 50.5026 2.68838C55.5914 4.27976 61.1954 8.28138 61.3081 13.828C61.3255 14.6719 61.0589 15.4981 60.548 16.1832C60.0371 16.8683 59.3095 17.3754 58.4739 17.6288C53.5784 19.1275 52.5639 15.5739 50.7442 12.4066C50.4417 11.886 49.9604 11.473 49.3754 11.2324C28.6822 2.98193 11.8056 14.8478 9.95373 35.2576C9.24517 43.0136 10.6301 54.2614 15.6061 60.6579C22.8366 69.9589 34.3024 69.5263 44.9308 67.5023C47.8831 66.9358 49.4935 65.1848 49.7619 62.2492C50.0839 58.7163 50.2933 55.4202 50.3899 52.3611C50.4002 52.063 50.308 51.7699 50.1276 51.527C49.9472 51.2841 49.6885 51.1049 49.3915 51.0169Z" fill="black"/>
</svg>
