<svg width="60" height="79" viewBox="0 0 60 79" fill="none" xmlns="http://www.w3.org/2000/svg">
<path d="M46.422 53.9981C44.212 52.8577 41.6466 51.3892 42.5893 48.3428C42.7846 47.7319 43.1417 47.1872 43.6214 46.7683C44.1012 46.3495 44.6852 46.0727 45.3093 45.9683C49.6366 45.2288 53.7887 45.4944 57.7656 46.765C58.2201 46.909 58.6323 47.1644 58.9655 47.5083C59.2988 47.8523 59.5429 48.2741 59.6759 48.7364C59.809 49.1987 59.827 49.687 59.7283 50.158C59.6296 50.629 59.4172 51.068 59.1101 51.436C57.5647 53.2795 56.2356 55.201 56.2202 57.7474C56.2099 61.3613 55.7462 64.8555 54.8293 68.2299C53.8608 71.8334 50.8678 74.3069 45.8502 75.6504C34.9857 78.5405 24.4921 79.6809 14.4622 73.9163C0.522221 65.9022 -1.02322 46.2026 0.924047 31.2991C2.97949 15.4582 13.8594 1.97633 30.2566 0.570342C38.8802 -0.163899 52.7275 0.617206 57.3792 9.31874C58.5229 11.4746 58.085 13.2243 56.0656 14.5678L55.6947 14.8177C54.7023 15.4747 53.4927 15.7071 52.331 15.464C51.1693 15.221 50.1504 14.5223 49.4975 13.5211C48.0756 11.3444 46.0253 9.98529 43.3466 9.44372C30.3442 6.82961 21.0664 9.7822 15.5131 18.3015C11.8967 23.8421 9.94944 30.1118 9.67126 37.1105C9.09945 51.5141 11.4486 69.0734 29.3294 69.464C34.1615 69.5681 38.5866 69.1099 42.6048 68.0892C47.4111 66.8551 47.3493 59.5596 47.2256 55.2947C47.205 54.7011 46.9372 54.2689 46.422 53.9981Z" fill="black"/>
</svg>
