<svg width="58" height="79" viewBox="0 0 58 79" fill="none" xmlns="http://www.w3.org/2000/svg">
<path d="M46.2468 10.3958C42.4254 8.37805 35.7954 8.7816 31.3908 9.02994C10.4879 10.2096 9.19874 35.8816 10.979 53.1413C12.8207 70.9596 27.9377 71.7357 41.5506 68.0882C45.3874 67.0638 45.8478 61.8797 46.0166 58.434C46.0473 57.8131 45.8376 57.301 45.3874 56.8974L43.469 55.1435C43.0464 54.7625 42.7322 54.2743 42.5588 53.7293C42.3855 53.1843 42.3592 52.6023 42.4829 52.0436C42.6065 51.4849 42.8755 50.9698 43.262 50.5515C43.6486 50.1332 44.1386 49.827 44.6814 49.6645C48.2522 48.5884 51.9815 48.8315 55.8695 50.394C56.2726 50.5573 56.6363 50.8065 56.9356 51.1247C57.235 51.4429 57.4631 51.8226 57.6044 52.2379C57.7456 52.6532 57.7967 53.0945 57.7542 53.5316C57.7118 53.9687 57.5767 54.3914 57.3582 54.771C53.2605 61.8642 56.2378 71.7357 46.431 75.0572C28.5976 81.0795 6.39022 79.3411 2.21579 56.8198C-3.831 24.1631 9.22942 -7.79507 48.5182 2.23164C51.5365 3.0077 54.0074 4.58052 55.9309 6.95009C56.2165 7.30175 56.4277 7.70902 56.5512 8.14663C56.6748 8.58424 56.7081 9.04285 56.6491 9.49402C56.5901 9.94519 56.44 10.3793 56.2082 10.7694C55.9764 11.1595 55.6679 11.4972 55.3016 11.7617C51.5109 14.54 49.439 12.0876 46.2468 10.3958Z" fill="black"/>
</svg>
