<svg width="57" height="78" viewBox="0 0 57 78" fill="none" xmlns="http://www.w3.org/2000/svg">
<path d="M44.3424 62.5485C44.531 60.3171 43.0061 59.4063 42.1887 57.5392C41.9791 57.0636 41.9529 56.5829 42.1101 56.0972C43.4777 51.7254 50.6618 52.8335 53.7744 54.0176C54.2415 54.1945 54.6647 54.4646 55.0164 54.8102C55.3681 55.1558 55.6404 55.5692 55.8154 56.0233C55.9905 56.4774 56.0644 56.962 56.0323 57.4455C56.0002 57.9291 55.8629 58.4007 55.6293 58.8295C52.0609 65.4023 53.5543 71.5653 44.3738 74.4191C39.6368 75.8864 35.1409 76.7314 30.886 76.9541C8.18624 78.1077 -0.349757 66.2372 0.420525 45.4258C0.724446 37.1479 1.79338 29.4922 3.62738 22.459C9.30232 0.721653 30.603 -2.37501 50.819 2.87717C52.9989 3.44388 54.246 4.85053 54.5604 7.09712C54.6128 7.48167 54.4975 7.84599 54.2145 8.19006C52.4539 10.3355 50.1955 11.0641 47.4392 10.3759C43.1843 9.31336 38.3897 8.81242 33.0553 8.87314C21.7788 8.98446 14.9144 14.692 12.4621 25.9958C10.7434 33.9399 9.91016 41.7675 9.96256 49.4788C10.0254 58.8143 13.0123 67.9981 24.4093 68.8937C29.9637 69.3389 35.4657 68.7065 40.9153 66.9962C43.0009 66.3485 44.1432 64.866 44.3424 62.5485Z" fill="black"/>
</svg>
