<svg width="48" height="79" viewBox="0 0 48 79" fill="none" xmlns="http://www.w3.org/2000/svg">
<path d="M10.9616 67.7002C11.0167 69.156 11.8277 69.8839 13.3944 69.8839C23.0701 69.9455 32.3101 69.5815 41.1143 68.7921C43.9056 68.5358 45.9411 69.5866 47.221 71.9446C47.6402 72.7238 47.6016 73.4824 47.1051 74.2206C45.6377 76.3735 43.387 77.491 40.353 77.573C32.9389 77.7883 25.6408 77.937 18.4584 78.019C14.1225 78.0651 1.80994 78.265 1.23072 73.0826C0.612878 67.5874 0.872101 62.1026 2.00848 56.6279C4.57913 44.2024 6.96222 31.6948 9.15775 19.1052C9.98522 14.3585 10.9892 9.59638 12.1697 4.8189C12.9089 1.80477 14.9389 0.318216 18.2598 0.359224H19.2197C22.8054 0.400233 24.0355 2.00468 22.9102 5.17259C21.3987 9.3657 20.2126 13.8254 19.352 18.5516C16.8807 32.2279 14.277 46.0529 11.5408 60.0265C11.0554 62.4973 10.8623 65.0552 10.9616 67.7002Z" fill="black"/>
</svg>
