<svg width="53" height="79" viewBox="0 0 53 79" fill="none" xmlns="http://www.w3.org/2000/svg">
<path d="M40.4148 64.5527C39.9162 63.7131 39.6313 62.7967 39.56 61.8036C39.5364 61.4213 39.5997 61.0386 39.7452 60.6846C39.8907 60.3307 40.1145 60.0147 40.3995 59.7609C43.7678 56.8019 47.2632 56.8019 50.8858 59.7609C52.0662 60.7234 52.3206 61.8906 51.649 63.2626C49.2983 68.0544 48.1078 73.2916 42.3991 75.2114C37.647 76.8087 32.8643 77.72 28.0511 77.9452C22.4035 78.2217 17.8142 77.8428 14.2831 76.8087C1.94997 73.2149 -0.446425 60.8974 0.377822 49.5169C0.917144 42.1039 1.96015 33.9486 3.50689 25.051C4.83484 17.3872 7.18549 9.07829 14.0695 4.90082C22.1593 0.00149414 32.2182 -0.121379 41.9565 0.815482C44.0324 1.02026 45.6961 1.80354 46.9478 3.16531C47.486 3.75866 47.7769 4.53708 47.7598 5.33825C47.7427 6.13943 47.4191 6.90153 46.8562 7.46566C45.3603 8.97078 43.5388 9.56975 41.3917 9.26259C34.8741 8.29501 21.8235 7.66531 17.2596 13.4708C15.4381 15.8053 14.1356 18.8872 13.3521 22.7165C11.7138 30.8053 10.513 39.3599 9.74979 48.3803C9.13924 55.4298 9.06294 66.1039 16.878 68.8224C24.4947 71.4486 31.806 69.9742 39.27 67.5937C39.5663 67.4991 39.8376 67.3382 40.0633 67.1231C40.2891 66.9081 40.4635 66.6444 40.5737 66.3519C40.6838 66.0594 40.7267 65.7456 40.6992 65.434C40.6717 65.1224 40.5745 64.8211 40.4148 64.5527Z" fill="black"/>
</svg>
