<svg width="50" height="79" viewBox="0 0 50 79" fill="none" xmlns="http://www.w3.org/2000/svg">
<path d="M19.0431 10.2513C18.1415 12.0757 17.5052 14.0025 17.134 16.0318C14.9809 27.6645 12.8966 39.2151 10.8814 50.6838C10.1654 54.6656 7.98586 66.8415 12.8383 68.8554C19.6318 71.6688 29.0184 69.6395 36.2415 68.5633C37.185 68.4247 38.0432 67.9665 38.6598 67.2719C41.4281 64.1665 47.4419 63.5977 49.0806 68.0406C50.3534 71.4997 44.7214 75.0664 41.8736 75.7274C32.805 77.8387 23.6357 78.4998 14.3656 77.7106C0.508232 76.5422 -1.06676 65.0735 0.619674 54.5272C2.83643 40.65 5.42964 26.327 8.39945 11.5581C8.56915 10.7587 9.15789 9.14443 10.1655 6.71541C11.6133 3.27173 13.3474 1.0733 17.3407 0.873442C20.9999 0.673585 26.8548 -0.771534 29.5276 2.28781C29.8122 2.61285 30.0214 2.99299 30.1413 3.40268C30.2612 3.81238 30.2889 4.24213 30.2226 4.66304C30.1563 5.08394 29.9975 5.48624 29.7569 5.8429C29.5162 6.19956 29.1994 6.5023 28.8276 6.73077C26.4941 8.17589 23.7099 9.03168 20.475 9.29816C19.8068 9.3494 19.3294 9.66713 19.0431 10.2513Z" fill="black"/>
</svg>
