<svg width="20" height="25" viewBox="0 0 20 25" fill="none" xmlns="http://www.w3.org/2000/svg">
<path d="M16.9609 11.2229C17.181 11.1775 17.291 11.043 17.291 10.8195L17.3068 1.05041C17.3103 0.397392 17.6369 0.0534213 18.2866 0.0185005C18.3704 0.0150084 18.4543 0.0150084 18.5381 0.0185005C18.9153 0.0320724 19.2724 0.191464 19.5344 0.463097C19.7963 0.73473 19.9426 1.0974 19.9423 1.4747L20 23.9044C20.0035 24.5958 19.6594 24.9607 18.9678 24.9991C18.8595 25.0026 18.7529 24.9956 18.6481 24.9782C17.7644 24.842 17.3207 24.3252 17.3172 23.4277L17.2858 13.91C17.2855 13.7749 17.2404 13.6439 17.1579 13.5376C17.0753 13.4314 16.9599 13.356 16.83 13.3233C16.5819 13.2605 16.3357 13.2273 16.0911 13.2238C11.6653 13.1819 7.25176 13.1872 2.8504 13.2395C2.79434 13.2409 2.74103 13.2641 2.70187 13.3043C2.66271 13.3444 2.6408 13.3982 2.64081 13.4543L2.63557 24.072C2.63557 24.6761 2.33167 24.9817 1.72386 24.9886L1.39376 24.9939C1.21123 24.9953 1.03022 24.9605 0.861185 24.8916C0.692145 24.8228 0.538414 24.7211 0.408852 24.5926C0.27929 24.464 0.176461 24.3111 0.10629 24.1427C0.0361188 23.9742 -5.2377e-06 23.7935 5.6961e-10 23.611L0.00523983 1.0347C0.00523983 0.378185 0.333595 0.034215 0.990305 0.00278624C1.31167 -0.0146742 1.62256 0.0499293 1.92297 0.196597C2.1289 0.295657 2.3029 0.450775 2.42517 0.64431C2.54744 0.837844 2.61307 1.06203 2.61462 1.29137L2.64081 10.9924C2.64081 11.0841 2.67725 11.172 2.7421 11.2368C2.80696 11.3017 2.89492 11.3381 2.98663 11.3381C7.0771 11.366 11.2846 11.3678 15.6091 11.3433C16.1331 11.3398 16.5837 11.2997 16.9609 11.2229Z" fill="black"/>
</svg>
