<svg width="22" height="54" viewBox="0 0 22 54" fill="none" xmlns="http://www.w3.org/2000/svg">
<path d="M5.74009 22.6554C5.74675 23.082 5.95007 23.2254 6.35007 23.0854C8.71007 22.2654 11.1234 21.9154 13.5901 22.0354C13.6684 22.0394 13.7467 22.0278 13.8205 22.0012C13.8942 21.9746 13.962 21.9335 14.0197 21.8805C14.0774 21.8274 14.124 21.7634 14.1567 21.6921C14.1893 21.6208 14.2075 21.5437 14.2101 21.4654L14.69 6.48536C14.7029 6.08621 14.824 5.69897 15.0401 5.36536C16.2401 3.47202 17.5134 2.59202 18.8601 2.72536C20.4867 2.88536 21.2701 3.77869 21.2101 5.40536C20.6967 19.7054 20.4901 34.1754 20.5901 48.8154C20.5961 49.7323 20.2461 50.6157 19.6137 51.2797C18.9814 51.9438 18.1161 52.3365 17.2 52.3754L16.88 52.3954C15.36 52.462 14.5134 51.7387 14.3401 50.2254C13.5467 43.292 13.2367 36.4954 13.4101 29.8354C13.4634 27.9754 12.5634 27.1354 10.7101 27.3154C9.49672 27.4354 8.25007 27.642 6.97007 27.9354C6.41007 28.0687 6.13004 28.4254 6.13004 29.0054L6.12003 51.2754C6.11337 52.7954 5.35674 53.622 3.85007 53.7554L3.08005 53.8254C1.14005 53.992 0.166737 53.102 0.160071 51.1554L3.66292e-05 2.45536C-0.00663004 0.622023 0.896725 -0.184643 2.71006 0.0353572C2.77006 0.0420238 2.87339 0.0553571 3.02006 0.0753571C4.74006 0.282024 5.6067 1.25202 5.62003 2.98536L5.74009 22.6554Z" fill="black"/>
</svg>
