<svg width="18" height="43" viewBox="0 0 18 43" fill="none" xmlns="http://www.w3.org/2000/svg">
<path d="M12.6944 17.6373C12.7257 16.353 13.0226 15.0688 13.0148 13.7846C12.9939 10.5354 13.1606 7.33411 13.5147 4.18067C13.6449 2.98417 14.2985 2.43644 15.4754 2.53748L16.4051 2.62522C17.4987 2.71563 18.0299 3.32185 17.9987 4.4439L17.1941 35.9836C17.1576 37.3822 16.4728 38.2357 15.1395 38.5441C14.499 38.6983 13.8714 38.4218 13.2569 37.7145C13.0035 37.4198 12.8525 37.0497 12.8273 36.6616C12.5825 32.8328 12.5513 28.5467 12.7335 23.8032C12.7421 23.608 12.7114 23.4131 12.6436 23.2304C12.5758 23.0477 12.4721 22.881 12.339 22.7406C12.2059 22.6003 12.0462 22.4891 11.8695 22.4139C11.6929 22.3388 11.5031 22.3013 11.3118 22.3036L6.45281 22.3515C5.69767 22.3621 5.30969 22.753 5.28886 23.524L4.85922 41.0168C4.82276 42.5377 4.0676 43.1838 2.59377 42.9552L2.28133 42.8993C1.1408 42.7238 0.562705 42.0485 0.547081 40.8733L0.000244824 2.03495C-0.0063461 1.61588 0.120296 1.20592 0.361131 0.866529C0.601966 0.527135 0.944036 0.276593 1.33608 0.152462C1.81521 -0.0017528 2.2813 -0.0389767 2.73438 0.0407898C4.03114 0.253501 4.67956 1.02989 4.67956 2.36997L4.71861 17.725C4.72382 18.3153 5.01285 18.6078 5.58571 18.6025L11.7648 18.5705C12.369 18.5652 12.6788 18.2541 12.6944 17.6373Z" fill="black"/>
</svg>
