<svg width="14" height="35" viewBox="0 0 14 35" fill="none" xmlns="http://www.w3.org/2000/svg">
<path d="M8.48438 15.1464C8.76529 15.1378 8.90156 14.9901 8.89318 14.7032L8.52841 2.33311C8.49906 1.4425 8.92043 0.977922 9.7925 0.939386L12.6477 0.8302C13.4317 0.795946 13.8636 1.17703 13.9432 1.97344C14.0229 2.78698 14.0187 3.61765 13.9307 4.46544C13.0062 13.3159 13.4276 22.4875 13.7735 31.4408C13.8238 32.706 13.3521 33.7529 12.0628 34.1062C10.3145 34.5879 9.2768 32.8537 8.45294 31.6527C8.26427 31.3787 8.17623 31.0747 8.18881 30.7407L8.74225 19.3532C8.77579 18.6639 8.45503 18.3278 7.78001 18.3449L4.99399 18.4284C4.37766 18.4455 4.06952 18.7688 4.06952 19.3982L4.05064 33.5924C4.04913 33.9537 3.91028 34.3001 3.66364 34.558C3.41699 34.8159 3.08203 34.9649 2.72996 34.9732L1.85578 34.9989C0.97951 35.0246 0.53509 34.59 0.522512 33.6951L0.000513797 1.88352C-0.0204496 0.590419 0.60008 -0.0368634 1.86207 0.00167279L2.09476 0.0145179C3.15551 0.0487722 3.68796 0.607547 3.69216 1.69084L3.75507 14.806C3.75502 14.8743 3.76847 14.9419 3.79461 15.0047C3.82075 15.0676 3.85904 15.1244 3.90719 15.1717C3.95534 15.2191 4.01234 15.2561 4.07482 15.2804C4.13729 15.3048 4.20392 15.316 4.27074 15.3134L8.48438 15.1464Z" fill="black"/>
</svg>
