<svg width="9" height="24" viewBox="0 0 9 24" fill="none" xmlns="http://www.w3.org/2000/svg">
<path d="M5.843 10.0858C5.84583 7.23048 5.8529 4.47054 5.86421 1.80597C5.86704 0.897215 6.35502 0.308205 7.32815 0.0389431C7.37341 0.0249191 7.42009 0.0165047 7.46818 0.0136999C8.48657 -0.0872733 8.99575 0.369911 8.99575 1.38525L9 22.8967C9 23.654 8.6181 24.0215 7.85431 23.999L7.14569 23.978C6.28572 23.9528 5.85572 23.5152 5.85572 22.6653L5.843 13.4263C5.843 13.1066 5.68175 12.9453 5.35926 12.9425L3.70015 12.9299C3.6307 12.9293 3.5618 12.9423 3.49747 12.968C3.43314 12.9938 3.37465 13.0318 3.32534 13.0799C3.27603 13.128 3.23688 13.1853 3.21017 13.2483C3.18346 13.3114 3.16974 13.379 3.16974 13.4473V22.6569C3.16974 23.5376 2.72561 23.978 1.83735 23.978L1.10749 23.9822C0.371988 23.9822 0.00424742 23.6162 0.00424742 22.8841L0 1.37263C0 0.576064 0.40029 0.134307 1.20085 0.0473576C1.43848 0.0221143 1.67752 0.0122974 1.91797 0.017907C2.74965 0.0347358 3.16691 0.455457 3.16974 1.28007V10.0858C3.16974 10.2905 3.27299 10.3929 3.47949 10.3929L5.52051 10.4055C5.7355 10.4083 5.843 10.3017 5.843 10.0858Z" fill="black"/>
</svg>
