<svg width="26" height="31" viewBox="0 0 26 31" fill="none" xmlns="http://www.w3.org/2000/svg">
<path d="M3.9574 16.9272L3.91783 28.6271C3.91343 29.5255 3.52209 30.2047 2.74382 30.6648C2.48879 30.8138 2.22938 30.8663 1.96555 30.8225C0.76517 30.6429 0.16058 29.9461 0.151786 28.7323L8.70698e-05 1.91447C-0.00870696 0.599866 0.648645 -0.037715 1.97215 0.00172302L2.3415 0.00829617C3.31764 0.0389702 3.8101 0.5429 3.81889 1.52009L3.92442 12.898C3.92882 13.1915 4.07612 13.334 4.36632 13.3252C9.96372 13.2288 15.4974 13.3164 20.9672 13.5881C21.0574 13.5935 21.1478 13.5805 21.2328 13.5499C21.3178 13.5194 21.3957 13.4719 21.4617 13.4104C21.5277 13.349 21.5805 13.2747 21.6168 13.1923C21.6531 13.1098 21.6722 13.0209 21.673 12.9308L21.7983 1.61868C21.8071 0.580147 22.3325 0.0521162 23.3746 0.0345882L23.6516 0.028015C24.918 0.006105 25.5621 0.626159 25.5841 1.88818L25.9996 28.5943C26.0172 29.8519 25.417 30.6385 24.1991 30.954C23.9748 31.0153 23.733 31.0153 23.4735 30.954C22.6733 30.7568 22.2248 30.2507 22.1281 29.4356C21.64 25.3428 21.5213 21.2763 21.7719 17.2361C21.7764 17.1695 21.7673 17.1027 21.7452 17.0398C21.723 16.9769 21.6882 16.9193 21.6431 16.8706C21.5979 16.8219 21.5433 16.7831 21.4826 16.7566C21.4219 16.7302 21.3565 16.7167 21.2904 16.7169L4.38611 16.5065C4.1047 16.5021 3.9618 16.6424 3.9574 16.9272Z" fill="black"/>
</svg>
