<svg width="28" height="35" viewBox="0 0 28 35" fill="none" xmlns="http://www.w3.org/2000/svg">
<path d="M4.68401 19.0872L4.69891 33.1096C4.69891 34.1537 4.16771 34.7434 3.10531 34.8788L2.44256 34.9658C0.89364 35.1639 0.116696 34.5017 0.111732 32.9791L3.54604e-05 2.21522C-0.00492901 1.14698 0.511378 0.434013 1.54895 0.0763213C1.82696 -0.0203521 2.10745 -0.0251861 2.39042 0.06182C3.6514 0.434013 4.29182 1.25815 4.31168 2.53424L4.5053 14.4323C4.51026 14.8577 4.73366 15.0752 5.1755 15.0849L22.9136 15.2879C23.1817 15.2927 23.3157 15.1646 23.3157 14.9036L23.2933 3.63632C23.2933 2.56808 23.8345 1.94937 24.9167 1.78019C25.6117 1.67385 26.2944 1.8962 26.9646 2.44724C27.156 2.604 27.3103 2.7992 27.417 3.01945C27.5237 3.23971 27.5802 3.47982 27.5826 3.72333L27.9997 32.5296C28.0146 33.4963 27.5355 34.0715 26.5625 34.2552C26.2745 34.3084 25.9915 34.335 25.7135 34.335C24.2738 34.3301 23.5416 33.6268 23.5168 32.2251L23.2933 19.8557C23.2834 19.2128 22.9483 18.8841 22.288 18.8696L5.21273 18.5796C4.86026 18.5748 4.68401 18.744 4.68401 19.0872Z" fill="black"/>
</svg>
