<svg width="29" height="41" viewBox="0 0 29 41" fill="none" xmlns="http://www.w3.org/2000/svg">
<path d="M5.2877 17.3528L23.597 17.1959C23.6938 17.1938 23.786 17.1537 23.8537 17.0842C23.9215 17.0147 23.9594 16.9214 23.9594 16.8243L24.0005 4.20618C24.0005 2.973 24.5249 2.03435 25.5737 1.39023C25.9525 1.1535 26.3232 1.11221 26.6856 1.26636C28.1626 1.89396 28.9039 3.01154 28.9094 4.61908L29 38.2454C29.0055 39.8474 28.2148 40.7586 26.6279 40.9788C26.3918 41.0118 26.1612 41.0063 25.9361 40.9622C24.6677 40.7145 24.0307 39.9438 24.0252 38.65L23.9511 21.8947C23.9511 21.7779 23.9279 21.6624 23.8827 21.5546C23.8374 21.4469 23.7712 21.3491 23.6877 21.2669C23.6043 21.1848 23.5052 21.1199 23.3963 21.076C23.2875 21.032 23.1709 21.01 23.0534 21.0111L5.87247 21.2588C5.04884 21.2753 4.63978 21.6937 4.64527 22.514L4.66998 38.0389C4.66998 39.4923 3.95616 40.3429 2.52853 40.5906C2.30341 40.6292 2.08103 40.6319 1.8614 40.5989C0.620463 40.3897 0 39.6547 0 38.394L0.0658918 1.78661C0.0658918 0.669035 0.623213 0.088227 1.73786 0.0441847L2.85799 0.00289564C4.07147 -0.046652 4.67821 0.539661 4.67821 1.76183L4.62879 16.6839C4.62879 17.1298 4.84843 17.3528 5.2877 17.3528Z" fill="black"/>
</svg>
