<svg width="39" height="59" viewBox="0 0 39 59" fill="none" xmlns="http://www.w3.org/2000/svg">
<path d="M6.95185 31.4454L7.05757 56.4534C7.0654 58.1198 6.22741 58.9608 4.54355 58.9764L3.15728 58.9998C1.59089 59.0153 0.776392 58.2444 0.713737 56.687C0.232074 45.3102 -0.284846 34.0852 0.185069 22.4163C0.443522 15.9375 0.549275 9.30295 0.502284 2.51266C0.498882 2.17699 0.564144 1.84412 0.694162 1.53409C0.824179 1.22406 1.01626 0.943275 1.25882 0.708648C1.50139 0.474021 1.78943 0.290401 2.1056 0.168846C2.42178 0.0472909 2.75953 -0.00968669 3.09855 0.0013436L3.66246 0.0247052C5.67526 0.0870015 6.69731 1.11878 6.72863 3.12005L7.04581 24.5422C7.0489 24.7601 7.13814 24.968 7.29423 25.121C7.45032 25.2741 7.66074 25.3598 7.87994 25.3598L31.3639 25.3948C31.4418 25.3948 31.5165 25.3653 31.5716 25.3127C31.6267 25.2602 31.6576 25.1889 31.6576 25.1145L31.9983 8.51646C32.0453 6.47626 33.0908 5.44058 35.1349 5.40943L35.8633 5.39776C37.9388 5.35882 38.9765 6.37113 38.9765 8.4347L39 55.1802C39 57.5163 37.8291 58.6883 35.4874 58.6961L34.994 58.7078C32.8872 58.7155 31.826 57.676 31.8103 55.5891L31.6693 31.6206C31.6615 31.0911 31.3913 30.8263 30.8587 30.8263L7.66845 30.7445C7.1907 30.7445 6.95185 30.9781 6.95185 31.4454Z" fill="black"/>
</svg>
