<svg width="47" height="76" viewBox="0 0 47 76" fill="none" xmlns="http://www.w3.org/2000/svg">
<path d="M36.2895 39.279L10.1378 39.2938C9.85085 39.2939 9.57545 39.4076 9.37117 39.6103C9.16689 39.8131 9.05016 40.0886 9.04623 40.3773L8.6126 71.8136C8.57273 74.6436 7.12234 76.0388 4.26145 75.9992H3.5288C1.16633 75.9695 -0.00990543 74.7821 6.28263e-05 72.437L0.31405 3.31575C0.324018 1.23781 1.37565 0.159262 3.46898 0.0801023L5.42774 0.00588986C7.84005 -0.0930597 9.04123 1.05475 9.03126 3.44933L8.85184 31.086C8.84987 31.249 8.88053 31.4108 8.94201 31.5619C9.00349 31.7131 9.09456 31.8507 9.21 31.9667C9.32544 32.0826 9.46292 32.1747 9.61448 32.2375C9.76603 32.3004 9.92867 32.3327 10.0929 32.3327L36.3044 32.496C36.582 32.496 36.8482 32.3881 37.0445 32.196C37.2408 32.004 37.3511 31.7435 37.3511 31.4719L37.366 7.36774C37.3659 6.88137 37.4683 6.40036 37.6666 5.9556C37.8649 5.51084 38.1547 5.11216 38.5174 4.78516C39.5441 3.86492 40.6107 3.45923 41.7172 3.56807C44.6179 3.86492 46.0484 5.46296 46.0085 8.36218C45.9387 13.1909 46.1181 17.8069 46.5468 22.2102C46.9754 26.5046 47.1 30.7743 46.9206 35.0192C46.4421 46.1312 46.3973 57.9607 46.786 70.5075C46.8458 72.5557 45.8689 73.7926 43.8554 74.2181L42.4798 74.5149C40.1771 74.9998 38.9111 74.0796 38.6819 71.7542C37.6551 61.6614 37.2115 51.1925 37.3511 40.3476C37.353 40.208 37.3271 40.0694 37.2746 39.9398C37.2221 39.8102 37.1443 39.6923 37.0455 39.5929C36.9467 39.4934 36.829 39.4145 36.6992 39.3606C36.5694 39.3067 36.4301 39.279 36.2895 39.279Z" fill="black"/>
</svg>
