<svg width="80" height="145" viewBox="0 0 80 145" fill="none" xmlns="http://www.w3.org/2000/svg">
<path d="M18.757 75.5756C16.9257 75.6122 16.0101 76.547 16.0101 78.38L16.0933 135.018C16.0933 140.242 13.5221 143.422 8.37972 144.558C7.6583 144.705 6.95536 144.686 6.27094 144.503C2.07191 143.367 -0.0183762 140.645 0.000121695 136.337L0.610556 9.28748C0.647551 4.00863 3.28352 0.929298 8.51842 0.0494893C9.14735 -0.0604868 9.73933 0.0128304 10.2943 0.269441C15.4367 2.59727 17.7767 6.46476 17.3142 11.8719C15.9639 27.3969 15.7696 43.7283 16.7315 60.8663C16.787 61.7277 17.2494 62.186 18.1188 62.241C30.4754 63.0658 43.1558 62.4517 56.1598 60.3989C57.4695 60.1906 58.6622 59.5265 59.5259 58.5247C60.3895 57.5229 60.8683 56.2483 60.8768 54.9276L61.1264 13.8515C61.1634 9.63574 63.2999 7.58285 67.5359 7.69283C70.1811 7.74781 71.624 7.78447 71.8644 7.8028C75.897 7.89445 77.9687 9.94734 78.0797 13.9615C79.43 68.1064 80.0682 106.268 79.9942 128.447C79.9757 133.029 78.8751 137.959 76.6924 143.238C76.3039 144.21 75.5826 144.714 74.5282 144.751L67.425 144.998C66.3336 145.035 65.5197 144.576 64.9833 143.623C62.3936 139.133 61.071 134.77 61.0155 130.536C60.775 112.922 60.5067 94.9222 60.2107 76.5379C60.1737 75.0898 59.4247 74.3842 57.9633 74.4208L18.757 75.5756Z" fill="black"/>
</svg>
