<svg width="50" height="103" viewBox="0 0 50 103" fill="none" xmlns="http://www.w3.org/2000/svg">
<path d="M12.3344 53.7432C12.2306 53.7407 12.1272 53.7583 12.0305 53.7952C11.9338 53.832 11.8457 53.8874 11.7714 53.9579C11.697 54.0284 11.6379 54.1127 11.5977 54.2058C11.5574 54.2988 11.5366 54.3988 11.5367 54.4998L11.245 98.9453C11.2399 100.009 10.8139 101.027 10.0598 101.779C9.30569 102.531 8.28432 102.956 7.21783 102.961L3.92997 103C1.47867 103.013 0.246491 101.804 0.233522 99.3721L7.39737e-05 5.35958C-0.0128959 1.97104 1.67964 0.18624 5.07774 0.00517337C5.57059 -0.0206933 6.03757 0.0504394 6.47854 0.218573C9.08548 1.18857 10.4344 2.67591 10.5252 4.68058C11.0829 17.3165 11.2579 30.3339 11.0504 43.7328C11.0374 44.5994 11.4655 45.0132 12.3344 44.9744C20.3368 44.5864 27.8463 44.7675 34.863 45.5176C35.0419 45.5369 35.2231 45.5185 35.3941 45.4636C35.5651 45.4087 35.7222 45.3185 35.8548 45.1991C35.9874 45.0798 36.0924 44.9339 36.163 44.7714C36.2335 44.6088 36.2679 44.4333 36.2638 44.2566C36.0822 32.733 36.1341 21.0542 36.4195 9.22018C36.5102 5.58591 38.6307 3.98864 42.7811 4.42838C43.0275 4.46718 43.2609 4.53831 43.4814 4.64178C47.4502 6.62058 49.4347 9.73105 49.4347 13.9732C49.4736 41.5988 49.6616 68.9529 49.9988 96.0353C50.0507 99.4756 48.3517 101.299 44.9017 101.506L44.3569 101.526C41.0237 101.732 39.182 100.18 38.8318 96.8695C37.3014 82.3065 36.7047 69.2633 37.0419 57.7396C37.0575 57.1539 36.8744 56.5795 36.5217 56.1083C36.169 55.637 35.6672 55.2961 35.0964 55.14C28.2289 53.2776 19.6689 53.9566 12.3344 53.7432Z" fill="black"/>
</svg>
