<svg width="29" height="63" viewBox="0 0 29 63" fill="none" xmlns="http://www.w3.org/2000/svg">
<path d="M19.2169 32.4169L8.17575 32.64C7.92437 32.646 7.68513 32.7498 7.50842 32.9294C7.33171 33.1089 7.23133 33.3503 7.22837 33.6027L6.85408 59.8439C6.84877 60.2988 6.74669 60.7473 6.55468 61.1594C6.36268 61.5715 6.08521 61.9377 5.7408 62.2334C5.39638 62.5291 4.99302 62.7475 4.55769 62.874C4.12236 63.0005 3.66512 63.0322 3.2166 62.967C3.08405 62.9513 2.95146 62.9357 2.81891 62.92C1.14246 62.7321 0.30037 61.789 0.292573 60.0904L0.000169503 3.51056C-0.0154253 1.35804 1.04506 0.19177 3.18155 0.0117411C3.44667 -0.0117409 3.71177 -2.31815e-07 3.97688 0.0469638C5.66892 0.313093 6.51883 1.30325 6.52663 3.01744L6.67868 26.6403C6.67868 27.0787 6.89701 27.2861 7.33367 27.2626C11.1466 27.0278 15.4157 26.065 19.1701 27.1569C19.2884 27.1915 19.413 27.198 19.5341 27.1759C19.6553 27.1539 19.7697 27.1039 19.8684 27.0299C19.967 26.9559 20.0472 26.86 20.1026 26.7496C20.158 26.6392 20.1872 26.5174 20.1877 26.3938C20.2345 23.0045 20.2695 19.6701 20.2929 16.3904C20.3163 12.5511 21.3924 9.22842 21.1935 5.4126C21.0532 2.61824 23.5445 0.915798 26.1294 2.20731C26.6299 2.45685 27.0557 2.83481 27.3639 3.30287C27.672 3.77093 27.8514 4.31244 27.8838 4.87251C28.874 21.5917 29.2054 39.3519 28.8779 58.1532C28.8389 60.2352 27.7785 61.2606 25.6966 61.2293H25.182C22.9597 61.1902 21.8251 60.0591 21.7784 57.8362C21.7316 55.3784 21.408 52.8345 20.8076 50.2045C20.2617 47.8093 20.0045 45.3555 20.0356 42.8429C20.0824 39.6415 20.1214 36.4754 20.1526 33.3444C20.1604 32.7104 19.8485 32.4012 19.2169 32.4169Z" fill="black"/>
</svg>
