<svg width="54" height="94" viewBox="0 0 54 94" fill="none" xmlns="http://www.w3.org/2000/svg">
<path d="M20.471 47.6608C20.302 47.4316 20.0594 47.2679 19.7842 47.1976C19.5089 47.1273 19.2179 47.1546 18.9604 47.275C13.6205 49.8162 8.14801 54.0338 8.24077 60.5532C8.39977 70.5052 8.39091 79.7919 8.21424 88.4135C8.17007 90.356 7.21164 91.5446 5.3389 91.9792C5.00322 92.0501 4.67196 92.0678 4.34511 92.0324C1.88052 91.7663 0.648207 90.3826 0.648207 87.8813L0.608457 3.71501C0.599624 1.72815 1.58459 0.783505 3.56334 0.881074C3.74001 0.881074 3.91225 0.88995 4.08009 0.907689C5.16187 1.00565 6.16966 1.49961 6.91046 2.295C7.65126 3.09038 8.073 4.13129 8.09499 5.21844C8.31583 16.4211 8.32908 27.81 8.13474 39.3852C8.12591 40.0771 8.41303 40.6048 8.99606 40.9685C9.45541 41.2523 9.95009 41.3765 10.4801 41.341C10.8865 41.3144 11.2133 41.137 11.4606 40.8088C18.8014 31.0431 26.235 21.4636 33.7613 12.0704C35.2453 10.2166 36.6101 8.32735 37.8557 6.40259C40.0685 3.02316 44.3087 -2.72454 48.5091 1.81241C51.1724 4.68625 49.2379 8.71761 46.9455 11.0859C40.9033 17.3125 35.4264 24.0403 30.5149 31.2693C26.5662 37.0702 27.2155 43.0307 30.9124 48.8716C39.1012 61.8216 46.1328 73.7649 52.0072 84.7014C53.3588 87.2294 53.3853 89.5754 52.0867 91.7397C50.2052 94.8397 46.3228 93.3229 44.8917 90.6753C38.8495 79.5259 32.18 68.0527 24.8834 56.2557C23.1476 53.4484 22.432 50.2952 20.471 47.6608Z" fill="#020202"/>
</svg>
