<svg width="54" height="95" viewBox="0 0 54 95" fill="none" xmlns="http://www.w3.org/2000/svg">
<path d="M10.1467 42.9855C11.3207 43.3833 12.1746 42.8795 12.8816 41.8718C20.9842 30.39 29.2736 18.8906 37.7497 7.37345C39.7509 4.65106 41.8588 2.47225 44.0735 0.837049C44.6806 0.389443 45.4074 0.13045 46.1624 0.0926995C46.9174 0.0549487 47.6667 0.240124 48.316 0.624909C51.1799 2.32199 51.6157 4.55382 49.6234 7.32041C43.5665 15.7262 36.9937 24.3575 29.9051 33.2141C26.7565 37.1518 27.2768 41.4476 29.6516 45.5444C37.932 59.7574 45.7989 73.8113 53.2522 87.7061C54.3818 89.801 54.0393 91.6218 52.2249 93.1686C51.9403 93.4073 51.6379 93.6105 51.3177 93.7785C48.694 95.122 46.6795 94.4989 45.2742 91.9091C38.817 79.9412 32.3643 68.2428 25.9161 56.8141C24.7954 54.8385 24.0883 52.863 23.2744 50.7682C23.0004 50.0543 22.458 49.4746 21.7626 49.1526C21.0673 48.8307 20.2741 48.7919 19.5523 49.0446C15.1897 50.5693 9.35956 53.2741 9.46629 58.6305C9.62639 67.4075 9.52851 76.8608 9.17274 86.9902C9.06601 89.9954 7.5007 91.4759 4.47669 91.4318L3.80962 91.4185C1.55051 91.392 0.420898 90.2562 0.420898 88.0111L0.48767 7.75794C0.48767 4.93832 1.91067 3.55061 4.7568 3.5948C5.17482 3.5948 5.58847 3.639 5.99761 3.72739C8.23004 4.17818 9.35065 5.53494 9.35954 7.79771L9.47965 42.0574C9.4798 42.2589 9.54386 42.456 9.66319 42.6221C9.78252 42.7881 9.95134 42.915 10.1467 42.9855Z" fill="#020202"/>
</svg>
