<svg width="79" height="95" viewBox="0 0 79 95" fill="none" xmlns="http://www.w3.org/2000/svg">
<path d="M34.5051 39.3154C40.8397 36.185 44.9479 31.262 48.7513 25.4027C55.0992 15.6103 64.1771 4.14563 75.15 0.506922C75.7391 0.312197 76.3801 0.355309 76.9384 0.627152C77.4968 0.898995 77.9292 1.37849 78.145 1.96512C78.9313 4.11445 78.3349 5.79108 76.3559 6.99507C63.3951 14.8745 58.5183 28.8273 48.1682 38.9542C48.0668 39.0554 47.9923 39.181 47.9517 39.3189C47.9112 39.4568 47.9059 39.6026 47.9365 39.7421C47.9671 39.8816 48.0324 40.0103 48.1264 40.116C48.2203 40.2216 48.3397 40.3006 48.473 40.3454C58.7436 43.8771 60.8772 52.2114 58.7171 62.1911C57.542 67.6313 56.4553 73.5264 55.457 79.8763C54.6619 84.933 57.8955 87.4078 62.0567 88.7188C64.0313 89.3476 64.2301 91.6218 63.5409 93.294C63.3921 93.6554 63.1501 93.9701 62.8402 94.2053C62.5303 94.4405 62.1636 94.5877 61.7784 94.6317C54.6928 95.4344 49.9485 92.6295 47.5454 86.2172C46.8474 84.3444 46.6751 82.476 47.0285 80.612C48.4598 73.0492 49.8955 65.58 51.3356 58.2045C52.727 51.1144 46.3394 47.2483 40.6542 45.4022C33.2859 42.9942 31.4835 47.877 30.3571 54.1511C28.8993 62.2847 27.0926 71.2343 24.9369 81C23.4173 87.9028 19.287 91.76 12.546 92.5716C12.2335 92.6074 11.918 92.5578 11.6332 92.4282C11.3484 92.2986 11.105 92.0939 10.9292 91.8358C9.45375 89.6865 9.60837 87.9207 11.393 86.5383C13.7917 84.6788 15.8723 82.1906 17.8866 79.9431C18.2074 79.5845 18.4271 79.1457 18.5228 78.6723C22.3571 58.6237 26.3416 38.5306 30.4764 18.3928C30.9623 16.0294 30.123 14.2145 27.9584 12.9481C26.6509 12.1811 25.4449 12.2569 24.3405 13.1755C22.5735 14.6292 20.7094 16.0294 18.7481 17.3761C13.4339 21.0549 11.0352 26.0849 10.0943 32.7202C9.80272 34.7804 10.7172 36.6666 10.7039 38.7936C10.7001 39.3018 10.5104 39.7909 10.1708 40.1682C9.83121 40.5455 9.36541 40.7847 8.86181 40.8404C3.48137 41.4157 -0.547344 36.9475 1.36099 31.5296C3.44602 25.6256 5.81823 20.881 8.47753 17.2958C11.0131 13.8979 14.4145 10.7319 18.6818 7.79773C22.9932 4.84574 27.6492 4.0431 32.6498 5.38978C35.4195 6.13892 39.965 2.76774 42.2975 1.47011C44.0644 0.489087 45.4073 0.903823 46.3262 2.71426C46.4145 2.87479 46.4985 3.03083 46.578 3.18244C47.5498 5.01963 47.2141 6.55807 45.5708 7.79773C40.6056 11.5524 37.8049 16.6849 37.1688 23.1954C36.621 28.7694 35.5829 34.0134 34.0545 38.9274C34.0336 38.9884 34.0315 39.0543 34.0483 39.1166C34.0651 39.1789 34.1001 39.2346 34.1487 39.2765C34.1974 39.3184 34.2574 39.3445 34.321 39.3514C34.3845 39.3583 34.4487 39.3458 34.5051 39.3154Z" fill="#020202"/>
</svg>
