<svg width="70" height="92" viewBox="0 0 70 92" fill="none" xmlns="http://www.w3.org/2000/svg">
<path d="M27.1906 38.0921C27.1715 38.1598 27.1747 38.2317 27.1998 38.2974C27.2248 38.3632 27.2703 38.4193 27.3297 38.4576C27.3892 38.4958 27.4593 38.5143 27.53 38.5103C27.6007 38.5063 27.6683 38.48 27.7229 38.4353C36.9069 30.5072 44.3296 21.4484 49.9908 11.259C52.1204 7.4577 53.7708 3.07568 58.2697 1.34664C61.0249 0.290738 68.3588 -0.646393 69.6232 3.39244C70.0846 4.8883 69.6676 6.129 68.3721 7.11451C55.2084 17.1456 44.6002 29.8296 46.8496 47.2125C47.1335 49.4299 47.3598 51.6473 47.5284 53.8647C48.3802 65.4532 48.926 77.0022 49.1656 88.5115C49.2011 90.5353 48.2028 91.5736 46.1708 91.6264L44.6801 91.666C42.4706 91.7276 41.3081 90.6673 41.1928 88.4851L38.7304 43.6752C38.7249 43.6063 38.7042 43.5393 38.6699 43.4793C38.6356 43.4193 38.5887 43.3678 38.5325 43.3285C38.4762 43.2892 38.4122 43.2632 38.3451 43.2524C38.278 43.2416 38.2096 43.2463 38.1448 43.266C28.9874 45.9762 23.3262 52.096 21.1611 61.6256C19.901 67.1603 18.6632 73.1965 17.4476 79.7343C16.2142 86.3513 12.2478 90.1042 5.54833 90.9929C-0.0286027 91.732 -0.960291 84.5123 3.07267 83.6148C9.87414 82.0969 9.86077 75.1939 11.0853 69.6768C14.821 52.8087 18.6588 35.6151 22.5986 18.0959C23.3794 14.629 22.0263 11.4041 18.539 8.42122C18.1906 8.12732 17.9285 7.74419 17.7803 7.31248C15.6108 1.09585 31.4099 2.56095 33.9388 2.85132C35.4828 3.02731 36.7472 3.71364 37.7322 4.91033C37.9161 5.13506 38.0524 5.39426 38.1328 5.67222C38.2133 5.95019 38.236 6.2411 38.1999 6.5274C38.1639 6.8137 38.0696 7.08939 37.9228 7.33778C37.7761 7.58617 37.5799 7.80208 37.3462 7.97242C26.9111 15.5749 30.8376 27.4935 27.1906 38.0921Z" fill="#020202"/>
</svg>
