<svg width="25" height="25" viewBox="0 0 25 25" fill="none" xmlns="http://www.w3.org/2000/svg">
<path d="M20.7283 17.6349C20.7836 17.6658 20.846 17.682 20.9094 17.6818C20.9728 17.6815 21.0351 17.6649 21.0902 17.6336C21.1452 17.6023 21.1911 17.5573 21.2233 17.503C21.2556 17.4488 21.2731 17.3871 21.2742 17.3241L21.354 1.17037C21.3585 0.390121 21.7557 0 22.5456 0H23.1979C24.0588 0 24.5048 0.425389 24.5359 1.27617C24.7312 6.94948 24.7711 12.5435 24.6557 18.0581C24.6357 19.116 24.3761 20.1475 24.2297 21.1791C24.1898 21.4259 24.2341 21.6573 24.3628 21.8733L24.8954 22.7858C25.0107 22.9798 25.0307 23.1826 24.9553 23.3942C24.4316 24.8929 23.3466 25.3426 21.7002 24.7431C21.4428 24.6461 21.3008 24.4609 21.2742 24.1876C20.9813 21.1989 17.6796 19.7244 15.2699 18.5606C14.4312 18.1551 13.7633 17.5599 13.2662 16.7753C11.9571 14.7079 10.6524 12.7837 9.35216 11.0028C7.90546 9.01912 6.15699 7.78924 4.10675 7.31316C4.03292 7.29661 3.95635 7.29609 3.8824 7.31163C3.80846 7.32717 3.73893 7.3584 3.67868 7.40313C3.61844 7.44785 3.56893 7.50499 3.53364 7.57055C3.49835 7.6361 3.47812 7.70849 3.47437 7.78263C3.24361 12.7021 3.20145 17.9501 3.34789 23.5264C3.37008 24.3199 2.984 24.7651 2.18964 24.8621L1.27103 24.9679C0.547678 25.056 0.170469 24.7409 0.139405 24.0223C-0.153486 17.4453 0.0151482 10.8816 0.645308 4.33103C0.751814 3.1805 0.631995 2.12914 0.44561 1.00506C0.392357 0.67004 0.518832 0.425391 0.825037 0.271105C1.47295 -0.0506916 2.10976 -0.0462856 2.73548 0.284327C3.89374 0.897063 4.44845 1.79413 4.39964 2.97552C4.38601 3.28221 4.47176 3.58516 4.64429 3.83985C4.81682 4.09455 5.06705 4.28756 5.35819 4.39054C8.29376 5.44189 10.577 6.40727 12.4075 9.24393C13.5969 11.091 14.7196 12.8123 15.7758 14.4081C17.0805 16.3852 18.8778 16.5902 20.7283 17.6349Z" fill="black"/>
</svg>
