<svg width="19" height="45" viewBox="0 0 19 45" fill="none" xmlns="http://www.w3.org/2000/svg">
<path d="M13.1095 30.4998C13.5026 21.3406 13.7046 12.0046 13.7153 2.49163C13.7153 1.26452 14.2889 0.47684 15.436 0.128604C15.9261 -0.0206403 16.4216 -0.0399865 16.9224 0.0705647C18.5543 0.435384 19.2248 1.46075 18.934 3.14665C18.6001 5.12552 18.4197 7.02424 18.3927 8.84281C18.2742 16.797 17.9 25.8207 17.2699 35.914C17.1487 37.8127 16.9952 43.1275 15.7026 44.2966C13.5457 46.2616 11.4615 43.683 10.9444 41.776C9.95079 38.1693 8.739 34.7698 8.18966 30.8895C7.65649 27.1528 7.10177 23.4853 6.52551 19.8869C6.28316 18.3779 5.75002 16.902 5.35418 15.4925C5.27878 15.2216 5.23837 15.2244 5.23298 15.5008L4.82906 40.5738C4.80213 42.1491 4.0239 42.9893 2.49438 43.0943C2.2628 43.1109 2.04468 43.086 1.84003 43.0197C0.542094 42.6217 -0.0691895 41.729 0.00620917 40.3416C0.668641 27.9709 0.948724 15.7716 0.846398 3.74363C0.822162 1.46351 2.93064 -0.00405305 4.79676 1.5713C6.69519 3.17982 7.88269 4.12503 8.49665 6.86118C10.2416 14.6385 11.7092 22.5235 12.8994 30.5164C13.0071 31.2184 13.0771 31.2128 13.1095 30.4998Z" fill="black"/>
</svg>
