<svg width="19" height="46" viewBox="0 0 19 46" fill="none" xmlns="http://www.w3.org/2000/svg">
<path d="M12.9078 31.8984C13.2737 34.1488 13.4967 34.1343 13.5768 31.855C13.7883 25.6999 13.9141 19.4985 13.9542 13.2508C13.9656 11.1104 13.2881 9.36334 11.9215 8.00967C11.6699 7.76092 11.5727 7.46011 11.6299 7.10723C11.973 4.83376 11.7071 1.57108 14.0571 0.382279C15.6923 -0.444962 17.1561 0.17691 18.4483 2.24791C18.7627 2.76276 18.7599 3.27473 18.4397 3.7838L17.2476 5.65811C17.0589 5.94735 17.0389 6.24817 17.1875 6.56055C18.3825 9.13484 18.9857 11.5269 18.9972 13.7367C19.0372 22.4662 18.6512 31.2216 17.8393 40.0031C17.6077 42.4675 16.9988 45.2876 14.22 45.9731C14.0981 46.0033 13.9713 46.0081 13.8475 45.9873C13.7236 45.9664 13.6053 45.9202 13.4996 45.8516C11.7157 44.6715 10.4549 42.5658 9.71735 39.5345C7.95058 32.2397 6.72696 25.266 6.04656 18.6134C6.04084 18.5787 6.02087 18.5613 5.98657 18.5613L5.76357 18.5787C5.5463 18.5845 5.43766 18.6973 5.43766 18.9171C5.44337 27.3515 5.1346 35.5892 4.51137 43.6302C4.43704 44.6252 3.90531 45.1285 2.91615 45.1401L1.51817 45.1488C1.31817 45.1511 1.11972 45.1132 0.934496 45.0372C0.749273 44.9613 0.581032 44.8489 0.439607 44.7066C0.298181 44.5643 0.186441 44.395 0.110971 44.2087C0.0355023 44.0224 -0.00221198 43.8227 0.000100232 43.6216C0.0973011 31.2534 0.446108 17.5548 1.04647 2.52558C1.13223 0.564498 3.14771 -0.754461 4.73437 0.477724C6.45826 1.80536 8.26789 3.15035 8.73102 5.53663C9.33996 8.64312 9.59729 11.6281 10.1033 14.7173C11.0296 20.3865 11.9644 26.1135 12.9078 31.8984Z" fill="black"/>
</svg>
