<svg width="18" height="55" viewBox="0 0 18 55" fill="none" xmlns="http://www.w3.org/2000/svg">
<path d="M11.502 22.3373C11.5139 19.2824 11.511 16.2498 11.4931 13.2394C11.4842 11.7502 11.8413 10.3182 12.4126 8.96256C12.5792 8.56797 12.5167 8.21475 12.2251 7.90289C11.5199 7.14871 10.8861 6.54727 10.5826 5.4876C9.91016 3.12005 10.6659 1.36984 12.85 0.236975C14.0997 -0.421739 15.4744 0.447004 16.5991 0.972067C16.7577 1.04345 16.8988 1.15191 17.0117 1.28921C17.1246 1.42651 17.2064 1.58904 17.2508 1.76444C17.7864 3.85514 18.3577 5.61171 17.715 7.82652C17.2746 9.33488 17.0544 10.9451 17.0544 12.6571C17.0604 19.9252 17.0812 27.2666 17.1169 34.6811C17.1437 41.3637 15.9118 47.2635 15.153 53.6406C15.0935 54.1116 14.8584 54.4393 14.4478 54.6239C13.4123 55.0949 12.3382 55.1235 11.2253 54.7098C10.9099 54.5953 10.6749 54.3789 10.5201 54.0606C9.58583 52.1195 8.94308 50.0925 8.59197 47.9795C7.60409 42.1306 7.04768 35.7885 6.9227 28.9531C6.8989 27.6612 6.77991 26.3755 6.56567 25.0963C6.50021 24.7017 6.44666 24.7017 6.405 25.0963C5.61946 33.4846 5.25941 41.7901 5.32487 50.0129C5.33677 51.8522 4.4828 52.7528 2.76294 52.7146L2.46835 52.705C0.70089 52.6668 -0.117379 51.7058 0.0135438 49.822C0.346803 44.9468 0.543218 40.269 0.602728 35.7885C0.739602 26.4583 1.05202 16.5935 1.54001 6.19405C1.64713 3.92196 4.07514 3.26325 5.60159 4.45657C7.76777 6.13677 9.04425 8.06837 9.43107 10.2514C10.0976 13.9745 10.6391 17.9491 11.0557 22.175C11.0617 22.226 11.0885 22.2641 11.1361 22.2896L11.386 22.4137C11.4634 22.4519 11.502 22.4264 11.502 22.3373Z" fill="black"/>
</svg>
