<svg width="15" height="48" viewBox="0 0 15 48" fill="none" xmlns="http://www.w3.org/2000/svg">
<path d="M4.70378 17.0681C4.69819 17.0348 4.67862 17.0181 4.64508 17.0181L4.41868 17.0264C4.34602 17.032 4.30968 17.0681 4.30968 17.1348L4.22585 45.7023C4.22551 46.0311 4.13967 46.3543 3.97673 46.6403C3.81379 46.9264 3.57932 47.1655 3.29625 47.3343C3.01319 47.5031 2.69124 47.5959 2.36184 47.6034C2.03245 47.6109 1.70685 47.5331 1.41699 47.3774C0.494691 46.8885 0.033571 46.0301 0.033571 44.8023C0.0279813 32.5075 0.0167691 18.2876 0 2.14265C0 0.620375 0.76303 -0.0907562 2.28902 0.00924689L4.13364 0.125917C5.61491 0.22592 6.45612 1.00372 6.65735 2.45933L10.8077 31.8269C10.8189 31.8936 10.8329 31.8964 10.8496 31.8352C11.1515 30.7102 10.8748 29.8102 10.858 28.7102C10.735 19.5654 10.6764 10.6207 10.682 1.87597C10.6876 0.775936 11.2437 0.223142 12.3505 0.217587L13.3483 0.209251C14.4494 0.203696 15 0.750936 15 1.85097C14.9665 15.757 14.9609 29.6852 14.9833 43.6356C14.9833 45.469 13.7256 46.6107 12.5098 47.6857C12.2677 47.9031 11.9481 48.0155 11.6212 47.9983C11.2943 47.9811 10.9867 47.8358 10.7658 47.5941C10.2683 47.0441 9.79599 46.4774 9.34881 45.894C8.13305 44.319 8.40135 42.5106 6.98436 41.0272C6.72723 40.755 6.71046 40.4716 6.93405 40.1772C7.34769 39.6438 7.50981 39.1077 7.42037 38.5688C6.20181 31.4408 5.29629 24.2739 4.70378 17.0681Z" fill="black"/>
</svg>
