<svg width="30" height="32" viewBox="0 0 30 32" fill="none" xmlns="http://www.w3.org/2000/svg">
<path d="M6.55903 3.65669L2.0779 31.2597C2.04271 31.475 1.92778 31.6698 1.75538 31.8063C1.58298 31.9428 1.36538 32.0113 1.14475 31.9985C1.04904 31.9917 0.953336 31.9816 0.857629 31.9681C0.194516 31.8568 -0.0840628 31.4722 0.0218986 30.8144L4.85168 0.807835C4.87699 0.646384 4.94396 0.49415 5.0462 0.365645C5.14844 0.237139 5.28255 0.136642 5.43574 0.0737313C5.58894 0.0108206 5.75611 -0.0124046 5.92133 0.00626389C6.08655 0.0249324 6.2443 0.0848751 6.37956 0.18038C7.79466 1.19241 9.01494 2.18925 9.85579 3.82368C12.7407 9.4303 15.7965 15.3793 19.0232 21.6707C20.2486 24.0591 21.7406 25.982 23.3556 28.0415C23.3779 28.0706 23.4083 28.0927 23.4432 28.105C23.478 28.1173 23.5158 28.1193 23.5517 28.1107C23.5877 28.1021 23.6203 28.0832 23.6456 28.0566C23.6709 28.0299 23.6877 27.9965 23.694 27.9605L28.1649 2.12853C28.264 1.55505 28.6092 1.27168 29.2006 1.27843C29.2963 1.27843 29.3869 1.30035 29.4723 1.34421C29.8928 1.57023 30.0619 1.91432 29.9799 2.37648C28.452 11.0226 26.9139 19.8407 25.3655 28.8308C25.2065 29.7771 24.1298 30.3185 23.3454 30.6828C22.8976 30.8852 22.5353 30.7874 22.2584 30.3894C20.8125 28.3299 19.3769 26.2856 18.2438 24.1199C14.9829 17.8993 11.5495 11.343 7.94337 4.45113C7.70069 3.99234 7.33151 3.67355 6.83589 3.49476C6.67865 3.43741 6.58638 3.49139 6.55903 3.65669Z" fill="black"/>
</svg>
