<svg width="39" height="47" viewBox="0 0 39 47" fill="none" xmlns="http://www.w3.org/2000/svg">
<path d="M33.6528 38.2104L34.3589 5.3525C34.3863 4.16904 34.9896 3.48436 36.1687 3.29846C36.3378 3.27125 36.5069 3.25991 36.676 3.26445C38.2299 3.30979 39.0045 4.10556 39 5.65176C38.9543 17.5725 38.8492 29.9239 38.6846 42.7061C38.6709 43.6107 38.808 44.5697 38.0745 45.2635C36.9502 46.329 35.7803 46.4016 34.5646 45.4811C32.9879 44.2886 31.6785 42.9691 30.6365 41.5227C23.3515 31.393 16.2906 21.5694 9.45351 12.0519C8.39779 10.5828 7.09528 9.46058 5.64195 8.35194C5.59439 8.31494 5.53731 8.29197 5.47722 8.28563C5.41712 8.27929 5.35644 8.28985 5.30211 8.31609C5.24777 8.34234 5.20197 8.38321 5.16994 8.43405C5.1379 8.48489 5.12093 8.54364 5.12094 8.6036L4.84673 44.6786C4.83759 45.8575 4.26174 46.6079 3.11919 46.9298C2.88154 46.9933 2.64388 47.0137 2.40623 46.9911C0.898061 46.8369 0.14169 46.0071 0.137119 44.5017C0.100558 31.4157 0.0548562 17.3412 1.35388e-05 2.27824C-0.00684179 0.142579 2.59133 -0.714404 4.07208 0.679895C5.74478 2.25783 7.37635 3.8199 8.96678 5.3661C10.347 6.70372 11.6975 8.293 13.0183 10.1339C19.8965 19.7013 26.6718 29.0919 33.3443 38.3056C33.5409 38.5731 33.6437 38.5414 33.6528 38.2104Z" fill="black"/>
</svg>
