<svg width="55" height="66" viewBox="0 0 55 66" fill="none" xmlns="http://www.w3.org/2000/svg">
<path d="M7.3491 11.9852L6.25209 62.6963C6.20678 64.6186 5.21979 65.7111 3.2911 65.9738C2.99338 66.0187 2.6989 66.0059 2.40766 65.9354C0.796103 65.5637 -0.00643327 64.5609 3.88328e-05 62.9269C0.0259272 43.4537 0.0679932 24.2561 0.126242 5.33395C0.13595 2.19094 3.26197 -2.20158 6.66953 1.27783C8.83769 3.48211 11.0544 5.7889 13.3196 8.19822C15.326 10.3192 17.3356 12.8118 19.3484 15.6761C28.3575 28.466 37.3538 41.2495 46.337 54.0266C47.0878 55.0903 47.4599 54.9717 47.4535 53.6709C47.3758 38.5422 48.3563 23.1155 48.6767 8.39046C48.7091 6.75007 49.4889 5.60948 51.0164 4.9687C51.4565 4.78288 51.8966 4.77968 52.3367 4.9591C54.1748 5.72803 55.0614 7.09929 54.9967 9.07288C54.453 25.874 54.3754 43.1269 53.8608 60.4952C53.822 61.8921 53.4272 62.9173 52.6765 63.5709C49.2203 66.5601 44.1333 60.3895 42.4246 57.9577C33.5902 45.3536 24.5487 32.4132 15.3001 19.1363C13.174 16.0798 10.8829 13.821 7.97042 11.6776C7.91273 11.6348 7.84413 11.6087 7.77231 11.6023C7.70048 11.5959 7.62827 11.6094 7.56376 11.6413C7.49926 11.6733 7.44501 11.7223 7.4071 11.7831C7.36918 11.8438 7.3491 11.9138 7.3491 11.9852Z" fill="black"/>
</svg>
