<svg width="45" height="54" viewBox="0 0 45 54" fill="none" xmlns="http://www.w3.org/2000/svg">
<path d="M6.96471 9.18665C6.61086 8.89972 6.42602 8.98474 6.41018 9.4417L4.97628 51.4688C4.92875 52.7813 4.27387 53.6048 3.01163 53.9396C2.78453 54.0034 2.5548 54.0166 2.32242 53.9794C0.738017 53.7085 -0.0357049 52.7653 0.00126441 51.15C0.360395 35.9375 0.56373 20.5336 0.611262 4.9385C0.619184 1.94966 3.66915 -2.10719 6.7112 1.28813C8.46989 3.24882 10.2788 5.27326 12.1378 7.36147C13.8225 9.25307 15.4809 11.4183 17.1128 13.8572C24.475 24.8455 31.412 35.1989 37.9239 44.9173C38.283 45.4539 38.4758 45.3981 38.5022 44.7499L40.1975 6.18983C40.2662 4.62235 41.0821 3.83595 42.6454 3.83064C42.8831 3.83064 43.1154 3.86518 43.3425 3.93426C44.4833 4.29026 45.0352 5.06869 44.9983 6.26954C44.6286 17.4066 44.2536 28.5065 43.8733 39.5692C43.7624 42.8742 43.6093 46.1872 43.4139 49.5081C43.3558 50.5602 43.1128 51.3147 42.685 51.7717C40.5461 54.0432 36.4346 50.1298 35.2779 48.4162C28.0742 37.8105 20.9022 27.1728 13.7618 16.5033C11.8288 13.6181 9.60274 11.3466 6.96471 9.18665Z" fill="black"/>
</svg>
