<svg width="67" height="79" viewBox="0 0 67 79" fill="none" xmlns="http://www.w3.org/2000/svg">
<path d="M57.0336 66.0713C58.0932 44.9942 59.1841 25.8393 60.3065 8.60662C60.4478 6.50681 61.5584 5.36612 63.6382 5.18456C63.9836 5.16087 64.3289 5.20824 64.6742 5.32665C66.3067 5.91081 67.0798 7.07123 66.9935 8.80791C65.8868 30.1376 64.7488 51.5699 63.5793 73.1048C63.5401 73.9337 63.234 74.6442 62.6611 75.2362C61.5073 76.4519 60.0554 76.6927 58.3051 75.9585C55.5267 74.7902 53.4233 73.1206 51.9949 70.9498C41.674 55.2406 31.6435 39.8867 21.9034 24.8881C18.5246 19.6898 14.0627 15.806 10.0482 11.259C10.0133 11.2167 9.96666 11.1866 9.91418 11.1725C9.8617 11.1585 9.80584 11.1613 9.75383 11.1804C9.70182 11.1995 9.65606 11.2342 9.62248 11.2799C9.5889 11.3256 9.56902 11.3802 9.56546 11.4366C8.64718 32.5295 7.73284 54.1236 6.8224 76.219C6.76746 77.4742 5.84525 78.3741 4.05577 78.9188C3.74183 79.0135 3.42397 79.0254 3.10217 78.9543C0.943817 78.4491 -0.088276 77.0795 0.00590691 74.8455C1.01837 50.6029 1.86212 27.7141 2.5371 6.17921C2.59204 4.48988 3.24344 3.0137 4.49136 1.75066C6.91657 -0.696494 9.25154 -0.578089 11.4962 2.10588C16.6763 8.32244 21.9858 14.2193 26.4713 21.0752C36.6195 36.6186 46.493 51.7041 56.0918 66.3318C56.6726 67.208 56.9865 67.1212 57.0336 66.0713Z" fill="black"/>
</svg>
