<svg width="97" height="111" viewBox="0 0 97 111" fill="none" xmlns="http://www.w3.org/2000/svg">
<path d="M81.7776 94.0256L87.6924 10.1668C87.764 9.13033 88.2212 8.15762 88.9745 7.43869C89.7278 6.71976 90.7233 6.30625 91.7663 6.27896C92.1299 6.26769 92.4879 6.28461 92.8402 6.32969C95.7947 6.71283 97.1754 8.38064 96.9822 11.3331C95.0618 40.7341 93.1072 70.9691 91.1186 102.038C90.5731 110.693 78.164 105.165 75.556 101.176C61.7265 80.0125 47.9196 58.7421 34.1355 37.3647C28.5616 28.7101 21.59 21.6613 15.1468 13.9363C14.5218 13.1926 14.1809 13.2996 14.1241 14.2575L9.23202 105.807C9.09565 108.264 7.86837 109.943 5.55019 110.845C4.92518 111.081 4.28313 111.048 3.62404 110.743C1.07858 109.526 -0.125963 107.515 0.0104007 104.709C1.77177 68.1518 3.3854 35.1898 4.85131 5.82257C5.02177 2.50947 9.04451 1.52906 11.5672 0.278191C12.1127 0.00773368 12.6866 -0.0655235 13.2889 0.0584362C14.7548 0.362701 16.0673 1.20226 17.2264 2.57708C25.2718 12.229 33.3344 20.9175 40.5276 31.9556C54.1412 52.8935 67.6753 73.6398 81.1299 94.1946C81.5049 94.7693 81.7208 94.713 81.7776 94.0256Z" fill="black"/>
</svg>
