<svg width="130" height="147" viewBox="0 0 130 147" fill="none" xmlns="http://www.w3.org/2000/svg">
<path d="M107.366 124.404C108.337 125.919 108.898 125.783 109.05 123.995L118.2 12.4069C118.443 9.40697 120.029 7.54339 122.958 6.81614C123.61 6.64947 124.263 6.66462 124.915 6.86158C128.572 7.89186 130.257 10.2933 129.968 14.0659C127.07 52.7922 124.035 92.8214 120.864 134.154C120.499 138.896 118.231 141.093 114.058 140.744C109.915 140.403 103.86 138.813 101.379 134.926C83.6704 107.336 66.4397 80.1551 49.6868 53.3831C41.2649 39.9062 31.1357 28.8383 21.4846 16.6795C20.3921 15.3159 19.7927 15.5053 19.6865 17.2477L12.1295 139.585C11.917 143.085 10.1794 145.479 6.91689 146.767C6.15816 147.07 5.41464 147.078 4.68626 146.79C1.90929 145.684 0.391822 144.04 0.133852 141.858C-0.34415 137.722 0.589132 132.267 0.885038 127.745C3.61648 87.0488 6.24161 46.406 8.76061 5.81616C8.83648 4.75558 9.29181 3.89955 10.1264 3.24805C13.5255 0.642062 17.4558 -0.395796 21.9171 0.134493C22.7329 0.235373 23.4764 0.651494 23.9884 1.29356C35.2329 15.4523 47.0692 29.1337 56.7886 44.4969C73.3442 70.6932 90.2032 97.3289 107.366 124.404Z" fill="black"/>
</svg>
