<svg width="77" height="85" viewBox="0 0 77 85" fill="none" xmlns="http://www.w3.org/2000/svg">
<path d="M64.0232 71.5279L70.352 7.0154C70.5491 4.99703 71.642 3.75667 73.6306 3.29431C74.0069 3.21429 74.3697 3.24096 74.719 3.37433C76.3942 4.01452 77.1467 5.22377 76.9765 7.00207L70.3386 77.8364C70.263 78.628 69.9186 79.3707 69.362 79.9426C68.8053 80.5145 68.0694 80.8817 67.2749 80.984C64.1575 81.3708 60.758 80.7439 58.9171 77.7564C50.5145 64.1079 41.1086 48.8723 30.6994 32.0495C25.5396 23.7404 19.4123 16.5916 13.3791 8.93598C12.5997 7.94902 12.1877 8.08239 12.1429 9.3361C11.9637 14.1464 11.6502 19.2235 11.2023 24.5673C9.49132 44.5465 7.95953 63.6233 6.60687 81.7976C6.5463 82.5975 6.19295 83.3509 5.61246 83.9182C4.73458 84.7807 3.85225 85.1274 2.96541 84.9585C0.81549 84.5495 -0.165414 83.2647 0.0227038 81.104L6.66059 2.69414C6.81287 0.969182 7.76242 0.0933651 9.50923 0.0666905L14.6824 0C14.9625 0.000303844 15.2381 0.0642933 15.4876 0.186945C15.737 0.309597 15.9536 0.487568 16.1202 0.706874C23.4837 10.4698 30.3097 19.8325 36.9476 30.5024C45.5204 44.2842 54.1246 58.0572 62.7601 71.8213C63.4767 72.9594 63.8977 72.8616 64.0232 71.5279Z" fill="black"/>
</svg>
