<svg width="56" height="61" viewBox="0 0 56 61" fill="none" xmlns="http://www.w3.org/2000/svg">
<path d="M9.43556 6.21342C7.78061 24.0573 6.0932 41.7535 4.37336 59.3021C4.29548 60.0723 3.66595 60.6243 2.48477 60.9581C2.16676 61.0479 1.84871 60.9934 1.5307 60.7944C0.388465 60.0691 -0.114497 59.0389 0.0217929 57.7038L5.67781 1.88084C5.70705 1.59454 5.79553 1.31725 5.93765 1.06636C6.07976 0.815468 6.27242 0.596383 6.50366 0.42283C6.73489 0.249277 6.99966 0.125 7.28137 0.0577925C7.56308 -0.00941536 7.85569 -0.0181113 8.14079 0.0322594L11.7914 0.677339C12.0322 0.720164 12.2619 0.809401 12.4674 0.939928C12.6729 1.07045 12.8501 1.23969 12.9888 1.43794C15.3122 4.76922 17.7654 8.28343 20.3484 11.9806C26.2186 20.3954 30.7941 29.3879 35.8757 38.4479C38.6307 43.3485 42.0672 47.8159 45.3576 52.3121C45.6431 52.7037 45.8152 52.6587 45.8736 52.1773L51.4225 4.29745C51.5912 2.84042 52.4122 2.17609 53.8854 2.30446L54.2749 2.33334C55.5534 2.44246 56.1213 3.12604 55.9785 4.3841C54.1223 21.1753 52.2662 38.2778 50.41 55.6916C50.2543 57.1165 49.1153 57.8097 47.7524 58.0504C45.4647 58.4355 43.6929 58.1852 42.3203 56.2018C38.7573 51.0316 34.9217 46.0347 31.8357 40.4601C29.0125 35.3765 26.1115 30.1004 23.1326 24.6317C19.6183 18.1906 14.7313 12.0769 10.2922 5.98235C9.79894 5.30839 9.51344 5.38542 9.43556 6.21342Z" fill="black"/>
</svg>
