<svg width="47" height="51" viewBox="0 0 47 51" fill="none" xmlns="http://www.w3.org/2000/svg">
<path d="M8.7012 5.7017L3.51716 49.1314C3.42507 49.9019 3.03233 50.4731 2.33896 50.8449C2.06269 50.9904 1.79185 51.0335 1.52641 50.9743C0.383434 50.721 -0.117666 50.0178 0.0231754 48.8646L5.75166 1.28842C5.77417 1.09267 5.83663 0.903544 5.93525 0.732512C6.03388 0.561479 6.16661 0.412099 6.32541 0.293436C6.48421 0.174773 6.66575 0.0893013 6.85904 0.0421943C7.05233 -0.00491262 7.25332 -0.0126703 7.44985 0.0193957C9.82248 0.41546 11.8457 1.28841 13.1621 3.43848C16.4285 8.76514 19.8574 13.6472 22.8476 19.2083C25.3069 23.794 27.7364 28.3771 30.1361 32.9574C32.2406 36.9827 35.1008 40.5473 37.7822 44.1684C37.9664 44.4163 38.0801 44.3867 38.1234 44.0795L43.4863 3.41423C43.6325 2.29339 44.2717 1.75992 45.4039 1.81381C45.7993 1.83536 46.1704 1.98894 46.517 2.27454C46.6911 2.41784 46.8257 2.60282 46.9081 2.81208C46.9906 3.02134 47.0182 3.24803 46.9883 3.47082L41.3086 46.7954C41.2653 47.0918 41.1163 47.3208 40.8617 47.4824C39.2204 48.5413 36.5959 49.6972 35.2064 47.5875C32.4763 43.4733 29.5023 39.5127 27.2028 35.1075C23.4976 28.0106 20.1418 20.7602 15.6972 14.1969C13.7308 11.3032 11.7509 8.38794 9.7575 5.45113C9.17788 4.59434 8.82579 4.67786 8.7012 5.7017Z" fill="black"/>
</svg>
