<svg width="35" height="36" viewBox="0 0 35 36" fill="none" xmlns="http://www.w3.org/2000/svg">
<path d="M29.6521 25.7092C29.3614 19.9652 29.3831 13.9979 29.7171 7.80731C29.8191 6.01154 29.1975 4.35534 29.2996 2.55026C29.3924 0.819622 30.3016 -0.030196 32.0273 0.000819055L32.5097 0.0101256C34.155 0.0473436 34.9838 0.887851 34.9962 2.53165C35.0333 7.79801 34.7828 12.8783 34.9127 18.3121C35.0055 22.0773 34.9158 25.8022 34.6437 29.4868C34.6251 29.7722 34.5045 30.287 34.2818 31.0314C32.5747 36.6792 26.3121 30.8918 24.5957 28.7797C20.7608 24.053 15.8405 18.613 9.83456 12.4596C8.60988 11.2066 7.32644 10.2606 5.98424 9.62169C5.61931 9.44801 5.43684 9.56276 5.43684 9.96596C5.42756 12.227 5.64096 14.4973 5.52962 16.7769C5.2451 22.4402 5.09975 28.1625 5.09356 33.9437C5.09356 35.3146 4.41009 36 3.04315 36H1.78135C0.593783 36 0 35.4045 0 34.2135C0 23.4389 0.0340124 12.9961 0.10205 2.88523C0.114421 1.57639 0.69584 0.686255 1.8463 0.214826C2.41798 -0.0174457 3.05524 -0.030141 3.63688 0.179162C4.21851 0.388465 4.70393 0.805162 5.00078 1.34998C5.66879 2.55957 6.40174 3.63889 7.56148 4.42046C10.5366 6.43024 13.0509 8.50205 15.1044 10.6359C19.9289 15.6603 24.5307 20.7809 28.9099 25.9976C29.4418 26.6366 29.6893 26.5404 29.6521 25.7092Z" fill="black"/>
</svg>
