<svg width="28" height="30" viewBox="0 0 28 30" fill="none" xmlns="http://www.w3.org/2000/svg">
<path d="M23.342 22.066L23.4615 2.1185C23.4715 0.716288 24.1713 0.0101601 25.5611 0.000108472H26.0168C27.3916 -0.0099432 28.0516 0.678595 27.9968 2.06573C27.7179 9.71002 27.561 16.603 27.5261 22.7445C27.5112 24.8252 27.2646 26.4712 26.7864 27.6824C25.0978 31.9041 19.9872 25.5113 18.8739 24.0638C15.2077 19.2993 11.4096 14.565 7.47946 9.8608C6.83689 9.09185 6.03243 8.42844 5.06608 7.87057C4.80208 7.7198 4.67008 7.79518 4.67008 8.09673L4.58042 28.0066C4.57544 29.3887 3.88805 30.0521 2.51823 29.9968L2.01761 29.9817C0.657754 29.9315 -0.0146998 29.2178 0.000243644 27.8407L0.306588 2.8196C0.311683 2.40714 0.437544 2.00566 0.66842 1.66542C0.899297 1.32518 1.22493 1.0613 1.60457 0.906793C1.9842 0.75229 2.40098 0.714034 2.80272 0.79681C3.20446 0.879587 3.57331 1.07972 3.86313 1.37216C6.48571 4.04088 9.6089 6.01604 12.0746 8.97123C16.0147 13.6905 19.5488 18.1308 22.677 22.2922C23.1153 22.8752 23.337 22.7998 23.342 22.066Z" fill="black"/>
</svg>
