<svg width="36" height="40" viewBox="0 0 36 40" fill="none" xmlns="http://www.w3.org/2000/svg">
<path d="M6.28872 9.72802L5.54948 37.9261C5.51573 39.2684 4.817 39.9529 3.45331 39.9796L2.22802 39.9996C1.9348 40.005 1.64349 39.9523 1.37138 39.8446C1.09928 39.7368 0.851943 39.5763 0.644105 39.3726C0.436267 39.1689 0.272165 38.9261 0.16155 38.6587C0.0509343 38.3912 -0.00392903 38.1046 0.000218802 37.8159L0.547038 2.63593C0.549452 2.28868 0.667978 1.95199 0.884131 1.67837C1.10028 1.40475 1.4019 1.2096 1.74195 1.12335C5.69124 0.131656 8.13171 3.00656 10.5722 5.53086C13.4143 8.4692 15.2675 10.5795 16.1316 11.8617C20.4319 18.2125 24.7491 24.4598 29.0832 30.6036C29.4815 31.1712 29.6875 31.1078 29.701 30.4133L30.1465 3.06666C30.1803 1.08328 31.1997 0.0615333 33.2047 0.00143084C33.4275 -0.00524721 33.6469 0.011451 33.8629 0.0515193C35.3076 0.352032 36.0198 1.23019 35.9996 2.68601C35.8713 12.4961 35.7532 21.7719 35.6452 30.5135C35.6114 32.7306 35.1996 35.138 34.4097 37.7358C34.3017 38.083 34.0823 38.3334 33.7515 38.487C31.2537 39.6223 28.9246 38.9378 26.7643 36.4335C20.972 29.7121 16.2531 21.9088 11.1595 14.5162C10.4574 13.4944 8.94185 11.855 6.61277 9.59779C6.40349 9.39077 6.29547 9.43419 6.28872 9.72802Z" fill="black"/>
</svg>
