<svg width="46" height="55" viewBox="0 0 46 55" fill="none" xmlns="http://www.w3.org/2000/svg">
<path d="M8.30479 11.2779C8.60342 13.3768 8.70884 15.4051 8.62101 17.363C8.12037 28.2015 7.85246 38.9519 7.81733 49.6141C7.80854 52.0305 6.64918 53.5694 4.3392 54.2308C3.79464 54.3895 3.27204 54.3543 2.7714 54.125C0.847876 53.2431 -0.0743683 51.7394 0.00468048 49.6141C0.575588 34.5159 1.04109 18.8137 1.40121 2.50736C1.41877 1.65191 1.79207 1.03899 2.52107 0.668594C6.07827 -1.15694 11.9806 1.67397 13.9436 4.90172C17.2636 10.3386 21.1371 14.876 24.0224 20.5643C27.6059 27.6371 31.7252 34.8863 36.3803 42.3119C37.2235 43.6436 37.5616 43.5245 37.3948 41.9547C37.2279 40.4643 37.1796 39.0224 37.2498 37.629C37.8383 25.5294 38.0447 14.9201 37.869 5.80126C37.8427 4.43431 38.1369 3.12469 38.7518 1.87239C40.0165 -0.733622 43.7713 -0.323539 45.4445 1.30357C45.6593 1.51164 45.8198 1.77009 45.9117 2.05615C46.0036 2.34221 46.0242 2.64709 45.9716 2.9439C45.6685 4.76943 45.2469 6.47591 45.2469 8.3279C45.2118 21.6622 44.8824 34.7981 44.2588 47.7356C44.1886 49.0761 43.9207 50.4386 43.4552 51.8232C42.0323 56.0167 38.1062 55.6727 35.3922 53.027C33.9034 51.5719 32.4806 50.3945 31.4134 48.5955C26.7627 40.7906 22.1647 33.1975 17.9883 25.0487C15.4411 20.0836 12.4109 15.4051 8.89767 11.0133C8.38824 10.3871 8.19061 10.4753 8.30479 11.2779Z" fill="black"/>
</svg>
