<svg width="61" height="81" viewBox="0 0 61 81" fill="none" xmlns="http://www.w3.org/2000/svg">
<path d="M12.2507 16.012L11.4184 72.2186C11.3567 75.9028 9.56877 78.2994 6.0545 79.4084C5.38864 79.6179 4.73511 79.5809 4.09391 79.2975C1.25783 78.0776 -0.104708 75.9275 0.00626865 72.847L2.66967 2.79671C2.69731 2.19344 2.93377 1.61849 3.33861 1.17012C3.74344 0.721749 4.29154 0.427789 4.88923 0.338479C10.4381 -0.493252 18.373 1.92801 21.1474 7.75013C25.1611 16.1229 29.9331 23.7563 33.6693 32.4248C37.6028 41.5554 41.5918 50.5011 45.6363 59.262C47.116 62.4657 47.936 62.3055 48.0963 58.7815C48.7375 43.8103 49.2184 27.8842 49.539 11.0031C49.613 7.52834 50.3343 4.36159 51.7031 1.5029C51.999 0.886801 52.4799 0.480184 53.1458 0.283033C56.623 -0.696562 61.2656 0.856004 60.9881 5.10708C59.6441 25.7956 58.8303 46.8969 58.5467 68.4111C58.5097 72.1076 57.1964 74.8062 56.2161 78.244C56.0312 78.934 55.6304 79.4762 55.0139 79.8705C49.8535 83.2159 44.0272 78.4843 41.7151 74.0853C34.7606 60.9501 29.5077 49.9343 25.9564 41.0379C22.4545 32.2523 18.1818 23.8303 13.1385 15.7717C12.5713 14.8476 12.2754 14.9277 12.2507 16.012Z" fill="black"/>
</svg>
