<svg width="82" height="126" viewBox="0 0 82 126" fill="none" xmlns="http://www.w3.org/2000/svg">
<path d="M62.1942 92.7921C63.3761 67.8356 64.0465 42.3176 64.2052 16.2381C64.2229 11.4073 65.9075 6.49619 69.2591 1.50489C69.7707 0.738368 70.4764 0.283797 71.3761 0.141189C77.0651 -0.660984 83.5477 4.98096 81.6691 10.9973C78.5732 21.0244 80.5577 32.9233 79.711 44.1538C77.4178 74.1015 76.4036 93.9687 76.6682 103.755C76.8798 111.75 74.0485 131.671 61.5327 124.451C57.9341 122.366 55.1559 119.246 53.1978 115.093C48.1968 104.45 43.2221 93.1932 39.6235 81.9896C33.6699 63.5128 28.5101 42.8435 19.3019 25.9712C18.4728 24.4559 18.0407 24.5629 18.0054 26.292L16.1002 114.21C16.012 118.417 13.8952 120.574 9.74975 120.681C9.1147 120.699 8.40019 120.717 7.60638 120.735C2.33194 120.931 -0.199432 118.373 0.0122518 113.06L4.06069 4.874C4.10646 3.70089 4.55931 2.58226 5.33898 1.71607C6.11865 0.84989 7.17491 0.29202 8.32086 0.141189C12.7839 -0.411419 17.6172 0.658137 22.8211 3.34987C26.261 5.1503 29.0394 8.49269 31.1562 13.377C42.3754 39.4476 50.2606 66.5878 59.6012 93.1932C61.1182 97.5072 61.9825 97.3734 62.1942 92.7921Z" fill="black"/>
</svg>
