<svg width="47" height="83" viewBox="0 0 47 83" fill="none" xmlns="http://www.w3.org/2000/svg">
<path d="M10.9156 25.9706C11.2583 30.112 10.4873 35.5828 10.3845 40.3378C10.1447 52.8473 9.8534 65.0159 9.51075 76.8437C9.44222 79.2184 8.23154 80.5818 5.87868 80.934C5.41039 81.0022 4.94209 81.0192 4.47381 80.9851C1.42423 80.7579 -0.0662706 79.1218 0.00225926 76.0768L1.49277 2.86036C1.5042 2.22409 1.7612 1.70145 2.26376 1.29241C6.23849 -1.9287 13.6397 1.51398 16.4323 4.61579C17.8943 6.25191 19.0593 8.47885 19.9273 11.2966C25.3754 29.1122 30.0926 45.8256 34.0787 61.4369C34.2843 62.2777 34.6897 63.0844 35.2951 63.857C35.9347 64.6637 36.2545 64.5558 36.2545 63.5332C36.2545 48.7627 36.6715 33.4581 37.5052 17.6195C37.6594 14.5177 36.58 12.1147 36.58 9.21738C36.5686 3.94543 39.0586 1.78666 44.0498 2.74106C45.7402 3.07056 46.614 4.09314 46.6711 5.80879C47.4934 29.828 46.7738 53.3642 44.5124 76.4176C44.2382 79.2468 42.662 82.7235 39.3726 82.9792C34.0958 83.3712 30.4638 78.156 28.5963 73.6056C24.93 64.6751 22.3429 56.9149 20.8353 50.3249C18.8993 41.8887 16.4323 33.7762 13.9481 25.4082C11.1041 15.8414 10.0933 16.0289 10.9156 25.9706Z" fill="black"/>
</svg>
