<svg width="32" height="65" viewBox="0 0 32 65" fill="none" xmlns="http://www.w3.org/2000/svg">
<path d="M8.30996 16.1576C8.04617 15.2362 7.90575 15.2575 7.88873 16.2216L7.28886 59.4773C7.26333 61.4055 6.30177 62.5317 4.4042 62.8559C4.25103 62.8815 4.09361 62.9028 3.93194 62.9199C3.43342 62.9809 2.92781 62.928 2.44917 62.7649C1.97053 62.6018 1.52998 62.3322 1.15735 61.9744C0.784727 61.6165 0.488652 61.1788 0.289102 60.6906C0.0895532 60.2024 -0.00881989 59.6752 0.000620527 59.1446L1.0345 1.90115C1.04005 1.42462 1.22575 0.967626 1.55459 0.621313C1.88343 0.275 2.33127 0.0648221 2.8087 0.0327048C5.58273 -0.163524 8.08874 0.523278 10.3267 2.09311C11.7562 3.10838 12.905 5.13041 13.773 8.15916C17.5426 21.2724 20.6059 34.6032 22.9629 48.1515C22.9714 48.1771 22.9928 48.1899 23.0268 48.1899L23.3586 48.2283C23.4147 48.2356 23.4717 48.2308 23.5258 48.2142C23.5799 48.1975 23.6298 48.1695 23.6721 48.1319C23.7144 48.0943 23.7482 48.048 23.7712 47.9962C23.7942 47.9444 23.8059 47.8883 23.8054 47.8316C23.865 37.2096 24.1628 27.2488 24.6989 17.9493C24.8265 15.6713 24.6308 13.0521 24.1117 10.0916C23.6267 7.35291 23.5671 4.4436 23.933 1.36365C23.9841 0.937066 24.2053 0.651257 24.5968 0.506218C27.826 -0.683955 31.7573 0.416631 31.8467 4.51185C32.1105 17.2923 32.0339 29.7742 31.6169 41.9575C31.4382 47.213 30.9362 52.6307 30.1108 58.2104C29.6002 61.6231 27.9452 63.8584 25.1456 64.9163C24.9398 64.9912 24.7192 65.0163 24.5018 64.9897C24.2844 64.963 24.0765 64.8852 23.8948 64.7627C20.908 62.7066 19.0657 60.2921 18.368 57.5193C16.9767 52.0164 15.1004 46.6414 14.0921 41.0361C12.4242 31.9072 10.4968 23.6143 8.30996 16.1576Z" fill="black"/>
</svg>
