<svg width="60" height="79" viewBox="0 0 60 79" fill="none" xmlns="http://www.w3.org/2000/svg">
<path d="M23.5075 48.265L23.4895 67.8881C23.4895 68.5822 23.837 69.0057 24.5319 69.1587L34.1107 71.188C34.7816 71.3292 35.2129 71.7233 35.4046 72.3703C35.8719 73.9938 35.782 75.5585 35.135 77.0643C34.7996 77.8526 34.1945 78.282 33.3199 78.3526C31.1514 78.5408 29.0667 78.482 27.0659 78.1761C21.8901 77.3761 16.912 77.3702 12.1316 78.1584C9.61561 78.5702 7.08164 78.5702 4.5297 78.1584C3.83481 78.0408 3.38552 77.6585 3.18185 77.0114C2.72657 75.5409 2.68464 73.9997 3.05605 72.388C3.2118 71.6939 3.64311 71.2645 4.34999 71.0998L12.491 69.2116C12.8395 69.1254 13.1487 68.9276 13.37 68.6496C13.5913 68.3716 13.712 68.0292 13.7131 67.6763V9.9189C13.7133 9.72279 13.673 9.52868 13.5945 9.34835C13.5159 9.16802 13.4009 9.00525 13.2564 8.86992C13.1118 8.73458 12.9408 8.62951 12.7536 8.56109C12.5664 8.49266 12.367 8.46231 12.1676 8.47188C9.4958 8.62482 6.84802 8.53659 4.22419 8.20718C1.74413 7.90131 0.42024 6.6131 0.252507 4.34257C0.240526 4.1661 0.264488 4.0014 0.324393 3.84847C0.644175 3.06279 1.14356 2.38618 1.76033 1.90293C2.3771 1.41969 3.08398 1.15119 3.79287 1.13088C15.3305 0.777949 25.8498 0.701482 35.3507 0.901477C38.5616 0.972064 43.8272 2.48379 51.1476 5.43666C51.7466 5.68371 52.2198 6.07194 52.5673 6.60134L59.4503 17.0481C59.8697 17.6834 59.9116 18.3364 59.5761 19.0069C57.15 23.948 58.6596 29.8067 56.5749 34.5536C50.5186 48.3003 37.8667 49.0238 24.7296 47.2239C23.9149 47.1062 23.5075 47.4533 23.5075 48.265ZM23.4356 12.9188L23.5075 35.4712C23.5075 36.0544 23.6248 36.6318 23.8526 37.1703C24.0804 37.7089 24.4143 38.1979 24.8351 38.6095C25.2558 39.021 25.7552 39.3469 26.3046 39.5685C26.8539 39.79 27.4424 39.9029 28.0363 39.9005L31.5228 39.8829C35.9691 39.8679 40.2277 38.2254 43.3619 35.3165C46.4962 32.4077 48.2495 28.4707 48.2362 24.3715V23.8774C48.2296 21.8471 47.7893 19.838 46.9404 17.9649C46.0914 16.0918 44.8505 14.3914 43.2884 12.9608C41.7264 11.5302 39.8738 10.3975 37.8365 9.62728C35.7993 8.85706 33.6172 8.46445 31.4149 8.47188L27.9285 8.48953C26.7353 8.4942 25.5925 8.96292 24.7505 9.79307C23.9084 10.6232 23.4356 11.7472 23.4356 12.9188Z" fill="black"/>
</svg>
