<svg width="56" height="80" viewBox="0 0 56 80" fill="none" xmlns="http://www.w3.org/2000/svg">
<path d="M19.9897 37.3885C19.8685 38.0376 20.1159 38.3727 20.7319 38.394C25.2359 38.5111 29.967 38.5111 34.9254 38.394C39.5757 38.2983 43.3324 30.3655 47.8313 37.165C48.7199 38.4951 48.5937 39.7135 47.4526 40.8201C44.9784 43.225 42.3276 45.2733 39.5 46.9652C38.9951 47.2738 38.4548 47.4228 37.8792 47.4121L19.3838 47.0929C18.6668 47.0823 18.2376 47.4441 18.0962 48.1783C16.8036 54.8501 15.5212 61.6869 14.2487 68.6886C13.7236 71.6148 13.0874 73.7111 12.3401 74.9773C9.93163 79.0315 3.32716 82.9899 0.267322 76.749C-0.00353965 76.1949 -0.0713815 75.5551 0.0766812 74.9517C0.224744 74.3482 0.5784 73.8233 1.0702 73.477C4.16033 71.2903 5.05408 68.1618 5.73573 64.4269C8.99754 46.4651 12.3401 28.5193 15.7635 10.5894C16.2634 7.98775 15.7332 4.93914 18.6415 3.64628C25.0945 0.773242 34.9102 1.63515 42.4235 1.82669C43.8171 1.86925 45.1804 1.699 46.5134 1.31593C49.8459 0.37421 53.6632 -1.7646 55.7233 2.89609C55.9735 3.45412 56.0567 4.07859 55.962 4.68609C55.8672 5.29359 55.599 5.85519 55.193 6.29585C53.5571 8.08352 50.8456 9.42426 48.4523 9.53599C45.2258 9.67965 42.0448 10.0946 38.8032 9.98291C34.5921 9.8233 30.5173 9.96695 26.5789 10.4139C26.1232 10.4635 25.6939 10.6683 25.3534 10.9985C25.0128 11.3286 24.7788 11.7669 24.6855 12.2494L19.9897 37.3885Z" fill="black"/>
</svg>
