<svg width="61" height="81" viewBox="0 0 61 81" fill="none" xmlns="http://www.w3.org/2000/svg">
<path d="M21.7405 39.6289C27.3723 39.8852 35.6269 40.5097 41.0173 38.2997C42.9911 37.4883 45.0721 37.2588 47.2604 37.6111C49.5668 37.9848 50.5215 39.3193 50.1246 41.6148C48.7086 49.6701 25.5218 47.8284 20.0027 47.6202C19.3161 47.5882 18.8925 47.9032 18.7316 48.5651C17.2941 54.3838 15.9425 60.6668 14.6766 67.4143C13.8828 71.6209 12.7458 74.8558 11.2654 77.1192C9.17362 80.3061 4.28202 82.7404 0.999504 79.3933C0.361005 78.7337 0.00301668 77.8542 1.89743e-05 76.9383C-0.00297873 76.0223 0.349328 75.1406 0.983496 74.4768C2.93584 72.459 4.20162 70.0087 4.78089 67.1261C8.62122 48.0259 12.9335 28.392 17.7178 8.22422C19.1177 2.33083 25.4575 2.523 30.2204 2.28278C35.938 1.99452 41.8593 1.79167 47.9845 1.67423C49.9583 1.63152 51.9429 1.2098 53.9381 0.40907C57.0437 -0.840072 61.2755 0.825451 60.9859 4.66897C60.9514 5.16985 60.7906 5.65488 60.518 6.08C60.2454 6.50511 59.8697 6.85682 59.425 7.10319C50.3659 12.0837 38.7646 10.4823 28.9492 10.6584C28.3638 10.6672 27.7978 10.8741 27.3424 11.246C26.8871 11.6178 26.5688 12.1329 26.439 12.7083L20.7429 38.3318C20.5605 39.1538 20.8931 39.5862 21.7405 39.6289Z" fill="black"/>
</svg>
