<svg width="62" height="81" viewBox="0 0 62 81" fill="none" xmlns="http://www.w3.org/2000/svg">
<path d="M18.0925 49.2965C16.236 57.2968 14.3318 65.2275 12.3799 73.0887C10.831 79.3456 7.52637 81.8912 2.46609 80.7253C2.00042 80.6169 1.56494 80.4041 1.19201 80.1027C0.819089 79.8013 0.518342 79.4191 0.31197 78.9845C0.105599 78.5499 -0.00101936 78.074 7.34532e-06 77.5921C0.00103405 77.1103 0.109674 76.6349 0.317895 76.2011C1.6864 73.3294 3.18219 70.8908 3.88236 67.7463C8.43343 47.4783 13.0004 28.1943 17.5833 9.8942C19.1746 3.57314 24.203 1.76025 30.1226 1.84046C35.9361 1.91533 41.8239 1.92603 47.7859 1.87255C52.0187 1.84046 59.2431 -2.79605 61.6937 2.64263C62.045 3.41215 62.096 4.28725 61.8368 5.09515C61.5775 5.90304 61.0269 6.58501 60.2934 7.0064C57.1851 8.78186 53.8274 9.71772 50.2205 9.81398C43.1658 10.0065 36.1483 10.1402 29.1679 10.2151C28.0115 10.2365 27.2902 10.8087 27.0038 11.9317L20.2249 38.9005C20.1925 39.0294 20.1884 39.1639 20.2128 39.2949C20.2373 39.4259 20.2898 39.5503 20.3667 39.6598C20.4436 39.7692 20.5432 39.8612 20.6587 39.9295C20.7743 39.9978 20.9031 40.0408 21.0364 40.0556C28.0593 40.7722 34.7903 40.2749 41.2297 38.5636C41.6512 38.4467 42.0864 38.398 42.5188 38.4192C47.0486 38.601 49.3771 39.5262 49.5044 41.1947C49.653 43.2054 49.1278 44.4461 47.9291 44.9167C45.6695 45.7937 43.6697 46.521 41.9299 47.0986C39.9249 47.7617 37.8775 48.0933 35.7876 48.0933C30.059 48.0826 24.7122 48.0505 19.7474 47.997C18.8563 47.9863 18.3047 48.4195 18.0925 49.2965Z" fill="black"/>
</svg>
