<svg width="56" height="79" viewBox="0 0 56 79" fill="none" xmlns="http://www.w3.org/2000/svg">
<path d="M55.9989 2.5293V4.70013C55.8328 5.25594 55.6095 5.7331 55.3292 6.13161C55.0488 6.54061 54.6594 6.73987 54.161 6.72938C44.8468 6.44623 35.3093 6.66646 25.5486 7.39006C25.0294 7.43201 24.6816 7.70468 24.5051 8.20806C22.4595 14.0389 20.6994 20.9184 19.2249 28.8467C18.7057 31.6992 18.6435 34.4101 19.038 36.9794C19.1315 37.5981 19.4897 37.918 20.1128 37.939C27.859 38.1802 35.273 37.8813 42.3547 37.0423C43.9849 36.8431 44.8468 37.5719 44.9403 39.2289L45.0804 41.5413C45.1014 41.9044 45.0498 42.268 44.9285 42.6105C44.8072 42.9529 44.6188 43.2672 44.3745 43.5344C44.1303 43.8017 43.8352 44.0165 43.5069 44.1659C43.1786 44.3154 42.8238 44.3964 42.4637 44.4043L17.4649 45.0492C16.7662 45.0675 16.0975 45.3403 15.5823 45.8173C15.0671 46.2943 14.74 46.9434 14.6613 47.6448C14.1161 52.2696 13.5554 57.0202 12.0134 61.472C10.3209 66.359 8.84113 71.267 7.57432 76.1959C6.96168 78.5555 5.48724 79.4259 3.1509 78.8072L2.37212 78.6027C0.721106 78.1622 -0.0680887 77.0821 0.00459746 75.3622C0.284958 68.9441 1.42719 61.7709 3.43125 53.8427C6.61906 41.2477 9.79127 27.929 12.9479 13.8868C13.8617 9.78637 14.9935 5.93236 16.3434 2.3248C16.5112 1.87988 16.7969 1.49114 17.1683 1.20217C17.5397 0.913206 17.9822 0.73544 18.4462 0.688812C26.9193 -0.202591 35.7869 -0.22881 45.0492 0.610158C46.5549 0.74649 48.3876 0.64162 50.5475 0.295546C54.2337 -0.281245 56.0508 0.463339 55.9989 2.5293Z" fill="black"/>
</svg>
