<svg width="57" height="79" viewBox="0 0 57 79" fill="none" xmlns="http://www.w3.org/2000/svg">
<path d="M22.2409 49.8764L22.2232 66.7225C22.223 67.1357 22.3873 67.5328 22.6814 67.8297C22.9754 68.1267 23.3762 68.3003 23.7989 68.3137C26.974 68.4175 29.7419 69.1728 32.1025 70.5795C32.7083 70.9381 33.2063 71.4467 33.5461 72.0539C33.8859 72.6611 34.0554 73.3452 34.0375 74.0369C34.0195 74.7287 33.8147 75.4035 33.4438 75.9931C33.0729 76.5826 32.5491 77.0659 31.9254 77.394C28.1189 79.4004 21.0547 77.4632 17.0357 76.5984C12.0075 75.5261 6.28886 81.6315 2.25216 76.1487C1.95851 75.7493 1.74928 75.2966 1.63657 74.817C1.52386 74.3373 1.50992 73.8402 1.59555 73.3544C1.68117 72.8686 1.86466 72.4038 2.1354 71.9869C2.40614 71.5699 2.75874 71.2091 3.1728 70.9254C5.49804 69.3227 7.99442 68.3656 10.6619 68.0543C11.4646 67.9621 11.8541 67.5181 11.8305 66.7225C11.2993 48.7464 11.2698 30.4475 11.7419 11.8256C11.7514 11.4782 11.6197 11.1409 11.3749 10.8856C11.1301 10.6303 10.7917 10.4773 10.4318 10.4593L5.79312 10.2517C3.72756 10.1479 2.12232 9.25432 0.977407 7.57086C0.505278 6.87903 0.399049 6.1872 0.65872 5.49537C1.50855 3.15467 3.20232 1.94973 5.74001 1.88054C12.338 1.69605 19.3019 1.3559 26.6317 0.86009C31.235 0.548766 38.2284 1.32708 42.5483 3.05666C56.4466 8.57402 58.5535 22.5663 54.0742 35.2269C51.9378 41.2689 47.3759 45.1374 40.3884 46.8323C34.2979 48.3198 28.5497 49.0404 23.1438 48.9943C22.5419 48.9943 22.2409 49.2883 22.2409 49.8764ZM22.4357 10.7879L22.0462 38.4958C22.0461 38.7267 22.1388 38.9485 22.3043 39.1135C22.4699 39.2784 22.695 39.3733 22.9314 39.3779L31.5536 39.4989C35.1776 39.548 38.672 38.271 41.2683 35.9487C43.8647 33.6264 45.3504 30.449 45.3988 27.1151L45.4696 22.7912C45.494 21.1394 45.1642 19.4988 44.4993 17.9632C43.8344 16.4276 42.8472 15.0271 41.5943 13.8417C40.3415 12.6563 38.8474 11.7093 37.1974 11.0547C35.5475 10.4001 33.7741 10.0509 31.9786 10.0269L23.3563 9.92309C23.2377 9.9208 23.1198 9.94135 23.0094 9.98357C22.8989 10.0258 22.7981 10.0889 22.7126 10.1692C22.6271 10.2495 22.5586 10.3455 22.5111 10.4516C22.4636 10.5578 22.438 10.672 22.4357 10.7879Z" fill="black"/>
</svg>
