<svg width="56" height="80" viewBox="0 0 56 80" fill="none" xmlns="http://www.w3.org/2000/svg">
<path d="M20.4689 50.5981L20.1311 68.1817C20.1262 68.3511 20.1564 68.5197 20.2199 68.6771C20.2834 68.8346 20.3788 68.9776 20.5003 69.0974C20.6219 69.2172 20.7669 69.3113 20.9266 69.3739C21.0863 69.4365 21.2573 69.4663 21.4291 69.4615C24.6887 69.403 27.3379 70.3614 29.3767 72.3366C30.0043 72.9387 30.3657 73.7606 30.3823 74.6239C30.399 75.4871 30.0695 76.322 29.4656 76.9472C27.1779 79.3197 24.5228 79.9333 21.5002 78.788C17.3397 77.2102 12.9243 77.327 8.25415 79.1386C7.23196 79.5354 6.1073 79.5726 5.07152 79.2438C2.48751 78.414 1.05326 77.1751 0.768784 75.5272C0.365772 73.2131 1.27255 71.6178 3.48911 70.7412L8.25415 68.8479C8.58592 68.7193 8.8713 68.4972 9.07396 68.2099C9.27662 67.9227 9.38737 67.5833 9.39206 67.235L10.121 11.7144C10.1329 10.6508 9.6054 10.195 8.5386 10.3469C5.21968 10.8261 3.1513 9.66908 2.33343 6.8758C2.08775 6.03864 2.12864 5.14444 2.44984 4.33052C2.77104 3.5166 3.35478 2.82795 4.11142 2.37034C8.27192 -0.154127 11.899 1.94959 16.3796 1.31848C28.6655 -0.399561 44.8986 -0.38203 51.815 11.1008C58.8914 22.8641 54.1619 43.1474 39.4757 47.2672C33.8335 48.8567 27.9543 49.5463 21.838 49.3359C20.9372 49.3008 20.4808 49.7216 20.4689 50.5981ZM20.5934 11.2936V38.5719C20.5934 38.9206 20.7339 39.255 20.984 39.5016C21.2341 39.7482 21.5732 39.8867 21.9269 39.8867H30.5679C34.1659 39.8867 37.6165 38.5365 40.1606 36.1332C42.7048 33.7299 44.134 30.4703 44.134 27.0715V22.794C44.134 19.3952 42.7048 16.1356 40.1606 13.7323C37.6165 11.329 34.1659 9.97879 30.5679 9.97879H21.9269C21.5732 9.97879 21.2341 10.1173 20.984 10.3639C20.7339 10.6105 20.5934 10.9449 20.5934 11.2936Z" fill="black"/>
</svg>
