<svg width="54" height="79" viewBox="0 0 54 79" fill="none" xmlns="http://www.w3.org/2000/svg">
<path d="M19.7771 49.7889L18.2981 66.8074C18.1847 68.091 18.7684 68.7328 20.0491 68.7328C22.8372 68.7099 24.8546 69.8444 26.1012 72.1365C26.3114 72.5224 26.4442 72.9465 26.4922 73.3844C26.5401 73.8223 26.5023 74.2655 26.3807 74.6886C26.2591 75.1117 26.0562 75.5064 25.7836 75.8502C25.5111 76.1939 25.1742 76.4799 24.7922 76.6919C19.7261 79.4768 15.578 75.523 10.0359 77.4827C6.7718 78.6173 2.24971 79.6143 0.617676 75.3855C-1.28637 70.3487 4.51075 69.9017 7.11181 68.3202C7.38499 68.1563 7.61448 67.9281 7.78037 67.6555C7.94626 67.3829 8.04358 67.0741 8.06385 66.7559L11.8549 11.3684C11.8846 10.9378 11.7637 10.5094 11.5128 10.1555C11.2619 9.80159 10.8964 9.54386 10.4779 9.42583C8.46052 8.86428 6.85682 7.75263 5.66679 6.09089C5.15678 5.36889 5.1171 4.61824 5.54777 3.83895C6.7378 1.74172 8.45486 0.727481 10.6989 0.796243C16.7964 0.991068 23.1658 1.07702 29.8073 1.0541C39.0215 1.01972 49.0007 3.87333 52.0608 13.861C54.0102 20.2443 53.6928 26.9314 51.1088 33.9222C46.2127 47.1072 33.4454 49.0154 21.0861 48.62C20.2814 48.5971 19.8451 48.9867 19.7771 49.7889ZM33.3604 38.598C41.4186 36.4835 43.5606 26.9601 42.8806 19.7573C41.8436 8.84136 31.0993 9.95874 23.2622 10.4744C22.4801 10.5203 22.0665 10.9386 22.0212 11.7293L20.3721 38.512C20.3268 39.2455 20.6668 39.6408 21.3921 39.6982C25.4042 40.019 29.3936 39.6523 33.3604 38.598Z" fill="black"/>
</svg>
