<svg width="54" height="79" viewBox="0 0 54 79" fill="none" xmlns="http://www.w3.org/2000/svg">
<path d="M17.5058 66.5988C17.3717 68.1167 18.0533 68.9042 19.5505 68.9613C23.3941 69.0754 25.2544 70.7417 25.1315 73.9601C25.1047 74.6087 24.9134 75.2362 24.5718 75.7958C24.2302 76.3554 23.7472 76.8324 23.1589 77.1913C22.5706 77.5503 21.8921 77.7817 21.1744 77.8684C20.4567 77.9551 19.7182 77.8948 19.0142 77.692C15.5281 76.6991 12.0812 76.7847 8.67336 77.9488C5.45548 79.0615 2.01971 78.5137 0.494574 75.0214C0.165252 74.2736 0.129469 73.4252 0.394531 72.6512C0.659592 71.8772 1.2053 71.2366 1.91917 70.8615L5.30467 69.064C5.85848 68.7714 6.33039 68.3415 6.67628 67.8145C7.02216 67.2876 7.23069 66.6808 7.28232 66.051C8.83539 47.3684 10.746 29.1479 13.0141 11.3897C13.1706 10.2028 12.6845 9.44953 11.556 9.12998C8.05883 8.12565 6.96387 6.03142 8.27114 2.84726C8.5193 2.23891 8.93818 1.7192 9.47503 1.35362C10.0119 0.988047 10.6427 0.792969 11.2879 0.792969C21.5449 0.850032 31.5617 1.6261 41.3382 3.12117C45.003 3.68039 47.9304 5.52355 50.1203 8.65064C55.7013 16.6281 53.0533 28.9026 48.8633 36.9657C45.5114 43.3853 37.7013 47.4597 30.9806 47.9904C27.4834 48.2643 23.908 48.3042 20.2544 48.1102C19.5169 48.0645 19.1147 48.4183 19.0477 49.1716L17.5058 66.5988ZM34.0309 37.873C42.6454 35.1168 48.7963 11.4924 35.6901 11.1843C31.6454 11.093 27.718 10.9903 23.908 10.8761C23.6753 10.8705 23.4487 10.955 23.2721 11.1132C23.0956 11.2713 22.9818 11.4919 22.9527 11.7321L19.9527 38.883C19.9361 39.0276 19.9497 39.1741 19.9928 39.3129C20.0358 39.4517 20.1072 39.5796 20.2023 39.6881C20.2974 39.7965 20.414 39.8831 20.5443 39.9421C20.6747 40.001 20.8158 40.031 20.9583 40.03C25.2153 40.0186 29.5728 39.2996 34.0309 37.873Z" fill="black"/>
</svg>
