<svg width="52" height="77" viewBox="0 0 52 77" fill="none" xmlns="http://www.w3.org/2000/svg">
<path d="M40.8822 9.84376C45.5432 12.7307 52.0204 17.3728 51.2007 24.1309C50.1239 32.9394 47.8094 40.8293 39.4517 44.2903C34.7799 46.215 28.4581 47.1281 20.4861 47.0296C19.7789 47.0187 19.3824 47.3741 19.2967 48.0958L17.2716 65.7456C17.1966 66.4564 17.502 66.8392 18.1877 66.8938C25.7579 67.5828 24.8417 76.3092 17.593 75.2102C14.0677 74.6744 10.6604 74.9915 7.37087 76.1616C4.67068 77.113 2.46872 75.7515 1.16684 73.291C0.957167 72.8886 0.830275 72.4467 0.794015 71.9927C0.757754 71.5387 0.812935 71.0823 0.956074 70.6518C1.09921 70.2212 1.32729 69.8257 1.62619 69.4896C1.92509 69.1536 2.28844 68.8842 2.69375 68.6982L6.24577 67.0579C6.92082 66.7517 7.30124 66.2213 7.38696 65.4668L13.9445 11.3364C13.998 10.9115 13.9401 10.4788 13.7765 10.0815C13.6129 9.68427 13.3494 9.33644 13.0124 9.07282L10.1193 6.80919C9.90441 6.63979 9.74294 6.40849 9.65447 6.14346C9.56601 5.87843 9.55437 5.5911 9.62102 5.3165C10.3282 2.56078 11.9569 1.14464 14.5071 1.06809C22.672 0.816576 30.9171 0.493981 39.2427 0.100306C42.3715 -0.0418544 44.8199 0.947802 46.5879 3.06927C46.8741 3.41075 47.0867 3.80995 47.2118 4.24112C47.3369 4.67229 47.3718 5.12584 47.3142 5.57252C47.2567 6.01921 47.108 6.44909 46.8777 6.83444C46.6474 7.21979 46.3406 7.55205 45.9771 7.80977C44.5628 8.81583 42.9287 9.28606 41.075 9.22044C40.2178 9.18764 40.1535 9.39541 40.8822 9.84376ZM33.5691 15.9785C30.8475 14.7319 28.9724 12.7745 27.9437 10.1062C27.8439 9.84204 27.6693 9.61304 27.4411 9.44706C27.2128 9.28107 26.9407 9.18525 26.6579 9.17123C25.0507 9.10562 24.1346 9.89297 23.9095 11.5333C22.8488 19.4943 21.7129 27.5974 20.5021 35.8427C20.2664 37.4502 20.9415 38.2212 22.5273 38.1556C32.7173 37.6963 39.5802 38.3688 41.4447 25.5744C42.0876 21.2275 37.0408 17.5696 33.5691 15.9785Z" fill="black"/>
</svg>
