<svg width="58" height="79" viewBox="0 0 58 79" fill="none" xmlns="http://www.w3.org/2000/svg">
<path d="M24.4161 38.1071C30.2054 38.4051 35.1436 38.0905 39.2308 37.1633C44.5105 35.9545 44.1632 27.8245 45.0663 23.7181C45.2001 23.1006 45.4646 22.5156 45.8436 21.9988C46.2226 21.4821 46.7083 21.0446 47.2707 20.7129C47.8332 20.3812 48.4607 20.1624 49.1149 20.0699C49.7691 19.9773 50.4363 20.0129 51.0755 20.1746L52.0481 20.423C54.8501 21.1405 55.9385 22.846 55.3133 25.5395C54.2365 30.1923 54.5317 35.375 51.6487 39.4318C46.0563 47.3134 32.5095 47.8599 23.1657 47.0485C22.4478 46.9933 22.0425 47.3024 21.9499 47.9758L19.4142 66.9514C19.3332 67.6248 19.5937 68.1326 20.1958 68.4748L23.1657 70.1968C23.8811 70.6123 24.3957 71.2802 24.5973 72.0554C24.7989 72.8306 24.6714 73.6503 24.2425 74.3364C22.0194 77.9129 16.7744 77.0022 13.2313 77.234C8.85469 77.5321 4.51279 80.5291 1.09135 75.9259C0.809149 75.5484 0.615975 75.1172 0.525133 74.6617C0.43429 74.2063 0.447942 73.7376 0.565096 73.2876C0.68225 72.8377 0.900126 72.4173 1.20382 72.0553C1.50752 71.6932 1.88982 71.3982 2.32444 71.1903L7.37845 68.7728C7.67859 68.6295 7.93797 68.4191 8.13452 68.1596C8.33107 67.9002 8.45897 67.5993 8.50733 67.2826L16.8091 11.8459C16.9943 10.5654 16.4675 9.65466 15.2286 9.11376C10.1746 6.94464 13.0403 1.86128 17.1044 1.72881C28.7233 1.38109 40.7939 -0.026352 52.1697 1.46388C54.9138 1.81712 56.6448 3.32392 57.3626 5.98426C57.4784 6.42581 57.4379 6.85081 57.241 7.25924C56.1874 9.51115 54.3812 10.4826 51.8223 10.1735C44.2848 9.23518 36.7646 9.0696 29.2617 9.67673C28.8644 9.70931 28.4896 9.86876 28.1969 10.1298C27.9043 10.3908 27.7105 10.7383 27.6465 11.1173L23.4957 37.0143C23.3799 37.6987 23.6867 38.0629 24.4161 38.1071Z" fill="black"/>
</svg>
