<svg width="59" height="79" viewBox="0 0 59 79" fill="none" xmlns="http://www.w3.org/2000/svg">
<path d="M23.2349 37.8575C29.4039 38.3689 35.6527 38.0534 41.981 36.9109C42.6526 36.7912 43.1477 36.443 43.4664 35.8664L45.5663 32.1452C46.8069 29.9473 48.9183 28.9517 51.9004 29.1585C52.5036 29.202 53.067 29.4305 53.5906 29.8439C55.8897 31.6828 56.2597 33.8208 54.7004 36.2581L48.1102 46.6218C47.7459 47.1876 47.2338 47.5576 46.5737 47.7317C44.0241 48.428 41.685 48.0309 39.5566 46.5402C39.0786 46.2029 38.5493 46.0343 37.9688 46.0343L22.2959 46.0669C21.9649 46.0673 21.6452 46.1812 21.3945 46.3878C21.1439 46.5945 20.9791 46.8802 20.9301 47.1931L17.857 67.4636C17.7546 68.0838 17.9081 68.6387 18.3179 69.1284L20.2984 71.5275C20.7309 72.0498 20.7992 72.6102 20.5033 73.2086C17.9936 78.3334 12.8205 76.587 8.26202 78.0559C5.54742 78.9209 2.28646 78.4966 0.647456 76.0648C0.343038 75.6125 0.145261 75.1023 0.067973 74.5699C-0.00931503 74.0374 0.035718 73.4957 0.200001 72.9826C0.364283 72.4694 0.643892 71.9974 1.01905 71.5994C1.39421 71.2015 1.8559 70.8873 2.37184 70.6789L5.9742 69.2426C6.26705 69.1225 6.52379 68.9324 6.72072 68.69C6.91765 68.4475 7.04849 68.1605 7.10107 67.8553L16.4399 12.0052C16.5392 11.3936 16.4062 10.7635 16.0644 10.2262L14.0156 6.97835C13.6855 6.45608 13.6457 5.91205 13.8961 5.34625C14.7497 3.40951 16.2579 2.33233 18.4204 2.11471C29.5064 0.994011 41.3778 0.585988 54.0345 0.890645C54.8962 0.911423 55.7264 1.21046 56.3906 1.73933C57.6881 2.79475 58.3198 3.94266 58.2857 5.18304C58.1946 7.69646 56.8344 8.9967 54.2052 9.08374L29.7909 9.8345C28.1178 9.88891 27.1389 10.705 26.8543 12.2826L22.535 36.9925C22.4439 37.5256 22.6772 37.814 23.2349 37.8575Z" fill="black"/>
</svg>
