<svg width="56" height="79" viewBox="0 0 56 79" fill="none" xmlns="http://www.w3.org/2000/svg">
<path d="M21.5915 38.2235C25.9684 37.7623 30.7759 37.6014 36.0137 37.7408C37.3828 37.7837 38.4926 37.3814 39.3431 36.534C40.37 35.5364 41.3397 34.4637 42.2525 33.3159C43.9223 31.2349 45.8412 30.956 48.0089 32.4792L48.6312 32.9136C50.7263 34.3832 51.0167 36.1693 49.5024 38.2718C47.4799 41.0715 45.2551 43.8552 42.8281 46.6228C40.6811 49.0685 37.4295 49.6639 35.0647 47.3629C34.6233 46.9381 34.0469 46.6974 33.4466 46.6871L20.0824 46.5584C19.8031 46.5535 19.5312 46.6509 19.3148 46.8335C19.0983 47.0162 18.9514 47.2721 18.9 47.556C17.4998 55.6335 16.1877 63.7538 14.9638 71.9171C14.1859 77.0661 4.5089 81.5875 0.821669 77.2752C0.528068 76.9328 0.304837 76.5322 0.165603 76.098C0.0263695 75.6639 -0.0259084 75.2053 0.0119609 74.7504C0.0498302 74.2955 0.177023 73.8538 0.385811 73.4524C0.594599 73.0509 0.880577 72.6983 1.22619 72.4159C2.06632 71.7186 2.94275 71.0857 3.85549 70.5172C6.12694 69.0852 6.34469 66.0923 6.70252 63.6626C8.26868 53.2467 11.1055 36.7217 15.2128 14.0877C15.6639 11.6098 15.2594 9.43756 15.1972 6.9918C15.1678 5.81194 15.5906 4.66753 16.3738 3.80626C17.1571 2.94499 18.2379 2.43617 19.3823 2.38991C25.3254 2.18073 31.1752 1.10267 37.1494 1.27966C41.3708 1.40839 45.7063 1.02758 50.1558 0.137235C52.7073 -0.366935 54.5328 0.518045 55.6322 2.79217C58.1371 7.98941 47.1221 9.83983 44.4617 9.83983C38.1866 9.8291 32.0879 9.85055 26.1655 9.90419C25.5328 9.90419 25.1595 10.2314 25.0454 10.8857L20.658 37.1776C20.5232 37.9607 20.8343 38.3093 21.5915 38.2235Z" fill="black"/>
</svg>
