<svg width="30" height="40" viewBox="0 0 30 40" fill="none" xmlns="http://www.w3.org/2000/svg">
<path d="M18.2141 22.0106C18.1602 22.0111 18.1073 22.0245 18.0598 22.0497C18.0123 22.0749 17.9718 22.1111 17.9416 22.1553C17.9114 22.1995 17.8926 22.2504 17.8867 22.3034C17.8807 22.3564 17.8879 22.4101 17.9076 22.4598L24.4007 38.7357C24.4664 38.8998 24.4833 39.0791 24.4494 39.2524C24.4154 39.4258 24.332 39.5858 24.209 39.7136C24.0861 39.8415 23.9287 39.9317 23.7556 39.9736C23.5825 40.0155 23.4009 40.0074 23.2323 39.9502C22.1299 39.5749 21.0977 38.9739 20.1358 38.1474C19.8762 37.9239 19.7719 37.6434 19.823 37.3061C20.072 35.731 18.661 34.6493 18.2843 33.1375C17.4288 29.7511 16.5754 26.4217 15.7241 23.1493C15.681 22.9851 15.5887 22.8372 15.4591 22.7246C15.3295 22.6119 15.1683 22.5395 14.9963 22.5167C12.9022 22.2552 10.8187 22.289 8.74587 22.6179C8.19255 22.7065 7.82225 22.4893 7.63497 21.9664C7.54559 21.7133 7.54133 21.4434 7.6222 21.1567C7.67249 20.9729 7.78081 20.81 7.93129 20.6916C8.08178 20.5732 8.26655 20.5057 8.45857 20.4988C11.7828 20.3723 15.1048 20.1825 18.4248 19.9295C20.2763 19.7903 23.1812 18.0698 23.9218 16.3492C25.1051 13.6207 25.9861 11.3119 26.565 9.42261C27.0885 7.7189 26.6459 6.34834 25.237 5.31094C24.39 4.69102 23.5387 4.0479 22.6832 3.3816C20.9913 2.07219 17.8246 1.80019 15.8901 2.14178C13.9833 2.47493 11.887 2.94724 9.60139 3.55872C9.25502 3.65125 8.94269 3.84117 8.70158 4.10584C8.46048 4.37052 8.30078 4.6988 8.24149 5.05158L3.09559 36.1485C2.93385 37.1226 2.35925 37.5422 1.37178 37.4073C1.16322 37.382 0.961043 37.3145 0.765252 37.2048C0.152341 36.8675 -0.0923967 36.3551 0.0310369 35.6677C2.12515 24.2689 4.07455 13.4141 5.87923 3.10327C5.97287 2.56348 6.38999 1.95622 7.13059 1.28148C7.62433 0.830251 8.16062 0.570912 8.73948 0.503438C12.7958 0.0100378 16.4796 -0.120689 19.791 0.111251C22.7662 0.313672 25.8435 2.44542 28.4037 3.84971C29.0337 4.19551 29.4061 4.70577 29.521 5.38051C29.853 7.32248 30.4085 9.19488 29.521 11.1432C28.3378 13.7409 27.2524 16.2121 26.2649 18.5568C26.0788 18.9953 25.748 19.3586 25.3264 19.5879C24.0325 20.309 22.6172 21.0049 21.0807 21.6754C20.155 22.0802 19.2037 22.0106 18.2141 22.0106Z" fill="black"/>
</svg>
