<svg width="30" height="46" viewBox="0 0 30 46" fill="none" xmlns="http://www.w3.org/2000/svg">
<path d="M6.52116 26.0632C6.39481 30.9787 6.20059 35.7578 5.93853 40.4005C5.81686 42.5407 4.8084 43.5661 2.91315 43.4767C2.857 43.472 2.81954 43.4697 2.80082 43.4697C0.924289 43.3803 -0.00928958 42.3149 6.96724e-05 40.2735C0.0421863 29.4312 0.110068 17.8316 0.203661 5.47466C0.2177 2.92754 1.99358 1.31177 4.42231 0.944877C6.80892 0.592091 8.92178 -0.282812 11.4067 0.0911412C13.323 0.37337 15.0919 0.479219 16.8678 1.34002C19.7785 2.75116 22.3102 4.06351 24.4628 5.2771C26.9618 6.67413 26.9617 11.6625 26.5757 13.8216C26.206 15.8912 25.3683 18.2949 24.0627 21.0325C23.2344 22.7541 21.8937 23.7772 20.2371 24.6592C19.83 24.8755 19.7224 25.1954 19.9142 25.6187C21.2198 28.4928 22.5582 31.4914 23.9294 34.6148C25.1227 37.31 27.3197 39.2222 29.215 41.3742C31.2576 43.6955 29.0044 46.9693 26.0071 45.7275C24.5236 45.116 23.0636 44.4081 21.627 43.6038C19.9914 42.6936 18.8333 40.7885 18.0541 39.0881C16.3928 35.4897 14.6941 31.736 12.958 27.8272C12.8503 27.5873 12.6772 27.4179 12.4385 27.3192C11.5471 26.9523 10.7609 26.6206 9.78517 26.7053C8.61526 26.8041 7.69338 26.5219 7.01951 25.8586C6.69662 25.5482 6.53052 25.6164 6.52116 26.0632ZM11.7717 5.98267C10.6205 6.0156 9.43655 6.55653 8.21985 7.60548C7.70509 8.04763 7.43134 8.6027 7.39859 9.27064C7.188 13.5934 6.97036 17.841 6.74574 22.0133C6.72702 22.3613 6.87209 22.4578 7.18094 22.3025C8.47252 21.6487 9.93725 21.2465 11.5751 21.096C17.1532 20.5833 19.7317 17.7587 19.3106 12.6221C19.2263 11.559 18.7631 10.6606 17.9207 9.92681C16.1308 8.3675 14.3478 5.91211 11.7717 5.98267Z" fill="black"/>
</svg>
