<svg width="46" height="64" viewBox="0 0 46 64" fill="none" xmlns="http://www.w3.org/2000/svg">
<path d="M28.1499 35.216C28.1038 35.2146 28.0581 35.2247 28.0168 35.2452C27.9755 35.2657 27.9399 35.2962 27.9132 35.3338C27.8865 35.3714 27.8694 35.415 27.8636 35.4607C27.8578 35.5065 27.8634 35.553 27.8799 35.5961C30.8866 43.6361 34.2966 52.0227 38.11 60.7561C38.75 62.2261 37.72 64.146 35.97 63.456C33.8633 62.6294 32.1966 61.5894 30.9699 60.336C30.6366 60.0027 30.4699 59.5994 30.4699 59.126C30.4499 56.626 28.43 54.9261 27.8 52.3861C26.4266 46.8461 25.0433 41.526 23.6499 36.426C23.6106 36.2829 23.5248 36.1565 23.4057 36.0662C23.2865 35.976 23.1405 35.9267 22.9899 35.926L12.7099 35.986C12.5171 35.9855 12.3266 35.9449 12.1505 35.8668C11.9745 35.7887 11.8168 35.6748 11.6877 35.5325C11.5587 35.3903 11.461 35.2228 11.4011 35.0408C11.3412 34.8588 11.3204 34.6665 11.3399 34.4761C11.3466 34.3561 11.3566 34.236 11.3699 34.116C11.4899 32.896 12.1599 32.2627 13.3799 32.216C16.9866 32.056 20.5433 31.9261 24.05 31.8261C27.2633 31.7327 30.07 30.9794 32.47 29.5661C37.29 26.7261 39.9999 20.8361 40.3999 15.5361C40.4866 14.4027 40.2833 13.0061 39.7899 11.3461C39.6699 10.9327 39.4433 10.5894 39.11 10.3161C37.5366 9.03605 35.9199 7.69272 34.2599 6.28605C29.0299 1.83605 20.6399 4.77605 14.8799 6.09605C14.2777 6.23484 13.7308 6.55107 13.3101 7.00386C12.8894 7.45665 12.6142 8.02521 12.5199 8.63606L5.14994 56.966C4.90994 58.566 3.98328 59.4327 2.36994 59.5661C2.06994 59.5927 1.76661 59.516 1.45994 59.336C0.306607 58.6627 -0.163381 57.666 0.049952 56.3461L8.19995 5.97606C8.41849 4.62574 9.08818 3.38935 10.0998 2.46858C11.1113 1.54781 12.4051 0.997005 13.7699 0.90605C20.8799 0.44605 30.5299 -1.57394 36.9599 2.50606C39.2733 3.97939 41.6266 5.43939 44.0199 6.88606C45.8999 8.01606 45.53 9.56605 45.69 11.3761C46.2966 18.0294 44.4899 24.0427 40.2699 29.4161C38.0499 32.2461 31.7299 35.416 28.1499 35.216Z" fill="black"/>
</svg>
