<svg width="37" height="65" viewBox="0 0 37 65" fill="none" xmlns="http://www.w3.org/2000/svg">
<path d="M23.2094 36.0812C22.9025 36.1425 22.8038 36.357 22.9134 36.7248C25.6426 45.6794 28.4842 54.0043 31.4381 61.6991C31.5751 62.0601 31.6628 62.4312 31.7011 62.8125C31.7361 63.1469 31.7001 63.4866 31.5965 63.7983C31.493 64.11 31.3256 64.3829 31.1107 64.59C30.8958 64.7972 30.641 64.9316 30.3712 64.9799C30.1014 65.0283 29.8259 64.9889 29.572 64.8656C28.2074 64.2051 26.8401 63.2313 25.47 61.9443C25.1138 61.6106 24.8946 61.1714 24.8124 60.6266C24.4013 57.8177 22.9874 55.785 22.3709 52.9453C21.242 47.736 20.1103 42.53 18.9758 37.3274C18.8936 36.9461 18.6936 36.7554 18.3757 36.7554L10.4348 36.7248C9.61275 36.7248 9.13047 36.2209 8.98798 35.213L8.90579 34.5797C8.8462 34.1657 8.92165 33.7389 9.11569 33.3925C9.30972 33.0462 9.6066 32.8083 9.94156 32.7309C11.2459 32.4449 12.4598 32.2985 13.5832 32.2917C17.3208 32.2713 20.5076 31.8933 23.1436 31.1579C24.2945 30.8378 25.5056 30.1058 26.777 28.9618C30.3529 25.734 31.8573 19.8811 31.7669 14.4777C31.7011 10.8209 29.1117 9.41127 27.2292 7.19473C23.2751 2.55736 16.2713 5.2642 11.8323 6.62272C11.3806 6.76199 10.9731 7.06519 10.6624 7.49311C10.3518 7.92103 10.1522 8.45401 10.0895 9.02313L4.45852 58.8698C4.42251 59.1845 4.33284 59.4864 4.19539 59.7558C4.05795 60.0252 3.87586 60.2559 3.66113 60.4326C3.03638 60.9433 2.42806 61.0965 1.83619 60.8922C0.422272 60.4019 -0.175075 59.2579 0.044137 57.4602C2.21982 39.2239 4.19546 22.2781 5.97108 6.62272C6.25057 4.15082 8.43722 0.994559 10.7965 0.820913C15.9425 0.453192 20.5295 -0.517174 25.4864 0.351056C26.988 0.609822 28.4321 1.35548 29.8186 2.58803C31.649 4.21553 33.5589 5.83962 35.5483 7.46032C36.7896 8.47155 36.8142 9.87094 36.9211 11.5257C37.3814 18.5532 35.8278 24.7704 32.2601 30.1773C31.2736 31.6822 29.9693 32.9284 28.3472 33.9158C26.5441 35.0053 24.8315 35.7271 23.2094 36.0812Z" fill="black"/>
</svg>
