<svg width="53" height="77" viewBox="0 0 53 77" fill="none" xmlns="http://www.w3.org/2000/svg">
<path d="M33.8757 43.8992C35.9742 48.7253 38.0565 53.6681 40.1225 58.7274C42.2129 63.8431 44.9596 68.5968 47.2687 73.5677C47.4632 73.986 47.4713 74.4042 47.293 74.8225C46.4018 76.9701 44.8948 77.5291 42.772 76.4995C39.916 75.112 36.671 73.5556 35.5893 70.2498C34.8966 68.1504 33.426 66.7508 32.7819 64.5308C30.7888 57.6054 28.9698 51.1143 27.325 45.0575C27.2187 44.6593 26.9787 44.3084 26.6436 44.061C26.3085 43.8137 25.8978 43.6845 25.4777 43.6941C22.0991 43.7906 18.8946 43.8027 15.8644 43.7303C14.3655 43.6981 13.3851 43.0305 12.9233 41.7275C12.8036 41.3913 12.7551 41.0343 12.7807 40.6787C12.8062 40.3231 12.9054 39.9766 13.0719 39.6607C13.2384 39.3448 13.4687 39.0664 13.7484 38.8428C14.0281 38.6193 14.3513 38.4554 14.6977 38.3613C19.0364 37.1668 24.2016 37.4443 28.7956 37.1789C36.2335 36.7445 43.9144 31.3031 43.9023 23.2797C43.9023 20.738 44.0684 18.2445 44.4006 15.7993C44.5648 14.6183 44.3054 13.4175 43.6677 12.4073C43.03 11.397 42.0547 10.6417 40.9125 10.2734C35.9296 8.65666 29.8894 5.53174 24.627 5.84544C20.9931 6.06261 15.0258 7.17263 14.4668 11.5523C11.712 33.0043 9.24079 52.1961 7.05318 69.1277C6.81011 70.9697 5.75681 71.9872 3.89329 72.1802C3.58541 72.2124 3.28157 72.2003 2.98179 72.144C0.729362 71.7097 -0.246965 70.3624 0.0528188 68.1021C2.52401 49.4251 4.94253 30.2333 7.30839 10.5268C8.01329 4.66305 10.7843 1.40544 17.1162 0.585005C22.0262 -0.058475 26.0813 -0.171119 29.2817 0.247143C34.4591 0.922797 40.2198 1.9564 46.5639 3.34792C46.9933 3.44444 47.3579 3.64956 47.6577 3.96326C49.9911 6.46077 53.625 11.0214 52.9079 14.7496C52.1625 18.6748 51.5629 22.588 51.1092 26.4891C50.5988 30.8446 46.3086 37.4685 42.4074 39.3627C39.7417 40.6657 37.0437 41.832 34.3132 42.8616C33.8028 43.0547 33.657 43.4006 33.8757 43.8992Z" fill="black"/>
</svg>
