<svg width="84" height="127" viewBox="0 0 84 127" fill="none" xmlns="http://www.w3.org/2000/svg">
<path d="M54.8221 72.06C61.3461 89.5795 68.788 105.615 77.1477 120.166C77.6106 120.969 77.7882 121.905 77.6514 122.822C77.5147 123.74 77.0717 124.583 76.395 125.215C74.1631 127.309 71.7924 127.561 69.2832 125.97C65.2618 123.426 60.1311 122.233 57.9124 117.502C55.872 113.109 53.3562 109.133 51.9695 104.482C48.7736 93.8667 45.6634 83.6558 42.6392 73.8491C42.5066 73.4185 42.2401 73.0424 41.8794 72.7772C41.5188 72.5121 41.0834 72.372 40.6384 72.378C35.5935 72.4311 30.3439 72.3383 24.8897 72.0998C22.0767 71.9805 20.3928 70.6155 19.8381 68.0048C19.643 67.1313 19.7341 66.2172 20.0979 65.3975C20.4617 64.5779 21.0791 63.8961 21.8588 63.4527C24.1699 62.1539 26.8046 61.4449 29.7628 61.3256C37.7065 61.0076 48.4434 61.3654 55.5155 57.509C62.1716 53.8713 67.8371 47.4307 67.9362 39.3799C68.0022 35.2584 68.3522 31.296 68.9861 27.4926C69.3109 25.5522 68.9507 23.5583 67.9675 21.8534C66.9842 20.1485 65.4392 18.8389 63.5978 18.1497C58.8303 16.3871 54.175 14.6047 49.632 12.8024C42.3618 9.93991 33.9823 9.92005 27.1083 12.8223C24.401 13.962 22.8624 16.195 22.4926 19.5213C19.059 50.0148 15.5857 81.2173 12.0728 113.129C11.703 116.495 9.88709 118.602 6.62509 119.45C5.96476 119.622 5.32425 119.563 4.70354 119.271C1.19062 117.628 -0.354536 114.878 0.0680713 111.022C3.40931 80.2897 6.86939 48.2059 10.4484 14.7704C11.003 9.50262 16.4111 3.38008 21.8389 2.10786C31.4797 -0.171535 40.2422 -0.602282 48.1264 0.815712C55.9183 2.23371 63.5054 3.67825 70.8879 5.14926C76.8902 6.36184 80.5352 13.4385 82.952 18.4081C83.9821 20.5152 84.2528 23.0133 83.7642 25.9023C82.8661 31.3225 82.0209 36.8619 81.2285 42.5207C80.238 49.6769 77.0883 55.5609 72.4528 61.0275C68.2927 65.9375 61.2801 67.8259 55.4561 70.5095C54.7561 70.8275 54.5448 71.3444 54.8221 72.06Z" fill="black"/>
</svg>
