<svg width="117" height="180" viewBox="0 0 117 180" fill="none" xmlns="http://www.w3.org/2000/svg">
<path d="M38.7203 18.6876C35.5612 18.949 33.804 20.6485 33.4489 23.7859L18.3076 160.067C17.7842 164.81 15.2139 167.808 10.5967 169.059C9.66202 169.32 8.72737 169.311 7.79272 169.031C2.1661 167.425 -0.41357 163.708 0.0537565 157.882C3.56805 114.257 6.97006 69.633 10.26 24.0099C10.933 14.7378 20.0459 5.85783 28.3176 4.59726C32.5235 3.95297 34.907 0.563407 39.1129 0.255269C58.7967 -1.25741 77.8916 4.28907 96.8464 8.04275C99.5382 8.57499 103.268 10.2278 105.006 12.3847C111.773 20.7138 115.474 26.8672 116.11 30.845C118.185 43.8615 116.633 56.4765 111.455 68.6899C109.941 72.2382 108.128 74.9274 106.015 76.7576C96.9866 84.5451 87.7522 92.2858 78.3122 99.9799C77.5832 100.559 77.3962 101.287 77.7514 102.165C86.5839 123.987 94.7716 145.696 108.343 164.969C112.642 171.057 111.838 175.884 105.931 179.451C105.438 179.741 104.887 179.921 104.316 179.979C103.745 180.037 103.168 179.972 102.623 179.788C94.6593 177.07 82.8828 172.953 79.6021 164.297C77.9197 159.843 75.228 155.977 73.6858 151.439C68.4517 135.808 63.47 120.644 58.7406 105.947C58.4712 105.118 57.9504 104.392 57.2485 103.866C56.5465 103.34 55.6971 103.04 54.815 103.005L33.1685 102.221C32.1778 102.184 31.3086 101.829 30.5609 101.156C27.9625 98.9155 27.1306 95.9461 28.0653 92.2485C28.2896 91.3708 28.7663 90.6705 29.4954 90.1476C33.2527 87.4583 37.4772 86.1137 42.1691 86.1137C51.3287 86.1137 60.5446 85.236 69.8163 83.4806C70.9828 83.2442 72.0428 82.6459 72.8445 81.7718C79.8544 74.1523 91.1264 66.3929 93.4256 55.8322C95.4445 46.6441 95.5846 31.7694 85.1539 27.7076C77.9945 24.9063 71.0594 22.2078 64.3486 19.6119C55.9086 16.3345 47.3846 17.9592 38.7203 18.6876Z" fill="black"/>
</svg>
