<svg width="60" height="95" viewBox="0 0 60 95" fill="none" xmlns="http://www.w3.org/2000/svg">
<path d="M41.1311 53.9914C44.1173 60.7194 47.0738 67.3099 50.0007 73.7628C52.4628 79.1698 56.0522 83.7369 59.0483 88.805C59.5624 89.6791 59.6812 90.5779 59.4043 91.5011C57.4613 98.0572 50.3121 93.7405 46.4706 91.8399C42.5104 89.8657 39.6627 85.0187 38.2239 81.2029C35.218 73.1784 32.3405 65.0361 29.5916 56.7759C29.5075 56.5151 29.3708 56.2737 29.1899 56.0661C29.0089 55.8585 28.7874 55.689 28.5386 55.5678C25.587 54.1535 21.5229 54.1977 18.3785 54.3745C15.8175 54.5218 14.4431 53.3284 14.2552 50.7944C14.2354 50.5685 14.2305 50.3475 14.2404 50.1314C14.2854 49.0533 14.7157 48.026 15.4546 47.2327C16.1935 46.4393 17.193 45.9316 18.2747 45.8C23.5846 45.1714 28.8945 44.5624 34.2044 43.9731C36.9928 43.6637 41.4129 40.9824 42.5105 38.3305C43.8948 35.0009 45.2198 31.686 46.4855 28.3858C48.028 24.3343 46.9156 17.6014 42.3325 15.8482C38.931 14.5321 35.48 13.1816 31.9796 11.7967C28.3754 10.3529 16.9547 9.15954 16.3911 15.0232C14.1069 39.0573 11.8771 62.4922 9.70174 85.3281C9.44465 87.98 7.97622 89.2961 5.29654 89.2765L4.8219 89.2617C1.4204 89.2322 -0.181463 87.5281 0.0162992 84.1494C1.44019 60.4395 2.75535 37.0585 3.9617 14.0066C4.07047 11.836 4.78738 9.87162 6.11238 8.11351C12.2084 0.0252097 21.7009 -1.065 31.0007 0.761863C36.9237 1.92084 42.9505 3.18292 49.0811 4.54816C54.0202 5.63838 55.9929 9.94035 58.366 13.8445C60.6798 17.6456 59.8344 22.2422 59.9085 26.4558C59.9382 28.2336 59.4933 30.0162 58.5737 31.8038C56.3192 36.2138 54.1685 40.5306 52.1217 44.754C49.9858 49.1591 45.6549 49.9693 41.7095 52.2382C40.9877 52.6507 40.7949 53.2351 41.1311 53.9914Z" fill="black"/>
</svg>
