<svg width="68" height="108" viewBox="0 0 68 108" fill="none" xmlns="http://www.w3.org/2000/svg">
<path d="M15.5329 58.5335C15.0451 57.5299 14.7624 57.5856 14.6848 58.7007L11.9241 96.8545C11.8459 97.8956 11.4436 98.885 10.7745 99.6811C10.1055 100.477 9.20401 101.039 8.19904 101.287C6.93515 101.599 5.72116 101.622 4.55706 101.354C1.66344 100.685 0.161259 98.8673 0.0503922 95.9011C-0.0604745 93.091 0.0115969 89.9798 0.26659 86.5675C1.14798 74.8253 1.09808 62.8323 1.71339 51.525C2.37859 39.2363 2.76655 27.7227 2.87741 16.9841C2.94393 9.3567 10.4108 2.73291 16.8134 0.84278C21.819 -0.645903 29.8014 0.0566214 35.2062 1.26095C40.7827 2.48758 46.5534 3.77 52.518 5.10814C54.8795 5.6434 56.8363 6.78078 58.3884 8.52037C62.1246 12.6909 64.3919 16.2203 65.1901 19.1084C66.5538 23.9592 66.5538 31.1517 64.2588 35.9523C62.0193 40.6581 59.8131 45.4754 57.6401 50.4042C55.711 54.8034 50.9382 56.7604 46.8971 58.7844C46.5342 58.9694 46.2557 59.2865 46.1194 59.6698C45.9831 60.053 45.9995 60.4728 46.1654 60.8417C49.2807 67.7443 52.3407 74.7752 55.3452 81.9342C58.0891 88.4577 62.8951 93.3084 66.8365 99.029C70.1625 103.88 65.8387 109.617 60.4173 107.576C57.4461 106.461 54.4084 105.162 51.3041 103.679C47.396 101.806 45.284 97.2225 43.6542 93.4255C41.4701 88.374 37.6951 78.7004 32.3292 64.4045C32.1518 63.9473 31.8469 63.624 31.4146 63.4344C28.4766 62.1297 25.4555 61.6669 22.3512 62.0461C19.4077 62.4141 16.88 61.2599 15.5329 58.5335ZM34.8736 14.1071C29.8181 11.9772 24.9677 11.7096 20.3224 13.3043C19.7193 13.5141 19.1902 13.8966 18.8003 14.4048C18.4103 14.9129 18.1764 15.5245 18.1272 16.1645L15.2668 53.2645C15.167 54.6138 15.5274 54.7532 16.3478 53.6827C17.3788 52.3445 18.8423 51.5416 20.7381 51.274C25.7715 50.5492 30.7993 49.8578 35.8216 49.1999C39.9791 48.6647 44.5356 46.1556 45.9325 42.1746C47.3294 38.2606 49.8572 33.276 50.0235 29.0442C50.4726 17.3856 43.1055 17.5863 34.8736 14.1071Z" fill="black"/>
</svg>
