<svg width="42" height="65" viewBox="0 0 42 65" fill="none" xmlns="http://www.w3.org/2000/svg">
<path d="M9.65187 35.8077C9.19853 35.2811 8.9585 35.3644 8.93184 36.0577C8.6985 42.9711 8.29186 50.1044 7.71186 57.4577C7.5252 59.7977 6.19186 61.0211 3.71186 61.1277C3.3052 61.1477 2.90853 61.0544 2.52186 60.8477C0.795195 59.9411 -0.0448246 58.5144 0.00184207 56.5677C0.335175 41.7877 0.638482 26.7377 0.911815 11.4177C0.961815 8.50774 2.40186 2.86773 5.77186 2.06773C9.87186 1.09773 13.9418 -0.352261 18.2818 0.0777394C21.7618 0.417739 24.8318 1.10774 27.8518 2.95774C30.8585 4.80441 33.6152 6.49773 36.1218 8.03773C37.1885 8.69106 37.8718 9.62439 38.1718 10.8377C38.9052 13.7377 39.0518 16.5044 38.6118 19.1377C38.0318 22.6244 36.6218 26.2844 34.3818 30.1177C33.0218 32.4477 31.0419 33.6177 28.7619 34.8277C28.5332 34.9496 28.3589 35.1531 28.2736 35.3977C28.1884 35.6424 28.1984 35.9102 28.3018 36.1477C30.0552 40.0811 31.8318 44.2844 33.6318 48.7577C35.2418 52.7677 38.2219 55.6277 40.8419 58.8077C43.5519 62.1077 39.9918 66.0977 36.3518 64.3677C33.7518 63.1377 30.2018 61.8877 28.3818 59.5477C27.4685 58.3744 26.7219 57.1644 26.1419 55.9177C23.5619 50.3911 21.0318 44.791 18.5518 39.1177C18.4118 38.791 18.1852 38.541 17.8718 38.3677C15.0118 36.7577 11.8819 38.4077 9.65187 35.8077ZM19.5819 8.04774C16.0219 7.65774 14.2118 8.73772 11.1618 9.83772C10.9018 9.93105 10.7618 10.1177 10.7418 10.3977L9.38185 31.5377C9.34851 32.0844 9.52849 32.1711 9.92183 31.7977C10.6418 31.1177 11.5252 30.6777 12.5718 30.4777C16.3018 29.7577 21.0818 29.8277 24.2318 27.8377C27.8618 25.5377 29.2019 21.2077 28.7719 16.9777C28.4719 14.1077 25.2818 12.0277 23.4418 9.98774C22.4418 8.86774 21.1552 8.22107 19.5819 8.04774Z" fill="black"/>
</svg>
