<svg width="24" height="38" viewBox="0 0 24 38" fill="none" xmlns="http://www.w3.org/2000/svg">
<path d="M19.1053 32.4354L18.7646 31.1745C18.6858 30.8757 18.7599 30.6188 18.9871 30.404C19.7287 29.7175 20.03 28.7929 19.8909 27.63C19.4598 23.9314 18.7924 20.5131 14.0923 20.492C9.06545 20.478 0.464877 21.0314 0.339727 13.6973C0.302646 11.6098 0.191401 9.58304 0.00599374 7.61699C-0.0171822 7.37415 0.0268524 7.14065 0.138097 6.9165C1.00719 5.17927 1.30616 3.372 3.12083 2.27223C6.18469 0.427599 9.35052 -0.293906 12.6183 0.10771C15.6126 0.476636 17.9302 0.67044 19.5711 0.68912C20.2246 0.69379 20.5537 1.02535 20.5584 1.68382L20.5723 2.75557C20.5769 3.43738 20.2432 3.73158 19.5711 3.63819C16.3914 3.20855 13.2858 3.0381 10.2544 3.12683C8.64829 3.17586 6.93095 3.56114 5.77679 4.81502C3.99225 6.75772 3.36882 9.28883 3.9065 12.4084C4.5392 16.0859 6.1731 17.3678 9.83026 17.627C11.6194 17.7531 13.3646 17.7928 15.0657 17.7461C22.3522 17.564 23.0961 21.5918 23.5689 27.6931C23.6037 28.1414 23.7636 28.4566 23.9374 28.8559C24.0487 29.1081 24.0116 29.3369 23.8262 29.5424C23.2097 30.2149 23.0567 31.0508 23.3673 32.0502C23.4507 32.307 23.4229 32.5522 23.2839 32.7857C22.4588 34.2147 21.6291 35.2421 20.7948 35.8678C18.8271 37.3459 15.9904 37.9763 13.3831 37.9203C10.0273 37.8502 6.87069 37.8759 3.91345 37.9973C2.93543 38.0347 1.93423 37.6798 0.909854 36.9326C0.705906 36.7785 0.585392 36.5753 0.54831 36.3232C0.478782 35.8235 0.636378 35.4359 1.0211 35.1603C1.30384 34.9642 1.68161 34.8848 2.1544 34.9222C5.95988 35.2444 10.0713 35.2981 14.4886 35.0833C15.8838 35.0179 17.3439 34.3711 18.8689 33.1429C18.9723 33.0591 19.0496 32.9478 19.0915 32.8222C19.1335 32.6967 19.1383 32.5624 19.1053 32.4354Z" fill="black"/>
</svg>
