<svg width="33" height="53" viewBox="0 0 33 53" fill="none" xmlns="http://www.w3.org/2000/svg">
<path d="M7.79265 45.3155C10.4774 46.4111 14.7789 48.3156 17.8429 47.5477C19.6594 47.0869 21.7652 47.0664 23.3222 45.981C29.8394 41.445 27.2644 32.7211 20.358 30.11C11.7948 26.8641 1.99404 24.9903 1.505 13.3891C1.39854 10.9044 2.03059 8.58688 3.40124 6.43661C7.62296 -0.198499 15.9467 -0.966459 23.2124 0.84591C28.1028 2.06439 33.1728 5.74033 31.7257 11.7304C31.6392 12.0785 31.4529 12.3481 31.1668 12.5393C29.5566 13.6246 28.1294 13.5905 26.8852 12.4369C26.7139 12.2803 26.5791 12.0857 26.491 11.8677C26.4029 11.6496 26.3637 11.4137 26.3762 11.1774C26.5159 8.81556 25.275 7.10558 22.6535 6.04751C18.5017 4.37849 13.751 4.2761 10.0582 7.13288C6.57506 9.83607 6.6249 16.0923 9.3795 19.0515C11.1028 20.8946 13.7742 22.3588 17.3938 23.4442C20.2349 24.2975 23.0993 25.5194 25.9869 27.1099C27.7036 28.0587 29.6165 30.0349 31.7257 33.0385C32.6372 34.3355 33.0597 35.7314 32.9932 37.2264C32.8734 40.1958 32.9832 43.5338 30.9472 45.9094C28.9212 48.2644 27.0049 50.9267 23.8611 51.6639C20.1683 52.524 15.9566 53.7323 12.1641 52.4216C9.52925 51.5069 6.95097 50.6536 4.42925 49.8618C1.41516 48.9198 0.686588 43.8922 0.057822 41.1788C-0.00933462 40.886 -0.0180853 40.5822 0.0320547 40.2858C0.0821947 39.9894 0.190202 39.7065 0.349608 39.454C0.509014 39.2015 0.716478 38.9847 0.959617 38.8166C1.20276 38.6484 1.47657 38.5324 1.7645 38.4756L2.27345 38.3732C2.95477 38.2411 3.65943 38.3679 4.25491 38.7299C4.85039 39.092 5.29573 39.6643 5.50715 40.3392L6.70476 44.1277C6.8844 44.7011 7.24705 45.0971 7.79265 45.3155Z" fill="black"/>
</svg>
