<svg width="30" height="47" viewBox="0 0 30 47" fill="none" xmlns="http://www.w3.org/2000/svg">
<path d="M7.08612 40.2168C9.75061 40.9753 13.2637 42.9676 16.0377 42.1268C17.8627 41.5785 19.7151 41.7521 21.3576 40.5458C23.584 38.9191 24.6882 36.7623 24.6699 34.0755C24.6334 27.916 13.8842 25.1286 9.63196 23.2918C0.434017 19.3347 -0.943808 8.18531 7.22302 2.24509C8.29368 1.46525 9.60158 0.904739 11.1467 0.563558C16.2141 -0.56356 20.7462 4.13983e-06 24.7429 2.25424C26.9816 3.51539 28.4446 5.20607 29.132 7.32627C29.3754 8.07566 29.4514 8.84026 29.3602 9.62011C29.1229 11.5271 28.548 12.5811 27.6355 12.7821C25.847 13.1842 24.8159 12.3983 24.5422 10.4243C23.7027 4.42014 16.5304 3.5154 11.9132 5.24263C9.68671 6.07731 8.23283 7.65831 7.5515 9.98565C5.89989 15.6791 9.97873 18.896 14.8423 20.4313C17.7258 21.3391 20.6245 22.5881 23.5384 24.1782C26.5314 25.814 27.7633 28.4552 29.6704 31.014C29.9222 31.3485 30.0365 31.7702 29.9898 32.1929C29.7829 33.8806 29.6369 35.7175 29.5517 37.7036C29.497 38.8673 29.0985 39.8452 28.3564 40.6372C26.0113 43.1321 23.7026 45.9377 20.1348 46.157C17.3426 46.3307 14.2492 47.6009 11.5208 46.6505C8.52785 45.5965 5.53185 44.5943 2.53278 43.6438C2.07654 43.4976 1.79062 43.196 1.67504 42.7391L0.11465 36.6161C-0.195598 35.3854 0.12382 34.3497 1.07281 33.5089C1.39523 33.2226 1.72979 33.0642 2.07654 33.0337C3.68861 32.9058 4.69234 33.6247 5.08776 35.1905L6.11888 39.2115C6.25271 39.7355 6.57513 40.0706 7.08612 40.2168Z" fill="black"/>
</svg>
