<svg width="20" height="32" viewBox="0 0 20 32" fill="none" xmlns="http://www.w3.org/2000/svg">
<path d="M4.54241 27.1855C6.33706 27.8294 8.64535 29.0035 10.6133 28.5427C11.7148 28.2839 12.6245 28.3785 13.689 27.7852C15.0504 27.0235 15.8817 25.9756 16.1829 24.6415C16.5253 23.1433 16.2778 21.8829 15.4403 20.8603C13.1258 18.0323 9.53647 17.4452 6.46081 15.9239C2.24648 13.847 0.315714 9.99636 1.73287 5.41975C3.22428 0.603264 8.65772 -0.482496 13.1567 0.174011C16.9069 0.716891 20.2178 3.43129 19.9888 7.55971C19.9393 8.41401 19.4731 8.97583 18.5902 9.24516C17.3216 9.62392 16.4428 8.38034 16.4552 7.21883C16.5109 2.03621 6.75788 1.86577 5.28503 6.02575C3.46563 11.1642 7.82231 13.5188 11.9129 14.6424C12.5565 14.8192 13.7364 15.402 15.4526 16.391C16.645 17.0727 17.4928 17.8134 17.9961 18.613C18.5943 19.5515 19.1699 20.4352 19.7227 21.2643C19.8824 21.5003 19.9548 21.7845 19.9269 22.066L19.4504 26.7183C19.4256 26.9751 19.3266 27.196 19.1533 27.3812C17.7052 28.9088 15.5764 31.2823 13.3424 31.396C12.1748 31.4549 11.0217 31.6211 9.88304 31.8946C9.11155 32.0798 8.32769 32.0209 7.53144 31.7179C5.70791 31.0319 3.85345 30.3565 1.96803 29.6916C0.0496135 29.0161 -0.0494229 24.4711 0.0124616 23.0381C0.0537179 22.1081 0.528158 21.6914 1.4358 21.7882L1.89993 21.8387C2.27785 21.8782 2.63249 22.0437 2.90884 22.3096C3.18519 22.5756 3.36784 22.927 3.4285 23.3096L3.91737 26.428C3.97925 26.8067 4.1876 27.0592 4.54241 27.1855Z" fill="black"/>
</svg>
