<svg width="21" height="32" viewBox="0 0 21 32" fill="none" xmlns="http://www.w3.org/2000/svg">
<path d="M17.8107 1.56331C18.2896 1.25236 18.8168 1.10967 19.3924 1.13522C20.0295 1.16078 20.392 1.48025 20.4799 2.09363C20.7918 4.33417 20.7742 6.58749 20.4271 8.85359C20.2821 9.7694 19.7439 10.1229 18.8125 9.91423C18.7378 9.89719 18.6719 9.88227 18.6147 9.8695C17.6569 9.65652 17.178 9.07296 17.178 8.11881L17.1714 5.30748C17.1709 5.16653 17.1176 5.03074 17.0216 4.9259C16.9256 4.82107 16.7937 4.7545 16.6508 4.73883C14.5287 4.48964 13.8894 2.73257 11.9123 2.52172C7.90525 2.10002 7.44389 4.29158 5.58538 6.73871C4.37274 8.33605 4.93293 10.3806 6.41579 11.6649C8.97948 13.882 12.5581 14.7893 15.6622 16.1119C19.7351 17.8498 21.4772 20.7037 20.8885 24.6737C20.6644 26.1901 19.9043 27.6639 18.6081 29.0951C15.5106 32.507 9.79009 32.4687 5.49311 31.2356C2.96237 30.5114 1.14783 28.8119 0.0494163 26.1368C-0.0022082 26.0076 -0.0137019 25.8676 0.0164318 25.7343L0.62938 22.9549C0.765583 22.3245 1.161 22.0711 1.81566 22.1946L2.4747 22.316C3.35343 22.4821 3.7708 22.9954 3.72687 23.8558C3.60384 26.2838 4.69569 27.8662 7.00235 28.6031C9.42105 29.3763 12.8349 29.5168 14.9966 28.1239C15.1811 28.0089 15.3195 27.8534 15.4118 27.6575L17.4219 23.4661C17.469 23.3666 17.4829 23.2549 17.4614 23.1466C17.0396 21.1191 15.6534 19.6388 13.3028 18.706C10.8556 17.7391 8.48301 16.7807 6.18514 15.8308C4.41889 15.096 1.51249 12.8086 1.68384 10.5212C1.73217 9.87376 1.70581 9.22204 1.60476 8.56607C1.56521 8.31901 1.45537 8.10816 1.27523 7.93352L1.07753 7.73545C0.853451 7.51395 0.860021 7.30097 1.09728 7.09651C3.28531 5.21803 3.14034 1.96584 6.30376 0.886039C10.3459 -0.494066 13.9245 -0.261921 17.0396 1.58248C17.2988 1.73582 17.5559 1.72943 17.8107 1.56331Z" fill="black"/>
</svg>
