<svg width="28" height="44" viewBox="0 0 28 44" fill="none" xmlns="http://www.w3.org/2000/svg">
<path d="M23.1268 28.402C20.919 26.3178 19.1639 25.0646 17.8615 24.6424C15.0471 23.718 11.9406 22.7915 8.54194 21.8627C7.03439 21.4494 5.74761 20.8517 4.68163 20.0695C3.19638 18.9808 2.15718 17.9498 1.56397 16.9766C0.975226 15.9989 0.495739 14.7079 0.125543 13.1036C-0.0796259 12.2237 -0.0104945 11.335 0.33294 10.4373C1.14916 8.2864 1.88732 6.29107 2.54742 4.45127C3.20307 2.59814 6.81585 1.05164 8.63561 0.778334C12.5628 0.1784 15.6002 -0.834815 19.3601 1.26495C21.2512 2.31817 22.984 3.31362 24.5585 4.25129C25.3613 4.73124 25.6044 5.41116 25.2877 6.29106C25.1227 6.74879 24.7681 7.11986 24.224 7.40427C23.9788 7.53018 23.7059 7.59143 23.4316 7.58209C23.1574 7.57275 22.8911 7.49313 22.6584 7.35094C20.9323 6.30217 19.2799 5.27562 17.7009 4.27129C16.8134 3.70246 15.8411 3.48248 14.784 3.61136C12.8349 3.84244 10.9482 4.08242 9.12399 4.33128C5.50454 4.81789 5.41088 8.17086 4.35381 10.8172C3.1897 13.7436 6.21374 16.7233 8.72928 17.6765C11.9094 18.8852 15.5244 19.9762 19.5742 20.9495C20.3613 21.1379 21.0904 21.508 21.7017 22.0293L26.2244 25.8689C26.7323 26.2976 27.0615 26.8989 27.1476 27.5554L27.9772 33.868C28.062 34.5302 27.9103 35.1323 27.5223 35.6745L23.9296 40.7406C23.4468 41.4195 22.7336 41.9004 21.9225 42.0938C19.9065 42.5871 17.8035 43.147 15.6136 43.7736C14.6859 44.0403 13.7871 44.0714 12.9174 43.8669C10.3394 43.2626 7.76139 42.7071 5.1834 42.2004C3.22984 41.8205 1.73793 39.854 0.533682 38.4409C-0.18887 37.5876 -0.177727 36.7433 0.567125 35.9078C0.995303 35.4323 1.69333 35.3145 2.66119 35.5545C3.09385 35.6652 3.46425 35.9408 3.69148 36.3211C4.65042 37.8987 5.7677 38.8186 7.04332 39.0808C9.06825 39.4896 11.053 39.9296 12.9977 40.4007C13.6979 40.574 14.3825 40.5606 15.0516 40.3607C17.072 39.7652 18.9208 39.1897 20.5978 38.6342C20.8476 38.5542 21.0416 38.4053 21.1799 38.1876L23.7958 34.1813C23.9742 33.9058 24.0411 33.6081 23.9965 33.2881L23.3676 28.8619C23.3462 28.6857 23.2606 28.5223 23.1268 28.402Z" fill="black"/>
</svg>
