<svg width="30" height="42" viewBox="0 0 30 42" fill="none" xmlns="http://www.w3.org/2000/svg">
<path d="M4.9009 36.8746C6.40947 37.4577 7.98784 38.0916 9.636 38.7763C11.3855 39.5051 13.905 38.5576 15.7423 38.286C17.8971 37.9679 18.8022 36.371 20.1059 34.9398C20.6238 34.3744 20.8917 33.6323 20.9097 32.7135C20.9773 28.9278 19.3516 26.0301 16.0328 24.0202C14.4341 23.0528 12.8648 22.2002 11.3247 21.4625C10.6654 21.1456 10.1017 20.6635 9.69004 20.0644C8.36611 18.1385 7.05793 16.1993 5.76552 14.2468C5.46155 13.7896 5.23864 13.233 5.25891 12.6764C5.48857 7.44189 7.87301 2.92295 13.2701 1.4321C15.2155 0.895391 17.1135 0.0340081 19.1602 0.000878032C20.957 -0.032252 27.0025 0.868894 28.0158 3.26088C28.6507 4.7672 29.2766 6.4767 29.8936 8.38941C30.1728 9.2552 29.9026 9.90455 29.083 10.3375C29.0065 10.3772 28.9254 10.4037 28.8398 10.417C28.2634 10.4921 27.8514 10.2712 27.6037 9.75436C26.9282 8.34523 26.3316 6.93831 25.8137 5.5336C25.53 4.7694 24.9874 4.19956 24.1858 3.82409C21.4771 2.55852 18.9103 2.0682 16.3097 3.26088C15.1074 3.80422 13.6821 3.94998 12.7837 4.97038C11.068 6.93168 9.89268 10.0724 11.6219 12.418C12.9796 14.2534 13.9726 16.0491 16.1409 17.1622C18.3294 18.2842 20.527 19.5366 22.7335 20.9192C23.3091 21.2798 23.7792 21.7797 24.098 22.3703C24.9446 23.9252 25.7709 25.5132 26.577 27.1344C27.0498 28.0753 26.9823 29.2613 26.6783 30.2552C26.1694 31.9427 25.6471 33.6323 25.1112 35.3241C24.9916 35.7018 24.7701 36.0426 24.4695 36.3114C22.4025 38.1402 19.7006 40.8171 16.7488 41.2146C13.8307 41.6122 11.1761 42.4206 8.19723 41.7315C6.17981 41.2588 4.08132 40.795 1.90178 40.34C1.34151 40.2238 0.842144 39.9147 0.494004 39.4687C0.145863 39.0227 -0.0280597 38.4692 0.00369064 37.9083C0.12978 35.7084 0.224345 33.4711 0.28739 31.1961C0.318912 30.1448 0.8683 29.7274 1.93556 29.9438C2.1525 29.9873 2.35208 30.0918 2.51027 30.2446C2.66846 30.3974 2.77852 30.5921 2.82719 30.8052L3.96199 35.7946C4.01583 36.037 4.12975 36.2625 4.29358 36.451C4.4574 36.6394 4.66605 36.785 4.9009 36.8746Z" fill="black"/>
</svg>
