<svg width="36" height="53" viewBox="0 0 36 53" fill="none" xmlns="http://www.w3.org/2000/svg">
<path d="M5.72784 46.3998C7.61246 47.1168 9.52721 47.8894 11.4721 48.7175C12.6883 49.2399 13.8772 49.3706 15.0386 49.1093C16.6384 48.7536 18.2326 48.4507 19.8214 48.2006C22.3032 47.8004 23.3222 45.8246 24.859 44.1072C25.5657 43.3291 25.9273 42.3787 25.9437 41.256C26.0204 37.1376 24.7822 34.0251 22.2292 31.9186C20.2077 30.2513 17.2958 28.62 13.4937 27.0249C12.524 26.6136 11.6967 25.9189 11.0119 24.9407C9.1985 22.3562 7.43988 19.794 5.73605 17.254C5.56074 16.9928 5.47034 16.7038 5.46486 16.387C5.4046 12.5353 6.39896 9.05608 8.44794 5.94919C8.83692 5.36005 9.34094 4.89319 9.96002 4.54859C14.3319 2.08087 18.2929 -0.670319 23.5934 0.146698C25.6862 0.4635 27.7516 0.821994 29.7897 1.22217C30.3686 1.33367 30.9139 1.58096 31.3819 1.94429C31.8499 2.30762 32.2277 2.77692 32.4851 3.31472L35.8133 10.276C36.1694 11.0208 36.016 11.6405 35.3531 12.1352L35.0162 12.3853C33.8657 13.2412 33.0001 13.0105 32.4194 11.6933L29.576 5.31559C29.4781 5.09917 29.3352 4.90769 29.1576 4.75491C28.98 4.60212 28.7721 4.49179 28.5488 4.43187C25.4506 3.58984 19.2955 2.23927 16.6904 4.92375C15.1948 6.47442 13.1978 7.56655 12.4089 9.69246C11.5159 12.0935 11.9761 14.3417 13.7895 16.437C15.3345 18.2295 16.2302 20.0969 18.4819 21.1974C21.5554 22.7091 24.6727 24.4293 27.8338 26.3579C28.506 26.7671 29.0543 27.3522 29.4198 28.0503L32.7645 34.378C33.1298 35.0715 33.2321 35.8781 33.0521 36.6457C32.5043 38.9744 31.8797 41.3588 31.1785 43.7987C30.4224 46.4499 26.5436 48.8509 24.4809 50.5016C23.6456 51.1633 22.6588 51.5993 21.6129 51.7688C18.2025 52.3107 14.1182 53.5279 10.7982 52.7442C7.87269 52.0495 4.97453 51.3603 2.10377 50.6767C1.50856 50.5373 0.977424 50.1969 0.596896 49.7109C0.216368 49.225 0.00887709 48.6221 0.00822034 48.0005L7.01564e-06 39.3635C-0.000839091 39.0845 0.0748624 38.811 0.21872 38.5733C0.362577 38.3356 0.568954 38.143 0.814957 38.017C1.06096 37.8909 1.33697 37.8362 1.61234 37.8591C1.88771 37.8819 2.15168 37.9813 2.37496 38.1463C2.90638 38.5409 3.25426 39.1301 3.41862 39.9137C3.82951 41.8868 4.29245 43.7181 4.80743 45.4077C4.95535 45.8913 5.26216 46.222 5.72784 46.3998Z" fill="black"/>
</svg>
