<svg width="50" height="73" viewBox="0 0 50 73" fill="none" xmlns="http://www.w3.org/2000/svg">
<path d="M36.8349 56.1238C36.5708 54.0996 37.0415 52.2012 36.2263 50.2456C34.9404 47.196 33.4286 45.0117 31.691 43.6927C28.6675 41.3979 24.7943 39.3165 20.0714 37.4486C18.1884 36.6938 16.604 35.5159 15.4213 33.9263C13.0484 30.7013 10.6946 27.4801 8.36001 24.2627C7.93256 23.6731 7.68537 22.9782 7.64814 22.2614C7.31517 16.8521 9.26708 8.16067 14.8243 5.43887C21.2885 2.27106 25.5368 -0.988227 33.2985 0.281183C37.5927 0.990223 43.4369 0.830113 45.6414 5.24446C47.0422 8.05774 48.3741 10.7795 49.6371 13.4099C50.3337 14.8661 50.0275 16.0707 48.7185 17.0237C48.5195 17.1609 48.3052 17.26 48.0756 17.321C46.7896 17.6717 45.8634 17.2486 45.297 16.0516L41.198 7.45164C41.0219 7.09331 40.7617 6.81503 40.4172 6.61681C37.9371 5.21016 33.7692 5.09579 30.9677 4.70696C25.5368 3.94074 23.2864 6.70828 19.6466 9.6588C16.4432 12.2434 14.8013 17.7442 17.5684 21.2093C20.0715 24.3428 22.1267 27.888 26.0305 29.5691C29.8501 31.2083 33.8879 33.2477 38.1438 35.6874C39.6671 36.5566 40.9262 37.7993 41.9213 39.4156C43.7431 42.3585 45.3735 45.2633 46.8125 48.1299C47.0641 48.6384 47.1212 49.2198 46.9733 49.7653C46.0088 53.3906 44.964 61.0413 42.2658 63.4429C39.8546 65.5853 37.3324 67.6476 34.6993 69.6299C33.5899 70.4565 32.2984 71.0056 30.9332 71.2309L20.68 72.8663C19.2615 73.0853 17.816 73.0349 16.4202 72.7176L3.97397 69.8243C1.62403 69.2753 0.403127 67.8001 0.311273 65.3985C0.173491 61.8152 0.0701498 58.4377 0.00125896 55.2661C-0.0370137 53.6345 0.79734 52.6586 2.5043 52.3384C2.94061 52.2546 3.3042 52.3804 3.59507 52.7158C5.43216 54.8086 6.0981 59.1887 6.68368 61.8075C6.78601 62.2742 7.00371 62.7074 7.31674 63.0671C7.62976 63.4269 8.02803 63.7016 8.47483 63.866C11.2152 64.8877 14.1507 66.0122 17.2814 67.2397C18.552 67.7429 19.8533 67.8535 21.1852 67.5714C24.8479 66.7937 30.0836 66.748 32.6211 63.8089C34.5615 61.556 37.2712 59.4517 36.8349 56.1238Z" fill="black"/>
</svg>
