<svg width="54" height="80" viewBox="0 0 54 80" fill="none" xmlns="http://www.w3.org/2000/svg">
<path d="M9.62785 69.9503C12.4795 70.9296 15.4521 72.0458 18.5456 73.2989C22.5604 74.9421 27.9761 73.1869 32.1035 72.4648C35.8682 71.8051 38.2946 67.834 40.671 65.1825C41.0472 64.7598 41.2405 64.205 41.2088 63.6389C41.0921 61.8878 41.0963 60.1243 41.2214 58.3483C41.459 54.8503 39.5078 52.6096 37.7568 49.8834C37.0064 48.7049 36.0016 47.7547 34.7425 47.0327C29.9147 44.2359 25.0744 41.9537 20.2216 40.186C18.8583 39.6881 17.4074 38.4806 16.5069 37.3104C13.822 33.8083 11.1287 30.2853 8.42716 26.7417C7.51829 25.5383 7.12221 24.2105 7.23895 22.7582C7.6642 17.7539 8.31458 13.7953 11.1913 9.47566C12.2502 7.88226 13.7803 6.56687 15.7815 5.5295C19.0584 3.82821 22.0309 2.35929 24.6992 1.12274C29.9397 -1.29226 37.3316 0.81153 42.7597 1.67047C48.8508 2.6539 51.0771 9.22668 53.5911 14.0567C54.1998 15.2268 54.1289 16.3514 53.3785 17.4302C53.0866 17.8452 52.7114 18.1315 52.2528 18.2892C50.3433 18.9365 48.9675 18.3431 48.1254 16.509L44.5983 8.76609C44.3534 8.22471 43.9746 7.75437 43.4976 7.39937C43.0206 7.04438 42.4611 6.81643 41.8717 6.73701C38.7782 6.31376 35.8599 5.87392 33.1166 5.41747C27.6884 4.52118 24.4866 7.75778 20.4717 10.5462C16.6945 13.1729 14.8059 19.5091 17.9703 23.2686C20.7219 26.5176 22.8731 30.4264 27.0255 32.1443C31.9201 34.1775 36.8771 36.493 41.8967 39.0905C45.824 41.1196 48.7758 47.3439 51.0646 50.9415C51.4603 51.5559 51.7274 52.244 51.8499 52.9648C51.9724 53.6856 51.9478 54.4243 51.7775 55.1366L49.0134 66.7759C48.818 67.6006 48.3623 68.3421 47.7127 68.8921L38.7949 76.3986C37.838 77.2047 36.6788 77.7343 35.443 77.9297L23.3234 79.8468C21.7384 80.1016 20.1141 80.0381 18.5456 79.66L4.36228 76.2118C3.48024 76.0022 2.68624 75.5221 2.09178 74.8389C1.49731 74.1557 1.13225 73.3037 1.04784 72.4026L0.0222351 61.448C-0.144529 59.7135 0.626763 58.6554 2.3361 58.2736C2.86974 58.1491 3.44505 58.2072 4.06208 58.4479C4.37438 58.5725 4.65464 58.7658 4.88199 59.0136C5.10934 59.2615 5.27798 59.5574 5.37537 59.8795L7.83931 68.1079C7.96667 68.5345 8.19559 68.9245 8.50686 69.2451C8.81812 69.5658 9.20259 69.8076 9.62785 69.9503Z" fill="black"/>
</svg>
