<svg width="78" height="118" viewBox="0 0 78 118" fill="none" xmlns="http://www.w3.org/2000/svg">
<path d="M60.4483 79.0822C57.715 74.8526 55.4736 70.5681 50.4808 68.5723C42.1595 65.2277 34.4941 61.7854 27.4847 58.2455C17.6327 53.2652 11.7591 45.9962 9.86402 36.4385C8.56419 29.9202 9.91871 22.7976 13.9275 15.0708C15.4217 12.1779 17.493 10.0356 20.1412 8.64405C29.3251 3.82855 37.3792 -1.33481 48.2577 0.313075C53.5786 1.11871 58.79 2.0403 63.8922 3.07786C70.5432 4.41448 74.6796 14.43 77.4129 19.8497C78.4333 21.8516 78.1235 23.6215 76.4836 25.1596C76.0948 25.538 75.6575 25.8065 75.1716 25.9652C72.2318 26.9417 70.0998 26.0202 68.7757 23.2004L64.2566 13.606C63.8254 12.6878 63.1754 11.8912 62.3646 11.2874C61.5538 10.6835 60.6075 10.2912 59.6101 10.1455C55.176 9.52294 50.9303 8.84547 46.8729 8.11308C39.0374 6.70322 32.6233 12.3244 27.0473 16.6455C23.4394 19.4652 21.8298 23.4934 22.2185 28.73C22.7773 36.2737 26.2881 41.6568 32.7508 44.8793C40.3919 48.7 49.9524 52.9723 61.4323 57.6962C63.2043 58.4248 64.7232 59.6458 65.8055 61.2117C68.4659 65.0568 71.1385 68.9629 73.8232 72.9301C75.7 75.6949 76.6111 77.3977 75.9187 81.023C74.9226 86.2963 73.9689 91.6489 73.0578 97.0808C72.8088 98.5331 72.1067 99.8671 71.0535 100.889C67.4698 104.38 63.546 108.012 59.282 111.784C57.2655 113.578 54.8541 114.738 52.0479 115.263C43.6293 116.837 34.0446 119.272 25.8265 117.203C19.631 115.665 13.5084 114.219 7.45871 112.864C6.11526 112.564 4.89479 111.858 3.96029 110.841C3.02579 109.823 2.42177 108.542 2.22901 107.17C1.58517 102.531 0.874543 97.8437 0.0970717 93.1076C-0.905137 86.8639 6.12854 84.154 8.51562 90.0315C9.96123 93.5958 11.1821 97.0442 12.1782 100.377C12.3587 100.989 12.6828 101.549 13.1233 102.011C13.5639 102.473 14.1082 102.823 14.7111 103.032C18.9629 104.496 23.4637 106.169 28.2136 108.048C34.5002 110.539 41.4063 107.81 47.7658 106.877C53.615 106.016 57.8425 99.6625 61.2864 95.4146C61.8574 94.7188 62.1064 93.9132 62.0336 92.9977C61.6691 88.6216 62.8718 82.8174 60.4483 79.0822Z" fill="black"/>
</svg>
