<svg width="106" height="162" viewBox="0 0 106 162" fill="none" xmlns="http://www.w3.org/2000/svg">
<path d="M47.2706 14.6339C37.2414 20.672 28.7667 24.2898 27.9393 37.4637C27.6719 41.7718 29.0509 45.5893 32.0764 48.916C36.8402 54.1806 41.4036 62.5141 48.2735 64.8345C60.9938 69.1593 73.3296 74.0579 85.281 79.5304C87.1364 80.3787 88.6826 81.6263 89.9196 83.273L104.261 102.26C104.88 103.092 105.172 104.015 105.139 105.03C104.855 114.445 103.785 124.109 101.929 134.022C101.733 135.127 101.199 136.146 100.4 136.942C94.0315 143.229 83.6764 155.705 74.6752 157.426C67.4375 158.807 60.1579 160.154 52.8367 161.468C48.7247 162.217 44.9054 162.175 41.3785 161.343C31.0317 158.932 20.9524 156.428 11.1406 153.833C9.76786 153.47 8.51509 152.755 7.50759 151.762C6.5001 150.768 5.77301 149.529 5.3988 148.17L0.309086 129.481C-0.543392 126.354 0.367504 123.876 3.04195 122.046C3.44311 121.78 3.86099 121.589 4.29559 121.472C8.4744 120.391 11.3077 121.863 12.7953 125.889C14.751 131.153 16.2554 140.659 22.3983 142.456C28.6665 144.286 34.9264 146.273 41.1779 148.419C49.6525 151.313 58.5533 147.521 66.9778 146.323C75.4274 145.101 81.47 135.969 86.0082 129.881C86.6096 129.071 86.9268 128.089 86.9108 127.086C86.8272 123.493 86.8773 119.759 87.0612 115.883C87.1949 112.856 86.2255 109.737 84.1528 106.527C80.3585 100.622 76.681 96.7048 73.1207 94.7753C64.178 89.9348 52.2099 84.9863 37.2163 79.9296C34.8093 79.1063 32.3521 77.2599 30.7725 75.2639C25.3401 68.4108 19.6653 61.2416 13.7481 53.7564C11.8091 51.3113 10.8313 48.5667 10.8146 45.5228C10.7143 33.9956 15.0269 16.4802 26.4852 11.1159C38.6455 5.40218 50.0035 -1.80852 64.1947 0.412083C71.4492 1.54318 79.1967 2.97368 87.4374 4.70359C89.2049 5.07397 90.8781 5.79546 92.3561 6.82459C93.8342 7.85373 95.0864 9.16918 96.0373 10.6917L104.738 24.5143C106.743 27.708 106.359 30.594 103.584 33.1722C103.116 33.6047 102.598 33.9207 102.03 34.1203C97.7674 35.6506 94.6249 34.4031 92.6024 30.3777L86.7102 18.651C86.2361 17.7083 85.5482 16.8913 84.7028 16.2668C83.8574 15.6424 82.8784 15.2281 81.846 15.0581C75.5945 14.0101 69.1425 12.8125 62.4898 11.4652C58.4029 10.6169 51.3073 12.2387 47.2706 14.6339Z" fill="black"/>
</svg>
