<svg width="62" height="95" viewBox="0 0 62 95" fill="none" xmlns="http://www.w3.org/2000/svg">
<path d="M52.1829 73.1118C51.8576 68.9762 52.6856 64.0661 49.5809 60.7635C46.8309 57.8262 44.5836 54.7428 40.577 53.3545C33.303 50.8605 26.2951 48.4347 19.5533 46.0771C16.8231 45.1223 13.8613 43.3005 10.6679 40.6117C4.45835 35.3655 2.09277 27.0943 3.77821 19.3346C5.09403 13.2116 10.9931 8.66684 15.0736 4.41435C18.134 1.21402 23.8557 -0.0427349 28.2763 0.00110525C33.0862 0.0498165 37.9108 0.234926 42.7503 0.55642C46.8161 0.819461 50.6306 2.20772 53.277 5.48112C55.0314 7.66338 56.6627 9.73361 58.1707 11.6918C59.5703 13.5039 59.3682 15.1162 57.5645 16.5288L57.2245 16.7919C55.8347 17.883 54.514 17.8051 53.2622 16.5581C51.3106 14.5999 49.4034 12.4614 47.5406 10.1428C46.0473 8.3015 43.9479 7.86309 41.7007 7.73157C37.0189 7.45879 32.48 7.22498 28.084 7.03013C21.4014 6.75248 18.7106 11.8672 14.9553 16.0466C13.4079 17.771 12.6391 19.812 12.6489 22.1696C12.6637 32.6766 19.1098 36.3738 28.9416 39.3695C34.195 40.977 39.7392 42.7744 45.5742 44.7619C51.4141 46.7493 56.7365 53.486 60.8614 57.8701C61.602 58.6675 62.0089 59.7173 61.9999 60.8073L61.8224 75.4791C61.8029 76.7411 61.3193 77.9517 60.4623 78.8841C57.3132 82.3182 51.2958 90.6625 46.9344 91.6123C42.3413 92.6255 37.4476 93.6582 32.2533 94.7103C30.2623 95.1195 28.2714 95.0952 26.2804 94.6373L7.75526 90.414C7.25032 90.2982 6.7753 90.0845 6.35865 89.7857C5.942 89.4868 5.59227 89.109 5.33057 88.675C3.78312 86.142 2.25047 83.3655 0.73259 80.3454C-2.20954 74.5001 4.44349 70.1599 7.72566 75.9906C8.90843 78.095 9.99759 80.0385 10.9931 81.8213C11.1943 82.1778 11.4665 82.4917 11.7939 82.745C12.1212 82.9983 12.4972 83.186 12.9003 83.2973L27.9362 87.4767C28.8575 87.7262 29.8288 87.7413 30.76 87.5206L43.5782 84.4372C44.3351 84.2475 45.0069 83.81 45.4855 83.195L51.5767 75.2015C52.0499 74.5877 52.2519 73.8912 52.1829 73.1118Z" fill="black"/>
</svg>
