<svg width="51" height="79" viewBox="0 0 51 79" fill="none" xmlns="http://www.w3.org/2000/svg">
<path d="M42.8654 53.1566C42.8182 52.4754 42.5429 51.8325 42.0838 51.3318C39.5071 48.4919 36.7472 45.3499 32.9004 44.0931C26.7537 42.079 21.0221 40.2019 15.7058 38.4617C11.2118 36.9873 5.77749 32.5644 3.77471 27.9359C1.86964 23.521 1.60093 18.8845 2.96868 14.0265C3.26177 12.9792 3.78693 12.0688 4.54408 11.2954C7.36913 8.41119 10.2104 5.58338 13.0681 2.81197C16.5973 -0.607986 28.0522 -0.0641817 33.5354 0.20168C35.7336 0.310442 37.834 0.757578 39.5193 2.20774C42.3362 4.63272 44.8356 6.9288 47.0175 9.09598C48.0514 10.1272 48.2509 11.2994 47.6159 12.6126C47.4856 12.8704 47.3065 13.0839 47.0785 13.2531C45.5887 14.3488 44.1436 14.2964 42.7433 13.096C40.2032 10.9087 36.332 6.63072 32.8638 6.3286C28.382 5.92981 22.6056 5.18056 18.4047 7.07785C15.4738 8.40716 13.7275 11.5854 11.5293 13.8815C10.5849 14.8644 10.0476 16.1373 9.91733 17.7002C9.14797 26.6912 14.5335 30.1716 22.4713 32.649C27.4131 34.1877 32.3468 35.7547 37.2723 37.3499C39.2832 37.9944 40.9115 38.933 42.1571 40.1656C44.8682 42.8242 47.5263 45.4909 50.1315 48.1656C50.4816 48.5282 50.6607 48.9592 50.6689 49.4587L50.9986 62.9452C51.0225 63.7531 50.739 64.5385 50.2048 65.1445L42.5479 73.8697C41.6592 74.8901 40.4651 75.6017 39.1407 75.8999L26.5868 78.7881C25.3732 79.0665 24.1125 79.0706 22.8987 78.8002L6.96204 75.2232C6.12873 75.0367 5.39763 74.5543 4.91042 73.8697C3.04605 71.2916 1.53581 68.786 0.379734 66.353C-0.279715 64.9592 -0.080264 63.6984 0.978112 62.5705C1.18979 62.345 1.43407 62.1677 1.71088 62.0388C3.77878 61.1204 5.37447 61.636 6.49797 63.5857C7.60927 65.5071 9.05031 68.8425 11.334 69.4346C14.6882 70.3208 18.364 71.3279 22.3614 72.4558C23.9571 72.9069 25.5365 72.9109 27.0997 72.4678C30.4458 71.5333 33.6494 70.7639 36.7105 70.1597C37.1655 70.0664 37.5638 69.8066 37.8219 69.4346L43.2318 61.7488C43.3504 61.5762 43.4104 61.377 43.4028 61.1808L42.8654 53.1566Z" fill="black"/>
</svg>
