<svg width="35" height="56" viewBox="0 0 35 56" fill="none" xmlns="http://www.w3.org/2000/svg">
<path d="M8.96249 49.6649C11.763 50.2988 14.4129 50.944 16.9122 51.6005C17.3939 51.7282 17.9004 51.7194 18.3766 51.575C20.4519 50.9638 22.5858 50.3638 24.7783 49.7752C27.046 49.1725 28.8452 45.6494 30.0586 43.7392C30.2482 43.4336 30.318 43.1025 30.2678 42.746L29.4979 37.2872C29.4477 36.925 29.2971 36.6137 29.046 36.3534C27.1799 34.4433 25.1046 32.0153 22.3933 31.2428C18.438 30.1165 14.5915 28.9393 10.8537 27.7111C7.82443 26.7094 4.837 24.5276 2.99601 22.1166C2.14804 21.0016 1.35309 18.9217 0.611112 15.8768C0.545525 15.5936 0.557076 15.2973 0.644566 15.0194C1.46464 12.4782 2.41025 9.6371 3.48137 6.496C5.24705 1.29196 13.6319 0.621295 17.8829 0.0864596C20.3933 -0.22765 22.6862 0.315674 24.8703 1.69097C27.0795 3.08324 29.1743 4.39061 31.1548 5.61309C32.4267 6.39412 32.7085 7.44964 32 8.77965C31.9051 8.97208 31.7768 9.14187 31.615 9.28902C30.728 10.104 29.7796 10.1861 28.7698 9.53521C26.5607 8.10898 21.9582 4.30571 19.3641 4.60284C17.3167 4.83489 15.1158 5.10089 12.7616 5.40085C10.0169 5.75741 8.02524 7.26853 7.37253 10.0701C6.87044 12.1924 5.64872 14.3827 6.09223 16.556C6.81189 20.0706 9.65707 21.8959 13.2219 23.0504C16.7198 24.1824 20.3041 25.3001 23.9749 26.4038C27.8243 27.5583 30.6527 30.6994 33.5397 33.2293C33.8416 33.4954 34.0876 33.8205 34.263 34.1851C34.4384 34.5498 34.5396 34.9465 34.5606 35.3516L34.9957 43.5779C35.0336 44.331 34.8182 45.0736 34.3849 45.6833C32.9958 47.6472 31.5648 49.6337 30.092 51.6429C29.2775 52.7579 28.2956 53.454 27.1464 53.7313C24.3124 54.4105 21.5705 55.1066 18.9206 55.8197C18.1172 56.0348 17.3111 56.0574 16.5022 55.8876L5.74078 53.57C5.0267 53.4172 4.42137 53.0663 3.92486 52.5173C2.54691 50.9892 1.37261 49.4583 0.401909 47.9245C-0.284278 46.8435 -0.0918089 45.955 0.979312 45.2588L1.2471 45.0806C2.52463 44.2542 3.61526 44.458 4.51901 45.6918C5.74913 47.3642 6.77004 49.164 8.96249 49.6649Z" fill="black"/>
</svg>
