<svg width="32" height="48" viewBox="0 0 32 48" fill="none" xmlns="http://www.w3.org/2000/svg">
<path d="M20.8864 26.8745C19.1427 26.2281 17.777 25.5553 15.8873 25.302C11.4036 24.6904 7.79316 23.7265 5.05597 22.4102C3.71028 21.7637 2.46481 20.5319 1.31954 18.7147C-1.46346 14.3028 0.417645 6.9642 4.51483 3.97634C9.80596 0.123568 15.3634 -0.90734 21.3674 0.78753C22.925 1.23018 24.5026 1.38744 26.1002 1.25931C27.466 1.15447 28.5568 2.33388 29.0293 3.52204C29.2469 4.06952 29.1524 4.55585 28.7458 4.98102C27.1224 6.7021 25.0523 6.9642 22.9908 6.02066C19.744 4.5442 15.4235 3.68804 11.8674 4.9985C7.3236 6.6759 4.867 9.20947 5.25353 14.7571C5.57993 19.501 12.9411 20.5843 16.4628 20.8813C19.8557 21.1697 23.008 23.0829 26.1604 24.2798C29.39 25.4942 30.5152 29.81 31.7693 32.7629C32.654 34.8422 30.7558 38.9221 30.0858 41.0189C29.244 43.6747 24.494 45.9724 22.1147 47.3004C21.147 47.842 20.1134 48.0692 19.0139 47.9818C14.221 47.6032 9.46525 47.4023 4.74675 47.379C3.35526 47.3732 2.48485 46.683 2.13555 45.3084C2.07828 45.093 2.0926 44.8716 2.17849 44.6445C2.56215 43.6252 3.2894 43.101 4.36022 43.0719C8.34002 42.9613 12.9612 43.0894 18.2237 43.4563C20.0618 43.5874 21.6509 42.2944 23.2228 41.4557C24.1676 40.9548 24.9779 39.9792 25.6536 38.529C26.5698 36.5662 26.9936 35.2877 26.9248 34.6937C26.4782 30.803 24.4654 28.1967 20.8864 26.8745Z" fill="black"/>
</svg>
