<svg width="38" height="57" viewBox="0 0 38 57" fill="none" xmlns="http://www.w3.org/2000/svg">
<path d="M23.1877 51.288C25.4841 50.1433 28.7496 49.0722 29.8135 46.5729C30.6246 44.6721 32.1415 41.3852 31.1092 39.3899C29.9926 37.2372 29.4238 34.8533 27.1485 33.5932C23.9321 31.8079 20.7825 30.6563 17.6996 30.1382C12.696 29.3086 5.53297 27.4709 2.49921 23.0813C-0.211503 19.1748 -0.717131 14.8377 0.982333 10.0701C2.82927 4.86845 6.53719 1.71804 12.1061 0.6189C16.6497 -0.277216 20.8808 -0.200205 24.7994 0.849931C26.8219 1.389 28.8866 1.71455 30.9933 1.82657C31.394 1.84868 31.7825 1.97093 32.1233 2.18207C32.4641 2.39321 32.7461 2.68645 32.9434 3.03478C33.1407 3.3831 33.2468 3.77532 33.2521 4.17529C33.2574 4.57526 33.1617 4.97013 32.9737 5.32352C31.7237 7.66182 29.7187 8.2534 26.9589 7.09825C19.6167 4.03186 7.67133 3.90583 6.20712 13.6721C5.31174 19.6789 9.57797 22.9448 14.7922 24.0999C17.0886 24.604 19.4096 25.1116 21.7551 25.6226C25.5684 26.4418 29.35 28.416 32.5945 30.3588C33.3094 30.7906 33.884 31.4217 34.2483 32.1755L37.8403 39.747C38.0089 40.104 38.044 40.4716 37.9457 40.8496C37.1346 43.895 36.2392 49.1037 33.9217 51.1934C32.3698 52.5866 29.7257 54.2143 25.9897 56.0766C24.6344 56.7557 23.1772 57.0602 21.6182 56.9902C16.9833 56.7802 12.6503 56.5106 8.61939 56.1816C6.96557 56.0556 1.26674 55.5515 1.43528 52.9157C1.57222 50.8259 3.23658 50.2378 5.02733 50.4269C10.7718 51.0149 16.3091 51.4105 21.6392 51.6135C22.1783 51.6343 22.7106 51.5224 23.1877 51.288Z" fill="black"/>
</svg>
