<svg width="32" height="47" viewBox="0 0 32 47" fill="none" xmlns="http://www.w3.org/2000/svg">
<path d="M23.7213 28.3969C21.4614 27.1283 18.9224 25.7642 16.2933 25.3819C15.0088 25.2023 13.7273 24.9388 12.4488 24.5912C6.81257 23.0794 1.45546 21.472 0.303006 15.0597C-0.80143 8.90226 1.11333 4.52605 6.04728 1.93101C10.7561 -0.553968 17.1577 -0.301998 21.8845 0.801472C23.7753 1.23591 25.531 1.12295 27.2867 1.91363C27.5448 2.02863 27.7751 2.19391 27.9627 2.3989C28.1503 2.60388 28.2911 2.84403 28.3761 3.10398C28.7963 4.38412 28.4511 5.4065 27.3407 6.17111C27.0793 6.35348 26.7755 6.47171 26.4556 6.5156C26.1356 6.55949 25.809 6.52775 25.504 6.42309C23.163 5.60634 20.7351 4.98364 18.2201 4.555C13.8894 3.82515 6.79457 4.50287 5.5971 9.46414C4.37262 14.5731 6.00227 18.2484 11.4314 19.6647C13.2861 20.1426 15.0508 20.7769 16.9596 21.0723C20.573 21.6342 24.3395 23.1692 28.2591 25.6773C29.4235 26.4245 30.1528 27.2876 30.4469 28.2666C30.9211 29.8479 31.3833 31.5162 31.8335 33.2713C32.4817 35.7389 31.0952 37.746 30.1138 39.9008C29.2044 41.8905 28.079 43.6109 25.9001 44.3147C24.1594 44.8765 22.5088 45.5311 20.9482 46.2783C19.7417 46.8518 18.3551 47.0835 16.7885 46.9734C11.1823 46.5795 6.62651 45.9626 3.12112 45.1227C0.0779213 44.4015 1.06831 40.3352 4.60671 41.0129C8.34618 41.7254 12.2267 42.2062 16.2483 42.4553C17.7309 42.548 19.7507 42.0498 22.3077 40.9608C23.5382 40.4395 24.4806 39.6633 25.1348 38.6322C26.6414 36.2689 26.9925 33.8795 26.1882 31.464C25.726 30.0796 24.9037 29.0572 23.7213 28.3969Z" fill="black"/>
</svg>
