<svg width="50" height="77" viewBox="0 0 50 77" fill="none" xmlns="http://www.w3.org/2000/svg">
<path d="M33.7014 8.79796C26.3885 6.81135 19.5192 5.26463 13.1937 10.0325C5.938 15.5098 6.35299 26.8335 15.3546 30.8493C19.7434 32.8075 24.5137 34.2833 29.6657 35.2766C35.7336 36.4402 40.0269 39.7181 45.0215 42.7122C48.2415 44.642 49.2146 52.3472 49.8729 55.7244C50.7888 60.4213 46.5384 66.9913 44.0626 70.7659C43.7472 71.2535 43.2845 71.6225 42.746 71.816L30.0092 76.5412C28.8989 76.9424 27.7134 77.0833 26.5459 76.9528C21.6229 76.4041 16.9909 75.8176 12.6499 75.1932C9.58731 74.758 6.20514 73.3863 2.50335 71.0781C1.24398 70.2929 0.857583 69.2097 1.34416 67.8285C1.45865 67.5069 1.63514 67.2089 1.87366 66.9346C3.25706 65.3453 4.94099 64.9101 6.92546 65.6291C8.33748 66.1305 9.7304 66.6461 11.1043 67.1758C15.0541 68.7083 19.2043 68.4387 23.3259 69.4746C25.2245 69.9476 27.0563 69.8388 28.8213 69.1482C32.442 67.7434 37.0359 67.3035 39.2541 63.6993C41.7156 59.6977 42.1592 55.5542 40.585 51.2688C38.6101 45.8765 30.7677 42.7547 25.7588 41.6195C19.0803 40.1154 13.7089 38.4078 9.64455 36.4969C5.03639 34.3258 1.00068 28.6073 0.256505 23.286C-1.09827 13.6084 2.9136 6.41403 12.2921 1.70294C15.6695 0.0143193 18.8895 0.0143236 22.6247 0.000133554C30.7438 -0.0187865 38.0233 1.97254 44.4633 5.97413C44.9045 6.24862 45.2754 6.62095 45.5466 7.06179C45.8179 7.50263 45.9823 7.99992 46.0267 8.51447C46.0711 9.02901 45.9943 9.54675 45.8025 10.0269C45.6107 10.507 45.309 10.9364 44.9213 11.2812C41.1718 14.6159 37.2076 9.74869 33.7014 8.79796Z" fill="black"/>
</svg>
