<svg width="66" height="103" viewBox="0 0 66 103" fill="none" xmlns="http://www.w3.org/2000/svg">
<path d="M42.752 10.2839C35.7369 9.6245 19.8426 7.89842 15.1915 14.7252C8.69541 24.2672 9.50258 36.311 20.5537 41.1014C25.7941 43.377 31.3485 45.1031 37.2168 46.2797C42.0472 47.2494 46.3011 48.8333 49.9784 51.0313C54.9626 53.9921 59.2549 57.3538 62.8553 61.1163C63.3294 61.6077 63.6241 62.183 63.7394 62.8424C64.5658 67.7298 67.3718 76.8839 65.1808 81.2864C62.9514 85.7665 58.973 95.0951 53.8607 96.9182C48.6843 98.7801 43.6553 100.635 38.7736 102.484C37.5004 102.968 36.1244 103.114 34.776 102.911C23.0138 101.03 10.06 101.204 1.46894 91.9144C0.905231 91.3078 0.578952 90.5153 0.550673 89.6842C0.522394 88.853 0.794064 88.0398 1.31521 87.3956L2.83349 85.5337C4.69135 83.2452 6.71579 83.09 8.90679 85.0683C15.7296 91.2744 23.206 91.1969 31.7201 92.4963C36.1598 93.1751 40.3111 91.1969 44.5393 90.0138C49.0943 88.7338 52.0925 84.021 53.5724 79.9094C58.2811 66.8764 47.3261 59.3514 36.621 56.2871C28.7603 54.0374 18.4203 52.3501 11.8089 48.0834C4.12121 43.1314 0.187692 36.2981 0.00831252 27.5836C-0.356854 10.4003 11.3476 0.29584 27.5303 0.0631086C38.2931 -0.0726514 49.1328 -0.596282 57.7622 6.71536C58.3551 7.2149 58.8247 7.8467 59.134 8.56119C59.4433 9.27568 59.5838 10.0534 59.5447 10.8333C59.5056 11.6132 59.2879 12.374 58.9086 13.056C58.5293 13.738 57.9987 14.3226 57.3586 14.764C56.103 15.6303 54.6359 16.1798 52.9574 16.4125C52.6063 16.4608 52.248 16.4246 51.9109 16.3068C51.5739 16.1889 51.2675 15.9926 51.0162 15.7337C48.6715 13.3094 46.3652 10.6136 42.752 10.2839Z" fill="black"/>
</svg>
