<svg width="97" height="152" viewBox="0 0 97 152" fill="none" xmlns="http://www.w3.org/2000/svg">
<path d="M67.4664 17.8853C54.8167 14.0651 43.5004 13.3774 33.5178 15.8224C13.1428 20.7792 11.1711 47.5977 27.9168 58.3422C37.6042 64.5311 50.8635 68.084 62.4084 70.9205C74.8391 74.015 83.2406 82.6106 92.4707 90.404C93.4635 91.2335 94.1064 92.4 94.271 93.6704C95.1664 100.662 96.0332 107.672 96.8714 114.701C97.3286 118.521 96.5666 121.931 94.5853 124.93C89.7559 132.236 83.8692 143.582 74.6962 145.846C63.0084 148.711 52.9497 154.012 40.9476 151.204C33.8416 149.542 26.2117 147.775 18.058 145.903C10.028 144.069 4.79851 138.081 1.14074 131.262C0.607198 130.256 0.329217 129.133 0.331535 127.994C0.333854 126.854 0.616455 125.734 1.15408 124.732C1.69171 123.731 2.46762 122.879 3.41268 122.254C4.35774 121.629 5.44258 121.248 6.57031 121.148C15.6862 120.288 18.058 130.947 26.6309 132.924C31.3745 134.013 36.5468 135.245 42.1478 136.62C51.1779 138.826 68.9238 134.07 74.7534 126.563C85.2695 112.982 80.6115 97.6817 66.6662 89.0001C63.9229 87.2809 60.3985 85.8197 56.093 84.6163C29.2313 77.1667 1.8838 69.5166 0.0549114 37.9992C-0.888107 21.8107 10.4281 7.6279 25.2878 3.10085C41.6906 -1.94193 58.9982 -0.834077 77.2109 6.42447C85.2694 9.63352 100.901 24.3034 84.9551 29.7473C75.9536 32.8131 74.8106 20.0916 67.4664 17.8853Z" fill="black"/>
</svg>
