<svg width="58" height="91" viewBox="0 0 58 91" fill="none" xmlns="http://www.w3.org/2000/svg">
<path d="M10.9553 22.8693C10.7 29.4483 13.9776 34.0767 20.7879 36.7545C27.285 39.3168 33.7357 41.5676 40.1399 43.5066C46.0047 45.2899 49.6418 48.9083 53.8011 53.1674C58.8828 58.344 57.7865 63.6592 57.9953 70.065C58.0649 72.5235 57.3629 74.7915 55.8895 76.8691C51.8288 82.6055 48.2961 86.0393 45.2912 87.1704C41.7294 88.5209 37.5237 89.6751 32.6741 90.6331C24.8602 92.1739 16.3676 88.4689 9.02356 86.7895C4.23777 85.6815 1.40116 79.3795 0.165553 75.207C-0.00114717 74.6497 -0.0426179 74.0627 0.0441446 73.4877C0.130907 72.9127 0.343714 72.3637 0.667542 71.8796C0.991371 71.3956 1.41825 70.9883 1.91795 70.6867C2.41765 70.385 2.9779 70.1965 3.55903 70.1343C10.4854 69.4071 9.75453 77.8733 15.9326 79.4488C20.788 80.6953 26.2872 82.7902 31.3515 81.7168C33.9387 81.1628 36.3345 80.5626 38.5389 79.9162C43.5335 78.4619 47.9538 72.9044 48.2845 67.6585C48.7717 60.0753 42.4545 53.7387 35.6674 51.4014C29.5183 49.2777 23.4854 47.2347 17.5684 45.2726C13.8616 44.026 9.14543 41.1867 6.5698 38.3127C-4.58545 25.8472 0.739852 7.44329 16.5939 2.18009C27.4997 -1.44414 38.2663 -0.549618 48.8936 4.86363C51.3068 6.0871 53.0297 8.26855 54.0622 11.408C54.8047 13.6818 54.3871 15.719 52.8093 17.5196C49.8856 20.8437 46.1091 19.2855 44.7343 15.3554C43.6669 12.3198 41.7062 10.4904 38.8521 9.86714C28.3756 7.54717 11.547 8.04924 10.9553 22.8693Z" fill="black"/>
</svg>
