<svg width="39" height="62" viewBox="0 0 39 62" fill="none" xmlns="http://www.w3.org/2000/svg">
<path d="M31.9986 43.5659C31.2964 36.8109 20.6 33.8585 15.5092 32.2878C7.21188 29.7252 1.04445 24.281 1.38383 14.7979C1.60619 8.4562 5.65542 3.14192 11.7292 1.16972C17.8225 -0.79853 24.2084 -0.28285 30.8868 2.71677C34.5225 4.34649 36.5861 6.90522 37.0776 10.393C37.3663 12.4085 36.512 13.8689 34.5147 14.7743C34.3587 14.8452 34.1988 14.8885 34.0349 14.9042C31.7568 15.1719 30.5474 14.172 30.407 11.9046C30.0442 5.89353 20.085 5.56287 15.556 6.31868C13.2154 6.71233 11.4327 7.74369 10.2078 9.41277C4.63721 16.9709 10.1259 24.2928 17.6509 26.7255C20.8887 27.7727 24.2317 28.9182 27.6802 30.1621C32.2911 31.8155 34.62 34.7442 37.4872 38.3697C38.5249 39.6767 39.0164 41.1607 38.9618 42.8219C38.8682 45.3019 39.4767 50.3682 37.8734 52.2459C35.3339 55.2219 32.5252 59.249 28.5111 60.2292C24.696 61.1622 19.6871 62.7092 15.9188 61.6345C12.4157 60.6425 9.11166 59.7056 6.00649 58.8239C2.96374 57.9618 1.22001 53.1435 0.155046 50.0966C-0.0556775 49.5018 -0.051489 48.851 0.166903 48.2589C0.385295 47.6669 0.803812 47.1718 1.34869 46.8608C4.91807 44.7941 6.93102 48.8566 7.98428 51.561C8.19872 52.118 8.53902 52.6164 8.978 53.0163C9.41697 53.4162 9.94238 53.7065 10.5121 53.8638C13.6719 54.7259 17.9668 56.5092 21.1149 55.6117C23.3852 54.9621 25.8194 54.9976 27.8323 53.6867C31.0857 51.5689 32.4745 48.1953 31.9986 43.5659Z" fill="black"/>
</svg>
