<svg width="37" height="26" viewBox="0 0 37 26" fill="none" xmlns="http://www.w3.org/2000/svg">
<path d="M30.8109 10.8574L22.7842 3.10901C22.4345 2.76881 22.4082 2.40177 22.7055 2.00786C22.959 1.66766 23.2564 1.38116 23.5974 1.1484C24.0695 0.835062 24.5111 0.870874 24.922 1.25583L36.6867 12.3748C37.0365 12.6971 37.0365 13.0239 36.6867 13.3552L24.5941 24.7562C24.1482 25.1859 23.7372 25.1546 23.3613 24.6622L22.6399 23.7356C22.2989 23.2969 22.3339 22.8896 22.7448 22.5136L30.2863 15.5172C31.1344 14.7294 30.9858 14.3355 29.8404 14.3355L0.907339 14.3489C0.426433 14.3489 0.20784 14.1027 0.251559 13.6103L0.395851 12.0794C0.422082 11.7303 0.605678 11.5557 0.946684 11.5557L30.5224 11.6094C31.2394 11.6094 31.3356 11.3587 30.8109 10.8574Z" fill="#020202"/>
</svg>
