<svg width="37" height="25" viewBox="0 0 37 25" fill="none" xmlns="http://www.w3.org/2000/svg">
<path d="M21.434 1.39884L22.9643 0.226498C23.0461 0.165187 23.1465 0.134307 23.2485 0.13917C23.3505 0.144033 23.4477 0.18432 23.5232 0.253127L36.0185 11.7634C36.062 11.8045 36.0966 11.854 36.1203 11.909C36.144 11.964 36.1562 12.0232 36.1562 12.0831C36.1562 12.143 36.144 12.2022 36.1203 12.2572C36.0966 12.3121 36.062 12.3617 36.0185 12.4028L23.47 24.1395C23.4274 24.1793 23.3773 24.2102 23.3227 24.2304C23.268 24.2507 23.2099 24.2598 23.1517 24.2573C23.0935 24.2549 23.0363 24.2408 22.9836 24.216C22.9309 24.1912 22.8836 24.1561 22.8445 24.1129L21.3542 22.5409C21.3123 22.498 21.2797 22.447 21.2582 22.391C21.2368 22.335 21.2271 22.2753 21.2296 22.2154C21.2321 22.1555 21.2468 22.0968 21.2728 22.0428C21.2988 21.9888 21.3356 21.9406 21.3808 21.9014L29.9372 14.3079C30.0055 14.249 30.054 14.1704 30.0762 14.0829C30.0984 13.9954 30.0932 13.9032 30.0612 13.8188C30.0292 13.7344 29.972 13.662 29.8975 13.6112C29.8229 13.5605 29.7345 13.5339 29.6444 13.5352L0.994507 13.5085C0.880312 13.5086 0.770535 13.4641 0.688554 13.3845C0.606573 13.3049 0.558815 13.1965 0.555354 13.0822L0.502156 11.1639C0.500374 11.105 0.510369 11.0464 0.531638 10.9915C0.552907 10.9366 0.584978 10.8866 0.625934 10.8443C0.66689 10.8021 0.715934 10.7685 0.770098 10.7456C0.824262 10.7227 0.882423 10.7109 0.941227 10.7109L29.498 10.8042C29.5864 10.8051 29.6729 10.7793 29.7464 10.7303C29.8199 10.6812 29.8769 10.6111 29.91 10.5291C29.943 10.4471 29.9506 10.357 29.9317 10.2706C29.9129 10.1842 29.8683 10.1055 29.8041 10.0448L21.3941 2.07824C21.3463 2.03411 21.3088 1.97991 21.2844 1.91952C21.26 1.85913 21.2494 1.79406 21.2532 1.72905C21.257 1.66403 21.2752 1.60069 21.3065 1.54358C21.3378 1.48646 21.3813 1.43704 21.434 1.39884Z" fill="#020202"/>
</svg>
