<svg width="39" height="25" viewBox="0 0 39 25" fill="none" xmlns="http://www.w3.org/2000/svg">
<path d="M32.1571 13.5804L0.647271 13.6207C0.26501 13.6207 0.0783273 13.4282 0.0872171 13.0434L0.140547 11.2847C0.149437 10.9894 0.300568 10.8417 0.593931 10.8417L31.9038 10.8954C33.0416 10.8954 33.1883 10.515 32.3438 9.75425L24.463 2.73295C24.3304 2.61053 24.2387 2.4504 24.2004 2.27479C24.1622 2.09917 24.1794 1.91678 24.2496 1.75292C24.4808 1.18011 24.8408 0.719186 25.3298 0.370134C25.7209 0.0837325 26.0943 0.101634 26.4499 0.423835L38.7311 11.862C38.7804 11.9085 38.8196 11.9646 38.8465 12.0269C38.8733 12.0893 38.8872 12.1565 38.8872 12.2245C38.8872 12.2924 38.8733 12.3596 38.8465 12.422C38.8196 12.4843 38.7804 12.5405 38.7311 12.5869L26.5832 23.9983C26.1654 24.3921 25.7565 24.3831 25.3564 23.9714L24.543 23.139C24.1608 22.7363 24.1696 22.347 24.5697 21.9711L32.5038 14.4933C33.1528 13.8847 33.0372 13.5804 32.1571 13.5804Z" fill="#020202"/>
</svg>
