<svg width="40" height="25" viewBox="0 0 40 25" fill="none" xmlns="http://www.w3.org/2000/svg">
<path d="M24.8399 2.12261L26.3685 0.709317C26.4518 0.632486 26.5609 0.589844 26.6742 0.589844C26.7874 0.589844 26.8965 0.632486 26.9799 0.709317L39.4748 12.2557C39.5208 12.2981 39.5574 12.3497 39.5825 12.407C39.6076 12.4644 39.6206 12.5264 39.6206 12.589C39.6206 12.6516 39.6076 12.7136 39.5825 12.771C39.5574 12.8283 39.5208 12.8799 39.4748 12.9223L26.9533 24.5887C26.9085 24.6302 26.8559 24.6621 26.7985 24.6826C26.741 24.7032 26.68 24.7118 26.6192 24.7081C26.5583 24.7043 26.4988 24.6883 26.4443 24.6609C26.3898 24.6335 26.3414 24.5953 26.302 24.5487L24.9595 23.0021C24.8842 22.9126 24.8463 22.7975 24.8537 22.6807C24.8612 22.5639 24.9134 22.4545 24.9994 22.3754L33.2274 14.9089C33.2943 14.8471 33.341 14.7666 33.3615 14.6777C33.3819 14.5889 33.3752 14.4959 33.3421 14.411C33.3091 14.326 33.2513 14.253 33.1763 14.2015C33.1013 14.15 33.0126 14.1224 32.9216 14.1223L1.27221 14.149C1.15235 14.149 1.03739 14.1012 0.952637 14.0162C0.867881 13.9312 0.820312 13.8159 0.820312 13.6956L0.846842 11.589C0.846842 11.4688 0.894492 11.3535 0.979248 11.2685C1.064 11.1835 1.17896 11.1357 1.29882 11.1357L33.0812 11.309C33.1751 11.3121 33.2676 11.2858 33.3459 11.2336C33.4242 11.1815 33.4843 11.1062 33.518 11.0182C33.5516 10.9302 33.557 10.8339 33.5335 10.7426C33.51 10.6514 33.4588 10.5697 33.3869 10.509L24.8531 2.78926C24.8063 2.74773 24.7686 2.69693 24.7424 2.64006C24.7162 2.58319 24.7021 2.52149 24.7008 2.45885C24.6996 2.39621 24.7113 2.33399 24.7352 2.27612C24.7591 2.21825 24.7948 2.16598 24.8399 2.12261Z" fill="#020202"/>
</svg>
