<svg width="36" height="25" viewBox="0 0 36 25" fill="none" xmlns="http://www.w3.org/2000/svg">
<path d="M28.829 13.908L1.1108 13.9214C0.884597 13.9214 0.771484 13.8051 0.771484 13.5726L0.79761 11.7215C0.79761 11.3727 0.967279 11.1983 1.30658 11.1983L28.8421 11.2251C29.8078 11.2251 29.9296 10.8942 29.2075 10.2325L21.1948 2.8546C20.8468 2.53266 20.8381 2.20178 21.1687 1.86195L22.2909 0.708317C22.5954 0.386374 22.9087 0.377431 23.2306 0.681488L35.1322 11.9763C35.2093 12.05 35.271 12.1391 35.3131 12.238C35.3553 12.337 35.3771 12.4435 35.3771 12.5508C35.3771 12.6581 35.3553 12.7639 35.3131 12.8613C35.271 12.9587 35.2093 13.0456 35.1322 13.1165L23.2697 24.398C23.1508 24.5073 22.9988 24.571 22.8395 24.5783C22.6802 24.5857 22.5233 24.5362 22.3954 24.4382C21.9691 24.1252 21.6123 23.7496 21.3252 23.3114C21.2063 23.1321 21.1553 22.9138 21.1816 22.6968C21.208 22.4798 21.3101 22.2788 21.4689 22.1309L29.2075 14.9275C29.9296 14.2478 29.8034 13.908 28.829 13.908Z" fill="#020202"/>
</svg>
