<svg width="38" height="26" viewBox="0 0 38 26" fill="none" xmlns="http://www.w3.org/2000/svg">
<path d="M0.131845 14.1244L0.0509796 12.0824C0.0491758 12.0221 0.0596902 11.9621 0.0819107 11.9058C0.104131 11.8496 0.137605 11.7983 0.180339 11.755C0.223073 11.7117 0.27418 11.6773 0.330675 11.6539C0.38717 11.6304 0.447898 11.6183 0.509228 11.6183L31.2661 11.7244C31.3614 11.7275 31.4552 11.7013 31.5346 11.6494C31.6139 11.5976 31.6749 11.5227 31.709 11.4352C31.7431 11.3477 31.7486 11.2518 31.7248 11.1611C31.701 11.0703 31.649 10.9892 31.5761 10.9288L22.9367 3.27788C22.8475 3.20103 22.7921 3.09319 22.782 2.97697C22.772 2.86076 22.8081 2.74523 22.8828 2.65466L24.2306 1.09001C24.2706 1.04362 24.3196 1.00565 24.3749 0.978408C24.4301 0.951168 24.4905 0.935224 24.5522 0.931508C24.6139 0.927792 24.6757 0.936375 24.7339 0.956779C24.7921 0.977183 24.8456 1.00898 24.891 1.05023L37.6547 12.6128C37.7013 12.655 37.7384 12.7063 37.7638 12.7633C37.7892 12.8204 37.8024 12.882 37.8024 12.9443C37.8024 13.0066 37.7892 13.0682 37.7638 13.1253C37.7384 13.1823 37.7013 13.2336 37.6547 13.2758L25.0527 24.9312C24.9657 25.0097 24.8513 25.0521 24.7333 25.0496C24.6153 25.0472 24.5028 25 24.4193 24.918L22.9906 23.4726C22.947 23.4297 22.9127 23.3785 22.8897 23.3222C22.8667 23.2659 22.8555 23.2056 22.8568 23.1449C22.858 23.0843 22.8717 23.0245 22.897 22.9691C22.9223 22.9138 22.9588 22.8641 23.0041 22.8229L31.4413 15.2515C31.5091 15.1901 31.5564 15.1099 31.5772 15.0216C31.598 14.9332 31.5912 14.8408 31.5577 14.7563C31.5242 14.6718 31.4656 14.5992 31.3896 14.548C31.3135 14.4968 31.2235 14.4693 31.1313 14.4692L0.590093 14.562C0.470856 14.562 0.356308 14.5164 0.270746 14.4347C0.185184 14.353 0.135352 14.2417 0.131845 14.1244Z" fill="#020202"/>
</svg>
