<svg width="39" height="26" viewBox="0 0 39 26" fill="none" xmlns="http://www.w3.org/2000/svg">
<path d="M0.113764 14.1809L0.08711 12.1239C0.0853267 12.0636 0.0957315 12.0035 0.117699 11.9472C0.139666 11.8909 0.172748 11.8396 0.214995 11.7963C0.257241 11.753 0.307786 11.7185 0.363637 11.695C0.419488 11.6715 0.479514 11.6594 0.540144 11.6595L32.4254 11.7656C32.5195 11.7687 32.6123 11.7425 32.6908 11.6906C32.7692 11.6387 32.8295 11.5638 32.8632 11.4762C32.897 11.3886 32.9024 11.2927 32.8789 11.2019C32.8553 11.111 32.8039 11.0298 32.7319 10.9694L24.151 3.33882C24.0647 3.2601 24.0124 3.15123 24.005 3.03498C23.9975 2.91873 24.0355 2.8041 24.111 2.7151L25.5367 1.08283C25.5771 1.03731 25.6264 1.00042 25.6815 0.974333C25.7366 0.948249 25.7965 0.933518 25.8575 0.93104C25.9184 0.928561 25.9793 0.938372 26.0364 0.959895C26.0934 0.981418 26.1456 1.0142 26.1896 1.05628L38.7412 12.7211C38.7872 12.7634 38.8239 12.8147 38.8491 12.8718C38.8742 12.9289 38.8872 12.9905 38.8872 13.0529C38.8872 13.1152 38.8742 13.1769 38.8491 13.234C38.8239 13.2911 38.7872 13.3424 38.7412 13.3846L26.3495 24.93C26.2683 25.0046 26.1626 25.0472 26.0522 25.0496C25.9418 25.0521 25.8343 25.0142 25.7499 24.9433L24.2442 23.6826C24.1952 23.6412 24.1555 23.5899 24.1279 23.532C24.1003 23.4742 24.0854 23.4112 24.0841 23.3472C24.0829 23.2832 24.0953 23.2196 24.1206 23.1608C24.1459 23.1019 24.1835 23.0491 24.2309 23.0058L32.572 15.3089C32.639 15.2474 32.6858 15.1672 32.7063 15.0787C32.7268 14.9903 32.7201 14.8978 32.687 14.8132C32.6539 14.7287 32.596 14.656 32.5208 14.6048C32.4456 14.5535 32.3566 14.526 32.2655 14.5259L0.580116 14.6321C0.519512 14.6338 0.459165 14.6235 0.402653 14.6016C0.346142 14.5797 0.294613 14.5468 0.251123 14.5047C0.207634 14.4626 0.173072 14.4123 0.149477 14.3567C0.125881 14.301 0.113738 14.2412 0.113764 14.1809Z" fill="#020202"/>
</svg>
