<svg width="40" height="24" viewBox="0 0 40 24" fill="none" xmlns="http://www.w3.org/2000/svg">
<path d="M0.822123 13.4469L1.0082 11.585C1.01818 11.4794 1.0688 11.3813 1.14999 11.31C1.23119 11.2387 1.33707 11.1993 1.4468 11.1998L33.2632 11.2768C33.3533 11.278 33.4415 11.2525 33.516 11.2035C33.5905 11.1546 33.6475 11.0848 33.6794 11.0034C33.7114 10.9221 33.7166 10.8332 33.6944 10.7489C33.6723 10.6645 33.6238 10.5888 33.5556 10.5321L24.6911 2.76357C24.6375 2.7186 24.5959 2.66171 24.57 2.59779C24.5441 2.53388 24.5348 2.46484 24.5426 2.39663C24.5504 2.32842 24.5753 2.26307 24.615 2.2062C24.6548 2.14934 24.7083 2.10265 24.7709 2.07017L26.7378 0.991569C26.8199 0.947132 26.9146 0.929379 27.008 0.94094C27.1013 0.952501 27.1883 0.992767 27.2561 1.05578L39.483 12.1885C39.5264 12.2281 39.561 12.2759 39.5847 12.3289C39.6084 12.3819 39.6206 12.439 39.6206 12.4967C39.6206 12.5544 39.6084 12.6115 39.5847 12.6645C39.561 12.7175 39.5264 12.7652 39.483 12.8048L27.0435 23.8991C26.9656 23.9669 26.8651 24.0054 26.7602 24.0078C26.6554 24.0102 26.5531 23.9761 26.472 23.9119L25.0101 22.7306C24.9636 22.6917 24.9262 22.6439 24.9001 22.5902C24.874 22.5365 24.8599 22.4782 24.8586 22.4188C24.8574 22.3595 24.8691 22.3006 24.8929 22.246C24.9167 22.1913 24.952 22.142 24.9968 22.1014L33.3828 14.5255C33.447 14.467 33.4915 14.3911 33.5103 14.3079C33.5292 14.2246 33.5216 14.1378 33.4886 14.0587C33.4556 13.9797 33.3986 13.9121 33.3252 13.8648C33.2518 13.8175 33.1654 13.7927 33.0772 13.7936L1.26072 13.9091C1.19961 13.9094 1.13914 13.8973 1.08316 13.8736C1.02717 13.85 0.976897 13.8152 0.935605 13.7717C0.894312 13.7282 0.862914 13.6768 0.843376 13.6209C0.823837 13.5649 0.816567 13.5057 0.822123 13.4469Z" fill="#020202"/>
</svg>
