<svg width="33" height="25" viewBox="0 0 33 25" fill="none" xmlns="http://www.w3.org/2000/svg">
<path d="M0.215454 13.7283L0.149136 11.9815C0.145531 11.9133 0.155907 11.8451 0.179623 11.781C0.203339 11.7169 0.239897 11.6583 0.287075 11.6087C0.334252 11.5592 0.391042 11.5198 0.454002 11.4929C0.516963 11.4659 0.584782 11.4521 0.653279 11.4522L26.2581 11.5184C26.363 11.5224 26.4666 11.4937 26.5543 11.4363C26.6421 11.3788 26.7097 11.2954 26.7477 11.1978C26.7857 11.1002 26.7921 10.9932 26.7662 10.8917C26.7403 10.7902 26.6832 10.6993 26.603 10.6318L18.1388 3.07576C18.0888 3.03168 18.0481 2.97814 18.019 2.91823C17.9898 2.85832 17.9729 2.79324 17.9692 2.72676C17.9655 2.66029 17.9751 2.59374 17.9974 2.53099C18.0197 2.46823 18.0542 2.41051 18.099 2.36118L19.4655 0.865858C19.5106 0.816874 19.565 0.7773 19.6256 0.749426C19.6861 0.721552 19.7516 0.705931 19.8182 0.70347C19.8848 0.701008 19.9513 0.711754 20.0137 0.735085C20.0761 0.758416 20.1333 0.793869 20.1819 0.839391L32.4935 12.405C32.5449 12.4521 32.586 12.5093 32.6141 12.5731C32.6422 12.6369 32.6567 12.7058 32.6567 12.7755C32.6567 12.8452 32.6422 12.9141 32.6141 12.9779C32.586 13.0417 32.5449 13.0989 32.4935 13.146L20.1819 24.6851C20.1322 24.7319 20.0734 24.7681 20.0093 24.7916C19.9451 24.815 19.8768 24.8252 19.8086 24.8215C19.7403 24.8177 19.6735 24.8002 19.6123 24.77C19.551 24.7397 19.4966 24.6973 19.4522 24.6454L18.1919 23.1766C18.1055 23.0776 18.0612 22.9489 18.0687 22.8178C18.0761 22.6868 18.1346 22.5638 18.2317 22.4752L26.4704 15.0251C26.5454 14.9564 26.5979 14.8666 26.6208 14.7675C26.6437 14.6685 26.636 14.5648 26.5986 14.4703C26.5613 14.3757 26.496 14.2946 26.4116 14.2377C26.3271 14.1809 26.2273 14.1509 26.1254 14.1517L0.719596 14.2047C0.590364 14.2048 0.465995 14.1555 0.372178 14.0669C0.278362 13.9782 0.222255 13.857 0.215454 13.7283Z" fill="#020202"/>
</svg>
