<svg width="40" height="25" viewBox="0 0 40 25" fill="none" xmlns="http://www.w3.org/2000/svg">
<path d="M33.2875 10.3031L24.4655 2.38021C24.4322 2.34916 24.4054 2.31182 24.3867 2.27036C24.3679 2.2289 24.3576 2.18416 24.3564 2.13871C24.3552 2.09325 24.363 2.04801 24.3795 2.0056C24.3959 1.96319 24.4207 1.92444 24.4523 1.89164L26.1213 0.24104C26.1837 0.1779 26.2682 0.141265 26.357 0.138804C26.4459 0.136343 26.5323 0.168274 26.5981 0.227863L38.4932 11.4519C38.5368 11.4966 38.5918 11.5285 38.6522 11.5444L39.3145 11.7028C39.3735 11.7188 39.4272 11.7503 39.47 11.7939C39.5128 11.8375 39.5432 11.8916 39.558 11.9508C39.5729 12.01 39.5716 12.072 39.5544 12.1305C39.5372 12.1891 39.5047 12.242 39.4602 12.2838L26.4789 24.1681C26.4452 24.1988 26.4056 24.2225 26.3626 24.2378C26.3196 24.2531 26.2739 24.2597 26.2283 24.2572C26.1827 24.2548 26.138 24.2433 26.0969 24.2235C26.0558 24.2036 26.0191 24.1759 25.9888 24.1417L24.6245 22.4779C24.5664 22.4106 24.5367 22.3236 24.5416 22.2349C24.5466 22.1463 24.5857 22.063 24.651 22.0026L33.1683 14.2381C33.219 14.1909 33.2542 14.1295 33.2693 14.062C33.2844 13.9945 33.2787 13.924 33.2529 13.8597C33.2272 13.7955 33.1825 13.7405 33.1249 13.702C33.0672 13.6635 32.9992 13.6432 32.9298 13.6439L1.11247 13.5647C1.02113 13.5647 0.933533 13.5285 0.868945 13.4641C0.804357 13.3998 0.768066 13.3124 0.768066 13.2214L0.807813 11.1878C0.807813 11.1427 0.816721 11.0981 0.834029 11.0565C0.851336 11.0148 0.876701 10.977 0.908682 10.9451C0.940662 10.9132 0.97863 10.8879 1.02041 10.8707C1.0622 10.8534 1.10698 10.8445 1.15221 10.8445L33.049 10.8973C33.1184 10.898 33.1864 10.8778 33.2441 10.8393C33.3017 10.8008 33.3464 10.7458 33.3722 10.6815C33.3979 10.6173 33.4036 10.5468 33.3885 10.4793C33.3734 10.4118 33.3382 10.3503 33.2875 10.3031Z" fill="#020202"/>
</svg>
