<svg width="35" height="25" viewBox="0 0 35 25" fill="none" xmlns="http://www.w3.org/2000/svg">
<path d="M27.6779 9.76234L19.3735 2.14348C19.3256 2.09981 19.2876 2.04653 19.2621 1.98714C19.2365 1.92774 19.2239 1.86364 19.2252 1.79904C19.2265 1.73445 19.2416 1.67086 19.2695 1.61251C19.2973 1.55416 19.3374 1.50238 19.3869 1.46062L20.8944 0.148393C20.9796 0.076793 21.0882 0.0386624 21.1998 0.0411282C21.3113 0.043594 21.4181 0.0864994 21.5001 0.161796L34.0443 11.7173C34.0908 11.7599 34.1279 11.8117 34.1532 11.8693C34.1786 11.9269 34.1917 11.9891 34.1917 12.052C34.1917 12.1149 34.1786 12.1772 34.1532 12.2348C34.1279 12.2924 34.0908 12.3442 34.0443 12.3868L21.5404 24.036C21.4635 24.1082 21.3638 24.1517 21.2583 24.159C21.1527 24.1663 21.048 24.137 20.9617 24.0762L19.212 22.8577C19.1552 22.8192 19.1078 22.7684 19.0734 22.7093C19.0391 22.6501 19.0185 22.5839 19.0134 22.5157C19.0082 22.4476 19.0185 22.3791 19.0436 22.3155C19.0686 22.2518 19.1078 22.1945 19.1581 22.148L28.0279 14.1007C28.0956 14.0386 28.1429 13.9577 28.1636 13.8685C28.1844 13.7793 28.1775 13.6859 28.1441 13.6006C28.1107 13.5153 28.0522 13.442 27.9762 13.3903C27.9002 13.3385 27.8104 13.3108 27.7183 13.3107L1.09556 13.4178C1.03065 13.4182 0.966374 13.405 0.907027 13.3788C0.84768 13.3527 0.794634 13.3142 0.751353 13.2661C0.708073 13.218 0.675571 13.1613 0.656018 13.0997C0.636466 13.0381 0.630308 12.9731 0.637945 12.909L0.866733 10.8067C0.876851 10.6931 0.929525 10.5874 1.01427 10.5105C1.09902 10.4337 1.20966 10.3912 1.32435 10.3917L27.3549 10.5523C27.4481 10.555 27.5399 10.5293 27.618 10.4786C27.6961 10.428 27.7568 10.3547 27.7919 10.2688C27.827 10.1829 27.8349 10.0884 27.8146 9.99787C27.7942 9.90736 27.7465 9.82516 27.6779 9.76234Z" fill="#020202"/>
</svg>
