<svg width="40" height="25" viewBox="0 0 40 25" fill="none" xmlns="http://www.w3.org/2000/svg">
<path d="M32.4018 13.5738L1.0284 13.5871C0.891452 13.5873 0.759684 13.5349 0.660397 13.4409C0.56111 13.3468 0.50191 13.2183 0.495063 13.0819L0.428402 11.2209C0.424785 11.1488 0.435898 11.0768 0.461076 11.0092C0.486254 10.9416 0.524966 10.8798 0.574856 10.8275C0.624746 10.7753 0.68477 10.7338 0.751279 10.7054C0.817788 10.677 0.889389 10.6624 0.961729 10.6625L32.3885 10.7689C32.4974 10.7704 32.6042 10.7385 32.6945 10.6777C32.7848 10.6168 32.8542 10.5299 32.8934 10.4285C32.9326 10.3272 32.9397 10.2163 32.9138 10.1108C32.8879 10.0052 32.8302 9.91017 32.7485 9.83832L24.6685 2.56679C24.5726 2.47797 24.5128 2.35711 24.5005 2.2272C24.4882 2.09728 24.5243 1.96738 24.6018 1.86224L25.7485 0.306909C25.7926 0.244981 25.8495 0.193188 25.9153 0.155021C25.9812 0.116853 26.0545 0.0932059 26.1303 0.0856487C26.2061 0.0780914 26.2826 0.0867973 26.3548 0.111207C26.4269 0.135616 26.493 0.175156 26.5485 0.227151L39.0552 11.7393C39.1085 11.7881 39.1513 11.8471 39.181 11.9129C39.2107 11.9787 39.2266 12.0498 39.2279 12.122C39.2291 12.1941 39.2156 12.2657 39.1883 12.3325C39.1609 12.3992 39.1201 12.4598 39.0685 12.5103L26.6818 24.0624C26.6296 24.1101 26.5683 24.147 26.5016 24.1708C26.435 24.1947 26.3642 24.2051 26.2934 24.2013C26.2227 24.1976 26.1534 24.1799 26.0896 24.1492C26.0258 24.1185 25.9687 24.0754 25.9218 24.0225L24.6551 22.5868C24.5666 22.483 24.5214 22.3493 24.5288 22.2132C24.5363 22.0772 24.5958 21.9492 24.6951 21.8556L32.7618 14.5043C32.8436 14.4325 32.9013 14.3374 32.9272 14.2319C32.9531 14.1264 32.9459 14.0155 32.9067 13.9141C32.8675 13.8128 32.7981 13.7258 32.7078 13.665C32.6176 13.6041 32.5108 13.5723 32.4018 13.5738Z" fill="#020202"/>
</svg>
