<svg width="58" height="93" viewBox="0 0 58 93" fill="none" xmlns="http://www.w3.org/2000/svg">
<path d="M22.1484 7.83374C16.325 8.0988 9.74608 7.8205 2.41161 6.9988C0.767985 6.81326 0.295222 5.96947 0.993322 4.46745C1.23191 3.97266 1.48376 3.49555 1.74886 3.03611C2.16412 2.3114 2.76277 1.70915 3.48429 1.29026C4.2058 0.871375 5.02461 0.6507 5.85793 0.650535L56.7308 0.624023C57.3229 0.624023 57.4599 0.871432 57.1418 1.36622C51.7735 9.63618 43.1577 7.34338 34.9925 8.19158C34.3926 8.25386 33.837 8.53624 33.433 8.98417C33.0291 9.43209 32.8055 10.0138 32.8055 10.6169L32.7922 92.1635C32.7922 92.623 32.5669 92.8571 32.1162 92.8659L28.0999 92.9057C27.8104 92.9064 27.5301 92.8042 27.3092 92.6172C27.0882 92.4302 26.9409 92.1708 26.8937 91.8852C24.6757 79.0827 23.9555 64.3319 24.7331 47.6329C25.281 35.6874 25.2236 23.1544 24.5608 10.0338C24.4813 8.4964 23.6771 7.76305 22.1484 7.83374Z" fill="#020202"/>
</svg>
