<svg width="59" height="98" viewBox="0 0 59 98" fill="none" xmlns="http://www.w3.org/2000/svg">
<path d="M24.2036 31.2209C24.9133 23.4011 23.8357 13.404 13.4538 13.6164C10.6853 13.6784 8.0833 13.6518 5.64773 13.5368C2.78286 13.404 1.08759 11.9126 0.561929 9.06264C0.430513 8.38997 0.487457 7.7173 0.732766 7.04463C1.44241 5.05318 2.84857 4.00435 4.95122 3.89814C13.5108 3.4733 22.101 3.49099 30.7219 3.95124C38.3308 4.34953 45.2959 3.699 52.4055 0.871133C55.1564 -0.217529 56.9393 0.702948 57.7541 3.6326C58.9105 7.82793 57.8461 14.028 52.0638 13.2712C45.0725 12.3419 37.5555 12.3286 35.0717 20.3343C33.4816 25.4324 34.7038 33.6239 34.6906 39.9302C34.6731 55.3396 34.6249 72.6343 34.5461 91.8142C34.5285 95.62 32.8245 97.6558 29.434 97.9213C26.004 98.1868 23.9934 96.8326 24.0065 93.3144C24.0328 77.2102 24.0459 61.4246 23.6911 45.6257C23.586 41.0055 23.7568 36.2039 24.2036 31.2209Z" fill="#020202"/>
</svg>
