<svg width="52" height="87" viewBox="0 0 52 87" fill="none" xmlns="http://www.w3.org/2000/svg">
<path d="M27.842 11.2768L27.8553 86.2389C27.8553 86.3103 27.8242 86.346 27.7621 86.346L20.2304 86.6674C20.181 86.6711 20.1314 86.6645 20.0847 86.648C20.038 86.6315 19.9952 86.6055 19.959 86.5715C19.9227 86.5376 19.8939 86.4964 19.8742 86.4507C19.8545 86.405 19.8444 86.3557 19.8445 86.3058L19.8578 12.3081C19.8578 10.3973 18.9086 9.45086 17.0101 9.46872C14.1004 9.4955 11.2128 9.66068 8.34733 9.96426C5.40207 10.2768 2.95803 9.20532 1.01522 6.74989C0.959155 6.67613 0.918623 6.59166 0.8962 6.50183C0.873776 6.412 0.869951 6.31875 0.884969 6.22806C0.899986 6.13737 0.933517 6.0512 0.98343 5.97502C1.03334 5.89884 1.09855 5.83434 1.1749 5.78557C9.33205 0.455053 17.7154 0.080038 28.5206 1.17829C34.6773 1.79438 40.9937 2.34351 47.4697 2.82567C49.8295 2.99532 51.0759 4.25425 51.2089 6.60254C51.2355 7.07577 51.0493 7.43738 50.65 7.68739C49.1242 8.62492 47.6737 9.17853 46.2987 9.34818C40.8428 9.99999 35.0366 10.2991 28.8799 10.2455C28.188 10.2366 27.842 10.5804 27.842 11.2768Z" fill="#020202"/>
</svg>
