<svg width="49" height="90" viewBox="0 0 49 90" fill="none" xmlns="http://www.w3.org/2000/svg">
<path d="M31.9509 11.6328C29.6083 20.0191 28.4942 28.516 28.6087 37.1236C28.7232 44.9076 28.9874 53.5463 29.4013 63.0394C29.7316 70.3187 29.0314 77.3589 30.1015 84.6913C30.5858 88.0564 29.1371 89.7434 25.7552 89.7522L24.9494 89.7655C21.7613 89.7744 20.0704 88.176 19.8766 84.9703C19.652 81.49 20.5636 78.1692 20.3918 74.4631C19.7049 59.0279 19.5816 44.1771 20.0219 29.9107C20.1628 24.9959 20.066 21.2411 19.7313 18.6464C18.5159 9.17541 10.3387 10.8491 3.57501 11.3672C3.00352 11.4092 2.43462 11.2564 1.96007 10.9335C1.48552 10.6105 1.133 10.1363 0.959357 9.58723C0.404521 7.85154 0.571849 6.21324 1.46135 4.67237C1.73436 4.19417 2.13508 3.89309 2.6635 3.76911C18.0007 -0.0033592 32.9153 -0.640956 47.526 3.31748C48.0279 3.45032 48.323 3.77352 48.411 4.28714C48.8338 6.82426 49.9435 10.9952 45.9407 11.2211C41.2818 11.4956 36.8255 11.4867 32.5718 11.1945C32.4342 11.1859 32.2978 11.2246 32.185 11.3043C32.0721 11.3839 31.9896 11.4998 31.9509 11.6328Z" fill="#020202"/>
</svg>
