<svg width="19" height="30" viewBox="0 0 19 30" fill="none" xmlns="http://www.w3.org/2000/svg">
<path d="M11.595 2.6766L5.60104 28.6898C5.37315 29.6856 4.7602 30.1137 3.7622 29.9743L3.53234 29.9444C3.35923 29.9208 3.1927 29.8616 3.04291 29.7705C2.89313 29.6794 2.76324 29.5583 2.66119 29.4146C2.55915 29.2709 2.48707 29.1076 2.44939 28.9347C2.4117 28.7618 2.40918 28.5829 2.442 28.409C3.16889 24.5056 4.00581 20.5684 4.95273 16.5973C6.07647 11.8814 7.12949 7.27502 8.11178 2.77818C8.12196 2.73008 8.1221 2.68035 8.11218 2.63219C8.10227 2.58403 8.08252 2.53851 8.05421 2.49856C8.0259 2.45861 7.98965 2.42509 7.9478 2.40019C7.90594 2.37529 7.85941 2.35955 7.8112 2.35397C5.46549 2.12296 3.23765 2.20461 1.1277 2.59893C0.471526 2.72241 0.115938 2.44757 0.0609294 1.77444L0.00788561 1.18297C-0.0589101 0.39831 0.298643 0.00598038 1.08055 0.00598038L18.0663 0C18.6557 0 18.9622 0.296748 18.9857 0.89022L18.9975 1.15906C19.0329 1.88796 18.691 2.2544 17.972 2.25838L12.0606 2.29422C11.8091 2.29821 11.6539 2.42567 11.595 2.6766Z" fill="black"/>
</svg>
