<svg width="34" height="48" viewBox="0 0 34 48" fill="none" xmlns="http://www.w3.org/2000/svg">
<path d="M19.8429 6.06474C19.6292 15.4223 18.4213 24.9466 18.0685 34.398C17.9474 37.8437 17.8298 41.2894 17.7158 44.7351C17.6445 46.7984 16.5542 47.8856 14.4448 47.9967C13.718 48.0315 12.9946 47.7883 12.2749 47.2673C11.935 47.0159 11.667 46.6836 11.4967 46.3022C11.3263 45.9209 11.2594 45.5033 11.3022 45.0894C11.9222 39.3686 11.6228 33.3872 12.2215 27.656C12.6633 23.4183 12.9448 18.6214 13.0659 13.2653C13.123 10.7713 13.3474 8.36072 13.7394 6.03348C13.7549 5.94535 13.7506 5.85497 13.7266 5.76864C13.7026 5.68232 13.6596 5.60213 13.6005 5.53367C13.5415 5.46521 13.4679 5.41014 13.3848 5.37228C13.3017 5.33442 13.2111 5.31469 13.1194 5.31447C9.47076 5.30057 6.14994 5.27973 3.15693 5.25195C1.71743 5.245 0.694824 4.56072 0.0890959 3.19911C-0.0177973 2.96986 -0.0285179 2.73367 0.0569967 2.49053C0.584337 0.927456 1.66042 0.142437 3.28519 0.13549L31.6653 5.05864e-05C33.1262 -0.0068964 33.903 0.701673 33.9956 2.1258C34.0455 2.90387 33.6714 3.69237 32.8732 4.49127C32.4489 4.91851 31.869 5.1656 31.2591 5.17903L20.6126 5.3249C20.1138 5.33184 19.8572 5.57845 19.8429 6.06474Z" fill="black"/>
</svg>
