<svg width="27" height="42" viewBox="0 0 27 42" fill="none" xmlns="http://www.w3.org/2000/svg">
<path d="M9.83718 4.56819L1.84407 4.5589C0.602714 4.5589 -0.0119353 3.92312 0.000175511 2.65159L0.00926748 2.35388C0.0213783 0.784627 0.79343 0 2.32545 0L25.0968 0.00928459C26.2836 0.00928459 26.9073 0.61716 26.9679 1.83287L26.9952 2.48412C27.0618 3.82389 26.441 4.49996 25.1331 4.51237L16.377 4.58681C15.9955 4.59302 15.8017 4.7884 15.7957 5.17296L15.1326 39.3834C15.1024 41.1077 14.2909 41.973 12.6983 41.9792C12.6257 41.9854 12.55 41.9885 12.4712 41.9885C10.8302 42.1063 10.0188 41.3217 10.037 39.6346L10.4821 5.24738C10.4833 5.15862 10.4675 5.07051 10.4356 4.98815C10.4038 4.90579 10.3564 4.83082 10.2964 4.76762C10.2364 4.70443 10.1649 4.65427 10.0861 4.62003C10.0073 4.5858 9.92264 4.56816 9.83718 4.56819Z" fill="black"/>
</svg>
