<svg width="28" height="44" viewBox="0 0 28 44" fill="none" xmlns="http://www.w3.org/2000/svg">
<path d="M9.72845 5.06674C6.93337 5.22961 4.30367 5.17096 1.83933 4.89082C0.587707 4.754 -0.0251504 4.05366 0.000790047 2.78976C0.000790047 2.57477 0.0462 2.37281 0.136992 2.18388C0.811443 0.763629 1.87497 0.0730535 3.32763 0.112143C9.95542 0.32062 16.8361 0.284773 23.9698 0.00463143C25.5067 -0.0605177 26.7551 0.56166 27.7149 1.87116C27.8576 2.06009 27.9419 2.27182 27.9678 2.50636C28.1494 3.86797 27.5625 4.64979 26.2071 4.85175C23.425 5.27522 20.5067 5.39898 17.4522 5.22307C16.8037 5.1905 16.4762 5.4967 16.4697 6.14168L16.1779 41.6447C16.1649 43.2018 15.3835 43.9836 13.8336 43.9901L13.2499 43.9999C11.4794 44.0129 10.6039 43.1301 10.6234 41.3515L11.0514 6.33714C11.0579 5.43808 10.6169 5.01462 9.72845 5.06674Z" fill="black"/>
</svg>
