<svg width="21" height="34" viewBox="0 0 21 34" fill="none" xmlns="http://www.w3.org/2000/svg">
<path d="M11.8213 3.473V32.3525C11.8213 33.3217 11.3489 33.8666 10.404 33.9871C10.1715 34.0172 9.94645 33.9946 9.72879 33.9193C8.63061 33.5427 8.07906 32.7643 8.07412 31.5842L8.05926 3.49559C8.05931 3.34834 8.00274 3.20689 7.90157 3.10136C7.80039 2.99584 7.66262 2.93458 7.51761 2.93066L0.802409 2.8026C0.248373 2.79255 -0.0187636 2.50885 0.00102342 1.95144L0.0306876 0.911958C0.0504746 0.389706 0.315131 0.123561 0.824646 0.113517C7.24552 -0.0672623 13.6541 -0.0321227 20.0502 0.21896C20.6834 0.244068 21 0.575503 21 1.21325V1.49949C21.0049 2.2678 20.629 2.66201 19.8721 2.6821L12.363 2.90052C12.0019 2.91559 11.8213 3.10642 11.8213 3.473Z" fill="black"/>
</svg>
