<svg width="31" height="44" viewBox="0 0 31 44" fill="none" xmlns="http://www.w3.org/2000/svg">
<path d="M12.564 4.79388L12.0466 4.55508C11.9655 4.52587 11.8824 4.51091 11.801 4.51087C8.21742 4.59342 5.14824 4.59046 2.59351 4.50201C1.30153 4.45484 0.448011 3.72366 0.0329412 2.30849C-0.177517 1.57731 0.620473 0.840246 2.4269 0.0972803C2.58322 0.0329412 2.75 -9.10566e-05 2.91797 1.88519e-07L27.9888 0.0796004C28.2954 0.0796086 28.5997 0.142792 28.8832 0.265334C30.4617 0.961127 31.1573 1.64513 30.9703 2.31734C30.6195 3.5792 29.8917 4.25436 28.7868 4.34281C25.2616 4.61995 21.9118 4.71427 18.7374 4.62583C18.518 4.62008 18.3038 4.69358 18.1334 4.83305C17.9629 4.97251 17.8475 5.16878 17.8079 5.38649C16.2996 13.9483 14.5224 22.4452 12.4763 30.8773C11.7134 34.0172 9.60878 38.1389 10.5821 41.2788C10.6421 41.469 10.6467 41.6727 10.5955 41.8655C10.5442 42.0583 10.4391 42.2323 10.2928 42.3667C8.24665 44.2595 5.88485 44.5071 3.20735 43.1097C2.29537 42.632 2.00306 41.8832 2.33044 40.8631C2.44736 40.5093 2.6812 40.2734 3.03197 40.1555C4.20702 39.7663 4.93194 39.0912 5.2067 38.13C8.27004 27.3393 10.7663 16.3098 12.6955 5.04153C12.7054 4.99127 12.6977 4.93911 12.6737 4.89394C12.6497 4.84877 12.6109 4.81339 12.564 4.79388Z" fill="black"/>
</svg>
