<svg width="35" height="47" viewBox="0 0 35 47" fill="none" xmlns="http://www.w3.org/2000/svg">
<path d="M12.1938 5.02832L2.23881 5.04739C1.09247 5.04739 0.375171 4.51945 0.0869107 3.46356C0.0131697 3.18369 -0.0136471 2.907 0.00646409 2.63349C0.100316 1.10054 0.958391 0.324529 2.58069 0.305446L32.2648 0.000122808C32.8818 -0.00572222 33.4807 0.197247 33.9542 0.572597C35.6837 1.95924 35.2681 3.36179 32.7073 4.78024C32.516 4.88047 32.2988 4.93609 32.0738 4.94245L20.721 5.00922C20.5456 5.01282 20.3776 5.07674 20.2481 5.18905C20.1186 5.30136 20.0365 5.45445 20.0171 5.61987C19.3635 11.0202 17.6943 16.2105 16.739 21.5249C15.4653 28.6426 13.6553 36.301 11.309 44.5C10.833 46.1602 9.69001 46.9934 7.88 46.9998C7.37722 47.0061 6.93142 46.8726 6.5426 46.599C5.40967 45.7976 5.02421 44.7449 5.38621 43.4409C6.4454 39.6817 7.47777 35.9225 8.48333 32.1633C10.6453 24.1011 11.9022 15.5808 13.9134 7.06059C14.2351 5.69939 13.662 5.02196 12.1938 5.02832Z" fill="black"/>
</svg>
