<svg width="35" height="50" viewBox="0 0 35 50" fill="none" xmlns="http://www.w3.org/2000/svg">
<path d="M12.4817 5.48461C8.81659 5.84817 5.38773 5.87562 2.19512 5.56694C0.878923 5.43661 0.149966 4.70263 0.0082219 3.36502C-0.0660249 2.59675 0.362586 1.82505 1.29405 1.04992C1.70707 0.703542 2.224 0.507894 2.76212 0.494287C12.4615 0.322798 22.1743 0.158189 31.9006 0.000419407C32.6299 -0.0112647 33.3369 0.221506 33.8978 0.657946C34.4587 1.09439 34.8377 1.70667 34.9684 2.38755C35.0021 2.55904 35.0089 2.74422 34.9886 2.94315C34.7996 4.3425 34.0065 5.0696 32.6093 5.12448L20.8142 5.58751C20.59 5.59539 20.3756 5.68437 20.2089 5.83875C20.0421 5.99312 19.9338 6.20297 19.903 6.43124C18.7421 14.7587 17.1592 23.3229 15.1546 32.1237C14.6214 34.4696 14.1556 36.8945 13.7574 39.3982C13.3524 41.998 13.0149 44.4777 12.7449 46.8374C12.4952 49.0187 11.2904 50.0717 9.13045 49.9962L8.74571 49.9859C6.57906 49.9036 5.7286 48.7855 6.19433 46.6316C7.70627 39.5937 9.22495 32.3123 10.7504 24.7874C11.9046 19.0802 12.9306 13.1261 13.8283 6.92511C13.9835 5.86188 13.5346 5.38172 12.4817 5.48461Z" fill="black"/>
</svg>
