<svg width="44" height="62" viewBox="0 0 44 62" fill="none" xmlns="http://www.w3.org/2000/svg">
<path d="M25.0875 8.08516C24.7665 9.95151 24.9848 11.8178 24.5097 13.7099C23.4909 17.7944 22.699 22.1321 22.134 26.7229C20.8113 37.4576 18.2559 47.6259 17.0103 58.0388C16.7107 60.493 15.3324 61.8101 12.8754 61.9903C12.533 62.0161 12.1905 61.9903 11.8481 61.9131C9.51954 61.4154 8.59067 59.9953 9.06152 57.6527C12.2547 41.7781 14.8444 26.71 16.8306 12.4486C17.0275 11.0585 17.1473 9.6812 17.1901 8.31684C17.1957 8.17734 17.1721 8.03823 17.121 7.90836C17.0699 7.7785 16.9923 7.66073 16.8932 7.56262C16.7941 7.46451 16.6756 7.38818 16.5455 7.33853C16.4153 7.28888 16.2762 7.26699 16.1371 7.27426C13.4233 7.37723 10.7694 7.43732 8.17546 7.45448C7.38786 7.46306 6.21074 7.38154 4.64409 7.20992C0.38933 6.73797 -0.94187 5.14619 0.650456 2.43463C0.894355 2.02373 1.23866 1.681 1.65161 1.43805C2.06456 1.1951 2.53285 1.05977 3.01326 1.04454L39.3029 0.00196475C39.7497 -0.0149711 40.1948 0.0777875 40.5999 0.272252C44.4351 2.07424 45.0258 3.99637 42.372 6.03863C41.9621 6.34894 41.4654 6.52836 40.9466 6.55347L26.2304 7.0812C25.5798 7.10694 25.1988 7.4416 25.0875 8.08516Z" fill="black"/>
</svg>
