<svg width="54" height="75" viewBox="0 0 54 75" fill="none" xmlns="http://www.w3.org/2000/svg">
<path d="M30.781 9.39345L22.361 71.6509C22.0415 74.0138 20.6834 75.1264 18.2869 74.9886C17.5839 74.9462 17.1791 74.9198 17.0726 74.9092C13.9837 74.729 12.7268 73.0707 13.302 69.9343C14.6441 62.6071 15.0435 55.7408 15.9861 48.5408C17.701 35.4122 19.4745 22.3684 21.3065 9.40936C21.3269 9.25949 21.3146 9.10698 21.2702 8.96205C21.2259 8.81711 21.1505 8.68305 21.0493 8.56877C20.948 8.45449 20.8231 8.36262 20.6828 8.29927C20.5426 8.23593 20.3903 8.20256 20.2361 8.20139L4.27484 8.24907C2.12325 8.24907 0.75987 7.22125 0.184692 5.1656C0.00361705 4.48745 -0.0443086 3.77752 0.040903 3.03579C0.123139 2.30792 0.471242 1.63546 1.0191 1.14613C1.56695 0.656793 2.27642 0.384653 3.01268 0.381444L48.995 2.57536e-08C49.1744 -3.3294e-05 49.353 0.0322653 49.5222 0.0953611C55.4551 2.22518 55.4924 4.81064 49.6341 7.85172C49.3085 8.01857 48.9415 8.10577 48.5636 8.10603L32.155 8.20139C31.3455 8.20139 30.8875 8.59874 30.781 9.39345Z" fill="black"/>
</svg>
