<svg width="90" height="126" viewBox="0 0 90 126" fill="none" xmlns="http://www.w3.org/2000/svg">
<path d="M34.1597 14.1895L8.58323 14.3244C7.80907 14.3422 7.04143 14.1562 6.35565 13.7848C1.39959 11.1409 -0.657939 8.74872 0.18298 6.60838C1.56065 3.06512 4.04762 1.22159 7.64389 1.0777C31.1002 0.106452 55.6121 -0.208321 81.1796 0.133414C85.2947 0.187372 88.1483 2.22876 89.7407 6.25764C90.4743 8.09221 89.6513 10.0168 87.2717 12.0312C86.3832 12.7665 85.2719 13.1926 84.1048 13.2453L53.1072 14.5402C52.0695 14.5762 51.5685 15.1158 51.6043 16.159C52.0337 28.7043 49.0815 41.2226 47.7396 53.8758C45.4316 75.7828 43.1951 97.366 41.0302 118.626C40.5113 123.716 37.7022 126.171 32.603 125.991C32.2273 125.973 31.8605 125.964 31.5027 125.964C26.0457 125.766 23.7376 122.951 24.5786 117.519C29.3557 86.4935 33.0504 52.5897 35.6626 15.8083C35.7342 14.7111 35.2332 14.1715 34.1597 14.1895Z" fill="black"/>
</svg>
