<svg width="55" height="80" viewBox="0 0 55 80" fill="none" xmlns="http://www.w3.org/2000/svg">
<path d="M18.8858 9.41295L3.88621 9.46419C1.29537 9.47558 0 8.18862 0 5.60334V4.59543C0 2.38598 1.10225 1.22435 3.30673 1.11046C16.9995 0.427126 32.0048 0.0569445 48.3225 0C51.4929 0 53.6576 1.21293 54.8167 3.63876C55.3167 4.70932 54.794 6.00199 53.2486 7.51672C52.6567 8.0992 51.8649 8.43497 51.0327 8.45628L32.7604 9.03711C32.5493 9.04612 32.3484 9.12629 32.1927 9.26363C32.037 9.40098 31.9363 9.5868 31.9082 9.78878C30.6469 17.4877 29.9083 24.9759 29.6924 32.2534C29.2833 46.0567 27.7492 59.6893 27.0163 73.5268C26.8458 76.841 25.1697 78.9593 21.988 79.8818C21.3289 80.064 20.6585 80.0356 19.9767 79.7964C17.4654 78.8967 16.3348 77.12 16.5847 74.4663C17.6074 63.7722 18.954 53.3684 19.2949 42.3155C19.6018 32.373 20.2551 22.2767 21.2551 12.0267C21.4255 10.2728 20.6357 9.40156 18.8858 9.41295Z" fill="black"/>
</svg>
