<svg width="45" height="67" viewBox="0 0 45 67" fill="none" xmlns="http://www.w3.org/2000/svg">
<path d="M17.1746 7.29689L2.65391 7.32618C2.14819 7.32713 1.65338 7.17701 1.23308 6.89503C0.812782 6.61306 0.48613 6.21212 0.295158 5.74376C0.0101484 5.06976 -0.0684354 4.40554 0.0593276 3.75108C0.511412 1.33835 1.97082 0.127084 4.43762 0.117316L41.2923 7.3629e-05C43.2972 -0.00969451 44.5209 0.952469 44.9631 2.88656C45.0123 3.11123 45.0123 3.33593 44.9631 3.56059C44.3735 5.98309 42.8796 7.19921 40.4816 7.20898C35.9411 7.22851 31.4645 7.22362 27.0517 7.19431C26.8744 7.19427 26.7041 7.26329 26.5774 7.38654C26.4506 7.50979 26.3774 7.67747 26.3736 7.85368L24.3539 62.6676C24.2753 64.6017 23.3368 65.935 21.5383 66.6676C21.0567 66.863 20.5752 66.9704 20.0936 66.99C17.4007 67.1267 15.8921 65.8666 15.5678 63.2097C15.214 60.2207 16.069 57.4954 16.0985 54.477C16.2459 39.5415 16.8995 24.1274 18.0592 8.23465C18.0673 8.11437 18.0504 7.99371 18.0095 7.88019C17.9687 7.76667 17.9049 7.66269 17.8219 7.57475C17.739 7.4868 17.6387 7.41677 17.5273 7.36897C17.416 7.32117 17.2959 7.29662 17.1746 7.29689Z" fill="black"/>
</svg>
