<svg width="66" height="92" viewBox="0 0 66 92" fill="none" xmlns="http://www.w3.org/2000/svg">
<path d="M3.56081 85.5739C8.24681 79.1888 12.5873 72.5135 16.5824 65.548C20.2231 59.1897 24.5061 53.5771 29.4312 48.7102C29.913 48.2361 30.2371 47.6241 30.3586 46.9591C30.48 46.2942 30.3927 45.6094 30.1089 44.9997C24.9091 33.7031 20.4091 22.2367 16.609 10.6007C16.2103 9.38624 15.5548 8.30569 14.6424 7.35909C14.3977 7.10771 14.211 6.80505 14.0954 6.47265C13.9799 6.14026 13.9384 5.78629 13.9739 5.4359C14.0094 5.08551 14.1211 4.74732 14.3009 4.44536C14.4808 4.1434 14.7244 3.88508 15.0145 3.68879C17.765 1.82685 20.9938 2.46982 22.9603 5.0685C27.4248 10.9178 29.6925 16.8384 29.7634 22.8306C29.8033 26.5946 31.2516 30.573 34.693 32.4484C35.5518 32.9132 36.5557 33.025 37.4944 32.7603C38.4332 32.4956 39.2339 31.875 39.7289 31.0285C40.7254 29.3005 41.0975 27.452 42.2402 25.7374C47.0857 18.5486 52.0507 10.8597 57.1353 2.67076C57.461 2.14436 57.8803 1.68403 58.3694 1.31619C58.8584 0.948356 59.4075 0.680227 59.9852 0.527167C60.5629 0.374107 61.1578 0.339126 61.7358 0.424234C62.3139 0.509341 62.8637 0.712862 63.3537 1.02313L63.7258 1.25085C65.4266 2.3314 65.7676 3.74685 64.7489 5.49716C57.1929 18.5798 49.3755 31.5911 41.2968 44.5309C40.4641 45.8704 40.3534 47.2546 40.9646 48.6834C46.1821 60.7838 50.4518 72.1653 53.7736 82.8279C54.4114 84.8818 53.8134 86.4491 51.9798 87.5296C51.652 87.7261 51.311 87.8645 50.9567 87.9449C49.3976 88.311 48.2372 87.7886 47.4754 86.3776C44.8622 81.5553 42.5458 76.099 40.5261 70.0086C39.1885 65.9633 36.9341 61.9358 33.7629 57.9261C33.4263 57.5064 33.0764 57.4885 32.7132 57.8725C26.6807 64.1951 19.3196 72.2054 17.0209 80.5239C15.8383 84.797 11.2807 87.7707 8.02535 90.5301C5.71336 92.4858 3.41465 91.4946 1.31525 89.8871C0.331991 89.1191 0.0662569 88.1145 0.518026 86.8732C0.925503 85.7659 1.63415 85.4176 2.64398 85.8284C3.01603 85.9802 3.32164 85.8954 3.56081 85.5739Z" fill="#020202"/>
</svg>
