<svg width="66" height="92" viewBox="0 0 66 92" fill="none" xmlns="http://www.w3.org/2000/svg">
<path d="M32.1243 55.987C29.731 58.403 27.5903 61.2748 25.7022 64.6023C20.4634 73.8682 15.7698 84.1163 6.92769 90.5944C4.81799 92.1343 2.9033 91.9263 1.18363 89.9705C0.873383 89.6165 0.625187 89.2271 0.439037 88.8023C-0.314426 87.0766 -0.0529346 85.5234 1.22352 84.1428C4.42795 80.7047 7.72544 77.4922 10.2252 73.7221C16.2883 64.5758 21.0484 54.6861 27.803 45.7389C28.1513 45.2801 28.3452 44.7227 28.3571 44.1459C28.369 43.5691 28.1984 43.0024 27.8695 42.5264C22.9498 35.504 20.8224 26.5701 17.7908 18.8176C16.7094 16.0387 14.9498 12.8882 12.5121 9.36593C10.9166 7.05611 11.3642 5.25518 13.8551 3.9631C13.9792 3.8923 14.1033 3.83035 14.2274 3.77725C16.8424 2.65332 18.921 3.28607 20.4634 5.67554C22.1742 8.3128 23.6324 11.1271 24.8379 14.1183C27.8429 21.5345 30.7194 28.9817 33.4673 36.4598C33.7155 37.1324 34.0302 37.1634 34.4113 36.5527C41.9194 24.4196 48.9931 13.5209 55.6324 3.8569C57.2014 1.57363 59.1958 0.414306 61.6158 0.378906C62.0413 0.378906 62.4269 0.493947 62.7726 0.724044C65.2014 2.37897 65.6756 4.39673 64.1953 6.77735C57.1748 18.0698 49.6091 29.6852 41.4983 41.6237C38.8789 45.4866 39.3177 49.6815 41.0728 53.6639C45.0883 62.8324 48.8645 72.523 52.4013 82.7357C52.5776 83.2373 52.6261 83.7751 52.5426 84.301C52.459 84.8269 52.246 85.3245 51.9227 85.7491C51.3465 86.4925 50.6374 87.0058 49.7953 87.289C47.2246 88.1474 45.434 87.32 44.4235 84.8066L33.0019 56.1596C32.798 55.6552 32.5055 55.5976 32.1243 55.987Z" fill="#020202"/>
</svg>
