<svg width="79" height="85" viewBox="0 0 79 85" fill="none" xmlns="http://www.w3.org/2000/svg">
<path d="M55.0671 75.5354C52.4784 65.4203 44.633 58.7931 39.3097 50.1804C39.1529 49.9268 38.9364 49.7164 38.6796 49.5679C38.4227 49.4195 38.1335 49.3376 37.8377 49.3297C37.5419 49.3217 37.2488 49.3879 36.9844 49.5223C36.7201 49.6567 36.4928 49.8551 36.3229 50.0999L19.8752 73.6036C19.6593 73.9121 19.5185 74.2676 19.4641 74.6414C19.4098 75.0152 19.4435 75.3967 19.5625 75.7549C19.6815 76.113 19.8824 76.4377 20.149 76.7027C20.4155 76.9676 20.7402 77.1652 21.0965 77.2794L23.6188 78.0978C25.0525 78.5718 25.6897 79.5645 25.5304 81.076L25.4109 82.1895C25.2427 83.7456 24.4153 84.2957 22.9285 83.8396C15.614 81.626 9.41461 83.3298 2.07357 83.3298C1.7332 83.3304 1.40391 83.2075 1.14565 82.9835C0.88739 82.7594 0.717333 82.4491 0.666436 82.109C0.515987 81.0983 0.6089 80.0564 0.945198 78.9832C1.1045 78.4824 1.44081 78.1917 1.9541 78.1112C10.5297 76.6892 14.4192 69.3107 18.3088 62.214C19.6717 59.7277 21.3753 57.228 23.4196 54.7148C26.2782 51.2089 28.9243 47.5823 31.3581 43.8349C32.6944 41.7779 32.4643 39.6136 30.6677 37.3419C25.1277 30.3748 20.747 23.296 17.5256 16.1054C14.9901 10.4173 10.7554 7.54638 4.67547 6.87561C2.55148 6.64308 1.51602 5.44909 1.56912 3.29369C1.56912 3.13271 1.58683 2.97174 1.62223 2.81076C1.99393 0.878946 3.10017 0.23052 4.94096 0.865514C11.959 3.28922 18.6717 3.4055 25.079 1.21433C25.5528 1.05375 26.066 1.05761 26.5374 1.2253C27.0087 1.39299 27.4111 1.7149 27.6809 2.13999C28.088 2.79287 28.2473 3.55305 28.1588 4.42058C28.1333 4.64599 28.065 4.86293 27.9578 5.05872C27.8507 5.2545 27.7069 5.42523 27.5349 5.56089C23.6188 8.59276 20.9505 12.0271 24.8135 16.7627C27.6278 20.215 30.1677 23.9712 32.4333 28.0316C33.3714 29.713 34.6325 31.068 36.2166 32.0965C36.3779 32.1965 36.5593 32.2571 36.7461 32.2734C36.9329 32.2897 37.1199 32.2613 37.292 32.1904C38.6814 31.618 39.8097 30.7594 40.677 29.6146C45.1374 23.7745 49.6642 17.6124 54.2573 11.1283C54.446 10.8624 54.5721 10.5563 54.6258 10.2338C54.6795 9.91134 54.6593 9.58102 54.5669 9.26846C54.4745 8.95589 54.3123 8.66949 54.0929 8.43135C53.8735 8.19321 53.6027 8.00973 53.3015 7.89515L50.3677 6.75488C49.5889 6.45974 49.1951 5.89628 49.1863 5.06453C49.1774 4.00919 49.3544 3.01196 49.7173 2.07289C49.8756 1.67295 50.1727 1.34541 50.552 1.15251C50.9314 0.959598 51.3665 0.914752 51.7749 1.02649C56.129 2.23387 60.0806 2.59164 63.6294 2.09975C67.0101 1.63468 69.5986 1.37085 71.3952 1.30824C73.0324 1.25458 74.2272 1.96559 74.9794 3.44128C75.1741 3.81691 75.2361 4.20147 75.1653 4.59498C74.9175 5.93652 74.1166 6.61177 72.7625 6.62072C68.0455 6.65649 64.5807 8.68221 62.3683 12.6979C59.5009 17.8941 56.0538 23.4793 52.0271 29.4537C47.6995 35.8662 39.4956 38.4151 46.4118 47.712C51.1642 54.0977 57.6424 61.5164 60.3239 68.9887C63.0054 76.4611 68.873 77.1319 75.683 78.0173C78.0194 78.3214 78.7274 79.569 77.807 81.7602L77.4088 82.7395C76.7185 84.3762 75.5503 84.886 73.9042 84.2689C65.7401 81.2236 57.9477 82.3504 49.4385 83.6249C47.403 83.929 46.1552 83.0704 45.695 81.0491C45.6507 80.8613 45.633 80.6735 45.6418 80.4857C45.7038 79.0369 46.4384 78.1559 47.8455 77.8429L54.5759 76.3404C55.0095 76.242 55.1733 75.9737 55.0671 75.5354Z" fill="#020202"/>
</svg>
