<svg width="75" height="86" viewBox="0 0 75 86" fill="none" xmlns="http://www.w3.org/2000/svg">
<path d="M23.5571 10.1128C23.447 10.1693 23.3497 10.2479 23.2713 10.3438C23.193 10.4397 23.1352 10.5507 23.1017 10.6699C23.0682 10.7892 23.0597 10.9141 23.0766 11.0368C23.0936 11.1595 23.1356 11.2774 23.2002 11.383L35.7724 32.0374C35.9694 32.3584 36.2391 32.6294 36.5602 32.8292C36.8814 33.0289 37.2452 33.1519 37.6231 33.1885C38.9539 33.312 39.9851 32.8224 40.7166 31.7198C45.3876 24.6719 49.856 18.1223 54.1216 12.0711C54.3291 11.7797 54.4711 11.4467 54.5376 11.0951C54.6042 10.7436 54.5937 10.3817 54.507 10.0346C54.4203 9.68742 54.2594 9.36322 54.0353 9.08433C53.8113 8.80545 53.5295 8.57849 53.2094 8.41916L49.5607 6.58001C49.3211 6.46858 49.1254 6.27734 49.0055 6.03751C47.776 3.45737 49.8912 0.837538 52.6145 0.784612C58.9336 0.643476 64.8341 0.758162 70.316 1.12864C71.3031 1.19039 72.2637 1.44618 73.1979 1.89605C75.551 3.03396 75.247 6.47417 73.5284 7.9164C73.161 8.22455 72.7022 8.3932 72.2328 8.39271C70.382 8.40595 68.5313 7.94284 66.7862 8.7235C65.1293 9.46447 63.8294 10.6332 62.8864 12.2298C58.0567 20.4069 52.6542 28.7868 46.6788 37.3697C42.4881 43.4032 46.4408 47.9945 50.0234 52.5065C57.074 61.3716 64.2524 70.4925 71.5586 79.8692C72.7308 81.3687 72.6471 82.7978 71.3075 84.1562C71.0959 84.3679 70.8668 84.5575 70.62 84.7251C68.5753 86.0836 66.7774 85.8057 65.2263 83.8916C56.8449 73.5445 48.7367 63.1711 40.9017 52.7711C40.2848 51.9508 39.5665 51.3465 38.7468 50.9584C38.1296 50.6662 37.4273 50.6085 36.7707 50.7959C36.1141 50.9833 35.5479 51.4031 35.1774 51.9772C31.1057 58.3019 26.8181 64.6442 22.3145 71.0041C19.5647 74.9074 23.425 76.5084 25.6856 78.5328C26.085 78.8915 26.3758 79.355 26.5252 79.8709C26.6745 80.3867 26.6763 80.9342 26.5303 81.451C26.3844 81.9678 26.0965 82.4332 25.6995 82.7945C25.3024 83.1558 24.8121 83.3983 24.2843 83.4946C22.3938 83.8519 20.2258 82.9918 18.2163 83.0051C13.9507 83.0404 9.75557 83.4196 5.63096 84.143C3.47171 84.5223 1.85888 83.7504 0.79247 81.8274C0.554511 81.404 0.435547 80.941 0.435547 80.4382C0.44436 78.8239 1.23316 77.8227 2.80192 77.4346C13.8934 74.7354 17.3306 64.9044 22.6185 55.9202C25.9235 50.3101 34.7412 46.1289 31.1851 38.1503C29.4532 34.2735 25.8706 31.3361 23.8083 27.6445C21.702 23.8603 19.5736 20.032 17.4231 16.1596C14.6558 11.1493 10.4827 8.52062 4.90388 8.27364C2.3921 8.15896 1.20671 6.84462 1.34772 4.33064C1.34772 4.19832 1.37416 4.0616 1.42704 3.92047C2.33481 1.29181 4.13711 0.312681 6.83397 0.983076C13.8537 2.74286 18.7848 3.16628 26.3995 0.824305C28.1092 0.295045 29.3343 0.846357 30.0746 2.47824L30.22 2.79578C31.2071 4.93046 30.6518 6.5271 28.5543 7.58561L23.5571 10.1128Z" fill="#020202"/>
</svg>
