<svg width="67" height="77" viewBox="0 0 67 77" fill="none" xmlns="http://www.w3.org/2000/svg">
<path d="M35.9359 61.2204C35.9676 61.301 36.0234 61.3695 36.096 61.4171C36.1686 61.4646 36.2547 61.4892 36.3433 61.4875C36.432 61.4857 36.519 61.4579 36.5933 61.4074C36.6676 61.357 36.7256 61.2863 36.7601 61.2044C42.8364 45.319 48.7726 29.3006 54.5688 13.1494C55.0536 11.799 55.4091 10.4008 55.6353 8.95471C56.104 5.95625 55.797 3.70741 58.5281 1.64995C61.3292 -0.465981 63.8987 -0.221415 66.2365 2.38363C66.6028 2.77704 66.7645 3.23956 66.7214 3.77121C66.5598 6.38688 66.0642 8.94408 65.2346 11.4428C59.2553 29.4973 52.2741 48.0517 44.2909 67.1057C43.0734 70.0085 41.5813 72.4859 39.8144 74.538C36.5985 78.2861 31.8473 76.1489 30.1828 72.2413C22.5013 54.1549 15.1807 35.8079 8.22096 17.2005C6.86349 13.564 4.81653 10.2041 2.08005 7.12056C0.0653915 4.84513 0.264694 2.77172 2.67797 0.900337C3.1951 0.496289 3.7715 0.257055 4.40714 0.182625C7.55302 -0.200157 9.96087 0.937556 11.6308 3.59576C14.615 8.35927 16.9367 12.942 18.5959 17.344C23.9288 31.5707 29.7088 46.1962 35.9359 61.2204Z" fill="black"/>
</svg>
