<svg width="56" height="79" viewBox="0 0 56 79" fill="none" xmlns="http://www.w3.org/2000/svg">
<path d="M27.1245 31.5922C27.634 32.1733 28.089 32.1318 28.4894 31.4677C33.5214 23.0462 38.3577 14.4724 42.9984 5.7465C43.5716 4.67651 44.4133 3.80023 45.5235 3.11766C48.6355 1.23595 52.4299 -0.784107 55.3509 2.77176C55.5687 3.04113 55.7284 3.35382 55.8195 3.68944C55.9106 4.02505 55.9311 4.37604 55.8796 4.71945C55.828 5.06287 55.7057 5.39101 55.5205 5.68242C55.3353 5.97383 55.0915 6.22198 54.8049 6.41064C52.0887 8.22316 49.823 10.0633 48.3625 13.1626C44.2132 21.9623 39.0538 30.181 33.7443 38.3581C33.3985 38.8931 33.3894 39.4327 33.717 39.9769L53.6993 73.1834C54.7458 74.9083 54.3954 76.2596 52.6483 77.2373L51.6792 77.7908C49.368 79.0821 47.5299 78.584 46.165 76.2965L28.8033 47.227C28.7104 47.0696 28.5799 46.9385 28.4239 46.8457C28.2679 46.7529 28.0914 46.7014 27.9105 46.6959C27.7297 46.6904 27.5505 46.731 27.3892 46.8142C27.228 46.8973 27.09 47.0202 26.988 47.1716C24.381 51.0319 21.8695 54.9336 19.7266 59.1675C17.5518 63.4751 15.2542 67.5106 12.8338 71.274C10.6636 74.6638 6.44599 77.6386 2.78803 74.5808C2.49937 74.3418 2.26464 74.0428 2.09965 73.704C1.93467 73.3652 1.84328 72.9944 1.83163 72.6168C1.81999 72.2391 1.88838 71.8633 2.03218 71.5147C2.17597 71.1661 2.39182 70.8529 2.66519 70.596C5.38137 68.0364 7.29224 65.117 8.88919 61.824C12.5745 54.1773 16.9695 46.9456 22.0743 40.1291C22.2511 39.8924 22.3493 39.6059 22.3542 39.3119C22.3591 39.0178 22.2705 38.7319 22.1015 38.4964C16.9604 31.2002 12.124 23.2445 7.59253 14.6292C6.20941 11.9912 4.0847 9.73589 1.21838 7.86341C0.990101 7.71482 0.793727 7.51923 0.641208 7.28851C0.488688 7.05778 0.383199 6.79676 0.331178 6.52131C-0.0600971 4.27065 0.818008 2.88244 2.96547 2.35667C6.76903 1.43427 9.71724 2.71641 11.8101 6.20309C15.9685 13.1119 20.0724 20.1452 24.1216 27.3031C25.0043 28.8619 26.0052 30.2916 27.1245 31.5922Z" fill="black"/>
</svg>
