<svg width="59" height="79" viewBox="0 0 59 79" fill="none" xmlns="http://www.w3.org/2000/svg">
<path d="M30.3435 31.1793C35.3243 23.0863 40.2178 14.9705 45.024 6.83184C46.0533 5.09242 47.1652 3.86565 48.3599 3.15157C51.3236 1.36637 55.6933 -0.858275 58.3675 2.7396C58.6237 3.08948 58.7987 3.4917 58.8798 3.91716C58.961 4.34263 58.9464 4.78072 58.8369 5.19985C58.7274 5.61898 58.5259 6.00867 58.2469 6.34077C57.9678 6.67287 57.6182 6.93908 57.2234 7.12021C54.5767 8.34239 52.8123 9.79802 51.2684 12.4072C46.0762 21.1409 40.7554 29.7328 35.3059 38.1828C35.2318 38.2978 35.1924 38.4307 35.1924 38.5649C35.1924 38.6991 35.2318 38.8289 35.3059 38.938L58.078 72.6921C58.5236 73.3521 58.7283 74.1444 58.6581 74.9367C58.5878 75.729 58.2468 76.4733 57.692 77.0452C57.3428 77.4023 56.9569 77.6815 56.5341 77.8829C54.1816 79.0456 52.2747 78.5375 50.8136 76.3586L30.3848 45.9278C30.1367 45.5524 29.884 45.5524 29.6267 45.9278C24.894 52.9496 20.4508 60.1407 16.297 67.5013C14.1191 71.3875 11.2381 74.9717 6.8684 76.4959C2.89845 77.8829 -2.29833 73.2276 2.78817 70.2889C5.42561 68.7601 7.4887 66.6407 8.97744 63.9309C13.7377 55.2978 18.9942 46.9577 24.747 38.9106C24.8563 38.7564 24.9161 38.5728 24.9186 38.384C24.921 38.1952 24.866 38.0101 24.7607 37.8532C20.1199 30.987 15.2494 23.1367 10.1491 14.3022C8.302 11.1072 5.94484 8.78641 3.07765 7.33993C0.541292 6.07656 1.87839 2.79454 3.97364 1.94314C10.3145 -0.611075 14.1329 5.12904 16.876 9.88042C21.1216 17.186 25.3994 24.2856 29.7094 31.1793C29.7427 31.2332 29.7893 31.2778 29.8448 31.3087C29.9003 31.3396 29.9629 31.3558 30.0265 31.3558C30.09 31.3558 30.1526 31.3396 30.2081 31.3087C30.2636 31.2778 30.3102 31.2332 30.3435 31.1793Z" fill="black"/>
</svg>
