<svg width="65" height="79" viewBox="0 0 65 79" fill="none" xmlns="http://www.w3.org/2000/svg">
<path d="M32.2439 45.9565C27.6067 53.063 23.0434 60.215 18.554 67.4125C15.0484 73.0293 10.8361 77.6485 3.25673 76.6372C2.71172 76.5643 2.26371 76.3183 1.91268 75.8992C-0.235027 73.3437 0.942748 70.8154 3.93569 70.0228C8.72993 68.7518 11.5566 63.4766 13.9122 59.3904C18.2999 51.7647 22.951 44.763 27.8653 38.3854C28.0118 38.1928 28.0944 37.9598 28.1018 37.7178C28.1092 37.4759 28.0412 37.2367 27.9069 37.0325C22.9741 29.434 18.1152 21.6579 13.3302 13.7042C11.3487 10.397 9.28418 8.21038 5.7647 7.03509C5.40358 6.91443 5.07097 6.72296 4.78707 6.47233C4.50316 6.2217 4.27389 5.91713 4.11319 5.57713C3.95249 5.23713 3.86371 4.86879 3.85226 4.4945C3.8408 4.12022 3.9069 3.7478 4.04654 3.39986C4.68392 1.80547 5.82013 1.02649 7.45516 1.06293C10.7114 1.13126 14.3278 0.47528 16.3786 3.64585C21.7455 11.964 27.0432 20.5145 32.2716 29.2974C32.6873 29.9898 33.1168 30.0035 33.5602 29.3384C39.2413 20.7742 44.4743 12.7385 49.2593 5.23113C51.1992 2.18356 56.2151 0.762282 59.4159 0.816947C60.148 0.824702 60.8536 1.08862 61.4068 1.56167C61.96 2.03472 62.3249 2.68616 62.4365 3.39986C62.7506 5.35869 62.0347 6.66154 60.2888 7.30841C57.961 8.18305 56.4091 9.22168 55.0373 11.3673C49.6888 19.7766 44.0586 28.4501 38.1466 37.3878C37.9832 37.6362 37.8997 37.928 37.9071 38.2254C37.9146 38.5227 38.0125 38.8118 38.1882 39.0551L63.7113 73.4803C64.0122 73.8878 64.1946 74.3681 64.2385 74.8692C64.2825 75.3703 64.1864 75.8731 63.9607 76.3229C63.4527 77.3342 62.7414 77.9628 61.8269 78.2088C59.1942 78.9195 57.1573 78.2817 55.7163 76.2956C48.4372 66.301 40.9687 56.1743 33.3108 45.9155C32.9413 45.4235 32.5857 45.4372 32.2439 45.9565Z" fill="black"/>
</svg>
