<svg width="67" height="79" viewBox="0 0 67 79" fill="none" xmlns="http://www.w3.org/2000/svg">
<path d="M37.6905 37.5216C36.6396 38.1952 36.6122 38.9098 37.6082 39.6653C39.509 41.0853 40.9026 42.6827 41.789 44.4577C43.475 47.8029 45.9012 50.3971 48.3274 53.1142C50.5617 55.6538 48.8345 59.2856 51.4389 61.1425C53.5224 62.6262 55.1125 64.5378 56.2091 66.8771C57.3057 69.2528 59.5125 70.4953 61.7743 71.5603C63.4877 72.3659 64.7762 73.6903 65.8864 75.1922C66.0814 75.455 66.2075 75.7621 66.2533 76.0857C66.2991 76.4092 66.2633 76.7391 66.149 77.0454C66.0347 77.3517 65.8456 77.6248 65.5987 77.84C65.3518 78.0552 65.055 78.2057 64.735 78.2779C59.5537 79.4248 56.0035 75.6291 51.672 73.7176C48.5467 72.3386 47.6694 69.9628 47.08 66.8771C46.956 66.2441 46.6039 65.684 46.0931 65.3069C43.3882 63.2953 41.6428 60.5645 40.8569 57.1147C40.7489 56.6485 40.5276 56.217 40.2126 55.8586C37.6082 52.9549 35.4608 49.9329 33.7702 46.7925C33.6732 46.6079 33.5246 46.4553 33.3423 46.353C33.1601 46.2507 32.952 46.2032 32.7432 46.2162C32.5345 46.2292 32.3339 46.3021 32.1659 46.4262C31.9979 46.5503 31.8695 46.7202 31.7963 46.9154C30.0875 51.3574 27.5882 55.1622 24.2984 58.3299C23.8678 58.7409 23.5553 59.2645 23.3937 59.8454C22.9277 61.4566 22.6947 63.1496 21.7214 64.5696C19.7933 67.4096 17.8788 70.2723 15.9781 73.1578C15.1615 74.4 13.8812 75.2731 12.4142 75.5881C10.285 76.0433 8.14205 76.7214 5.98543 77.6226C3.75114 78.551 1.17416 78.1414 0.338013 75.5335C0.264516 75.3131 0.236351 75.0798 0.255187 74.8477C0.274023 74.6155 0.339477 74.3891 0.447671 74.1818C1.8184 71.4511 4.65582 70.5909 7.31504 69.5396C10.6322 68.2015 13.4285 61.9071 14.8678 58.7941C16.8279 54.5341 20.4467 51.6942 22.119 47.325C23.0602 44.8673 24.8193 42.5781 27.3963 40.4572C27.6679 40.2347 27.8906 39.9589 28.0506 39.6469C28.2106 39.335 28.3045 38.9935 28.3264 38.6439C28.3482 38.2943 28.2976 37.9439 28.1777 37.6146C28.0578 37.2853 27.8711 36.9841 27.6293 36.7297C24.7645 33.7259 21.3925 31.0771 20.8579 26.6533C20.803 26.1709 20.6249 25.7385 20.3233 25.3562C18.6373 23.2126 16.8279 21.7107 15.608 19.1301C14.1687 16.099 10.3032 8.30275 6.6845 7.59276C4.52789 7.15584 2.98353 5.58112 2.05143 2.86859C1.91436 2.46808 2.03315 2.1768 2.40782 1.99476C5.02135 0.765924 7.21909 0.497406 9.00104 1.18919C12.6472 2.59552 16.4715 3.40109 18.4317 7.26508C19.5283 9.42236 20.7619 11.5159 22.1327 13.5458C24.0654 16.4267 24.9975 19.608 27.3552 22.2978C29.2879 24.4687 30.2063 27.1312 31.5085 29.6844C32.1938 31.0225 33.1259 31.2273 34.3048 30.2989C35.8811 29.0564 37.2793 27.0083 37.9783 25.1241C39.7329 20.4181 41.5422 16.8773 43.4064 14.5015C45.298 12.0803 46.9521 9.72274 48.3685 7.42892C50.8358 3.44204 54.1256 2.97782 58.1007 1.61245C60.2116 0.875155 62.5967 2.13129 63.1039 4.31588C63.2409 4.91664 63.0993 5.43548 62.6789 5.8724C61.6646 6.92828 60.3441 7.92955 58.7175 8.87621C52.6452 12.4262 47.546 23.4993 44.0781 30.1487C42.3692 33.4164 40.24 35.8741 37.6905 37.5216Z" fill="black"/>
</svg>
