<svg width="66" height="77" viewBox="0 0 66 77" fill="none" xmlns="http://www.w3.org/2000/svg">
<path d="M34.5626 62.5203C34.5904 62.5621 34.6294 62.5955 34.6751 62.6171C34.7209 62.6386 34.7717 62.6473 34.8222 62.6424C34.8726 62.6374 34.9207 62.6189 34.9613 62.5889C35.0018 62.5589 35.0331 62.5185 35.052 62.4721C41.6857 44.5413 48.3412 25.3572 55.0184 4.91997C56.0515 1.7387 58.1449 0.271256 61.2986 0.517617C61.4944 0.528329 61.6793 0.571177 61.8533 0.646157C64.8765 1.84583 65.8281 3.9506 64.7079 6.96049C62.6961 12.3911 60.744 18.0414 58.8518 23.9112C53.9907 39.0249 48.6729 53.8066 42.8983 68.2563C42.1479 70.1522 41.1474 71.957 39.8968 73.6708C36.7811 77.9607 31.2023 77.0931 28.5923 72.8353C25.9062 68.4758 23.5844 63.5165 21.6269 57.9573C16.9507 44.6538 12.2636 31.3824 7.56568 18.1432C6.06494 13.9015 3.87906 10.2542 1.43221 6.52667C-0.340401 3.82741 0.246873 1.7869 3.19397 0.405136C3.42235 0.298023 3.66705 0.228416 3.92805 0.196282C7.23402 -0.21075 9.62109 0.828231 11.0892 3.31327C13.6122 7.5871 15.5642 11.6467 16.9453 15.4921C21.4257 27.9387 25.9226 40.7923 30.4356 54.053C31.5449 57.2878 32.9205 60.1103 34.5626 62.5203Z" fill="black"/>
</svg>
