<svg width="69" height="77" viewBox="0 0 69 77" fill="none" xmlns="http://www.w3.org/2000/svg">
<path d="M38.5825 60.607C46.0073 42.2216 52.1895 23.3837 59.6303 5.80991C60.8624 2.90696 63.0825 1.53871 66.2904 1.70519C66.8746 1.7364 67.3525 1.97572 67.7243 2.42313C69.2539 4.21277 69.408 6.72032 68.1864 9.94582C61.6857 27.1658 55.0202 44.8333 48.1901 62.9481C47.0907 65.8666 44.0317 68.7072 42.7092 72.0159C42.1356 73.4518 41.8806 75.1998 40.351 75.9958C38.0566 77.1975 35.9216 76.0894 34.854 73.9512C33.4519 71.1211 31.7683 68.3326 29.8032 65.5857C27.2858 62.0897 26.9671 58.1567 25.2941 54.3173C21.1939 44.9321 17.3541 34.7458 13.7744 23.7583C12.5157 19.9033 10.8427 15.9546 9.02633 12.3181C7.46487 9.16546 5.03237 6.97004 1.72888 5.73186C1.24027 5.54458 0.895007 5.22203 0.693186 4.76422C0.247055 3.76536 0.289571 2.77169 0.820679 1.78323C2.57333 -1.46308 10.9861 0.784375 13.5195 2.11099C14.0697 2.39609 14.5246 2.84159 14.826 3.39078C18.4163 10.1123 21.5498 17.2448 24.2266 24.7883C27.1371 33.0082 30.892 41.769 35.4914 51.071C35.7676 51.6328 35.9004 52.2259 35.8897 52.8502C35.826 55.5034 36.3411 58.0942 37.4352 60.6226C37.8282 61.5382 38.2107 61.533 38.5825 60.607Z" fill="black"/>
</svg>
