<svg width="61" height="77" viewBox="0 0 61 77" fill="none" xmlns="http://www.w3.org/2000/svg">
<path d="M33.9921 65.2808C38.5398 49.6396 43.0822 33.9984 47.6192 18.3571C48.621 14.8879 53.916 9.07888 57.9548 11.9834C59.7251 13.2527 60.5413 15.2698 60.4035 18.0344C60.3717 18.6906 60.112 19.2392 59.6244 19.6803L56.8258 22.2298C56.3382 22.6816 56.0096 23.2302 55.84 23.8757C51.6315 39.4954 47.1581 54.588 42.4196 69.1535C41.3701 72.413 38.6034 76.3018 34.8826 76.4793C27.4569 76.8343 22.941 68.3628 20.9534 61.9084C16.5117 47.5365 12.5843 34.079 9.17086 21.5359C7.32635 14.7803 4.69737 9.3048 1.28398 5.10942C1.08135 4.86489 0.946604 4.56886 0.893539 4.25142C0.840473 3.93399 0.870979 3.60647 0.981855 3.30216C2.88996 -2.03888 10.2361 0.607434 13.8615 2.09195C14.6518 2.41197 15.2855 3.03567 15.625 3.82736C15.9644 4.61906 15.9822 5.51474 15.6743 6.31962C15.1336 7.7396 14.9905 8.61094 15.4516 10.0955C20.6671 27.3826 25.0876 42.5343 28.713 55.5508C29.7837 59.4019 31.2519 62.6937 33.1176 65.426C33.5098 65.9962 33.8013 65.9478 33.9921 65.2808Z" fill="black"/>
</svg>
