<svg width="61" height="77" viewBox="0 0 61 77" fill="none" xmlns="http://www.w3.org/2000/svg">
<path d="M36.969 63.2516C39.5234 52.8325 43.7307 42.075 46.2518 31.0638C47.1868 26.9706 48.8897 21.8794 48.9063 17.4986C48.9175 15.7508 48.9509 13.8903 49.0065 11.9169C49.0733 10.0564 49.9526 8.95128 51.6445 8.60172C55.2173 7.84058 58.5898 7.84059 59.4413 12.492C60.2538 16.901 60.4653 19.8328 60.0758 21.2874C56.0243 36.1268 52.9244 49.2579 50.7763 60.6807C50.6204 61.5264 50.2086 62.2199 49.5408 62.7611C47.4037 64.5202 45.9067 66.7247 45.0497 69.3746C42.4451 77.4596 33.1457 78.8973 27.97 72.4361C24.0744 67.5535 21.3697 62.1409 19.8559 56.1984C16.9064 44.5952 13.8789 32.9921 10.7735 21.3889C8.88131 14.3413 6.14315 9.67858 2.55915 7.4008C0.906273 6.35212 0.255203 4.06871 1.0566 2.24198C1.33066 1.61169 1.78066 1.07513 2.35239 0.696992C2.92411 0.318853 3.59316 0.115263 4.27885 0.110764C8.77555 0.0994879 13.0162 0.319372 17.0009 0.770418C18.1585 0.905732 19.1213 1.61049 19.8893 2.8847C21.314 5.23014 20.6962 7.10762 18.0361 8.51714C17.1011 9.0133 16.873 9.74062 17.3516 10.6991C18.9099 13.8677 20.1787 17.4028 21.1581 21.3043C24.731 35.4108 27.4691 50.4306 33.4294 63.5899C34.9209 66.8938 36.1008 66.7811 36.969 63.2516Z" fill="black"/>
</svg>
