<svg width="57" height="79" viewBox="0 0 57 79" fill="none" xmlns="http://www.w3.org/2000/svg">
<path d="M31.4738 56.368C27.5066 56.635 24.4151 55.0381 22.1993 51.5773C16.4488 42.6018 10.978 30.643 5.78677 15.701C4.77385 12.7742 0.421426 8.75372 0.627176 5.64208C0.943715 1.11326 7.24281 2.57664 10.2024 3.30064C12.1966 3.79357 13.2148 4.98996 13.257 6.88981C13.2887 8.40969 13.5631 9.90387 14.0801 11.3724C18.5116 23.9319 23.6554 35.5569 29.5113 46.2474C29.5909 46.3881 29.706 46.5072 29.8454 46.5932C29.9847 46.6792 30.1438 46.7292 30.3074 46.7384C30.471 46.7477 30.6335 46.716 30.7796 46.6462C30.9256 46.5764 31.0503 46.4709 31.1415 46.3399C34.5074 41.6365 37.103 36.4093 38.9284 30.6584C41.7456 21.7959 43.8505 13.6522 45.2433 6.22742C45.8658 2.91039 47.9022 1.11324 51.3525 0.835965C51.8167 0.794887 52.281 0.815439 52.7452 0.897595C55.7523 1.48295 56.8444 3.21335 56.0214 6.08879C52.3285 19.1412 48.5775 32.1218 44.7685 45.0305C41.793 55.151 40.7801 64.8248 38.9125 74.8375C38.4799 77.1687 37.0449 78.3856 34.6075 78.4883C34.1855 78.4986 33.7687 78.4524 33.3573 78.3497C30.4873 77.6308 29.2792 75.8491 29.7329 73.0044L32.2493 57.1844C32.3338 56.599 32.0753 56.3269 31.4738 56.368Z" fill="black"/>
</svg>
