<svg width="54" height="77" viewBox="0 0 54 77" fill="none" xmlns="http://www.w3.org/2000/svg">
<path d="M31.0917 53.0116C30.8526 51.154 30.2262 51.0088 29.2123 52.5762C28.3133 53.9598 27.1416 55.3917 25.6974 56.872C23.1293 59.5134 19.0406 58.7006 18.0076 55.116C17.8642 54.5935 17.8929 54.0807 18.0937 53.5776C19.4279 50.1816 20.6474 46.089 18.9545 42.5334C14.2488 32.626 9.94004 23.2071 6.0282 14.2769C4.90916 11.7372 3.10148 9.89407 1.35119 7.81874C1.03734 7.44684 0.818488 7.00274 0.713761 6.52537C0.609034 6.048 0.621631 5.55195 0.750494 5.08067C0.879357 4.60938 1.12055 4.17725 1.45289 3.82218C1.78523 3.4671 2.19858 3.19993 2.65674 3.04403C4.96654 2.26034 12.6133 2.14422 12.6276 6.38196C12.6276 7.39786 12.8237 8.36538 13.2159 9.28452C17.7303 19.8402 22.4073 30.0669 27.2468 39.9646C27.4477 40.3709 27.7203 40.7144 28.0646 40.995C28.1281 41.0461 28.201 41.0837 28.2792 41.1055C28.3573 41.1274 28.4391 41.1331 28.5194 41.1222C28.5998 41.1114 28.6772 41.0843 28.7469 41.0424C28.8167 41.0006 28.8774 40.945 28.9254 40.8789C34.7931 32.6647 36.9452 22.2009 39.9436 12.666C40.5462 10.7406 40.8283 8.8056 40.79 6.86089C40.7518 4.80974 41.8039 3.24237 43.9463 2.15875C46.8443 0.707472 49.6276 -1.20822 52.6978 1.40408C53.2761 1.89896 53.639 2.6044 53.7087 3.36934C53.7784 4.13428 53.5494 4.89789 53.0707 5.49668C51.5069 7.41237 50.2875 9.34258 49.6562 11.7372C46.5286 23.5361 42.1386 34.4642 38.6667 46.0745C38.485 46.6937 38.4611 47.3226 38.595 47.9612L43.602 71.8347C44.0515 73.9729 43.2672 75.4339 41.2491 76.2176C40.8857 76.353 40.5127 76.4353 40.1301 76.4643C37.4138 76.6868 35.7066 75.4678 35.0084 72.8071C33.2103 65.957 31.9047 59.3585 31.0917 53.0116Z" fill="black"/>
</svg>
