<svg width="56" height="77" viewBox="0 0 56 77" fill="none" xmlns="http://www.w3.org/2000/svg">
<path d="M28.3839 48.3726C27.3121 49.4461 26.4461 50.7408 25.7858 52.2568C23.69 57.0779 21.556 61.9461 19.3836 66.8614C18.2736 69.3567 16.3788 70.27 13.6993 69.6015C13.2878 69.4979 12.9098 69.3143 12.5652 69.0506C11.0245 67.8736 10.5173 66.3576 11.0437 64.5026C13.3835 56.3246 17.331 50.0393 20.5033 42.8641C20.7295 42.3546 20.8268 41.7992 20.7868 41.2456C20.7467 40.692 20.5707 40.1568 20.2737 39.6861C15.7089 32.5015 11.46 24.9215 7.52685 16.9459C5.81866 13.4714 3.63679 10.4205 0.895076 7.68035C0.603543 7.3866 0.38059 7.03386 0.241746 6.64667C0.102902 6.25949 0.0514702 5.84719 0.0910957 5.43847C0.130721 5.02974 0.260423 4.63443 0.471161 4.28006C0.681898 3.92569 0.968607 3.62077 1.31132 3.38656C4.71334 1.07017 9.10585 1.91762 10.9863 5.51933C15.1874 13.5137 19.1396 20.9667 22.8431 27.8782C24.135 30.2793 25.6183 32.5533 27.293 34.7002C28.2787 35.9808 29.1112 35.8914 29.7906 34.4319C33.6759 26.0138 37.3938 17.7039 40.9441 9.5024C41.6044 7.97697 41.6188 6.42329 41.992 4.84137C42.1032 4.3392 42.3871 3.89019 42.7959 3.57018C45.6811 1.36679 51.1789 -1.38748 54.4804 1.08428C56.1168 2.29898 56.1647 3.71141 54.624 5.32159C52.7866 7.2425 50.5186 8.6973 49.6716 11.3668C46.7912 20.4064 43.0112 28.8198 38.3316 36.607C37.4416 38.0854 36.7574 39.6626 36.2789 41.3387C36.1258 41.8754 36.1641 42.4027 36.3937 42.9206L49.04 70.8868C49.9587 72.9207 49.4803 74.5544 47.6046 75.7879C47.2697 76.0045 46.9108 76.1646 46.528 76.2682C43.9155 76.9462 42.0638 76.0704 40.9728 73.6411L29.6328 48.5986C29.3265 47.93 28.9103 47.8547 28.3839 48.3726Z" fill="black"/>
</svg>
