<svg width="57" height="77" viewBox="0 0 57 77" fill="none" xmlns="http://www.w3.org/2000/svg">
<path d="M29.23 46.2093C29.1771 46.1099 29.0993 46.0258 29.0039 45.9651C28.9085 45.9043 28.7985 45.8688 28.6843 45.8619C28.5701 45.855 28.4555 45.877 28.351 45.9256C28.2466 45.9743 28.1558 46.0481 28.0872 46.1402C26.3869 48.4799 25.0769 50.5802 24.1571 52.4409C21.0539 58.7417 17.8764 64.7108 14.6246 70.3483C13.9955 71.4343 13.057 72.295 11.9524 72.7989C10.8478 73.3028 9.63766 73.4224 8.50652 73.1394C8.37644 73.1025 8.24637 73.0565 8.1163 73.0012C5.59845 71.9143 5.05957 70.2101 6.49967 67.8888C8.32069 64.9687 10.0116 61.7032 11.5725 58.0922C14.0439 52.4087 17.3933 46.6975 21.6207 40.9587C21.9867 40.466 22.1758 39.8655 22.1582 39.2523C22.1405 38.6392 21.917 38.0484 21.5231 37.5734C18.9867 34.5059 16.664 31.0193 14.5549 27.1136C11.029 20.5365 7.21041 12.3152 1.56616 7.64489C1.14097 7.29055 0.825146 6.82454 0.654903 6.30034C0.484661 5.77615 0.466886 5.21499 0.603654 4.68124C0.740422 4.1475 1.0262 3.66279 1.42815 3.28272C1.83011 2.90265 2.33197 2.64262 2.87619 2.53246C4.90162 2.12715 7.00136 2.19163 9.17544 2.7259C9.89084 2.90092 10.4344 3.31084 10.806 3.95565L26.8469 31.9083C26.9689 32.1247 27.1472 32.3045 27.3634 32.4291C27.5797 32.5537 27.826 32.6186 28.0772 32.6172C28.3283 32.6158 28.5753 32.5481 28.7926 32.4211C29.0099 32.2941 29.1897 32.1123 29.3136 31.8944C33.1507 25.0226 36.9554 18.0033 40.7275 10.8367C42.7901 6.92638 42.4974 3.6102 47.3473 1.59286C50.4691 0.294026 54.0228 -1.4746 55.96 2.86406C56.2156 3.44197 56.2489 4.09231 56.0536 4.69113C55.8583 5.28995 55.448 5.79539 54.9008 6.11116C51.9463 7.82452 50.1346 10.1597 48.9221 13.3238C46.4043 19.8825 43.6077 25.3864 40.5324 29.8356C38.7671 32.3873 37.0483 35.1323 35.3759 38.0708C35.1585 38.4557 35.0431 38.8895 35.0407 39.3316C35.0383 39.7738 35.1488 40.2099 35.362 40.5994L52.3783 71.3293C53.5025 73.3559 52.9962 74.8297 50.8593 75.7509L50.3854 75.9582C47.7654 77.0912 45.7771 76.4141 44.4207 73.927L29.23 46.2093Z" fill="black"/>
</svg>
