<svg width="47" height="78" viewBox="0 0 47 78" fill="none" xmlns="http://www.w3.org/2000/svg">
<path d="M34.0332 9.07524C24.6401 8.76027 15.0345 8.77197 5.21645 9.11027C2.18713 9.20359 0.601631 7.8037 0.459972 4.91067C0.438178 4.61904 0.487233 4.3274 0.607098 4.03577C1.58781 1.5627 3.21144 0.326172 5.47798 0.326172L42.9414 0.361202C43.5994 0.362778 44.2467 0.541602 44.8232 0.881159C45.3996 1.22072 45.8866 1.70998 46.2388 2.30347C46.591 2.89696 46.797 3.57548 46.8378 4.27601C46.8786 4.97654 46.7527 5.67638 46.4719 6.31055C45.088 9.48355 43.6715 12.4174 42.2222 15.1121C32.208 33.7185 22.6623 51.3216 13.5852 67.9214C13.5124 68.0527 13.4737 68.2025 13.4731 68.3551C13.4724 68.5078 13.5098 68.6578 13.5815 68.7898C13.6531 68.9218 13.7564 69.0309 13.8806 69.1059C14.0048 69.1809 14.1455 69.219 14.2881 69.2163C24.1607 68.948 33.6191 69.0355 42.6635 69.4788C43.0969 69.5004 43.5218 69.616 43.9125 69.8187C44.3033 70.0214 44.6519 70.3071 44.9374 70.6585C45.2229 71.0098 45.4393 71.4197 45.5738 71.8635C45.7083 72.3073 45.7581 72.7758 45.72 73.2409L45.6874 73.7133C45.4476 76.583 43.982 78.012 41.2905 78.0004L4.49726 77.9304C3.74909 77.9316 3.01387 77.7214 2.36591 77.321C1.71794 76.9206 1.18021 76.3442 0.807049 75.65C0.433892 74.9558 0.238543 74.1684 0.240741 73.3675C0.242939 72.5666 0.442608 71.7804 0.81957 71.0886L34.262 9.5302C34.2844 9.48306 34.2961 9.43064 34.2959 9.37785C34.2957 9.32507 34.2836 9.2736 34.2608 9.22823C34.238 9.18285 34.2052 9.14508 34.1654 9.11833C34.1256 9.09158 34.0801 9.07674 34.0332 9.07524Z" fill="black"/>
</svg>
