<svg width="45" height="78" viewBox="0 0 45 78" fill="none" xmlns="http://www.w3.org/2000/svg">
<path d="M16.3615 9.61155L6.44488 9.54469C3.75673 9.52241 1.96459 8.21325 1.06854 5.61724C0.893706 5.13815 0.882846 4.6702 1.03583 4.21339C1.7024 2.28588 2.95355 1.23856 4.78936 1.07143C8.43911 0.759465 12.5424 0.759465 17.0991 1.07143C24.1145 1.53938 30.9168 0.870894 37.9813 0.352806C40.9208 0.129972 43.1173 1.30539 44.5706 3.87912C44.8775 4.42804 45.0003 5.06352 44.9204 5.68828C44.8404 6.31305 44.5621 6.89271 44.128 7.33862C40.899 10.6644 33.0968 9.64494 28.7367 9.62823C27.9609 9.61709 27.5566 10.0127 27.5238 10.8149C26.8572 29.2098 26.3273 47.7718 25.9339 66.5009C25.9121 67.7376 26.0923 70.1387 26.4748 73.704C26.5403 74.3057 26.4147 74.8683 26.0978 75.392C24.8958 77.3752 23.049 78.2275 20.5576 77.949C15.3616 77.3808 15.9189 68.1889 16.0172 64.813C16.5308 47.198 17.0718 29.2543 17.64 10.9819C17.6728 10.0795 17.2466 9.62269 16.3615 9.61155Z" fill="black"/>
</svg>
