<svg width="43" height="78" viewBox="0 0 43 78" fill="none" xmlns="http://www.w3.org/2000/svg">
<path d="M27.0035 8.97467V74.3348C27.0144 76.3671 26.0288 77.5545 24.0467 77.8969C23.4477 78.0073 22.8596 78.0294 22.2824 77.9632C19.4944 77.6318 18.1004 76.0468 18.1004 73.2082L18.0678 8.37825C18.0678 8.25863 18.0442 8.1402 17.9985 8.03029C17.9527 7.92037 17.8857 7.82128 17.8015 7.73906C17.7174 7.65683 17.6179 7.59321 17.5092 7.55213C17.4005 7.51105 17.2847 7.49337 17.1692 7.50015L2.85888 8.11316C2.35238 8.13381 1.85031 8.01009 1.40963 7.75599C0.968963 7.5019 0.607342 7.1276 0.365798 6.67561C0.124253 6.22362 0.0123998 5.71204 0.0430447 5.19887C0.0736896 4.6857 0.245524 4.19151 0.539089 3.77239C2.16181 1.46394 4.43259 0.315206 7.3513 0.326251C15.7045 0.370432 26.8239 0.519575 40.7095 0.773615C42.158 0.795705 42.8386 1.54127 42.7515 3.01028L42.6045 5.49546C42.5282 6.77671 41.853 7.42836 40.5788 7.45045L28.2124 7.71554C27.4065 7.73764 27.0035 8.15732 27.0035 8.97467Z" fill="black"/>
</svg>
