<svg width="49" height="78" viewBox="0 0 49 78" fill="none" xmlns="http://www.w3.org/2000/svg">
<path d="M28.9919 10.8884L28.7937 74.0361C28.7817 77.157 27.1123 78.4352 23.7854 77.8708C23.353 77.8044 23.0707 77.7602 22.9386 77.738C19.4676 77.1515 17.7441 75.3642 17.7682 72.3761L18.2185 11.2869C18.2306 10.5122 17.8162 10.0916 16.9755 10.0252C12.1833 9.70983 6.34628 10.2078 2.09461 7.93358C1.28178 7.49479 0.688153 6.78035 0.442048 5.94471C0.195944 5.10907 0.317179 4.21939 0.77951 3.46808C2.07663 1.34324 4.01627 0.341692 6.5985 0.463428C18.1885 1.02784 29.3582 0.989093 40.1075 0.347213C43.3863 0.159076 45.9506 1.23257 47.8001 3.56768C48.2205 4.09889 48.3226 4.67993 48.1064 5.31075C46.0886 11.3201 35.6215 9.82605 30.361 9.67664C29.4482 9.64344 28.9919 10.0474 28.9919 10.8884Z" fill="black"/>
</svg>
