<svg width="45" height="78" viewBox="0 0 45 78" fill="none" xmlns="http://www.w3.org/2000/svg">
<path d="M15.3961 9.55658C11.2969 9.46899 7.25415 8.99275 3.26789 8.12784C1.38204 7.72275 0.450472 6.5841 0.473057 4.71195V3.51315C0.495642 1.35634 1.61923 0.294358 3.84386 0.327202C15.7462 0.524271 27.3662 0.524271 38.7039 0.327202C41.6061 0.283409 43.5032 1.63552 44.3953 4.38353C44.7792 5.56595 43.9718 6.81404 41.973 8.12784C41.5055 8.43011 40.9775 8.62133 40.4316 8.68619C36.705 9.09128 32.651 9.29381 28.2695 9.29381C27.3435 9.28286 26.8862 9.72626 26.8975 10.624L27.4735 73.5053C27.5073 76.8008 25.949 78.2842 22.7983 77.9558C22.6064 77.9339 22.4088 77.9175 22.2055 77.9065C18.8742 77.7204 17.1972 75.8756 17.1747 72.3722C17.0053 50.6509 16.8698 30.1612 16.7681 10.9032C16.7569 10.0274 16.2995 9.57847 15.3961 9.55658Z" fill="black"/>
</svg>
