<svg width="54" height="78" viewBox="0 0 54 78" fill="none" xmlns="http://www.w3.org/2000/svg">
<path d="M15.5833 69.1188L48.4094 68.6285C49.0213 68.6172 49.6277 68.7944 50.1473 69.1363C52.902 70.9572 54.0784 72.6789 53.6764 74.3014C53.0616 76.706 51.501 77.9199 48.9946 77.9433C35.1501 78.025 20.5785 78.0191 5.27974 77.9257C0.207753 77.8907 -0.182383 73.0233 1.75065 69.539C3.05116 67.2045 4.38122 64.9458 5.74085 62.763C16.1567 46.0245 27.5066 28.7081 39.7905 10.814C40.429 9.8802 40.1748 9.39575 39.0279 9.36074C27.9027 9.10394 17.3627 9.09814 7.40787 9.34326C4.71227 9.4133 2.75557 8.25184 1.53782 5.85895C0.899386 4.63332 2.08167 3.01083 5.08466 0.991467C5.74378 0.557536 6.50901 0.326055 7.28371 0.326172L48.6754 0.448694C49.5082 0.45254 50.327 0.662554 51.0564 1.05933C51.7858 1.4561 52.4023 2.02691 52.8492 2.71922C53.296 3.41154 53.5589 4.20308 53.6136 5.02101C53.6683 5.83894 53.513 6.65695 53.1621 7.39974C51.5897 10.7264 49.964 13.6796 48.2852 16.2593C37.4082 32.9161 26.2179 50.0165 14.7144 67.5605C14.0168 68.6227 14.3065 69.1421 15.5833 69.1188Z" fill="black"/>
</svg>
