<svg width="58" height="78" viewBox="0 0 58 78" fill="none" xmlns="http://www.w3.org/2000/svg">
<path d="M42.5049 9.51199L8.46454 9.30175C7.64762 9.30153 6.84466 9.09631 6.13375 8.70605C2.90558 6.95398 1.65887 5.38876 2.39365 4.01046C3.5741 1.76781 4.78465 0.628994 6.02533 0.593952C22.5757 0.220177 37.9638 0.237695 52.1894 0.646512C52.9905 0.671412 53.7737 0.882515 54.4731 1.26205C55.1725 1.64158 55.7677 2.17842 56.2086 2.82746C56.6495 3.4765 56.9232 4.21875 57.0067 4.99172C57.0902 5.7647 56.981 6.5458 56.6884 7.26934C55.267 10.7618 53.2856 14.2251 50.744 17.6591C38.3251 34.4673 26.2376 51.1354 14.4812 67.6632C14.168 68.0954 14.1982 68.5042 14.5716 68.8897C14.68 69.0065 14.957 69.0591 15.4027 69.0474C26.617 68.7437 38.9636 68.586 52.4424 68.5743C54.9478 68.5743 56.6041 70.0402 57.4111 72.972C57.5436 73.4042 57.4894 73.8364 57.2485 74.2685C55.9235 76.7331 53.9601 77.9654 51.3583 77.9654C37.6747 77.9888 22.5276 78.0005 5.91693 78.0005C2.46591 78.0005 -0.641808 75.6352 0.948188 71.8857C2.79114 67.5406 4.54375 63.3531 7.34431 59.4986C19.7872 42.4334 31.6941 26.1274 43.065 10.5807C43.5709 9.8799 43.3842 9.52367 42.5049 9.51199Z" fill="black"/>
</svg>
