<svg width="58" height="78" viewBox="0 0 58 78" fill="none" xmlns="http://www.w3.org/2000/svg">
<path d="M14.5623 69.1647C14.0608 70.0012 14.3055 70.4194 15.2966 70.4194L52.1395 70.4017C52.2582 70.4017 52.3732 70.4196 52.4798 70.4548C58.1994 72.3868 58.683 74.7253 53.9306 77.4703C53.4975 77.7358 52.995 77.8765 52.4798 77.8767L3.6903 78.0004C3.11628 78.0037 2.55066 77.8644 2.04552 77.5954C1.54039 77.3264 1.11198 76.9363 0.79977 76.461C0.487558 75.9858 0.301577 75.4406 0.258956 74.8758C0.216334 74.311 0.318444 73.7447 0.555879 73.2291C2.84849 68.2458 4.4963 63.5452 7.64863 59.0037C19.0639 42.5811 30.5687 26.1409 42.1631 9.68298C42.2131 9.61326 42.2424 9.53119 42.2477 9.44596C42.253 9.36073 42.2341 9.27573 42.1932 9.20048C42.1523 9.12524 42.0909 9.06273 42.016 9.01998C41.9411 8.97723 41.8556 8.95592 41.7691 8.95845L5.89335 8.97614C5.04359 8.97627 4.21574 8.71021 3.5291 8.21628C1.37978 6.66121 0.555878 5.35352 1.05739 4.29324C1.97682 2.36118 3.6903 1.40102 6.19784 1.41281C18.449 1.42459 30.8553 1.38925 43.4169 1.30678C46.414 1.28322 49.638 0.98279 53.0888 0.405526C55.2978 0.040318 56.6471 0.935701 57.1367 3.0916C57.3277 3.91627 57.1486 4.65843 56.5994 5.31816C52.8739 9.68298 52.2112 15.1611 48.7902 19.95C38.5929 34.2167 28.3955 48.719 18.1982 63.4569C16.9444 65.2476 15.7325 67.1502 14.5623 69.1647Z" fill="black"/>
</svg>
