<svg width="51" height="78" viewBox="0 0 51 78" fill="none" xmlns="http://www.w3.org/2000/svg">
<path d="M16.7708 67.801C16.3266 68.681 16.6087 69.1268 17.6173 69.1384L41.7156 69.5899C44.8854 69.6478 46.3323 71.1936 46.0561 74.2272L46.0021 74.7657C45.9254 75.6457 45.5091 76.4659 44.8354 77.064C44.1617 77.6622 43.2798 77.9949 42.364 77.9961C31.6656 78.0077 20.3129 77.9961 8.30579 77.9614C4.21736 77.944 -0.0511592 74.592 2.7405 70.3541C4.24138 68.0847 5.52015 65.9542 6.57678 63.9627C16.1585 46.0272 25.4339 28.1959 34.4032 10.4688C34.7755 9.73933 34.5413 9.35723 33.7008 9.32249C24.3953 8.92881 14.7176 8.97516 4.66765 9.46146C2.57841 9.56567 1.2396 8.65092 0.65125 6.71727C0.531179 6.32359 0.489141 5.91837 0.525162 5.50153C0.729283 2.94263 2.13411 1.43157 4.73965 0.968421C7.5133 0.470535 10.1249 0.262143 12.5743 0.343194C23.2847 0.690557 34.4033 0.817925 45.9301 0.725295C47.6471 0.713716 49.052 1.35056 50.1446 2.6358C50.4949 3.03967 50.7474 3.5137 50.884 4.02375C51.0206 4.53379 51.0378 5.06716 50.9344 5.58544C50.8311 6.10371 50.6097 6.59395 50.2863 7.02093C49.9629 7.4479 49.5454 7.80097 49.064 8.05465C47.6951 8.77253 46.6985 9.73358 46.0742 10.9378C36.0482 30.3322 26.2805 49.2866 16.7708 67.801Z" fill="black"/>
</svg>
