<svg width="53" height="78" viewBox="0 0 53 78" fill="none" xmlns="http://www.w3.org/2000/svg">
<path d="M30.5351 9.56964C22.4454 9.27187 14.2572 9.34632 5.97045 9.79298C2.33808 9.99913 0.472641 8.45299 0.374136 5.15461C0.353442 4.34238 0.628044 3.54687 1.15389 2.89578C1.67974 2.24468 2.42635 1.77575 3.27389 1.5642C6.03203 0.865586 8.7963 0.499075 11.5668 0.464717C21.996 0.338737 32.9916 0.298692 44.5536 0.344503C46.5483 0.355956 48.4015 0.756769 50.113 1.547C50.9281 1.92286 51.5644 2.56654 51.8987 3.35351C52.2331 4.14048 52.2417 5.01485 51.923 5.80743C50.6671 8.91683 47.8043 8.86529 44.7937 9.44938C44.055 9.59826 43.5501 9.99913 43.2792 10.6519L19.361 67.7722C19.308 67.9077 19.2898 68.0529 19.3076 68.1959C19.3255 68.3388 19.3791 68.4755 19.4638 68.5946C19.5486 68.7136 19.6622 68.8118 19.7952 68.8809C19.9282 68.95 20.0769 68.988 20.229 68.9919L37.7383 69.4902C38.5632 69.5121 39.3565 69.7902 39.9916 70.2804C41.5554 71.4715 42.2511 72.6912 42.0787 73.9395C41.6724 76.7569 39.9424 78.1083 36.8887 77.9937C28.602 77.6731 20.3029 77.5299 11.9916 77.5643C9.57821 77.5757 7.45417 76.8657 5.61952 75.4341C4.98598 74.9452 4.56567 74.2577 4.43659 73.4995C4.3075 72.7412 4.47847 71.9636 4.91772 71.3111C6.78931 68.5396 8.38385 65.6191 9.70136 62.5498C16.9415 45.5884 24.1877 28.3578 31.4401 10.8581C31.7726 10.0335 31.4709 9.604 30.5351 9.56964Z" fill="black"/>
</svg>
