<svg width="54" height="78" viewBox="0 0 54 78" fill="none" xmlns="http://www.w3.org/2000/svg">
<path d="M22.5938 9.58876C17.3589 9.53233 11.8008 9.67903 5.9195 10.0289C0.97614 10.3167 -2.00887 4.78052 2.25002 2.13937C3.99921 1.05582 5.97019 0.519668 8.16301 0.530955C20.344 0.598677 33.279 0.530963 46.9683 0.327798C50.0104 0.277006 53.0715 1.41133 53.2806 4.44189C53.3378 5.35458 53.031 6.2554 52.4147 6.98399C51.7984 7.71258 50.9128 8.22166 49.9154 8.42056C45.7326 9.26708 41.7081 9.58877 37.8421 9.38561C37.1895 9.35291 36.5457 9.53671 36.0338 9.90203C35.5219 10.2673 35.1776 10.7886 35.0663 11.3664L24.7043 67.4401C24.5648 68.2076 24.9007 68.7438 25.7119 69.0486C28.811 70.2168 32.8418 71.7913 31.606 75.5498C31.4004 76.1701 30.9854 76.7189 30.4173 77.1218C29.8492 77.5247 29.1556 77.762 28.4307 77.8016C23.1832 78.1064 11.4142 79.0206 12.6691 71.3003C16.1421 50.0018 19.8179 29.8263 23.6965 10.7739C23.7239 10.6298 23.7161 10.4822 23.6736 10.3411C23.631 10.2001 23.5548 10.0688 23.4502 9.95628C23.3455 9.84378 23.2148 9.75274 23.067 9.68931C22.9192 9.62589 22.7578 9.59159 22.5938 9.58876Z" fill="black"/>
</svg>
