<svg width="54" height="78" viewBox="0 0 54 78" fill="none" xmlns="http://www.w3.org/2000/svg">
<path d="M26.0922 9.91527C18.3785 9.97122 11.4669 10.0551 5.35766 10.167C3.2842 10.2006 1.73527 9.37252 0.710884 7.68282C0.441584 7.23148 0.281552 6.73326 0.241449 6.2214C0.201346 5.70953 0.282113 5.19581 0.478342 4.71448C0.67457 4.23316 0.981763 3.79535 1.37941 3.43019C1.77706 3.06504 2.25605 2.78095 2.78438 2.59693C5.56133 1.64018 8.70849 0.700237 11.6521 0.733807C21.538 0.868088 33.3061 0.733772 46.9563 0.33093C49.2396 0.263789 51.0353 0.90726 52.3436 2.26126C52.9756 2.91993 53.3189 3.76659 53.3087 4.64164C53.2984 5.51669 52.9353 6.35962 52.288 7.01143C49.1408 10.1838 44.2164 9.46204 39.8658 10.3013C39.1747 10.4356 38.7365 10.8105 38.5514 11.4259C34.0342 26.5213 29.0358 43.5806 23.5559 62.6037C23.1363 64.0472 22.6056 65.5076 21.9638 66.9847C21.8834 67.1646 21.8519 67.3593 21.872 67.5526C21.8922 67.7458 21.9634 67.9318 22.0797 68.0948C22.1959 68.2578 22.3537 68.3931 22.5398 68.4891C22.7258 68.5851 22.9347 68.639 23.1486 68.6464C28.5729 68.831 33.701 67.5721 36.9038 73.0105C37.2493 73.5924 37.2246 74.1631 36.8297 74.7226C34.9784 77.3299 32.2817 78.3817 28.7395 77.8782C23.63 77.1508 18.3538 76.7144 12.911 76.569C8.48638 76.4515 7.65328 72.6244 9.24539 69.5695C10.4672 67.2196 11.4607 64.6963 12.226 61.9995C17.101 44.957 22.0934 28.032 27.2029 11.2245C27.4621 10.3405 27.0919 9.90408 26.0922 9.91527Z" fill="black"/>
</svg>
