<svg width="46" height="78" viewBox="0 0 46 78" fill="none" xmlns="http://www.w3.org/2000/svg">
<path d="M17.6347 9.25175C14.5805 9.06021 11.4762 9.15035 8.32203 9.52218C6.47838 9.73626 4.70134 9.47712 2.99097 8.74474C0.492041 7.66308 -0.140972 4.35045 1.79153 2.44063C3.02434 1.22376 4.55703 0.626593 6.38957 0.649127C18.3067 0.80687 30.0683 0.699826 41.6744 0.328003C42.1796 0.311981 42.6827 0.401226 43.1526 0.590174C43.6226 0.779122 44.0494 1.06375 44.4066 1.42656C45.6283 2.67724 46.1336 3.94482 45.9226 5.2293C45.5449 7.59544 44.1734 8.79543 41.8077 8.82923L31.1456 8.99825C30.5362 9.0084 29.9521 9.2472 29.506 9.66855C29.0599 10.0899 28.7834 10.6639 28.7299 11.2799C27.0751 30.333 25.7424 49.3692 24.7317 68.3885C24.6484 70.0279 25.1981 71.6335 25.9977 72.9349C26.1857 73.2369 26.3123 73.574 26.3705 73.9266C26.4287 74.2792 26.4172 74.6404 26.3367 74.9892C26.2561 75.3381 26.1081 75.6677 25.9013 75.9591C25.6944 76.2505 25.4328 76.4979 25.1315 76.6869C19.3174 80.3375 14.2695 75.8419 14.6027 69.7913C15.7689 48.5749 17.1071 28.7725 18.6176 10.3841C18.6289 10.2438 18.6123 10.1025 18.5686 9.96884C18.5249 9.83515 18.4551 9.71174 18.3634 9.60604C18.2716 9.50034 18.1597 9.41449 18.0346 9.35362C17.9094 9.29275 17.7734 9.2581 17.6347 9.25175Z" fill="black"/>
</svg>
