<svg width="156" height="194" viewBox="0 0 156 194" fill="none" xmlns="http://www.w3.org/2000/svg">
<path d="M58.935 191.77C48.499 191.948 38.1464 189.959 28.5204 185.897C20.2407 182.466 13.0213 176.89 7.60074 169.742C2.46611 162.642 -0.202455 154.052 0.0119841 145.296C-0.0118425 138.303 1.66792 131.405 4.89642 125.198C8.16065 118.861 13.5455 112.392 21.0627 105.78C28.58 99.1798 38.8493 91.9723 51.8824 84.181C61.7228 78.4507 71.2415 72.1843 80.3909 65.4057C87.2648 60.1638 92.1612 55.0768 95.068 50.1447C97.9749 45.2126 99.4759 39.5777 99.4164 33.8474C99.4164 25.1626 96.5691 18.1933 90.8626 12.9277C85.1562 7.67392 76.9598 5.05301 66.2855 5.06493C55.0513 5.06493 46.3189 7.95984 40.0763 13.7497C33.8338 19.5396 30.7006 27.1402 30.6887 36.5517C30.6768 40.7929 31.3082 45.0101 32.5948 49.0487C34.2507 53.7783 36.6215 58.222 39.6355 62.2129C44.1149 68.3006 48.916 74.15 54.0268 79.7254L155.051 189.983L150.977 193.509L49.1781 82.2868C43.9124 76.5446 38.9684 70.5165 34.3818 64.2382C28.3179 56.3397 25.1132 46.6184 25.28 36.6708C25.1132 29.9041 26.8526 23.2207 30.3074 17.3952C33.7623 11.8793 38.7063 7.44757 44.5676 4.62412C51.3463 1.40754 58.7921 -0.165009 66.2975 0.0136903C73.2548 -0.141182 80.1526 1.26458 86.5024 4.12377C91.9825 6.64938 96.6049 10.7356 99.7976 15.8583C103.074 21.3504 104.73 27.6644 104.551 34.0499C104.611 40.1734 103.062 46.2134 100.084 51.5624C97.0814 56.9115 91.9944 62.4393 84.8226 68.1338C75.4111 75.3771 65.5707 82.0366 55.3492 88.0885C42.4947 95.9156 32.4161 102.885 25.0775 109.008C17.7508 115.132 12.6281 121.053 9.7213 126.795C6.81446 132.561 5.32531 138.946 5.37296 145.403C5.27765 153.242 7.68412 160.902 12.2469 167.276C17.036 173.84 23.5764 178.915 31.1175 181.953C39.9453 185.539 49.4163 187.29 58.947 187.112C72.5281 187.112 84.5248 184.395 94.937 178.963C105.349 173.531 114.034 165.298 121.003 154.255C127.972 143.211 133.083 129.177 136.348 112.165L140.97 113.249C137.527 131.167 132.094 145.928 124.661 157.507C117.239 169.099 108.006 177.7 96.9622 183.335C85.9186 188.958 73.2429 191.758 58.947 191.758L58.935 191.77Z" fill="black"/>
</svg>
