<?xml version="1.0" encoding="UTF-8"?>
<svg id="Layer_2" data-name="Layer 2" xmlns="http://www.w3.org/2000/svg" viewBox="0 0 363.21 309.9">
  <defs>
    <style>
      .cls-1 {
        fill: #fff;
      }
    </style>
  </defs>
  <g id="Layer_1-2" data-name="Layer 1">
    <path class="cls-1" d="m137.54,12.59h-12.33V0h-47.09c-2.25,6.82-4.95,12.77-8.16,17.8-3.97,6.21-9.08,11.15-15.36,14.8-6.27,3.65-13.87,6.32-22.75,7.98s-19.51,2.57-31.85,2.69l.5,49.96,57.72-.58,2.02,201.92h39.43v-75.56h39.93l-2.06-206.45v.04Z"/>
    <path class="cls-1" d="m239.4,246.85c-3.83-7.82-5.75-22.77-5.75-44.91v-103.52c0-22.11,1.93-37.09,5.75-44.91,3.83-7.82,10.02-11.73,18.58-11.73s14.76,3.91,18.58,11.73c3.83,7.82,5.75,22.77,5.75,44.91v103.52c0,22.11-1.9,37.09-5.75,44.91-3.83,7.82-10.02,11.73-18.58,11.73s-14.76-3.91-18.58-11.73Zm2.19,62.33c5.23.46,10.68.72,16.4.72,15.34,0,28.93-1.68,40.84-5.01v-8.2h19.55c4.63-2.83,8.9-6.21,12.79-10.16v-32.26h10.7v-97.07h21.35v-47.29c-.38-5.25-.86-10.28-1.4-15.1h-30.79v-53.87h-21.53V2.99h-109.62c-.46.24-.9.52-1.36.76v20.91h-22.41c-8.12,11.77-14.25,27.4-18.34,46.99-4.27,20.49-6.42,46.67-6.42,78.53s2.15,57.66,6.42,78.3c4.27,20.65,10.77,37.01,19.47,49.1,2.32,3.23,4.83,6.17,7.48,8.88h56.85v22.69l.04.02Z"/>
  </g>
</svg>