<?xml version="1.0" encoding="UTF-8"?>
<svg id="Layer_2" data-name="Layer 2" xmlns="http://www.w3.org/2000/svg" viewBox="0 0 301.88 304.86">
  <defs>
    <style>
      .cls-1 {
        fill: #fff;
      }
    </style>
  </defs>
  <g id="Layer_1-2" data-name="Layer 1">
    <path class="cls-1" d="m134.69,0h-49.56v29.85h-49.58c-.12.04-.26.08-.38.12v19.84H0v38.6h50v183.91h.14v29.95h57.93v-25.03h26.63V0Z"/>
    <path class="cls-1" d="m214.46,25.67c-6.65,3.78-14.64,6.49-24.01,8.15-7.71,1.36-16.66,2.16-26.81,2.4v27.77h-6.69v24.85h60.69v216.02h73.18v-20.78h11.05V33.12h-52.34V2.16h-14.24c-1.4,2.92-2.9,5.63-4.53,8.11-4.22,6.49-9.67,11.63-16.3,15.4h-.02Z"/>
  </g>
</svg>