<?xml version="1.0" encoding="UTF-8"?>
<svg id="Layer_2" data-name="Layer 2" xmlns="http://www.w3.org/2000/svg" viewBox="0 0 347.23 303.71">
  <defs>
    <style>
      .cls-1 {
        fill: #fff;
      }
    </style>
  </defs>
  <g id="Layer_1-2" data-name="Layer 1">
    <path class="cls-1" d="m198.77,7.27c-3.32,1.25-6.46,2.66-9.4,4.2v8.11h-12.27c-3.11,2.6-5.92,5.41-8.37,8.51-4.5,5.68-8.11,12.12-10.79,19.27v13.43h-3.82c-2.56,12.71-3.99,26.76-4.27,42.16h74.65v-12.88c0-8.58.64-15.51,1.94-20.81,1.29-5.28,3-9.36,5.15-12.23,2.15-2.85,4.5-4.79,7.08-5.79,2.58-1.01,5.3-1.5,8.15-1.5,6.29,0,11.3,2.43,15.02,7.29,3.72,4.86,5.58,13.73,5.58,26.6,0,11.45-1.65,20.66-4.94,27.67-3.29,7.01-8.79,14.38-16.52,22.09l-53.19,54.05c-16.46,17.01-28.03,34.47-34.68,52.38v28.22h20.91v35.66h107.83v-19.86h60.39v-40.2h-104.67c1.42-4.58,4.22-9,8.38-13.29,4.14-4.29,7.94-8.15,11.38-11.58l47.19-45.9c11.43-11.43,20.59-24.17,27.46-38.19,6.85-14.01,10.29-31.32,10.29-51.92v-.89h-18.67V29.45h-83.56V0c-18.84.32-34.28,2.72-46.22,7.23l-.02.04Z"/>
    <path class="cls-1" d="m58.79,40.01c-6.8,3.86-14.96,6.65-24.54,8.34s-20.98,2.54-34.26,2.54v53.68h62.02v199.13h47.53v-22.24h38.57v-114.59h-21.76V33.73h-33.46V.38h-6.93c-2.75,9.4-6.27,17.36-10.52,23.91-4.33,6.65-9.88,11.89-16.65,15.74v-.02Z"/>
  </g>
</svg>