<?xml version="1.0" encoding="UTF-8"?>
<svg id="Layer_2" data-name="Layer 2" xmlns="http://www.w3.org/2000/svg" xmlns:xlink="http://www.w3.org/1999/xlink" viewBox="0 0 371.86 303.71">
  <defs>
    <style>
      .cls-1 {
        fill: #fff;
      }

      .cls-2 {
        clip-path: url(#clippath-2);
      }

      .cls-3 {
        clip-path: url(#clippath-1);
      }

      .cls-4 {
        clip-path: url(#clippath);
      }

      .cls-5 {
        fill: none;
      }

      .cls-6 {
        clip-path: url(#clippath-3);
      }
    </style>
    <clipPath id="clippath">
      <rect class="cls-5" width="371.86" height="303.71"/>
    </clipPath>
    <clipPath id="clippath-1">
      <rect class="cls-5" width="371.86" height="303.71"/>
    </clipPath>
    <clipPath id="clippath-2">
      <rect class="cls-5" width="371.86" height="303.71"/>
    </clipPath>
    <clipPath id="clippath-3">
      <rect class="cls-5" width="371.86" height="303.71"/>
    </clipPath>
  </defs>
  <g id="Layer_1-2" data-name="Layer 1">
    <g class="cls-4">
      <path d="m249.4,58.19c3.38-6.16,9.01-9.24,16.92-9.24,7.03,0,12.23,2.28,15.6,6.82,3.38,4.56,5.05,13.42,5.05,26.62,0,9.1-.74,16.5-2.2,22.22-1.48,5.72-3.68,10.2-6.59,13.42-2.94,3.24-6.59,5.44-10.99,6.6-4.4,1.18-9.67,1.76-15.82,1.76h-11.87v51.05h20.66c10.25,0,17.8,2.64,22.64,7.92,4.84,5.28,7.25,15.56,7.25,30.82,0,9.68-.3,17.68-.88,23.98-.6,6.32-1.7,11.3-3.3,14.96-1.62,3.68-3.9,6.16-6.81,7.48-2.94,1.32-6.75,1.98-11.43,1.98-8.79,0-14.94-3.8-18.46-11.44-1.76-4.1-3.16-9.1-4.18-14.96-1.04-5.86-1.54-13.2-1.54-22h-76.51c0,18.78,2.04,34.56,6.15,47.32,2.28,7.12,5.28,13.4,8.93,18.92h79.52v21.2h61.9v-31.96h37.46c7.27-14.56,10.93-33.32,10.93-56.35,0-17.02-3.68-31.76-10.99-44.24-7.33-12.46-20.08-20.46-38.26-23.98v-.88c8.21-1.76,15.08-4.84,20.66-9.24,5.57-4.4,10.03-9.46,13.41-15.18,3.38-5.72,5.79-11.88,7.25-18.48,1.46-6.6,2.2-12.98,2.2-19.14,0-13.78-1.54-26.04-4.61-36.76-3.08-10.7-8.35-19.74-15.83-27.06-7.47-7.34-17.52-12.9-30.11-16.72-5.04-1.52-10.59-2.72-16.64-3.64v6.8h-47.51v26.9h-64.58v58.39h57.5c0-16.42,1.68-27.72,5.06-33.9"/>
    </g>
    <g class="cls-3">
      <path d="m136.87,303.71V.62h-7.93v19.28h-57.32c-.62,1.08-1.22,2.2-1.88,3.2-4,6.14-9.13,10.98-15.4,14.56-6.27,3.58-13.83,6.14-22.68,7.7C22.8,46.94,12.25,47.72,0,47.72v49.65h57.32v162.52h22.1v43.81h57.46-.02Z"/>
    </g>
    <g class="cls-2">
      <path class="cls-1" d="m249.4,58.19c3.38-6.16,9.01-9.24,16.92-9.24,7.03,0,12.23,2.28,15.6,6.82,3.38,4.56,5.05,13.42,5.05,26.62,0,9.1-.74,16.5-2.2,22.22-1.48,5.72-3.68,10.2-6.59,13.42-2.94,3.24-6.59,5.44-10.99,6.6-4.4,1.18-9.67,1.76-15.82,1.76h-11.87v51.05h20.66c10.25,0,17.8,2.64,22.64,7.92,4.84,5.28,7.25,15.56,7.25,30.82,0,9.68-.3,17.68-.88,23.98-.6,6.32-1.7,11.3-3.3,14.96-1.62,3.68-3.9,6.16-6.81,7.48-2.94,1.32-6.75,1.98-11.43,1.98-8.79,0-14.94-3.8-18.46-11.44-1.76-4.1-3.16-9.1-4.18-14.96-1.04-5.86-1.54-13.2-1.54-22h-76.51c0,18.78,2.04,34.56,6.15,47.32,2.28,7.12,5.28,13.4,8.93,18.92h79.52v21.2h61.9v-31.96h37.46c7.27-14.56,10.93-33.32,10.93-56.35,0-17.02-3.68-31.76-10.99-44.24-7.33-12.46-20.08-20.46-38.26-23.98v-.88c8.21-1.76,15.08-4.84,20.66-9.24,5.57-4.4,10.03-9.46,13.41-15.18,3.38-5.72,5.79-11.88,7.25-18.48,1.46-6.6,2.2-12.98,2.2-19.14,0-13.78-1.54-26.04-4.61-36.76-3.08-10.7-8.35-19.74-15.83-27.06-7.47-7.34-17.52-12.9-30.11-16.72-5.04-1.52-10.59-2.72-16.64-3.64v6.8h-47.51v26.9h-64.58v58.39h57.5c0-16.42,1.68-27.72,5.06-33.9"/>
    </g>
    <g class="cls-6">
      <path class="cls-1" d="m136.87,303.71V.62h-7.93v19.28h-57.32c-.62,1.08-1.22,2.2-1.88,3.2-4,6.14-9.13,10.98-15.4,14.56-6.27,3.58-13.83,6.14-22.68,7.7C22.8,46.94,12.25,47.72,0,47.72v49.65h57.32v162.52h22.1v43.81h57.46-.02Z"/>
    </g>
  </g>
</svg>