<svg width="264" height="373" viewBox="0 0 264 373" fill="none" xmlns="http://www.w3.org/2000/svg">
<path d="M123.914 296.863C125.825 290.748 129.556 284.813 135.109 279.081C140.639 273.348 145.72 268.178 150.306 263.592L213.409 202.219C228.696 186.932 240.948 169.914 250.12 151.165C259.293 132.439 263.879 109.284 263.879 81.745C263.879 66.4581 262.058 52.1154 258.438 38.7169C257.157 34.0185 255.493 29.5448 253.47 25.251H155.769V0.814453H84.3701V37.6603H22.728V62.2992H3.93412C1.64109 76.5969 0.31473 92.0412 0 108.699H99.8144V91.4792C99.8144 80.014 100.669 70.7295 102.4 63.6481C104.131 56.5666 106.424 51.1263 109.279 47.3046C112.156 43.4828 115.304 40.8976 118.743 39.5712C122.183 38.2448 125.825 37.5704 129.646 37.5704C138.054 37.5704 144.753 40.8301 149.722 47.3271C154.69 53.8465 157.185 65.6938 157.185 82.8915C157.185 98.2009 154.982 110.52 150.598 119.895C146.192 129.269 138.841 139.116 128.522 149.434L57.3933 221.71C34.0583 245.809 18.097 270.561 9.48686 296.009C7.4636 302.011 5.68762 308.103 4.13645 314.286V336.879H41.2071V373.837H112.673V342.948H167.504V311.948H242.005V296.863H123.936H123.914Z" fill="white"/>
</svg>
