<svg width="247" height="375" viewBox="0 0 247 375" fill="none" xmlns="http://www.w3.org/2000/svg">
<path d="M143.94 309.315C141.988 313.747 139.246 316.774 135.691 318.354C132.137 319.956 127.53 320.745 121.848 320.745C111.208 320.745 103.749 316.138 99.4925 306.902C97.3644 301.944 95.6751 295.911 94.4465 288.802C93.196 281.716 92.5818 272.831 92.5818 262.191H0C0 284.897 2.47908 303.962 7.45919 319.385C12.4174 334.808 20.0521 347.138 30.3414 356.374C40.148 365.171 52.4996 371.358 67.3302 375H89.4006V344.33H145.213V313.067H219.432V238.848H246.066C243.981 227.396 240.186 216.997 234.701 207.673C225.838 192.601 210.393 182.926 188.41 178.67V177.595C198.327 175.467 206.685 171.737 213.421 166.428C220.156 161.097 225.575 154.998 229.655 148.065C233.736 141.154 236.654 133.695 238.431 125.709C240.208 117.724 241.086 110.023 241.086 102.564C241.086 85.8904 239.221 71.0817 235.491 58.1378C231.762 45.1939 225.377 34.2904 216.339 25.4051C216.141 25.2077 215.9 25.0322 215.702 24.8128H131.962V0H95.4557C82.5996 1.73317 71.1256 4.78266 61.0337 9.17042V37.1205H25.2296C12.1102 55.0664 5.13368 80.0766 4.25613 112.173H93.6567C93.6567 92.3185 95.6971 78.6506 99.7777 71.1914C103.858 63.7322 110.681 60.0246 120.269 60.0246C128.781 60.0246 135.077 62.7669 139.158 68.2736C143.238 73.7802 145.279 84.5083 145.279 100.458C145.279 111.449 144.379 120.422 142.624 127.333C140.847 134.244 138.193 139.662 134.638 143.568C131.084 147.473 126.653 150.127 121.344 151.553C116.012 152.979 109.628 153.681 102.191 153.681H87.821V215.395H112.831C125.249 215.395 134.375 218.598 140.233 224.982C146.09 231.367 149.008 243.784 149.008 262.235C149.008 273.95 148.657 283.603 147.933 291.238C147.209 298.872 145.893 304.906 143.94 309.337V309.315Z" fill="white"/>
</svg>
