<svg width="262" height="55" viewBox="0 0 262 55" fill="none" xmlns="http://www.w3.org/2000/svg">
<path d="M7.83691 4.9707C6.86035 6.30859 5.01953 9.22852 2.31445 13.7305H7.83691V4.9707ZM14.4873 13.7305C14.79 13.7305 14.9414 13.8916 14.9414 14.2139C14.9414 14.3896 14.8438 14.5898 14.6484 14.8145C14.4629 15.0293 14.2725 15.1367 14.0771 15.1367H11.543V16.3379C11.543 16.9336 11.6016 17.417 11.7188 17.7881C11.8457 18.1592 12.0508 18.4326 12.334 18.6084C12.627 18.7744 12.9053 18.8818 13.1689 18.9307C13.4326 18.9795 13.8232 19.0137 14.3408 19.0332C14.4971 19.1113 14.5752 19.2773 14.5752 19.5312C14.5752 19.7852 14.4971 19.9609 14.3408 20.0586C13.6963 20.0586 13.042 20.0537 12.3779 20.0439C11.7236 20.0342 11.2061 20.0244 10.8252 20.0146C10.4443 20.0049 10.0781 20 9.72656 20L5.03906 20.0586C4.88281 19.9805 4.80469 19.8145 4.80469 19.5605C4.80469 19.2969 4.88281 19.1211 5.03906 19.0332C5.55664 19.0137 5.94727 18.9795 6.21094 18.9307C6.47461 18.8818 6.74805 18.7744 7.03125 18.6084C7.32422 18.4326 7.5293 18.1641 7.64648 17.8027C7.77344 17.4316 7.83691 16.9434 7.83691 16.3379V15.1367H2.51953C2.00195 15.1367 1.66992 15.0684 1.52344 14.9316L1.08398 14.3896C1.04492 14.3115 0.981445 14.2188 0.893555 14.1113C0.81543 13.9941 0.756836 13.9062 0.717773 13.8477C0.678711 13.7891 0.65918 13.7402 0.65918 13.7012C0.65918 13.6426 0.727539 13.5107 0.864258 13.3057C1.26465 12.6904 1.9043 11.7188 2.7832 10.3906C3.67188 9.05273 4.39941 7.94922 4.96582 7.08008C5.53223 6.21094 6.18652 5.25879 6.92871 4.22363C7.6709 3.17871 8.31055 2.33887 8.84766 1.7041H11.543V13.7305H14.4873ZM16.875 18.2568C16.875 17.6807 17.0947 17.1826 17.5342 16.7627C17.9736 16.3428 18.4912 16.1328 19.0869 16.1328C19.6924 16.1328 20.2051 16.333 20.625 16.7334C21.0449 17.1338 21.2549 17.6221 21.2549 18.1982C21.2549 18.7549 21.0352 19.2432 20.5957 19.6631C20.1562 20.083 19.6338 20.293 19.0283 20.293C18.4326 20.293 17.9248 20.0928 17.5049 19.6924C17.085 19.292 16.875 18.8135 16.875 18.2568ZM33.75 16.3379C33.75 16.9336 33.8232 17.417 33.9697 17.7881C34.1162 18.1592 34.3604 18.4326 34.7021 18.6084C35.0439 18.7744 35.3516 18.8818 35.625 18.9307C35.9082 18.9795 36.3135 19.0137 36.8408 19.0332C36.9971 19.1113 37.0752 19.2773 37.0752 19.5312C37.0752 19.7852 36.9971 19.9609 36.8408 20.0586C33.5596 20.0195 31.8896 20 31.8311 20L26.748 20.0586C26.5918 19.9805 26.5137 19.8145 26.5137 19.5605C26.5137 19.2969 26.5918 19.1211 26.748 19.0332C27.2656 19.0137 27.666 18.9795 27.9492 18.9307C28.2324 18.8818 28.5449 18.7744 28.8867 18.6084C29.2285 18.4326 29.4727 18.1641 29.6191 17.8027C29.7656 17.4316 29.8389 16.9434 29.8389 16.3379V6.94824C29.8389 6.24512 29.7998 5.80078 29.7217 5.61523C29.6436 5.42969 29.4922 5.33691 29.2676 5.33691C28.3691 5.33691 27.3291 5.58594 26.1475 6.08398C25.7275 5.78125 25.5078 5.35156 25.4883 4.79492C26.0645 4.55078 27.1143 4.13086 28.6377 3.53516C30.1611 2.92969 31.2744 2.46582 31.9775 2.14355C32.5928 1.84082 33.0908 1.69434 33.4717 1.7041C33.8135 1.7041 33.9844 1.875 33.9844 2.2168C33.8281 3.35938 33.75 4.45801 33.75 5.5127V16.3379ZM39.6094 18.2568C39.6094 17.6807 39.8291 17.1826 40.2686 16.7627C40.708 16.3428 41.2256 16.1328 41.8213 16.1328C42.4268 16.1328 42.9395 16.333 43.3594 16.7334C43.7793 17.1338 43.9893 17.6221 43.9893 18.1982C43.9893 18.7549 43.7695 19.2432 43.3301 19.6631C42.8906 20.083 42.3682 20.293 41.7627 20.293C41.167 20.293 40.6592 20.0928 40.2393 19.6924C39.8193 19.292 39.6094 18.8135 39.6094 18.2568Z" fill="#C92B1D"/>
<path d="M66.2842 5.99609C66.2842 3.07617 64.9854 1.61621 62.3877 1.61621C61.626 1.61621 61.1328 1.79687 60.9082 2.1582C60.6934 2.50977 60.5859 3.21777 60.5859 4.28223V10.2441H61.875C63.3105 10.2441 64.4043 9.96094 65.1562 9.39453C65.9082 8.82812 66.2842 7.69531 66.2842 5.99609ZM63.3545 0.385742C65.5713 0.385742 67.2412 0.712891 68.3643 1.36719C69.9072 2.28516 70.6738 3.65723 70.6641 5.4834C70.6641 6.87988 70.3223 8.00781 69.6387 8.86719C68.9648 9.72656 68.1494 10.3564 67.1924 10.7568L71.2646 17.0557C71.7236 17.7588 72.1582 18.2666 72.5684 18.5791C72.9785 18.8818 73.5059 19.0332 74.1504 19.0332C74.209 19.1504 74.2432 19.3262 74.2529 19.5605C74.2627 19.7949 74.2383 19.9609 74.1797 20.0586C73.8574 20.2148 72.8369 20.293 71.1182 20.293C69.7021 20.293 68.3838 19.4043 67.1631 17.627L63.6475 12.4121C63.4229 12.0508 63.1348 11.8115 62.7832 11.6943C62.4414 11.5674 61.709 11.5039 60.5859 11.5039V16.3379C60.5859 16.9336 60.6299 17.417 60.7178 17.7881C60.8154 18.1592 60.9863 18.4326 61.2305 18.6084C61.4844 18.7744 61.7285 18.8818 61.9629 18.9307C62.207 18.9795 62.5781 19.0137 63.0762 19.0332C63.2129 19.1309 63.2812 19.3018 63.2812 19.5459C63.291 19.79 63.2227 19.9609 63.0762 20.0586C61.4746 20.0195 59.9561 20 58.5205 20C57.0361 20 55.4932 20.0195 53.8916 20.0586C53.7549 19.9609 53.6865 19.79 53.6865 19.5459C53.6865 19.292 53.7549 19.1211 53.8916 19.0332C54.3896 19.0137 54.7607 18.9795 55.0049 18.9307C55.249 18.8818 55.4932 18.7744 55.7373 18.6084C55.9912 18.4326 56.1621 18.1641 56.25 17.8027C56.3379 17.4316 56.3818 16.9434 56.3818 16.3379V4.31152C56.3818 3.71582 56.3379 3.23242 56.25 2.86133C56.1621 2.49023 55.9912 2.22168 55.7373 2.05566C55.4932 1.87988 55.249 1.76758 55.0049 1.71875C54.7705 1.66992 54.3994 1.63574 53.8916 1.61621C53.7549 1.51855 53.6865 1.34277 53.6865 1.08887C53.6865 0.834961 53.7549 0.668945 53.8916 0.59082C54.292 0.59082 55.8691 0.556641 58.623 0.488281C61.377 0.419922 62.9541 0.385742 63.3545 0.385742ZM79.5996 11.7529H83.6865C83.7256 11.7139 83.7451 11.5039 83.7451 11.123C83.7451 10.0391 83.5498 9.23828 83.1592 8.7207C82.7686 8.20312 82.3242 7.94434 81.8262 7.94434C81.6016 7.94434 81.3281 8.03711 81.0059 8.22266C80.6934 8.39844 80.4248 8.64258 80.2002 8.95508C79.8389 9.50195 79.6387 10.4346 79.5996 11.7529ZM87.2168 16.1328C87.5195 16.1328 87.6709 16.4404 87.6709 17.0557C86.1865 19.2139 84.3164 20.293 82.0605 20.293C80.0977 20.293 78.5693 19.7949 77.4756 18.7988C76.1963 17.6367 75.5566 16.0547 75.5566 14.0527C75.5566 11.875 76.2305 10.1025 77.5781 8.73535C78.9258 7.36816 80.4492 6.68457 82.1484 6.68457C83.2129 6.68457 84.1113 6.84082 84.8438 7.15332C85.5859 7.45605 86.1426 7.88086 86.5137 8.42773C86.8848 8.96484 87.1484 9.52637 87.3047 10.1123C87.4707 10.6885 87.5537 11.3232 87.5537 12.0166C87.5537 12.6318 87.2656 12.9443 86.6895 12.9541H79.4824C79.4824 12.9932 79.4775 13.0615 79.4678 13.1592C79.458 13.2568 79.4531 13.3447 79.4531 13.4229C79.4531 14.8584 79.7803 15.9326 80.4346 16.6455C81.0986 17.3584 82.0312 17.7148 83.2324 17.7148C84.8535 17.7246 86.1816 17.1973 87.2168 16.1328ZM101.836 17.3926C101.26 18.2324 100.498 18.9258 99.5508 19.4727C98.6133 20.0195 97.7051 20.293 96.8262 20.293C94.8047 20.293 93.2471 19.7754 92.1533 18.7402C90.9131 17.5781 90.293 15.9863 90.293 13.9648C90.293 11.8066 90.9424 10.0537 92.2412 8.70605C93.54 7.3584 95.1074 6.68457 96.9434 6.68457C98.4668 6.68457 99.6631 7.0166 100.532 7.68066C101.401 8.33496 101.836 9.04297 101.836 9.80469C101.836 10.2832 101.68 10.6836 101.367 11.0059C101.064 11.3184 100.669 11.4746 100.181 11.4746C99.7021 11.4746 99.2822 11.3428 98.9209 11.0791C98.5693 10.8057 98.374 10.4688 98.335 10.0684C98.2764 9.49219 98.1104 8.99414 97.8369 8.57422C97.5635 8.1543 97.1777 7.94434 96.6797 7.94434C95.0195 7.94434 94.1895 9.60449 94.1895 12.9248C94.1895 14.5068 94.5947 15.7764 95.4053 16.7334C96.2158 17.6904 97.2021 18.1689 98.3643 18.1689C99.1846 18.1689 100.215 17.5977 101.455 16.4551C101.709 16.4648 101.836 16.7773 101.836 17.3926ZM110.654 7.94434C108.994 7.94434 108.164 9.67285 108.164 13.1299C108.164 14.5068 108.457 15.835 109.043 17.1143C109.639 18.3936 110.488 19.0332 111.592 19.0332C112.256 19.0332 112.837 18.6816 113.335 17.9785C113.833 17.2656 114.082 16.0986 114.082 14.4775C114.082 12.4365 113.77 10.8398 113.145 9.6875C112.52 8.52539 111.689 7.94434 110.654 7.94434ZM103.975 13.7891C103.975 11.7871 104.521 10.1562 105.615 8.89648C106.904 7.41211 108.745 6.6748 111.138 6.68457C113.315 6.68457 115.049 7.32422 116.338 8.60352C117.637 9.88281 118.286 11.5234 118.286 13.5254C118.286 15.6836 117.603 17.373 116.235 18.5938C114.956 19.7363 113.247 20.3027 111.108 20.293C109.067 20.293 107.368 19.6973 106.011 18.5059C104.653 17.3047 103.975 15.7324 103.975 13.7891ZM126.226 16.3379C126.226 17.5195 126.313 18.252 126.489 18.5352C126.675 18.8086 127.104 18.9746 127.778 19.0332C127.856 19.1113 127.896 19.2822 127.896 19.5459C127.905 19.8096 127.866 19.9805 127.778 20.0586C126.06 20.0195 124.893 20 124.277 20C123.213 20 121.841 20.0195 120.161 20.0586C120.083 19.9805 120.044 19.8145 120.044 19.5605C120.044 19.2969 120.083 19.1211 120.161 19.0332C121.118 18.9551 121.719 18.7891 121.963 18.5352C122.207 18.2715 122.329 17.5391 122.329 16.3379V10.7275C122.329 9.8877 122.212 9.35059 121.978 9.11621C121.753 8.87207 121.221 8.71094 120.381 8.63281C120.264 8.25195 120.239 7.92969 120.308 7.66602C122.007 7.44141 123.667 7.11426 125.288 6.68457C125.728 6.68457 125.962 6.85547 125.991 7.19727C126.079 7.79297 126.143 8.4375 126.182 9.13086C128.564 7.49023 130.229 6.6748 131.177 6.68457C133.833 6.68457 135.161 8.28125 135.161 11.4746V16.1621C135.161 17.3828 135.308 18.1592 135.601 18.4912C135.894 18.8135 136.519 18.9941 137.476 19.0332C137.573 19.1113 137.622 19.2822 137.622 19.5459C137.622 19.8096 137.573 19.9805 137.476 20.0586C135.757 20.0195 134.336 20 133.213 20C132.451 20 131.23 20.0195 129.551 20.0586C129.453 19.9805 129.404 19.8145 129.404 19.5605C129.404 19.2969 129.453 19.1211 129.551 19.0332C130.215 18.9941 130.664 18.8037 130.898 18.4619C131.143 18.1104 131.265 17.3438 131.265 16.1621V11.1523C131.265 9.64844 130.566 8.89648 129.17 8.89648C128.574 8.89648 127.593 9.36523 126.226 10.3027V10.3613V16.3379ZM139.307 15.6201C139.746 15.5225 140.146 15.5029 140.508 15.5615C140.811 16.6455 141.279 17.5146 141.914 18.1689C142.559 18.8135 143.232 19.1357 143.936 19.1357C144.375 19.1357 144.78 19.0039 145.151 18.7402C145.522 18.4766 145.708 18.1152 145.708 17.6562C145.708 16.5527 145.195 15.7764 144.17 15.3271C142.812 14.7119 141.655 13.8818 140.698 12.8369C140.083 12.1533 139.771 11.4014 139.761 10.5811C139.761 9.72168 140.103 8.94043 140.786 8.2373C141.802 7.20215 143.149 6.68457 144.829 6.68457C145.972 6.68457 147.095 6.92383 148.198 7.40234C148.462 8.32031 148.589 9.37988 148.579 10.5811C148.315 10.7568 147.925 10.8057 147.407 10.7275C146.646 8.87207 145.708 7.94434 144.595 7.94434C144.175 7.94434 143.828 8.06641 143.555 8.31055C143.281 8.54492 143.145 8.84277 143.145 9.2041C143.145 10.3076 143.687 11.084 144.771 11.5332C146.323 12.207 147.485 12.9785 148.257 13.8477C148.872 14.5312 149.18 15.3906 149.18 16.4258C149.18 17.6465 148.638 18.5986 147.554 19.2822C146.479 19.9561 145.293 20.293 143.994 20.293C142.471 20.293 141.079 20.0732 139.819 19.6338C139.614 18.7939 139.443 17.4561 139.307 15.6201ZM152.563 6.97754H153.398C153.398 4.95605 153.511 3.79883 153.735 3.50586C153.794 3.42773 153.911 3.34961 154.087 3.27148C154.272 3.19336 154.497 3.11523 154.761 3.03711C155.024 2.94922 155.21 2.88086 155.317 2.83203C155.552 2.73437 155.884 2.62207 156.313 2.49512C156.753 2.36816 157.026 2.30469 157.134 2.30469C157.29 2.30469 157.368 2.39258 157.368 2.56836C157.31 3.50586 157.256 4.63867 157.207 5.9668L157.178 6.97754H160.693C160.85 6.97754 160.928 7.03613 160.928 7.15332V8.09082C160.928 8.35449 160.688 8.48633 160.21 8.48633H157.178C157.178 9.60938 157.183 11.0791 157.192 12.8955C157.202 14.7119 157.207 15.8105 157.207 16.1914C157.207 16.8945 157.334 17.4072 157.588 17.7295C157.842 18.042 158.159 18.1982 158.54 18.1982C159.321 18.1982 159.888 18.0566 160.239 17.7734C160.601 18.0762 160.781 18.3594 160.781 18.623C160.459 19.0625 159.897 19.4531 159.097 19.7949C158.306 20.127 157.51 20.293 156.709 20.293C155.713 20.293 154.883 20.0146 154.219 19.458C153.623 18.9404 153.32 18.0713 153.311 16.8506C153.311 13.8916 153.34 11.1035 153.398 8.48633H151.45C151.353 8.48633 151.304 8.42285 151.304 8.2959V7.43164C151.646 7.12891 152.065 6.97754 152.563 6.97754ZM168.267 11.958V16.3379C168.267 17.5391 168.384 18.2764 168.618 18.5498C168.862 18.8135 169.463 18.9746 170.42 19.0332C170.498 19.1113 170.537 19.2822 170.537 19.5459C170.547 19.8096 170.508 19.9805 170.42 20.0586C168.701 20.0195 167.334 20 166.318 20C165.254 20 163.882 20.0195 162.202 20.0586C162.124 19.9805 162.085 19.8145 162.085 19.5605C162.085 19.2969 162.124 19.1211 162.202 19.0332C163.159 18.9551 163.76 18.7891 164.004 18.5352C164.248 18.2715 164.37 17.5391 164.37 16.3379V10.7275C164.37 9.8877 164.248 9.3457 164.004 9.10156C163.77 8.84766 163.242 8.68164 162.422 8.60352C162.305 8.24219 162.28 7.92969 162.349 7.66602C163.511 7.54883 165.171 7.22168 167.329 6.68457C167.749 6.68457 167.983 6.85547 168.032 7.19727C168.13 8.17383 168.198 8.95996 168.237 9.55566H168.354C169.692 7.63184 170.884 6.6748 171.929 6.68457C172.446 6.68457 172.905 6.86523 173.306 7.22656C173.706 7.57812 173.906 7.9541 173.906 8.35449C173.906 8.96973 173.73 9.4873 173.379 9.90723C173.027 10.3271 172.627 10.5371 172.178 10.5371C171.543 10.5371 171.06 10.3711 170.728 10.0391C170.688 10 170.635 9.94629 170.566 9.87793C170.498 9.80957 170.444 9.75586 170.405 9.7168C170.366 9.67773 170.317 9.63867 170.259 9.59961C170.2 9.55078 170.146 9.5166 170.098 9.49707C170.049 9.47754 169.995 9.46777 169.937 9.46777C169.653 9.46777 169.336 9.63867 168.984 9.98047C168.75 10.2051 168.569 10.4688 168.442 10.7715C168.325 11.0645 168.267 11.46 168.267 11.958ZM189.609 16.0156C189.609 16.875 189.736 17.4609 189.99 17.7734C190.244 18.0762 190.771 18.2666 191.572 18.3447C191.689 18.7256 191.709 19.0479 191.631 19.3115C189.932 19.5361 188.271 19.8633 186.65 20.293C186.211 20.293 185.981 20.127 185.962 19.7949C185.913 19.4141 185.864 18.9746 185.815 18.4766C184.907 18.9844 183.979 19.4141 183.032 19.7656C182.085 20.1172 181.348 20.293 180.82 20.293C178.262 20.293 176.982 18.6963 176.982 15.5029V10.8154C176.982 9.63379 176.836 8.87207 176.543 8.53027C176.26 8.17871 175.737 7.9834 174.976 7.94434C174.897 7.86621 174.858 7.69531 174.858 7.43164C174.858 7.16797 174.897 6.99707 174.976 6.91895C176.694 6.95801 178.013 6.97754 178.931 6.97754C179.351 6.97754 179.922 6.95801 180.645 6.91895C180.84 7.11426 180.942 7.45605 180.952 7.94434C180.952 8.02246 180.942 8.27148 180.923 8.69141C180.903 9.11133 180.894 9.81934 180.894 10.8154V15.8252C180.894 16.7822 181.06 17.3975 181.392 17.6709C181.733 17.9443 182.266 18.0811 182.988 18.0811C183.955 18.0811 184.873 17.8125 185.742 17.2754C185.732 17.1191 185.723 16.9678 185.713 16.8213C185.713 16.665 185.713 16.5186 185.713 16.3818V10.8154C185.713 9.61426 185.581 8.85742 185.317 8.54492C185.063 8.22266 184.526 8.02246 183.706 7.94434C183.608 7.86621 183.56 7.69531 183.56 7.43164C183.56 7.16797 183.608 6.99707 183.706 6.91895C185.425 6.95801 186.743 6.97754 187.661 6.97754C188.042 6.97754 188.613 6.95801 189.375 6.91895C189.57 7.11426 189.673 7.45605 189.683 7.94434C189.683 8.02246 189.668 8.27148 189.639 8.69141C189.619 9.11133 189.609 9.81934 189.609 10.8154V16.0156ZM204.902 17.3926C204.326 18.2324 203.564 18.9258 202.617 19.4727C201.68 20.0195 200.771 20.293 199.893 20.293C197.871 20.293 196.313 19.7754 195.22 18.7402C193.979 17.5781 193.359 15.9863 193.359 13.9648C193.359 11.8066 194.009 10.0537 195.308 8.70605C196.606 7.3584 198.174 6.68457 200.01 6.68457C201.533 6.68457 202.729 7.0166 203.599 7.68066C204.468 8.33496 204.902 9.04297 204.902 9.80469C204.902 10.2832 204.746 10.6836 204.434 11.0059C204.131 11.3184 203.735 11.4746 203.247 11.4746C202.769 11.4746 202.349 11.3428 201.987 11.0791C201.636 10.8057 201.44 10.4688 201.401 10.0684C201.343 9.49219 201.177 8.99414 200.903 8.57422C200.63 8.1543 200.244 7.94434 199.746 7.94434C198.086 7.94434 197.256 9.60449 197.256 12.9248C197.256 14.5068 197.661 15.7764 198.472 16.7334C199.282 17.6904 200.269 18.1689 201.431 18.1689C202.251 18.1689 203.281 17.5977 204.521 16.4551C204.775 16.4648 204.902 16.7773 204.902 17.3926ZM207.817 6.97754H208.652C208.652 4.95605 208.765 3.79883 208.989 3.50586C209.048 3.42773 209.165 3.34961 209.341 3.27148C209.526 3.19336 209.751 3.11523 210.015 3.03711C210.278 2.94922 210.464 2.88086 210.571 2.83203C210.806 2.73437 211.138 2.62207 211.567 2.49512C212.007 2.36816 212.28 2.30469 212.388 2.30469C212.544 2.30469 212.622 2.39258 212.622 2.56836C212.563 3.50586 212.51 4.63867 212.461 5.9668L212.432 6.97754H215.947C216.104 6.97754 216.182 7.03613 216.182 7.15332V8.09082C216.182 8.35449 215.942 8.48633 215.464 8.48633H212.432C212.432 9.60938 212.437 11.0791 212.446 12.8955C212.456 14.7119 212.461 15.8105 212.461 16.1914C212.461 16.8945 212.588 17.4072 212.842 17.7295C213.096 18.042 213.413 18.1982 213.794 18.1982C214.575 18.1982 215.142 18.0566 215.493 17.7734C215.854 18.0762 216.035 18.3594 216.035 18.623C215.713 19.0625 215.151 19.4531 214.351 19.7949C213.56 20.127 212.764 20.293 211.963 20.293C210.967 20.293 210.137 20.0146 209.473 19.458C208.877 18.9404 208.574 18.0713 208.564 16.8506C208.564 13.8916 208.594 11.1035 208.652 8.48633H206.704C206.606 8.48633 206.558 8.42285 206.558 8.2959V7.43164C206.899 7.12891 207.319 6.97754 207.817 6.97754ZM223.638 16.3379C223.638 17.5391 223.755 18.2764 223.989 18.5498C224.233 18.8135 224.839 18.9746 225.806 19.0332C225.884 19.1113 225.923 19.2822 225.923 19.5459C225.923 19.8096 225.884 19.9805 225.806 20.0586C224.087 20.0195 222.715 20 221.689 20C220.625 20 219.253 20.0195 217.573 20.0586C217.495 19.9805 217.456 19.8145 217.456 19.5605C217.456 19.2969 217.495 19.1211 217.573 19.0332C218.53 18.9551 219.131 18.7891 219.375 18.5352C219.619 18.2715 219.741 17.5391 219.741 16.3379V10.5811C219.741 9.74121 219.624 9.2041 219.39 8.96973C219.165 8.72559 218.633 8.56445 217.793 8.48633C217.676 8.10547 217.656 7.7832 217.734 7.51953C220.918 7.09961 222.695 6.82129 223.066 6.68457C223.525 6.68457 223.755 6.85547 223.755 7.19727C223.755 7.2168 223.755 7.25098 223.755 7.2998C223.755 7.33887 223.75 7.42676 223.74 7.56348C223.73 7.69043 223.721 7.82715 223.711 7.97363C223.701 8.11035 223.691 8.28125 223.682 8.48633C223.672 8.69141 223.662 8.8916 223.652 9.08691C223.652 9.27246 223.647 9.48242 223.638 9.7168C223.638 9.94141 223.638 10.1562 223.638 10.3613V16.3379ZM219.595 2.11426C219.595 1.61621 219.775 1.18164 220.137 0.810547C220.508 0.439453 221.025 0.253906 221.689 0.253906C222.266 0.253906 222.734 0.458984 223.096 0.869141C223.457 1.2793 223.638 1.73828 223.638 2.24609C223.638 2.68555 223.438 3.10547 223.037 3.50586C222.637 3.90625 222.129 4.10645 221.514 4.10645C220.938 4.10645 220.474 3.90625 220.122 3.50586C219.771 3.0957 219.595 2.63184 219.595 2.11426ZM234.141 7.94434C232.48 7.94434 231.65 9.67285 231.65 13.1299C231.65 14.5068 231.943 15.835 232.529 17.1143C233.125 18.3936 233.975 19.0332 235.078 19.0332C235.742 19.0332 236.323 18.6816 236.821 17.9785C237.319 17.2656 237.568 16.0986 237.568 14.4775C237.568 12.4365 237.256 10.8398 236.631 9.6875C236.006 8.52539 235.176 7.94434 234.141 7.94434ZM227.461 13.7891C227.461 11.7871 228.008 10.1562 229.102 8.89648C230.391 7.41211 232.231 6.6748 234.624 6.68457C236.802 6.68457 238.535 7.32422 239.824 8.60352C241.123 9.88281 241.772 11.5234 241.772 13.5254C241.772 15.6836 241.089 17.373 239.722 18.5938C238.442 19.7363 236.733 20.3027 234.595 20.293C232.554 20.293 230.854 19.6973 229.497 18.5059C228.14 17.3047 227.461 15.7324 227.461 13.7891ZM249.712 16.3379C249.712 17.5195 249.8 18.252 249.976 18.5352C250.161 18.8086 250.591 18.9746 251.265 19.0332C251.343 19.1113 251.382 19.2822 251.382 19.5459C251.392 19.8096 251.353 19.9805 251.265 20.0586C249.546 20.0195 248.379 20 247.764 20C246.699 20 245.327 20.0195 243.647 20.0586C243.569 19.9805 243.53 19.8145 243.53 19.5605C243.53 19.2969 243.569 19.1211 243.647 19.0332C244.604 18.9551 245.205 18.7891 245.449 18.5352C245.693 18.2715 245.815 17.5391 245.815 16.3379V10.7275C245.815 9.8877 245.698 9.35059 245.464 9.11621C245.239 8.87207 244.707 8.71094 243.867 8.63281C243.75 8.25195 243.726 7.92969 243.794 7.66602C245.493 7.44141 247.153 7.11426 248.774 6.68457C249.214 6.68457 249.448 6.85547 249.478 7.19727C249.565 7.79297 249.629 8.4375 249.668 9.13086C252.051 7.49023 253.716 6.6748 254.663 6.68457C257.319 6.68457 258.647 8.28125 258.647 11.4746V16.1621C258.647 17.3828 258.794 18.1592 259.087 18.4912C259.38 18.8135 260.005 18.9941 260.962 19.0332C261.06 19.1113 261.108 19.2822 261.108 19.5459C261.108 19.8096 261.06 19.9805 260.962 20.0586C259.243 20.0195 257.822 20 256.699 20C255.938 20 254.717 20.0195 253.037 20.0586C252.939 19.9805 252.891 19.8145 252.891 19.5605C252.891 19.2969 252.939 19.1211 253.037 19.0332C253.701 18.9941 254.15 18.8037 254.385 18.4619C254.629 18.1104 254.751 17.3438 254.751 16.1621V11.1523C254.751 9.64844 254.053 8.89648 252.656 8.89648C252.061 8.89648 251.079 9.36523 249.712 10.3027V10.3613V16.3379ZM7.79297 41.9443C6.13281 41.9443 5.30273 43.6729 5.30273 47.1299C5.30273 48.5068 5.5957 49.835 6.18164 51.1143C6.77734 52.3936 7.62695 53.0332 8.73047 53.0332C9.39453 53.0332 9.97559 52.6816 10.4736 51.9785C10.9717 51.2656 11.2207 50.0986 11.2207 48.4775C11.2207 46.4365 10.9082 44.8398 10.2832 43.6875C9.6582 42.5254 8.82812 41.9443 7.79297 41.9443ZM1.11328 47.7891C1.11328 45.7871 1.66016 44.1562 2.75391 42.8965C4.04297 41.4121 5.88379 40.6748 8.27637 40.6846C10.4541 40.6846 12.1875 41.3242 13.4766 42.6035C14.7754 43.8828 15.4248 45.5234 15.4248 47.5254C15.4248 49.6836 14.7412 51.373 13.374 52.5938C12.0947 53.7363 10.3857 54.3027 8.24707 54.293C6.20605 54.293 4.50684 53.6973 3.14941 52.5059C1.79199 51.3047 1.11328 49.7324 1.11328 47.7891ZM23.4229 50.1621C23.4229 51.3828 23.5645 52.1592 23.8477 52.4912C24.1406 52.8135 24.7705 52.9941 25.7373 53.0332C25.835 53.1113 25.8838 53.2822 25.8838 53.5459C25.8838 53.8096 25.835 53.9805 25.7373 54.0586C24.0186 54.0195 22.5977 54 21.4746 54C20.3125 54 18.8916 54.0195 17.2119 54.0586C17.1143 53.9805 17.0654 53.8145 17.0654 53.5605C17.0654 53.2969 17.1143 53.1211 17.2119 53.0332C18.1689 52.9941 18.7939 52.8135 19.0869 52.4912C19.3799 52.1592 19.5264 51.4023 19.5264 50.2207V42.4863H18.0176C17.4805 42.4863 17.2119 42.3838 17.2119 42.1787V41.373C17.2119 41.1094 17.9639 40.9775 19.4678 40.9775H19.5264V40.377C19.5264 39.0781 19.7168 38.0039 20.0977 37.1543C20.4785 36.3047 20.9961 35.5186 21.6504 34.7959C22.7344 33.6338 24.1455 33.0527 25.8838 33.0527C27.2998 33.0527 28.3398 33.2969 29.0039 33.7852C29.668 34.2637 30 34.7617 30 35.2793C30 35.8945 29.8438 36.3682 29.5312 36.7002C29.2188 37.0322 28.8037 37.1982 28.2861 37.1982C27.7686 37.1982 27.3193 37.042 26.9385 36.7295C26.5576 36.4072 26.2939 35.9922 26.1475 35.4844C26.0303 35.0449 25.9229 34.7422 25.8252 34.5762C25.7275 34.4102 25.5566 34.3271 25.3125 34.3271C25.1562 34.3271 25 34.3613 24.8438 34.4297C24.6973 34.498 24.5312 34.6396 24.3457 34.8545C24.1699 35.0596 24.0137 35.3428 23.877 35.7041C23.75 36.0654 23.6426 36.5684 23.5547 37.2129C23.4668 37.8477 23.4229 38.5947 23.4229 39.4541V40.9775H26.4551C26.8555 40.9775 27.0557 41.0801 27.0557 41.2852V41.9736C27.0557 42.3154 26.7041 42.4863 26.001 42.4863H23.4229V50.1621ZM37.1777 49.6201C37.6172 49.5225 38.0176 49.5029 38.3789 49.5615C38.6816 50.6455 39.1504 51.5146 39.7852 52.1689C40.4297 52.8135 41.1035 53.1357 41.8066 53.1357C42.2461 53.1357 42.6514 53.0039 43.0225 52.7402C43.3936 52.4766 43.5791 52.1152 43.5791 51.6562C43.5791 50.5527 43.0664 49.7764 42.041 49.3271C40.6836 48.7119 39.5264 47.8818 38.5693 46.8369C37.9541 46.1533 37.6416 45.4014 37.6318 44.5811C37.6318 43.7217 37.9736 42.9404 38.6572 42.2373C39.6729 41.2021 41.0205 40.6846 42.7002 40.6846C43.8428 40.6846 44.9658 40.9238 46.0693 41.4023C46.333 42.3203 46.46 43.3799 46.4502 44.5811C46.1865 44.7568 45.7959 44.8057 45.2783 44.7275C44.5166 42.8721 43.5791 41.9443 42.4658 41.9443C42.0459 41.9443 41.6992 42.0664 41.4258 42.3105C41.1523 42.5449 41.0156 42.8428 41.0156 43.2041C41.0156 44.3076 41.5576 45.084 42.6416 45.5332C44.1943 46.207 45.3564 46.9785 46.1279 47.8477C46.7432 48.5312 47.0508 49.3906 47.0508 50.4258C47.0508 51.6465 46.5088 52.5986 45.4248 53.2822C44.3506 53.9561 43.1641 54.293 41.8652 54.293C40.3418 54.293 38.9502 54.0732 37.6904 53.6338C37.4854 52.7939 37.3145 51.4561 37.1777 49.6201ZM51.5479 50.1914V37.0518C51.5479 36.0557 51.4453 35.4502 51.2402 35.2354C51.0449 35.0205 50.4688 34.874 49.5117 34.7959C49.3555 34.5127 49.3213 34.1953 49.4092 33.8438C51.8896 33.7461 53.7695 33.4824 55.0488 33.0527C55.3711 33.0527 55.5322 33.1846 55.5322 33.4482C55.4736 34.1904 55.4443 35.2109 55.4443 36.5098V46.5293C55.874 46.5293 56.3721 46.4365 56.9385 46.251C57.5146 46.0557 57.9053 45.8701 58.1104 45.6943C58.3154 45.5088 58.5205 45.3086 58.7256 45.0938C58.9404 44.8789 59.1553 44.6396 59.3701 44.376C59.5947 44.1123 59.8145 43.8291 60.0293 43.5264C60.4297 42.9307 60.5322 42.5352 60.3369 42.3398C60.1514 42.1348 59.6387 42.0029 58.7988 41.9443C58.7207 41.8662 58.6816 41.6953 58.6816 41.4316C58.6816 41.168 58.7207 40.9971 58.7988 40.9189C60.2832 40.958 61.4941 40.9775 62.4316 40.9775C63.7695 40.9775 64.8828 40.958 65.7715 40.9189C65.8496 40.9971 65.8887 41.168 65.8887 41.4316C65.8887 41.6953 65.8496 41.8662 65.7715 41.9443C65.4004 41.9834 65.0635 42.0371 64.7607 42.1055C64.458 42.1738 64.165 42.291 63.8818 42.457C63.6084 42.6133 63.4033 42.7256 63.2666 42.7939C63.1299 42.8525 62.9248 43.0186 62.6514 43.292C62.3877 43.5654 62.2363 43.7168 62.1973 43.7461C62.168 43.7754 62.002 43.9561 61.6992 44.2881L60.2197 45.9287C60.1025 46.0654 60.1318 46.2656 60.3076 46.5293L63.7793 51.6562C63.877 51.793 63.9697 51.9248 64.0576 52.0518C64.1553 52.1689 64.2578 52.2764 64.3652 52.374C64.4824 52.4619 64.5752 52.5352 64.6436 52.5938C64.7119 52.6523 64.8047 52.7061 64.9219 52.7549C65.0391 52.8037 65.127 52.8379 65.1855 52.8574C65.2539 52.877 65.3613 52.9014 65.5078 52.9307C65.6641 52.96 65.7617 52.9746 65.8008 52.9746C65.8398 52.9746 65.9521 52.9844 66.1377 53.0039C66.333 53.0234 66.46 53.0332 66.5186 53.0332C66.6162 53.1113 66.665 53.2822 66.665 53.5459C66.665 53.8096 66.6162 53.9805 66.5186 54.0586C65.0342 54.0195 63.6914 54 62.4902 54L60.0879 54.0586L60.0293 54V53.2236C60.0293 52.8623 59.873 52.3398 59.5605 51.6562C59.2188 50.9336 58.5352 49.8154 57.5098 48.3018C57.2461 47.9209 56.5576 47.7305 55.4443 47.7305V50.1914C55.4443 51.3535 55.5469 52.1055 55.752 52.4473C55.9668 52.7793 56.333 52.9746 56.8506 53.0332C56.9482 53.1113 56.9971 53.2822 56.9971 53.5459C57.0068 53.8096 56.958 53.9805 56.8506 54.0586C55.8936 54.0195 54.7754 54 53.4961 54C52.334 54 50.9131 54.0195 49.2334 54.0586C49.1357 53.9805 49.0869 53.8145 49.0869 53.5605C49.0869 53.2969 49.1357 53.1211 49.2334 53.0332C50.1904 52.9941 50.8154 52.8135 51.1084 52.4912C51.4014 52.1592 51.5479 51.3926 51.5479 50.1914ZM71.8945 45.7529H75.9814C76.0205 45.7139 76.04 45.5039 76.04 45.123C76.04 44.0391 75.8447 43.2383 75.4541 42.7207C75.0635 42.2031 74.6191 41.9443 74.1211 41.9443C73.8965 41.9443 73.623 42.0371 73.3008 42.2227C72.9883 42.3984 72.7197 42.6426 72.4951 42.9551C72.1338 43.502 71.9336 44.4346 71.8945 45.7529ZM79.5117 50.1328C79.8145 50.1328 79.9658 50.4404 79.9658 51.0557C78.4814 53.2139 76.6113 54.293 74.3555 54.293C72.3926 54.293 70.8643 53.7949 69.7705 52.7988C68.4912 51.6367 67.8516 50.0547 67.8516 48.0527C67.8516 45.875 68.5254 44.1025 69.873 42.7354C71.2207 41.3682 72.7441 40.6846 74.4434 40.6846C75.5078 40.6846 76.4062 40.8408 77.1387 41.1533C77.8809 41.4561 78.4375 41.8809 78.8086 42.4277C79.1797 42.9648 79.4434 43.5264 79.5996 44.1123C79.7656 44.6885 79.8486 45.3232 79.8486 46.0166C79.8486 46.6318 79.5605 46.9443 78.9844 46.9541H71.7773C71.7773 46.9932 71.7725 47.0615 71.7627 47.1592C71.7529 47.2568 71.748 47.3447 71.748 47.4229C71.748 48.8584 72.0752 49.9326 72.7295 50.6455C73.3936 51.3584 74.3262 51.7148 75.5273 51.7148C77.1484 51.7246 78.4766 51.1973 79.5117 50.1328ZM84.2725 50.1914V37.0518C84.2725 36.0557 84.1699 35.4502 83.9648 35.2354C83.7695 35.0205 83.1934 34.874 82.2363 34.7959C82.0801 34.5127 82.0459 34.1953 82.1338 33.8438C84.6143 33.7461 86.4941 33.4824 87.7734 33.0527C88.0957 33.0527 88.2568 33.1846 88.2568 33.4482C88.1982 34.1904 88.1689 35.2109 88.1689 36.5098V50.1914C88.1689 51.3926 88.3105 52.1592 88.5938 52.4912C88.8867 52.8135 89.5166 52.9941 90.4834 53.0332C90.5811 53.1113 90.6299 53.2822 90.6299 53.5459C90.6299 53.8096 90.5811 53.9805 90.4834 54.0586C88.7646 54.0195 87.3438 54 86.2207 54C85.0586 54 83.6377 54.0195 81.958 54.0586C81.8604 53.9805 81.8115 53.8145 81.8115 53.5605C81.8115 53.2969 81.8604 53.1211 81.958 53.0332C82.915 52.9941 83.54 52.8135 83.833 52.4912C84.126 52.1592 84.2725 51.3926 84.2725 50.1914ZM96.1816 45.7529H100.269C100.308 45.7139 100.327 45.5039 100.327 45.123C100.327 44.0391 100.132 43.2383 99.7412 42.7207C99.3506 42.2031 98.9062 41.9443 98.4082 41.9443C98.1836 41.9443 97.9102 42.0371 97.5879 42.2227C97.2754 42.3984 97.0068 42.6426 96.7822 42.9551C96.4209 43.502 96.2207 44.4346 96.1816 45.7529ZM103.799 50.1328C104.102 50.1328 104.253 50.4404 104.253 51.0557C102.769 53.2139 100.898 54.293 98.6426 54.293C96.6797 54.293 95.1514 53.7949 94.0576 52.7988C92.7783 51.6367 92.1387 50.0547 92.1387 48.0527C92.1387 45.875 92.8125 44.1025 94.1602 42.7354C95.5078 41.3682 97.0312 40.6846 98.7305 40.6846C99.7949 40.6846 100.693 40.8408 101.426 41.1533C102.168 41.4561 102.725 41.8809 103.096 42.4277C103.467 42.9648 103.73 43.5264 103.887 44.1123C104.053 44.6885 104.136 45.3232 104.136 46.0166C104.136 46.6318 103.848 46.9443 103.271 46.9541H96.0645C96.0645 46.9932 96.0596 47.0615 96.0498 47.1592C96.04 47.2568 96.0352 47.3447 96.0352 47.4229C96.0352 48.8584 96.3623 49.9326 97.0166 50.6455C97.6807 51.3584 98.6133 51.7148 99.8145 51.7148C101.436 51.7246 102.764 51.1973 103.799 50.1328ZM107.446 40.9775H108.281C108.281 38.9561 108.394 37.7988 108.618 37.5059C108.677 37.4277 108.794 37.3496 108.97 37.2715C109.155 37.1934 109.38 37.1152 109.644 37.0371C109.907 36.9492 110.093 36.8809 110.2 36.832C110.435 36.7344 110.767 36.6221 111.196 36.4951C111.636 36.3682 111.909 36.3047 112.017 36.3047C112.173 36.3047 112.251 36.3926 112.251 36.5684C112.192 37.5059 112.139 38.6387 112.09 39.9668L112.061 40.9775H115.576C115.732 40.9775 115.811 41.0361 115.811 41.1533V42.0908C115.811 42.3545 115.571 42.4863 115.093 42.4863H112.061C112.061 43.6094 112.065 45.0791 112.075 46.8955C112.085 48.7119 112.09 49.8105 112.09 50.1914C112.09 50.8945 112.217 51.4072 112.471 51.7295C112.725 52.042 113.042 52.1982 113.423 52.1982C114.204 52.1982 114.771 52.0566 115.122 51.7734C115.483 52.0762 115.664 52.3594 115.664 52.623C115.342 53.0625 114.78 53.4531 113.979 53.7949C113.188 54.127 112.393 54.293 111.592 54.293C110.596 54.293 109.766 54.0146 109.102 53.458C108.506 52.9404 108.203 52.0713 108.193 50.8506C108.193 47.8916 108.223 45.1035 108.281 42.4863H106.333C106.235 42.4863 106.187 42.4229 106.187 42.2959V41.4316C106.528 41.1289 106.948 40.9775 107.446 40.9775ZM124.102 41.9443C122.441 41.9443 121.611 43.6729 121.611 47.1299C121.611 48.5068 121.904 49.835 122.49 51.1143C123.086 52.3936 123.936 53.0332 125.039 53.0332C125.703 53.0332 126.284 52.6816 126.782 51.9785C127.28 51.2656 127.529 50.0986 127.529 48.4775C127.529 46.4365 127.217 44.8398 126.592 43.6875C125.967 42.5254 125.137 41.9443 124.102 41.9443ZM117.422 47.7891C117.422 45.7871 117.969 44.1562 119.062 42.8965C120.352 41.4121 122.192 40.6748 124.585 40.6846C126.763 40.6846 128.496 41.3242 129.785 42.6035C131.084 43.8828 131.733 45.5234 131.733 47.5254C131.733 49.6836 131.05 51.373 129.683 52.5938C128.403 53.7363 126.694 54.3027 124.556 54.293C122.515 54.293 120.815 53.6973 119.458 52.5059C118.101 51.3047 117.422 49.7324 117.422 47.7891ZM139.673 50.3379C139.673 51.5195 139.761 52.252 139.937 52.5352C140.122 52.8086 140.552 52.9746 141.226 53.0332C141.304 53.1113 141.343 53.2822 141.343 53.5459C141.353 53.8096 141.313 53.9805 141.226 54.0586C139.507 54.0195 138.34 54 137.725 54C136.66 54 135.288 54.0195 133.608 54.0586C133.53 53.9805 133.491 53.8145 133.491 53.5605C133.491 53.2969 133.53 53.1211 133.608 53.0332C134.565 52.9551 135.166 52.7891 135.41 52.5352C135.654 52.2715 135.776 51.5391 135.776 50.3379V44.7275C135.776 43.8877 135.659 43.3506 135.425 43.1162C135.2 42.8721 134.668 42.7109 133.828 42.6328C133.711 42.252 133.687 41.9297 133.755 41.666C135.454 41.4414 137.114 41.1143 138.735 40.6846C139.175 40.6846 139.409 40.8555 139.438 41.1973C139.526 41.793 139.59 42.4375 139.629 43.1309C142.012 41.4902 143.677 40.6748 144.624 40.6846C147.28 40.6846 148.608 42.2812 148.608 45.4746V50.1621C148.608 51.3828 148.755 52.1592 149.048 52.4912C149.341 52.8135 149.966 52.9941 150.923 53.0332C151.021 53.1113 151.069 53.2822 151.069 53.5459C151.069 53.8096 151.021 53.9805 150.923 54.0586C149.204 54.0195 147.783 54 146.66 54C145.898 54 144.678 54.0195 142.998 54.0586C142.9 53.9805 142.852 53.8145 142.852 53.5605C142.852 53.2969 142.9 53.1211 142.998 53.0332C143.662 52.9941 144.111 52.8037 144.346 52.4619C144.59 52.1104 144.712 51.3438 144.712 50.1621V45.1523C144.712 43.6484 144.014 42.8965 142.617 42.8965C142.021 42.8965 141.04 43.3652 139.673 44.3027V44.3613V50.3379ZM152.754 49.6201C153.193 49.5225 153.594 49.5029 153.955 49.5615C154.258 50.6455 154.727 51.5146 155.361 52.1689C156.006 52.8135 156.68 53.1357 157.383 53.1357C157.822 53.1357 158.228 53.0039 158.599 52.7402C158.97 52.4766 159.155 52.1152 159.155 51.6562C159.155 50.5527 158.643 49.7764 157.617 49.3271C156.26 48.7119 155.103 47.8818 154.146 46.8369C153.53 46.1533 153.218 45.4014 153.208 44.5811C153.208 43.7217 153.55 42.9404 154.233 42.2373C155.249 41.2021 156.597 40.6846 158.276 40.6846C159.419 40.6846 160.542 40.9238 161.646 41.4023C161.909 42.3203 162.036 43.3799 162.026 44.5811C161.763 44.7568 161.372 44.8057 160.854 44.7275C160.093 42.8721 159.155 41.9443 158.042 41.9443C157.622 41.9443 157.275 42.0664 157.002 42.3105C156.729 42.5449 156.592 42.8428 156.592 43.2041C156.592 44.3076 157.134 45.084 158.218 45.5332C159.771 46.207 160.933 46.9785 161.704 47.8477C162.319 48.5312 162.627 49.3906 162.627 50.4258C162.627 51.6465 162.085 52.5986 161.001 53.2822C159.927 53.9561 158.74 54.293 157.441 54.293C155.918 54.293 154.526 54.0732 153.267 53.6338C153.062 52.7939 152.891 51.4561 152.754 49.6201Z" fill="black"/>
</svg>
