<svg width="244" height="55" viewBox="0 0 244 55" fill="none" xmlns="http://www.w3.org/2000/svg">
<path d="M8.12988 5.20508C6.77246 7.04102 4.96094 9.78027 2.69531 13.4229H8.12988V5.20508ZM14.0039 13.4229C14.3066 13.4229 14.458 13.584 14.458 13.9062C14.458 14.1016 14.3604 14.3213 14.165 14.5654C13.9795 14.8096 13.7891 14.9316 13.5938 14.9316H11.2207V17.5684C11.2207 17.8906 11.2451 18.1494 11.2939 18.3447C11.3428 18.5303 11.4697 18.667 11.6748 18.7549C11.8896 18.8428 12.0557 18.8965 12.1729 18.916C12.2998 18.9355 12.583 18.9697 13.0225 19.0186C13.1592 19.0381 13.2568 19.043 13.3154 19.0332C13.3936 19.1113 13.4326 19.2822 13.4326 19.5459C13.4424 19.8096 13.4033 19.9805 13.3154 20.0586C12.0361 20.0195 10.6787 20 9.24316 20C8.15918 20 6.97754 20.0195 5.69824 20.0586C5.62012 19.9805 5.58105 19.8145 5.58105 19.5605C5.58105 19.2969 5.62012 19.1211 5.69824 19.0332C6.77246 18.9551 7.44141 18.8135 7.70508 18.6084C7.98828 18.3838 8.12988 18.0371 8.12988 17.5684V14.9316H2.00684C1.41113 14.9316 1.02051 14.4824 0.834961 13.584C3.93066 8.7207 6.64062 4.86816 8.96484 2.02637C9.14062 1.80176 9.30176 1.69434 9.44824 1.7041H11.2207L11.2793 1.7627C11.2402 1.93848 11.2207 2.90527 11.2207 4.66309V13.4229H14.0039ZM17.1826 19.8242C16.8506 19.502 16.6846 19.1113 16.6846 18.6523C16.6846 18.1934 16.8506 17.7979 17.1826 17.4658C17.5146 17.1338 17.9102 16.9678 18.3691 16.9678C18.8281 16.9678 19.2236 17.1338 19.5557 17.4658C19.8877 17.7979 20.0537 18.1934 20.0537 18.6523C20.0537 19.1113 19.8877 19.502 19.5557 19.8242C19.2236 20.1367 18.8281 20.293 18.3691 20.293C17.9102 20.293 17.5146 20.1367 17.1826 19.8242ZM28.2422 17.5684V7.09473C28.2422 6.61621 28.2227 6.25977 28.1836 6.02539C28.1445 5.78125 28.0859 5.63477 28.0078 5.58594C27.9395 5.53711 27.8467 5.5127 27.7295 5.5127C27.5342 5.5127 27.0947 5.62988 26.4111 5.86426C25.7275 6.08887 25.0781 6.3623 24.4629 6.68457L23.9209 5.68848C24.7803 5.26855 25.9473 4.61426 27.4219 3.72559C28.9062 2.83691 29.7607 2.33398 29.9854 2.2168C30.5615 1.875 30.9766 1.7041 31.2305 1.7041C31.4941 1.7041 31.626 1.875 31.626 2.2168C31.5674 3.47656 31.5381 4.63379 31.5381 5.68848V17.5684C31.5381 17.7051 31.5479 17.832 31.5674 17.9492C31.5869 18.0566 31.6113 18.1543 31.6406 18.2422C31.6699 18.3301 31.7188 18.4131 31.7871 18.4912C31.8652 18.5596 31.9238 18.6182 31.9629 18.667C32.002 18.7158 32.0801 18.7598 32.1973 18.7988C32.3242 18.8379 32.4121 18.8672 32.4609 18.8867C32.5098 18.9062 32.6172 18.9258 32.7832 18.9453C32.959 18.9648 33.0762 18.9746 33.1348 18.9746C33.1934 18.9746 33.3203 18.9844 33.5156 19.0039C33.7207 19.0234 33.8623 19.0332 33.9404 19.0332C34.0381 19.1113 34.0869 19.2822 34.0869 19.5459C34.0869 19.8096 34.0381 19.9805 33.9404 20.0586C32.6611 20.0195 31.3232 20 29.9268 20C28.0713 20 26.499 20.0195 25.21 20.0586C25.1318 19.9805 25.0928 19.8145 25.0928 19.5605C25.0928 19.2969 25.1318 19.1211 25.21 19.0332C26.499 18.9453 27.3193 18.7939 27.6709 18.5791C28.0518 18.3545 28.2422 18.0176 28.2422 17.5684ZM39.2139 19.8242C38.8818 19.502 38.7158 19.1113 38.7158 18.6523C38.7158 18.1934 38.8818 17.7979 39.2139 17.4658C39.5459 17.1338 39.9414 16.9678 40.4004 16.9678C40.8594 16.9678 41.2549 17.1338 41.5869 17.4658C41.9189 17.7979 42.085 18.1934 42.085 18.6523C42.085 19.1113 41.9189 19.502 41.5869 19.8242C41.2549 20.1367 40.8594 20.293 40.4004 20.293C39.9414 20.293 39.5459 20.1367 39.2139 19.8242Z" fill="#C92B1D"/>
<path d="M63.9258 5.9668C63.9258 4.55078 63.6133 3.47168 62.9883 2.72949C62.373 1.9873 61.582 1.61621 60.6152 1.61621C59.7559 1.61621 58.9502 1.69434 58.1982 1.85059V10.3467H59.6631C61.1279 10.3467 62.2021 9.99512 62.8857 9.29199C63.5791 8.5791 63.9258 7.4707 63.9258 5.9668ZM67.5293 5.54199C67.5293 6.97754 67.2412 8.12012 66.665 8.96973C66.0986 9.81934 65.2441 10.5566 64.1016 11.1816L67.1924 17.0557C67.8564 18.374 68.7842 18.9551 69.9756 18.7988L70.1074 19.8535C69.4043 20.0781 68.584 20.1855 67.6465 20.1758C65.9863 20.1758 64.6826 19.3262 63.7354 17.627L61.04 12.5879C60.8447 12.2266 60.5322 11.9922 60.1025 11.8848C59.6729 11.7773 59.0381 11.7236 58.1982 11.7236V17.6855C58.1982 18.1445 58.3203 18.4814 58.5645 18.6963C58.8184 18.9014 59.2432 19.0039 59.8389 19.0039H60.2637C60.4199 19.0039 60.498 19.0967 60.498 19.2822V19.9707L60.4395 20.0293C58.9551 19.9902 57.8271 19.9707 57.0557 19.9707L52.2803 20.0293L52.2217 19.9707V19.2822C52.2217 19.1064 52.2998 19.0137 52.4561 19.0039H52.8809C53.9844 19.0039 54.5361 18.5645 54.5361 17.6855V3.22754C54.5361 2.76855 54.4727 2.43164 54.3457 2.2168C54.2285 1.99219 53.9893 1.87988 53.6279 1.87988H53.4229L52.5293 1.96777C52.373 1.96777 52.29 1.89941 52.2803 1.7627V0.737305C52.6221 0.65918 53.6523 0.581055 55.3711 0.50293C57.0898 0.424805 58.7891 0.385742 60.4688 0.385742C62.4512 0.385742 64.1211 0.81543 65.4785 1.6748C66.8457 2.53418 67.5293 3.82324 67.5293 5.54199ZM74.458 11.4453H79.2627C79.3018 11.4062 79.3213 11.2988 79.3213 11.123C79.3213 10.0391 79.1064 9.23828 78.6768 8.7207C78.2471 8.20312 77.7832 7.94434 77.2852 7.94434C77.0898 7.94434 76.8701 7.98828 76.626 8.07617C76.3818 8.16406 76.1084 8.32031 75.8057 8.54492C75.5127 8.75977 75.2393 9.11621 74.9854 9.61426C74.7314 10.1123 74.5557 10.7227 74.458 11.4453ZM81.7529 16.7334L82.5 17.3633C81.543 19.3262 79.7852 20.3027 77.2266 20.293C75.0879 20.293 73.4912 19.707 72.4365 18.5352C71.3916 17.3535 70.8691 15.8594 70.8691 14.0527C70.8691 11.875 71.5234 10.1025 72.832 8.73535C74.1406 7.36816 75.6348 6.68457 77.3145 6.68457C79.3164 6.68457 80.7275 7.19727 81.5479 8.22266C82.3682 9.23828 82.7783 10.5029 82.7783 12.0166C82.7783 12.4365 82.3877 12.6465 81.6064 12.6465H74.3115V13.4229C74.3115 14.9072 74.7021 16.1475 75.4834 17.1436C76.2646 18.1299 77.2363 18.623 78.3984 18.623C79.5996 18.623 80.7178 17.9932 81.7529 16.7334ZM96.0498 17.3926C95.0928 19.3359 93.5254 20.3027 91.3477 20.293C89.2676 20.293 87.6855 19.7412 86.6016 18.6377C85.5273 17.5244 84.9902 15.9668 84.9902 13.9648C84.9902 11.8652 85.6201 10.127 86.8799 8.75C88.1396 7.37305 89.668 6.68457 91.4648 6.68457C93.0078 6.68457 94.1846 6.9873 94.9951 7.59277C95.8057 8.18848 96.2109 8.92578 96.2109 9.80469C96.2109 10.2832 96.0742 10.6836 95.8008 11.0059C95.5273 11.3184 95.1611 11.4746 94.7021 11.4746C94.2236 11.4746 93.8281 11.3477 93.5156 11.0938C93.2129 10.8301 93.042 10.4883 93.0029 10.0684C92.8662 8.65234 92.3145 7.94434 91.3477 7.94434C90.5273 7.94434 89.8291 8.41797 89.2529 9.36523C88.6865 10.3125 88.4033 11.5967 88.4033 13.2178C88.4033 14.7998 88.7695 16.123 89.502 17.1875C90.2344 18.2422 91.1084 18.7695 92.124 18.7695C93.1885 18.7695 94.3018 18.1201 95.4639 16.8213L96.0498 17.3926ZM104.414 7.91504C103.516 7.91504 102.817 8.4375 102.319 9.48242C101.831 10.5176 101.587 11.7334 101.587 13.1299C101.587 13.9502 101.709 14.79 101.953 15.6494C102.197 16.5088 102.603 17.2852 103.169 17.9785C103.735 18.6621 104.399 19.0039 105.161 19.0039C105.864 19.0039 106.484 18.6768 107.021 18.0225C107.559 17.3584 107.827 16.1768 107.827 14.4775C107.827 12.3779 107.515 10.7617 106.89 9.62891C106.274 8.48633 105.449 7.91504 104.414 7.91504ZM97.9395 13.7891C97.9395 11.6699 98.5352 9.95605 99.7266 8.64746C100.928 7.33887 102.588 6.68457 104.707 6.68457C105.869 6.68457 106.904 6.88965 107.812 7.2998C108.73 7.70996 109.443 8.25684 109.951 8.94043C110.459 9.61426 110.835 10.3418 111.079 11.123C111.333 11.9043 111.46 12.7051 111.46 13.5254C111.46 14.3066 111.318 15.0879 111.035 15.8691C110.762 16.6406 110.356 17.3633 109.819 18.0371C109.292 18.7012 108.584 19.2432 107.695 19.6631C106.807 20.083 105.801 20.293 104.678 20.293C102.598 20.293 100.952 19.6289 99.7412 18.3008C98.54 16.9727 97.9395 15.4688 97.9395 13.7891ZM118.711 8.57422C120.352 7.31445 121.86 6.68457 123.237 6.68457C124.722 6.68457 125.703 7.09473 126.182 7.91504C126.66 8.73535 126.899 9.93164 126.899 11.5039V17.7148C126.899 18.0957 127.007 18.3691 127.222 18.5352C127.446 18.6914 127.827 18.8379 128.364 18.9746L128.613 19.0332C128.77 19.0723 128.848 19.165 128.848 19.3115V20L128.789 20.0586C127.188 20.0195 125.996 20 125.215 20L121.86 20.0586L121.802 20V19.3115C121.802 19.1748 121.88 19.082 122.036 19.0332L122.168 19.0039C122.686 18.8672 123.052 18.7207 123.267 18.5645C123.491 18.3984 123.604 18.1152 123.604 17.7148V11.2988C123.604 10.2148 123.521 9.45312 123.354 9.01367C123.198 8.57422 122.861 8.35449 122.344 8.35449C121.426 8.35449 120.215 8.82812 118.711 9.77539V17.7148C118.711 18.0957 118.823 18.3789 119.048 18.5645C119.282 18.7402 119.648 18.8867 120.146 19.0039L120.264 19.0332C120.42 19.0723 120.503 19.165 120.513 19.3115V20L120.454 20.0586C118.931 20.0195 117.778 20 116.997 20L113.525 20.0586L113.467 20V19.3115C113.467 19.1748 113.545 19.082 113.701 19.0332L113.965 18.9746C114.502 18.8574 114.878 18.7207 115.093 18.5645C115.308 18.3984 115.415 18.1152 115.415 17.7148V10.376C115.415 9.67285 115.361 9.21387 115.254 8.99902C115.156 8.77441 114.99 8.65234 114.756 8.63281L113.525 8.51562L113.467 7.49023C115.908 7.16797 117.588 6.87012 118.506 6.59668C118.643 6.59668 118.711 6.62598 118.711 6.68457L118.652 8.57422H118.711ZM130.488 15.6201L131.689 15.5615C131.973 16.8994 132.358 17.832 132.847 18.3594C133.335 18.877 134.126 19.1357 135.22 19.1357C135.679 19.1357 136.089 18.9697 136.45 18.6377C136.812 18.3057 136.992 17.8174 136.992 17.1729C136.992 16.5576 136.86 16.084 136.597 15.752C136.343 15.4199 135.815 15.1172 135.015 14.8438C134.019 14.4824 133.076 13.9111 132.188 13.1299C131.309 12.3486 130.869 11.4307 130.869 10.376C130.869 9.34082 131.309 8.4668 132.188 7.75391C133.076 7.04102 134.199 6.68457 135.557 6.68457C136.973 6.68457 138.252 6.96289 139.395 7.51953C139.531 8.51562 139.644 9.53613 139.731 10.5811L138.56 10.7275C138.276 9.71191 137.896 8.99414 137.417 8.57422C136.938 8.1543 136.348 7.94434 135.645 7.94434C135.186 7.94434 134.79 8.09082 134.458 8.38379C134.126 8.66699 133.96 9.08691 133.96 9.64355C133.96 10.708 134.512 11.4404 135.615 11.8408C137.08 12.3779 138.232 13.0078 139.072 13.7305C139.912 14.4531 140.332 15.3516 140.332 16.4258C140.332 17.7246 139.805 18.6963 138.75 19.3408C137.695 19.9756 136.489 20.293 135.132 20.293C134.673 20.293 133.979 20.2295 133.052 20.1025C132.124 19.9756 131.387 19.9219 130.84 19.9414C130.85 18.8379 130.732 17.3975 130.488 15.6201ZM147.393 8.38379V15.957C147.393 17.4219 147.651 18.1494 148.169 18.1396C148.911 18.1396 149.59 17.8906 150.205 17.3926L150.894 18.0811C149.771 19.5654 148.359 20.3027 146.66 20.293C144.941 20.293 144.082 19.2773 144.082 17.2461V8.38379H142.559C142.197 8.38379 142.017 8.30566 142.017 8.14941V7.22656C142.017 7.07031 142.397 6.9873 143.159 6.97754C143.862 6.97754 144.336 6.66504 144.58 6.04004C144.834 5.40527 144.961 4.41895 144.961 3.08105L147.393 2.14355V6.97754H150.234C150.674 6.97754 150.894 7.08008 150.894 7.28516V7.88574C150.894 8.22754 150.522 8.39355 149.78 8.38379H147.393ZM157.559 8.57422C158.779 7.31445 160.059 6.68457 161.396 6.68457C161.914 6.68457 162.334 6.86035 162.656 7.21191C162.979 7.55371 163.14 7.93457 163.14 8.35449C163.14 8.83301 162.998 9.23828 162.715 9.57031C162.441 9.90234 162.08 10.0684 161.631 10.0684C161.367 10.0684 161.113 10.0098 160.869 9.89258C160.635 9.76562 160.444 9.62891 160.298 9.48242C160.151 9.32617 160 9.18457 159.844 9.05762C159.688 8.93066 159.551 8.86719 159.434 8.86719C159.072 8.86719 158.706 8.99902 158.335 9.2627C157.817 9.62402 157.559 10.3223 157.559 11.3574V17.6855C157.559 17.9492 157.617 18.1689 157.734 18.3447C157.861 18.5107 158.018 18.6377 158.203 18.7256C158.389 18.8135 158.652 18.8965 158.994 18.9746L159.243 19.0332C159.399 19.0723 159.478 19.165 159.478 19.3115V20L159.419 20.0586C157.817 20.0195 156.626 20 155.845 20L152.373 20.0586L152.314 20V19.3115C152.314 19.1553 152.383 19.0625 152.52 19.0332L152.812 18.9746C153.311 18.877 153.677 18.7354 153.911 18.5498C154.146 18.3545 154.263 18.0664 154.263 17.6855V10.376C154.263 9.67285 154.209 9.21387 154.102 8.99902C154.004 8.77441 153.838 8.65234 153.604 8.63281L152.373 8.51562L152.314 7.49023C154.756 7.16797 156.436 6.87012 157.354 6.59668C157.49 6.59668 157.559 6.62598 157.559 6.68457L157.5 8.57422H157.559ZM177.305 16.543C177.305 17.0605 177.437 17.4609 177.7 17.7441C177.974 18.0273 178.481 18.1885 179.224 18.2275L179.253 19.165C177.397 19.4092 175.991 19.8096 175.034 20.3662H174.009L174.097 18.9453C172.681 19.8438 171.392 20.293 170.229 20.293C168.647 20.293 167.554 19.917 166.948 19.165C166.353 18.4033 166.055 17.4023 166.055 16.1621V9.43848C166.055 8.95996 165.996 8.6084 165.879 8.38379C165.762 8.14941 165.532 8.02246 165.19 8.00293L164.253 7.94434L164.165 7.88574V6.97754L164.312 6.91895C165.894 6.95801 167.007 6.97754 167.651 6.97754L169.395 6.91895C169.375 7.81738 169.36 8.6377 169.351 9.37988V15.7373C169.351 16.8604 169.517 17.6514 169.849 18.1104C170.181 18.5693 170.557 18.7988 170.977 18.7988C172.139 18.7988 173.149 18.4277 174.009 17.6855V9.43848C174.009 8.48145 173.73 8.00293 173.174 8.00293L172.236 7.94434L172.119 7.88574V6.97754L172.236 6.91895C173.916 6.95801 175.024 6.97754 175.562 6.97754L177.363 6.91895C177.324 7.75879 177.305 8.5791 177.305 9.37988V16.543ZM192.114 17.3926C191.157 19.3359 189.59 20.3027 187.412 20.293C185.332 20.293 183.75 19.7412 182.666 18.6377C181.592 17.5244 181.055 15.9668 181.055 13.9648C181.055 11.8652 181.685 10.127 182.944 8.75C184.204 7.37305 185.732 6.68457 187.529 6.68457C189.072 6.68457 190.249 6.9873 191.06 7.59277C191.87 8.18848 192.275 8.92578 192.275 9.80469C192.275 10.2832 192.139 10.6836 191.865 11.0059C191.592 11.3184 191.226 11.4746 190.767 11.4746C190.288 11.4746 189.893 11.3477 189.58 11.0938C189.277 10.8301 189.106 10.4883 189.067 10.0684C188.931 8.65234 188.379 7.94434 187.412 7.94434C186.592 7.94434 185.894 8.41797 185.317 9.36523C184.751 10.3125 184.468 11.5967 184.468 13.2178C184.468 14.7998 184.834 16.123 185.566 17.1875C186.299 18.2422 187.173 18.7695 188.188 18.7695C189.253 18.7695 190.366 18.1201 191.528 16.8213L192.114 17.3926ZM198.955 8.38379V15.957C198.955 17.4219 199.214 18.1494 199.731 18.1396C200.474 18.1396 201.152 17.8906 201.768 17.3926L202.456 18.0811C201.333 19.5654 199.922 20.3027 198.223 20.293C196.504 20.293 195.645 19.2773 195.645 17.2461V8.38379H194.121C193.76 8.38379 193.579 8.30566 193.579 8.14941V7.22656C193.579 7.07031 193.96 6.9873 194.722 6.97754C195.425 6.97754 195.898 6.66504 196.143 6.04004C196.396 5.40527 196.523 4.41895 196.523 3.08105L198.955 2.14355V6.97754H201.797C202.236 6.97754 202.456 7.08008 202.456 7.28516V7.88574C202.456 8.22754 202.085 8.39355 201.343 8.38379H198.955ZM209.238 10.3613V17.6855C209.238 18.0859 209.351 18.3789 209.575 18.5645C209.81 18.7402 210.166 18.877 210.645 18.9746L210.952 19.0332C211.108 19.0723 211.187 19.165 211.187 19.3115V20L211.128 20.0586C209.507 20.0195 208.306 20 207.524 20L204.023 20.0586L203.965 20V19.3115C203.965 19.1553 204.033 19.0625 204.17 19.0332L204.536 18.9746C205.034 18.8965 205.391 18.7646 205.605 18.5791C205.83 18.3838 205.942 18.0859 205.942 17.6855V10.376C205.942 9.67285 205.884 9.19434 205.767 8.94043C205.659 8.67676 205.498 8.53516 205.283 8.51562L204.053 8.38379L203.994 7.49023C206.67 7.12891 208.379 6.83105 209.121 6.59668C209.258 6.59668 209.326 6.62598 209.326 6.68457C209.316 6.85059 209.307 7.06543 209.297 7.3291C209.297 7.59277 209.287 8.05176 209.268 8.70605C209.248 9.36035 209.238 9.91211 209.238 10.3613ZM206.279 4.15039C205.938 3.79883 205.767 3.37402 205.767 2.87598C205.767 2.36816 205.938 1.94336 206.279 1.60156C206.631 1.25 207.056 1.07422 207.554 1.07422C208.062 1.07422 208.486 1.25 208.828 1.60156C209.18 1.94336 209.355 2.36816 209.355 2.87598C209.355 3.37402 209.18 3.79883 208.828 4.15039C208.486 4.49219 208.062 4.66309 207.554 4.66309C207.056 4.66309 206.631 4.49219 206.279 4.15039ZM218.994 7.91504C218.096 7.91504 217.397 8.4375 216.899 9.48242C216.411 10.5176 216.167 11.7334 216.167 13.1299C216.167 13.9502 216.289 14.79 216.533 15.6494C216.777 16.5088 217.183 17.2852 217.749 17.9785C218.315 18.6621 218.979 19.0039 219.741 19.0039C220.444 19.0039 221.064 18.6768 221.602 18.0225C222.139 17.3584 222.407 16.1768 222.407 14.4775C222.407 12.3779 222.095 10.7617 221.47 9.62891C220.854 8.48633 220.029 7.91504 218.994 7.91504ZM212.52 13.7891C212.52 11.6699 213.115 9.95605 214.307 8.64746C215.508 7.33887 217.168 6.68457 219.287 6.68457C220.449 6.68457 221.484 6.88965 222.393 7.2998C223.311 7.70996 224.023 8.25684 224.531 8.94043C225.039 9.61426 225.415 10.3418 225.659 11.123C225.913 11.9043 226.04 12.7051 226.04 13.5254C226.04 14.3066 225.898 15.0879 225.615 15.8691C225.342 16.6406 224.937 17.3633 224.399 18.0371C223.872 18.7012 223.164 19.2432 222.275 19.6631C221.387 20.083 220.381 20.293 219.258 20.293C217.178 20.293 215.532 19.6289 214.321 18.3008C213.12 16.9727 212.52 15.4688 212.52 13.7891ZM233.291 8.57422C234.932 7.31445 236.44 6.68457 237.817 6.68457C239.302 6.68457 240.283 7.09473 240.762 7.91504C241.24 8.73535 241.479 9.93164 241.479 11.5039V17.7148C241.479 18.0957 241.587 18.3691 241.802 18.5352C242.026 18.6914 242.407 18.8379 242.944 18.9746L243.193 19.0332C243.35 19.0723 243.428 19.165 243.428 19.3115V20L243.369 20.0586C241.768 20.0195 240.576 20 239.795 20L236.44 20.0586L236.382 20V19.3115C236.382 19.1748 236.46 19.082 236.616 19.0332L236.748 19.0039C237.266 18.8672 237.632 18.7207 237.847 18.5645C238.071 18.3984 238.184 18.1152 238.184 17.7148V11.2988C238.184 10.2148 238.101 9.45312 237.935 9.01367C237.778 8.57422 237.441 8.35449 236.924 8.35449C236.006 8.35449 234.795 8.82812 233.291 9.77539V17.7148C233.291 18.0957 233.403 18.3789 233.628 18.5645C233.862 18.7402 234.229 18.8867 234.727 19.0039L234.844 19.0332C235 19.0723 235.083 19.165 235.093 19.3115V20L235.034 20.0586C233.511 20.0195 232.358 20 231.577 20L228.105 20.0586L228.047 20V19.3115C228.047 19.1748 228.125 19.082 228.281 19.0332L228.545 18.9746C229.082 18.8574 229.458 18.7207 229.673 18.5645C229.888 18.3984 229.995 18.1152 229.995 17.7148V10.376C229.995 9.67285 229.941 9.21387 229.834 8.99902C229.736 8.77441 229.57 8.65234 229.336 8.63281L228.105 8.51562L228.047 7.49023C230.488 7.16797 232.168 6.87012 233.086 6.59668C233.223 6.59668 233.291 6.62598 233.291 6.68457L233.232 8.57422H233.291ZM7.5 41.915C6.60156 41.915 5.90332 42.4375 5.40527 43.4824C4.91699 44.5176 4.67285 45.7334 4.67285 47.1299C4.67285 47.9502 4.79492 48.79 5.03906 49.6494C5.2832 50.5088 5.68848 51.2852 6.25488 51.9785C6.82129 52.6621 7.48535 53.0039 8.24707 53.0039C8.9502 53.0039 9.57031 52.6768 10.1074 52.0225C10.6445 51.3584 10.9131 50.1768 10.9131 48.4775C10.9131 46.3779 10.6006 44.7617 9.97559 43.6289C9.36035 42.4863 8.53516 41.915 7.5 41.915ZM1.02539 47.7891C1.02539 45.6699 1.62109 43.9561 2.8125 42.6475C4.01367 41.3389 5.67383 40.6846 7.79297 40.6846C8.95508 40.6846 9.99023 40.8896 10.8984 41.2998C11.8164 41.71 12.5293 42.2568 13.0371 42.9404C13.5449 43.6143 13.9209 44.3418 14.165 45.123C14.4189 45.9043 14.5459 46.7051 14.5459 47.5254C14.5459 48.3066 14.4043 49.0879 14.1211 49.8691C13.8477 50.6406 13.4424 51.3633 12.9053 52.0371C12.3779 52.7012 11.6699 53.2432 10.7812 53.6631C9.89258 54.083 8.88672 54.293 7.76367 54.293C5.68359 54.293 4.03809 53.6289 2.82715 52.3008C1.62598 50.9727 1.02539 49.4688 1.02539 47.7891ZM18.5303 51.7441V42.3838H17.1533C16.6162 42.3838 16.3428 42.2861 16.333 42.0908V41.666C16.333 41.5098 16.4355 41.3584 16.6406 41.2119C16.8555 41.0557 17.1924 40.9775 17.6514 40.9775H18.5303V40.6846C18.5303 38.3213 19.082 36.4609 20.1855 35.1035C21.2988 33.7363 22.6172 33.0527 24.1406 33.0527C24.8828 33.0527 25.542 33.1455 26.1182 33.3311C26.6943 33.5068 27.1289 33.7266 27.4219 33.9902C27.7148 34.2539 27.9346 34.498 28.0811 34.7227C28.2275 34.9375 28.3008 35.123 28.3008 35.2793C28.3008 35.6797 28.1738 36.0312 27.9199 36.334C27.6758 36.627 27.3438 36.7734 26.9238 36.7734C26.1621 36.7734 25.5518 36.3779 25.0928 35.5869C24.6533 34.7471 24.1455 34.3271 23.5693 34.3271C22.4072 34.3271 21.8262 36.0361 21.8262 39.4541V40.9775H24.7119C25.1123 40.9775 25.3125 41.0801 25.3125 41.2852V41.8857C25.3125 42.2275 24.9609 42.3936 24.2578 42.3838H21.8262V51.6562C21.8262 52.418 22.3682 52.8574 23.4521 52.9746L23.9795 53.0332C24.1357 53.0723 24.2188 53.165 24.2285 53.3115V54L24.1699 54.0586C22.2461 54.0195 20.8936 54 20.1123 54L16.4795 54.0586L16.4209 54V53.3115C16.4209 53.1748 16.5039 53.082 16.6699 53.0332L17.0801 52.9746C17.5977 52.8965 17.9688 52.7744 18.1934 52.6084C18.418 52.4326 18.5303 52.1445 18.5303 51.7441ZM34.248 49.6201L35.4492 49.5615C35.7324 50.8994 36.1182 51.832 36.6064 52.3594C37.0947 52.877 37.8857 53.1357 38.9795 53.1357C39.4385 53.1357 39.8486 52.9697 40.21 52.6377C40.5713 52.3057 40.752 51.8174 40.752 51.1729C40.752 50.5576 40.6201 50.084 40.3564 49.752C40.1025 49.4199 39.5752 49.1172 38.7744 48.8438C37.7783 48.4824 36.8359 47.9111 35.9473 47.1299C35.0684 46.3486 34.6289 45.4307 34.6289 44.376C34.6289 43.3408 35.0684 42.4668 35.9473 41.7539C36.8359 41.041 37.959 40.6846 39.3164 40.6846C40.7324 40.6846 42.0117 40.9629 43.1543 41.5195C43.291 42.5156 43.4033 43.5361 43.4912 44.5811L42.3193 44.7275C42.0361 43.7119 41.6553 42.9941 41.1768 42.5742C40.6982 42.1543 40.1074 41.9443 39.4043 41.9443C38.9453 41.9443 38.5498 42.0908 38.2178 42.3838C37.8857 42.667 37.7197 43.0869 37.7197 43.6436C37.7197 44.708 38.2715 45.4404 39.375 45.8408C40.8398 46.3779 41.9922 47.0078 42.832 47.7305C43.6719 48.4531 44.0918 49.3516 44.0918 50.4258C44.0918 51.7246 43.5645 52.6963 42.5098 53.3408C41.4551 53.9756 40.249 54.293 38.8916 54.293C38.4326 54.293 37.7393 54.2295 36.8115 54.1025C35.8838 53.9756 35.1465 53.9219 34.5996 53.9414C34.6094 52.8379 34.4922 51.3975 34.248 49.6201ZM47.666 51.6855V37.1104C47.666 36.1924 47.5977 35.5967 47.4609 35.3232C47.334 35.0498 47.1045 34.9131 46.7725 34.9131L45.8057 34.8545C45.6885 34.8545 45.6299 34.8057 45.6299 34.708L45.542 33.8438C46.2842 33.7852 47.2217 33.6777 48.3545 33.5215C49.4971 33.3555 50.2393 33.1992 50.5811 33.0527C50.9033 33.0527 51.0596 33.1553 51.0498 33.3604C50.9912 34.1611 50.9619 35.2109 50.9619 36.5098V46.5293C51.2549 46.4902 51.5527 46.3877 51.8555 46.2217C52.1582 46.0557 52.4219 45.875 52.6465 45.6797C52.9297 45.4355 53.2227 45.1426 53.5254 44.8008C53.8379 44.4492 54.1846 44.0244 54.5654 43.5264C54.8682 43.0674 54.9561 42.7061 54.8291 42.4424C54.7119 42.1689 54.5117 42.0225 54.2285 42.0029L53.5986 41.9443C53.335 41.9248 53.208 41.8223 53.2178 41.6367V40.9775L53.3643 40.9189C54.7021 40.958 55.7227 40.9775 56.4258 40.9775L59.8828 40.9189L59.9707 40.9775V41.6367C59.9707 41.7539 59.9561 41.8369 59.9268 41.8857C59.8975 41.9248 59.8096 41.9443 59.6631 41.9443L58.7695 42.0029C58.5059 42.0225 58.1396 42.1787 57.6709 42.4717C57.2021 42.7549 56.7773 43.0869 56.3965 43.4678L54.1406 45.9287C54.0234 46.0654 54.0527 46.2656 54.2285 46.5293L57.7148 51.6562C58.2324 52.457 58.7939 52.8867 59.3994 52.9453L60.2637 53.0332C60.4199 53.0527 60.5029 53.1162 60.5127 53.2236V54L60.4102 54.0586C59.0137 54.0195 57.9248 54 57.1436 54L54.624 54.0586L54.5654 54V53.2236C54.5654 52.8623 54.4043 52.3398 54.082 51.6562C53.7402 50.9336 53.0615 49.8154 52.0459 48.3018C51.8018 47.96 51.4404 47.7695 50.9619 47.7305V51.6855C50.9619 52.0664 51.0645 52.3398 51.2695 52.5059C51.4844 52.6621 51.875 52.8184 52.4414 52.9746L52.6465 53.0332C52.8027 53.0527 52.8809 53.1455 52.8809 53.3115V54L52.8223 54.0586C51.2207 54.0195 50.0342 54 49.2627 54L45.6885 54.0586L45.6299 54V53.3115C45.6299 53.1553 45.708 53.0625 45.8643 53.0332L46.2305 52.9746C46.7285 52.8965 47.0898 52.7646 47.3145 52.5791C47.5488 52.3838 47.666 52.0859 47.666 51.6855ZM65.2881 45.4453H70.0928C70.1318 45.4062 70.1514 45.2988 70.1514 45.123C70.1514 44.0391 69.9365 43.2383 69.5068 42.7207C69.0771 42.2031 68.6133 41.9443 68.1152 41.9443C67.9199 41.9443 67.7002 41.9883 67.4561 42.0762C67.2119 42.1641 66.9385 42.3203 66.6357 42.5449C66.3428 42.7598 66.0693 43.1162 65.8154 43.6143C65.5615 44.1123 65.3857 44.7227 65.2881 45.4453ZM72.583 50.7334L73.3301 51.3633C72.373 53.3262 70.6152 54.3027 68.0566 54.293C65.918 54.293 64.3213 53.707 63.2666 52.5352C62.2217 51.3535 61.6992 49.8594 61.6992 48.0527C61.6992 45.875 62.3535 44.1025 63.6621 42.7354C64.9707 41.3682 66.4648 40.6846 68.1445 40.6846C70.1465 40.6846 71.5576 41.1973 72.3779 42.2227C73.1982 43.2383 73.6084 44.5029 73.6084 46.0166C73.6084 46.4365 73.2178 46.6465 72.4365 46.6465H65.1416V47.4229C65.1416 48.9072 65.5322 50.1475 66.3135 51.1436C67.0947 52.1299 68.0664 52.623 69.2285 52.623C70.4297 52.623 71.5479 51.9932 72.583 50.7334ZM77.3584 37.1104C77.3584 36.1924 77.29 35.5967 77.1533 35.3232C77.0264 35.0498 76.792 34.9131 76.4502 34.9131L75.498 34.8545C75.3809 34.8545 75.3174 34.8057 75.3076 34.708L75.2197 33.8438C75.9619 33.7852 76.8994 33.6777 78.0322 33.5215C79.1748 33.3555 79.917 33.1992 80.2588 33.0527C80.5811 33.0527 80.7422 33.1553 80.7422 33.3604C80.6836 34.1611 80.6543 35.2109 80.6543 36.5098V51.6855C80.6543 52.0859 80.7666 52.3789 80.9912 52.5645C81.2256 52.7402 81.6016 52.877 82.1191 52.9746L82.4561 53.0332C82.6123 53.0527 82.6904 53.1455 82.6904 53.3115V54L82.6318 54.0586C80.9521 54.0195 79.7217 54 78.9404 54L75.3662 54.0586L75.3076 54V53.3115C75.3076 53.1553 75.3906 53.0625 75.5566 53.0332L75.9082 52.9746C76.4062 52.8965 76.7725 52.7646 77.0068 52.5791C77.2412 52.3838 77.3584 52.0859 77.3584 51.6855V37.1104ZM87.7881 45.4453H92.5928C92.6318 45.4062 92.6514 45.2988 92.6514 45.123C92.6514 44.0391 92.4365 43.2383 92.0068 42.7207C91.5771 42.2031 91.1133 41.9443 90.6152 41.9443C90.4199 41.9443 90.2002 41.9883 89.9561 42.0762C89.7119 42.1641 89.4385 42.3203 89.1357 42.5449C88.8428 42.7598 88.5693 43.1162 88.3154 43.6143C88.0615 44.1123 87.8857 44.7227 87.7881 45.4453ZM95.083 50.7334L95.8301 51.3633C94.873 53.3262 93.1152 54.3027 90.5566 54.293C88.418 54.293 86.8213 53.707 85.7666 52.5352C84.7217 51.3535 84.1992 49.8594 84.1992 48.0527C84.1992 45.875 84.8535 44.1025 86.1621 42.7354C87.4707 41.3682 88.9648 40.6846 90.6445 40.6846C92.6465 40.6846 94.0576 41.1973 94.8779 42.2227C95.6982 43.2383 96.1084 44.5029 96.1084 46.0166C96.1084 46.4365 95.7178 46.6465 94.9365 46.6465H87.6416V47.4229C87.6416 48.9072 88.0322 50.1475 88.8135 51.1436C89.5947 52.1299 90.5664 52.623 91.7285 52.623C92.9297 52.623 94.0479 51.9932 95.083 50.7334ZM102.979 42.3838V49.957C102.979 51.4219 103.237 52.1494 103.755 52.1396C104.497 52.1396 105.176 51.8906 105.791 51.3926L106.479 52.0811C105.356 53.5654 103.945 54.3027 102.246 54.293C100.527 54.293 99.668 53.2773 99.668 51.2461V42.3838H98.1445C97.7832 42.3838 97.6025 42.3057 97.6025 42.1494V41.2266C97.6025 41.0703 97.9834 40.9873 98.7451 40.9775C99.4482 40.9775 99.9219 40.665 100.166 40.04C100.42 39.4053 100.547 38.4189 100.547 37.0811L102.979 36.1436V40.9775H105.82C106.26 40.9775 106.479 41.0801 106.479 41.2852V41.8857C106.479 42.2275 106.108 42.3936 105.366 42.3838H102.979ZM114.434 41.915C113.535 41.915 112.837 42.4375 112.339 43.4824C111.851 44.5176 111.606 45.7334 111.606 47.1299C111.606 47.9502 111.729 48.79 111.973 49.6494C112.217 50.5088 112.622 51.2852 113.188 51.9785C113.755 52.6621 114.419 53.0039 115.181 53.0039C115.884 53.0039 116.504 52.6768 117.041 52.0225C117.578 51.3584 117.847 50.1768 117.847 48.4775C117.847 46.3779 117.534 44.7617 116.909 43.6289C116.294 42.4863 115.469 41.915 114.434 41.915ZM107.959 47.7891C107.959 45.6699 108.555 43.9561 109.746 42.6475C110.947 41.3389 112.607 40.6846 114.727 40.6846C115.889 40.6846 116.924 40.8896 117.832 41.2998C118.75 41.71 119.463 42.2568 119.971 42.9404C120.479 43.6143 120.854 44.3418 121.099 45.123C121.353 45.9043 121.479 46.7051 121.479 47.5254C121.479 48.3066 121.338 49.0879 121.055 49.8691C120.781 50.6406 120.376 51.3633 119.839 52.0371C119.312 52.7012 118.604 53.2432 117.715 53.6631C116.826 54.083 115.82 54.293 114.697 54.293C112.617 54.293 110.972 53.6289 109.761 52.3008C108.56 50.9727 107.959 49.4688 107.959 47.7891ZM128.73 42.5742C130.371 41.3145 131.88 40.6846 133.257 40.6846C134.741 40.6846 135.723 41.0947 136.201 41.915C136.68 42.7354 136.919 43.9316 136.919 45.5039V51.7148C136.919 52.0957 137.026 52.3691 137.241 52.5352C137.466 52.6914 137.847 52.8379 138.384 52.9746L138.633 53.0332C138.789 53.0723 138.867 53.165 138.867 53.3115V54L138.809 54.0586C137.207 54.0195 136.016 54 135.234 54L131.88 54.0586L131.821 54V53.3115C131.821 53.1748 131.899 53.082 132.056 53.0332L132.188 53.0039C132.705 52.8672 133.071 52.7207 133.286 52.5645C133.511 52.3984 133.623 52.1152 133.623 51.7148V45.2988C133.623 44.2148 133.54 43.4531 133.374 43.0137C133.218 42.5742 132.881 42.3545 132.363 42.3545C131.445 42.3545 130.234 42.8281 128.73 43.7754V51.7148C128.73 52.0957 128.843 52.3789 129.067 52.5645C129.302 52.7402 129.668 52.8867 130.166 53.0039L130.283 53.0332C130.439 53.0723 130.522 53.165 130.532 53.3115V54L130.474 54.0586C128.95 54.0195 127.798 54 127.017 54L123.545 54.0586L123.486 54V53.3115C123.486 53.1748 123.564 53.082 123.721 53.0332L123.984 52.9746C124.521 52.8574 124.897 52.7207 125.112 52.5645C125.327 52.3984 125.435 52.1152 125.435 51.7148V44.376C125.435 43.6729 125.381 43.2139 125.273 42.999C125.176 42.7744 125.01 42.6523 124.775 42.6328L123.545 42.5156L123.486 41.4902C125.928 41.168 127.607 40.8701 128.525 40.5967C128.662 40.5967 128.73 40.626 128.73 40.6846L128.672 42.5742H128.73ZM140.508 49.6201L141.709 49.5615C141.992 50.8994 142.378 51.832 142.866 52.3594C143.354 52.877 144.146 53.1357 145.239 53.1357C145.698 53.1357 146.108 52.9697 146.47 52.6377C146.831 52.3057 147.012 51.8174 147.012 51.1729C147.012 50.5576 146.88 50.084 146.616 49.752C146.362 49.4199 145.835 49.1172 145.034 48.8438C144.038 48.4824 143.096 47.9111 142.207 47.1299C141.328 46.3486 140.889 45.4307 140.889 44.376C140.889 43.3408 141.328 42.4668 142.207 41.7539C143.096 41.041 144.219 40.6846 145.576 40.6846C146.992 40.6846 148.271 40.9629 149.414 41.5195C149.551 42.5156 149.663 43.5361 149.751 44.5811L148.579 44.7275C148.296 43.7119 147.915 42.9941 147.437 42.5742C146.958 42.1543 146.367 41.9443 145.664 41.9443C145.205 41.9443 144.81 42.0908 144.478 42.3838C144.146 42.667 143.979 43.0869 143.979 43.6436C143.979 44.708 144.531 45.4404 145.635 45.8408C147.1 46.3779 148.252 47.0078 149.092 47.7305C149.932 48.4531 150.352 49.3516 150.352 50.4258C150.352 51.7246 149.824 52.6963 148.77 53.3408C147.715 53.9756 146.509 54.293 145.151 54.293C144.692 54.293 143.999 54.2295 143.071 54.1025C142.144 53.9756 141.406 53.9219 140.859 53.9414C140.869 52.8379 140.752 51.3975 140.508 49.6201Z" fill="black"/>
</svg>
