<svg width="300" height="95" viewBox="0 0 300 95" fill="none" xmlns="http://www.w3.org/2000/svg">
<path d="M7.83691 4.9707C6.86035 6.30859 5.01953 9.22852 2.31445 13.7305H7.83691V4.9707ZM14.4873 13.7305C14.79 13.7305 14.9414 13.8916 14.9414 14.2139C14.9414 14.3896 14.8438 14.5898 14.6484 14.8145C14.4629 15.0293 14.2725 15.1367 14.0771 15.1367H11.543V16.3379C11.543 16.9336 11.6016 17.417 11.7188 17.7881C11.8457 18.1592 12.0508 18.4326 12.334 18.6084C12.627 18.7744 12.9053 18.8818 13.1689 18.9307C13.4326 18.9795 13.8232 19.0137 14.3408 19.0332C14.4971 19.1113 14.5752 19.2773 14.5752 19.5312C14.5752 19.7852 14.4971 19.9609 14.3408 20.0586C13.6963 20.0586 13.042 20.0537 12.3779 20.0439C11.7236 20.0342 11.2061 20.0244 10.8252 20.0146C10.4443 20.0049 10.0781 20 9.72656 20L5.03906 20.0586C4.88281 19.9805 4.80469 19.8145 4.80469 19.5605C4.80469 19.2969 4.88281 19.1211 5.03906 19.0332C5.55664 19.0137 5.94727 18.9795 6.21094 18.9307C6.47461 18.8818 6.74805 18.7744 7.03125 18.6084C7.32422 18.4326 7.5293 18.1641 7.64648 17.8027C7.77344 17.4316 7.83691 16.9434 7.83691 16.3379V15.1367H2.51953C2.00195 15.1367 1.66992 15.0684 1.52344 14.9316L1.08398 14.3896C1.04492 14.3115 0.981445 14.2188 0.893555 14.1113C0.81543 13.9941 0.756836 13.9062 0.717773 13.8477C0.678711 13.7891 0.65918 13.7402 0.65918 13.7012C0.65918 13.6426 0.727539 13.5107 0.864258 13.3057C1.26465 12.6904 1.9043 11.7188 2.7832 10.3906C3.67188 9.05273 4.39941 7.94922 4.96582 7.08008C5.53223 6.21094 6.18652 5.25879 6.92871 4.22363C7.6709 3.17871 8.31055 2.33887 8.84766 1.7041H11.543V13.7305H14.4873ZM16.875 18.2568C16.875 17.6807 17.0947 17.1826 17.5342 16.7627C17.9736 16.3428 18.4912 16.1328 19.0869 16.1328C19.6924 16.1328 20.2051 16.333 20.625 16.7334C21.0449 17.1338 21.2549 17.6221 21.2549 18.1982C21.2549 18.7549 21.0352 19.2432 20.5957 19.6631C20.1562 20.083 19.6338 20.293 19.0283 20.293C18.4326 20.293 17.9248 20.0928 17.5049 19.6924C17.085 19.292 16.875 18.8135 16.875 18.2568ZM24.2285 6.37695C24.2285 5.27344 24.7998 4.21875 25.9424 3.21289C27.085 2.20703 28.6377 1.7041 30.6006 1.7041C32.4365 1.7041 33.916 2.23633 35.0391 3.30078C35.8984 4.12109 36.3281 5.19531 36.3281 6.52344C36.3281 6.88477 36.3037 7.2168 36.2549 7.51953C36.2061 7.82227 36.1523 8.08594 36.0938 8.31055C36.0449 8.52539 35.918 8.7793 35.7129 9.07227C35.5176 9.35547 35.376 9.5752 35.2881 9.73145C35.2002 9.87793 34.9756 10.1318 34.6143 10.4932C34.2529 10.8545 33.9893 11.1084 33.8232 11.2549C33.667 11.4014 33.3154 11.7285 32.7686 12.2363C32.2217 12.7344 31.8164 13.1006 31.5527 13.335L29.7949 14.9609C28.9648 15.7227 28.501 16.6113 28.4033 17.627H32.2998C32.9834 17.627 33.5547 17.4072 34.0137 16.9678C34.4727 16.5283 34.8633 15.8008 35.1855 14.7852C35.6445 14.7852 36.0938 14.8828 36.5332 15.0781C36.2695 17.2363 35.9619 18.877 35.6104 20H24.0234L23.9062 19.0332C23.9453 18.5938 24.2383 18.0371 24.7852 17.3633C25.3418 16.6797 26.4893 15.5078 28.2275 13.8477L30.7764 11.416C31.5186 10.7129 31.9873 10.0244 32.1826 9.35059C32.3877 8.66699 32.4902 7.75879 32.4902 6.62598C32.4902 5.53223 32.2266 4.64844 31.6992 3.97461C31.1523 3.27148 30.5518 2.9248 29.8975 2.93457C29.2334 2.93457 28.6523 3.17871 28.1543 3.66699C27.6562 4.15527 27.4072 4.59961 27.4072 5C27.4072 5.24414 27.4707 5.50293 27.5977 5.77637C27.6953 6.0791 27.7441 6.28906 27.7441 6.40625C27.7441 6.86523 27.5684 7.24609 27.2168 7.54883C26.8652 7.85156 26.46 8.00293 26.001 8.00293C25.4834 8.00293 25.0586 7.83203 24.7266 7.49023C24.3945 7.14844 24.2285 6.77734 24.2285 6.37695ZM39.6094 18.2568C39.6094 17.6807 39.8291 17.1826 40.2686 16.7627C40.708 16.3428 41.2256 16.1328 41.8213 16.1328C42.4268 16.1328 42.9395 16.333 43.3594 16.7334C43.7793 17.1338 43.9893 17.6221 43.9893 18.1982C43.9893 18.7549 43.7695 19.2432 43.3301 19.6631C42.8906 20.083 42.3682 20.293 41.7627 20.293C41.167 20.293 40.6592 20.0928 40.2393 19.6924C39.8193 19.292 39.6094 18.8135 39.6094 18.2568Z" fill="#C92B1D"/>
<path d="M63.4424 18.7402C64.9072 18.7402 65.9961 18.4082 66.709 17.7441C67.4316 17.0703 67.9639 16.123 68.3057 14.9023C68.8037 14.8242 69.2334 14.873 69.5947 15.0488C69.3994 16.7871 69.1357 18.457 68.8037 20.0586C66.9873 20.0195 65.791 20 65.2148 20H58.5059C57.7344 20 56.1963 20.0195 53.8916 20.0586C53.7549 19.9609 53.6865 19.79 53.6865 19.5459C53.6865 19.292 53.7549 19.1211 53.8916 19.0332C54.3896 19.0137 54.7607 18.9795 55.0049 18.9307C55.249 18.8818 55.4932 18.7744 55.7373 18.6084C55.9912 18.4326 56.1621 18.1641 56.25 17.8027C56.3379 17.4316 56.3818 16.9434 56.3818 16.3379V4.31152C56.3818 3.71582 56.3379 3.23242 56.25 2.86133C56.1621 2.49023 55.9912 2.22168 55.7373 2.05566C55.4932 1.87988 55.249 1.76758 55.0049 1.71875C54.7705 1.66992 54.3994 1.63574 53.8916 1.61621C53.7549 1.51855 53.6865 1.34277 53.6865 1.08887C53.6865 0.834961 53.7549 0.668945 53.8916 0.59082C56.167 0.629883 57.71 0.649414 58.5205 0.649414C58.8818 0.649414 59.248 0.644531 59.6191 0.634766C59.9902 0.625 60.498 0.615234 61.1426 0.605469C61.7969 0.595703 62.4414 0.59082 63.0762 0.59082C63.2129 0.668945 63.2812 0.834961 63.2812 1.08887C63.291 1.33301 63.2227 1.50879 63.0762 1.61621C62.5781 1.63574 62.207 1.66992 61.9629 1.71875C61.7285 1.76758 61.4844 1.87988 61.2305 2.05566C60.9863 2.22168 60.8154 2.49023 60.7178 2.86133C60.6299 3.22266 60.5859 3.70605 60.5859 4.31152V16.3672C60.5859 17.9492 60.9375 18.7402 61.6406 18.7402H63.4424ZM79.1455 18.5498L78.9551 18.5645C78.418 18.9844 77.7832 19.3799 77.0508 19.751C76.3184 20.1123 75.752 20.293 75.3516 20.293C72.8516 20.293 71.6016 19.2432 71.6016 17.1436C71.6016 16.0596 72.0312 15.2295 72.8906 14.6533C73.75 14.0771 75.1123 13.501 76.9775 12.9248L78.9844 12.2949C78.9844 10.5566 78.7842 9.39941 78.3838 8.82324C77.9834 8.2373 77.4121 7.94434 76.6699 7.94434C75.8887 7.94434 75.4688 8.16895 75.4102 8.61816C75.3906 8.73535 75.3857 8.86719 75.3955 9.01367C75.415 9.15039 75.4346 9.27246 75.4541 9.37988C75.4736 9.4873 75.4932 9.60449 75.5127 9.73145C75.5322 9.84863 75.542 9.95117 75.542 10.0391C75.542 10.4102 75.3613 10.7373 75 11.0205C74.6387 11.2939 74.1992 11.4307 73.6816 11.4307C73.125 11.4307 72.7246 11.2939 72.4805 11.0205C72.2461 10.7471 72.1289 10.376 72.1289 9.90723C72.1289 9.29199 72.4414 8.73047 73.0664 8.22266C73.7012 7.70508 74.4385 7.31934 75.2783 7.06543C76.1182 6.81152 76.9238 6.68457 77.6953 6.68457C81.1133 6.68457 82.8223 8.41309 82.8223 11.8701L82.7637 16.1914C82.7637 16.9531 82.8223 17.4805 82.9395 17.7734C83.0664 18.0566 83.2861 18.1982 83.5986 18.1982C84.0771 18.1982 84.4971 18.0566 84.8584 17.7734C85.2197 18.0762 85.4004 18.3594 85.4004 18.623C84.2188 19.7461 82.9102 20.3027 81.4746 20.293C80.1172 20.3027 79.3408 19.7217 79.1455 18.5498ZM78.9844 13.4668L77.417 13.9648C76.9189 14.1211 76.5088 14.3018 76.1865 14.5068C75.874 14.7119 75.6494 14.9463 75.5127 15.21C75.3857 15.4639 75.3027 15.6934 75.2637 15.8984C75.2246 16.0938 75.2051 16.3623 75.2051 16.7041C75.2051 17.2217 75.3418 17.6514 75.6152 17.9932C75.8984 18.335 76.3428 18.5059 76.9482 18.5059C77.4072 18.5059 78.0859 18.1445 78.9844 17.4219V13.4668ZM87.3486 6.97754H88.1836C88.1836 4.95605 88.2959 3.79883 88.5205 3.50586C88.5791 3.42773 88.6963 3.34961 88.8721 3.27148C89.0576 3.19336 89.2822 3.11523 89.5459 3.03711C89.8096 2.94922 89.9951 2.88086 90.1025 2.83203C90.3369 2.73437 90.6689 2.62207 91.0986 2.49512C91.5381 2.36816 91.8115 2.30469 91.9189 2.30469C92.0752 2.30469 92.1533 2.39258 92.1533 2.56836C92.0947 3.50586 92.041 4.63867 91.9922 5.9668L91.9629 6.97754H95.4785C95.6348 6.97754 95.7129 7.03613 95.7129 7.15332V8.09082C95.7129 8.35449 95.4736 8.48633 94.9951 8.48633H91.9629C91.9629 9.60938 91.9678 11.0791 91.9775 12.8955C91.9873 14.7119 91.9922 15.8105 91.9922 16.1914C91.9922 16.8945 92.1191 17.4072 92.373 17.7295C92.627 18.042 92.9443 18.1982 93.3252 18.1982C94.1064 18.1982 94.6729 18.0566 95.0244 17.7734C95.3857 18.0762 95.5664 18.3594 95.5664 18.623C95.2441 19.0625 94.6826 19.4531 93.8818 19.7949C93.0908 20.127 92.2949 20.293 91.4941 20.293C90.498 20.293 89.668 20.0146 89.0039 19.458C88.4082 18.9404 88.1055 18.0713 88.0957 16.8506C88.0957 13.8916 88.125 11.1035 88.1836 8.48633H86.2354C86.1377 8.48633 86.0889 8.42285 86.0889 8.2959V7.43164C86.4307 7.12891 86.8506 6.97754 87.3486 6.97754ZM101.367 11.7529H105.454C105.493 11.7139 105.513 11.5039 105.513 11.123C105.513 10.0391 105.317 9.23828 104.927 8.7207C104.536 8.20312 104.092 7.94434 103.594 7.94434C103.369 7.94434 103.096 8.03711 102.773 8.22266C102.461 8.39844 102.192 8.64258 101.968 8.95508C101.606 9.50195 101.406 10.4346 101.367 11.7529ZM108.984 16.1328C109.287 16.1328 109.438 16.4404 109.438 17.0557C107.954 19.2139 106.084 20.293 103.828 20.293C101.865 20.293 100.337 19.7949 99.2432 18.7988C97.9639 17.6367 97.3242 16.0547 97.3242 14.0527C97.3242 11.875 97.998 10.1025 99.3457 8.73535C100.693 7.36816 102.217 6.68457 103.916 6.68457C104.98 6.68457 105.879 6.84082 106.611 7.15332C107.354 7.45605 107.91 7.88086 108.281 8.42773C108.652 8.96484 108.916 9.52637 109.072 10.1123C109.238 10.6885 109.321 11.3232 109.321 12.0166C109.321 12.6318 109.033 12.9443 108.457 12.9541H101.25C101.25 12.9932 101.245 13.0615 101.235 13.1592C101.226 13.2568 101.221 13.3447 101.221 13.4229C101.221 14.8584 101.548 15.9326 102.202 16.6455C102.866 17.3584 103.799 17.7148 105 17.7148C106.621 17.7246 107.949 17.1973 108.984 16.1328ZM117.583 16.3379C117.583 17.5195 117.671 18.252 117.847 18.5352C118.032 18.8086 118.462 18.9746 119.136 19.0332C119.214 19.1113 119.253 19.2822 119.253 19.5459C119.263 19.8096 119.224 19.9805 119.136 20.0586C117.417 20.0195 116.25 20 115.635 20C114.57 20 113.198 20.0195 111.519 20.0586C111.44 19.9805 111.401 19.8145 111.401 19.5605C111.401 19.2969 111.44 19.1211 111.519 19.0332C112.476 18.9551 113.076 18.7891 113.32 18.5352C113.564 18.2715 113.687 17.5391 113.687 16.3379V10.7275C113.687 9.8877 113.569 9.35059 113.335 9.11621C113.11 8.87207 112.578 8.71094 111.738 8.63281C111.621 8.25195 111.597 7.92969 111.665 7.66602C113.364 7.44141 115.024 7.11426 116.646 6.68457C117.085 6.68457 117.319 6.85547 117.349 7.19727C117.437 7.79297 117.5 8.4375 117.539 9.13086C119.922 7.49023 121.587 6.6748 122.534 6.68457C125.19 6.68457 126.519 8.28125 126.519 11.4746V16.1621C126.519 17.3828 126.665 18.1592 126.958 18.4912C127.251 18.8135 127.876 18.9941 128.833 19.0332C128.931 19.1113 128.979 19.2822 128.979 19.5459C128.979 19.8096 128.931 19.9805 128.833 20.0586C127.114 20.0195 125.693 20 124.57 20C123.809 20 122.588 20.0195 120.908 20.0586C120.811 19.9805 120.762 19.8145 120.762 19.5605C120.762 19.2969 120.811 19.1211 120.908 19.0332C121.572 18.9941 122.021 18.8037 122.256 18.4619C122.5 18.1104 122.622 17.3438 122.622 16.1621V11.1523C122.622 9.64844 121.924 8.89648 120.527 8.89648C119.932 8.89648 118.95 9.36523 117.583 10.3027V10.3613V16.3379ZM131.118 6.97754H131.953C131.953 4.95605 132.065 3.79883 132.29 3.50586C132.349 3.42773 132.466 3.34961 132.642 3.27148C132.827 3.19336 133.052 3.11523 133.315 3.03711C133.579 2.94922 133.765 2.88086 133.872 2.83203C134.106 2.73437 134.438 2.62207 134.868 2.49512C135.308 2.36816 135.581 2.30469 135.688 2.30469C135.845 2.30469 135.923 2.39258 135.923 2.56836C135.864 3.50586 135.811 4.63867 135.762 5.9668L135.732 6.97754H139.248C139.404 6.97754 139.482 7.03613 139.482 7.15332V8.09082C139.482 8.35449 139.243 8.48633 138.765 8.48633H135.732C135.732 9.60938 135.737 11.0791 135.747 12.8955C135.757 14.7119 135.762 15.8105 135.762 16.1914C135.762 16.8945 135.889 17.4072 136.143 17.7295C136.396 18.042 136.714 18.1982 137.095 18.1982C137.876 18.1982 138.442 18.0566 138.794 17.7734C139.155 18.0762 139.336 18.3594 139.336 18.623C139.014 19.0625 138.452 19.4531 137.651 19.7949C136.86 20.127 136.064 20.293 135.264 20.293C134.268 20.293 133.438 20.0146 132.773 19.458C132.178 18.9404 131.875 18.0713 131.865 16.8506C131.865 13.8916 131.895 11.1035 131.953 8.48633H130.005C129.907 8.48633 129.858 8.42285 129.858 8.2959V7.43164C130.2 7.12891 130.62 6.97754 131.118 6.97754ZM6.84082 45.958V50.3379C6.84082 51.5391 6.95801 52.2764 7.19238 52.5498C7.43652 52.8135 8.03711 52.9746 8.99414 53.0332C9.07227 53.1113 9.11133 53.2822 9.11133 53.5459C9.12109 53.8096 9.08203 53.9805 8.99414 54.0586C7.27539 54.0195 5.9082 54 4.89258 54C3.82812 54 2.45605 54.0195 0.776367 54.0586C0.698242 53.9805 0.65918 53.8145 0.65918 53.5605C0.65918 53.2969 0.698242 53.1211 0.776367 53.0332C1.7334 52.9551 2.33398 52.7891 2.57812 52.5352C2.82227 52.2715 2.94434 51.5391 2.94434 50.3379V44.7275C2.94434 43.8877 2.82227 43.3457 2.57812 43.1016C2.34375 42.8477 1.81641 42.6816 0.996094 42.6035C0.878906 42.2422 0.854492 41.9297 0.922852 41.666C2.08496 41.5488 3.74512 41.2217 5.90332 40.6846C6.32324 40.6846 6.55762 40.8555 6.60645 41.1973C6.7041 42.1738 6.77246 42.96 6.81152 43.5557H6.92871C8.2666 41.6318 9.45801 40.6748 10.5029 40.6846C11.0205 40.6846 11.4795 40.8652 11.8799 41.2266C12.2803 41.5781 12.4805 41.9541 12.4805 42.3545C12.4805 42.9697 12.3047 43.4873 11.9531 43.9072C11.6016 44.3271 11.2012 44.5371 10.752 44.5371C10.1172 44.5371 9.63379 44.3711 9.30176 44.0391C9.2627 44 9.20898 43.9463 9.14062 43.8779C9.07227 43.8096 9.01855 43.7559 8.97949 43.7168C8.94043 43.6777 8.8916 43.6387 8.83301 43.5996C8.77441 43.5508 8.7207 43.5166 8.67188 43.4971C8.62305 43.4775 8.56934 43.4678 8.51074 43.4678C8.22754 43.4678 7.91016 43.6387 7.55859 43.9805C7.32422 44.2051 7.14355 44.4688 7.0166 44.7715C6.89941 45.0645 6.84082 45.46 6.84082 45.958ZM17.8418 45.7529H21.9287C21.9678 45.7139 21.9873 45.5039 21.9873 45.123C21.9873 44.0391 21.792 43.2383 21.4014 42.7207C21.0107 42.2031 20.5664 41.9443 20.0684 41.9443C19.8438 41.9443 19.5703 42.0371 19.248 42.2227C18.9355 42.3984 18.667 42.6426 18.4424 42.9551C18.0811 43.502 17.8809 44.4346 17.8418 45.7529ZM25.459 50.1328C25.7617 50.1328 25.9131 50.4404 25.9131 51.0557C24.4287 53.2139 22.5586 54.293 20.3027 54.293C18.3398 54.293 16.8115 53.7949 15.7178 52.7988C14.4385 51.6367 13.7988 50.0547 13.7988 48.0527C13.7988 45.875 14.4727 44.1025 15.8203 42.7354C17.168 41.3682 18.6914 40.6846 20.3906 40.6846C21.4551 40.6846 22.3535 40.8408 23.0859 41.1533C23.8281 41.4561 24.3848 41.8809 24.7559 42.4277C25.127 42.9648 25.3906 43.5264 25.5469 44.1123C25.7129 44.6885 25.7959 45.3232 25.7959 46.0166C25.7959 46.6318 25.5078 46.9443 24.9316 46.9541H17.7246C17.7246 46.9932 17.7197 47.0615 17.71 47.1592C17.7002 47.2568 17.6953 47.3447 17.6953 47.4229C17.6953 48.8584 18.0225 49.9326 18.6768 50.6455C19.3408 51.3584 20.2734 51.7148 21.4746 51.7148C23.0957 51.7246 24.4238 51.1973 25.459 50.1328ZM30.0732 44.7275C30.0732 43.8877 29.9561 43.3506 29.7217 43.1162C29.4873 42.8721 28.9502 42.7109 28.1104 42.6328C27.9932 42.252 27.9736 41.9297 28.0518 41.666C29.751 41.4414 31.4111 41.1143 33.0322 40.6846C33.4717 40.6846 33.7012 40.8555 33.7207 41.1973C33.7793 41.6367 33.833 42.1348 33.8818 42.6914H34.0576C34.6338 42.1738 35.2686 41.71 35.9619 41.2998C36.6553 40.8896 37.2021 40.6846 37.6025 40.6846C39.3408 40.6846 40.708 41.1826 41.7041 42.1787C42.2607 42.7354 42.7002 43.4482 43.0225 44.3174C43.3447 45.1768 43.5059 46.0361 43.5059 46.8955C43.5059 49.1123 42.8174 50.8994 41.4404 52.2568C40.0732 53.6143 38.252 54.293 35.9766 54.293C35.293 54.293 34.624 54.127 33.9697 53.7949V57.2959C33.9697 58.4971 34.0869 59.2295 34.3213 59.4932C34.5654 59.7666 35.166 59.9375 36.123 60.0059C36.2207 60.084 36.2695 60.25 36.2695 60.5039C36.2695 60.7676 36.2207 60.9385 36.123 61.0166C34.4043 60.9775 33.0371 60.958 32.0215 60.958C30.957 60.958 29.585 60.9775 27.9053 61.0166C27.8076 60.9385 27.7588 60.7676 27.7588 60.5039C27.7588 60.25 27.8076 60.084 27.9053 60.0059C28.8623 59.9277 29.4629 59.7568 29.707 59.4932C29.9512 59.2295 30.0732 58.4971 30.0732 57.2959V44.7275ZM33.9697 52.0518C34.585 52.7158 35.1953 53.043 35.8008 53.0332C37.002 53.0332 37.8857 52.5107 38.4521 51.4658C39.0186 50.4111 39.3018 49.1562 39.3018 47.7012C39.3018 46.0801 39.0332 44.8398 38.4961 43.9805C37.959 43.1211 37.3389 42.6914 36.6357 42.6914C36.2549 42.6914 35.8154 42.7988 35.3174 43.0137C34.8193 43.2188 34.3652 43.5068 33.9551 43.8779C33.9648 44.0439 33.9697 44.2051 33.9697 44.3613V52.0518ZM51.4893 45.958V50.3379C51.4893 51.5391 51.6064 52.2764 51.8408 52.5498C52.085 52.8135 52.6855 52.9746 53.6426 53.0332C53.7207 53.1113 53.7598 53.2822 53.7598 53.5459C53.7695 53.8096 53.7305 53.9805 53.6426 54.0586C51.9238 54.0195 50.5566 54 49.541 54C48.4766 54 47.1045 54.0195 45.4248 54.0586C45.3467 53.9805 45.3076 53.8145 45.3076 53.5605C45.3076 53.2969 45.3467 53.1211 45.4248 53.0332C46.3818 52.9551 46.9824 52.7891 47.2266 52.5352C47.4707 52.2715 47.5928 51.5391 47.5928 50.3379V44.7275C47.5928 43.8877 47.4707 43.3457 47.2266 43.1016C46.9922 42.8477 46.4648 42.6816 45.6445 42.6035C45.5273 42.2422 45.5029 41.9297 45.5713 41.666C46.7334 41.5488 48.3936 41.2217 50.5518 40.6846C50.9717 40.6846 51.2061 40.8555 51.2549 41.1973C51.3525 42.1738 51.4209 42.96 51.46 43.5557H51.5771C52.915 41.6318 54.1064 40.6748 55.1514 40.6846C55.6689 40.6846 56.1279 40.8652 56.5283 41.2266C56.9287 41.5781 57.1289 41.9541 57.1289 42.3545C57.1289 42.9697 56.9531 43.4873 56.6016 43.9072C56.25 44.3271 55.8496 44.5371 55.4004 44.5371C54.7656 44.5371 54.2822 44.3711 53.9502 44.0391C53.9111 44 53.8574 43.9463 53.7891 43.8779C53.7207 43.8096 53.667 43.7559 53.6279 43.7168C53.5889 43.6777 53.54 43.6387 53.4814 43.5996C53.4229 43.5508 53.3691 43.5166 53.3203 43.4971C53.2715 43.4775 53.2178 43.4678 53.1592 43.4678C52.876 43.4678 52.5586 43.6387 52.207 43.9805C51.9727 44.2051 51.792 44.4688 51.665 44.7715C51.5479 45.0645 51.4893 45.46 51.4893 45.958ZM62.4902 45.7529H66.5771C66.6162 45.7139 66.6357 45.5039 66.6357 45.123C66.6357 44.0391 66.4404 43.2383 66.0498 42.7207C65.6592 42.2031 65.2148 41.9443 64.7168 41.9443C64.4922 41.9443 64.2188 42.0371 63.8965 42.2227C63.584 42.3984 63.3154 42.6426 63.0908 42.9551C62.7295 43.502 62.5293 44.4346 62.4902 45.7529ZM70.1074 50.1328C70.4102 50.1328 70.5615 50.4404 70.5615 51.0557C69.0771 53.2139 67.207 54.293 64.9512 54.293C62.9883 54.293 61.46 53.7949 60.3662 52.7988C59.0869 51.6367 58.4473 50.0547 58.4473 48.0527C58.4473 45.875 59.1211 44.1025 60.4688 42.7354C61.8164 41.3682 63.3398 40.6846 65.0391 40.6846C66.1035 40.6846 67.002 40.8408 67.7344 41.1533C68.4766 41.4561 69.0332 41.8809 69.4043 42.4277C69.7754 42.9648 70.0391 43.5264 70.1953 44.1123C70.3613 44.6885 70.4443 45.3232 70.4443 46.0166C70.4443 46.6318 70.1562 46.9443 69.5801 46.9541H62.373C62.373 46.9932 62.3682 47.0615 62.3584 47.1592C62.3486 47.2568 62.3438 47.3447 62.3438 47.4229C62.3438 48.8584 62.6709 49.9326 63.3252 50.6455C63.9893 51.3584 64.9219 51.7148 66.123 51.7148C67.7441 51.7246 69.0723 51.1973 70.1074 50.1328ZM73.3008 49.6201C73.7402 49.5225 74.1406 49.5029 74.502 49.5615C74.8047 50.6455 75.2734 51.5146 75.9082 52.1689C76.5527 52.8135 77.2266 53.1357 77.9297 53.1357C78.3691 53.1357 78.7744 53.0039 79.1455 52.7402C79.5166 52.4766 79.7021 52.1152 79.7021 51.6562C79.7021 50.5527 79.1895 49.7764 78.1641 49.3271C76.8066 48.7119 75.6494 47.8818 74.6924 46.8369C74.0771 46.1533 73.7646 45.4014 73.7549 44.5811C73.7549 43.7217 74.0967 42.9404 74.7803 42.2373C75.7959 41.2021 77.1436 40.6846 78.8232 40.6846C79.9658 40.6846 81.0889 40.9238 82.1924 41.4023C82.4561 42.3203 82.583 43.3799 82.5732 44.5811C82.3096 44.7568 81.9189 44.8057 81.4014 44.7275C80.6396 42.8721 79.7021 41.9443 78.5889 41.9443C78.1689 41.9443 77.8223 42.0664 77.5488 42.3105C77.2754 42.5449 77.1387 42.8428 77.1387 43.2041C77.1387 44.3076 77.6807 45.084 78.7646 45.5332C80.3174 46.207 81.4795 46.9785 82.251 47.8477C82.8662 48.5312 83.1738 49.3906 83.1738 50.4258C83.1738 51.6465 82.6318 52.5986 81.5479 53.2822C80.4736 53.9561 79.2871 54.293 77.9883 54.293C76.4648 54.293 75.0732 54.0732 73.8135 53.6338C73.6084 52.7939 73.4375 51.4561 73.3008 49.6201ZM89.8242 45.7529H93.9111C93.9502 45.7139 93.9697 45.5039 93.9697 45.123C93.9697 44.0391 93.7744 43.2383 93.3838 42.7207C92.9932 42.2031 92.5488 41.9443 92.0508 41.9443C91.8262 41.9443 91.5527 42.0371 91.2305 42.2227C90.918 42.3984 90.6494 42.6426 90.4248 42.9551C90.0635 43.502 89.8633 44.4346 89.8242 45.7529ZM97.4414 50.1328C97.7441 50.1328 97.8955 50.4404 97.8955 51.0557C96.4111 53.2139 94.541 54.293 92.2852 54.293C90.3223 54.293 88.7939 53.7949 87.7002 52.7988C86.4209 51.6367 85.7812 50.0547 85.7812 48.0527C85.7812 45.875 86.4551 44.1025 87.8027 42.7354C89.1504 41.3682 90.6738 40.6846 92.373 40.6846C93.4375 40.6846 94.3359 40.8408 95.0684 41.1533C95.8105 41.4561 96.3672 41.8809 96.7383 42.4277C97.1094 42.9648 97.373 43.5264 97.5293 44.1123C97.6953 44.6885 97.7783 45.3232 97.7783 46.0166C97.7783 46.6318 97.4902 46.9443 96.9141 46.9541H89.707C89.707 46.9932 89.7021 47.0615 89.6924 47.1592C89.6826 47.2568 89.6777 47.3447 89.6777 47.4229C89.6777 48.8584 90.0049 49.9326 90.6592 50.6455C91.3232 51.3584 92.2559 51.7148 93.457 51.7148C95.0781 51.7246 96.4062 51.1973 97.4414 50.1328ZM106.04 50.3379C106.04 51.5195 106.128 52.252 106.304 52.5352C106.489 52.8086 106.919 52.9746 107.593 53.0332C107.671 53.1113 107.71 53.2822 107.71 53.5459C107.72 53.8096 107.681 53.9805 107.593 54.0586C105.874 54.0195 104.707 54 104.092 54C103.027 54 101.655 54.0195 99.9756 54.0586C99.8975 53.9805 99.8584 53.8145 99.8584 53.5605C99.8584 53.2969 99.8975 53.1211 99.9756 53.0332C100.933 52.9551 101.533 52.7891 101.777 52.5352C102.021 52.2715 102.144 51.5391 102.144 50.3379V44.7275C102.144 43.8877 102.026 43.3506 101.792 43.1162C101.567 42.8721 101.035 42.7109 100.195 42.6328C100.078 42.252 100.054 41.9297 100.122 41.666C101.821 41.4414 103.481 41.1143 105.103 40.6846C105.542 40.6846 105.776 40.8555 105.806 41.1973C105.894 41.793 105.957 42.4375 105.996 43.1309C108.379 41.4902 110.044 40.6748 110.991 40.6846C113.647 40.6846 114.976 42.2812 114.976 45.4746V50.1621C114.976 51.3828 115.122 52.1592 115.415 52.4912C115.708 52.8135 116.333 52.9941 117.29 53.0332C117.388 53.1113 117.437 53.2822 117.437 53.5459C117.437 53.8096 117.388 53.9805 117.29 54.0586C115.571 54.0195 114.15 54 113.027 54C112.266 54 111.045 54.0195 109.365 54.0586C109.268 53.9805 109.219 53.8145 109.219 53.5605C109.219 53.2969 109.268 53.1211 109.365 53.0332C110.029 52.9941 110.479 52.8037 110.713 52.4619C110.957 52.1104 111.079 51.3438 111.079 50.1621V45.1523C111.079 43.6484 110.381 42.8965 108.984 42.8965C108.389 42.8965 107.407 43.3652 106.04 44.3027V44.3613V50.3379ZM119.575 40.9775H120.41C120.41 38.9561 120.522 37.7988 120.747 37.5059C120.806 37.4277 120.923 37.3496 121.099 37.2715C121.284 37.1934 121.509 37.1152 121.772 37.0371C122.036 36.9492 122.222 36.8809 122.329 36.832C122.563 36.7344 122.896 36.6221 123.325 36.4951C123.765 36.3682 124.038 36.3047 124.146 36.3047C124.302 36.3047 124.38 36.3926 124.38 36.5684C124.321 37.5059 124.268 38.6387 124.219 39.9668L124.189 40.9775H127.705C127.861 40.9775 127.939 41.0361 127.939 41.1533V42.0908C127.939 42.3545 127.7 42.4863 127.222 42.4863H124.189C124.189 43.6094 124.194 45.0791 124.204 46.8955C124.214 48.7119 124.219 49.8105 124.219 50.1914C124.219 50.8945 124.346 51.4072 124.6 51.7295C124.854 52.042 125.171 52.1982 125.552 52.1982C126.333 52.1982 126.899 52.0566 127.251 51.7734C127.612 52.0762 127.793 52.3594 127.793 52.623C127.471 53.0625 126.909 53.4531 126.108 53.7949C125.317 54.127 124.521 54.293 123.721 54.293C122.725 54.293 121.895 54.0146 121.23 53.458C120.635 52.9404 120.332 52.0713 120.322 50.8506C120.322 47.8916 120.352 45.1035 120.41 42.4863H118.462C118.364 42.4863 118.315 42.4229 118.315 42.2959V41.4316C118.657 41.1289 119.077 40.9775 119.575 40.9775ZM137.3 52.5498L137.109 52.5645C136.572 52.9844 135.938 53.3799 135.205 53.751C134.473 54.1123 133.906 54.293 133.506 54.293C131.006 54.293 129.756 53.2432 129.756 51.1436C129.756 50.0596 130.186 49.2295 131.045 48.6533C131.904 48.0771 133.267 47.501 135.132 46.9248L137.139 46.2949C137.139 44.5566 136.938 43.3994 136.538 42.8232C136.138 42.2373 135.566 41.9443 134.824 41.9443C134.043 41.9443 133.623 42.1689 133.564 42.6182C133.545 42.7354 133.54 42.8672 133.55 43.0137C133.569 43.1504 133.589 43.2725 133.608 43.3799C133.628 43.4873 133.647 43.6045 133.667 43.7314C133.687 43.8486 133.696 43.9512 133.696 44.0391C133.696 44.4102 133.516 44.7373 133.154 45.0205C132.793 45.2939 132.354 45.4307 131.836 45.4307C131.279 45.4307 130.879 45.2939 130.635 45.0205C130.4 44.7471 130.283 44.376 130.283 43.9072C130.283 43.292 130.596 42.7305 131.221 42.2227C131.855 41.7051 132.593 41.3193 133.433 41.0654C134.272 40.8115 135.078 40.6846 135.85 40.6846C139.268 40.6846 140.977 42.4131 140.977 45.8701L140.918 50.1914C140.918 50.9531 140.977 51.4805 141.094 51.7734C141.221 52.0566 141.44 52.1982 141.753 52.1982C142.231 52.1982 142.651 52.0566 143.013 51.7734C143.374 52.0762 143.555 52.3594 143.555 52.623C142.373 53.7461 141.064 54.3027 139.629 54.293C138.271 54.3027 137.495 53.7217 137.3 52.5498ZM137.139 47.4668L135.571 47.9648C135.073 48.1211 134.663 48.3018 134.341 48.5068C134.028 48.7119 133.804 48.9463 133.667 49.21C133.54 49.4639 133.457 49.6934 133.418 49.8984C133.379 50.0938 133.359 50.3623 133.359 50.7041C133.359 51.2217 133.496 51.6514 133.77 51.9932C134.053 52.335 134.497 52.5059 135.103 52.5059C135.562 52.5059 136.24 52.1445 137.139 51.4219V47.4668ZM145.503 40.9775H146.338C146.338 38.9561 146.45 37.7988 146.675 37.5059C146.733 37.4277 146.851 37.3496 147.026 37.2715C147.212 37.1934 147.437 37.1152 147.7 37.0371C147.964 36.9492 148.149 36.8809 148.257 36.832C148.491 36.7344 148.823 36.6221 149.253 36.4951C149.692 36.3682 149.966 36.3047 150.073 36.3047C150.229 36.3047 150.308 36.3926 150.308 36.5684C150.249 37.5059 150.195 38.6387 150.146 39.9668L150.117 40.9775H153.633C153.789 40.9775 153.867 41.0361 153.867 41.1533V42.0908C153.867 42.3545 153.628 42.4863 153.149 42.4863H150.117C150.117 43.6094 150.122 45.0791 150.132 46.8955C150.142 48.7119 150.146 49.8105 150.146 50.1914C150.146 50.8945 150.273 51.4072 150.527 51.7295C150.781 52.042 151.099 52.1982 151.479 52.1982C152.261 52.1982 152.827 52.0566 153.179 51.7734C153.54 52.0762 153.721 52.3594 153.721 52.623C153.398 53.0625 152.837 53.4531 152.036 53.7949C151.245 54.127 150.449 54.293 149.648 54.293C148.652 54.293 147.822 54.0146 147.158 53.458C146.562 52.9404 146.26 52.0713 146.25 50.8506C146.25 47.8916 146.279 45.1035 146.338 42.4863H144.39C144.292 42.4863 144.243 42.4229 144.243 42.2959V41.4316C144.585 41.1289 145.005 40.9775 145.503 40.9775ZM161.323 50.3379C161.323 51.5391 161.44 52.2764 161.675 52.5498C161.919 52.8135 162.524 52.9746 163.491 53.0332C163.569 53.1113 163.608 53.2822 163.608 53.5459C163.608 53.8096 163.569 53.9805 163.491 54.0586C161.772 54.0195 160.4 54 159.375 54C158.311 54 156.938 54.0195 155.259 54.0586C155.181 53.9805 155.142 53.8145 155.142 53.5605C155.142 53.2969 155.181 53.1211 155.259 53.0332C156.216 52.9551 156.816 52.7891 157.061 52.5352C157.305 52.2715 157.427 51.5391 157.427 50.3379V44.5811C157.427 43.7412 157.31 43.2041 157.075 42.9697C156.851 42.7256 156.318 42.5645 155.479 42.4863C155.361 42.1055 155.342 41.7832 155.42 41.5195C158.604 41.0996 160.381 40.8213 160.752 40.6846C161.211 40.6846 161.44 40.8555 161.44 41.1973C161.44 41.2168 161.44 41.251 161.44 41.2998C161.44 41.3389 161.436 41.4268 161.426 41.5635C161.416 41.6904 161.406 41.8271 161.396 41.9736C161.387 42.1104 161.377 42.2812 161.367 42.4863C161.357 42.6914 161.348 42.8916 161.338 43.0869C161.338 43.2725 161.333 43.4824 161.323 43.7168C161.323 43.9414 161.323 44.1562 161.323 44.3613V50.3379ZM157.28 36.1143C157.28 35.6162 157.461 35.1816 157.822 34.8105C158.193 34.4395 158.711 34.2539 159.375 34.2539C159.951 34.2539 160.42 34.459 160.781 34.8691C161.143 35.2793 161.323 35.7383 161.323 36.2461C161.323 36.6855 161.123 37.1055 160.723 37.5059C160.322 37.9062 159.814 38.1064 159.199 38.1064C158.623 38.1064 158.159 37.9062 157.808 37.5059C157.456 37.0957 157.28 36.6318 157.28 36.1143ZM171.826 41.9443C170.166 41.9443 169.336 43.6729 169.336 47.1299C169.336 48.5068 169.629 49.835 170.215 51.1143C170.811 52.3936 171.66 53.0332 172.764 53.0332C173.428 53.0332 174.009 52.6816 174.507 51.9785C175.005 51.2656 175.254 50.0986 175.254 48.4775C175.254 46.4365 174.941 44.8398 174.316 43.6875C173.691 42.5254 172.861 41.9443 171.826 41.9443ZM165.146 47.7891C165.146 45.7871 165.693 44.1562 166.787 42.8965C168.076 41.4121 169.917 40.6748 172.31 40.6846C174.487 40.6846 176.221 41.3242 177.51 42.6035C178.809 43.8828 179.458 45.5234 179.458 47.5254C179.458 49.6836 178.774 51.373 177.407 52.5938C176.128 53.7363 174.419 54.3027 172.28 54.293C170.239 54.293 168.54 53.6973 167.183 52.5059C165.825 51.3047 165.146 49.7324 165.146 47.7891ZM187.397 50.3379C187.397 51.5195 187.485 52.252 187.661 52.5352C187.847 52.8086 188.276 52.9746 188.95 53.0332C189.028 53.1113 189.067 53.2822 189.067 53.5459C189.077 53.8096 189.038 53.9805 188.95 54.0586C187.231 54.0195 186.064 54 185.449 54C184.385 54 183.013 54.0195 181.333 54.0586C181.255 53.9805 181.216 53.8145 181.216 53.5605C181.216 53.2969 181.255 53.1211 181.333 53.0332C182.29 52.9551 182.891 52.7891 183.135 52.5352C183.379 52.2715 183.501 51.5391 183.501 50.3379V44.7275C183.501 43.8877 183.384 43.3506 183.149 43.1162C182.925 42.8721 182.393 42.7109 181.553 42.6328C181.436 42.252 181.411 41.9297 181.479 41.666C183.179 41.4414 184.839 41.1143 186.46 40.6846C186.899 40.6846 187.134 40.8555 187.163 41.1973C187.251 41.793 187.314 42.4375 187.354 43.1309C189.736 41.4902 191.401 40.6748 192.349 40.6846C195.005 40.6846 196.333 42.2812 196.333 45.4746V50.1621C196.333 51.3828 196.479 52.1592 196.772 52.4912C197.065 52.8135 197.69 52.9941 198.647 53.0332C198.745 53.1113 198.794 53.2822 198.794 53.5459C198.794 53.8096 198.745 53.9805 198.647 54.0586C196.929 54.0195 195.508 54 194.385 54C193.623 54 192.402 54.0195 190.723 54.0586C190.625 53.9805 190.576 53.8145 190.576 53.5605C190.576 53.2969 190.625 53.1211 190.723 53.0332C191.387 52.9941 191.836 52.8037 192.07 52.4619C192.314 52.1104 192.437 51.3438 192.437 50.1621V45.1523C192.437 43.6484 191.738 42.8965 190.342 42.8965C189.746 42.8965 188.765 43.3652 187.397 44.3027V44.3613V50.3379ZM214.336 41.9443C212.676 41.9443 211.846 43.6729 211.846 47.1299C211.846 48.5068 212.139 49.835 212.725 51.1143C213.32 52.3936 214.17 53.0332 215.273 53.0332C215.938 53.0332 216.519 52.6816 217.017 51.9785C217.515 51.2656 217.764 50.0986 217.764 48.4775C217.764 46.4365 217.451 44.8398 216.826 43.6875C216.201 42.5254 215.371 41.9443 214.336 41.9443ZM207.656 47.7891C207.656 45.7871 208.203 44.1562 209.297 42.8965C210.586 41.4121 212.427 40.6748 214.819 40.6846C216.997 40.6846 218.73 41.3242 220.02 42.6035C221.318 43.8828 221.968 45.5234 221.968 47.5254C221.968 49.6836 221.284 51.373 219.917 52.5938C218.638 53.7363 216.929 54.3027 214.79 54.293C212.749 54.293 211.05 53.6973 209.692 52.5059C208.335 51.3047 207.656 49.7324 207.656 47.7891ZM229.966 50.1621C229.966 51.3828 230.107 52.1592 230.391 52.4912C230.684 52.8135 231.313 52.9941 232.28 53.0332C232.378 53.1113 232.427 53.2822 232.427 53.5459C232.427 53.8096 232.378 53.9805 232.28 54.0586C230.562 54.0195 229.141 54 228.018 54C226.855 54 225.435 54.0195 223.755 54.0586C223.657 53.9805 223.608 53.8145 223.608 53.5605C223.608 53.2969 223.657 53.1211 223.755 53.0332C224.712 52.9941 225.337 52.8135 225.63 52.4912C225.923 52.1592 226.069 51.4023 226.069 50.2207V42.4863H224.561C224.023 42.4863 223.755 42.3838 223.755 42.1787V41.373C223.755 41.1094 224.507 40.9775 226.011 40.9775H226.069V40.377C226.069 39.0781 226.26 38.0039 226.641 37.1543C227.021 36.3047 227.539 35.5186 228.193 34.7959C229.277 33.6338 230.688 33.0527 232.427 33.0527C233.843 33.0527 234.883 33.2969 235.547 33.7852C236.211 34.2637 236.543 34.7617 236.543 35.2793C236.543 35.8945 236.387 36.3682 236.074 36.7002C235.762 37.0322 235.347 37.1982 234.829 37.1982C234.312 37.1982 233.862 37.042 233.481 36.7295C233.101 36.4072 232.837 35.9922 232.69 35.4844C232.573 35.0449 232.466 34.7422 232.368 34.5762C232.271 34.4102 232.1 34.3271 231.855 34.3271C231.699 34.3271 231.543 34.3613 231.387 34.4297C231.24 34.498 231.074 34.6396 230.889 34.8545C230.713 35.0596 230.557 35.3428 230.42 35.7041C230.293 36.0654 230.186 36.5684 230.098 37.2129C230.01 37.8477 229.966 38.5947 229.966 39.4541V40.9775H232.998C233.398 40.9775 233.599 41.0801 233.599 41.2852V41.9736C233.599 42.3154 233.247 42.4863 232.544 42.4863H229.966V50.1621ZM249.185 50.1621C249.185 51.3828 249.326 52.1592 249.609 52.4912C249.902 52.8135 250.532 52.9941 251.499 53.0332C251.597 53.1113 251.646 53.2822 251.646 53.5459C251.646 53.8096 251.597 53.9805 251.499 54.0586C249.78 54.0195 248.359 54 247.236 54C246.074 54 244.653 54.0195 242.974 54.0586C242.876 53.9805 242.827 53.8145 242.827 53.5605C242.827 53.2969 242.876 53.1211 242.974 53.0332C243.931 52.9941 244.556 52.8135 244.849 52.4912C245.142 52.1592 245.288 51.4023 245.288 50.2207V42.4863H243.779C243.242 42.4863 242.974 42.3838 242.974 42.1787V41.373C242.974 41.1094 243.726 40.9775 245.229 40.9775H245.288V40.377C245.288 39.0781 245.479 38.0039 245.859 37.1543C246.24 36.3047 246.758 35.5186 247.412 34.7959C248.496 33.6338 249.907 33.0527 251.646 33.0527C253.062 33.0527 254.102 33.2969 254.766 33.7852C255.43 34.2637 255.762 34.7617 255.762 35.2793C255.762 35.8945 255.605 36.3682 255.293 36.7002C254.98 37.0322 254.565 37.1982 254.048 37.1982C253.53 37.1982 253.081 37.042 252.7 36.7295C252.319 36.4072 252.056 35.9922 251.909 35.4844C251.792 35.0449 251.685 34.7422 251.587 34.5762C251.489 34.4102 251.318 34.3271 251.074 34.3271C250.918 34.3271 250.762 34.3613 250.605 34.4297C250.459 34.498 250.293 34.6396 250.107 34.8545C249.932 35.0596 249.775 35.3428 249.639 35.7041C249.512 36.0654 249.404 36.5684 249.316 37.2129C249.229 37.8477 249.185 38.5947 249.185 39.4541V40.9775H252.217C252.617 40.9775 252.817 41.0801 252.817 41.2852V41.9736C252.817 42.3154 252.466 42.4863 251.763 42.4863H249.185V50.1621ZM261.797 41.9443C260.137 41.9443 259.307 43.6729 259.307 47.1299C259.307 48.5068 259.6 49.835 260.186 51.1143C260.781 52.3936 261.631 53.0332 262.734 53.0332C263.398 53.0332 263.979 52.6816 264.478 51.9785C264.976 51.2656 265.225 50.0986 265.225 48.4775C265.225 46.4365 264.912 44.8398 264.287 43.6875C263.662 42.5254 262.832 41.9443 261.797 41.9443ZM255.117 47.7891C255.117 45.7871 255.664 44.1562 256.758 42.8965C258.047 41.4121 259.888 40.6748 262.28 40.6846C264.458 40.6846 266.191 41.3242 267.48 42.6035C268.779 43.8828 269.429 45.5234 269.429 47.5254C269.429 49.6836 268.745 51.373 267.378 52.5938C266.099 53.7363 264.39 54.3027 262.251 54.293C260.21 54.293 258.511 53.6973 257.153 52.5059C255.796 51.3047 255.117 49.7324 255.117 47.7891ZM277.368 50.3379C277.368 51.5195 277.456 52.252 277.632 52.5352C277.817 52.8086 278.247 52.9746 278.921 53.0332C278.999 53.1113 279.038 53.2822 279.038 53.5459C279.048 53.8096 279.009 53.9805 278.921 54.0586C277.202 54.0195 276.035 54 275.42 54C274.355 54 272.983 54.0195 271.304 54.0586C271.226 53.9805 271.187 53.8145 271.187 53.5605C271.187 53.2969 271.226 53.1211 271.304 53.0332C272.261 52.9551 272.861 52.7891 273.105 52.5352C273.35 52.2715 273.472 51.5391 273.472 50.3379V44.7275C273.472 43.8877 273.354 43.3506 273.12 43.1162C272.896 42.8721 272.363 42.7109 271.523 42.6328C271.406 42.252 271.382 41.9297 271.45 41.666C273.149 41.4414 274.81 41.1143 276.431 40.6846C276.87 40.6846 277.104 40.8555 277.134 41.1973C277.222 41.793 277.285 42.4375 277.324 43.1309C279.707 41.4902 281.372 40.6748 282.319 40.6846C284.976 40.6846 286.304 42.2812 286.304 45.4746V50.1621C286.304 51.3828 286.45 52.1592 286.743 52.4912C287.036 52.8135 287.661 52.9941 288.618 53.0332C288.716 53.1113 288.765 53.2822 288.765 53.5459C288.765 53.8096 288.716 53.9805 288.618 54.0586C286.899 54.0195 285.479 54 284.355 54C283.594 54 282.373 54.0195 280.693 54.0586C280.596 53.9805 280.547 53.8145 280.547 53.5605C280.547 53.2969 280.596 53.1211 280.693 53.0332C281.357 52.9941 281.807 52.8037 282.041 52.4619C282.285 52.1104 282.407 51.3438 282.407 50.1621V45.1523C282.407 43.6484 281.709 42.8965 280.312 42.8965C279.717 42.8965 278.735 43.3652 277.368 44.3027V44.3613V50.3379ZM290.903 40.9775H291.738C291.738 38.9561 291.851 37.7988 292.075 37.5059C292.134 37.4277 292.251 37.3496 292.427 37.2715C292.612 37.1934 292.837 37.1152 293.101 37.0371C293.364 36.9492 293.55 36.8809 293.657 36.832C293.892 36.7344 294.224 36.6221 294.653 36.4951C295.093 36.3682 295.366 36.3047 295.474 36.3047C295.63 36.3047 295.708 36.3926 295.708 36.5684C295.649 37.5059 295.596 38.6387 295.547 39.9668L295.518 40.9775H299.033C299.189 40.9775 299.268 41.0361 299.268 41.1533V42.0908C299.268 42.3545 299.028 42.4863 298.55 42.4863H295.518C295.518 43.6094 295.522 45.0791 295.532 46.8955C295.542 48.7119 295.547 49.8105 295.547 50.1914C295.547 50.8945 295.674 51.4072 295.928 51.7295C296.182 52.042 296.499 52.1982 296.88 52.1982C297.661 52.1982 298.228 52.0566 298.579 51.7734C298.94 52.0762 299.121 52.3594 299.121 52.623C298.799 53.0625 298.237 53.4531 297.437 53.7949C296.646 54.127 295.85 54.293 295.049 54.293C294.053 54.293 293.223 54.0146 292.559 53.458C291.963 52.9404 291.66 52.0713 291.65 50.8506C291.65 47.8916 291.68 45.1035 291.738 42.4863H289.79C289.692 42.4863 289.644 42.4229 289.644 42.2959V41.4316C289.985 41.1289 290.405 40.9775 290.903 40.9775ZM1.43555 83.6201C1.875 83.5225 2.27539 83.5029 2.63672 83.5615C2.93945 84.6455 3.4082 85.5146 4.04297 86.1689C4.6875 86.8135 5.36133 87.1357 6.06445 87.1357C6.50391 87.1357 6.90918 87.0039 7.28027 86.7402C7.65137 86.4766 7.83691 86.1152 7.83691 85.6562C7.83691 84.5527 7.32422 83.7764 6.29883 83.3271C4.94141 82.7119 3.78418 81.8818 2.82715 80.8369C2.21191 80.1533 1.89941 79.4014 1.88965 78.5811C1.88965 77.7217 2.23145 76.9404 2.91504 76.2373C3.93066 75.2021 5.27832 74.6846 6.95801 74.6846C8.10059 74.6846 9.22363 74.9238 10.3271 75.4023C10.5908 76.3203 10.7178 77.3799 10.708 78.5811C10.4443 78.7568 10.0537 78.8057 9.53613 78.7275C8.77441 76.8721 7.83691 75.9443 6.72363 75.9443C6.30371 75.9443 5.95703 76.0664 5.68359 76.3105C5.41016 76.5449 5.27344 76.8428 5.27344 77.2041C5.27344 78.3076 5.81543 79.084 6.89941 79.5332C8.45215 80.207 9.61426 80.9785 10.3857 81.8477C11.001 82.5312 11.3086 83.3906 11.3086 84.4258C11.3086 85.6465 10.7666 86.5986 9.68262 87.2822C8.6084 87.9561 7.42188 88.293 6.12305 88.293C4.59961 88.293 3.20801 88.0732 1.94824 87.6338C1.74316 86.7939 1.57227 85.4561 1.43555 83.6201ZM14.6924 74.9775H15.5273C15.5273 72.9561 15.6396 71.7988 15.8643 71.5059C15.9229 71.4277 16.04 71.3496 16.2158 71.2715C16.4014 71.1934 16.626 71.1152 16.8896 71.0371C17.1533 70.9492 17.3389 70.8809 17.4463 70.832C17.6807 70.7344 18.0127 70.6221 18.4424 70.4951C18.8818 70.3682 19.1553 70.3047 19.2627 70.3047C19.4189 70.3047 19.4971 70.3926 19.4971 70.5684C19.4385 71.5059 19.3848 72.6387 19.3359 73.9668L19.3066 74.9775H22.8223C22.9785 74.9775 23.0566 75.0361 23.0566 75.1533V76.0908C23.0566 76.3545 22.8174 76.4863 22.3389 76.4863H19.3066C19.3066 77.6094 19.3115 79.0791 19.3213 80.8955C19.3311 82.7119 19.3359 83.8105 19.3359 84.1914C19.3359 84.8945 19.4629 85.4072 19.7168 85.7295C19.9707 86.042 20.2881 86.1982 20.6689 86.1982C21.4502 86.1982 22.0166 86.0566 22.3682 85.7734C22.7295 86.0762 22.9102 86.3594 22.9102 86.623C22.5879 87.0625 22.0264 87.4531 21.2256 87.7949C20.4346 88.127 19.6387 88.293 18.8379 88.293C17.8418 88.293 17.0117 88.0146 16.3477 87.458C15.752 86.9404 15.4492 86.0713 15.4395 84.8506C15.4395 81.8916 15.4688 79.1035 15.5273 76.4863H13.5791C13.4814 76.4863 13.4326 76.4229 13.4326 76.2959V75.4316C13.7744 75.1289 14.1943 74.9775 14.6924 74.9775ZM30.8203 93.0391C30.4199 93.7422 29.8193 94.2842 29.0186 94.665C28.5986 94.8604 28.0273 94.958 27.3047 94.958C26.8262 94.958 26.4355 94.7773 26.1328 94.416C25.8887 94.1328 25.7715 93.7324 25.7812 93.2148C25.7812 92.873 25.9424 92.5557 26.2646 92.2627C26.5967 91.9795 27.0312 91.8379 27.5684 91.8379C27.6855 91.8379 27.8467 91.8574 28.0518 91.8965C28.2568 91.9355 28.4473 91.9551 28.623 91.9551C29.0137 91.9551 29.3213 91.8379 29.5459 91.6035C29.7803 91.3789 30.0049 91.0078 30.2197 90.4902L30.9375 88.835C30.957 88.6787 30.9766 88.5713 30.9961 88.5127C31.0156 88.4541 30.9814 88.3418 30.8936 88.1758C30.8057 88.0195 30.7324 87.9072 30.6738 87.8389C30.625 87.7705 30.5322 87.6484 30.3955 87.4727C30.2588 87.2871 30.1562 87.1406 30.0879 87.0332L26.2207 78.1562C25.8008 77.2188 25.4639 76.6328 25.21 76.3984C24.9658 76.1543 24.5117 76.0029 23.8477 75.9443C23.7695 75.8662 23.7305 75.6953 23.7305 75.4316C23.7305 75.168 23.7695 74.9971 23.8477 74.9189C24.6484 74.958 25.7617 74.9775 27.1875 74.9775C28.3691 74.9775 29.6973 74.958 31.1719 74.9189C31.25 74.9971 31.2891 75.168 31.2891 75.4316C31.2891 75.6953 31.25 75.8662 31.1719 75.9443C30.332 76.0029 29.873 76.1885 29.7949 76.501C29.7168 76.8037 29.8486 77.2578 30.1904 77.8633L32.9736 84.1328C33.0029 84.1816 33.0176 84.2207 33.0176 84.25C33.0176 84.2305 33.0225 84.2109 33.0322 84.1914L36.123 77.2627C36.2598 77.0674 36.3037 76.8916 36.2549 76.7354C36.2061 76.5693 36.1572 76.4424 36.1084 76.3545C36.0596 76.2568 35.9375 76.1787 35.7422 76.1201C35.5566 76.0615 35.3906 76.0225 35.2441 76.0029C35.1074 75.9834 34.9219 75.9639 34.6875 75.9443C34.5898 75.8662 34.541 75.6953 34.541 75.4316C34.541 75.168 34.5898 74.9971 34.6875 74.9189C36.1719 74.958 37.2314 74.9775 37.8662 74.9775C38.2861 74.9775 38.9941 74.958 39.9902 74.9189C40.0684 74.9971 40.1074 75.168 40.1074 75.4316C40.1074 75.6953 40.0684 75.8662 39.9902 75.9443C39.4727 75.9834 38.999 76.1885 38.5693 76.5596C38.1396 76.9307 37.8027 77.3555 37.5586 77.834C35.8203 81.5156 34.0039 85.6465 32.1094 90.2266C31.6309 91.4375 31.2012 92.375 30.8203 93.0391ZM43.2861 84.1914V71.0518C43.2861 70.0557 43.1836 69.4502 42.9785 69.2354C42.7832 69.0205 42.207 68.874 41.25 68.7959C41.0938 68.5127 41.0596 68.1953 41.1475 67.8438C43.6279 67.7461 45.5078 67.4824 46.7871 67.0527C47.1094 67.0527 47.2705 67.1846 47.2705 67.4482C47.2119 68.1904 47.1826 69.2109 47.1826 70.5098V84.1914C47.1826 85.3926 47.3242 86.1592 47.6074 86.4912C47.9004 86.8135 48.5303 86.9941 49.4971 87.0332C49.5947 87.1113 49.6436 87.2822 49.6436 87.5459C49.6436 87.8096 49.5947 87.9805 49.4971 88.0586C47.7783 88.0195 46.3574 88 45.2344 88C44.0723 88 42.6514 88.0195 40.9717 88.0586C40.874 87.9805 40.8252 87.8145 40.8252 87.5605C40.8252 87.2969 40.874 87.1211 40.9717 87.0332C41.9287 86.9941 42.5537 86.8135 42.8467 86.4912C43.1396 86.1592 43.2861 85.3926 43.2861 84.1914ZM55.1953 79.7529H59.2822C59.3213 79.7139 59.3408 79.5039 59.3408 79.123C59.3408 78.0391 59.1455 77.2383 58.7549 76.7207C58.3643 76.2031 57.9199 75.9443 57.4219 75.9443C57.1973 75.9443 56.9238 76.0371 56.6016 76.2227C56.2891 76.3984 56.0205 76.6426 55.7959 76.9551C55.4346 77.502 55.2344 78.4346 55.1953 79.7529ZM62.8125 84.1328C63.1152 84.1328 63.2666 84.4404 63.2666 85.0557C61.7822 87.2139 59.9121 88.293 57.6562 88.293C55.6934 88.293 54.165 87.7949 53.0713 86.7988C51.792 85.6367 51.1523 84.0547 51.1523 82.0527C51.1523 79.875 51.8262 78.1025 53.1738 76.7354C54.5215 75.3682 56.0449 74.6846 57.7441 74.6846C58.8086 74.6846 59.707 74.8408 60.4395 75.1533C61.1816 75.4561 61.7383 75.8809 62.1094 76.4277C62.4805 76.9648 62.7441 77.5264 62.9004 78.1123C63.0664 78.6885 63.1494 79.3232 63.1494 80.0166C63.1494 80.6318 62.8613 80.9443 62.2852 80.9541H55.0781C55.0781 80.9932 55.0732 81.0615 55.0635 81.1592C55.0537 81.2568 55.0488 81.3447 55.0488 81.4229C55.0488 82.8584 55.376 83.9326 56.0303 84.6455C56.6943 85.3584 57.627 85.7148 58.8281 85.7148C60.4492 85.7246 61.7773 85.1973 62.8125 84.1328Z" fill="black"/>
</svg>
