<svg width="221" height="95" viewBox="0 0 221 95" fill="none" xmlns="http://www.w3.org/2000/svg">
<path d="M8.12988 5.20508C6.77246 7.04102 4.96094 9.78027 2.69531 13.4229H8.12988V5.20508ZM14.0039 13.4229C14.3066 13.4229 14.458 13.584 14.458 13.9062C14.458 14.1016 14.3604 14.3213 14.165 14.5654C13.9795 14.8096 13.7891 14.9316 13.5938 14.9316H11.2207V17.5684C11.2207 17.8906 11.2451 18.1494 11.2939 18.3447C11.3428 18.5303 11.4697 18.667 11.6748 18.7549C11.8896 18.8428 12.0557 18.8965 12.1729 18.916C12.2998 18.9355 12.583 18.9697 13.0225 19.0186C13.1592 19.0381 13.2568 19.043 13.3154 19.0332C13.3936 19.1113 13.4326 19.2822 13.4326 19.5459C13.4424 19.8096 13.4033 19.9805 13.3154 20.0586C12.0361 20.0195 10.6787 20 9.24316 20C8.15918 20 6.97754 20.0195 5.69824 20.0586C5.62012 19.9805 5.58105 19.8145 5.58105 19.5605C5.58105 19.2969 5.62012 19.1211 5.69824 19.0332C6.77246 18.9551 7.44141 18.8135 7.70508 18.6084C7.98828 18.3838 8.12988 18.0371 8.12988 17.5684V14.9316H2.00684C1.41113 14.9316 1.02051 14.4824 0.834961 13.584C3.93066 8.7207 6.64062 4.86816 8.96484 2.02637C9.14062 1.80176 9.30176 1.69434 9.44824 1.7041H11.2207L11.2793 1.7627C11.2402 1.93848 11.2207 2.90527 11.2207 4.66309V13.4229H14.0039ZM17.1826 19.8242C16.8506 19.502 16.6846 19.1113 16.6846 18.6523C16.6846 18.1934 16.8506 17.7979 17.1826 17.4658C17.5146 17.1338 17.9102 16.9678 18.3691 16.9678C18.8281 16.9678 19.2236 17.1338 19.5557 17.4658C19.8877 17.7979 20.0537 18.1934 20.0537 18.6523C20.0537 19.1113 19.8877 19.502 19.5557 19.8242C19.2236 20.1367 18.8281 20.293 18.3691 20.293C17.9102 20.293 17.5146 20.1367 17.1826 19.8242ZM23.5547 6.05469C23.5547 5.01953 24.0576 4.03809 25.0635 3.11035C26.0791 2.17285 27.417 1.7041 29.0771 1.7041C29.7998 1.7041 30.4736 1.77734 31.0986 1.92383C31.7334 2.07031 32.3389 2.30469 32.915 2.62695C33.501 2.94922 33.9551 3.43262 34.2773 4.07715C34.6094 4.71191 34.7754 5.46875 34.7754 6.34766C34.7754 7.36328 34.4238 8.34961 33.7207 9.30664C33.0273 10.2539 31.8994 11.4893 30.3369 13.0127C30.2393 13.1104 29.9072 13.4277 29.3408 13.9648C28.7842 14.4922 28.3496 14.917 28.0371 15.2393C27.7344 15.5518 27.4268 15.9424 27.1143 16.4111C26.8018 16.8799 26.6455 17.2852 26.6455 17.627H31.5088C32.0654 17.627 32.4854 17.4609 32.7686 17.1289C33.0518 16.7871 33.335 16.1035 33.6182 15.0781L34.9072 15.3564C34.6631 16.46 34.4434 18.0078 34.248 20H23.5254C23.5254 19.082 23.7598 18.1885 24.2285 17.3193C24.707 16.4502 25.6641 15.2441 27.0996 13.7012L29.2676 11.416C30.0098 10.6152 30.5176 9.84863 30.791 9.11621C31.0742 8.37402 31.2158 7.49023 31.2158 6.46484C31.2158 5.24414 30.957 4.3457 30.4395 3.76953C29.9316 3.19336 29.4092 2.90527 28.8721 2.90527C28.1299 2.90527 27.5098 3.10059 27.0117 3.49121C26.5137 3.88184 26.2646 4.27246 26.2646 4.66309C26.2646 5.00488 26.3037 5.26855 26.3818 5.4541C26.4404 5.61035 26.4697 5.82031 26.4697 6.08398C26.4697 6.50391 26.3232 6.82129 26.0303 7.03613C25.7471 7.24121 25.415 7.34375 25.0342 7.34375C24.6338 7.34375 24.2871 7.22168 23.9941 6.97754C23.7012 6.72363 23.5547 6.41602 23.5547 6.05469ZM39.2139 19.8242C38.8818 19.502 38.7158 19.1113 38.7158 18.6523C38.7158 18.1934 38.8818 17.7979 39.2139 17.4658C39.5459 17.1338 39.9414 16.9678 40.4004 16.9678C40.8594 16.9678 41.2549 17.1338 41.5869 17.4658C41.9189 17.7979 42.085 18.1934 42.085 18.6523C42.085 19.1113 41.9189 19.502 41.5869 19.8242C41.2549 20.1367 40.8594 20.293 40.4004 20.293C39.9414 20.293 39.5459 20.1367 39.2139 19.8242Z" fill="#C92B1D"/>
<path d="M54.5654 2.93457C54.5654 2.45605 54.4336 2.11914 54.1699 1.92383C53.916 1.71875 53.4961 1.61621 52.9102 1.61621H52.4854C52.3096 1.61621 52.2217 1.5332 52.2217 1.36719V0.649414L52.2803 0.59082C54.2432 0.629883 55.6152 0.649414 56.3965 0.649414L60.4395 0.59082L60.498 0.649414V1.36719C60.498 1.52344 60.4297 1.60645 60.293 1.61621H59.8389C58.7549 1.61621 58.2178 2.05566 58.2275 2.93457V17.2461C58.2275 18.1641 58.5645 18.623 59.2383 18.623H61.8164C63.7402 18.623 65.0537 17.2705 65.7568 14.5654L66.9287 14.8145C66.4893 16.9336 66.2451 18.6621 66.1963 20H55.9131C55.1123 20 53.9209 20.0195 52.3389 20.0586L52.2217 20V19.3994C52.2217 19.1553 52.3828 19.0332 52.7051 19.0332H53.6572C54.0186 19.0332 54.2578 18.9502 54.375 18.7842C54.502 18.6182 54.5654 18.3057 54.5654 17.8467V2.93457ZM76.1279 18.5645C74.79 19.7266 73.54 20.3027 72.3779 20.293C71.0986 20.293 70.1807 20.0342 69.624 19.5166C69.0674 18.999 68.7891 18.208 68.7891 17.1436C68.7891 16.04 69.2188 15.1904 70.0781 14.5947C70.9375 13.999 72.2461 13.4424 74.0039 12.9248L76.1719 12.2949C76.1719 10.5176 75.9961 9.33105 75.6445 8.73535C75.293 8.12988 74.7656 7.82715 74.0625 7.82715C73.4668 7.82715 72.9639 7.91992 72.5537 8.10547C72.1436 8.29102 71.9385 8.54492 71.9385 8.86719C71.9385 9.0918 71.9678 9.34082 72.0264 9.61426C72.085 9.87793 72.1143 10.0586 72.1143 10.1562C72.1143 10.4004 71.9531 10.6543 71.6309 10.918C71.3184 11.1719 70.9619 11.2988 70.5615 11.2988C69.624 11.2988 69.1504 10.8789 69.1406 10.0391C69.1406 9.17969 69.7363 8.4082 70.9277 7.72461C72.1191 7.03125 73.3057 6.68457 74.4873 6.68457C75.9521 6.68457 77.1387 7.06055 78.0469 7.8125C78.9551 8.55469 79.4092 9.90723 79.4092 11.8701V16.2207C79.4092 16.6602 79.4189 16.9971 79.4385 17.2314C79.458 17.4561 79.502 17.7051 79.5703 17.9785C79.6387 18.2422 79.7559 18.4375 79.9219 18.5645C80.0977 18.6816 80.3223 18.7402 80.5957 18.7402C80.8789 18.7402 81.0986 18.6621 81.2549 18.5059C81.4209 18.3398 81.5137 18.2568 81.5332 18.2568C81.5918 18.2568 81.6699 18.335 81.7676 18.4912C81.875 18.6377 81.9287 18.7598 81.9287 18.8574C81.9287 18.9355 81.8164 19.0869 81.5918 19.3115C81.377 19.5264 81.0352 19.7461 80.5664 19.9707C80.1074 20.1855 79.6289 20.293 79.1309 20.293C78.252 20.293 77.5879 20.1562 77.1387 19.8828C76.6895 19.5996 76.377 19.1602 76.2012 18.5645H76.1279ZM76.1719 17.4512V13.4229L74.458 13.9355C73.4814 14.2383 72.8174 14.6045 72.4658 15.0342C72.1143 15.4639 71.9385 16.0205 71.9385 16.7041C71.9385 18.0029 72.5684 18.6523 73.8281 18.6523C74.3945 18.6523 75.1758 18.252 76.1719 17.4512ZM87.9492 8.38379V15.957C87.9492 17.4219 88.208 18.1494 88.7256 18.1396C89.4678 18.1396 90.1465 17.8906 90.7617 17.3926L91.4502 18.0811C90.3271 19.5654 88.916 20.3027 87.2168 20.293C85.498 20.293 84.6387 19.2773 84.6387 17.2461V8.38379H83.1152C82.7539 8.38379 82.5732 8.30566 82.5732 8.14941V7.22656C82.5732 7.07031 82.9541 6.9873 83.7158 6.97754C84.4189 6.97754 84.8926 6.66504 85.1367 6.04004C85.3906 5.40527 85.5176 4.41895 85.5176 3.08105L87.9492 2.14355V6.97754H90.791C91.2305 6.97754 91.4502 7.08008 91.4502 7.28516V7.88574C91.4502 8.22754 91.0791 8.39355 90.3369 8.38379H87.9492ZM96.5186 11.4453H101.323C101.362 11.4062 101.382 11.2988 101.382 11.123C101.382 10.0391 101.167 9.23828 100.737 8.7207C100.308 8.20312 99.8438 7.94434 99.3457 7.94434C99.1504 7.94434 98.9307 7.98828 98.6865 8.07617C98.4424 8.16406 98.1689 8.32031 97.8662 8.54492C97.5732 8.75977 97.2998 9.11621 97.0459 9.61426C96.792 10.1123 96.6162 10.7227 96.5186 11.4453ZM103.813 16.7334L104.561 17.3633C103.604 19.3262 101.846 20.3027 99.2871 20.293C97.1484 20.293 95.5518 19.707 94.4971 18.5352C93.4521 17.3535 92.9297 15.8594 92.9297 14.0527C92.9297 11.875 93.584 10.1025 94.8926 8.73535C96.2012 7.36816 97.6953 6.68457 99.375 6.68457C101.377 6.68457 102.788 7.19727 103.608 8.22266C104.429 9.23828 104.839 10.5029 104.839 12.0166C104.839 12.4365 104.448 12.6465 103.667 12.6465H96.3721V13.4229C96.3721 14.9072 96.7627 16.1475 97.5439 17.1436C98.3252 18.1299 99.2969 18.623 100.459 18.623C101.66 18.623 102.778 17.9932 103.813 16.7334ZM111.973 8.57422C113.613 7.31445 115.122 6.68457 116.499 6.68457C117.983 6.68457 118.965 7.09473 119.443 7.91504C119.922 8.73535 120.161 9.93164 120.161 11.5039V17.7148C120.161 18.0957 120.269 18.3691 120.483 18.5352C120.708 18.6914 121.089 18.8379 121.626 18.9746L121.875 19.0332C122.031 19.0723 122.109 19.165 122.109 19.3115V20L122.051 20.0586C120.449 20.0195 119.258 20 118.477 20L115.122 20.0586L115.063 20V19.3115C115.063 19.1748 115.142 19.082 115.298 19.0332L115.43 19.0039C115.947 18.8672 116.313 18.7207 116.528 18.5645C116.753 18.3984 116.865 18.1152 116.865 17.7148V11.2988C116.865 10.2148 116.782 9.45312 116.616 9.01367C116.46 8.57422 116.123 8.35449 115.605 8.35449C114.688 8.35449 113.477 8.82812 111.973 9.77539V17.7148C111.973 18.0957 112.085 18.3789 112.31 18.5645C112.544 18.7402 112.91 18.8867 113.408 19.0039L113.525 19.0332C113.682 19.0723 113.765 19.165 113.774 19.3115V20L113.716 20.0586C112.192 20.0195 111.04 20 110.259 20L106.787 20.0586L106.729 20V19.3115C106.729 19.1748 106.807 19.082 106.963 19.0332L107.227 18.9746C107.764 18.8574 108.14 18.7207 108.354 18.5645C108.569 18.3984 108.677 18.1152 108.677 17.7148V10.376C108.677 9.67285 108.623 9.21387 108.516 8.99902C108.418 8.77441 108.252 8.65234 108.018 8.63281L106.787 8.51562L106.729 7.49023C109.17 7.16797 110.85 6.87012 111.768 6.59668C111.904 6.59668 111.973 6.62598 111.973 6.68457L111.914 8.57422H111.973ZM128.613 8.38379V15.957C128.613 17.4219 128.872 18.1494 129.39 18.1396C130.132 18.1396 130.811 17.8906 131.426 17.3926L132.114 18.0811C130.991 19.5654 129.58 20.3027 127.881 20.293C126.162 20.293 125.303 19.2773 125.303 17.2461V8.38379H123.779C123.418 8.38379 123.237 8.30566 123.237 8.14941V7.22656C123.237 7.07031 123.618 6.9873 124.38 6.97754C125.083 6.97754 125.557 6.66504 125.801 6.04004C126.055 5.40527 126.182 4.41895 126.182 3.08105L128.613 2.14355V6.97754H131.455C131.895 6.97754 132.114 7.08008 132.114 7.28516V7.88574C132.114 8.22754 131.743 8.39355 131.001 8.38379H128.613ZM6.21094 42.5742C7.43164 41.3145 8.71094 40.6846 10.0488 40.6846C10.5664 40.6846 10.9863 40.8604 11.3086 41.2119C11.6309 41.5537 11.792 41.9346 11.792 42.3545C11.792 42.833 11.6504 43.2383 11.3672 43.5703C11.0938 43.9023 10.7324 44.0684 10.2832 44.0684C10.0195 44.0684 9.76562 44.0098 9.52148 43.8926C9.28711 43.7656 9.09668 43.6289 8.9502 43.4824C8.80371 43.3262 8.65234 43.1846 8.49609 43.0576C8.33984 42.9307 8.20312 42.8672 8.08594 42.8672C7.72461 42.8672 7.3584 42.999 6.9873 43.2627C6.46973 43.624 6.21094 44.3223 6.21094 45.3574V51.6855C6.21094 51.9492 6.26953 52.1689 6.38672 52.3447C6.51367 52.5107 6.66992 52.6377 6.85547 52.7256C7.04102 52.8135 7.30469 52.8965 7.64648 52.9746L7.89551 53.0332C8.05176 53.0723 8.12988 53.165 8.12988 53.3115V54L8.07129 54.0586C6.46973 54.0195 5.27832 54 4.49707 54L1.02539 54.0586L0.966797 54V53.3115C0.966797 53.1553 1.03516 53.0625 1.17188 53.0332L1.46484 52.9746C1.96289 52.877 2.3291 52.7354 2.56348 52.5498C2.79785 52.3545 2.91504 52.0664 2.91504 51.6855V44.376C2.91504 43.6729 2.86133 43.2139 2.75391 42.999C2.65625 42.7744 2.49023 42.6523 2.25586 42.6328L1.02539 42.5156L0.966797 41.4902C3.4082 41.168 5.08789 40.8701 6.00586 40.5967C6.14258 40.5967 6.21094 40.626 6.21094 40.6846L6.15234 42.5742H6.21094ZM16.5088 45.4453H21.3135C21.3525 45.4062 21.3721 45.2988 21.3721 45.123C21.3721 44.0391 21.1572 43.2383 20.7275 42.7207C20.2979 42.2031 19.834 41.9443 19.3359 41.9443C19.1406 41.9443 18.9209 41.9883 18.6768 42.0762C18.4326 42.1641 18.1592 42.3203 17.8564 42.5449C17.5635 42.7598 17.29 43.1162 17.0361 43.6143C16.7822 44.1123 16.6064 44.7227 16.5088 45.4453ZM23.8037 50.7334L24.5508 51.3633C23.5938 53.3262 21.8359 54.3027 19.2773 54.293C17.1387 54.293 15.542 53.707 14.4873 52.5352C13.4424 51.3535 12.9199 49.8594 12.9199 48.0527C12.9199 45.875 13.5742 44.1025 14.8828 42.7354C16.1914 41.3682 17.6855 40.6846 19.3652 40.6846C21.3672 40.6846 22.7783 41.1973 23.5986 42.2227C24.4189 43.2383 24.8291 44.5029 24.8291 46.0166C24.8291 46.4365 24.4385 46.6465 23.6572 46.6465H16.3623V47.4229C16.3623 48.9072 16.7529 50.1475 17.5342 51.1436C18.3154 52.1299 19.2871 52.623 20.4492 52.623C21.6504 52.623 22.7686 51.9932 23.8037 50.7334ZM31.5674 43.7754V52.0518C32.1826 52.7158 32.793 53.043 33.3984 53.0332C34.5996 53.0332 35.4834 52.5107 36.0498 51.4658C36.626 50.4111 36.9141 49.1562 36.9141 47.7012C36.9141 44.0586 36.0254 42.2373 34.248 42.2373C33.3789 42.2471 32.4854 42.7598 31.5674 43.7754ZM31.5674 42.5742C32.6709 41.3145 33.8818 40.6846 35.2002 40.6846C36.7627 40.6846 38.0127 41.2998 38.9502 42.5303C39.8877 43.7607 40.3564 45.2158 40.3564 46.8955C40.3564 49.1514 39.5898 51.0508 38.0566 52.5938C36.9141 53.7363 35.4248 54.3027 33.5889 54.293C32.9053 54.293 32.2314 54.127 31.5674 53.7949V58.6143C31.5674 59.0146 31.6748 59.3027 31.8896 59.4785C32.1143 59.6641 32.4902 59.8203 33.0176 59.9473L33.252 60.0059C33.4082 60.0449 33.4863 60.123 33.4863 60.2402V60.958L33.457 61.0166C31.8359 60.9775 30.6396 60.958 29.8682 60.958L26.3818 61.0166L26.3232 60.958V60.2402C26.3232 60.123 26.4014 60.0449 26.5576 60.0059L26.8359 59.9473C27.3535 59.8301 27.7197 59.6787 27.9346 59.4932C28.1592 59.3076 28.2715 59.0146 28.2715 58.6143V44.376C28.2715 43.6729 28.2227 43.2139 28.125 42.999C28.0273 42.7744 27.8564 42.6523 27.6123 42.6328L26.3818 42.5156L26.3232 41.4902C28.7646 41.168 30.4443 40.8701 31.3623 40.5967C31.499 40.5967 31.5674 40.626 31.5674 40.6846L31.5088 42.5742H31.5674ZM47.6367 42.5742C48.8574 41.3145 50.1367 40.6846 51.4746 40.6846C51.9922 40.6846 52.4121 40.8604 52.7344 41.2119C53.0566 41.5537 53.2178 41.9346 53.2178 42.3545C53.2178 42.833 53.0762 43.2383 52.793 43.5703C52.5195 43.9023 52.1582 44.0684 51.709 44.0684C51.4453 44.0684 51.1914 44.0098 50.9473 43.8926C50.7129 43.7656 50.5225 43.6289 50.376 43.4824C50.2295 43.3262 50.0781 43.1846 49.9219 43.0576C49.7656 42.9307 49.6289 42.8672 49.5117 42.8672C49.1504 42.8672 48.7842 42.999 48.4131 43.2627C47.8955 43.624 47.6367 44.3223 47.6367 45.3574V51.6855C47.6367 51.9492 47.6953 52.1689 47.8125 52.3447C47.9395 52.5107 48.0957 52.6377 48.2812 52.7256C48.4668 52.8135 48.7305 52.8965 49.0723 52.9746L49.3213 53.0332C49.4775 53.0723 49.5557 53.165 49.5557 53.3115V54L49.4971 54.0586C47.8955 54.0195 46.7041 54 45.9229 54L42.4512 54.0586L42.3926 54V53.3115C42.3926 53.1553 42.4609 53.0625 42.5977 53.0332L42.8906 52.9746C43.3887 52.877 43.7549 52.7354 43.9893 52.5498C44.2236 52.3545 44.3408 52.0664 44.3408 51.6855V44.376C44.3408 43.6729 44.2871 43.2139 44.1797 42.999C44.082 42.7744 43.916 42.6523 43.6816 42.6328L42.4512 42.5156L42.3926 41.4902C44.834 41.168 46.5137 40.8701 47.4316 40.5967C47.5684 40.5967 47.6367 40.626 47.6367 40.6846L47.5781 42.5742H47.6367ZM57.9346 45.4453H62.7393C62.7783 45.4062 62.7979 45.2988 62.7979 45.123C62.7979 44.0391 62.583 43.2383 62.1533 42.7207C61.7236 42.2031 61.2598 41.9443 60.7617 41.9443C60.5664 41.9443 60.3467 41.9883 60.1025 42.0762C59.8584 42.1641 59.585 42.3203 59.2822 42.5449C58.9893 42.7598 58.7158 43.1162 58.4619 43.6143C58.208 44.1123 58.0322 44.7227 57.9346 45.4453ZM65.2295 50.7334L65.9766 51.3633C65.0195 53.3262 63.2617 54.3027 60.7031 54.293C58.5645 54.293 56.9678 53.707 55.9131 52.5352C54.8682 51.3535 54.3457 49.8594 54.3457 48.0527C54.3457 45.875 55 44.1025 56.3086 42.7354C57.6172 41.3682 59.1113 40.6846 60.791 40.6846C62.793 40.6846 64.2041 41.1973 65.0244 42.2227C65.8447 43.2383 66.2549 44.5029 66.2549 46.0166C66.2549 46.4365 65.8643 46.6465 65.083 46.6465H57.7881V47.4229C57.7881 48.9072 58.1787 50.1475 58.96 51.1436C59.7412 52.1299 60.7129 52.623 61.875 52.623C63.0762 52.623 64.1943 51.9932 65.2295 50.7334ZM68.2617 49.6201L69.4629 49.5615C69.7461 50.8994 70.1318 51.832 70.6201 52.3594C71.1084 52.877 71.8994 53.1357 72.9932 53.1357C73.4521 53.1357 73.8623 52.9697 74.2236 52.6377C74.585 52.3057 74.7656 51.8174 74.7656 51.1729C74.7656 50.5576 74.6338 50.084 74.3701 49.752C74.1162 49.4199 73.5889 49.1172 72.7881 48.8438C71.792 48.4824 70.8496 47.9111 69.9609 47.1299C69.082 46.3486 68.6426 45.4307 68.6426 44.376C68.6426 43.3408 69.082 42.4668 69.9609 41.7539C70.8496 41.041 71.9727 40.6846 73.3301 40.6846C74.7461 40.6846 76.0254 40.9629 77.168 41.5195C77.3047 42.5156 77.417 43.5361 77.5049 44.5811L76.333 44.7275C76.0498 43.7119 75.6689 42.9941 75.1904 42.5742C74.7119 42.1543 74.1211 41.9443 73.418 41.9443C72.959 41.9443 72.5635 42.0908 72.2314 42.3838C71.8994 42.667 71.7334 43.0869 71.7334 43.6436C71.7334 44.708 72.2852 45.4404 73.3887 45.8408C74.8535 46.3779 76.0059 47.0078 76.8457 47.7305C77.6855 48.4531 78.1055 49.3516 78.1055 50.4258C78.1055 51.7246 77.5781 52.6963 76.5234 53.3408C75.4688 53.9756 74.2627 54.293 72.9053 54.293C72.4463 54.293 71.7529 54.2295 70.8252 54.1025C69.8975 53.9756 69.1602 53.9219 68.6133 53.9414C68.623 52.8379 68.5059 51.3975 68.2617 49.6201ZM83.8037 45.4453H88.6084C88.6475 45.4062 88.667 45.2988 88.667 45.123C88.667 44.0391 88.4521 43.2383 88.0225 42.7207C87.5928 42.2031 87.1289 41.9443 86.6309 41.9443C86.4355 41.9443 86.2158 41.9883 85.9717 42.0762C85.7275 42.1641 85.4541 42.3203 85.1514 42.5449C84.8584 42.7598 84.585 43.1162 84.3311 43.6143C84.0771 44.1123 83.9014 44.7227 83.8037 45.4453ZM91.0986 50.7334L91.8457 51.3633C90.8887 53.3262 89.1309 54.3027 86.5723 54.293C84.4336 54.293 82.8369 53.707 81.7822 52.5352C80.7373 51.3535 80.2148 49.8594 80.2148 48.0527C80.2148 45.875 80.8691 44.1025 82.1777 42.7354C83.4863 41.3682 84.9805 40.6846 86.6602 40.6846C88.6621 40.6846 90.0732 41.1973 90.8936 42.2227C91.7139 43.2383 92.124 44.5029 92.124 46.0166C92.124 46.4365 91.7334 46.6465 90.9521 46.6465H83.6572V47.4229C83.6572 48.9072 84.0479 50.1475 84.8291 51.1436C85.6104 52.1299 86.582 52.623 87.7441 52.623C88.9453 52.623 90.0635 51.9932 91.0986 50.7334ZM99.2578 42.5742C100.898 41.3145 102.407 40.6846 103.784 40.6846C105.269 40.6846 106.25 41.0947 106.729 41.915C107.207 42.7354 107.446 43.9316 107.446 45.5039V51.7148C107.446 52.0957 107.554 52.3691 107.769 52.5352C107.993 52.6914 108.374 52.8379 108.911 52.9746L109.16 53.0332C109.316 53.0723 109.395 53.165 109.395 53.3115V54L109.336 54.0586C107.734 54.0195 106.543 54 105.762 54L102.407 54.0586L102.349 54V53.3115C102.349 53.1748 102.427 53.082 102.583 53.0332L102.715 53.0039C103.232 52.8672 103.599 52.7207 103.813 52.5645C104.038 52.3984 104.15 52.1152 104.15 51.7148V45.2988C104.15 44.2148 104.067 43.4531 103.901 43.0137C103.745 42.5742 103.408 42.3545 102.891 42.3545C101.973 42.3545 100.762 42.8281 99.2578 43.7754V51.7148C99.2578 52.0957 99.3701 52.3789 99.5947 52.5645C99.8291 52.7402 100.195 52.8867 100.693 53.0039L100.811 53.0332C100.967 53.0723 101.05 53.165 101.06 53.3115V54L101.001 54.0586C99.4775 54.0195 98.3252 54 97.5439 54L94.0723 54.0586L94.0137 54V53.3115C94.0137 53.1748 94.0918 53.082 94.248 53.0332L94.5117 52.9746C95.0488 52.8574 95.4248 52.7207 95.6396 52.5645C95.8545 52.3984 95.9619 52.1152 95.9619 51.7148V44.376C95.9619 43.6729 95.9082 43.2139 95.8008 42.999C95.7031 42.7744 95.5371 42.6523 95.3027 42.6328L94.0723 42.5156L94.0137 41.4902C96.4551 41.168 98.1348 40.8701 99.0527 40.5967C99.1895 40.5967 99.2578 40.626 99.2578 40.6846L99.1992 42.5742H99.2578ZM115.898 42.3838V49.957C115.898 51.4219 116.157 52.1494 116.675 52.1396C117.417 52.1396 118.096 51.8906 118.711 51.3926L119.399 52.0811C118.276 53.5654 116.865 54.3027 115.166 54.293C113.447 54.293 112.588 53.2773 112.588 51.2461V42.3838H111.064C110.703 42.3838 110.522 42.3057 110.522 42.1494V41.2266C110.522 41.0703 110.903 40.9873 111.665 40.9775C112.368 40.9775 112.842 40.665 113.086 40.04C113.34 39.4053 113.467 38.4189 113.467 37.0811L115.898 36.1436V40.9775H118.74C119.18 40.9775 119.399 41.0801 119.399 41.2852V41.8857C119.399 42.2275 119.028 42.3936 118.286 42.3838H115.898ZM128.276 52.5645C126.938 53.7266 125.688 54.3027 124.526 54.293C123.247 54.293 122.329 54.0342 121.772 53.5166C121.216 52.999 120.938 52.208 120.938 51.1436C120.938 50.04 121.367 49.1904 122.227 48.5947C123.086 47.999 124.395 47.4424 126.152 46.9248L128.32 46.2949C128.32 44.5176 128.145 43.3311 127.793 42.7354C127.441 42.1299 126.914 41.8271 126.211 41.8271C125.615 41.8271 125.112 41.9199 124.702 42.1055C124.292 42.291 124.087 42.5449 124.087 42.8672C124.087 43.0918 124.116 43.3408 124.175 43.6143C124.233 43.8779 124.263 44.0586 124.263 44.1562C124.263 44.4004 124.102 44.6543 123.779 44.918C123.467 45.1719 123.11 45.2988 122.71 45.2988C121.772 45.2988 121.299 44.8789 121.289 44.0391C121.289 43.1797 121.885 42.4082 123.076 41.7246C124.268 41.0312 125.454 40.6846 126.636 40.6846C128.101 40.6846 129.287 41.0605 130.195 41.8125C131.104 42.5547 131.558 43.9072 131.558 45.8701V50.2207C131.558 50.6602 131.567 50.9971 131.587 51.2314C131.606 51.4561 131.65 51.7051 131.719 51.9785C131.787 52.2422 131.904 52.4375 132.07 52.5645C132.246 52.6816 132.471 52.7402 132.744 52.7402C133.027 52.7402 133.247 52.6621 133.403 52.5059C133.569 52.3398 133.662 52.2568 133.682 52.2568C133.74 52.2568 133.818 52.335 133.916 52.4912C134.023 52.6377 134.077 52.7598 134.077 52.8574C134.077 52.9355 133.965 53.0869 133.74 53.3115C133.525 53.5264 133.184 53.7461 132.715 53.9707C132.256 54.1855 131.777 54.293 131.279 54.293C130.4 54.293 129.736 54.1562 129.287 53.8828C128.838 53.5996 128.525 53.1602 128.35 52.5645H128.276ZM128.32 51.4512V47.4229L126.606 47.9355C125.63 48.2383 124.966 48.6045 124.614 49.0342C124.263 49.4639 124.087 50.0205 124.087 50.7041C124.087 52.0029 124.717 52.6523 125.977 52.6523C126.543 52.6523 127.324 52.252 128.32 51.4512ZM140.098 42.3838V49.957C140.098 51.4219 140.356 52.1494 140.874 52.1396C141.616 52.1396 142.295 51.8906 142.91 51.3926L143.599 52.0811C142.476 53.5654 141.064 54.3027 139.365 54.293C137.646 54.293 136.787 53.2773 136.787 51.2461V42.3838H135.264C134.902 42.3838 134.722 42.3057 134.722 42.1494V41.2266C134.722 41.0703 135.103 40.9873 135.864 40.9775C136.567 40.9775 137.041 40.665 137.285 40.04C137.539 39.4053 137.666 38.4189 137.666 37.0811L140.098 36.1436V40.9775H142.939C143.379 40.9775 143.599 41.0801 143.599 41.2852V41.8857C143.599 42.2275 143.228 42.3936 142.485 42.3838H140.098ZM150.381 44.3613V51.6855C150.381 52.0859 150.493 52.3789 150.718 52.5645C150.952 52.7402 151.309 52.877 151.787 52.9746L152.095 53.0332C152.251 53.0723 152.329 53.165 152.329 53.3115V54L152.271 54.0586C150.649 54.0195 149.448 54 148.667 54L145.166 54.0586L145.107 54V53.3115C145.107 53.1553 145.176 53.0625 145.312 53.0332L145.679 52.9746C146.177 52.8965 146.533 52.7646 146.748 52.5791C146.973 52.3838 147.085 52.0859 147.085 51.6855V44.376C147.085 43.6729 147.026 43.1943 146.909 42.9404C146.802 42.6768 146.641 42.5352 146.426 42.5156L145.195 42.3838L145.137 41.4902C147.812 41.1289 149.521 40.8311 150.264 40.5967C150.4 40.5967 150.469 40.626 150.469 40.6846C150.459 40.8506 150.449 41.0654 150.439 41.3291C150.439 41.5928 150.43 42.0518 150.41 42.7061C150.391 43.3604 150.381 43.9121 150.381 44.3613ZM147.422 38.1504C147.08 37.7988 146.909 37.374 146.909 36.876C146.909 36.3682 147.08 35.9434 147.422 35.6016C147.773 35.25 148.198 35.0742 148.696 35.0742C149.204 35.0742 149.629 35.25 149.971 35.6016C150.322 35.9434 150.498 36.3682 150.498 36.876C150.498 37.374 150.322 37.7988 149.971 38.1504C149.629 38.4922 149.204 38.6631 148.696 38.6631C148.198 38.6631 147.773 38.4922 147.422 38.1504ZM160.137 41.915C159.238 41.915 158.54 42.4375 158.042 43.4824C157.554 44.5176 157.31 45.7334 157.31 47.1299C157.31 47.9502 157.432 48.79 157.676 49.6494C157.92 50.5088 158.325 51.2852 158.892 51.9785C159.458 52.6621 160.122 53.0039 160.884 53.0039C161.587 53.0039 162.207 52.6768 162.744 52.0225C163.281 51.3584 163.55 50.1768 163.55 48.4775C163.55 46.3779 163.237 44.7617 162.612 43.6289C161.997 42.4863 161.172 41.915 160.137 41.915ZM153.662 47.7891C153.662 45.6699 154.258 43.9561 155.449 42.6475C156.65 41.3389 158.311 40.6846 160.43 40.6846C161.592 40.6846 162.627 40.8896 163.535 41.2998C164.453 41.71 165.166 42.2568 165.674 42.9404C166.182 43.6143 166.558 44.3418 166.802 45.123C167.056 45.9043 167.183 46.7051 167.183 47.5254C167.183 48.3066 167.041 49.0879 166.758 49.8691C166.484 50.6406 166.079 51.3633 165.542 52.0371C165.015 52.7012 164.307 53.2432 163.418 53.6631C162.529 54.083 161.523 54.293 160.4 54.293C158.32 54.293 156.675 53.6289 155.464 52.3008C154.263 50.9727 153.662 49.4688 153.662 47.7891ZM174.434 42.5742C176.074 41.3145 177.583 40.6846 178.96 40.6846C180.444 40.6846 181.426 41.0947 181.904 41.915C182.383 42.7354 182.622 43.9316 182.622 45.5039V51.7148C182.622 52.0957 182.729 52.3691 182.944 52.5352C183.169 52.6914 183.55 52.8379 184.087 52.9746L184.336 53.0332C184.492 53.0723 184.57 53.165 184.57 53.3115V54L184.512 54.0586C182.91 54.0195 181.719 54 180.938 54L177.583 54.0586L177.524 54V53.3115C177.524 53.1748 177.603 53.082 177.759 53.0332L177.891 53.0039C178.408 52.8672 178.774 52.7207 178.989 52.5645C179.214 52.3984 179.326 52.1152 179.326 51.7148V45.2988C179.326 44.2148 179.243 43.4531 179.077 43.0137C178.921 42.5742 178.584 42.3545 178.066 42.3545C177.148 42.3545 175.938 42.8281 174.434 43.7754V51.7148C174.434 52.0957 174.546 52.3789 174.771 52.5645C175.005 52.7402 175.371 52.8867 175.869 53.0039L175.986 53.0332C176.143 53.0723 176.226 53.165 176.235 53.3115V54L176.177 54.0586C174.653 54.0195 173.501 54 172.72 54L169.248 54.0586L169.189 54V53.3115C169.189 53.1748 169.268 53.082 169.424 53.0332L169.688 52.9746C170.225 52.8574 170.601 52.7207 170.815 52.5645C171.03 52.3984 171.138 52.1152 171.138 51.7148V44.376C171.138 43.6729 171.084 43.2139 170.977 42.999C170.879 42.7744 170.713 42.6523 170.479 42.6328L169.248 42.5156L169.189 41.4902C171.631 41.168 173.311 40.8701 174.229 40.5967C174.365 40.5967 174.434 40.626 174.434 40.6846L174.375 42.5742H174.434ZM200.098 41.915C199.199 41.915 198.501 42.4375 198.003 43.4824C197.515 44.5176 197.271 45.7334 197.271 47.1299C197.271 47.9502 197.393 48.79 197.637 49.6494C197.881 50.5088 198.286 51.2852 198.853 51.9785C199.419 52.6621 200.083 53.0039 200.845 53.0039C201.548 53.0039 202.168 52.6768 202.705 52.0225C203.242 51.3584 203.511 50.1768 203.511 48.4775C203.511 46.3779 203.198 44.7617 202.573 43.6289C201.958 42.4863 201.133 41.915 200.098 41.915ZM193.623 47.7891C193.623 45.6699 194.219 43.9561 195.41 42.6475C196.611 41.3389 198.271 40.6846 200.391 40.6846C201.553 40.6846 202.588 40.8896 203.496 41.2998C204.414 41.71 205.127 42.2568 205.635 42.9404C206.143 43.6143 206.519 44.3418 206.763 45.123C207.017 45.9043 207.144 46.7051 207.144 47.5254C207.144 48.3066 207.002 49.0879 206.719 49.8691C206.445 50.6406 206.04 51.3633 205.503 52.0371C204.976 52.7012 204.268 53.2432 203.379 53.6631C202.49 54.083 201.484 54.293 200.361 54.293C198.281 54.293 196.636 53.6289 195.425 52.3008C194.224 50.9727 193.623 49.4688 193.623 47.7891ZM211.128 51.7441V42.3838H209.751C209.214 42.3838 208.94 42.2861 208.931 42.0908V41.666C208.931 41.5098 209.033 41.3584 209.238 41.2119C209.453 41.0557 209.79 40.9775 210.249 40.9775H211.128V40.6846C211.128 38.3213 211.68 36.4609 212.783 35.1035C213.896 33.7363 215.215 33.0527 216.738 33.0527C217.48 33.0527 218.14 33.1455 218.716 33.3311C219.292 33.5068 219.727 33.7266 220.02 33.9902C220.312 34.2539 220.532 34.498 220.679 34.7227C220.825 34.9375 220.898 35.123 220.898 35.2793C220.898 35.6797 220.771 36.0312 220.518 36.334C220.273 36.627 219.941 36.7734 219.521 36.7734C218.76 36.7734 218.149 36.3779 217.69 35.5869C217.251 34.7471 216.743 34.3271 216.167 34.3271C215.005 34.3271 214.424 36.0361 214.424 39.4541V40.9775H217.31C217.71 40.9775 217.91 41.0801 217.91 41.2852V41.8857C217.91 42.2275 217.559 42.3936 216.855 42.3838H214.424V51.6562C214.424 52.418 214.966 52.8574 216.05 52.9746L216.577 53.0332C216.733 53.0723 216.816 53.165 216.826 53.3115V54L216.768 54.0586C214.844 54.0195 213.491 54 212.71 54L209.077 54.0586L209.019 54V53.3115C209.019 53.1748 209.102 53.082 209.268 53.0332L209.678 52.9746C210.195 52.8965 210.566 52.7744 210.791 52.6084C211.016 52.4326 211.128 52.1445 211.128 51.7441ZM2.97363 85.7441V76.3838H1.59668C1.05957 76.3838 0.786133 76.2861 0.776367 76.0908V75.666C0.776367 75.5098 0.878906 75.3584 1.08398 75.2119C1.29883 75.0557 1.63574 74.9775 2.09473 74.9775H2.97363V74.6846C2.97363 72.3213 3.52539 70.4609 4.62891 69.1035C5.74219 67.7363 7.06055 67.0527 8.58398 67.0527C9.32617 67.0527 9.98535 67.1455 10.5615 67.3311C11.1377 67.5068 11.5723 67.7266 11.8652 67.9902C12.1582 68.2539 12.3779 68.498 12.5244 68.7227C12.6709 68.9375 12.7441 69.123 12.7441 69.2793C12.7441 69.6797 12.6172 70.0312 12.3633 70.334C12.1191 70.627 11.7871 70.7734 11.3672 70.7734C10.6055 70.7734 9.99512 70.3779 9.53613 69.5869C9.09668 68.7471 8.58887 68.3271 8.0127 68.3271C6.85059 68.3271 6.26953 70.0361 6.26953 73.4541V74.9775H9.15527C9.55566 74.9775 9.75586 75.0801 9.75586 75.2852V75.8857C9.75586 76.2275 9.4043 76.3936 8.70117 76.3838H6.26953V85.6562C6.26953 86.418 6.81152 86.8574 7.89551 86.9746L8.42285 87.0332C8.5791 87.0723 8.66211 87.165 8.67188 87.3115V88L8.61328 88.0586C6.68945 88.0195 5.33691 88 4.55566 88L0.922852 88.0586L0.864258 88V87.3115C0.864258 87.1748 0.947266 87.082 1.11328 87.0332L1.52344 86.9746C2.04102 86.8965 2.41211 86.7744 2.63672 86.6084C2.86133 86.4326 2.97363 86.1445 2.97363 85.7441ZM17.5781 75.915C16.6797 75.915 15.9814 76.4375 15.4834 77.4824C14.9951 78.5176 14.751 79.7334 14.751 81.1299C14.751 81.9502 14.873 82.79 15.1172 83.6494C15.3613 84.5088 15.7666 85.2852 16.333 85.9785C16.8994 86.6621 17.5635 87.0039 18.3252 87.0039C19.0283 87.0039 19.6484 86.6768 20.1855 86.0225C20.7227 85.3584 20.9912 84.1768 20.9912 82.4775C20.9912 80.3779 20.6787 78.7617 20.0537 77.6289C19.4385 76.4863 18.6133 75.915 17.5781 75.915ZM11.1035 81.7891C11.1035 79.6699 11.6992 77.9561 12.8906 76.6475C14.0918 75.3389 15.752 74.6846 17.8711 74.6846C19.0332 74.6846 20.0684 74.8896 20.9766 75.2998C21.8945 75.71 22.6074 76.2568 23.1152 76.9404C23.623 77.6143 23.999 78.3418 24.2432 79.123C24.4971 79.9043 24.624 80.7051 24.624 81.5254C24.624 82.3066 24.4824 83.0879 24.1992 83.8691C23.9258 84.6406 23.5205 85.3633 22.9834 86.0371C22.4561 86.7012 21.748 87.2432 20.8594 87.6631C19.9707 88.083 18.9648 88.293 17.8418 88.293C15.7617 88.293 14.1162 87.6289 12.9053 86.3008C11.7041 84.9727 11.1035 83.4688 11.1035 81.7891ZM31.875 76.5742C33.5156 75.3145 35.0244 74.6846 36.4014 74.6846C37.8857 74.6846 38.8672 75.0947 39.3457 75.915C39.8242 76.7354 40.0635 77.9316 40.0635 79.5039V85.7148C40.0635 86.0957 40.1709 86.3691 40.3857 86.5352C40.6104 86.6914 40.9912 86.8379 41.5283 86.9746L41.7773 87.0332C41.9336 87.0723 42.0117 87.165 42.0117 87.3115V88L41.9531 88.0586C40.3516 88.0195 39.1602 88 38.3789 88L35.0244 88.0586L34.9658 88V87.3115C34.9658 87.1748 35.0439 87.082 35.2002 87.0332L35.332 87.0039C35.8496 86.8672 36.2158 86.7207 36.4307 86.5645C36.6553 86.3984 36.7676 86.1152 36.7676 85.7148V79.2988C36.7676 78.2148 36.6846 77.4531 36.5186 77.0137C36.3623 76.5742 36.0254 76.3545 35.5078 76.3545C34.5898 76.3545 33.3789 76.8281 31.875 77.7754V85.7148C31.875 86.0957 31.9873 86.3789 32.2119 86.5645C32.4463 86.7402 32.8125 86.8867 33.3105 87.0039L33.4277 87.0332C33.584 87.0723 33.667 87.165 33.6768 87.3115V88L33.6182 88.0586C32.0947 88.0195 30.9424 88 30.1611 88L26.6895 88.0586L26.6309 88V87.3115C26.6309 87.1748 26.709 87.082 26.8652 87.0332L27.1289 86.9746C27.666 86.8574 28.042 86.7207 28.2568 86.5645C28.4717 86.3984 28.5791 86.1152 28.5791 85.7148V78.376C28.5791 77.6729 28.5254 77.2139 28.418 76.999C28.3203 76.7744 28.1543 76.6523 27.9199 76.6328L26.6895 76.5156L26.6309 75.4902C29.0723 75.168 30.752 74.8701 31.6699 74.5967C31.8066 74.5967 31.875 74.626 31.875 74.6846L31.8164 76.5742H31.875ZM48.5156 76.3838V83.957C48.5156 85.4219 48.7744 86.1494 49.292 86.1396C50.0342 86.1396 50.7129 85.8906 51.3281 85.3926L52.0166 86.0811C50.8936 87.5654 49.4824 88.3027 47.7832 88.293C46.0645 88.293 45.2051 87.2773 45.2051 85.2461V76.3838H43.6816C43.3203 76.3838 43.1396 76.3057 43.1396 76.1494V75.2266C43.1396 75.0703 43.5205 74.9873 44.2822 74.9775C44.9854 74.9775 45.459 74.665 45.7031 74.04C45.957 73.4053 46.084 72.4189 46.084 71.0811L48.5156 70.1436V74.9775H51.3574C51.7969 74.9775 52.0166 75.0801 52.0166 75.2852V75.8857C52.0166 76.2275 51.6455 76.3936 50.9033 76.3838H48.5156ZM61.084 83.6201L62.2852 83.5615C62.5684 84.8994 62.9541 85.832 63.4424 86.3594C63.9307 86.877 64.7217 87.1357 65.8154 87.1357C66.2744 87.1357 66.6846 86.9697 67.0459 86.6377C67.4072 86.3057 67.5879 85.8174 67.5879 85.1729C67.5879 84.5576 67.4561 84.084 67.1924 83.752C66.9385 83.4199 66.4111 83.1172 65.6104 82.8438C64.6143 82.4824 63.6719 81.9111 62.7832 81.1299C61.9043 80.3486 61.4648 79.4307 61.4648 78.376C61.4648 77.3408 61.9043 76.4668 62.7832 75.7539C63.6719 75.041 64.7949 74.6846 66.1523 74.6846C67.5684 74.6846 68.8477 74.9629 69.9902 75.5195C70.127 76.5156 70.2393 77.5361 70.3271 78.5811L69.1553 78.7275C68.8721 77.7119 68.4912 76.9941 68.0127 76.5742C67.5342 76.1543 66.9434 75.9443 66.2402 75.9443C65.7812 75.9443 65.3857 76.0908 65.0537 76.3838C64.7217 76.667 64.5557 77.0869 64.5557 77.6436C64.5557 78.708 65.1074 79.4404 66.2109 79.8408C67.6758 80.3779 68.8281 81.0078 69.668 81.7305C70.5078 82.4531 70.9277 83.3516 70.9277 84.4258C70.9277 85.7246 70.4004 86.6963 69.3457 87.3408C68.291 87.9756 67.085 88.293 65.7275 88.293C65.2686 88.293 64.5752 88.2295 63.6475 88.1025C62.7197 87.9756 61.9824 87.9219 61.4355 87.9414C61.4453 86.8379 61.3281 85.3975 61.084 83.6201ZM77.9883 76.3838V83.957C77.9883 85.4219 78.2471 86.1494 78.7646 86.1396C79.5068 86.1396 80.1855 85.8906 80.8008 85.3926L81.4893 86.0811C80.3662 87.5654 78.9551 88.3027 77.2559 88.293C75.5371 88.293 74.6777 87.2773 74.6777 85.2461V76.3838H73.1543C72.793 76.3838 72.6123 76.3057 72.6123 76.1494V75.2266C72.6123 75.0703 72.9932 74.9873 73.7549 74.9775C74.458 74.9775 74.9316 74.665 75.1758 74.04C75.4297 73.4053 75.5566 72.4189 75.5566 71.0811L77.9883 70.1436V74.9775H80.8301C81.2695 74.9775 81.4893 75.0801 81.4893 75.2852V75.8857C81.4893 76.2275 81.1182 76.3936 80.376 76.3838H77.9883ZM94.9072 77.7754L89.9268 90.124C89.7021 90.6904 89.4824 91.1836 89.2676 91.6035C89.0625 92.0332 88.8135 92.4678 88.5205 92.9072C88.2275 93.3564 87.9248 93.7227 87.6123 94.0059C87.3096 94.2891 86.9482 94.5186 86.5283 94.6943C86.1182 94.8799 85.6787 94.9727 85.21 94.9727C84.7412 94.9727 84.2432 94.8359 83.7158 94.5625C83.1982 94.2891 82.9395 93.8789 82.9395 93.332C82.9395 93.0879 82.9883 92.8633 83.0859 92.6582C83.1934 92.4629 83.3301 92.3018 83.4961 92.1748C83.6621 92.0479 83.8477 91.9502 84.0527 91.8818C84.2676 91.8232 84.4824 91.7939 84.6973 91.7939C84.9219 91.7939 85.1611 91.8672 85.415 92.0137C85.6689 92.1699 85.8496 92.3311 85.957 92.4971C86.1816 92.8389 86.3721 93.0098 86.5283 93.0098C86.6064 93.0098 86.7285 92.9121 86.8945 92.7168C87.0703 92.5312 87.2998 92.1846 87.583 91.6768C87.8662 91.1689 88.1348 90.5537 88.3887 89.8311L88.9307 88.3662L84.6973 77.9219C84.375 77.1406 84.0771 76.6182 83.8037 76.3545C83.54 76.0811 83.1201 75.9443 82.5439 75.9443C82.3486 75.9443 82.2461 75.8711 82.2363 75.7246V74.9775L82.3389 74.9189C83.6377 74.958 84.6973 74.9775 85.5176 74.9775L89.1504 74.9189L89.2676 74.9775V75.6953C89.2676 75.8516 89.1846 75.9346 89.0186 75.9443C88.4424 75.9443 88.0664 76.0566 87.8906 76.2812C87.7246 76.4961 87.7344 76.833 87.9199 77.292L90.7031 84.8506C91.8848 81.9502 92.8027 79.4502 93.457 77.3506C93.7793 76.4131 93.3838 75.9443 92.2705 75.9443C92.1143 75.9443 92.0312 75.8711 92.0215 75.7246V75.0068L92.1387 74.9189C93.4961 74.958 94.6191 74.9775 95.5078 74.9775L97.4268 74.9189L97.4854 74.9775V75.666C97.4854 75.8418 97.373 75.9346 97.1484 75.9443C96.1523 75.9443 95.4053 76.5547 94.9072 77.7754ZM100.796 71.1104C100.796 70.1924 100.728 69.5967 100.591 69.3232C100.464 69.0498 100.229 68.9131 99.8877 68.9131L98.9355 68.8545C98.8184 68.8545 98.7549 68.8057 98.7451 68.708L98.6572 67.8438C99.3994 67.7852 100.337 67.6777 101.47 67.5215C102.612 67.3555 103.354 67.1992 103.696 67.0527C104.019 67.0527 104.18 67.1553 104.18 67.3604C104.121 68.1611 104.092 69.2109 104.092 70.5098V85.6855C104.092 86.0859 104.204 86.3789 104.429 86.5645C104.663 86.7402 105.039 86.877 105.557 86.9746L105.894 87.0332C106.05 87.0527 106.128 87.1455 106.128 87.3115V88L106.069 88.0586C104.39 88.0195 103.159 88 102.378 88L98.8037 88.0586L98.7451 88V87.3115C98.7451 87.1553 98.8281 87.0625 98.9941 87.0332L99.3457 86.9746C99.8438 86.8965 100.21 86.7646 100.444 86.5791C100.679 86.3838 100.796 86.0859 100.796 85.6855V71.1104ZM111.226 79.4453H116.03C116.069 79.4062 116.089 79.2988 116.089 79.123C116.089 78.0391 115.874 77.2383 115.444 76.7207C115.015 76.2031 114.551 75.9443 114.053 75.9443C113.857 75.9443 113.638 75.9883 113.394 76.0762C113.149 76.1641 112.876 76.3203 112.573 76.5449C112.28 76.7598 112.007 77.1162 111.753 77.6143C111.499 78.1123 111.323 78.7227 111.226 79.4453ZM118.521 84.7334L119.268 85.3633C118.311 87.3262 116.553 88.3027 113.994 88.293C111.855 88.293 110.259 87.707 109.204 86.5352C108.159 85.3535 107.637 83.8594 107.637 82.0527C107.637 79.875 108.291 78.1025 109.6 76.7354C110.908 75.3682 112.402 74.6846 114.082 74.6846C116.084 74.6846 117.495 75.1973 118.315 76.2227C119.136 77.2383 119.546 78.5029 119.546 80.0166C119.546 80.4365 119.155 80.6465 118.374 80.6465H111.079V81.4229C111.079 82.9072 111.47 84.1475 112.251 85.1436C113.032 86.1299 114.004 86.623 115.166 86.623C116.367 86.623 117.485 85.9932 118.521 84.7334Z" fill="black"/>
</svg>
