<svg width="224" height="63" viewBox="0 0 224 63" fill="none" xmlns="http://www.w3.org/2000/svg">
<path d="M8.12988 6.20508C6.77246 8.04102 4.96094 10.7803 2.69531 14.4229H8.12988V6.20508ZM14.0039 14.4229C14.3066 14.4229 14.458 14.584 14.458 14.9062C14.458 15.1016 14.3604 15.3213 14.165 15.5654C13.9795 15.8096 13.7891 15.9316 13.5938 15.9316H11.2207V18.5684C11.2207 18.8906 11.2451 19.1494 11.2939 19.3447C11.3428 19.5303 11.4697 19.667 11.6748 19.7549C11.8896 19.8428 12.0557 19.8965 12.1729 19.916C12.2998 19.9355 12.583 19.9697 13.0225 20.0186C13.1592 20.0381 13.2568 20.043 13.3154 20.0332C13.3936 20.1113 13.4326 20.2822 13.4326 20.5459C13.4424 20.8096 13.4033 20.9805 13.3154 21.0586C12.0361 21.0195 10.6787 21 9.24316 21C8.15918 21 6.97754 21.0195 5.69824 21.0586C5.62012 20.9805 5.58105 20.8145 5.58105 20.5605C5.58105 20.2969 5.62012 20.1211 5.69824 20.0332C6.77246 19.9551 7.44141 19.8135 7.70508 19.6084C7.98828 19.3838 8.12988 19.0371 8.12988 18.5684V15.9316H2.00684C1.41113 15.9316 1.02051 15.4824 0.834961 14.584C3.93066 9.7207 6.64062 5.86816 8.96484 3.02637C9.14062 2.80176 9.30176 2.69434 9.44824 2.7041H11.2207L11.2793 2.7627C11.2402 2.93848 11.2207 3.90527 11.2207 5.66309V14.4229H14.0039ZM17.1826 20.8242C16.8506 20.502 16.6846 20.1113 16.6846 19.6523C16.6846 19.1934 16.8506 18.7979 17.1826 18.4658C17.5146 18.1338 17.9102 17.9678 18.3691 17.9678C18.8281 17.9678 19.2236 18.1338 19.5557 18.4658C19.8877 18.7979 20.0537 19.1934 20.0537 19.6523C20.0537 20.1113 19.8877 20.502 19.5557 20.8242C19.2236 21.1367 18.8281 21.293 18.3691 21.293C17.9102 21.293 17.5146 21.1367 17.1826 20.8242ZM29.0479 3.90527C28.4033 3.90527 27.793 4.08105 27.2168 4.43262C26.6406 4.77441 26.3525 5.3457 26.3525 6.14648C26.3525 7.25 25.8838 7.80176 24.9463 7.80176C24.5654 7.80176 24.2676 7.70898 24.0527 7.52344C23.8477 7.32812 23.7305 7.16699 23.7012 7.04004C23.6719 6.90332 23.6572 6.78613 23.6572 6.68848C23.6572 6.38574 23.75 6.0293 23.9355 5.61914C24.1309 5.20898 24.4287 4.77441 24.8291 4.31543C25.2393 3.85645 25.8643 3.47559 26.7041 3.17285C27.5537 2.86035 28.5254 2.7041 29.6191 2.7041C31.1621 2.7041 32.2754 3.05078 32.959 3.74414C33.6523 4.42773 33.999 5.17969 33.999 6C33.999 6.55664 33.7451 7.25 33.2373 8.08008C32.7295 8.91016 31.8945 9.5791 30.7324 10.0869C31.8164 10.2041 32.793 10.6875 33.6621 11.5371C34.5312 12.3867 34.9658 13.5 34.9658 14.877C34.9658 16.8984 34.2871 18.4805 32.9297 19.623C31.582 20.7656 29.917 21.3369 27.9346 21.3369C26.8506 21.3369 25.8105 21.1416 24.8145 20.751C23.8184 20.3604 23.3203 19.8623 23.3203 19.2568C23.3203 18.9736 23.4717 18.7197 23.7744 18.4951C24.0771 18.2607 24.4482 18.1436 24.8877 18.1436C25.5713 18.1436 26.0693 18.4072 26.3818 18.9346C26.8408 19.7158 27.4902 20.1064 28.3301 20.1064C28.9746 20.1064 29.6582 19.7256 30.3809 18.9639C31.1133 18.2021 31.4795 16.9814 31.4795 15.3018C31.4795 12.8018 30.4102 11.5518 28.2715 11.5518C28.1348 11.5518 27.6123 11.6494 26.7041 11.8447L26.5283 10.6436C28.1104 10.2822 29.2334 9.71582 29.8975 8.94434C30.5713 8.16309 30.9082 7.34277 30.9082 6.4834C30.9082 5.68262 30.7178 5.05273 30.3369 4.59375C29.9561 4.13477 29.5264 3.90527 29.0479 3.90527ZM39.2139 20.8242C38.8818 20.502 38.7158 20.1113 38.7158 19.6523C38.7158 19.1934 38.8818 18.7979 39.2139 18.4658C39.5459 18.1338 39.9414 17.9678 40.4004 17.9678C40.8594 17.9678 41.2549 18.1338 41.5869 18.4658C41.9189 18.7979 42.085 19.1934 42.085 19.6523C42.085 20.1113 41.9189 20.502 41.5869 20.8242C41.2549 21.1367 40.8594 21.293 40.4004 21.293C39.9414 21.293 39.5459 21.1367 39.2139 20.8242Z" fill="#C92B1D"/>
<path d="M52.3682 21L52.2803 20.9414V20.2822C52.2803 20.1064 52.3633 20.0137 52.5293 20.0039H52.9395C53.5352 20.0039 53.96 19.9062 54.2139 19.7109C54.4678 19.5059 54.5947 19.1641 54.5947 18.6855V3.93457C54.5947 3.45605 54.4678 3.11914 54.2139 2.92383C53.9697 2.71875 53.5449 2.61621 52.9395 2.61621H52.5293C52.373 2.61621 52.29 2.5332 52.2803 2.36719V1.67871L52.3682 1.62012H66.3574C66.4746 3.31934 66.6846 4.94043 66.9873 6.4834L65.7861 6.74707C65.1025 4.24707 64.043 2.99707 62.6074 2.99707H58.6963C58.4131 2.99707 58.2764 3.29004 58.2861 3.87598V10.043H61.6699C61.8457 10.043 61.9922 9.99902 62.1094 9.91113C62.2363 9.82324 62.3389 9.65723 62.417 9.41309C62.5049 9.15918 62.5635 8.94922 62.5928 8.7832C62.6221 8.60742 62.666 8.31934 62.7246 7.91895C62.7246 7.84082 62.7686 7.76758 62.8564 7.69922C62.9443 7.63086 63.0615 7.59668 63.208 7.59668H63.8379L64.0137 7.88965C63.877 9.0127 63.8086 9.94043 63.8086 10.6729C63.8086 11.3564 63.877 12.2891 64.0137 13.4707L63.8379 13.7344H63.208C62.8857 13.7344 62.7246 13.6367 62.7246 13.4414C62.666 13.041 62.6221 12.7529 62.5928 12.5771C62.5635 12.3916 62.5049 12.1816 62.417 11.9473C62.3389 11.7031 62.2412 11.5371 62.124 11.4492C62.0068 11.3516 61.8555 11.3027 61.6699 11.3027H58.2861V18.7441C58.2861 19.3203 58.4229 19.6133 58.6963 19.623H63.2959C64.0771 19.623 64.7412 19.252 65.2881 18.5098C65.835 17.7676 66.25 16.8057 66.5332 15.624L67.8223 15.9316C67.5 17.6504 67.2314 19.3398 67.0166 21H52.3682ZM73.9014 18.8027C73.7451 19.0469 73.6426 19.252 73.5938 19.418C73.5547 19.5742 73.584 19.6914 73.6816 19.7695C73.7891 19.8477 73.8916 19.9014 73.9893 19.9307C74.0869 19.96 74.2285 19.9941 74.4141 20.0332C74.5703 20.0527 74.6484 20.1357 74.6484 20.2822V21L74.5312 21.0586C73.1934 21.0195 72.1045 21 71.2646 21L68.9209 21.0586L68.8623 21V20.3408C68.8623 20.165 68.9697 20.0625 69.1846 20.0332C70.3271 19.877 71.2305 19.4082 71.8945 18.627L74.6484 15.2139C74.8047 15.0381 74.834 14.8867 74.7363 14.7598L72.0703 10.9512C71.1328 9.61328 70.2197 8.94434 69.3311 8.94434C69.1357 8.94434 69.0381 8.87109 69.0381 8.72461V7.97754L69.126 7.91895C70.3662 7.95801 71.377 7.97754 72.1582 7.97754L75.9082 7.91895L75.9961 7.97754V8.69531C75.9961 8.83203 75.918 8.91504 75.7617 8.94434C75.166 9.00293 74.8242 9.10547 74.7363 9.25195C74.6582 9.38867 74.7803 9.70605 75.1025 10.2041L76.5381 12.2988C76.6553 12.4551 76.7383 12.543 76.7871 12.5625C76.8457 12.5723 76.9141 12.5137 76.9922 12.3867L78.4863 10.2334C78.8086 9.79395 78.9404 9.48145 78.8818 9.2959C78.8232 9.10059 78.5205 8.9834 77.9736 8.94434C77.8369 8.9248 77.7686 8.85156 77.7686 8.72461V8.00684L77.8564 7.91895C79.2725 7.95801 80.4443 7.97754 81.3721 7.97754L83.4082 7.91895L83.4668 7.97754V8.66602C83.4668 8.82227 83.3594 8.91504 83.1445 8.94434C82.0215 9.06152 81.1182 9.5498 80.4346 10.4092L77.7686 13.6465C77.6904 13.7637 77.71 13.915 77.8271 14.1006L80.4639 18.0264C80.9229 18.7295 81.3574 19.2227 81.7676 19.5059C82.1777 19.7793 82.6758 19.9551 83.2617 20.0332C83.457 20.0527 83.5547 20.126 83.5547 20.2529V21L83.4668 21.0586C82.2266 21.0195 81.2158 21 80.4346 21L76.7725 21.0586L76.6553 21V20.2822C76.6553 20.1455 76.7383 20.0625 76.9043 20.0332C77.4414 19.9551 77.7539 19.8525 77.8418 19.7256C77.9297 19.5986 77.8467 19.3057 77.5928 18.8467L76.333 16.9131C76.1572 16.6104 76.0254 16.4248 75.9375 16.3564C75.8594 16.2881 75.7666 16.2979 75.6592 16.3857C75.5615 16.4639 75.3955 16.6738 75.1611 17.0156L73.9014 18.8027ZM89.8975 10.7754V19.0518C90.5127 19.7158 91.123 20.043 91.7285 20.0332C92.9297 20.0332 93.8135 19.5107 94.3799 18.4658C94.9561 17.4111 95.2441 16.1562 95.2441 14.7012C95.2441 11.0586 94.3555 9.2373 92.5781 9.2373C91.709 9.24707 90.8154 9.75977 89.8975 10.7754ZM89.8975 9.57422C91.001 8.31445 92.2119 7.68457 93.5303 7.68457C95.0928 7.68457 96.3428 8.2998 97.2803 9.53027C98.2178 10.7607 98.6865 12.2158 98.6865 13.8955C98.6865 16.1514 97.9199 18.0508 96.3867 19.5938C95.2441 20.7363 93.7549 21.3027 91.9189 21.293C91.2354 21.293 90.5615 21.127 89.8975 20.7949V25.6143C89.8975 26.0146 90.0049 26.3027 90.2197 26.4785C90.4443 26.6641 90.8203 26.8203 91.3477 26.9473L91.582 27.0059C91.7383 27.0449 91.8164 27.123 91.8164 27.2402V27.958L91.7871 28.0166C90.166 27.9775 88.9697 27.958 88.1982 27.958L84.7119 28.0166L84.6533 27.958V27.2402C84.6533 27.123 84.7314 27.0449 84.8877 27.0059L85.166 26.9473C85.6836 26.8301 86.0498 26.6787 86.2646 26.4932C86.4893 26.3076 86.6016 26.0146 86.6016 25.6143V11.376C86.6016 10.6729 86.5527 10.2139 86.4551 9.99902C86.3574 9.77441 86.1865 9.65234 85.9424 9.63281L84.7119 9.51562L84.6533 8.49023C87.0947 8.16797 88.7744 7.87012 89.6924 7.59668C89.8291 7.59668 89.8975 7.62598 89.8975 7.68457L89.8389 9.57422H89.8975ZM102.612 4.11035C102.612 3.19238 102.544 2.59668 102.407 2.32324C102.28 2.0498 102.046 1.91309 101.704 1.91309L100.752 1.85449C100.635 1.85449 100.571 1.80566 100.562 1.70801L100.474 0.84375C101.216 0.785156 102.153 0.677734 103.286 0.521484C104.429 0.355469 105.171 0.199219 105.513 0.0527344C105.835 0.0527344 105.996 0.155273 105.996 0.360352C105.938 1.16113 105.908 2.21094 105.908 3.50977V18.6855C105.908 19.0859 106.021 19.3789 106.245 19.5645C106.479 19.7402 106.855 19.877 107.373 19.9746L107.71 20.0332C107.866 20.0527 107.944 20.1455 107.944 20.3115V21L107.886 21.0586C106.206 21.0195 104.976 21 104.194 21L100.62 21.0586L100.562 21V20.3115C100.562 20.1553 100.645 20.0625 100.811 20.0332L101.162 19.9746C101.66 19.8965 102.026 19.7646 102.261 19.5791C102.495 19.3838 102.612 19.0859 102.612 18.6855V4.11035ZM115.928 8.91504C115.029 8.91504 114.331 9.4375 113.833 10.4824C113.345 11.5176 113.101 12.7334 113.101 14.1299C113.101 14.9502 113.223 15.79 113.467 16.6494C113.711 17.5088 114.116 18.2852 114.683 18.9785C115.249 19.6621 115.913 20.0039 116.675 20.0039C117.378 20.0039 117.998 19.6768 118.535 19.0225C119.072 18.3584 119.341 17.1768 119.341 15.4775C119.341 13.3779 119.028 11.7617 118.403 10.6289C117.788 9.48633 116.963 8.91504 115.928 8.91504ZM109.453 14.7891C109.453 12.6699 110.049 10.9561 111.24 9.64746C112.441 8.33887 114.102 7.68457 116.221 7.68457C117.383 7.68457 118.418 7.88965 119.326 8.2998C120.244 8.70996 120.957 9.25684 121.465 9.94043C121.973 10.6143 122.349 11.3418 122.593 12.123C122.847 12.9043 122.974 13.7051 122.974 14.5254C122.974 15.3066 122.832 16.0879 122.549 16.8691C122.275 17.6406 121.87 18.3633 121.333 19.0371C120.806 19.7012 120.098 20.2432 119.209 20.6631C118.32 21.083 117.314 21.293 116.191 21.293C114.111 21.293 112.466 20.6289 111.255 19.3008C110.054 17.9727 109.453 16.4688 109.453 14.7891ZM130.195 9.57422C131.416 8.31445 132.695 7.68457 134.033 7.68457C134.551 7.68457 134.971 7.86035 135.293 8.21191C135.615 8.55371 135.776 8.93457 135.776 9.35449C135.776 9.83301 135.635 10.2383 135.352 10.5703C135.078 10.9023 134.717 11.0684 134.268 11.0684C134.004 11.0684 133.75 11.0098 133.506 10.8926C133.271 10.7656 133.081 10.6289 132.935 10.4824C132.788 10.3262 132.637 10.1846 132.48 10.0576C132.324 9.93066 132.188 9.86719 132.07 9.86719C131.709 9.86719 131.343 9.99902 130.972 10.2627C130.454 10.624 130.195 11.3223 130.195 12.3574V18.6855C130.195 18.9492 130.254 19.1689 130.371 19.3447C130.498 19.5107 130.654 19.6377 130.84 19.7256C131.025 19.8135 131.289 19.8965 131.631 19.9746L131.88 20.0332C132.036 20.0723 132.114 20.165 132.114 20.3115V21L132.056 21.0586C130.454 21.0195 129.263 21 128.481 21L125.01 21.0586L124.951 21V20.3115C124.951 20.1553 125.02 20.0625 125.156 20.0332L125.449 19.9746C125.947 19.877 126.313 19.7354 126.548 19.5498C126.782 19.3545 126.899 19.0664 126.899 18.6855V11.376C126.899 10.6729 126.846 10.2139 126.738 9.99902C126.641 9.77441 126.475 9.65234 126.24 9.63281L125.01 9.51562L124.951 8.49023C127.393 8.16797 129.072 7.87012 129.99 7.59668C130.127 7.59668 130.195 7.62598 130.195 7.68457L130.137 9.57422H130.195ZM142.354 11.3613V18.6855C142.354 19.0859 142.466 19.3789 142.69 19.5645C142.925 19.7402 143.281 19.877 143.76 19.9746L144.067 20.0332C144.224 20.0723 144.302 20.165 144.302 20.3115V21L144.243 21.0586C142.622 21.0195 141.421 21 140.64 21L137.139 21.0586L137.08 21V20.3115C137.08 20.1553 137.148 20.0625 137.285 20.0332L137.651 19.9746C138.149 19.8965 138.506 19.7646 138.721 19.5791C138.945 19.3838 139.058 19.0859 139.058 18.6855V11.376C139.058 10.6729 138.999 10.1943 138.882 9.94043C138.774 9.67676 138.613 9.53516 138.398 9.51562L137.168 9.38379L137.109 8.49023C139.785 8.12891 141.494 7.83105 142.236 7.59668C142.373 7.59668 142.441 7.62598 142.441 7.68457C142.432 7.85059 142.422 8.06543 142.412 8.3291C142.412 8.59277 142.402 9.05176 142.383 9.70605C142.363 10.3604 142.354 10.9121 142.354 11.3613ZM139.395 5.15039C139.053 4.79883 138.882 4.37402 138.882 3.87598C138.882 3.36816 139.053 2.94336 139.395 2.60156C139.746 2.25 140.171 2.07422 140.669 2.07422C141.177 2.07422 141.602 2.25 141.943 2.60156C142.295 2.94336 142.471 3.36816 142.471 3.87598C142.471 4.37402 142.295 4.79883 141.943 5.15039C141.602 5.49219 141.177 5.66309 140.669 5.66309C140.171 5.66309 139.746 5.49219 139.395 5.15039ZM150.85 9.57422C152.49 8.31445 153.999 7.68457 155.376 7.68457C156.86 7.68457 157.842 8.09473 158.32 8.91504C158.799 9.73535 159.038 10.9316 159.038 12.5039V18.7148C159.038 19.0957 159.146 19.3691 159.36 19.5352C159.585 19.6914 159.966 19.8379 160.503 19.9746L160.752 20.0332C160.908 20.0723 160.986 20.165 160.986 20.3115V21L160.928 21.0586C159.326 21.0195 158.135 21 157.354 21L153.999 21.0586L153.94 21V20.3115C153.94 20.1748 154.019 20.082 154.175 20.0332L154.307 20.0039C154.824 19.8672 155.19 19.7207 155.405 19.5645C155.63 19.3984 155.742 19.1152 155.742 18.7148V12.2988C155.742 11.2148 155.659 10.4531 155.493 10.0137C155.337 9.57422 155 9.35449 154.482 9.35449C153.564 9.35449 152.354 9.82812 150.85 10.7754V18.7148C150.85 19.0957 150.962 19.3789 151.187 19.5645C151.421 19.7402 151.787 19.8867 152.285 20.0039L152.402 20.0332C152.559 20.0723 152.642 20.165 152.651 20.3115V21L152.593 21.0586C151.069 21.0195 149.917 21 149.136 21L145.664 21.0586L145.605 21V20.3115C145.605 20.1748 145.684 20.082 145.84 20.0332L146.104 19.9746C146.641 19.8574 147.017 19.7207 147.231 19.5645C147.446 19.3984 147.554 19.1152 147.554 18.7148V11.376C147.554 10.6729 147.5 10.2139 147.393 9.99902C147.295 9.77441 147.129 9.65234 146.895 9.63281L145.664 9.51562L145.605 8.49023C148.047 8.16797 149.727 7.87012 150.645 7.59668C150.781 7.59668 150.85 7.62598 150.85 7.68457L150.791 9.57422H150.85ZM170.874 12.4746C170.874 11.3125 170.659 10.3994 170.229 9.73535C169.8 9.06152 169.224 8.72461 168.501 8.72461C167.886 8.72461 167.388 9.00293 167.007 9.55957C166.626 10.1064 166.436 10.9121 166.436 11.9766C166.436 12.9336 166.636 13.8174 167.036 14.6279C167.437 15.4385 168.057 15.8438 168.896 15.8438C170.215 15.834 170.874 14.7109 170.874 12.4746ZM167.007 21.4541C166.548 21.4541 166.216 21.415 166.011 21.3369C165.571 21.7959 165.352 22.6455 165.352 23.8857C165.352 24.8232 165.718 25.5557 166.45 26.083C167.183 26.6104 167.847 26.874 168.442 26.874C169.702 26.874 170.869 26.5566 171.943 25.9219C173.027 25.2969 173.569 24.4668 173.569 23.4316C173.569 22.0547 172.109 21.3662 169.189 21.3662C169.092 21.3662 168.784 21.3857 168.267 21.4248C167.964 21.4443 167.544 21.4541 167.007 21.4541ZM174.917 9.51562C174.36 9.51562 173.994 9.22266 173.818 8.63672C173.701 8.39258 173.55 8.27539 173.364 8.28516C173.062 8.28516 172.773 8.46582 172.5 8.82715C173.584 9.70605 174.121 10.8926 174.111 12.3867C174.111 13.7832 173.584 14.8965 172.529 15.7266C171.484 16.5469 170.225 16.957 168.75 16.957C167.715 16.957 166.88 16.8057 166.245 16.5029C166.118 16.8154 166.05 17.3037 166.04 17.9678C166.04 18.5049 166.182 18.9004 166.465 19.1543C166.748 19.4082 167.056 19.5352 167.388 19.5352C167.407 19.5352 167.769 19.501 168.472 19.4326C169.175 19.3545 169.756 19.3154 170.215 19.3154C172.373 19.3154 173.926 19.6768 174.873 20.3994C175.83 21.1221 176.309 21.874 176.309 22.6553C176.309 23.7197 175.864 24.6719 174.976 25.5117C174.097 26.3613 173.003 27.0107 171.694 27.46C170.386 27.9092 169.023 28.1338 167.607 28.1338C166.211 28.1338 165.015 27.8359 164.019 27.2402C163.032 26.6445 162.539 25.7266 162.539 24.4863C162.539 23.2461 163.35 22.0742 164.971 20.9707C164.014 20.3945 163.53 19.667 163.521 18.7881C163.521 17.8994 164.043 16.9717 165.088 16.0049C164.541 15.624 164.097 15.0869 163.755 14.3936C163.423 13.7002 163.257 12.9824 163.257 12.2402C163.257 10.9023 163.799 9.80859 164.883 8.95898C165.977 8.10938 167.275 7.68457 168.779 7.68457C169.98 7.68457 170.918 7.875 171.592 8.25586C172.012 7.875 172.515 7.57227 173.101 7.34766C173.696 7.11328 174.204 6.99609 174.624 6.99609C175.142 6.99609 175.542 7.13281 175.825 7.40625C176.108 7.66992 176.25 7.97266 176.25 8.31445C176.25 8.67578 176.133 8.96875 175.898 9.19336C175.664 9.4082 175.337 9.51562 174.917 9.51562ZM190.225 9.38379V16.957C190.225 18.4219 190.483 19.1494 191.001 19.1396C191.743 19.1396 192.422 18.8906 193.037 18.3926L193.726 19.0811C192.603 20.5654 191.191 21.3027 189.492 21.293C187.773 21.293 186.914 20.2773 186.914 18.2461V9.38379H185.391C185.029 9.38379 184.849 9.30566 184.849 9.14941V8.22656C184.849 8.07031 185.229 7.9873 185.991 7.97754C186.694 7.97754 187.168 7.66504 187.412 7.04004C187.666 6.40527 187.793 5.41895 187.793 4.08105L190.225 3.14355V7.97754H193.066C193.506 7.97754 193.726 8.08008 193.726 8.28516V8.88574C193.726 9.22754 193.354 9.39355 192.612 9.38379H190.225ZM208.213 18.6855C208.213 19.0859 208.33 19.3789 208.564 19.5645C208.799 19.7402 209.175 19.877 209.692 19.9746L210.015 20.0332C210.171 20.0527 210.254 20.1455 210.264 20.3115V21L210.205 21.0586C208.525 21.0195 207.295 21 206.514 21L203.086 21.0586L203.027 21V20.3115C203.027 20.1553 203.11 20.0625 203.276 20.0332L203.481 19.9746C203.843 19.877 204.106 19.7891 204.272 19.7109C204.448 19.6328 204.6 19.5107 204.727 19.3447C204.854 19.1689 204.917 18.9492 204.917 18.6855V12.1523C204.917 10.9902 204.814 10.2236 204.609 9.85254C204.414 9.48145 204.019 9.2959 203.423 9.2959C203.101 9.2959 202.612 9.42773 201.958 9.69141C201.313 9.95508 200.669 10.3164 200.024 10.7754V18.6855C200.024 19.0664 200.127 19.3398 200.332 19.5059C200.547 19.6621 200.938 19.8184 201.504 19.9746L201.709 20.0332C201.865 20.0527 201.943 20.1455 201.943 20.3115V21L201.885 21.0586C200.283 21.0195 199.097 21 198.325 21L194.751 21.0586L194.692 21V20.3115C194.692 20.1553 194.771 20.0625 194.927 20.0332L195.293 19.9746C195.791 19.8965 196.152 19.7646 196.377 19.5791C196.611 19.3838 196.729 19.0859 196.729 18.6855V4.11035C196.729 3.19238 196.66 2.59668 196.523 2.32324C196.396 2.0498 196.167 1.91309 195.835 1.91309L194.868 1.85449C194.751 1.85449 194.692 1.80566 194.692 1.70801L194.604 0.84375C195.347 0.785156 196.284 0.677734 197.417 0.521484C198.56 0.355469 199.302 0.199219 199.644 0.0527344C199.966 0.0527344 200.127 0.155273 200.127 0.360352C200.068 1.16113 200.034 2.21094 200.024 3.50977V9.57422C200.825 8.97852 201.655 8.50977 202.515 8.16797C203.374 7.82617 204.097 7.65527 204.683 7.65527C205.942 7.65527 206.846 8.05566 207.393 8.85645C207.939 9.64746 208.213 10.8535 208.213 12.4746V18.6855ZM215.288 12.4453H220.093C220.132 12.4062 220.151 12.2988 220.151 12.123C220.151 11.0391 219.937 10.2383 219.507 9.7207C219.077 9.20312 218.613 8.94434 218.115 8.94434C217.92 8.94434 217.7 8.98828 217.456 9.07617C217.212 9.16406 216.938 9.32031 216.636 9.54492C216.343 9.75977 216.069 10.1162 215.815 10.6143C215.562 11.1123 215.386 11.7227 215.288 12.4453ZM222.583 17.7334L223.33 18.3633C222.373 20.3262 220.615 21.3027 218.057 21.293C215.918 21.293 214.321 20.707 213.267 19.5352C212.222 18.3535 211.699 16.8594 211.699 15.0527C211.699 12.875 212.354 11.1025 213.662 9.73535C214.971 8.36816 216.465 7.68457 218.145 7.68457C220.146 7.68457 221.558 8.19727 222.378 9.22266C223.198 10.2383 223.608 11.5029 223.608 13.0166C223.608 13.4365 223.218 13.6465 222.437 13.6465H215.142V14.4229C215.142 15.9072 215.532 17.1475 216.313 18.1436C217.095 19.1299 218.066 19.623 219.229 19.623C220.43 19.623 221.548 18.9932 222.583 17.7334ZM3.00293 37.9346C3.00293 37.4561 2.87109 37.1191 2.60742 36.9238C2.35352 36.7188 1.93359 36.6162 1.34766 36.6162H0.922852C0.74707 36.6162 0.65918 36.5332 0.65918 36.3672V35.6494L0.717773 35.5908C2.68066 35.6299 4.05273 35.6494 4.83398 35.6494L8.87695 35.5908L8.93555 35.6494V36.3672C8.93555 36.5234 8.86719 36.6064 8.73047 36.6162H8.27637C7.19238 36.6162 6.65527 37.0557 6.66504 37.9346V52.2461C6.66504 53.1641 7.00195 53.623 7.67578 53.623H10.2539C12.1777 53.623 13.4912 52.2705 14.1943 49.5654L15.3662 49.8145C14.9268 51.9336 14.6826 53.6621 14.6338 55H4.35059C3.5498 55 2.3584 55.0195 0.776367 55.0586L0.65918 55V54.3994C0.65918 54.1553 0.820312 54.0332 1.14258 54.0332H2.09473C2.45605 54.0332 2.69531 53.9502 2.8125 53.7842C2.93945 53.6182 3.00293 53.3057 3.00293 52.8467V37.9346ZM24.5654 53.5645C23.2275 54.7266 21.9775 55.3027 20.8154 55.293C19.5361 55.293 18.6182 55.0342 18.0615 54.5166C17.5049 53.999 17.2266 53.208 17.2266 52.1436C17.2266 51.04 17.6562 50.1904 18.5156 49.5947C19.375 48.999 20.6836 48.4424 22.4414 47.9248L24.6094 47.2949C24.6094 45.5176 24.4336 44.3311 24.082 43.7354C23.7305 43.1299 23.2031 42.8271 22.5 42.8271C21.9043 42.8271 21.4014 42.9199 20.9912 43.1055C20.5811 43.291 20.376 43.5449 20.376 43.8672C20.376 44.0918 20.4053 44.3408 20.4639 44.6143C20.5225 44.8779 20.5518 45.0586 20.5518 45.1562C20.5518 45.4004 20.3906 45.6543 20.0684 45.918C19.7559 46.1719 19.3994 46.2988 18.999 46.2988C18.0615 46.2988 17.5879 45.8789 17.5781 45.0391C17.5781 44.1797 18.1738 43.4082 19.3652 42.7246C20.5566 42.0312 21.7432 41.6846 22.9248 41.6846C24.3896 41.6846 25.5762 42.0605 26.4844 42.8125C27.3926 43.5547 27.8467 44.9072 27.8467 46.8701V51.2207C27.8467 51.6602 27.8564 51.9971 27.876 52.2314C27.8955 52.4561 27.9395 52.7051 28.0078 52.9785C28.0762 53.2422 28.1934 53.4375 28.3594 53.5645C28.5352 53.6816 28.7598 53.7402 29.0332 53.7402C29.3164 53.7402 29.5361 53.6621 29.6924 53.5059C29.8584 53.3398 29.9512 53.2568 29.9707 53.2568C30.0293 53.2568 30.1074 53.335 30.2051 53.4912C30.3125 53.6377 30.3662 53.7598 30.3662 53.8574C30.3662 53.9355 30.2539 54.0869 30.0293 54.3115C29.8145 54.5264 29.4727 54.7461 29.0039 54.9707C28.5449 55.1855 28.0664 55.293 27.5684 55.293C26.6895 55.293 26.0254 55.1562 25.5762 54.8828C25.127 54.5996 24.8145 54.1602 24.6387 53.5645H24.5654ZM24.6094 52.4512V48.4229L22.8955 48.9355C21.9189 49.2383 21.2549 49.6045 20.9033 50.0342C20.5518 50.4639 20.376 51.0205 20.376 51.7041C20.376 53.0029 21.0059 53.6523 22.2656 53.6523C22.832 53.6523 23.6133 53.252 24.6094 52.4512ZM36.3867 43.3838V50.957C36.3867 52.4219 36.6455 53.1494 37.1631 53.1396C37.9053 53.1396 38.584 52.8906 39.1992 52.3926L39.8877 53.0811C38.7646 54.5654 37.3535 55.3027 35.6543 55.293C33.9355 55.293 33.0762 54.2773 33.0762 52.2461V43.3838H31.5527C31.1914 43.3838 31.0107 43.3057 31.0107 43.1494V42.2266C31.0107 42.0703 31.3916 41.9873 32.1533 41.9775C32.8564 41.9775 33.3301 41.665 33.5742 41.04C33.8281 40.4053 33.9551 39.4189 33.9551 38.0811L36.3867 37.1436V41.9775H39.2285C39.668 41.9775 39.8877 42.0801 39.8877 42.2852V42.8857C39.8877 43.2275 39.5166 43.3936 38.7744 43.3838H36.3867ZM44.9561 46.4453H49.7607C49.7998 46.4062 49.8193 46.2988 49.8193 46.123C49.8193 45.0391 49.6045 44.2383 49.1748 43.7207C48.7451 43.2031 48.2812 42.9443 47.7832 42.9443C47.5879 42.9443 47.3682 42.9883 47.124 43.0762C46.8799 43.1641 46.6064 43.3203 46.3037 43.5449C46.0107 43.7598 45.7373 44.1162 45.4834 44.6143C45.2295 45.1123 45.0537 45.7227 44.9561 46.4453ZM52.251 51.7334L52.998 52.3633C52.041 54.3262 50.2832 55.3027 47.7246 55.293C45.5859 55.293 43.9893 54.707 42.9346 53.5352C41.8896 52.3535 41.3672 50.8594 41.3672 49.0527C41.3672 46.875 42.0215 45.1025 43.3301 43.7354C44.6387 42.3682 46.1328 41.6846 47.8125 41.6846C49.8145 41.6846 51.2256 42.1973 52.0459 43.2227C52.8662 44.2383 53.2764 45.5029 53.2764 47.0166C53.2764 47.4365 52.8857 47.6465 52.1045 47.6465H44.8096V48.4229C44.8096 49.9072 45.2002 51.1475 45.9814 52.1436C46.7627 53.1299 47.7344 53.623 48.8965 53.623C50.0977 53.623 51.2158 52.9932 52.251 51.7334ZM60.4102 43.5742C62.0508 42.3145 63.5596 41.6846 64.9365 41.6846C66.4209 41.6846 67.4023 42.0947 67.8809 42.915C68.3594 43.7354 68.5986 44.9316 68.5986 46.5039V52.7148C68.5986 53.0957 68.7061 53.3691 68.9209 53.5352C69.1455 53.6914 69.5264 53.8379 70.0635 53.9746L70.3125 54.0332C70.4688 54.0723 70.5469 54.165 70.5469 54.3115V55L70.4883 55.0586C68.8867 55.0195 67.6953 55 66.9141 55L63.5596 55.0586L63.501 55V54.3115C63.501 54.1748 63.5791 54.082 63.7354 54.0332L63.8672 54.0039C64.3848 53.8672 64.751 53.7207 64.9658 53.5645C65.1904 53.3984 65.3027 53.1152 65.3027 52.7148V46.2988C65.3027 45.2148 65.2197 44.4531 65.0537 44.0137C64.8975 43.5742 64.5605 43.3545 64.043 43.3545C63.125 43.3545 61.9141 43.8281 60.4102 44.7754V52.7148C60.4102 53.0957 60.5225 53.3789 60.7471 53.5645C60.9814 53.7402 61.3477 53.8867 61.8457 54.0039L61.9629 54.0332C62.1191 54.0723 62.2021 54.165 62.2119 54.3115V55L62.1533 55.0586C60.6299 55.0195 59.4775 55 58.6963 55L55.2246 55.0586L55.166 55V54.3115C55.166 54.1748 55.2441 54.082 55.4004 54.0332L55.6641 53.9746C56.2012 53.8574 56.5771 53.7207 56.792 53.5645C57.0068 53.3984 57.1143 53.1152 57.1143 52.7148V45.376C57.1143 44.6729 57.0605 44.2139 56.9531 43.999C56.8555 43.7744 56.6895 43.6523 56.4551 43.6328L55.2246 43.5156L55.166 42.4902C57.6074 42.168 59.2871 41.8701 60.2051 41.5967C60.3418 41.5967 60.4102 41.626 60.4102 41.6846L60.3516 43.5742H60.4102ZM77.0508 43.3838V50.957C77.0508 52.4219 77.3096 53.1494 77.8271 53.1396C78.5693 53.1396 79.248 52.8906 79.8633 52.3926L80.5518 53.0811C79.4287 54.5654 78.0176 55.3027 76.3184 55.293C74.5996 55.293 73.7402 54.2773 73.7402 52.2461V43.3838H72.2168C71.8555 43.3838 71.6748 43.3057 71.6748 43.1494V42.2266C71.6748 42.0703 72.0557 41.9873 72.8174 41.9775C73.5205 41.9775 73.9941 41.665 74.2383 41.04C74.4922 40.4053 74.6191 39.4189 74.6191 38.0811L77.0508 37.1436V41.9775H79.8926C80.332 41.9775 80.5518 42.0801 80.5518 42.2852V42.8857C80.5518 43.2275 80.1807 43.3936 79.4385 43.3838H77.0508ZM99.9609 36.0742C100.059 37.3535 100.269 38.8721 100.591 40.6299L99.3896 40.7764C99.0479 39.5166 98.5693 38.4766 97.9541 37.6562C97.3389 36.8359 96.46 36.4258 95.3174 36.4258C94.3799 36.4258 93.6963 36.709 93.2666 37.2754C92.8369 37.832 92.6221 38.5693 92.6221 39.4873C92.6221 40.3467 93.0176 41.1328 93.8086 41.8457C94.6094 42.5586 95.4199 43.0615 96.2402 43.3545C99.9023 44.6533 101.733 46.6943 101.733 49.4775C101.733 51.4014 101.182 52.8516 100.078 53.8281C98.9844 54.8047 97.5391 55.293 95.7422 55.293C94.5801 55.293 93.5938 55.2197 92.7832 55.0732C91.9727 54.9268 91.5381 54.8535 91.4795 54.8535C91.2842 54.8535 91.0449 54.8779 90.7617 54.9268C90.4785 54.9756 90.2588 55 90.1025 55C90.0635 54.1211 89.873 52.373 89.5312 49.7559L90.7324 49.6533C91.0352 50.9912 91.582 52.0654 92.373 52.876C93.1738 53.6768 94.0869 54.0771 95.1123 54.0771C97.3877 54.0771 98.5254 52.9346 98.5254 50.6494C98.5254 49.751 98.2959 48.9551 97.8369 48.2617C97.3779 47.5586 96.6992 47.0264 95.8008 46.665C91.7773 45.1025 89.7656 43.0322 89.7656 40.4541C89.7656 38.7939 90.3271 37.5146 91.4502 36.6162C92.583 35.708 93.8818 35.2539 95.3467 35.2539C96.4502 35.2539 97.4365 35.3809 98.3057 35.6348C99.1846 35.8887 99.7363 36.0352 99.9609 36.0742ZM108.589 44.7754V53.0518C109.204 53.7158 109.814 54.043 110.42 54.0332C111.621 54.0332 112.505 53.5107 113.071 52.4658C113.647 51.4111 113.936 50.1562 113.936 48.7012C113.936 45.0586 113.047 43.2373 111.27 43.2373C110.4 43.2471 109.507 43.7598 108.589 44.7754ZM108.589 43.5742C109.692 42.3145 110.903 41.6846 112.222 41.6846C113.784 41.6846 115.034 42.2998 115.972 43.5303C116.909 44.7607 117.378 46.2158 117.378 47.8955C117.378 50.1514 116.611 52.0508 115.078 53.5938C113.936 54.7363 112.446 55.3027 110.61 55.293C109.927 55.293 109.253 55.127 108.589 54.7949V59.6143C108.589 60.0146 108.696 60.3027 108.911 60.4785C109.136 60.6641 109.512 60.8203 110.039 60.9473L110.273 61.0059C110.43 61.0449 110.508 61.123 110.508 61.2402V61.958L110.479 62.0166C108.857 61.9775 107.661 61.958 106.89 61.958L103.403 62.0166L103.345 61.958V61.2402C103.345 61.123 103.423 61.0449 103.579 61.0059L103.857 60.9473C104.375 60.8301 104.741 60.6787 104.956 60.4932C105.181 60.3076 105.293 60.0146 105.293 59.6143V45.376C105.293 44.6729 105.244 44.2139 105.146 43.999C105.049 43.7744 104.878 43.6523 104.634 43.6328L103.403 43.5156L103.345 42.4902C105.786 42.168 107.466 41.8701 108.384 41.5967C108.521 41.5967 108.589 41.626 108.589 41.6846L108.53 43.5742H108.589ZM127.017 53.5645C125.679 54.7266 124.429 55.3027 123.267 55.293C121.987 55.293 121.069 55.0342 120.513 54.5166C119.956 53.999 119.678 53.208 119.678 52.1436C119.678 51.04 120.107 50.1904 120.967 49.5947C121.826 48.999 123.135 48.4424 124.893 47.9248L127.061 47.2949C127.061 45.5176 126.885 44.3311 126.533 43.7354C126.182 43.1299 125.654 42.8271 124.951 42.8271C124.355 42.8271 123.853 42.9199 123.442 43.1055C123.032 43.291 122.827 43.5449 122.827 43.8672C122.827 44.0918 122.856 44.3408 122.915 44.6143C122.974 44.8779 123.003 45.0586 123.003 45.1562C123.003 45.4004 122.842 45.6543 122.52 45.918C122.207 46.1719 121.851 46.2988 121.45 46.2988C120.513 46.2988 120.039 45.8789 120.029 45.0391C120.029 44.1797 120.625 43.4082 121.816 42.7246C123.008 42.0312 124.194 41.6846 125.376 41.6846C126.841 41.6846 128.027 42.0605 128.936 42.8125C129.844 43.5547 130.298 44.9072 130.298 46.8701V51.2207C130.298 51.6602 130.308 51.9971 130.327 52.2314C130.347 52.4561 130.391 52.7051 130.459 52.9785C130.527 53.2422 130.645 53.4375 130.811 53.5645C130.986 53.6816 131.211 53.7402 131.484 53.7402C131.768 53.7402 131.987 53.6621 132.144 53.5059C132.31 53.3398 132.402 53.2568 132.422 53.2568C132.48 53.2568 132.559 53.335 132.656 53.4912C132.764 53.6377 132.817 53.7598 132.817 53.8574C132.817 53.9355 132.705 54.0869 132.48 54.3115C132.266 54.5264 131.924 54.7461 131.455 54.9707C130.996 55.1855 130.518 55.293 130.02 55.293C129.141 55.293 128.477 55.1562 128.027 54.8828C127.578 54.5996 127.266 54.1602 127.09 53.5645H127.017ZM127.061 52.4512V48.4229L125.347 48.9355C124.37 49.2383 123.706 49.6045 123.354 50.0342C123.003 50.4639 122.827 51.0205 122.827 51.7041C122.827 53.0029 123.457 53.6523 124.717 53.6523C125.283 53.6523 126.064 53.252 127.061 52.4512ZM145.034 52.3926C144.077 54.3359 142.51 55.3027 140.332 55.293C138.252 55.293 136.67 54.7412 135.586 53.6377C134.512 52.5244 133.975 50.9668 133.975 48.9648C133.975 46.8652 134.604 45.127 135.864 43.75C137.124 42.373 138.652 41.6846 140.449 41.6846C141.992 41.6846 143.169 41.9873 143.979 42.5928C144.79 43.1885 145.195 43.9258 145.195 44.8047C145.195 45.2832 145.059 45.6836 144.785 46.0059C144.512 46.3184 144.146 46.4746 143.687 46.4746C143.208 46.4746 142.812 46.3477 142.5 46.0938C142.197 45.8301 142.026 45.4883 141.987 45.0684C141.851 43.6523 141.299 42.9443 140.332 42.9443C139.512 42.9443 138.813 43.418 138.237 44.3652C137.671 45.3125 137.388 46.5967 137.388 48.2178C137.388 49.7998 137.754 51.123 138.486 52.1875C139.219 53.2422 140.093 53.7695 141.108 53.7695C142.173 53.7695 143.286 53.1201 144.448 51.8213L145.034 52.3926ZM150.513 46.4453H155.317C155.356 46.4062 155.376 46.2988 155.376 46.123C155.376 45.0391 155.161 44.2383 154.731 43.7207C154.302 43.2031 153.838 42.9443 153.34 42.9443C153.145 42.9443 152.925 42.9883 152.681 43.0762C152.437 43.1641 152.163 43.3203 151.86 43.5449C151.567 43.7598 151.294 44.1162 151.04 44.6143C150.786 45.1123 150.61 45.7227 150.513 46.4453ZM157.808 51.7334L158.555 52.3633C157.598 54.3262 155.84 55.3027 153.281 55.293C151.143 55.293 149.546 54.707 148.491 53.5352C147.446 52.3535 146.924 50.8594 146.924 49.0527C146.924 46.875 147.578 45.1025 148.887 43.7354C150.195 42.3682 151.689 41.6846 153.369 41.6846C155.371 41.6846 156.782 42.1973 157.603 43.2227C158.423 44.2383 158.833 45.5029 158.833 47.0166C158.833 47.4365 158.442 47.6465 157.661 47.6465H150.366V48.4229C150.366 49.9072 150.757 51.1475 151.538 52.1436C152.319 53.1299 153.291 53.623 154.453 53.623C155.654 53.623 156.772 52.9932 157.808 51.7334Z" fill="black"/>
</svg>
