<svg width="228" height="62" viewBox="0 0 228 62" fill="none" xmlns="http://www.w3.org/2000/svg">
<path d="M0.74707 13.5146L10.1807 0.726562H11.9678V13.5146H13.7842V16.5469H11.9678V21H7.93945V16.5469H0.74707V13.5146ZM2.16797 13.5146H7.93945V5.67773L2.16797 13.5146ZM18.75 16.4883C19.4336 16.4883 20.0098 16.7275 20.4785 17.2061C20.957 17.6846 21.1963 18.2607 21.1963 18.9346C21.1963 19.6084 20.957 20.1846 20.4785 20.6631C20 21.1318 19.4238 21.3662 18.75 21.3662C18.0762 21.3662 17.5 21.1318 17.0215 20.6631C16.5527 20.1846 16.3184 19.6084 16.3184 18.9346C16.3184 18.2607 16.5527 17.6846 17.0215 17.2061C17.5 16.7275 18.0762 16.4883 18.75 16.4883ZM26.9385 11.0391V10.5264C28.0518 10.2041 28.8232 9.90625 29.2529 9.63281C29.6826 9.34961 30.0537 8.9248 30.3662 8.3584C30.6787 7.78223 30.835 7.20117 30.835 6.61523C30.835 5.80469 30.5371 5.11133 29.9414 4.53516C29.3555 3.94922 28.623 3.65625 27.7441 3.65625C26.377 3.65625 25.2148 4.37891 24.2578 5.82422L23.7158 5.63379C24.4189 4.00293 25.3174 2.77734 26.4111 1.95703C27.5146 1.13672 28.7402 0.726562 30.0879 0.726562C31.4648 0.726562 32.5977 1.14648 33.4863 1.98633C34.3848 2.82617 34.834 3.80762 34.834 4.93066C34.834 5.66309 34.624 6.37109 34.2041 7.05469C33.7939 7.72852 33.1445 8.32422 32.2559 8.8418C33.3984 9.39844 34.2676 10.0869 34.8633 10.9072C35.4688 11.7178 35.7715 12.7383 35.7715 13.9688C35.7715 16.0391 35.0195 17.8018 33.5156 19.2568C32.0215 20.7021 30.0146 21.4248 27.4951 21.4248C25.8154 21.4248 24.5898 21.1465 23.8184 20.5898C23.2617 20.1992 22.9834 19.6963 22.9834 19.0811C22.9834 18.6318 23.1445 18.251 23.4668 17.9385C23.7891 17.6162 24.1602 17.4551 24.5801 17.4551C24.9023 17.4551 25.2051 17.5234 25.4883 17.6602C25.6445 17.7383 26.1963 18.168 27.1436 18.9492C28.1006 19.7207 28.9941 20.1064 29.8242 20.1064C30.5469 20.1064 31.167 19.8232 31.6846 19.2568C32.2021 18.6807 32.4609 17.9531 32.4609 17.0742C32.4609 15.7363 31.9922 14.5059 31.0547 13.3828C30.1172 12.25 28.7451 11.4688 26.9385 11.0391ZM41.25 16.4883C41.9336 16.4883 42.5098 16.7275 42.9785 17.2061C43.457 17.6846 43.6963 18.2607 43.6963 18.9346C43.6963 19.6084 43.457 20.1846 42.9785 20.6631C42.5 21.1318 41.9238 21.3662 41.25 21.3662C40.5762 21.3662 40 21.1318 39.5215 20.6631C39.0527 20.1846 38.8184 19.6084 38.8184 18.9346C38.8184 18.2607 39.0527 17.6846 39.5215 17.2061C40 16.7275 40.5762 16.4883 41.25 16.4883Z" fill="#C92B1D"/>
<path d="M60.6738 2.2793V10.3652H61.0693C62.3291 10.3652 63.2422 9.96973 63.8086 9.17871C64.375 8.3877 64.7363 7.2207 64.8926 5.67773H65.4492V16.0781H64.8926C64.7754 14.9453 64.5264 14.0176 64.1455 13.2949C63.7744 12.5723 63.3398 12.0889 62.8418 11.8447C62.3438 11.5908 61.6211 11.4639 60.6738 11.4639V17.0596C60.6738 18.1533 60.7178 18.8223 60.8057 19.0664C60.9033 19.3105 61.0791 19.5107 61.333 19.667C61.5869 19.8232 61.9971 19.9014 62.5635 19.9014H63.75C65.6055 19.9014 67.0898 19.4717 68.2031 18.6123C69.3262 17.7529 70.1318 16.4443 70.6201 14.6865H71.1621L70.2686 21H53.1006V20.458H53.7598C54.3359 20.458 54.7998 20.3555 55.1514 20.1504C55.4053 20.0137 55.6006 19.7793 55.7373 19.4473C55.8447 19.2129 55.8984 18.5977 55.8984 17.6016V4.53516C55.8984 3.63672 55.874 3.08496 55.8252 2.87988C55.7275 2.53809 55.5469 2.27441 55.2832 2.08887C54.9121 1.81543 54.4043 1.67871 53.7598 1.67871H53.1006V1.13672H69.7266V7.01074H69.1699C68.8867 5.5752 68.4863 4.54492 67.9688 3.91992C67.4609 3.29492 66.7383 2.83594 65.8008 2.54297C65.2539 2.36719 64.2285 2.2793 62.7246 2.2793H60.6738ZM81.6211 12.6064L83.9941 17.1182C84.8145 18.6904 85.4639 19.6865 85.9424 20.1064C86.2061 20.3311 86.5674 20.4531 87.0264 20.4727V21H79.3945V20.4727C79.9902 20.4238 80.3564 20.3457 80.4932 20.2383C80.6396 20.1309 80.7129 19.9844 80.7129 19.7988C80.7129 19.5254 80.5566 19.0957 80.2441 18.5098L79.0576 16.2832L78.0469 17.7627C77.5879 18.4365 77.3291 18.8369 77.2705 18.9639C77.1924 19.1494 77.1533 19.3154 77.1533 19.4619C77.1533 19.6865 77.1973 19.877 77.2852 20.0332C77.3828 20.1797 77.5098 20.292 77.666 20.3701C77.832 20.4385 78.1299 20.4727 78.5596 20.4727V21H73.1982V20.4727C73.8623 20.4727 74.4678 20.292 75.0146 19.9307C75.5713 19.5596 76.377 18.5977 77.4316 17.0449L78.5596 15.375L76.2012 11.0098C75.4297 9.58398 74.8535 8.70996 74.4727 8.3877C74.0918 8.06543 73.667 7.88477 73.1982 7.8457V7.30371H80.7861V7.8457L80.3906 7.86035L79.6289 8.12402C79.5508 8.19238 79.5117 8.30469 79.5117 8.46094C79.5117 8.60742 79.5361 8.75879 79.585 8.91504C79.6143 8.9834 79.751 9.24707 79.9951 9.70605L81.0645 11.6982L81.6211 10.9072C82.4023 9.83301 82.793 9.08105 82.793 8.65137C82.793 8.44629 82.7051 8.27539 82.5293 8.13867C82.3633 7.99219 82.0605 7.89453 81.6211 7.8457V7.30371H86.4697V7.8457C85.874 7.86523 85.3174 8.05078 84.7998 8.40234C84.2822 8.74414 83.7012 9.41309 83.0566 10.4092L81.6211 12.6064ZM93.8232 19.6084V24.7061C93.8232 25.4092 93.877 25.8877 93.9844 26.1416C94.1016 26.3955 94.2773 26.5811 94.5117 26.6982C94.7461 26.8154 95.2051 26.874 95.8887 26.874V27.416H88.0811V26.874C88.6865 26.8545 89.1357 26.6836 89.4287 26.3613C89.624 26.1367 89.7217 25.5557 89.7217 24.6182V10.1602C89.7217 9.19336 89.6094 8.57812 89.3848 8.31445C89.1602 8.04102 88.7256 7.88477 88.0811 7.8457V7.30371H93.8232V9.10547C94.3018 8.40234 94.79 7.89453 95.2881 7.58203C96.001 7.12305 96.7773 6.89355 97.6172 6.89355C98.623 6.89355 99.5361 7.21094 100.356 7.8457C101.187 8.48047 101.816 9.35938 102.246 10.4824C102.676 11.5957 102.891 12.7969 102.891 14.0859C102.891 15.4727 102.666 16.7422 102.217 17.8945C101.777 19.0371 101.133 19.9111 100.283 20.5166C99.4434 21.1123 98.5059 21.4102 97.4707 21.4102C96.7188 21.4102 96.0156 21.2441 95.3613 20.9121C94.873 20.6582 94.3604 20.2236 93.8232 19.6084ZM93.8232 18.1289C94.6631 19.3203 95.5615 19.916 96.5186 19.916C97.0459 19.916 97.4805 19.6377 97.8223 19.0811C98.3301 18.2607 98.584 16.6982 98.584 14.3936C98.584 12.0303 98.3057 10.4141 97.749 9.54492C97.3779 8.96875 96.8799 8.68066 96.2549 8.68066C95.2686 8.68066 94.458 9.39355 93.8232 10.8193V18.1289ZM110.581 1.13672V18.1582C110.581 19.125 110.693 19.7451 110.918 20.0186C111.143 20.2822 111.582 20.4336 112.236 20.4727V21H104.839V20.4727C105.444 20.4531 105.894 20.2773 106.187 19.9453C106.382 19.7207 106.479 19.125 106.479 18.1582V3.97852C106.479 3.02148 106.367 2.41113 106.143 2.14746C105.918 1.87402 105.483 1.71777 104.839 1.67871V1.13672H110.581ZM120.029 6.89355C121.221 6.89355 122.329 7.20117 123.354 7.81641C124.38 8.43164 125.156 9.30566 125.684 10.4385C126.221 11.5713 126.489 12.8115 126.489 14.1592C126.489 16.1025 125.996 17.7285 125.01 19.0371C123.818 20.6191 122.173 21.4102 120.073 21.4102C118.013 21.4102 116.426 20.6875 115.312 19.2422C114.199 17.7969 113.643 16.1221 113.643 14.2178C113.643 12.2549 114.209 10.5459 115.342 9.09082C116.484 7.62598 118.047 6.89355 120.029 6.89355ZM120.088 7.93359C119.59 7.93359 119.16 8.12402 118.799 8.50488C118.447 8.87598 118.213 9.61816 118.096 10.7314C117.988 11.835 117.935 13.373 117.935 15.3457C117.935 16.3906 118.003 17.3672 118.14 18.2754C118.247 18.9688 118.477 19.4961 118.828 19.8574C119.18 20.2188 119.58 20.3994 120.029 20.3994C120.469 20.3994 120.835 20.2773 121.128 20.0332C121.509 19.7012 121.763 19.2373 121.89 18.6416C122.085 17.7139 122.183 15.8389 122.183 13.0166C122.183 11.3564 122.09 10.2188 121.904 9.60352C121.719 8.97852 121.445 8.52441 121.084 8.24121C120.83 8.03613 120.498 7.93359 120.088 7.93359ZM134.253 7.30371V10.4092C135.161 8.99316 135.957 8.05566 136.641 7.59668C137.324 7.12793 137.983 6.89355 138.618 6.89355C139.165 6.89355 139.6 7.06445 139.922 7.40625C140.254 7.73828 140.42 8.21191 140.42 8.82715C140.42 9.48145 140.259 9.98926 139.937 10.3506C139.624 10.7119 139.243 10.8926 138.794 10.8926C138.276 10.8926 137.827 10.7266 137.446 10.3945C137.065 10.0625 136.841 9.87695 136.772 9.83789C136.675 9.7793 136.562 9.75 136.436 9.75C136.152 9.75 135.884 9.85742 135.63 10.0723C135.229 10.4043 134.927 10.8779 134.722 11.4932C134.409 12.4404 134.253 13.4854 134.253 14.6279V17.7773L134.268 18.5977C134.268 19.1543 134.302 19.5107 134.37 19.667C134.487 19.9307 134.658 20.126 134.883 20.2529C135.117 20.3701 135.508 20.4434 136.055 20.4727V21H128.657V20.4727C129.253 20.4238 129.653 20.2627 129.858 19.9893C130.073 19.7061 130.181 18.9688 130.181 17.7773V10.2041C130.181 9.42285 130.142 8.9248 130.063 8.70996C129.966 8.43652 129.824 8.23633 129.639 8.10938C129.453 7.98242 129.126 7.89453 128.657 7.8457V7.30371H134.253ZM145.195 0.667969C145.83 0.667969 146.367 0.892578 146.807 1.3418C147.246 1.78125 147.466 2.31348 147.466 2.93848C147.466 3.56348 147.241 4.0957 146.792 4.53516C146.353 4.97461 145.82 5.19434 145.195 5.19434C144.57 5.19434 144.038 4.97461 143.599 4.53516C143.159 4.0957 142.939 3.56348 142.939 2.93848C142.939 2.31348 143.159 1.78125 143.599 1.3418C144.038 0.892578 144.57 0.667969 145.195 0.667969ZM147.246 7.30371V18.1582C147.246 19.125 147.358 19.7451 147.583 20.0186C147.808 20.2822 148.247 20.4336 148.901 20.4727V21H141.504V20.4727C142.109 20.4531 142.559 20.2773 142.852 19.9453C143.047 19.7207 143.145 19.125 143.145 18.1582V10.1602C143.145 9.19336 143.032 8.57812 142.808 8.31445C142.583 8.04102 142.148 7.88477 141.504 7.8457V7.30371H147.246ZM155.845 7.30371V9.07617C156.548 8.31445 157.222 7.7627 157.866 7.4209C158.511 7.06934 159.204 6.89355 159.946 6.89355C160.835 6.89355 161.572 7.14258 162.158 7.64062C162.744 8.12891 163.135 8.73926 163.33 9.47168C163.486 10.0283 163.564 11.0977 163.564 12.6797V18.0117C163.564 19.0664 163.657 19.7256 163.843 19.9893C164.038 20.2432 164.438 20.4043 165.044 20.4727V21H158.115V20.4727C158.633 20.4043 159.004 20.1895 159.229 19.8281C159.385 19.584 159.463 18.9785 159.463 18.0117V11.918C159.463 10.7949 159.419 10.0869 159.331 9.79395C159.243 9.50098 159.092 9.27637 158.877 9.12012C158.672 8.9541 158.442 8.87109 158.188 8.87109C157.349 8.87109 156.567 9.47168 155.845 10.6729V18.0117C155.845 19.0371 155.938 19.6865 156.123 19.96C156.318 20.2334 156.675 20.4043 157.192 20.4727V21H150.264V20.4727C150.84 20.4141 151.25 20.2285 151.494 19.916C151.66 19.7012 151.743 19.0664 151.743 18.0117V10.2773C151.743 9.24219 151.646 8.59766 151.45 8.34375C151.265 8.08984 150.869 7.92383 150.264 7.8457V7.30371H155.845ZM175.737 7.46484H180.352V9.07617H177.729C178.208 9.55469 178.54 9.98926 178.726 10.3799C178.96 10.9072 179.077 11.459 179.077 12.0352C179.077 13.0117 178.804 13.8613 178.257 14.584C177.72 15.2969 176.982 15.8584 176.045 16.2686C175.117 16.6689 174.292 16.8691 173.569 16.8691C173.511 16.8691 172.925 16.8447 171.812 16.7959C171.372 16.7959 171.001 16.9424 170.698 17.2354C170.405 17.5186 170.259 17.8604 170.259 18.2607C170.259 18.6123 170.391 18.9004 170.654 19.125C170.928 19.3496 171.367 19.4619 171.973 19.4619L174.507 19.4326C176.558 19.4326 177.969 19.6572 178.74 20.1064C179.844 20.7314 180.396 21.6934 180.396 22.9922C180.396 23.8223 180.142 24.5742 179.634 25.248C179.126 25.9316 178.457 26.4346 177.627 26.7568C176.367 27.2354 174.917 27.4746 173.276 27.4746C172.046 27.4746 170.923 27.3525 169.907 27.1084C168.892 26.874 168.164 26.542 167.725 26.1123C167.285 25.6924 167.065 25.248 167.065 24.7793C167.065 24.3301 167.231 23.9248 167.563 23.5635C167.905 23.2119 168.535 22.9141 169.453 22.6699C168.184 22.0449 167.549 21.1758 167.549 20.0625C167.549 19.3887 167.808 18.7344 168.325 18.0996C168.843 17.4648 169.663 16.9131 170.786 16.4443C169.478 15.9658 168.53 15.3359 167.944 14.5547C167.358 13.7734 167.065 12.8701 167.065 11.8447C167.065 10.5068 167.612 9.34961 168.706 8.37305C169.8 7.38672 171.206 6.89355 172.925 6.89355C173.833 6.89355 174.771 7.08398 175.737 7.46484ZM173.203 7.80176C172.637 7.80176 172.158 8.08984 171.768 8.66602C171.377 9.23242 171.182 10.4141 171.182 12.2109C171.182 13.666 171.372 14.667 171.753 15.2139C172.144 15.751 172.603 16.0195 173.13 16.0195C173.716 16.0195 174.204 15.751 174.595 15.2139C174.985 14.6768 175.181 13.6318 175.181 12.0791C175.181 10.3311 174.961 9.13965 174.521 8.50488C174.209 8.03613 173.77 7.80176 173.203 7.80176ZM172.339 23.0215C171.343 23.0215 170.684 23.1045 170.361 23.2705C169.805 23.5732 169.526 23.9834 169.526 24.501C169.526 24.999 169.814 25.4482 170.391 25.8486C170.967 26.2588 172.051 26.4639 173.643 26.4639C175 26.4639 176.064 26.2832 176.836 25.9219C177.617 25.5605 178.008 25.0527 178.008 24.3984C178.008 24.1543 177.935 23.9492 177.788 23.7832C177.524 23.4902 177.124 23.29 176.587 23.1826C176.06 23.0752 174.644 23.0215 172.339 23.0215ZM194.883 2.29395V7.30371H198.135V8.75391H194.883V17.2061C194.883 17.9971 194.917 18.5098 194.985 18.7441C195.063 18.9688 195.195 19.1543 195.381 19.3008C195.566 19.4375 195.737 19.5059 195.894 19.5059C196.528 19.5059 197.129 19.0225 197.695 18.0557L198.135 18.3779C197.344 20.2529 196.06 21.1904 194.282 21.1904C193.413 21.1904 192.676 20.9512 192.07 20.4727C191.475 19.9844 191.094 19.4424 190.928 18.8467C190.83 18.5146 190.781 17.6162 190.781 16.1514V8.75391H188.994V8.24121C190.225 7.37207 191.27 6.45898 192.129 5.50195C192.998 4.54492 193.755 3.47559 194.399 2.29395H194.883ZM205.034 1.13672V9.06152C205.786 8.27051 206.475 7.71387 207.1 7.3916C207.725 7.05957 208.374 6.89355 209.048 6.89355C209.907 6.89355 210.64 7.1377 211.245 7.62598C211.86 8.11426 212.266 8.69043 212.461 9.35449C212.666 10.0088 212.769 11.1172 212.769 12.6797V18.0264C212.769 19.0713 212.866 19.7256 213.062 19.9893C213.257 20.2432 213.652 20.4043 214.248 20.4727V21H207.305V20.4727C207.793 20.4043 208.159 20.209 208.403 19.8867C208.579 19.6328 208.667 19.0127 208.667 18.0264V11.918C208.667 10.7852 208.623 10.0771 208.535 9.79395C208.447 9.50098 208.296 9.27637 208.081 9.12012C207.876 8.9541 207.642 8.87109 207.378 8.87109C206.987 8.87109 206.606 9.00781 206.235 9.28125C205.864 9.54492 205.464 10.0137 205.034 10.6875V18.0264C205.034 19.0029 205.107 19.6133 205.254 19.8574C205.439 20.1895 205.82 20.3945 206.396 20.4727V21H199.453V20.4727C200.029 20.4141 200.439 20.2285 200.684 19.916C200.85 19.7012 200.933 19.0713 200.933 18.0264V4.11035C200.933 3.0752 200.835 2.43066 200.64 2.17676C200.454 1.92285 200.059 1.75684 199.453 1.67871V1.13672H205.034ZM227.739 13.6611H220.225C220.312 15.4775 220.796 16.9131 221.675 17.9678C222.349 18.7783 223.159 19.1836 224.106 19.1836C224.692 19.1836 225.225 19.0225 225.703 18.7002C226.182 18.3682 226.694 17.7773 227.241 16.9277L227.739 17.25C226.997 18.7637 226.177 19.8379 225.278 20.4727C224.38 21.0977 223.34 21.4102 222.158 21.4102C220.127 21.4102 218.589 20.6289 217.544 19.0664C216.704 17.8066 216.284 16.2441 216.284 14.3789C216.284 12.0938 216.899 10.2773 218.13 8.92969C219.37 7.57227 220.82 6.89355 222.48 6.89355C223.867 6.89355 225.068 7.46484 226.084 8.60742C227.109 9.74023 227.661 11.4248 227.739 13.6611ZM224.136 12.6797C224.136 11.1074 224.048 10.0283 223.872 9.44238C223.706 8.85645 223.442 8.41211 223.081 8.10938C222.876 7.93359 222.603 7.8457 222.261 7.8457C221.753 7.8457 221.338 8.09473 221.016 8.59277C220.439 9.46191 220.151 10.6533 220.151 12.167V12.6797H224.136ZM18.9404 48.0273L18.1934 55H0.556641V54.458H1.21582C1.79199 54.458 2.25586 54.3555 2.60742 54.1504C2.86133 54.0137 3.05664 53.7793 3.19336 53.4473C3.30078 53.2129 3.35449 52.5977 3.35449 51.6016V38.5352C3.35449 37.5195 3.30078 36.8848 3.19336 36.6309C3.08594 36.377 2.86621 36.1572 2.53418 35.9717C2.21191 35.7764 1.77246 35.6787 1.21582 35.6787H0.556641V35.1367H11.1475V35.6787H10.2832C9.70703 35.6787 9.24316 35.7812 8.8916 35.9863C8.6377 36.123 8.4375 36.3574 8.29102 36.6895C8.18359 36.9238 8.12988 37.5391 8.12988 38.5352V51.1914C8.12988 52.207 8.18848 52.8564 8.30566 53.1396C8.42285 53.4131 8.65234 53.6182 8.99414 53.7549C9.23828 53.8428 9.8291 53.8867 10.7666 53.8867H12.4219C13.4766 53.8867 14.3555 53.7012 15.0586 53.3301C15.7617 52.959 16.3672 52.373 16.875 51.5723C17.3926 50.7715 17.8809 49.5898 18.3398 48.0273H18.9404ZM28.5791 52.9785C26.9092 54.4531 25.4102 55.1904 24.082 55.1904C23.3008 55.1904 22.6514 54.9365 22.1338 54.4287C21.6162 53.9111 21.3574 53.2666 21.3574 52.4951C21.3574 51.4502 21.8066 50.5127 22.7051 49.6826C23.6035 48.8428 25.5615 47.7295 28.5791 46.3428V44.9658C28.5791 43.9307 28.5205 43.2812 28.4033 43.0176C28.2959 42.7441 28.0859 42.5098 27.7734 42.3145C27.4609 42.1094 27.1094 42.0068 26.7188 42.0068C26.084 42.0068 25.5615 42.1484 25.1514 42.4316C24.8975 42.6074 24.7705 42.8125 24.7705 43.0469C24.7705 43.252 24.9072 43.5059 25.1807 43.8086C25.5518 44.2285 25.7373 44.6338 25.7373 45.0244C25.7373 45.5029 25.5566 45.9131 25.1953 46.2549C24.8438 46.5869 24.3799 46.7529 23.8037 46.7529C23.1885 46.7529 22.6709 46.5674 22.251 46.1963C21.8408 45.8252 21.6357 45.3906 21.6357 44.8926C21.6357 44.1895 21.9141 43.5205 22.4707 42.8857C23.0273 42.2412 23.8037 41.748 24.7998 41.4062C25.7959 41.0645 26.8311 40.8936 27.9053 40.8936C29.2041 40.8936 30.2295 41.1719 30.9814 41.7285C31.7432 42.2754 32.2363 42.8711 32.4609 43.5156C32.5977 43.9258 32.666 44.8682 32.666 46.3428V51.6602C32.666 52.2852 32.6904 52.6807 32.7393 52.8467C32.7881 53.0029 32.8613 53.1201 32.959 53.1982C33.0566 53.2764 33.1689 53.3154 33.2959 53.3154C33.5498 53.3154 33.8086 53.1348 34.0723 52.7734L34.5117 53.125C34.0234 53.8477 33.5156 54.375 32.9883 54.707C32.4707 55.0293 31.8799 55.1904 31.2158 55.1904C30.4346 55.1904 29.8242 55.0098 29.3848 54.6484C28.9453 54.2773 28.6768 53.7207 28.5791 52.9785ZM28.5791 51.9092V47.3242C27.3975 48.0176 26.5186 48.7598 25.9424 49.5508C25.5615 50.0781 25.3711 50.6104 25.3711 51.1475C25.3711 51.5967 25.5322 51.9922 25.8545 52.334C26.0986 52.5977 26.4404 52.7295 26.8799 52.7295C27.3682 52.7295 27.9346 52.4561 28.5791 51.9092ZM41.4551 36.2939V41.3037H44.707V42.7539H41.4551V51.2061C41.4551 51.9971 41.4893 52.5098 41.5576 52.7441C41.6357 52.9688 41.7676 53.1543 41.9531 53.3008C42.1387 53.4375 42.3096 53.5059 42.4658 53.5059C43.1006 53.5059 43.7012 53.0225 44.2676 52.0557L44.707 52.3779C43.916 54.2529 42.6318 55.1904 40.8545 55.1904C39.9854 55.1904 39.248 54.9512 38.6426 54.4727C38.0469 53.9844 37.666 53.4424 37.5 52.8467C37.4023 52.5146 37.3535 51.6162 37.3535 50.1514V42.7539H35.5664V42.2412C36.7969 41.3721 37.8418 40.459 38.7012 39.502C39.5703 38.5449 40.3271 37.4756 40.9717 36.2939H41.4551ZM57.6123 47.6611H50.0977C50.1855 49.4775 50.6689 50.9131 51.5479 51.9678C52.2217 52.7783 53.0322 53.1836 53.9795 53.1836C54.5654 53.1836 55.0977 53.0225 55.5762 52.7002C56.0547 52.3682 56.5674 51.7773 57.1143 50.9277L57.6123 51.25C56.8701 52.7637 56.0498 53.8379 55.1514 54.4727C54.2529 55.0977 53.2129 55.4102 52.0312 55.4102C50 55.4102 48.4619 54.6289 47.417 53.0664C46.5771 51.8066 46.1572 50.2441 46.1572 48.3789C46.1572 46.0938 46.7725 44.2773 48.0029 42.9297C49.2432 41.5723 50.6934 40.8936 52.3535 40.8936C53.7402 40.8936 54.9414 41.4648 55.957 42.6074C56.9824 43.7402 57.5342 45.4248 57.6123 47.6611ZM54.0088 46.6797C54.0088 45.1074 53.9209 44.0283 53.7451 43.4424C53.5791 42.8564 53.3154 42.4121 52.9541 42.1094C52.749 41.9336 52.4756 41.8457 52.1338 41.8457C51.626 41.8457 51.2109 42.0947 50.8887 42.5928C50.3125 43.4619 50.0244 44.6533 50.0244 46.167V46.6797H54.0088ZM64.9365 41.3037V43.0762C65.6396 42.3145 66.3135 41.7627 66.958 41.4209C67.6025 41.0693 68.2959 40.8936 69.0381 40.8936C69.9268 40.8936 70.6641 41.1426 71.25 41.6406C71.8359 42.1289 72.2266 42.7393 72.4219 43.4717C72.5781 44.0283 72.6562 45.0977 72.6562 46.6797V52.0117C72.6562 53.0664 72.749 53.7256 72.9346 53.9893C73.1299 54.2432 73.5303 54.4043 74.1357 54.4727V55H67.207V54.4727C67.7246 54.4043 68.0957 54.1895 68.3203 53.8281C68.4766 53.584 68.5547 52.9785 68.5547 52.0117V45.918C68.5547 44.7949 68.5107 44.0869 68.4229 43.7939C68.335 43.501 68.1836 43.2764 67.9688 43.1201C67.7637 42.9541 67.5342 42.8711 67.2803 42.8711C66.4404 42.8711 65.6592 43.4717 64.9365 44.6729V52.0117C64.9365 53.0371 65.0293 53.6865 65.2148 53.96C65.4102 54.2334 65.7666 54.4043 66.2842 54.4727V55H59.3555V54.4727C59.9316 54.4141 60.3418 54.2285 60.5859 53.916C60.752 53.7012 60.835 53.0664 60.835 52.0117V44.2773C60.835 43.2422 60.7373 42.5977 60.542 42.3438C60.3564 42.0898 59.9609 41.9238 59.3555 41.8457V41.3037H64.9365ZM81.4746 36.2939V41.3037H84.7266V42.7539H81.4746V51.2061C81.4746 51.9971 81.5088 52.5098 81.5771 52.7441C81.6553 52.9688 81.7871 53.1543 81.9727 53.3008C82.1582 53.4375 82.3291 53.5059 82.4854 53.5059C83.1201 53.5059 83.7207 53.0225 84.2871 52.0557L84.7266 52.3779C83.9355 54.2529 82.6514 55.1904 80.874 55.1904C80.0049 55.1904 79.2676 54.9512 78.6621 54.4727C78.0664 53.9844 77.6855 53.4424 77.5195 52.8467C77.4219 52.5146 77.373 51.6162 77.373 50.1514V42.7539H75.5859V42.2412C76.8164 41.3721 77.8613 40.459 78.7207 39.502C79.5898 38.5449 80.3467 37.4756 80.9912 36.2939H81.4746ZM106.611 34.6826L106.772 41.3037H106.172C105.889 39.6436 105.19 38.3105 104.077 37.3047C102.974 36.2891 101.777 35.7812 100.488 35.7812C99.4922 35.7812 98.7012 36.0498 98.1152 36.5869C97.5391 37.1143 97.251 37.7246 97.251 38.418C97.251 38.8574 97.3535 39.248 97.5586 39.5898C97.8418 40.0488 98.2959 40.5029 98.9209 40.9521C99.3799 41.2744 100.439 41.8457 102.1 42.666C104.424 43.8086 105.991 44.8877 106.802 45.9033C107.603 46.9189 108.003 48.0811 108.003 49.3896C108.003 51.0498 107.354 52.4805 106.055 53.6816C104.766 54.873 103.125 55.4688 101.133 55.4688C100.508 55.4688 99.917 55.4053 99.3604 55.2783C98.8037 55.1514 98.1055 54.9121 97.2656 54.5605C96.7969 54.3652 96.4111 54.2676 96.1084 54.2676C95.8545 54.2676 95.5859 54.3652 95.3027 54.5605C95.0195 54.7559 94.79 55.0537 94.6143 55.4541H94.0723V47.9541H94.6143C95.0439 50.0635 95.8691 51.6748 97.0898 52.7881C98.3203 53.8916 99.6436 54.4434 101.06 54.4434C102.153 54.4434 103.022 54.1455 103.667 53.5498C104.321 52.9541 104.648 52.2607 104.648 51.4697C104.648 51.001 104.521 50.5469 104.268 50.1074C104.023 49.668 103.647 49.2529 103.14 48.8623C102.632 48.4619 101.733 47.9443 100.444 47.3096C98.6377 46.4209 97.3389 45.6641 96.5479 45.0391C95.7568 44.4141 95.1465 43.7158 94.7168 42.9443C94.2969 42.1729 94.0869 41.3232 94.0869 40.3955C94.0869 38.8135 94.668 37.4658 95.8301 36.3525C96.9922 35.2393 98.457 34.6826 100.225 34.6826C100.869 34.6826 101.494 34.7607 102.1 34.917C102.559 35.0342 103.115 35.2539 103.77 35.5762C104.434 35.8887 104.897 36.0449 105.161 36.0449C105.415 36.0449 105.615 35.9668 105.762 35.8105C105.908 35.6543 106.045 35.2783 106.172 34.6826H106.611ZM115.532 53.6084V58.7061C115.532 59.4092 115.586 59.8877 115.693 60.1416C115.811 60.3955 115.986 60.5811 116.221 60.6982C116.455 60.8154 116.914 60.874 117.598 60.874V61.416H109.79V60.874C110.396 60.8545 110.845 60.6836 111.138 60.3613C111.333 60.1367 111.431 59.5557 111.431 58.6182V44.1602C111.431 43.1934 111.318 42.5781 111.094 42.3145C110.869 42.041 110.435 41.8848 109.79 41.8457V41.3037H115.532V43.1055C116.011 42.4023 116.499 41.8945 116.997 41.582C117.71 41.123 118.486 40.8936 119.326 40.8936C120.332 40.8936 121.245 41.2109 122.065 41.8457C122.896 42.4805 123.525 43.3594 123.955 44.4824C124.385 45.5957 124.6 46.7969 124.6 48.0859C124.6 49.4727 124.375 50.7422 123.926 51.8945C123.486 53.0371 122.842 53.9111 121.992 54.5166C121.152 55.1123 120.215 55.4102 119.18 55.4102C118.428 55.4102 117.725 55.2441 117.07 54.9121C116.582 54.6582 116.069 54.2236 115.532 53.6084ZM115.532 52.1289C116.372 53.3203 117.271 53.916 118.228 53.916C118.755 53.916 119.189 53.6377 119.531 53.0811C120.039 52.2607 120.293 50.6982 120.293 48.3936C120.293 46.0303 120.015 44.4141 119.458 43.5449C119.087 42.9688 118.589 42.6807 117.964 42.6807C116.978 42.6807 116.167 43.3936 115.532 44.8193V52.1289ZM134.487 52.9785C132.817 54.4531 131.318 55.1904 129.99 55.1904C129.209 55.1904 128.56 54.9365 128.042 54.4287C127.524 53.9111 127.266 53.2666 127.266 52.4951C127.266 51.4502 127.715 50.5127 128.613 49.6826C129.512 48.8428 131.47 47.7295 134.487 46.3428V44.9658C134.487 43.9307 134.429 43.2812 134.312 43.0176C134.204 42.7441 133.994 42.5098 133.682 42.3145C133.369 42.1094 133.018 42.0068 132.627 42.0068C131.992 42.0068 131.47 42.1484 131.06 42.4316C130.806 42.6074 130.679 42.8125 130.679 43.0469C130.679 43.252 130.815 43.5059 131.089 43.8086C131.46 44.2285 131.646 44.6338 131.646 45.0244C131.646 45.5029 131.465 45.9131 131.104 46.2549C130.752 46.5869 130.288 46.7529 129.712 46.7529C129.097 46.7529 128.579 46.5674 128.159 46.1963C127.749 45.8252 127.544 45.3906 127.544 44.8926C127.544 44.1895 127.822 43.5205 128.379 42.8857C128.936 42.2412 129.712 41.748 130.708 41.4062C131.704 41.0645 132.739 40.8936 133.813 40.8936C135.112 40.8936 136.138 41.1719 136.89 41.7285C137.651 42.2754 138.145 42.8711 138.369 43.5156C138.506 43.9258 138.574 44.8682 138.574 46.3428V51.6602C138.574 52.2852 138.599 52.6807 138.647 52.8467C138.696 53.0029 138.77 53.1201 138.867 53.1982C138.965 53.2764 139.077 53.3154 139.204 53.3154C139.458 53.3154 139.717 53.1348 139.98 52.7734L140.42 53.125C139.932 53.8477 139.424 54.375 138.896 54.707C138.379 55.0293 137.788 55.1904 137.124 55.1904C136.343 55.1904 135.732 55.0098 135.293 54.6484C134.854 54.2773 134.585 53.7207 134.487 52.9785ZM134.487 51.9092V47.3242C133.306 48.0176 132.427 48.7598 131.851 49.5508C131.47 50.0781 131.279 50.6104 131.279 51.1475C131.279 51.5967 131.44 51.9922 131.763 52.334C132.007 52.5977 132.349 52.7295 132.788 52.7295C133.276 52.7295 133.843 52.4561 134.487 51.9092ZM153.105 51.4697L153.56 51.8213C152.915 53.0322 152.109 53.9355 151.143 54.5312C150.186 55.1172 149.165 55.4102 148.081 55.4102C146.255 55.4102 144.795 54.7217 143.701 53.3447C142.607 51.9678 142.061 50.3125 142.061 48.3789C142.061 46.5137 142.559 44.873 143.555 43.457C144.756 41.748 146.411 40.8936 148.521 40.8936C149.937 40.8936 151.06 41.25 151.89 41.9629C152.729 42.6758 153.149 43.4717 153.149 44.3506C153.149 44.9072 152.979 45.3516 152.637 45.6836C152.305 46.0156 151.865 46.1816 151.318 46.1816C150.742 46.1816 150.264 45.9912 149.883 45.6104C149.512 45.2295 149.282 44.5508 149.194 43.5742C149.136 42.959 148.994 42.5293 148.77 42.2852C148.545 42.041 148.281 41.9189 147.979 41.9189C147.51 41.9189 147.109 42.168 146.777 42.666C146.27 43.418 146.016 44.5703 146.016 46.123C146.016 47.4121 146.221 48.6475 146.631 49.8291C147.041 51.001 147.603 51.875 148.315 52.4512C148.853 52.8711 149.487 53.0811 150.22 53.0811C150.698 53.0811 151.152 52.9688 151.582 52.7441C152.012 52.5195 152.52 52.0947 153.105 51.4697ZM166.86 47.6611H159.346C159.434 49.4775 159.917 50.9131 160.796 51.9678C161.47 52.7783 162.28 53.1836 163.228 53.1836C163.813 53.1836 164.346 53.0225 164.824 52.7002C165.303 52.3682 165.815 51.7773 166.362 50.9277L166.86 51.25C166.118 52.7637 165.298 53.8379 164.399 54.4727C163.501 55.0977 162.461 55.4102 161.279 55.4102C159.248 55.4102 157.71 54.6289 156.665 53.0664C155.825 51.8066 155.405 50.2441 155.405 48.3789C155.405 46.0938 156.021 44.2773 157.251 42.9297C158.491 41.5723 159.941 40.8936 161.602 40.8936C162.988 40.8936 164.189 41.4648 165.205 42.6074C166.23 43.7402 166.782 45.4248 166.86 47.6611ZM163.257 46.6797C163.257 45.1074 163.169 44.0283 162.993 43.4424C162.827 42.8564 162.563 42.4121 162.202 42.1094C161.997 41.9336 161.724 41.8457 161.382 41.8457C160.874 41.8457 160.459 42.0947 160.137 42.5928C159.561 43.4619 159.272 44.6533 159.272 46.167V46.6797H163.257Z" fill="black"/>
</svg>
