<svg width="265" height="62" viewBox="0 0 265 62" fill="none" xmlns="http://www.w3.org/2000/svg">
<path d="M7.83691 5.9707C6.86035 7.30859 5.01953 10.2285 2.31445 14.7305H7.83691V5.9707ZM14.4873 14.7305C14.79 14.7305 14.9414 14.8916 14.9414 15.2139C14.9414 15.3896 14.8438 15.5898 14.6484 15.8145C14.4629 16.0293 14.2725 16.1367 14.0771 16.1367H11.543V17.3379C11.543 17.9336 11.6016 18.417 11.7188 18.7881C11.8457 19.1592 12.0508 19.4326 12.334 19.6084C12.627 19.7744 12.9053 19.8818 13.1689 19.9307C13.4326 19.9795 13.8232 20.0137 14.3408 20.0332C14.4971 20.1113 14.5752 20.2773 14.5752 20.5312C14.5752 20.7852 14.4971 20.9609 14.3408 21.0586C13.6963 21.0586 13.042 21.0537 12.3779 21.0439C11.7236 21.0342 11.2061 21.0244 10.8252 21.0146C10.4443 21.0049 10.0781 21 9.72656 21L5.03906 21.0586C4.88281 20.9805 4.80469 20.8145 4.80469 20.5605C4.80469 20.2969 4.88281 20.1211 5.03906 20.0332C5.55664 20.0137 5.94727 19.9795 6.21094 19.9307C6.47461 19.8818 6.74805 19.7744 7.03125 19.6084C7.32422 19.4326 7.5293 19.1641 7.64648 18.8027C7.77344 18.4316 7.83691 17.9434 7.83691 17.3379V16.1367H2.51953C2.00195 16.1367 1.66992 16.0684 1.52344 15.9316L1.08398 15.3896C1.04492 15.3115 0.981445 15.2188 0.893555 15.1113C0.81543 14.9941 0.756836 14.9062 0.717773 14.8477C0.678711 14.7891 0.65918 14.7402 0.65918 14.7012C0.65918 14.6426 0.727539 14.5107 0.864258 14.3057C1.26465 13.6904 1.9043 12.7188 2.7832 11.3906C3.67188 10.0527 4.39941 8.94922 4.96582 8.08008C5.53223 7.21094 6.18652 6.25879 6.92871 5.22363C7.6709 4.17871 8.31055 3.33887 8.84766 2.7041H11.543V14.7305H14.4873ZM16.875 19.2568C16.875 18.6807 17.0947 18.1826 17.5342 17.7627C17.9736 17.3428 18.4912 17.1328 19.0869 17.1328C19.6924 17.1328 20.2051 17.333 20.625 17.7334C21.0449 18.1338 21.2549 18.6221 21.2549 19.1982C21.2549 19.7549 21.0352 20.2432 20.5957 20.6631C20.1562 21.083 19.6338 21.293 19.0283 21.293C18.4326 21.293 17.9248 21.0928 17.5049 20.6924C17.085 20.292 16.875 19.8135 16.875 19.2568ZM30.5713 5.9707C29.5947 7.30859 27.7539 10.2285 25.0488 14.7305H30.5713V5.9707ZM37.2217 14.7305C37.5244 14.7305 37.6758 14.8916 37.6758 15.2139C37.6758 15.3896 37.5781 15.5898 37.3828 15.8145C37.1973 16.0293 37.0068 16.1367 36.8115 16.1367H34.2773V17.3379C34.2773 17.9336 34.3359 18.417 34.4531 18.7881C34.5801 19.1592 34.7852 19.4326 35.0684 19.6084C35.3613 19.7744 35.6396 19.8818 35.9033 19.9307C36.167 19.9795 36.5576 20.0137 37.0752 20.0332C37.2314 20.1113 37.3096 20.2773 37.3096 20.5312C37.3096 20.7852 37.2314 20.9609 37.0752 21.0586C36.4307 21.0586 35.7764 21.0537 35.1123 21.0439C34.458 21.0342 33.9404 21.0244 33.5596 21.0146C33.1787 21.0049 32.8125 21 32.4609 21L27.7734 21.0586C27.6172 20.9805 27.5391 20.8145 27.5391 20.5605C27.5391 20.2969 27.6172 20.1211 27.7734 20.0332C28.291 20.0137 28.6816 19.9795 28.9453 19.9307C29.209 19.8818 29.4824 19.7744 29.7656 19.6084C30.0586 19.4326 30.2637 19.1641 30.3809 18.8027C30.5078 18.4316 30.5713 17.9434 30.5713 17.3379V16.1367H25.2539C24.7363 16.1367 24.4043 16.0684 24.2578 15.9316L23.8184 15.3896C23.7793 15.3115 23.7158 15.2188 23.6279 15.1113C23.5498 14.9941 23.4912 14.9062 23.4521 14.8477C23.4131 14.7891 23.3936 14.7402 23.3936 14.7012C23.3936 14.6426 23.4619 14.5107 23.5986 14.3057C23.999 13.6904 24.6387 12.7188 25.5176 11.3906C26.4062 10.0527 27.1338 8.94922 27.7002 8.08008C28.2666 7.21094 28.9209 6.25879 29.6631 5.22363C30.4053 4.17871 31.0449 3.33887 31.582 2.7041H34.2773V14.7305H37.2217ZM39.6094 19.2568C39.6094 18.6807 39.8291 18.1826 40.2686 17.7627C40.708 17.3428 41.2256 17.1328 41.8213 17.1328C42.4268 17.1328 42.9395 17.333 43.3594 17.7334C43.7793 18.1338 43.9893 18.6221 43.9893 19.1982C43.9893 19.7549 43.7695 20.2432 43.3301 20.6631C42.8906 21.083 42.3682 21.293 41.7627 21.293C41.167 21.293 40.6592 21.0928 40.2393 20.6924C39.8193 20.292 39.6094 19.8135 39.6094 19.2568Z" fill="#C92B1D"/>
<path d="M71.8945 1.13672V6.5127H71.3672C71.0547 5.27246 70.708 4.38379 70.3271 3.84668C69.9463 3.2998 69.4238 2.86523 68.7598 2.54297C68.3887 2.36719 67.7393 2.2793 66.8115 2.2793H65.332V17.6016C65.332 18.6172 65.3857 19.252 65.4932 19.5059C65.6104 19.7598 65.8301 19.9844 66.1523 20.1797C66.4844 20.3652 66.9336 20.458 67.5 20.458H68.1592V21H57.7588V20.458H58.418C58.9941 20.458 59.458 20.3555 59.8096 20.1504C60.0635 20.0137 60.2637 19.7793 60.4102 19.4473C60.5176 19.2129 60.5713 18.5977 60.5713 17.6016V2.2793H59.1357C57.7979 2.2793 56.8262 2.5625 56.2207 3.12891C55.3711 3.91992 54.834 5.04785 54.6094 6.5127H54.0527V1.13672H71.8945ZM77.4463 7.30371V10.4092C78.3545 8.99316 79.1504 8.05566 79.834 7.59668C80.5176 7.12793 81.1768 6.89355 81.8115 6.89355C82.3584 6.89355 82.793 7.06445 83.1152 7.40625C83.4473 7.73828 83.6133 8.21191 83.6133 8.82715C83.6133 9.48145 83.4521 9.98926 83.1299 10.3506C82.8174 10.7119 82.4365 10.8926 81.9873 10.8926C81.4697 10.8926 81.0205 10.7266 80.6396 10.3945C80.2588 10.0625 80.0342 9.87695 79.9658 9.83789C79.8682 9.7793 79.7559 9.75 79.6289 9.75C79.3457 9.75 79.0771 9.85742 78.8232 10.0723C78.4229 10.4043 78.1201 10.8779 77.915 11.4932C77.6025 12.4404 77.4463 13.4854 77.4463 14.6279V17.7773L77.4609 18.5977C77.4609 19.1543 77.4951 19.5107 77.5635 19.667C77.6807 19.9307 77.8516 20.126 78.0762 20.2529C78.3105 20.3701 78.7012 20.4434 79.248 20.4727V21H71.8506V20.4727C72.4463 20.4238 72.8467 20.2627 73.0518 19.9893C73.2666 19.7061 73.374 18.9688 73.374 17.7773V10.2041C73.374 9.42285 73.335 8.9248 73.2568 8.70996C73.1592 8.43652 73.0176 8.23633 72.832 8.10938C72.6465 7.98242 72.3193 7.89453 71.8506 7.8457V7.30371H77.4463ZM92.6514 18.9785C90.9814 20.4531 89.4824 21.1904 88.1543 21.1904C87.373 21.1904 86.7236 20.9365 86.2061 20.4287C85.6885 19.9111 85.4297 19.2666 85.4297 18.4951C85.4297 17.4502 85.8789 16.5127 86.7773 15.6826C87.6758 14.8428 89.6338 13.7295 92.6514 12.3428V10.9658C92.6514 9.93066 92.5928 9.28125 92.4756 9.01758C92.3682 8.74414 92.1582 8.50977 91.8457 8.31445C91.5332 8.10938 91.1816 8.00684 90.791 8.00684C90.1562 8.00684 89.6338 8.14844 89.2236 8.43164C88.9697 8.60742 88.8428 8.8125 88.8428 9.04688C88.8428 9.25195 88.9795 9.50586 89.2529 9.80859C89.624 10.2285 89.8096 10.6338 89.8096 11.0244C89.8096 11.5029 89.6289 11.9131 89.2676 12.2549C88.916 12.5869 88.4521 12.7529 87.876 12.7529C87.2607 12.7529 86.7432 12.5674 86.3232 12.1963C85.9131 11.8252 85.708 11.3906 85.708 10.8926C85.708 10.1895 85.9863 9.52051 86.543 8.88574C87.0996 8.24121 87.876 7.74805 88.8721 7.40625C89.8682 7.06445 90.9033 6.89355 91.9775 6.89355C93.2764 6.89355 94.3018 7.17188 95.0537 7.72852C95.8154 8.27539 96.3086 8.87109 96.5332 9.51562C96.6699 9.92578 96.7383 10.8682 96.7383 12.3428V17.6602C96.7383 18.2852 96.7627 18.6807 96.8115 18.8467C96.8604 19.0029 96.9336 19.1201 97.0312 19.1982C97.1289 19.2764 97.2412 19.3154 97.3682 19.3154C97.6221 19.3154 97.8809 19.1348 98.1445 18.7734L98.584 19.125C98.0957 19.8477 97.5879 20.375 97.0605 20.707C96.543 21.0293 95.9521 21.1904 95.2881 21.1904C94.5068 21.1904 93.8965 21.0098 93.457 20.6484C93.0176 20.2773 92.749 19.7207 92.6514 18.9785ZM92.6514 17.9092V13.3242C91.4697 14.0176 90.5908 14.7598 90.0146 15.5508C89.6338 16.0781 89.4434 16.6104 89.4434 17.1475C89.4434 17.5967 89.6045 17.9922 89.9268 18.334C90.1709 18.5977 90.5127 18.7295 90.9521 18.7295C91.4404 18.7295 92.0068 18.4561 92.6514 17.9092ZM105.688 7.30371V9.07617C106.392 8.31445 107.065 7.7627 107.71 7.4209C108.354 7.06934 109.048 6.89355 109.79 6.89355C110.679 6.89355 111.416 7.14258 112.002 7.64062C112.588 8.12891 112.979 8.73926 113.174 9.47168C113.33 10.0283 113.408 11.0977 113.408 12.6797V18.0117C113.408 19.0664 113.501 19.7256 113.687 19.9893C113.882 20.2432 114.282 20.4043 114.888 20.4727V21H107.959V20.4727C108.477 20.4043 108.848 20.1895 109.072 19.8281C109.229 19.584 109.307 18.9785 109.307 18.0117V11.918C109.307 10.7949 109.263 10.0869 109.175 9.79395C109.087 9.50098 108.936 9.27637 108.721 9.12012C108.516 8.9541 108.286 8.87109 108.032 8.87109C107.192 8.87109 106.411 9.47168 105.688 10.6729V18.0117C105.688 19.0371 105.781 19.6865 105.967 19.96C106.162 20.2334 106.519 20.4043 107.036 20.4727V21H100.107V20.4727C100.684 20.4141 101.094 20.2285 101.338 19.916C101.504 19.7012 101.587 19.0664 101.587 18.0117V10.2773C101.587 9.24219 101.489 8.59766 101.294 8.34375C101.108 8.08984 100.713 7.92383 100.107 7.8457V7.30371H105.688ZM125.449 6.92285L125.669 11.5957H125.171C124.575 10.209 123.955 9.26172 123.311 8.75391C122.676 8.24609 122.041 7.99219 121.406 7.99219C121.006 7.99219 120.664 8.12891 120.381 8.40234C120.098 8.66602 119.956 8.97363 119.956 9.3252C119.956 9.58887 120.054 9.84277 120.249 10.0869C120.562 10.4873 121.436 11.1758 122.871 12.1523C124.307 13.1191 125.249 13.9443 125.698 14.6279C126.157 15.3018 126.387 16.0586 126.387 16.8984C126.387 17.6602 126.196 18.4072 125.815 19.1396C125.435 19.8721 124.897 20.4336 124.204 20.8242C123.511 21.2148 122.744 21.4102 121.904 21.4102C121.25 21.4102 120.376 21.2051 119.282 20.7949C118.989 20.6875 118.789 20.6338 118.682 20.6338C118.359 20.6338 118.091 20.8779 117.876 21.3662H117.393L117.158 16.4443H117.656C118.096 17.7334 118.696 18.7002 119.458 19.3447C120.229 19.9893 120.957 20.3115 121.641 20.3115C122.109 20.3115 122.49 20.1699 122.783 19.8867C123.086 19.5938 123.237 19.2422 123.237 18.832C123.237 18.3633 123.091 17.958 122.798 17.6162C122.505 17.2744 121.851 16.7568 120.835 16.0635C119.341 15.0283 118.374 14.2373 117.935 13.6904C117.29 12.8896 116.968 12.0059 116.968 11.0391C116.968 9.98438 117.329 9.03223 118.052 8.18262C118.784 7.32324 119.839 6.89355 121.216 6.89355C121.958 6.89355 122.676 7.07422 123.369 7.43555C123.633 7.58203 123.848 7.65527 124.014 7.65527C124.189 7.65527 124.331 7.62109 124.438 7.55273C124.546 7.47461 124.717 7.26465 124.951 6.92285H125.449ZM134.487 8.73926V18.2461C134.487 19.1641 134.585 19.7402 134.78 19.9746C135.093 20.3359 135.669 20.502 136.509 20.4727V21H128.438V20.4727C129.053 20.4629 129.487 20.3945 129.741 20.2676C130.005 20.1309 130.186 19.9453 130.283 19.7109C130.381 19.4766 130.43 18.9883 130.43 18.2461V8.73926H128.438V7.30371H130.43V6.29297L130.415 5.60449C130.415 4.19824 130.928 3.02637 131.953 2.08887C132.988 1.15137 134.385 0.682617 136.143 0.682617C137.344 0.682617 138.232 0.907227 138.809 1.35645C139.395 1.80566 139.688 2.30371 139.688 2.85059C139.688 3.29004 139.507 3.6709 139.146 3.99316C138.784 4.31543 138.306 4.47656 137.71 4.47656C137.202 4.47656 136.797 4.34473 136.494 4.08105C136.201 3.81738 136.055 3.52441 136.055 3.20215C136.055 3.11426 136.084 2.93359 136.143 2.66016C136.182 2.49414 136.201 2.33789 136.201 2.19141C136.201 1.98633 136.143 1.83496 136.025 1.7373C135.869 1.59082 135.679 1.51758 135.454 1.51758C135.171 1.51758 134.932 1.63477 134.736 1.86914C134.551 2.10352 134.458 2.47949 134.458 2.99707L134.487 5.56055V7.30371H136.509V8.73926H134.487ZM144.932 6.89355C146.123 6.89355 147.231 7.20117 148.257 7.81641C149.282 8.43164 150.059 9.30566 150.586 10.4385C151.123 11.5713 151.392 12.8115 151.392 14.1592C151.392 16.1025 150.898 17.7285 149.912 19.0371C148.721 20.6191 147.075 21.4102 144.976 21.4102C142.915 21.4102 141.328 20.6875 140.215 19.2422C139.102 17.7969 138.545 16.1221 138.545 14.2178C138.545 12.2549 139.111 10.5459 140.244 9.09082C141.387 7.62598 142.949 6.89355 144.932 6.89355ZM144.99 7.93359C144.492 7.93359 144.062 8.12402 143.701 8.50488C143.35 8.87598 143.115 9.61816 142.998 10.7314C142.891 11.835 142.837 13.373 142.837 15.3457C142.837 16.3906 142.905 17.3672 143.042 18.2754C143.149 18.9688 143.379 19.4961 143.73 19.8574C144.082 20.2188 144.482 20.3994 144.932 20.3994C145.371 20.3994 145.737 20.2773 146.03 20.0332C146.411 19.7012 146.665 19.2373 146.792 18.6416C146.987 17.7139 147.085 15.8389 147.085 13.0166C147.085 11.3564 146.992 10.2188 146.807 9.60352C146.621 8.97852 146.348 8.52441 145.986 8.24121C145.732 8.03613 145.4 7.93359 144.99 7.93359ZM159.155 7.30371V10.4092C160.063 8.99316 160.859 8.05566 161.543 7.59668C162.227 7.12793 162.886 6.89355 163.521 6.89355C164.067 6.89355 164.502 7.06445 164.824 7.40625C165.156 7.73828 165.322 8.21191 165.322 8.82715C165.322 9.48145 165.161 9.98926 164.839 10.3506C164.526 10.7119 164.146 10.8926 163.696 10.8926C163.179 10.8926 162.729 10.7266 162.349 10.3945C161.968 10.0625 161.743 9.87695 161.675 9.83789C161.577 9.7793 161.465 9.75 161.338 9.75C161.055 9.75 160.786 9.85742 160.532 10.0723C160.132 10.4043 159.829 10.8779 159.624 11.4932C159.312 12.4404 159.155 13.4854 159.155 14.6279V17.7773L159.17 18.5977C159.17 19.1543 159.204 19.5107 159.272 19.667C159.39 19.9307 159.561 20.126 159.785 20.2529C160.02 20.3701 160.41 20.4434 160.957 20.4727V21H153.56V20.4727C154.155 20.4238 154.556 20.2627 154.761 19.9893C154.976 19.7061 155.083 18.9688 155.083 17.7773V10.2041C155.083 9.42285 155.044 8.9248 154.966 8.70996C154.868 8.43652 154.727 8.23633 154.541 8.10938C154.355 7.98242 154.028 7.89453 153.56 7.8457V7.30371H159.155ZM172.485 7.30371V9.10547C173.237 8.28516 173.931 7.71387 174.565 7.3916C175.21 7.05957 175.913 6.89355 176.675 6.89355C177.554 6.89355 178.291 7.09863 178.887 7.50879C179.482 7.91895 179.941 8.54395 180.264 9.38379C181.045 8.50488 181.792 7.87012 182.505 7.47949C183.228 7.08887 183.979 6.89355 184.761 6.89355C185.708 6.89355 186.46 7.11328 187.017 7.55273C187.583 7.98242 187.974 8.53418 188.188 9.20801C188.413 9.87207 188.525 10.9365 188.525 12.4014V18.0117C188.525 19.0664 188.618 19.7207 188.804 19.9746C188.999 20.2285 189.399 20.3945 190.005 20.4727V21H182.93V20.4727C183.486 20.4238 183.896 20.209 184.16 19.8281C184.336 19.5645 184.424 18.959 184.424 18.0117V12.123C184.424 10.9023 184.375 10.126 184.277 9.79395C184.18 9.46191 184.023 9.21777 183.809 9.06152C183.604 8.89551 183.359 8.8125 183.076 8.8125C182.656 8.8125 182.231 8.96875 181.802 9.28125C181.372 9.58398 180.938 10.043 180.498 10.6582V18.0117C180.498 18.998 180.581 19.6182 180.747 19.8721C180.972 20.2334 181.401 20.4336 182.036 20.4727V21H174.946V20.4727C175.327 20.4531 175.625 20.3604 175.84 20.1943C176.064 20.0186 176.211 19.8135 176.279 19.5791C176.357 19.335 176.396 18.8125 176.396 18.0117V12.123C176.396 10.8828 176.348 10.1064 176.25 9.79395C176.152 9.48145 175.986 9.2373 175.752 9.06152C175.527 8.88574 175.283 8.79785 175.02 8.79785C174.629 8.79785 174.272 8.90039 173.95 9.10547C173.491 9.4082 173.003 9.92578 172.485 10.6582V18.0117C172.485 18.9785 172.578 19.6182 172.764 19.9307C172.959 20.2334 173.359 20.4141 173.965 20.4727V21H166.904V20.4727C167.48 20.4141 167.891 20.2285 168.135 19.916C168.301 19.7012 168.384 19.0664 168.384 18.0117V10.2773C168.384 9.24219 168.286 8.59766 168.091 8.34375C167.905 8.08984 167.51 7.92383 166.904 7.8457V7.30371H172.485ZM195.088 0.667969C195.723 0.667969 196.26 0.892578 196.699 1.3418C197.139 1.78125 197.358 2.31348 197.358 2.93848C197.358 3.56348 197.134 4.0957 196.685 4.53516C196.245 4.97461 195.713 5.19434 195.088 5.19434C194.463 5.19434 193.931 4.97461 193.491 4.53516C193.052 4.0957 192.832 3.56348 192.832 2.93848C192.832 2.31348 193.052 1.78125 193.491 1.3418C193.931 0.892578 194.463 0.667969 195.088 0.667969ZM197.139 7.30371V18.1582C197.139 19.125 197.251 19.7451 197.476 20.0186C197.7 20.2822 198.14 20.4336 198.794 20.4727V21H191.396V20.4727C192.002 20.4531 192.451 20.2773 192.744 19.9453C192.939 19.7207 193.037 19.125 193.037 18.1582V10.1602C193.037 9.19336 192.925 8.57812 192.7 8.31445C192.476 8.04102 192.041 7.88477 191.396 7.8457V7.30371H197.139ZM205.737 7.30371V9.07617C206.44 8.31445 207.114 7.7627 207.759 7.4209C208.403 7.06934 209.097 6.89355 209.839 6.89355C210.728 6.89355 211.465 7.14258 212.051 7.64062C212.637 8.12891 213.027 8.73926 213.223 9.47168C213.379 10.0283 213.457 11.0977 213.457 12.6797V18.0117C213.457 19.0664 213.55 19.7256 213.735 19.9893C213.931 20.2432 214.331 20.4043 214.937 20.4727V21H208.008V20.4727C208.525 20.4043 208.896 20.1895 209.121 19.8281C209.277 19.584 209.355 18.9785 209.355 18.0117V11.918C209.355 10.7949 209.312 10.0869 209.224 9.79395C209.136 9.50098 208.984 9.27637 208.77 9.12012C208.564 8.9541 208.335 8.87109 208.081 8.87109C207.241 8.87109 206.46 9.47168 205.737 10.6729V18.0117C205.737 19.0371 205.83 19.6865 206.016 19.96C206.211 20.2334 206.567 20.4043 207.085 20.4727V21H200.156V20.4727C200.732 20.4141 201.143 20.2285 201.387 19.916C201.553 19.7012 201.636 19.0664 201.636 18.0117V10.2773C201.636 9.24219 201.538 8.59766 201.343 8.34375C201.157 8.08984 200.762 7.92383 200.156 7.8457V7.30371H205.737ZM225.63 7.46484H230.244V9.07617H227.622C228.101 9.55469 228.433 9.98926 228.618 10.3799C228.853 10.9072 228.97 11.459 228.97 12.0352C228.97 13.0117 228.696 13.8613 228.149 14.584C227.612 15.2969 226.875 15.8584 225.938 16.2686C225.01 16.6689 224.185 16.8691 223.462 16.8691C223.403 16.8691 222.817 16.8447 221.704 16.7959C221.265 16.7959 220.894 16.9424 220.591 17.2354C220.298 17.5186 220.151 17.8604 220.151 18.2607C220.151 18.6123 220.283 18.9004 220.547 19.125C220.82 19.3496 221.26 19.4619 221.865 19.4619L224.399 19.4326C226.45 19.4326 227.861 19.6572 228.633 20.1064C229.736 20.7314 230.288 21.6934 230.288 22.9922C230.288 23.8223 230.034 24.5742 229.526 25.248C229.019 25.9316 228.35 26.4346 227.52 26.7568C226.26 27.2354 224.81 27.4746 223.169 27.4746C221.938 27.4746 220.815 27.3525 219.8 27.1084C218.784 26.874 218.057 26.542 217.617 26.1123C217.178 25.6924 216.958 25.248 216.958 24.7793C216.958 24.3301 217.124 23.9248 217.456 23.5635C217.798 23.2119 218.428 22.9141 219.346 22.6699C218.076 22.0449 217.441 21.1758 217.441 20.0625C217.441 19.3887 217.7 18.7344 218.218 18.0996C218.735 17.4648 219.556 16.9131 220.679 16.4443C219.37 15.9658 218.423 15.3359 217.837 14.5547C217.251 13.7734 216.958 12.8701 216.958 11.8447C216.958 10.5068 217.505 9.34961 218.599 8.37305C219.692 7.38672 221.099 6.89355 222.817 6.89355C223.726 6.89355 224.663 7.08398 225.63 7.46484ZM223.096 7.80176C222.529 7.80176 222.051 8.08984 221.66 8.66602C221.27 9.23242 221.074 10.4141 221.074 12.2109C221.074 13.666 221.265 14.667 221.646 15.2139C222.036 15.751 222.495 16.0195 223.022 16.0195C223.608 16.0195 224.097 15.751 224.487 15.2139C224.878 14.6768 225.073 13.6318 225.073 12.0791C225.073 10.3311 224.854 9.13965 224.414 8.50488C224.102 8.03613 223.662 7.80176 223.096 7.80176ZM222.231 23.0215C221.235 23.0215 220.576 23.1045 220.254 23.2705C219.697 23.5732 219.419 23.9834 219.419 24.501C219.419 24.999 219.707 25.4482 220.283 25.8486C220.859 26.2588 221.943 26.4639 223.535 26.4639C224.893 26.4639 225.957 26.2832 226.729 25.9219C227.51 25.5605 227.9 25.0527 227.9 24.3984C227.9 24.1543 227.827 23.9492 227.681 23.7832C227.417 23.4902 227.017 23.29 226.479 23.1826C225.952 23.0752 224.536 23.0215 222.231 23.0215ZM9.66797 40.9229L9.8877 45.5957H9.38965C8.79395 44.209 8.17383 43.2617 7.5293 42.7539C6.89453 42.2461 6.25977 41.9922 5.625 41.9922C5.22461 41.9922 4.88281 42.1289 4.59961 42.4023C4.31641 42.666 4.1748 42.9736 4.1748 43.3252C4.1748 43.5889 4.27246 43.8428 4.46777 44.0869C4.78027 44.4873 5.6543 45.1758 7.08984 46.1523C8.52539 47.1191 9.46777 47.9443 9.91699 48.6279C10.376 49.3018 10.6055 50.0586 10.6055 50.8984C10.6055 51.6602 10.415 52.4072 10.0342 53.1396C9.65332 53.8721 9.11621 54.4336 8.42285 54.8242C7.72949 55.2148 6.96289 55.4102 6.12305 55.4102C5.46875 55.4102 4.59473 55.2051 3.50098 54.7949C3.20801 54.6875 3.00781 54.6338 2.90039 54.6338C2.57812 54.6338 2.30957 54.8779 2.09473 55.3662H1.61133L1.37695 50.4443H1.875C2.31445 51.7334 2.91504 52.7002 3.67676 53.3447C4.44824 53.9893 5.17578 54.3115 5.85938 54.3115C6.32812 54.3115 6.70898 54.1699 7.00195 53.8867C7.30469 53.5938 7.45605 53.2422 7.45605 52.832C7.45605 52.3633 7.30957 51.958 7.0166 51.6162C6.72363 51.2744 6.06934 50.7568 5.05371 50.0635C3.55957 49.0283 2.59277 48.2373 2.15332 47.6904C1.50879 46.8896 1.18652 46.0059 1.18652 45.0391C1.18652 43.9844 1.54785 43.0322 2.27051 42.1826C3.00293 41.3232 4.05762 40.8936 5.43457 40.8936C6.17676 40.8936 6.89453 41.0742 7.58789 41.4355C7.85156 41.582 8.06641 41.6553 8.23242 41.6553C8.4082 41.6553 8.5498 41.6211 8.65723 41.5527C8.76465 41.4746 8.93555 41.2646 9.16992 40.9229H9.66797ZM18.2666 35.1367V48.2031L21.4453 45.083C22.0996 44.4482 22.5049 43.9893 22.6611 43.7061C22.8271 43.4229 22.9102 43.1494 22.9102 42.8857C22.9102 42.6221 22.8027 42.4023 22.5879 42.2266C22.373 42.0508 21.9531 41.9238 21.3281 41.8457V41.3037H27.4658V41.8457C26.8799 41.875 26.3672 42.0166 25.9277 42.2705C25.4883 42.5146 24.6289 43.2617 23.3496 44.5117L21.8555 45.9766L25.0781 50.6934C26.377 52.6074 27.1484 53.6816 27.3926 53.916C27.7246 54.248 28.1445 54.4336 28.6523 54.4727V55H21.5771V54.4727C21.8896 54.4727 22.1143 54.4141 22.251 54.2969C22.3975 54.1797 22.4707 54.0527 22.4707 53.916C22.4707 53.6914 22.2656 53.2764 21.8555 52.6709L19.1455 48.7012L18.2666 49.5654V52.0264C18.2666 53.0713 18.3643 53.7256 18.5596 53.9893C18.7549 54.2432 19.1553 54.4043 19.7607 54.4727V55H12.6855V54.4727C13.2617 54.4141 13.6719 54.2285 13.916 53.916C14.082 53.7012 14.165 53.0713 14.165 52.0264V38.1104C14.165 37.0752 14.0674 36.4307 13.8721 36.1768C13.6865 35.9229 13.291 35.7568 12.6855 35.6787V35.1367H18.2666ZM41.001 47.6611H33.4863C33.5742 49.4775 34.0576 50.9131 34.9365 51.9678C35.6104 52.7783 36.4209 53.1836 37.3682 53.1836C37.9541 53.1836 38.4863 53.0225 38.9648 52.7002C39.4434 52.3682 39.9561 51.7773 40.5029 50.9277L41.001 51.25C40.2588 52.7637 39.4385 53.8379 38.54 54.4727C37.6416 55.0977 36.6016 55.4102 35.4199 55.4102C33.3887 55.4102 31.8506 54.6289 30.8057 53.0664C29.9658 51.8066 29.5459 50.2441 29.5459 48.3789C29.5459 46.0938 30.1611 44.2773 31.3916 42.9297C32.6318 41.5723 34.082 40.8936 35.7422 40.8936C37.1289 40.8936 38.3301 41.4648 39.3457 42.6074C40.3711 43.7402 40.9229 45.4248 41.001 47.6611ZM37.3975 46.6797C37.3975 45.1074 37.3096 44.0283 37.1338 43.4424C36.9678 42.8564 36.7041 42.4121 36.3428 42.1094C36.1377 41.9336 35.8643 41.8457 35.5225 41.8457C35.0146 41.8457 34.5996 42.0947 34.2773 42.5928C33.7012 43.4619 33.4131 44.6533 33.4131 46.167V46.6797H37.3975ZM48.0908 35.1367V52.1582C48.0908 53.125 48.2031 53.7451 48.4277 54.0186C48.6523 54.2822 49.0918 54.4336 49.7461 54.4727V55H42.3486V54.4727C42.9541 54.4531 43.4033 54.2773 43.6963 53.9453C43.8916 53.7207 43.9893 53.125 43.9893 52.1582V37.9785C43.9893 37.0215 43.877 36.4111 43.6523 36.1475C43.4277 35.874 42.9932 35.7178 42.3486 35.6787V35.1367H48.0908ZM62.6807 47.6611H55.166C55.2539 49.4775 55.7373 50.9131 56.6162 51.9678C57.29 52.7783 58.1006 53.1836 59.0479 53.1836C59.6338 53.1836 60.166 53.0225 60.6445 52.7002C61.123 52.3682 61.6357 51.7773 62.1826 50.9277L62.6807 51.25C61.9385 52.7637 61.1182 53.8379 60.2197 54.4727C59.3213 55.0977 58.2812 55.4102 57.0996 55.4102C55.0684 55.4102 53.5303 54.6289 52.4854 53.0664C51.6455 51.8066 51.2256 50.2441 51.2256 48.3789C51.2256 46.0938 51.8408 44.2773 53.0713 42.9297C54.3115 41.5723 55.7617 40.8936 57.4219 40.8936C58.8086 40.8936 60.0098 41.4648 61.0254 42.6074C62.0508 43.7402 62.6025 45.4248 62.6807 47.6611ZM59.0771 46.6797C59.0771 45.1074 58.9893 44.0283 58.8135 43.4424C58.6475 42.8564 58.3838 42.4121 58.0225 42.1094C57.8174 41.9336 57.5439 41.8457 57.2021 41.8457C56.6943 41.8457 56.2793 42.0947 55.957 42.5928C55.3809 43.4619 55.0928 44.6533 55.0928 46.167V46.6797H59.0771ZM69.8438 36.2939V41.3037H73.0957V42.7539H69.8438V51.2061C69.8438 51.9971 69.8779 52.5098 69.9463 52.7441C70.0244 52.9688 70.1562 53.1543 70.3418 53.3008C70.5273 53.4375 70.6982 53.5059 70.8545 53.5059C71.4893 53.5059 72.0898 53.0225 72.6562 52.0557L73.0957 52.3779C72.3047 54.2529 71.0205 55.1904 69.2432 55.1904C68.374 55.1904 67.6367 54.9512 67.0312 54.4727C66.4355 53.9844 66.0547 53.4424 65.8887 52.8467C65.791 52.5146 65.7422 51.6162 65.7422 50.1514V42.7539H63.9551V42.2412C65.1855 41.3721 66.2305 40.459 67.0898 39.502C67.959 38.5449 68.7158 37.4756 69.3604 36.2939H69.8438ZM80.8594 40.8936C82.0508 40.8936 83.1592 41.2012 84.1846 41.8164C85.21 42.4316 85.9863 43.3057 86.5137 44.4385C87.0508 45.5713 87.3193 46.8115 87.3193 48.1592C87.3193 50.1025 86.8262 51.7285 85.8398 53.0371C84.6484 54.6191 83.0029 55.4102 80.9033 55.4102C78.8428 55.4102 77.2559 54.6875 76.1426 53.2422C75.0293 51.7969 74.4727 50.1221 74.4727 48.2178C74.4727 46.2549 75.0391 44.5459 76.1719 43.0908C77.3145 41.626 78.877 40.8936 80.8594 40.8936ZM80.918 41.9336C80.4199 41.9336 79.9902 42.124 79.6289 42.5049C79.2773 42.876 79.043 43.6182 78.9258 44.7314C78.8184 45.835 78.7646 47.373 78.7646 49.3457C78.7646 50.3906 78.833 51.3672 78.9697 52.2754C79.0771 52.9688 79.3066 53.4961 79.6582 53.8574C80.0098 54.2188 80.4102 54.3994 80.8594 54.3994C81.2988 54.3994 81.665 54.2773 81.958 54.0332C82.3389 53.7012 82.5928 53.2373 82.7197 52.6416C82.915 51.7139 83.0127 49.8389 83.0127 47.0166C83.0127 45.3564 82.9199 44.2188 82.7344 43.6035C82.5488 42.9785 82.2754 42.5244 81.9141 42.2412C81.6602 42.0361 81.3281 41.9336 80.918 41.9336ZM94.9951 41.3037V43.0762C95.6982 42.3145 96.3721 41.7627 97.0166 41.4209C97.6611 41.0693 98.3545 40.8936 99.0967 40.8936C99.9854 40.8936 100.723 41.1426 101.309 41.6406C101.895 42.1289 102.285 42.7393 102.48 43.4717C102.637 44.0283 102.715 45.0977 102.715 46.6797V52.0117C102.715 53.0664 102.808 53.7256 102.993 53.9893C103.188 54.2432 103.589 54.4043 104.194 54.4727V55H97.2656V54.4727C97.7832 54.4043 98.1543 54.1895 98.3789 53.8281C98.5352 53.584 98.6133 52.9785 98.6133 52.0117V45.918C98.6133 44.7949 98.5693 44.0869 98.4814 43.7939C98.3936 43.501 98.2422 43.2764 98.0273 43.1201C97.8223 42.9541 97.5928 42.8711 97.3389 42.8711C96.499 42.8711 95.7178 43.4717 94.9951 44.6729V52.0117C94.9951 53.0371 95.0879 53.6865 95.2734 53.96C95.4688 54.2334 95.8252 54.4043 96.3428 54.4727V55H89.4141V54.4727C89.9902 54.4141 90.4004 54.2285 90.6445 53.916C90.8105 53.7012 90.8936 53.0664 90.8936 52.0117V44.2773C90.8936 43.2422 90.7959 42.5977 90.6006 42.3438C90.415 42.0898 90.0195 41.9238 89.4141 41.8457V41.3037H94.9951ZM114.756 40.9229L114.976 45.5957H114.478C113.882 44.209 113.262 43.2617 112.617 42.7539C111.982 42.2461 111.348 41.9922 110.713 41.9922C110.312 41.9922 109.971 42.1289 109.688 42.4023C109.404 42.666 109.263 42.9736 109.263 43.3252C109.263 43.5889 109.36 43.8428 109.556 44.0869C109.868 44.4873 110.742 45.1758 112.178 46.1523C113.613 47.1191 114.556 47.9443 115.005 48.6279C115.464 49.3018 115.693 50.0586 115.693 50.8984C115.693 51.6602 115.503 52.4072 115.122 53.1396C114.741 53.8721 114.204 54.4336 113.511 54.8242C112.817 55.2148 112.051 55.4102 111.211 55.4102C110.557 55.4102 109.683 55.2051 108.589 54.7949C108.296 54.6875 108.096 54.6338 107.988 54.6338C107.666 54.6338 107.397 54.8779 107.183 55.3662H106.699L106.465 50.4443H106.963C107.402 51.7334 108.003 52.7002 108.765 53.3447C109.536 53.9893 110.264 54.3115 110.947 54.3115C111.416 54.3115 111.797 54.1699 112.09 53.8867C112.393 53.5938 112.544 53.2422 112.544 52.832C112.544 52.3633 112.397 51.958 112.104 51.6162C111.812 51.2744 111.157 50.7568 110.142 50.0635C108.647 49.0283 107.681 48.2373 107.241 47.6904C106.597 46.8896 106.274 46.0059 106.274 45.0391C106.274 43.9844 106.636 43.0322 107.358 42.1826C108.091 41.3232 109.146 40.8936 110.522 40.8936C111.265 40.8936 111.982 41.0742 112.676 41.4355C112.939 41.582 113.154 41.6553 113.32 41.6553C113.496 41.6553 113.638 41.6211 113.745 41.5527C113.853 41.4746 114.023 41.2646 114.258 40.9229H114.756ZM128.584 34.668C129.219 34.668 129.756 34.8926 130.195 35.3418C130.635 35.7812 130.854 36.3135 130.854 36.9385C130.854 37.5635 130.63 38.0957 130.181 38.5352C129.741 38.9746 129.209 39.1943 128.584 39.1943C127.959 39.1943 127.427 38.9746 126.987 38.5352C126.548 38.0957 126.328 37.5635 126.328 36.9385C126.328 36.3135 126.548 35.7812 126.987 35.3418C127.427 34.8926 127.959 34.668 128.584 34.668ZM130.635 41.3037V52.1582C130.635 53.125 130.747 53.7451 130.972 54.0186C131.196 54.2822 131.636 54.4336 132.29 54.4727V55H124.893V54.4727C125.498 54.4531 125.947 54.2773 126.24 53.9453C126.436 53.7207 126.533 53.125 126.533 52.1582V44.1602C126.533 43.1934 126.421 42.5781 126.196 42.3145C125.972 42.041 125.537 41.8848 124.893 41.8457V41.3037H130.635ZM139.233 41.3037V43.0762C139.937 42.3145 140.61 41.7627 141.255 41.4209C141.899 41.0693 142.593 40.8936 143.335 40.8936C144.224 40.8936 144.961 41.1426 145.547 41.6406C146.133 42.1289 146.523 42.7393 146.719 43.4717C146.875 44.0283 146.953 45.0977 146.953 46.6797V52.0117C146.953 53.0664 147.046 53.7256 147.231 53.9893C147.427 54.2432 147.827 54.4043 148.433 54.4727V55H141.504V54.4727C142.021 54.4043 142.393 54.1895 142.617 53.8281C142.773 53.584 142.852 52.9785 142.852 52.0117V45.918C142.852 44.7949 142.808 44.0869 142.72 43.7939C142.632 43.501 142.48 43.2764 142.266 43.1201C142.061 42.9541 141.831 42.8711 141.577 42.8711C140.737 42.8711 139.956 43.4717 139.233 44.6729V52.0117C139.233 53.0371 139.326 53.6865 139.512 53.96C139.707 54.2334 140.063 54.4043 140.581 54.4727V55H133.652V54.4727C134.229 54.4141 134.639 54.2285 134.883 53.916C135.049 53.7012 135.132 53.0664 135.132 52.0117V44.2773C135.132 43.2422 135.034 42.5977 134.839 42.3438C134.653 42.0898 134.258 41.9238 133.652 41.8457V41.3037H139.233ZM155.771 36.2939V41.3037H159.023V42.7539H155.771V51.2061C155.771 51.9971 155.806 52.5098 155.874 52.7441C155.952 52.9688 156.084 53.1543 156.27 53.3008C156.455 53.4375 156.626 53.5059 156.782 53.5059C157.417 53.5059 158.018 53.0225 158.584 52.0557L159.023 52.3779C158.232 54.2529 156.948 55.1904 155.171 55.1904C154.302 55.1904 153.564 54.9512 152.959 54.4727C152.363 53.9844 151.982 53.4424 151.816 52.8467C151.719 52.5146 151.67 51.6162 151.67 50.1514V42.7539H149.883V42.2412C151.113 41.3721 152.158 40.459 153.018 39.502C153.887 38.5449 154.644 37.4756 155.288 36.2939H155.771ZM166.787 40.8936C167.979 40.8936 169.087 41.2012 170.112 41.8164C171.138 42.4316 171.914 43.3057 172.441 44.4385C172.979 45.5713 173.247 46.8115 173.247 48.1592C173.247 50.1025 172.754 51.7285 171.768 53.0371C170.576 54.6191 168.931 55.4102 166.831 55.4102C164.771 55.4102 163.184 54.6875 162.07 53.2422C160.957 51.7969 160.4 50.1221 160.4 48.2178C160.4 46.2549 160.967 44.5459 162.1 43.0908C163.242 41.626 164.805 40.8936 166.787 40.8936ZM166.846 41.9336C166.348 41.9336 165.918 42.124 165.557 42.5049C165.205 42.876 164.971 43.6182 164.854 44.7314C164.746 45.835 164.692 47.373 164.692 49.3457C164.692 50.3906 164.761 51.3672 164.897 52.2754C165.005 52.9688 165.234 53.4961 165.586 53.8574C165.938 54.2188 166.338 54.3994 166.787 54.3994C167.227 54.3994 167.593 54.2773 167.886 54.0332C168.267 53.7012 168.521 53.2373 168.647 52.6416C168.843 51.7139 168.94 49.8389 168.94 47.0166C168.94 45.3564 168.848 44.2188 168.662 43.6035C168.477 42.9785 168.203 42.5244 167.842 42.2412C167.588 42.0361 167.256 41.9336 166.846 41.9336ZM191.616 41.4648H196.23V43.0762H193.608C194.087 43.5547 194.419 43.9893 194.604 44.3799C194.839 44.9072 194.956 45.459 194.956 46.0352C194.956 47.0117 194.683 47.8613 194.136 48.584C193.599 49.2969 192.861 49.8584 191.924 50.2686C190.996 50.6689 190.171 50.8691 189.448 50.8691C189.39 50.8691 188.804 50.8447 187.69 50.7959C187.251 50.7959 186.88 50.9424 186.577 51.2354C186.284 51.5186 186.138 51.8604 186.138 52.2607C186.138 52.6123 186.27 52.9004 186.533 53.125C186.807 53.3496 187.246 53.4619 187.852 53.4619L190.386 53.4326C192.437 53.4326 193.848 53.6572 194.619 54.1064C195.723 54.7314 196.274 55.6934 196.274 56.9922C196.274 57.8223 196.021 58.5742 195.513 59.248C195.005 59.9316 194.336 60.4346 193.506 60.7568C192.246 61.2354 190.796 61.4746 189.155 61.4746C187.925 61.4746 186.802 61.3525 185.786 61.1084C184.771 60.874 184.043 60.542 183.604 60.1123C183.164 59.6924 182.944 59.248 182.944 58.7793C182.944 58.3301 183.11 57.9248 183.442 57.5635C183.784 57.2119 184.414 56.9141 185.332 56.6699C184.062 56.0449 183.428 55.1758 183.428 54.0625C183.428 53.3887 183.687 52.7344 184.204 52.0996C184.722 51.4648 185.542 50.9131 186.665 50.4443C185.356 49.9658 184.409 49.3359 183.823 48.5547C183.237 47.7734 182.944 46.8701 182.944 45.8447C182.944 44.5068 183.491 43.3496 184.585 42.373C185.679 41.3867 187.085 40.8936 188.804 40.8936C189.712 40.8936 190.649 41.084 191.616 41.4648ZM189.082 41.8018C188.516 41.8018 188.037 42.0898 187.646 42.666C187.256 43.2324 187.061 44.4141 187.061 46.2109C187.061 47.666 187.251 48.667 187.632 49.2139C188.022 49.751 188.481 50.0195 189.009 50.0195C189.595 50.0195 190.083 49.751 190.474 49.2139C190.864 48.6768 191.06 47.6318 191.06 46.0791C191.06 44.3311 190.84 43.1396 190.4 42.5049C190.088 42.0361 189.648 41.8018 189.082 41.8018ZM188.218 57.0215C187.222 57.0215 186.562 57.1045 186.24 57.2705C185.684 57.5732 185.405 57.9834 185.405 58.501C185.405 58.999 185.693 59.4482 186.27 59.8486C186.846 60.2588 187.93 60.4639 189.521 60.4639C190.879 60.4639 191.943 60.2832 192.715 59.9219C193.496 59.5605 193.887 59.0527 193.887 58.3984C193.887 58.1543 193.813 57.9492 193.667 57.7832C193.403 57.4902 193.003 57.29 192.466 57.1826C191.938 57.0752 190.522 57.0215 188.218 57.0215ZM203.188 35.1367V52.1582C203.188 53.125 203.301 53.7451 203.525 54.0186C203.75 54.2822 204.189 54.4336 204.844 54.4727V55H197.446V54.4727C198.052 54.4531 198.501 54.2773 198.794 53.9453C198.989 53.7207 199.087 53.125 199.087 52.1582V37.9785C199.087 37.0215 198.975 36.4111 198.75 36.1475C198.525 35.874 198.091 35.7178 197.446 35.6787V35.1367H203.188ZM212.461 55.5566L208.037 45.4053C207.373 43.8721 206.88 42.9297 206.558 42.5781C206.245 42.2266 205.864 41.9824 205.415 41.8457V41.3037H212.695V41.8457C212.217 41.8652 211.88 41.958 211.685 42.124C211.489 42.29 211.392 42.4902 211.392 42.7246C211.392 43.0957 211.636 43.8281 212.124 44.9219L214.468 50.2832L216.064 46.1377C216.641 44.6631 216.929 43.6377 216.929 43.0615C216.929 42.7002 216.807 42.4121 216.562 42.1973C216.328 41.9824 215.908 41.8652 215.303 41.8457V41.3037H219.888V41.8457C219.438 41.8945 219.072 42.0703 218.789 42.373C218.506 42.666 218.032 43.6768 217.368 45.4053L213.457 55.5566C212.471 58.0957 211.738 59.6582 211.26 60.2441C210.586 61.0645 209.741 61.4746 208.726 61.4746C207.915 61.4746 207.256 61.2402 206.748 60.7715C206.25 60.3125 206.001 59.7559 206.001 59.1016C206.001 58.5352 206.172 58.0664 206.514 57.6953C206.865 57.3242 207.295 57.1387 207.803 57.1387C208.291 57.1387 208.682 57.2949 208.975 57.6074C209.277 57.9199 209.434 58.4033 209.443 59.0576C209.453 59.4287 209.497 59.668 209.575 59.7754C209.653 59.8828 209.766 59.9365 209.912 59.9365C210.146 59.9365 210.396 59.7949 210.659 59.5117C211.05 59.1016 211.509 58.1641 212.036 56.6992L212.461 55.5566ZM226.479 53.6084V58.7061C226.479 59.4092 226.533 59.8877 226.641 60.1416C226.758 60.3955 226.934 60.5811 227.168 60.6982C227.402 60.8154 227.861 60.874 228.545 60.874V61.416H220.737V60.874C221.343 60.8545 221.792 60.6836 222.085 60.3613C222.28 60.1367 222.378 59.5557 222.378 58.6182V44.1602C222.378 43.1934 222.266 42.5781 222.041 42.3145C221.816 42.041 221.382 41.8848 220.737 41.8457V41.3037H226.479V43.1055C226.958 42.4023 227.446 41.8945 227.944 41.582C228.657 41.123 229.434 40.8936 230.273 40.8936C231.279 40.8936 232.192 41.2109 233.013 41.8457C233.843 42.4805 234.473 43.3594 234.902 44.4824C235.332 45.5957 235.547 46.7969 235.547 48.0859C235.547 49.4727 235.322 50.7422 234.873 51.8945C234.434 53.0371 233.789 53.9111 232.939 54.5166C232.1 55.1123 231.162 55.4102 230.127 55.4102C229.375 55.4102 228.672 55.2441 228.018 54.9121C227.529 54.6582 227.017 54.2236 226.479 53.6084ZM226.479 52.1289C227.319 53.3203 228.218 53.916 229.175 53.916C229.702 53.916 230.137 53.6377 230.479 53.0811C230.986 52.2607 231.24 50.6982 231.24 48.3936C231.24 46.0303 230.962 44.4141 230.405 43.5449C230.034 42.9688 229.536 42.6807 228.911 42.6807C227.925 42.6807 227.114 43.3936 226.479 44.8193V52.1289ZM243.472 35.1367V43.0615C244.224 42.2705 244.912 41.7139 245.537 41.3916C246.162 41.0596 246.812 40.8936 247.485 40.8936C248.345 40.8936 249.077 41.1377 249.683 41.626C250.298 42.1143 250.703 42.6904 250.898 43.3545C251.104 44.0088 251.206 45.1172 251.206 46.6797V52.0264C251.206 53.0713 251.304 53.7256 251.499 53.9893C251.694 54.2432 252.09 54.4043 252.686 54.4727V55H245.742V54.4727C246.23 54.4043 246.597 54.209 246.841 53.8867C247.017 53.6328 247.104 53.0127 247.104 52.0264V45.918C247.104 44.7852 247.061 44.0771 246.973 43.7939C246.885 43.501 246.733 43.2764 246.519 43.1201C246.313 42.9541 246.079 42.8711 245.815 42.8711C245.425 42.8711 245.044 43.0078 244.673 43.2812C244.302 43.5449 243.901 44.0137 243.472 44.6875V52.0264C243.472 53.0029 243.545 53.6133 243.691 53.8574C243.877 54.1895 244.258 54.3945 244.834 54.4727V55H237.891V54.4727C238.467 54.4141 238.877 54.2285 239.121 53.916C239.287 53.7012 239.37 53.0713 239.37 52.0264V38.1104C239.37 37.0752 239.272 36.4307 239.077 36.1768C238.892 35.9229 238.496 35.7568 237.891 35.6787V35.1367H243.472ZM263.232 40.9229L263.452 45.5957H262.954C262.358 44.209 261.738 43.2617 261.094 42.7539C260.459 42.2461 259.824 41.9922 259.189 41.9922C258.789 41.9922 258.447 42.1289 258.164 42.4023C257.881 42.666 257.739 42.9736 257.739 43.3252C257.739 43.5889 257.837 43.8428 258.032 44.0869C258.345 44.4873 259.219 45.1758 260.654 46.1523C262.09 47.1191 263.032 47.9443 263.481 48.6279C263.94 49.3018 264.17 50.0586 264.17 50.8984C264.17 51.6602 263.979 52.4072 263.599 53.1396C263.218 53.8721 262.681 54.4336 261.987 54.8242C261.294 55.2148 260.527 55.4102 259.688 55.4102C259.033 55.4102 258.159 55.2051 257.065 54.7949C256.772 54.6875 256.572 54.6338 256.465 54.6338C256.143 54.6338 255.874 54.8779 255.659 55.3662H255.176L254.941 50.4443H255.439C255.879 51.7334 256.479 52.7002 257.241 53.3447C258.013 53.9893 258.74 54.3115 259.424 54.3115C259.893 54.3115 260.273 54.1699 260.566 53.8867C260.869 53.5938 261.021 53.2422 261.021 52.832C261.021 52.3633 260.874 51.958 260.581 51.6162C260.288 51.2744 259.634 50.7568 258.618 50.0635C257.124 49.0283 256.157 48.2373 255.718 47.6904C255.073 46.8896 254.751 46.0059 254.751 45.0391C254.751 43.9844 255.112 43.0322 255.835 42.1826C256.567 41.3232 257.622 40.8936 258.999 40.8936C259.741 40.8936 260.459 41.0742 261.152 41.4355C261.416 41.582 261.631 41.6553 261.797 41.6553C261.973 41.6553 262.114 41.6211 262.222 41.5527C262.329 41.4746 262.5 41.2646 262.734 40.9229H263.232Z" fill="black"/>
</svg>
