<svg width="224" height="97" viewBox="0 0 224 97" fill="none" xmlns="http://www.w3.org/2000/svg">
<path d="M8.12988 6.20508C6.77246 8.04102 4.96094 10.7803 2.69531 14.4229H8.12988V6.20508ZM14.0039 14.4229C14.3066 14.4229 14.458 14.584 14.458 14.9062C14.458 15.1016 14.3604 15.3213 14.165 15.5654C13.9795 15.8096 13.7891 15.9316 13.5938 15.9316H11.2207V18.5684C11.2207 18.8906 11.2451 19.1494 11.2939 19.3447C11.3428 19.5303 11.4697 19.667 11.6748 19.7549C11.8896 19.8428 12.0557 19.8965 12.1729 19.916C12.2998 19.9355 12.583 19.9697 13.0225 20.0186C13.1592 20.0381 13.2568 20.043 13.3154 20.0332C13.3936 20.1113 13.4326 20.2822 13.4326 20.5459C13.4424 20.8096 13.4033 20.9805 13.3154 21.0586C12.0361 21.0195 10.6787 21 9.24316 21C8.15918 21 6.97754 21.0195 5.69824 21.0586C5.62012 20.9805 5.58105 20.8145 5.58105 20.5605C5.58105 20.2969 5.62012 20.1211 5.69824 20.0332C6.77246 19.9551 7.44141 19.8135 7.70508 19.6084C7.98828 19.3838 8.12988 19.0371 8.12988 18.5684V15.9316H2.00684C1.41113 15.9316 1.02051 15.4824 0.834961 14.584C3.93066 9.7207 6.64062 5.86816 8.96484 3.02637C9.14062 2.80176 9.30176 2.69434 9.44824 2.7041H11.2207L11.2793 2.7627C11.2402 2.93848 11.2207 3.90527 11.2207 5.66309V14.4229H14.0039ZM17.1826 20.8242C16.8506 20.502 16.6846 20.1113 16.6846 19.6523C16.6846 19.1934 16.8506 18.7979 17.1826 18.4658C17.5146 18.1338 17.9102 17.9678 18.3691 17.9678C18.8281 17.9678 19.2236 18.1338 19.5557 18.4658C19.8877 18.7979 20.0537 19.1934 20.0537 19.6523C20.0537 20.1113 19.8877 20.502 19.5557 20.8242C19.2236 21.1367 18.8281 21.293 18.3691 21.293C17.9102 21.293 17.5146 21.1367 17.1826 20.8242ZM30.1611 6.20508C28.8037 8.04102 26.9922 10.7803 24.7266 14.4229H30.1611V6.20508ZM36.0352 14.4229C36.3379 14.4229 36.4893 14.584 36.4893 14.9062C36.4893 15.1016 36.3916 15.3213 36.1963 15.5654C36.0107 15.8096 35.8203 15.9316 35.625 15.9316H33.252V18.5684C33.252 18.8906 33.2764 19.1494 33.3252 19.3447C33.374 19.5303 33.501 19.667 33.7061 19.7549C33.9209 19.8428 34.0869 19.8965 34.2041 19.916C34.3311 19.9355 34.6143 19.9697 35.0537 20.0186C35.1904 20.0381 35.2881 20.043 35.3467 20.0332C35.4248 20.1113 35.4639 20.2822 35.4639 20.5459C35.4736 20.8096 35.4346 20.9805 35.3467 21.0586C34.0674 21.0195 32.71 21 31.2744 21C30.1904 21 29.0088 21.0195 27.7295 21.0586C27.6514 20.9805 27.6123 20.8145 27.6123 20.5605C27.6123 20.2969 27.6514 20.1211 27.7295 20.0332C28.8037 19.9551 29.4727 19.8135 29.7363 19.6084C30.0195 19.3838 30.1611 19.0371 30.1611 18.5684V15.9316H24.0381C23.4424 15.9316 23.0518 15.4824 22.8662 14.584C25.9619 9.7207 28.6719 5.86816 30.9961 3.02637C31.1719 2.80176 31.333 2.69434 31.4795 2.7041H33.252L33.3105 2.7627C33.2715 2.93848 33.252 3.90527 33.252 5.66309V14.4229H36.0352ZM39.2139 20.8242C38.8818 20.502 38.7158 20.1113 38.7158 19.6523C38.7158 19.1934 38.8818 18.7979 39.2139 18.4658C39.5459 18.1338 39.9414 17.9678 40.4004 17.9678C40.8594 17.9678 41.2549 18.1338 41.5869 18.4658C41.9189 18.7979 42.085 19.1934 42.085 19.6523C42.085 20.1113 41.9189 20.502 41.5869 20.8242C41.2549 21.1367 40.8594 21.293 40.4004 21.293C39.9414 21.293 39.5459 21.1367 39.2139 20.8242Z" fill="#C92B1D"/>
<path d="M52.3242 1.64941H65.0098C65.4492 1.64941 65.6738 1.41016 65.6836 0.931641L66.7529 0.814453C66.8701 2.39648 67.0898 3.93457 67.4121 5.42871L66.2109 5.5752C65.9277 4.41309 65.6299 3.7002 65.3174 3.43652C65.0146 3.16309 64.4336 3.02637 63.5742 3.02637H61.9629C61.4258 3.02637 61.0498 3.11914 60.835 3.30469C60.6201 3.48047 60.5127 3.80762 60.5127 4.28613V18.7148C60.5127 19.1738 60.6348 19.5107 60.8789 19.7256C61.1328 19.9307 61.5625 20.0332 62.168 20.0332H62.9443C63.1006 20.0332 63.1836 20.126 63.1934 20.3115V21L63.1201 21.0586C60.7373 21.0195 59.1602 21 58.3887 21L54.2432 21.0586L54.1846 21V20.3115C54.1846 20.1357 54.2676 20.043 54.4336 20.0332H55.21C56.3135 20.0332 56.8604 19.5938 56.8506 18.7148V4.19824C56.8506 3.75879 56.7432 3.45605 56.5283 3.29004C56.3232 3.11426 55.9424 3.02637 55.3857 3.02637H53.8037C52.9443 3.02637 52.3535 3.16309 52.0312 3.43652C51.709 3.70996 51.4062 4.42285 51.123 5.5752L49.9512 5.42871C50.2734 3.9248 50.4932 2.38672 50.6104 0.814453L51.6943 0.931641C51.6943 1.41016 51.9043 1.64941 52.3242 1.64941ZM72.3633 9.57422C73.584 8.31445 74.8633 7.68457 76.2012 7.68457C76.7188 7.68457 77.1387 7.86035 77.4609 8.21191C77.7832 8.55371 77.9443 8.93457 77.9443 9.35449C77.9443 9.83301 77.8027 10.2383 77.5195 10.5703C77.2461 10.9023 76.8848 11.0684 76.4355 11.0684C76.1719 11.0684 75.918 11.0098 75.6738 10.8926C75.4395 10.7656 75.249 10.6289 75.1025 10.4824C74.9561 10.3262 74.8047 10.1846 74.6484 10.0576C74.4922 9.93066 74.3555 9.86719 74.2383 9.86719C73.877 9.86719 73.5107 9.99902 73.1396 10.2627C72.6221 10.624 72.3633 11.3223 72.3633 12.3574V18.6855C72.3633 18.9492 72.4219 19.1689 72.5391 19.3447C72.666 19.5107 72.8223 19.6377 73.0078 19.7256C73.1934 19.8135 73.457 19.8965 73.7988 19.9746L74.0479 20.0332C74.2041 20.0723 74.2822 20.165 74.2822 20.3115V21L74.2236 21.0586C72.6221 21.0195 71.4307 21 70.6494 21L67.1777 21.0586L67.1191 21V20.3115C67.1191 20.1553 67.1875 20.0625 67.3242 20.0332L67.6172 19.9746C68.1152 19.877 68.4814 19.7354 68.7158 19.5498C68.9502 19.3545 69.0674 19.0664 69.0674 18.6855V11.376C69.0674 10.6729 69.0137 10.2139 68.9062 9.99902C68.8086 9.77441 68.6426 9.65234 68.4082 9.63281L67.1777 9.51562L67.1191 8.49023C69.5605 8.16797 71.2402 7.87012 72.1582 7.59668C72.2949 7.59668 72.3633 7.62598 72.3633 7.68457L72.3047 9.57422H72.3633ZM86.6162 19.5645C85.2783 20.7266 84.0283 21.3027 82.8662 21.293C81.5869 21.293 80.6689 21.0342 80.1123 20.5166C79.5557 19.999 79.2773 19.208 79.2773 18.1436C79.2773 17.04 79.707 16.1904 80.5664 15.5947C81.4258 14.999 82.7344 14.4424 84.4922 13.9248L86.6602 13.2949C86.6602 11.5176 86.4844 10.3311 86.1328 9.73535C85.7812 9.12988 85.2539 8.82715 84.5508 8.82715C83.9551 8.82715 83.4521 8.91992 83.042 9.10547C82.6318 9.29102 82.4268 9.54492 82.4268 9.86719C82.4268 10.0918 82.4561 10.3408 82.5146 10.6143C82.5732 10.8779 82.6025 11.0586 82.6025 11.1562C82.6025 11.4004 82.4414 11.6543 82.1191 11.918C81.8066 12.1719 81.4502 12.2988 81.0498 12.2988C80.1123 12.2988 79.6387 11.8789 79.6289 11.0391C79.6289 10.1797 80.2246 9.4082 81.416 8.72461C82.6074 8.03125 83.7939 7.68457 84.9756 7.68457C86.4404 7.68457 87.627 8.06055 88.5352 8.8125C89.4434 9.55469 89.8975 10.9072 89.8975 12.8701V17.2207C89.8975 17.6602 89.9072 17.9971 89.9268 18.2314C89.9463 18.4561 89.9902 18.7051 90.0586 18.9785C90.127 19.2422 90.2441 19.4375 90.4102 19.5645C90.5859 19.6816 90.8105 19.7402 91.084 19.7402C91.3672 19.7402 91.5869 19.6621 91.7432 19.5059C91.9092 19.3398 92.002 19.2568 92.0215 19.2568C92.0801 19.2568 92.1582 19.335 92.2559 19.4912C92.3633 19.6377 92.417 19.7598 92.417 19.8574C92.417 19.9355 92.3047 20.0869 92.0801 20.3115C91.8652 20.5264 91.5234 20.7461 91.0547 20.9707C90.5957 21.1855 90.1172 21.293 89.6191 21.293C88.7402 21.293 88.0762 21.1562 87.627 20.8828C87.1777 20.5996 86.8652 20.1602 86.6895 19.5645H86.6162ZM86.6602 18.4512V14.4229L84.9463 14.9355C83.9697 15.2383 83.3057 15.6045 82.9541 16.0342C82.6025 16.4639 82.4268 17.0205 82.4268 17.7041C82.4268 19.0029 83.0566 19.6523 84.3164 19.6523C84.8828 19.6523 85.6641 19.252 86.6602 18.4512ZM98.7012 9.57422C100.342 8.31445 101.851 7.68457 103.228 7.68457C104.712 7.68457 105.693 8.09473 106.172 8.91504C106.65 9.73535 106.89 10.9316 106.89 12.5039V18.7148C106.89 19.0957 106.997 19.3691 107.212 19.5352C107.437 19.6914 107.817 19.8379 108.354 19.9746L108.604 20.0332C108.76 20.0723 108.838 20.165 108.838 20.3115V21L108.779 21.0586C107.178 21.0195 105.986 21 105.205 21L101.851 21.0586L101.792 21V20.3115C101.792 20.1748 101.87 20.082 102.026 20.0332L102.158 20.0039C102.676 19.8672 103.042 19.7207 103.257 19.5645C103.481 19.3984 103.594 19.1152 103.594 18.7148V12.2988C103.594 11.2148 103.511 10.4531 103.345 10.0137C103.188 9.57422 102.852 9.35449 102.334 9.35449C101.416 9.35449 100.205 9.82812 98.7012 10.7754V18.7148C98.7012 19.0957 98.8135 19.3789 99.0381 19.5645C99.2725 19.7402 99.6387 19.8867 100.137 20.0039L100.254 20.0332C100.41 20.0723 100.493 20.165 100.503 20.3115V21L100.444 21.0586C98.9209 21.0195 97.7686 21 96.9873 21L93.5156 21.0586L93.457 21V20.3115C93.457 20.1748 93.5352 20.082 93.6914 20.0332L93.9551 19.9746C94.4922 19.8574 94.8682 19.7207 95.083 19.5645C95.2979 19.3984 95.4053 19.1152 95.4053 18.7148V11.376C95.4053 10.6729 95.3516 10.2139 95.2441 9.99902C95.1465 9.77441 94.9805 9.65234 94.7461 9.63281L93.5156 9.51562L93.457 8.49023C95.8984 8.16797 97.5781 7.87012 98.4961 7.59668C98.6328 7.59668 98.7012 7.62598 98.7012 7.68457L98.6426 9.57422H98.7012ZM110.479 16.6201L111.68 16.5615C111.963 17.8994 112.349 18.832 112.837 19.3594C113.325 19.877 114.116 20.1357 115.21 20.1357C115.669 20.1357 116.079 19.9697 116.44 19.6377C116.802 19.3057 116.982 18.8174 116.982 18.1729C116.982 17.5576 116.851 17.084 116.587 16.752C116.333 16.4199 115.806 16.1172 115.005 15.8438C114.009 15.4824 113.066 14.9111 112.178 14.1299C111.299 13.3486 110.859 12.4307 110.859 11.376C110.859 10.3408 111.299 9.4668 112.178 8.75391C113.066 8.04102 114.189 7.68457 115.547 7.68457C116.963 7.68457 118.242 7.96289 119.385 8.51953C119.521 9.51562 119.634 10.5361 119.722 11.5811L118.55 11.7275C118.267 10.7119 117.886 9.99414 117.407 9.57422C116.929 9.1543 116.338 8.94434 115.635 8.94434C115.176 8.94434 114.78 9.09082 114.448 9.38379C114.116 9.66699 113.95 10.0869 113.95 10.6436C113.95 11.708 114.502 12.4404 115.605 12.8408C117.07 13.3779 118.223 14.0078 119.062 14.7305C119.902 15.4531 120.322 16.3516 120.322 17.4258C120.322 18.7246 119.795 19.6963 118.74 20.3408C117.686 20.9756 116.479 21.293 115.122 21.293C114.663 21.293 113.97 21.2295 113.042 21.1025C112.114 20.9756 111.377 20.9219 110.83 20.9414C110.84 19.8379 110.723 18.3975 110.479 16.6201ZM124.38 18.7441V9.38379H123.003C122.466 9.38379 122.192 9.28613 122.183 9.09082V8.66602C122.183 8.50977 122.285 8.3584 122.49 8.21191C122.705 8.05566 123.042 7.97754 123.501 7.97754H124.38V7.68457C124.38 5.32129 124.932 3.46094 126.035 2.10352C127.148 0.736328 128.467 0.0527344 129.99 0.0527344C130.732 0.0527344 131.392 0.145508 131.968 0.331055C132.544 0.506836 132.979 0.726562 133.271 0.990234C133.564 1.25391 133.784 1.49805 133.931 1.72266C134.077 1.9375 134.15 2.12305 134.15 2.2793C134.15 2.67969 134.023 3.03125 133.77 3.33398C133.525 3.62695 133.193 3.77344 132.773 3.77344C132.012 3.77344 131.401 3.37793 130.942 2.58691C130.503 1.74707 129.995 1.32715 129.419 1.32715C128.257 1.32715 127.676 3.03613 127.676 6.4541V7.97754H130.562C130.962 7.97754 131.162 8.08008 131.162 8.28516V8.88574C131.162 9.22754 130.811 9.39355 130.107 9.38379H127.676V18.6562C127.676 19.418 128.218 19.8574 129.302 19.9746L129.829 20.0332C129.985 20.0723 130.068 20.165 130.078 20.3115V21L130.02 21.0586C128.096 21.0195 126.743 21 125.962 21L122.329 21.0586L122.271 21V20.3115C122.271 20.1748 122.354 20.082 122.52 20.0332L122.93 19.9746C123.447 19.8965 123.818 19.7744 124.043 19.6084C124.268 19.4326 124.38 19.1445 124.38 18.7441ZM138.984 8.91504C138.086 8.91504 137.388 9.4375 136.89 10.4824C136.401 11.5176 136.157 12.7334 136.157 14.1299C136.157 14.9502 136.279 15.79 136.523 16.6494C136.768 17.5088 137.173 18.2852 137.739 18.9785C138.306 19.6621 138.97 20.0039 139.731 20.0039C140.435 20.0039 141.055 19.6768 141.592 19.0225C142.129 18.3584 142.397 17.1768 142.397 15.4775C142.397 13.3779 142.085 11.7617 141.46 10.6289C140.845 9.48633 140.02 8.91504 138.984 8.91504ZM132.51 14.7891C132.51 12.6699 133.105 10.9561 134.297 9.64746C135.498 8.33887 137.158 7.68457 139.277 7.68457C140.439 7.68457 141.475 7.88965 142.383 8.2998C143.301 8.70996 144.014 9.25684 144.521 9.94043C145.029 10.6143 145.405 11.3418 145.649 12.123C145.903 12.9043 146.03 13.7051 146.03 14.5254C146.03 15.3066 145.889 16.0879 145.605 16.8691C145.332 17.6406 144.927 18.3633 144.39 19.0371C143.862 19.7012 143.154 20.2432 142.266 20.6631C141.377 21.083 140.371 21.293 139.248 21.293C137.168 21.293 135.522 20.6289 134.312 19.3008C133.11 17.9727 132.51 16.4688 132.51 14.7891ZM153.252 9.57422C154.473 8.31445 155.752 7.68457 157.09 7.68457C157.607 7.68457 158.027 7.86035 158.35 8.21191C158.672 8.55371 158.833 8.93457 158.833 9.35449C158.833 9.83301 158.691 10.2383 158.408 10.5703C158.135 10.9023 157.773 11.0684 157.324 11.0684C157.061 11.0684 156.807 11.0098 156.562 10.8926C156.328 10.7656 156.138 10.6289 155.991 10.4824C155.845 10.3262 155.693 10.1846 155.537 10.0576C155.381 9.93066 155.244 9.86719 155.127 9.86719C154.766 9.86719 154.399 9.99902 154.028 10.2627C153.511 10.624 153.252 11.3223 153.252 12.3574V18.6855C153.252 18.9492 153.311 19.1689 153.428 19.3447C153.555 19.5107 153.711 19.6377 153.896 19.7256C154.082 19.8135 154.346 19.8965 154.688 19.9746L154.937 20.0332C155.093 20.0723 155.171 20.165 155.171 20.3115V21L155.112 21.0586C153.511 21.0195 152.319 21 151.538 21L148.066 21.0586L148.008 21V20.3115C148.008 20.1553 148.076 20.0625 148.213 20.0332L148.506 19.9746C149.004 19.877 149.37 19.7354 149.604 19.5498C149.839 19.3545 149.956 19.0664 149.956 18.6855V11.376C149.956 10.6729 149.902 10.2139 149.795 9.99902C149.697 9.77441 149.531 9.65234 149.297 9.63281L148.066 9.51562L148.008 8.49023C150.449 8.16797 152.129 7.87012 153.047 7.59668C153.184 7.59668 153.252 7.62598 153.252 7.68457L153.193 9.57422H153.252ZM165.293 9.57422H165.352C166.768 8.31445 168.169 7.68457 169.556 7.68457C171.118 7.68457 172.148 8.34375 172.646 9.66211C174.17 8.34375 175.708 7.68457 177.261 7.68457C178.022 7.68457 178.643 7.80664 179.121 8.05078C179.6 8.28516 179.946 8.65137 180.161 9.14941C180.386 9.64746 180.532 10.1504 180.601 10.6582C180.679 11.1562 180.718 11.7959 180.718 12.5771V18.7148C180.718 19.0957 180.825 19.3691 181.04 19.5352C181.265 19.6914 181.646 19.8379 182.183 19.9746L182.417 20.0332C182.573 20.0723 182.656 20.165 182.666 20.3115V21L182.607 21.0586C180.986 21.0195 179.785 21 179.004 21L175.796 21.0586L175.737 21V20.3115C175.737 20.1553 175.815 20.0625 175.972 20.0332C176.929 19.9551 177.407 19.5156 177.407 18.7148V11.9033C177.407 10.1846 177.007 9.3252 176.206 9.3252C175.19 9.3252 174.102 9.81836 172.939 10.8047C172.979 11.3223 172.998 11.8984 172.998 12.5332V18.7148C172.998 19.1934 173.125 19.5205 173.379 19.6963C173.643 19.8623 174.009 19.9746 174.478 20.0332C174.634 20.0332 174.712 20.126 174.712 20.3115V21L174.653 21.0586C173.218 21.0195 172.104 21 171.313 21L168.076 21.0586L168.018 21V20.3115C168.018 20.165 168.11 20.0723 168.296 20.0332C169.233 19.9551 169.702 19.5156 169.702 18.7148V11.9766C169.702 10.2188 169.292 9.33496 168.472 9.3252C167.554 9.3252 166.514 9.80859 165.352 10.7754V18.7441C165.352 19.0664 165.43 19.3301 165.586 19.5352C165.752 19.7305 165.918 19.8525 166.084 19.9014C166.26 19.9502 166.494 19.9941 166.787 20.0332C166.963 20.0723 167.056 20.165 167.065 20.3115V21L167.007 21.0586C165.571 21.0195 164.448 21 163.638 21L160.166 21.0586L160.107 21V20.3115C160.107 20.1748 160.186 20.082 160.342 20.0332L160.605 19.9746C161.143 19.8574 161.519 19.7256 161.733 19.5791C161.948 19.4229 162.056 19.1445 162.056 18.7441V11.376C162.056 10.6729 162.002 10.2139 161.895 9.99902C161.797 9.77441 161.631 9.65234 161.396 9.63281L160.166 9.51562L160.107 8.49023C162.549 8.16797 164.229 7.87012 165.146 7.59668C165.283 7.59668 165.352 7.62598 165.352 7.68457L165.293 9.57422ZM189.492 11.3613V18.6855C189.492 19.0859 189.604 19.3789 189.829 19.5645C190.063 19.7402 190.42 19.877 190.898 19.9746L191.206 20.0332C191.362 20.0723 191.44 20.165 191.44 20.3115V21L191.382 21.0586C189.761 21.0195 188.56 21 187.778 21L184.277 21.0586L184.219 21V20.3115C184.219 20.1553 184.287 20.0625 184.424 20.0332L184.79 19.9746C185.288 19.8965 185.645 19.7646 185.859 19.5791C186.084 19.3838 186.196 19.0859 186.196 18.6855V11.376C186.196 10.6729 186.138 10.1943 186.021 9.94043C185.913 9.67676 185.752 9.53516 185.537 9.51562L184.307 9.38379L184.248 8.49023C186.924 8.12891 188.633 7.83105 189.375 7.59668C189.512 7.59668 189.58 7.62598 189.58 7.68457C189.57 7.85059 189.561 8.06543 189.551 8.3291C189.551 8.59277 189.541 9.05176 189.521 9.70605C189.502 10.3604 189.492 10.9121 189.492 11.3613ZM186.533 5.15039C186.191 4.79883 186.021 4.37402 186.021 3.87598C186.021 3.36816 186.191 2.94336 186.533 2.60156C186.885 2.25 187.31 2.07422 187.808 2.07422C188.315 2.07422 188.74 2.25 189.082 2.60156C189.434 2.94336 189.609 3.36816 189.609 3.87598C189.609 4.37402 189.434 4.79883 189.082 5.15039C188.74 5.49219 188.315 5.66309 187.808 5.66309C187.31 5.66309 186.885 5.49219 186.533 5.15039ZM197.988 9.57422C199.629 8.31445 201.138 7.68457 202.515 7.68457C203.999 7.68457 204.98 8.09473 205.459 8.91504C205.938 9.73535 206.177 10.9316 206.177 12.5039V18.7148C206.177 19.0957 206.284 19.3691 206.499 19.5352C206.724 19.6914 207.104 19.8379 207.642 19.9746L207.891 20.0332C208.047 20.0723 208.125 20.165 208.125 20.3115V21L208.066 21.0586C206.465 21.0195 205.273 21 204.492 21L201.138 21.0586L201.079 21V20.3115C201.079 20.1748 201.157 20.082 201.313 20.0332L201.445 20.0039C201.963 19.8672 202.329 19.7207 202.544 19.5645C202.769 19.3984 202.881 19.1152 202.881 18.7148V12.2988C202.881 11.2148 202.798 10.4531 202.632 10.0137C202.476 9.57422 202.139 9.35449 201.621 9.35449C200.703 9.35449 199.492 9.82812 197.988 10.7754V18.7148C197.988 19.0957 198.101 19.3789 198.325 19.5645C198.56 19.7402 198.926 19.8867 199.424 20.0039L199.541 20.0332C199.697 20.0723 199.78 20.165 199.79 20.3115V21L199.731 21.0586C198.208 21.0195 197.056 21 196.274 21L192.803 21.0586L192.744 21V20.3115C192.744 20.1748 192.822 20.082 192.979 20.0332L193.242 19.9746C193.779 19.8574 194.155 19.7207 194.37 19.5645C194.585 19.3984 194.692 19.1152 194.692 18.7148V11.376C194.692 10.6729 194.639 10.2139 194.531 9.99902C194.434 9.77441 194.268 9.65234 194.033 9.63281L192.803 9.51562L192.744 8.49023C195.186 8.16797 196.865 7.87012 197.783 7.59668C197.92 7.59668 197.988 7.62598 197.988 7.68457L197.93 9.57422H197.988ZM218.013 12.4746C218.013 11.3125 217.798 10.3994 217.368 9.73535C216.938 9.06152 216.362 8.72461 215.64 8.72461C215.024 8.72461 214.526 9.00293 214.146 9.55957C213.765 10.1064 213.574 10.9121 213.574 11.9766C213.574 12.9336 213.774 13.8174 214.175 14.6279C214.575 15.4385 215.195 15.8438 216.035 15.8438C217.354 15.834 218.013 14.7109 218.013 12.4746ZM214.146 21.4541C213.687 21.4541 213.354 21.415 213.149 21.3369C212.71 21.7959 212.49 22.6455 212.49 23.8857C212.49 24.8232 212.856 25.5557 213.589 26.083C214.321 26.6104 214.985 26.874 215.581 26.874C216.841 26.874 218.008 26.5566 219.082 25.9219C220.166 25.2969 220.708 24.4668 220.708 23.4316C220.708 22.0547 219.248 21.3662 216.328 21.3662C216.23 21.3662 215.923 21.3857 215.405 21.4248C215.103 21.4443 214.683 21.4541 214.146 21.4541ZM222.056 9.51562C221.499 9.51562 221.133 9.22266 220.957 8.63672C220.84 8.39258 220.688 8.27539 220.503 8.28516C220.2 8.28516 219.912 8.46582 219.639 8.82715C220.723 9.70605 221.26 10.8926 221.25 12.3867C221.25 13.7832 220.723 14.8965 219.668 15.7266C218.623 16.5469 217.363 16.957 215.889 16.957C214.854 16.957 214.019 16.8057 213.384 16.5029C213.257 16.8154 213.188 17.3037 213.179 17.9678C213.179 18.5049 213.32 18.9004 213.604 19.1543C213.887 19.4082 214.194 19.5352 214.526 19.5352C214.546 19.5352 214.907 19.501 215.61 19.4326C216.313 19.3545 216.895 19.3154 217.354 19.3154C219.512 19.3154 221.064 19.6768 222.012 20.3994C222.969 21.1221 223.447 21.874 223.447 22.6553C223.447 23.7197 223.003 24.6719 222.114 25.5117C221.235 26.3613 220.142 27.0107 218.833 27.46C217.524 27.9092 216.162 28.1338 214.746 28.1338C213.35 28.1338 212.153 27.8359 211.157 27.2402C210.171 26.6445 209.678 25.7266 209.678 24.4863C209.678 23.2461 210.488 22.0742 212.109 20.9707C211.152 20.3945 210.669 19.667 210.659 18.7881C210.659 17.8994 211.182 16.9717 212.227 16.0049C211.68 15.624 211.235 15.0869 210.894 14.3936C210.562 13.7002 210.396 12.9824 210.396 12.2402C210.396 10.9023 210.938 9.80859 212.021 8.95898C213.115 8.10938 214.414 7.68457 215.918 7.68457C217.119 7.68457 218.057 7.875 218.73 8.25586C219.15 7.875 219.653 7.57227 220.239 7.34766C220.835 7.11328 221.343 6.99609 221.763 6.99609C222.28 6.99609 222.681 7.13281 222.964 7.40625C223.247 7.66992 223.389 7.97266 223.389 8.31445C223.389 8.67578 223.271 8.96875 223.037 9.19336C222.803 9.4082 222.476 9.51562 222.056 9.51562ZM1.11328 50.6201L2.31445 50.5615C2.59766 51.8994 2.9834 52.832 3.47168 53.3594C3.95996 53.877 4.75098 54.1357 5.84473 54.1357C6.30371 54.1357 6.71387 53.9697 7.0752 53.6377C7.43652 53.3057 7.61719 52.8174 7.61719 52.1729C7.61719 51.5576 7.48535 51.084 7.22168 50.752C6.96777 50.4199 6.44043 50.1172 5.63965 49.8438C4.64355 49.4824 3.70117 48.9111 2.8125 48.1299C1.93359 47.3486 1.49414 46.4307 1.49414 45.376C1.49414 44.3408 1.93359 43.4668 2.8125 42.7539C3.70117 42.041 4.82422 41.6846 6.18164 41.6846C7.59766 41.6846 8.87695 41.9629 10.0195 42.5195C10.1562 43.5156 10.2686 44.5361 10.3564 45.5811L9.18457 45.7275C8.90137 44.7119 8.52051 43.9941 8.04199 43.5742C7.56348 43.1543 6.97266 42.9443 6.26953 42.9443C5.81055 42.9443 5.41504 43.0908 5.08301 43.3838C4.75098 43.667 4.58496 44.0869 4.58496 44.6436C4.58496 45.708 5.13672 46.4404 6.24023 46.8408C7.70508 47.3779 8.85742 48.0078 9.69727 48.7305C10.5371 49.4531 10.957 50.3516 10.957 51.4258C10.957 52.7246 10.4297 53.6963 9.375 54.3408C8.32031 54.9756 7.11426 55.293 5.75684 55.293C5.29785 55.293 4.60449 55.2295 3.67676 55.1025C2.74902 54.9756 2.01172 54.9219 1.46484 54.9414C1.47461 53.8379 1.35742 52.3975 1.11328 50.6201ZM14.5312 52.6855V38.1104C14.5312 37.1924 14.4629 36.5967 14.3262 36.3232C14.1992 36.0498 13.9697 35.9131 13.6377 35.9131L12.6709 35.8545C12.5537 35.8545 12.4951 35.8057 12.4951 35.708L12.4072 34.8438C13.1494 34.7852 14.0869 34.6777 15.2197 34.5215C16.3623 34.3555 17.1045 34.1992 17.4463 34.0527C17.7686 34.0527 17.9248 34.1553 17.915 34.3604C17.8564 35.1611 17.8271 36.2109 17.8271 37.5098V47.5293C18.1201 47.4902 18.418 47.3877 18.7207 47.2217C19.0234 47.0557 19.2871 46.875 19.5117 46.6797C19.7949 46.4355 20.0879 46.1426 20.3906 45.8008C20.7031 45.4492 21.0498 45.0244 21.4307 44.5264C21.7334 44.0674 21.8213 43.7061 21.6943 43.4424C21.5771 43.1689 21.377 43.0225 21.0938 43.0029L20.4639 42.9443C20.2002 42.9248 20.0732 42.8223 20.083 42.6367V41.9775L20.2295 41.9189C21.5674 41.958 22.5879 41.9775 23.291 41.9775L26.748 41.9189L26.8359 41.9775V42.6367C26.8359 42.7539 26.8213 42.8369 26.792 42.8857C26.7627 42.9248 26.6748 42.9443 26.5283 42.9443L25.6348 43.0029C25.3711 43.0225 25.0049 43.1787 24.5361 43.4717C24.0674 43.7549 23.6426 44.0869 23.2617 44.4678L21.0059 46.9287C20.8887 47.0654 20.918 47.2656 21.0938 47.5293L24.5801 52.6562C25.0977 53.457 25.6592 53.8867 26.2646 53.9453L27.1289 54.0332C27.2852 54.0527 27.3682 54.1162 27.3779 54.2236V55L27.2754 55.0586C25.8789 55.0195 24.79 55 24.0088 55L21.4893 55.0586L21.4307 55V54.2236C21.4307 53.8623 21.2695 53.3398 20.9473 52.6562C20.6055 51.9336 19.9268 50.8154 18.9111 49.3018C18.667 48.96 18.3057 48.7695 17.8271 48.7305V52.6855C17.8271 53.0664 17.9297 53.3398 18.1348 53.5059C18.3496 53.6621 18.7402 53.8184 19.3066 53.9746L19.5117 54.0332C19.668 54.0527 19.7461 54.1455 19.7461 54.3115V55L19.6875 55.0586C18.0859 55.0195 16.8994 55 16.1279 55L12.5537 55.0586L12.4951 55V54.3115C12.4951 54.1553 12.5732 54.0625 12.7295 54.0332L13.0957 53.9746C13.5938 53.8965 13.9551 53.7646 14.1797 53.5791C14.4141 53.3838 14.5312 53.0859 14.5312 52.6855ZM32.1533 46.4453H36.958C36.9971 46.4062 37.0166 46.2988 37.0166 46.123C37.0166 45.0391 36.8018 44.2383 36.3721 43.7207C35.9424 43.2031 35.4785 42.9443 34.9805 42.9443C34.7852 42.9443 34.5654 42.9883 34.3213 43.0762C34.0771 43.1641 33.8037 43.3203 33.501 43.5449C33.208 43.7598 32.9346 44.1162 32.6807 44.6143C32.4268 45.1123 32.251 45.7227 32.1533 46.4453ZM39.4482 51.7334L40.1953 52.3633C39.2383 54.3262 37.4805 55.3027 34.9219 55.293C32.7832 55.293 31.1865 54.707 30.1318 53.5352C29.0869 52.3535 28.5645 50.8594 28.5645 49.0527C28.5645 46.875 29.2188 45.1025 30.5273 43.7354C31.8359 42.3682 33.3301 41.6846 35.0098 41.6846C37.0117 41.6846 38.4229 42.1973 39.2432 43.2227C40.0635 44.2383 40.4736 45.5029 40.4736 47.0166C40.4736 47.4365 40.083 47.6465 39.3018 47.6465H32.0068V48.4229C32.0068 49.9072 32.3975 51.1475 33.1787 52.1436C33.96 53.1299 34.9316 53.623 36.0938 53.623C37.2949 53.623 38.4131 52.9932 39.4482 51.7334ZM44.2236 38.1104C44.2236 37.1924 44.1553 36.5967 44.0186 36.3232C43.8916 36.0498 43.6572 35.9131 43.3154 35.9131L42.3633 35.8545C42.2461 35.8545 42.1826 35.8057 42.1729 35.708L42.085 34.8438C42.8271 34.7852 43.7646 34.6777 44.8975 34.5215C46.04 34.3555 46.7822 34.1992 47.124 34.0527C47.4463 34.0527 47.6074 34.1553 47.6074 34.3604C47.5488 35.1611 47.5195 36.2109 47.5195 37.5098V52.6855C47.5195 53.0859 47.6318 53.3789 47.8564 53.5645C48.0908 53.7402 48.4668 53.877 48.9844 53.9746L49.3213 54.0332C49.4775 54.0527 49.5557 54.1455 49.5557 54.3115V55L49.4971 55.0586C47.8174 55.0195 46.5869 55 45.8057 55L42.2314 55.0586L42.1729 55V54.3115C42.1729 54.1553 42.2559 54.0625 42.4219 54.0332L42.7734 53.9746C43.2715 53.8965 43.6377 53.7646 43.8721 53.5791C44.1064 53.3838 44.2236 53.0859 44.2236 52.6855V38.1104ZM54.6533 46.4453H59.458C59.4971 46.4062 59.5166 46.2988 59.5166 46.123C59.5166 45.0391 59.3018 44.2383 58.8721 43.7207C58.4424 43.2031 57.9785 42.9443 57.4805 42.9443C57.2852 42.9443 57.0654 42.9883 56.8213 43.0762C56.5771 43.1641 56.3037 43.3203 56.001 43.5449C55.708 43.7598 55.4346 44.1162 55.1807 44.6143C54.9268 45.1123 54.751 45.7227 54.6533 46.4453ZM61.9482 51.7334L62.6953 52.3633C61.7383 54.3262 59.9805 55.3027 57.4219 55.293C55.2832 55.293 53.6865 54.707 52.6318 53.5352C51.5869 52.3535 51.0645 50.8594 51.0645 49.0527C51.0645 46.875 51.7188 45.1025 53.0273 43.7354C54.3359 42.3682 55.8301 41.6846 57.5098 41.6846C59.5117 41.6846 60.9229 42.1973 61.7432 43.2227C62.5635 44.2383 62.9736 45.5029 62.9736 47.0166C62.9736 47.4365 62.583 47.6465 61.8018 47.6465H54.5068V48.4229C54.5068 49.9072 54.8975 51.1475 55.6787 52.1436C56.46 53.1299 57.4316 53.623 58.5938 53.623C59.7949 53.623 60.9131 52.9932 61.9482 51.7334ZM69.8438 43.3838V50.957C69.8438 52.4219 70.1025 53.1494 70.6201 53.1396C71.3623 53.1396 72.041 52.8906 72.6562 52.3926L73.3447 53.0811C72.2217 54.5654 70.8105 55.3027 69.1113 55.293C67.3926 55.293 66.5332 54.2773 66.5332 52.2461V43.3838H65.0098C64.6484 43.3838 64.4678 43.3057 64.4678 43.1494V42.2266C64.4678 42.0703 64.8486 41.9873 65.6104 41.9775C66.3135 41.9775 66.7871 41.665 67.0312 41.04C67.2852 40.4053 67.4121 39.4189 67.4121 38.0811L69.8438 37.1436V41.9775H72.6855C73.125 41.9775 73.3447 42.0801 73.3447 42.2852V42.8857C73.3447 43.2275 72.9736 43.3936 72.2314 43.3838H69.8438ZM81.2988 42.915C80.4004 42.915 79.7021 43.4375 79.2041 44.4824C78.7158 45.5176 78.4717 46.7334 78.4717 48.1299C78.4717 48.9502 78.5938 49.79 78.8379 50.6494C79.082 51.5088 79.4873 52.2852 80.0537 52.9785C80.6201 53.6621 81.2842 54.0039 82.0459 54.0039C82.749 54.0039 83.3691 53.6768 83.9062 53.0225C84.4434 52.3584 84.7119 51.1768 84.7119 49.4775C84.7119 47.3779 84.3994 45.7617 83.7744 44.6289C83.1592 43.4863 82.334 42.915 81.2988 42.915ZM74.8242 48.7891C74.8242 46.6699 75.4199 44.9561 76.6113 43.6475C77.8125 42.3389 79.4727 41.6846 81.5918 41.6846C82.7539 41.6846 83.7891 41.8896 84.6973 42.2998C85.6152 42.71 86.3281 43.2568 86.8359 43.9404C87.3438 44.6143 87.7197 45.3418 87.9639 46.123C88.2178 46.9043 88.3447 47.7051 88.3447 48.5254C88.3447 49.3066 88.2031 50.0879 87.9199 50.8691C87.6465 51.6406 87.2412 52.3633 86.7041 53.0371C86.1768 53.7012 85.4688 54.2432 84.5801 54.6631C83.6914 55.083 82.6855 55.293 81.5625 55.293C79.4824 55.293 77.8369 54.6289 76.626 53.3008C75.4248 51.9727 74.8242 50.4688 74.8242 48.7891ZM95.5957 43.5742C97.2363 42.3145 98.7451 41.6846 100.122 41.6846C101.606 41.6846 102.588 42.0947 103.066 42.915C103.545 43.7354 103.784 44.9316 103.784 46.5039V52.7148C103.784 53.0957 103.892 53.3691 104.106 53.5352C104.331 53.6914 104.712 53.8379 105.249 53.9746L105.498 54.0332C105.654 54.0723 105.732 54.165 105.732 54.3115V55L105.674 55.0586C104.072 55.0195 102.881 55 102.1 55L98.7451 55.0586L98.6865 55V54.3115C98.6865 54.1748 98.7646 54.082 98.9209 54.0332L99.0527 54.0039C99.5703 53.8672 99.9365 53.7207 100.151 53.5645C100.376 53.3984 100.488 53.1152 100.488 52.7148V46.2988C100.488 45.2148 100.405 44.4531 100.239 44.0137C100.083 43.5742 99.7461 43.3545 99.2285 43.3545C98.3105 43.3545 97.0996 43.8281 95.5957 44.7754V52.7148C95.5957 53.0957 95.708 53.3789 95.9326 53.5645C96.167 53.7402 96.5332 53.8867 97.0312 54.0039L97.1484 54.0332C97.3047 54.0723 97.3877 54.165 97.3975 54.3115V55L97.3389 55.0586C95.8154 55.0195 94.6631 55 93.8818 55L90.4102 55.0586L90.3516 55V54.3115C90.3516 54.1748 90.4297 54.082 90.5859 54.0332L90.8496 53.9746C91.3867 53.8574 91.7627 53.7207 91.9775 53.5645C92.1924 53.3984 92.2998 53.1152 92.2998 52.7148V45.376C92.2998 44.6729 92.2461 44.2139 92.1387 43.999C92.041 43.7744 91.875 43.6523 91.6406 43.6328L90.4102 43.5156L90.3516 42.4902C92.793 42.168 94.4727 41.8701 95.3906 41.5967C95.5273 41.5967 95.5957 41.626 95.5957 41.6846L95.5371 43.5742H95.5957ZM107.373 50.6201L108.574 50.5615C108.857 51.8994 109.243 52.832 109.731 53.3594C110.22 53.877 111.011 54.1357 112.104 54.1357C112.563 54.1357 112.974 53.9697 113.335 53.6377C113.696 53.3057 113.877 52.8174 113.877 52.1729C113.877 51.5576 113.745 51.084 113.481 50.752C113.228 50.4199 112.7 50.1172 111.899 49.8438C110.903 49.4824 109.961 48.9111 109.072 48.1299C108.193 47.3486 107.754 46.4307 107.754 45.376C107.754 44.3408 108.193 43.4668 109.072 42.7539C109.961 42.041 111.084 41.6846 112.441 41.6846C113.857 41.6846 115.137 41.9629 116.279 42.5195C116.416 43.5156 116.528 44.5361 116.616 45.5811L115.444 45.7275C115.161 44.7119 114.78 43.9941 114.302 43.5742C113.823 43.1543 113.232 42.9443 112.529 42.9443C112.07 42.9443 111.675 43.0908 111.343 43.3838C111.011 43.667 110.845 44.0869 110.845 44.6436C110.845 45.708 111.396 46.4404 112.5 46.8408C113.965 47.3779 115.117 48.0078 115.957 48.7305C116.797 49.4531 117.217 50.3516 117.217 51.4258C117.217 52.7246 116.689 53.6963 115.635 54.3408C114.58 54.9756 113.374 55.293 112.017 55.293C111.558 55.293 110.864 55.2295 109.937 55.1025C109.009 54.9756 108.271 54.9219 107.725 54.9414C107.734 53.8379 107.617 52.3975 107.373 50.6201ZM132.129 45.3613V52.6855C132.129 53.0859 132.241 53.3789 132.466 53.5645C132.7 53.7402 133.057 53.877 133.535 53.9746L133.843 54.0332C133.999 54.0723 134.077 54.165 134.077 54.3115V55L134.019 55.0586C132.397 55.0195 131.196 55 130.415 55L126.914 55.0586L126.855 55V54.3115C126.855 54.1553 126.924 54.0625 127.061 54.0332L127.427 53.9746C127.925 53.8965 128.281 53.7646 128.496 53.5791C128.721 53.3838 128.833 53.0859 128.833 52.6855V45.376C128.833 44.6729 128.774 44.1943 128.657 43.9404C128.55 43.6768 128.389 43.5352 128.174 43.5156L126.943 43.3838L126.885 42.4902C129.561 42.1289 131.27 41.8311 132.012 41.5967C132.148 41.5967 132.217 41.626 132.217 41.6846C132.207 41.8506 132.197 42.0654 132.188 42.3291C132.188 42.5928 132.178 43.0518 132.158 43.7061C132.139 44.3604 132.129 44.9121 132.129 45.3613ZM129.17 39.1504C128.828 38.7988 128.657 38.374 128.657 37.876C128.657 37.3682 128.828 36.9434 129.17 36.6016C129.521 36.25 129.946 36.0742 130.444 36.0742C130.952 36.0742 131.377 36.25 131.719 36.6016C132.07 36.9434 132.246 37.3682 132.246 37.876C132.246 38.374 132.07 38.7988 131.719 39.1504C131.377 39.4922 130.952 39.6631 130.444 39.6631C129.946 39.6631 129.521 39.4922 129.17 39.1504ZM140.625 43.5742C142.266 42.3145 143.774 41.6846 145.151 41.6846C146.636 41.6846 147.617 42.0947 148.096 42.915C148.574 43.7354 148.813 44.9316 148.813 46.5039V52.7148C148.813 53.0957 148.921 53.3691 149.136 53.5352C149.36 53.6914 149.741 53.8379 150.278 53.9746L150.527 54.0332C150.684 54.0723 150.762 54.165 150.762 54.3115V55L150.703 55.0586C149.102 55.0195 147.91 55 147.129 55L143.774 55.0586L143.716 55V54.3115C143.716 54.1748 143.794 54.082 143.95 54.0332L144.082 54.0039C144.6 53.8672 144.966 53.7207 145.181 53.5645C145.405 53.3984 145.518 53.1152 145.518 52.7148V46.2988C145.518 45.2148 145.435 44.4531 145.269 44.0137C145.112 43.5742 144.775 43.3545 144.258 43.3545C143.34 43.3545 142.129 43.8281 140.625 44.7754V52.7148C140.625 53.0957 140.737 53.3789 140.962 53.5645C141.196 53.7402 141.562 53.8867 142.061 54.0039L142.178 54.0332C142.334 54.0723 142.417 54.165 142.427 54.3115V55L142.368 55.0586C140.845 55.0195 139.692 55 138.911 55L135.439 55.0586L135.381 55V54.3115C135.381 54.1748 135.459 54.082 135.615 54.0332L135.879 53.9746C136.416 53.8574 136.792 53.7207 137.007 53.5645C137.222 53.3984 137.329 53.1152 137.329 52.7148V45.376C137.329 44.6729 137.275 44.2139 137.168 43.999C137.07 43.7744 136.904 43.6523 136.67 43.6328L135.439 43.5156L135.381 42.4902C137.822 42.168 139.502 41.8701 140.42 41.5967C140.557 41.5967 140.625 41.626 140.625 41.6846L140.566 43.5742H140.625ZM157.266 43.3838V50.957C157.266 52.4219 157.524 53.1494 158.042 53.1396C158.784 53.1396 159.463 52.8906 160.078 52.3926L160.767 53.0811C159.644 54.5654 158.232 55.3027 156.533 55.293C154.814 55.293 153.955 54.2773 153.955 52.2461V43.3838H152.432C152.07 43.3838 151.89 43.3057 151.89 43.1494V42.2266C151.89 42.0703 152.271 41.9873 153.032 41.9775C153.735 41.9775 154.209 41.665 154.453 41.04C154.707 40.4053 154.834 39.4189 154.834 38.0811L157.266 37.1436V41.9775H160.107C160.547 41.9775 160.767 42.0801 160.767 42.2852V42.8857C160.767 43.2275 160.396 43.3936 159.653 43.3838H157.266ZM168.721 42.915C167.822 42.915 167.124 43.4375 166.626 44.4824C166.138 45.5176 165.894 46.7334 165.894 48.1299C165.894 48.9502 166.016 49.79 166.26 50.6494C166.504 51.5088 166.909 52.2852 167.476 52.9785C168.042 53.6621 168.706 54.0039 169.468 54.0039C170.171 54.0039 170.791 53.6768 171.328 53.0225C171.865 52.3584 172.134 51.1768 172.134 49.4775C172.134 47.3779 171.821 45.7617 171.196 44.6289C170.581 43.4863 169.756 42.915 168.721 42.915ZM162.246 48.7891C162.246 46.6699 162.842 44.9561 164.033 43.6475C165.234 42.3389 166.895 41.6846 169.014 41.6846C170.176 41.6846 171.211 41.8896 172.119 42.2998C173.037 42.71 173.75 43.2568 174.258 43.9404C174.766 44.6143 175.142 45.3418 175.386 46.123C175.64 46.9043 175.767 47.7051 175.767 48.5254C175.767 49.3066 175.625 50.0879 175.342 50.8691C175.068 51.6406 174.663 52.3633 174.126 53.0371C173.599 53.7012 172.891 54.2432 172.002 54.6631C171.113 55.083 170.107 55.293 168.984 55.293C166.904 55.293 165.259 54.6289 164.048 53.3008C162.847 51.9727 162.246 50.4688 162.246 48.7891ZM9.36035 80.4746C9.36035 79.3125 9.14551 78.3994 8.71582 77.7354C8.28613 77.0615 7.70996 76.7246 6.9873 76.7246C6.37207 76.7246 5.87402 77.0029 5.49316 77.5596C5.1123 78.1064 4.92188 78.9121 4.92188 79.9766C4.92188 80.9336 5.12207 81.8174 5.52246 82.6279C5.92285 83.4385 6.54297 83.8438 7.38281 83.8438C8.70117 83.834 9.36035 82.7109 9.36035 80.4746ZM5.49316 89.4541C5.03418 89.4541 4.70215 89.415 4.49707 89.3369C4.05762 89.7959 3.83789 90.6455 3.83789 91.8857C3.83789 92.8232 4.2041 93.5557 4.93652 94.083C5.66895 94.6104 6.33301 94.874 6.92871 94.874C8.18848 94.874 9.35547 94.5566 10.4297 93.9219C11.5137 93.2969 12.0557 92.4668 12.0557 91.4316C12.0557 90.0547 10.5957 89.3662 7.67578 89.3662C7.57813 89.3662 7.27051 89.3857 6.75293 89.4248C6.4502 89.4443 6.03027 89.4541 5.49316 89.4541ZM13.4033 77.5156C12.8467 77.5156 12.4805 77.2227 12.3047 76.6367C12.1875 76.3926 12.0361 76.2754 11.8506 76.2852C11.5479 76.2852 11.2598 76.4658 10.9863 76.8271C12.0703 77.7061 12.6074 78.8926 12.5977 80.3867C12.5977 81.7832 12.0703 82.8965 11.0156 83.7266C9.9707 84.5469 8.71094 84.957 7.23633 84.957C6.20117 84.957 5.36621 84.8057 4.73145 84.5029C4.60449 84.8154 4.53613 85.3037 4.52637 85.9678C4.52637 86.5049 4.66797 86.9004 4.95117 87.1543C5.23438 87.4082 5.54199 87.5352 5.87402 87.5352C5.89355 87.5352 6.25488 87.501 6.95801 87.4326C7.66113 87.3545 8.24219 87.3154 8.70117 87.3154C10.8594 87.3154 12.4121 87.6768 13.3594 88.3994C14.3164 89.1221 14.7949 89.874 14.7949 90.6553C14.7949 91.7197 14.3506 92.6719 13.4619 93.5117C12.583 94.3613 11.4893 95.0107 10.1807 95.46C8.87207 95.9092 7.50977 96.1338 6.09375 96.1338C4.69727 96.1338 3.50098 95.8359 2.50488 95.2402C1.51855 94.6445 1.02539 93.7266 1.02539 92.4863C1.02539 91.2461 1.83594 90.0742 3.45703 88.9707C2.5 88.3945 2.0166 87.667 2.00684 86.7881C2.00684 85.8994 2.5293 84.9717 3.57422 84.0049C3.02734 83.624 2.58301 83.0869 2.24121 82.3936C1.90918 81.7002 1.74316 80.9824 1.74316 80.2402C1.74316 78.9023 2.28516 77.8086 3.36914 76.959C4.46289 76.1094 5.76172 75.6846 7.26562 75.6846C8.4668 75.6846 9.4043 75.875 10.0781 76.2559C10.498 75.875 11.001 75.5723 11.5869 75.3477C12.1826 75.1133 12.6904 74.9961 13.1104 74.9961C13.6279 74.9961 14.0283 75.1328 14.3115 75.4062C14.5947 75.6699 14.7363 75.9727 14.7363 76.3145C14.7363 76.6758 14.6191 76.9688 14.3848 77.1934C14.1504 77.4082 13.8232 77.5156 13.4033 77.5156ZM18.0908 72.1104C18.0908 71.1924 18.0225 70.5967 17.8857 70.3232C17.7588 70.0498 17.5244 69.9131 17.1826 69.9131L16.2305 69.8545C16.1133 69.8545 16.0498 69.8057 16.04 69.708L15.9521 68.8438C16.6943 68.7852 17.6318 68.6777 18.7646 68.5215C19.9072 68.3555 20.6494 68.1992 20.9912 68.0527C21.3135 68.0527 21.4746 68.1553 21.4746 68.3604C21.416 69.1611 21.3867 70.2109 21.3867 71.5098V86.6855C21.3867 87.0859 21.499 87.3789 21.7236 87.5645C21.958 87.7402 22.334 87.877 22.8516 87.9746L23.1885 88.0332C23.3447 88.0527 23.4229 88.1455 23.4229 88.3115V89L23.3643 89.0586C21.6846 89.0195 20.4541 89 19.6729 89L16.0986 89.0586L16.04 89V88.3115C16.04 88.1553 16.123 88.0625 16.2891 88.0332L16.6406 87.9746C17.1387 87.8965 17.5049 87.7646 17.7393 87.5791C17.9736 87.3838 18.0908 87.0859 18.0908 86.6855V72.1104ZM36.8701 78.7754L31.8896 91.124C31.665 91.6904 31.4453 92.1836 31.2305 92.6035C31.0254 93.0332 30.7764 93.4678 30.4834 93.9072C30.1904 94.3564 29.8877 94.7227 29.5752 95.0059C29.2725 95.2891 28.9111 95.5186 28.4912 95.6943C28.0811 95.8799 27.6416 95.9727 27.1729 95.9727C26.7041 95.9727 26.2061 95.8359 25.6787 95.5625C25.1611 95.2891 24.9023 94.8789 24.9023 94.332C24.9023 94.0879 24.9512 93.8633 25.0488 93.6582C25.1562 93.4629 25.293 93.3018 25.459 93.1748C25.625 93.0479 25.8105 92.9502 26.0156 92.8818C26.2305 92.8232 26.4453 92.7939 26.6602 92.7939C26.8848 92.7939 27.124 92.8672 27.3779 93.0137C27.6318 93.1699 27.8125 93.3311 27.9199 93.4971C28.1445 93.8389 28.335 94.0098 28.4912 94.0098C28.5693 94.0098 28.6914 93.9121 28.8574 93.7168C29.0332 93.5312 29.2627 93.1846 29.5459 92.6768C29.8291 92.1689 30.0977 91.5537 30.3516 90.8311L30.8936 89.3662L26.6602 78.9219C26.3379 78.1406 26.04 77.6182 25.7666 77.3545C25.5029 77.0811 25.083 76.9443 24.5068 76.9443C24.3115 76.9443 24.209 76.8711 24.1992 76.7246V75.9775L24.3018 75.9189C25.6006 75.958 26.6602 75.9775 27.4805 75.9775L31.1133 75.9189L31.2305 75.9775V76.6953C31.2305 76.8516 31.1475 76.9346 30.9814 76.9443C30.4053 76.9443 30.0293 77.0566 29.8535 77.2812C29.6875 77.4961 29.6973 77.833 29.8828 78.292L32.666 85.8506C33.8477 82.9502 34.7656 80.4502 35.4199 78.3506C35.7422 77.4131 35.3467 76.9443 34.2334 76.9443C34.0771 76.9443 33.9941 76.8711 33.9844 76.7246V76.0068L34.1016 75.9189C35.459 75.958 36.582 75.9775 37.4707 75.9775L39.3896 75.9189L39.4482 75.9775V76.666C39.4482 76.8418 39.3359 76.9346 39.1113 76.9443C38.1152 76.9443 37.3682 77.5547 36.8701 78.7754ZM45.8057 78.7754V87.0518C46.4209 87.7158 47.0312 88.043 47.6367 88.0332C48.8379 88.0332 49.7217 87.5107 50.2881 86.4658C50.8643 85.4111 51.1523 84.1562 51.1523 82.7012C51.1523 79.0586 50.2637 77.2373 48.4863 77.2373C47.6172 77.2471 46.7236 77.7598 45.8057 78.7754ZM45.8057 77.5742C46.9092 76.3145 48.1201 75.6846 49.4385 75.6846C51.001 75.6846 52.251 76.2998 53.1885 77.5303C54.126 78.7607 54.5947 80.2158 54.5947 81.8955C54.5947 84.1514 53.8281 86.0508 52.2949 87.5938C51.1523 88.7363 49.6631 89.3027 47.8271 89.293C47.1436 89.293 46.4697 89.127 45.8057 88.7949V93.6143C45.8057 94.0146 45.9131 94.3027 46.1279 94.4785C46.3525 94.6641 46.7285 94.8203 47.2559 94.9473L47.4902 95.0059C47.6465 95.0449 47.7246 95.123 47.7246 95.2402V95.958L47.6953 96.0166C46.0742 95.9775 44.8779 95.958 44.1064 95.958L40.6201 96.0166L40.5615 95.958V95.2402C40.5615 95.123 40.6396 95.0449 40.7959 95.0059L41.0742 94.9473C41.5918 94.8301 41.958 94.6787 42.1729 94.4932C42.3975 94.3076 42.5098 94.0146 42.5098 93.6143V79.376C42.5098 78.6729 42.4609 78.2139 42.3633 77.999C42.2656 77.7744 42.0947 77.6523 41.8506 77.6328L40.6201 77.5156L40.5615 76.4902C43.0029 76.168 44.6826 75.8701 45.6006 75.5967C45.7373 75.5967 45.8057 75.626 45.8057 75.6846L45.7471 77.5742H45.8057ZM69.6973 86.6855C69.6973 87.0859 69.8145 87.3789 70.0488 87.5645C70.2832 87.7402 70.6592 87.877 71.1768 87.9746L71.499 88.0332C71.6553 88.0527 71.7383 88.1455 71.748 88.3115V89L71.6895 89.0586C70.0098 89.0195 68.7793 89 67.998 89L64.5703 89.0586L64.5117 89V88.3115C64.5117 88.1553 64.5947 88.0625 64.7607 88.0332L64.9658 87.9746C65.3271 87.877 65.5908 87.7891 65.7568 87.7109C65.9326 87.6328 66.084 87.5107 66.2109 87.3447C66.3379 87.1689 66.4014 86.9492 66.4014 86.6855V80.1523C66.4014 78.9902 66.2988 78.2236 66.0938 77.8525C65.8984 77.4814 65.5029 77.2959 64.9072 77.2959C64.585 77.2959 64.0967 77.4277 63.4424 77.6914C62.7979 77.9551 62.1533 78.3164 61.5088 78.7754V86.6855C61.5088 87.0664 61.6113 87.3398 61.8164 87.5059C62.0312 87.6621 62.4219 87.8184 62.9883 87.9746L63.1934 88.0332C63.3496 88.0527 63.4277 88.1455 63.4277 88.3115V89L63.3691 89.0586C61.7676 89.0195 60.5811 89 59.8096 89L56.2354 89.0586L56.1768 89V88.3115C56.1768 88.1553 56.2549 88.0625 56.4111 88.0332L56.7773 87.9746C57.2754 87.8965 57.6367 87.7646 57.8613 87.5791C58.0957 87.3838 58.2129 87.0859 58.2129 86.6855V72.1104C58.2129 71.1924 58.1445 70.5967 58.0078 70.3232C57.8809 70.0498 57.6514 69.9131 57.3193 69.9131L56.3525 69.8545C56.2354 69.8545 56.1768 69.8057 56.1768 69.708L56.0889 68.8438C56.8311 68.7852 57.7686 68.6777 58.9014 68.5215C60.0439 68.3555 60.7861 68.1992 61.1279 68.0527C61.4502 68.0527 61.6113 68.1553 61.6113 68.3604C61.5527 69.1611 61.5186 70.2109 61.5088 71.5098V77.5742C62.3096 76.9785 63.1396 76.5098 63.999 76.168C64.8584 75.8262 65.5811 75.6553 66.167 75.6553C67.4268 75.6553 68.3301 76.0557 68.877 76.8564C69.4238 77.6475 69.6973 78.8535 69.6973 80.4746V86.6855ZM73.2715 84.6201L74.4727 84.5615C74.7559 85.8994 75.1416 86.832 75.6299 87.3594C76.1182 87.877 76.9092 88.1357 78.0029 88.1357C78.4619 88.1357 78.8721 87.9697 79.2334 87.6377C79.5947 87.3057 79.7754 86.8174 79.7754 86.1729C79.7754 85.5576 79.6436 85.084 79.3799 84.752C79.126 84.4199 78.5986 84.1172 77.7979 83.8438C76.8018 83.4824 75.8594 82.9111 74.9707 82.1299C74.0918 81.3486 73.6523 80.4307 73.6523 79.376C73.6523 78.3408 74.0918 77.4668 74.9707 76.7539C75.8594 76.041 76.9824 75.6846 78.3398 75.6846C79.7559 75.6846 81.0352 75.9629 82.1777 76.5195C82.3145 77.5156 82.4268 78.5361 82.5146 79.5811L81.3428 79.7275C81.0596 78.7119 80.6787 77.9941 80.2002 77.5742C79.7217 77.1543 79.1309 76.9443 78.4277 76.9443C77.9688 76.9443 77.5732 77.0908 77.2412 77.3838C76.9092 77.667 76.7432 78.0869 76.7432 78.6436C76.7432 79.708 77.2949 80.4404 78.3984 80.8408C79.8633 81.3779 81.0156 82.0078 81.8555 82.7305C82.6953 83.4531 83.1152 84.3516 83.1152 85.4258C83.1152 86.7246 82.5879 87.6963 81.5332 88.3408C80.4785 88.9756 79.2725 89.293 77.915 89.293C77.4561 89.293 76.7627 89.2295 75.835 89.1025C74.9072 88.9756 74.1699 88.9219 73.623 88.9414C73.6328 87.8379 73.5156 86.3975 73.2715 84.6201Z" fill="black"/>
</svg>
