<svg width="174" height="274" viewBox="0 0 174 274" fill="none" xmlns="http://www.w3.org/2000/svg">
<path d="M48.5469 0.507812H173.811L153.887 51.4023H48.5469L38.4863 78.0332C83.8574 79.7428 118.773 91.0527 143.234 111.963C163.355 129.191 173.416 150.627 173.416 176.271C173.416 192.71 168.747 208.82 159.41 224.602C150.073 240.251 136.922 252.35 119.957 260.898C102.992 269.315 84.3835 273.523 64.1309 273.523C42.3001 273.523 25.5326 269.447 13.8281 261.293C5.67448 255.507 1.59766 248.931 1.59766 241.566C1.59766 235.911 3.70182 230.914 7.91016 226.574C12.25 222.234 17.2474 220.064 22.9023 220.064C28.0312 220.064 33.2259 221.117 38.4863 223.221C43.7467 225.325 52.7552 230.848 65.5117 239.791C73.5339 245.314 80.4382 249.128 86.2246 251.232C90.3014 252.811 94.9043 253.6 100.033 253.6C110.817 253.6 119.957 249.654 127.453 241.764C135.081 233.873 138.895 224.404 138.895 213.357C138.895 190.212 127.322 171.406 104.176 156.939C81.0299 142.473 51.8346 135.24 16.5898 135.24C13.0391 135.24 7.71289 135.306 0.611328 135.438L48.5469 0.507812Z" fill="#C92B1D"/>
</svg>
