<svg width="600" height="98" viewBox="0 0 600 98" fill="none" xmlns="http://www.w3.org/2000/svg">
<path d="M88.4473 0.185547V32.3145H85.7812C83.776 23.929 80.0391 17.5033 74.5703 13.0371C69.1016 8.57096 62.9036 6.33789 55.9766 6.33789C50.1888 6.33789 44.8796 8.0013 40.0488 11.3281C35.2181 14.6549 31.6862 19.0072 29.4531 24.3848C26.582 31.2663 25.1465 38.9225 25.1465 47.3535C25.1465 55.6478 26.1947 63.2129 28.291 70.0488C30.3874 76.8392 33.6686 81.9889 38.1348 85.498C42.6009 88.9616 48.3887 90.6934 55.498 90.6934C61.3314 90.6934 66.6634 89.4173 71.4941 86.8652C76.3704 84.3132 81.4974 79.9154 86.875 73.6719V81.6699C81.6797 87.0931 76.2565 91.0352 70.6055 93.4961C65 95.9115 58.4375 97.1191 50.918 97.1191C41.0286 97.1191 32.2331 95.1367 24.5312 91.1719C16.875 87.207 10.9505 81.5104 6.75781 74.082C2.61068 66.6536 0.537109 58.7467 0.537109 50.3613C0.537109 41.5202 2.83854 33.1348 7.44141 25.2051C12.0898 17.2754 18.3333 11.123 26.1719 6.74805C34.056 2.37305 42.4186 0.185547 51.2598 0.185547C57.7767 0.185547 64.6582 1.59831 71.9043 4.42383C76.097 6.06445 78.763 6.88477 79.9023 6.88477C81.3607 6.88477 82.6139 6.36068 83.6621 5.3125C84.7559 4.21875 85.4622 2.50977 85.7812 0.185547H88.4473ZM150.244 1.00586C165.01 0.458984 176.995 4.76562 186.201 13.9258C195.452 23.0859 200.078 34.5475 200.078 48.3105C200.078 60.0684 196.637 70.4134 189.756 79.3457C180.641 91.1947 167.767 97.1191 151.133 97.1191C134.453 97.1191 121.556 91.4681 112.441 80.166C105.241 71.2337 101.641 60.638 101.641 48.3789C101.641 34.6159 106.312 23.1543 115.654 13.9941C125.042 4.78841 136.572 0.458984 150.244 1.00586ZM151.064 5.38086C142.588 5.38086 136.139 9.71029 131.719 18.3691C128.118 25.4785 126.318 35.6868 126.318 48.9941C126.318 64.8079 129.098 76.4974 134.658 84.0625C138.532 89.349 143.955 91.9922 150.928 91.9922C155.622 91.9922 159.541 90.8529 162.686 88.5742C166.696 85.6576 169.818 81.0091 172.051 74.6289C174.284 68.2031 175.4 59.8405 175.4 49.541C175.4 37.2819 174.261 28.1217 171.982 22.0605C169.704 15.9538 166.787 11.6471 163.232 9.14062C159.723 6.63411 155.667 5.38086 151.064 5.38086ZM240 2.30469L285.732 59.7949V19.9414C285.732 14.3815 284.935 10.6217 283.34 8.66211C281.152 6.01888 277.484 4.74284 272.334 4.83398V2.30469H302.959V4.83398C299.04 5.33529 296.396 5.99609 295.029 6.81641C293.708 7.59115 292.66 8.88997 291.885 10.7129C291.156 12.4902 290.791 15.5664 290.791 19.9414V97.1191H288.467L225.781 19.9414V78.8672C225.781 84.1992 226.989 87.7995 229.404 89.668C231.865 91.5365 234.668 92.4707 237.812 92.4707H240V95H207.119V92.4707C212.223 92.4251 215.778 91.377 217.783 89.3262C219.788 87.2754 220.791 83.7891 220.791 78.8672V13.4473L218.809 10.9863C216.849 8.52539 215.117 6.90755 213.613 6.13281C212.109 5.35807 209.945 4.92513 207.119 4.83398V2.30469H240ZM399.756 0.185547V32.3145H397.09C395.085 23.929 391.348 17.5033 385.879 13.0371C380.41 8.57096 374.212 6.33789 367.285 6.33789C361.497 6.33789 356.188 8.0013 351.357 11.3281C346.527 14.6549 342.995 19.0072 340.762 24.3848C337.891 31.2663 336.455 38.9225 336.455 47.3535C336.455 55.6478 337.503 63.2129 339.6 70.0488C341.696 76.8392 344.977 81.9889 349.443 85.498C353.91 88.9616 359.697 90.6934 366.807 90.6934C372.64 90.6934 377.972 89.4173 382.803 86.8652C387.679 84.3132 392.806 79.9154 398.184 73.6719V81.6699C392.988 87.0931 387.565 91.0352 381.914 93.4961C376.309 95.9115 369.746 97.1191 362.227 97.1191C352.337 97.1191 343.542 95.1367 335.84 91.1719C328.184 87.207 322.259 81.5104 318.066 74.082C313.919 66.6536 311.846 58.7467 311.846 50.3613C311.846 41.5202 314.147 33.1348 318.75 25.2051C323.398 17.2754 329.642 11.123 337.48 6.74805C345.365 2.37305 353.727 0.185547 362.568 0.185547C369.085 0.185547 375.967 1.59831 383.213 4.42383C387.406 6.06445 390.072 6.88477 391.211 6.88477C392.669 6.88477 393.923 6.36068 394.971 5.3125C396.064 4.21875 396.771 2.50977 397.09 0.185547H399.756ZM495.869 62.4609L492.383 95H410.078V92.4707H413.154C415.843 92.4707 418.008 91.9922 419.648 91.0352C420.833 90.3971 421.745 89.3034 422.383 87.7539C422.884 86.6602 423.135 83.7891 423.135 79.1406V18.1641C423.135 13.4245 422.884 10.4622 422.383 9.27734C421.882 8.09245 420.856 7.06706 419.307 6.20117C417.803 5.28971 415.752 4.83398 413.154 4.83398H410.078V2.30469H459.502V4.83398H455.469C452.78 4.83398 450.615 5.3125 448.975 6.26953C447.79 6.90755 446.855 8.0013 446.172 9.55078C445.671 10.6445 445.42 13.5156 445.42 18.1641V77.2266C445.42 81.9661 445.693 84.9967 446.24 86.3184C446.787 87.5944 447.858 88.5514 449.453 89.1895C450.592 89.5996 453.35 89.8047 457.725 89.8047H465.449C470.371 89.8047 474.473 88.9388 477.754 87.207C481.035 85.4753 483.861 82.7409 486.23 79.0039C488.646 75.2669 490.924 69.7526 493.066 62.4609H495.869ZM504.141 2.30469H551.992V4.83398H549.6C545.999 4.83398 543.516 5.22135 542.148 5.99609C540.827 6.72526 539.87 7.75065 539.277 9.07227C538.73 10.3939 538.457 13.6979 538.457 18.9844V64.375C538.457 72.6693 539.072 78.1608 540.303 80.8496C541.579 83.5384 543.652 85.7715 546.523 87.5488C549.395 89.3262 553.018 90.2148 557.393 90.2148C562.406 90.2148 566.667 89.0983 570.176 86.8652C573.73 84.5866 576.374 81.4648 578.105 77.5C579.883 73.5352 580.771 66.6309 580.771 56.7871V18.9844C580.771 14.8372 580.339 11.875 579.473 10.0977C578.607 8.32031 577.513 7.08984 576.191 6.40625C574.141 5.35807 571.247 4.83398 567.51 4.83398V2.30469H599.57V4.83398H597.656C595.059 4.83398 592.894 5.35807 591.162 6.40625C589.43 7.45443 588.177 9.02669 587.402 11.123C586.81 12.5814 586.514 15.2018 586.514 18.9844V54.1895C586.514 65.0814 585.785 72.9427 584.326 77.7734C582.913 82.6042 579.427 87.0475 573.867 91.1035C568.307 95.1595 560.719 97.1875 551.104 97.1875C543.083 97.1875 536.885 96.1165 532.51 93.9746C526.54 91.0579 522.324 87.321 519.863 82.7637C517.402 78.2064 516.172 72.0768 516.172 64.375V18.9844C516.172 13.6523 515.876 10.3483 515.283 9.07227C514.691 7.75065 513.665 6.70247 512.207 5.92773C510.749 5.15299 508.06 4.78841 504.141 4.83398V2.30469Z" fill="black"/>
</svg>
