<svg width="939" height="383" viewBox="0 0 939 383" fill="none" xmlns="http://www.w3.org/2000/svg">
<path d="M163.547 101.508H288.811L268.887 152.402H163.547L153.486 179.033C198.857 180.743 233.773 192.053 258.234 212.963C278.355 230.191 288.416 251.627 288.416 277.271C288.416 293.71 283.747 309.82 274.41 325.602C265.073 341.251 251.922 353.35 234.957 361.898C217.992 370.315 199.383 374.523 179.131 374.523C157.3 374.523 140.533 370.447 128.828 362.293C120.674 356.507 116.598 349.931 116.598 342.566C116.598 336.911 118.702 331.914 122.91 327.574C127.25 323.234 132.247 321.064 137.902 321.064C143.031 321.064 148.226 322.117 153.486 324.221C158.747 326.325 167.755 331.848 180.512 340.791C188.534 346.314 195.438 350.128 201.225 352.232C205.301 353.811 209.904 354.6 215.033 354.6C225.817 354.6 234.957 350.654 242.453 342.764C250.081 334.873 253.895 325.404 253.895 314.357C253.895 291.212 242.322 272.406 219.176 257.939C196.03 243.473 166.835 236.24 131.59 236.24C128.039 236.24 122.713 236.306 115.611 236.438L163.547 101.508Z" fill="#C92B1D"/>
<path d="M93.4473 143.186V175.314H90.7812C88.776 166.929 85.0391 160.503 79.5703 156.037C74.1016 151.571 67.9036 149.338 60.9766 149.338C55.1888 149.338 49.8796 151.001 45.0488 154.328C40.2181 157.655 36.6862 162.007 34.4531 167.385C31.582 174.266 30.1465 181.923 30.1465 190.354C30.1465 198.648 31.1947 206.213 33.291 213.049C35.3874 219.839 38.6686 224.989 43.1348 228.498C47.6009 231.962 53.3887 233.693 60.498 233.693C66.3314 233.693 71.6634 232.417 76.4941 229.865C81.3704 227.313 86.4974 222.915 91.875 216.672V224.67C86.6797 230.093 81.2565 234.035 75.6055 236.496C70 238.911 63.4375 240.119 55.918 240.119C46.0286 240.119 37.2331 238.137 29.5312 234.172C21.875 230.207 15.9505 224.51 11.7578 217.082C7.61068 209.654 5.53711 201.747 5.53711 193.361C5.53711 184.52 7.83854 176.135 12.4414 168.205C17.0898 160.275 23.3333 154.123 31.1719 149.748C39.056 145.373 47.4186 143.186 56.2598 143.186C62.7767 143.186 69.6582 144.598 76.9043 147.424C81.097 149.064 83.763 149.885 84.9023 149.885C86.3607 149.885 87.6139 149.361 88.6621 148.312C89.7559 147.219 90.4622 145.51 90.7812 143.186H93.4473ZM155.244 144.006C170.01 143.459 181.995 147.766 191.201 156.926C200.452 166.086 205.078 177.548 205.078 191.311C205.078 203.068 201.637 213.413 194.756 222.346C185.641 234.195 172.767 240.119 156.133 240.119C139.453 240.119 126.556 234.468 117.441 223.166C110.241 214.234 106.641 203.638 106.641 191.379C106.641 177.616 111.312 166.154 120.654 156.994C130.042 147.788 141.572 143.459 155.244 144.006ZM156.064 148.381C147.588 148.381 141.139 152.71 136.719 161.369C133.118 168.479 131.318 178.687 131.318 191.994C131.318 207.808 134.098 219.497 139.658 227.062C143.532 232.349 148.955 234.992 155.928 234.992C160.622 234.992 164.541 233.853 167.686 231.574C171.696 228.658 174.818 224.009 177.051 217.629C179.284 211.203 180.4 202.84 180.4 192.541C180.4 180.282 179.261 171.122 176.982 165.061C174.704 158.954 171.787 154.647 168.232 152.141C164.723 149.634 160.667 148.381 156.064 148.381ZM245 145.305L290.732 202.795V162.941C290.732 157.382 289.935 153.622 288.34 151.662C286.152 149.019 282.484 147.743 277.334 147.834V145.305H307.959V147.834C304.04 148.335 301.396 148.996 300.029 149.816C298.708 150.591 297.66 151.89 296.885 153.713C296.156 155.49 295.791 158.566 295.791 162.941V240.119H293.467L230.781 162.941V221.867C230.781 227.199 231.989 230.799 234.404 232.668C236.865 234.536 239.668 235.471 242.812 235.471H245V238H212.119V235.471C217.223 235.425 220.778 234.377 222.783 232.326C224.788 230.275 225.791 226.789 225.791 221.867V156.447L223.809 153.986C221.849 151.525 220.117 149.908 218.613 149.133C217.109 148.358 214.945 147.925 212.119 147.834V145.305H245ZM404.756 143.186V175.314H402.09C400.085 166.929 396.348 160.503 390.879 156.037C385.41 151.571 379.212 149.338 372.285 149.338C366.497 149.338 361.188 151.001 356.357 154.328C351.527 157.655 347.995 162.007 345.762 167.385C342.891 174.266 341.455 181.923 341.455 190.354C341.455 198.648 342.503 206.213 344.6 213.049C346.696 219.839 349.977 224.989 354.443 228.498C358.91 231.962 364.697 233.693 371.807 233.693C377.64 233.693 382.972 232.417 387.803 229.865C392.679 227.313 397.806 222.915 403.184 216.672V224.67C397.988 230.093 392.565 234.035 386.914 236.496C381.309 238.911 374.746 240.119 367.227 240.119C357.337 240.119 348.542 238.137 340.84 234.172C333.184 230.207 327.259 224.51 323.066 217.082C318.919 209.654 316.846 201.747 316.846 193.361C316.846 184.52 319.147 176.135 323.75 168.205C328.398 160.275 334.642 154.123 342.48 149.748C350.365 145.373 358.727 143.186 367.568 143.186C374.085 143.186 380.967 144.598 388.213 147.424C392.406 149.064 395.072 149.885 396.211 149.885C397.669 149.885 398.923 149.361 399.971 148.312C401.064 147.219 401.771 145.51 402.09 143.186H404.756ZM500.869 205.461L497.383 238H415.078V235.471H418.154C420.843 235.471 423.008 234.992 424.648 234.035C425.833 233.397 426.745 232.303 427.383 230.754C427.884 229.66 428.135 226.789 428.135 222.141V161.164C428.135 156.424 427.884 153.462 427.383 152.277C426.882 151.092 425.856 150.067 424.307 149.201C422.803 148.29 420.752 147.834 418.154 147.834H415.078V145.305H464.502V147.834H460.469C457.78 147.834 455.615 148.312 453.975 149.27C452.79 149.908 451.855 151.001 451.172 152.551C450.671 153.645 450.42 156.516 450.42 161.164V220.227C450.42 224.966 450.693 227.997 451.24 229.318C451.787 230.594 452.858 231.551 454.453 232.189C455.592 232.6 458.35 232.805 462.725 232.805H470.449C475.371 232.805 479.473 231.939 482.754 230.207C486.035 228.475 488.861 225.741 491.23 222.004C493.646 218.267 495.924 212.753 498.066 205.461H500.869ZM509.141 145.305H556.992V147.834H554.6C550.999 147.834 548.516 148.221 547.148 148.996C545.827 149.725 544.87 150.751 544.277 152.072C543.73 153.394 543.457 156.698 543.457 161.984V207.375C543.457 215.669 544.072 221.161 545.303 223.85C546.579 226.538 548.652 228.771 551.523 230.549C554.395 232.326 558.018 233.215 562.393 233.215C567.406 233.215 571.667 232.098 575.176 229.865C578.73 227.587 581.374 224.465 583.105 220.5C584.883 216.535 585.771 209.631 585.771 199.787V161.984C585.771 157.837 585.339 154.875 584.473 153.098C583.607 151.32 582.513 150.09 581.191 149.406C579.141 148.358 576.247 147.834 572.51 147.834V145.305H604.57V147.834H602.656C600.059 147.834 597.894 148.358 596.162 149.406C594.43 150.454 593.177 152.027 592.402 154.123C591.81 155.581 591.514 158.202 591.514 161.984V197.189C591.514 208.081 590.785 215.943 589.326 220.773C587.913 225.604 584.427 230.048 578.867 234.104C573.307 238.16 565.719 240.188 556.104 240.188C548.083 240.188 541.885 239.117 537.51 236.975C531.54 234.058 527.324 230.321 524.863 225.764C522.402 221.206 521.172 215.077 521.172 207.375V161.984C521.172 156.652 520.876 153.348 520.283 152.072C519.691 150.751 518.665 149.702 517.207 148.928C515.749 148.153 513.06 147.788 509.141 147.834V145.305Z" fill="black"/>
<rect x="321" y="227" width="618" height="138" fill="white"/>
</svg>
