<svg width="436" height="161" viewBox="0 0 436 161" fill="none" xmlns="http://www.w3.org/2000/svg">
<path d="M1.8457 128V125.471H4.92188C7.61068 125.471 9.66146 125.061 11.0742 124.24C12.5326 123.374 13.6035 122.212 14.2871 120.754C14.6973 119.797 14.9023 116.926 14.9023 112.141V51.1641C14.9023 46.4245 14.6517 43.4622 14.1504 42.2773C13.6491 41.0924 12.6237 40.0671 11.0742 39.2012C9.57031 38.2897 7.51953 37.834 4.92188 37.834H1.8457V35.3047H43.3398C54.4141 35.3047 63.3236 36.8086 70.0684 39.8164C78.3171 43.5078 84.5605 49.0905 88.7988 56.5645C93.0827 64.0384 95.2246 72.4922 95.2246 81.9258C95.2246 88.4427 94.1764 94.4583 92.0801 99.9727C89.9837 105.441 87.2721 109.976 83.9453 113.576C80.6185 117.131 76.7676 120.002 72.3926 122.189C68.0632 124.331 62.7539 125.995 56.4648 127.18C53.6849 127.727 49.3099 128 43.3398 128H1.8457ZM37.1875 40.5684V112.893C37.1875 116.721 37.3698 119.068 37.7344 119.934C38.099 120.799 38.7142 121.46 39.5801 121.916C40.8105 122.6 42.5879 122.941 44.9121 122.941C52.5228 122.941 58.3333 120.344 62.3438 115.148C67.8125 108.13 70.5469 97.2383 70.5469 82.4727C70.5469 70.5781 68.6784 61.0762 64.9414 53.9668C61.9792 48.4069 58.1738 44.6243 53.5254 42.6191C50.2441 41.2064 44.7982 40.5228 37.1875 40.5684ZM152.441 125.471V128H103.975V125.471H107.051C109.74 125.471 111.904 124.992 113.545 124.035C114.73 123.397 115.641 122.303 116.279 120.754C116.781 119.66 117.031 116.789 117.031 112.141V51.1641C117.031 46.4245 116.781 43.4622 116.279 42.2773C115.778 41.0924 114.753 40.0671 113.203 39.2012C111.699 38.2897 109.648 37.834 107.051 37.834H103.975V35.3047H152.441V37.834H149.365C146.676 37.834 144.512 38.3125 142.871 39.2695C141.686 39.9076 140.752 41.0013 140.068 42.5508C139.567 43.6445 139.316 46.5156 139.316 51.1641V112.141C139.316 116.88 139.567 119.842 140.068 121.027C140.615 122.212 141.641 123.26 143.145 124.172C144.694 125.038 146.768 125.471 149.365 125.471H152.441ZM221.484 33.1855L222.236 64.084H219.434C218.112 56.3366 214.854 50.1159 209.658 45.4219C204.508 40.6823 198.926 38.3125 192.91 38.3125C188.262 38.3125 184.57 39.5658 181.836 42.0723C179.147 44.5332 177.803 47.3815 177.803 50.6172C177.803 52.668 178.281 54.4909 179.238 56.0859C180.56 58.2279 182.679 60.347 185.596 62.4434C187.738 63.9473 192.682 66.6133 200.43 70.4414C211.276 75.7734 218.59 80.8092 222.373 85.5488C226.11 90.2884 227.979 95.7116 227.979 101.818C227.979 109.566 224.948 116.242 218.887 121.848C212.871 127.408 205.215 130.188 195.918 130.188C193.001 130.188 190.244 129.891 187.646 129.299C185.049 128.706 181.79 127.59 177.871 125.949C175.684 125.038 173.883 124.582 172.471 124.582C171.286 124.582 170.033 125.038 168.711 125.949C167.389 126.861 166.318 128.251 165.498 130.119H162.969V95.1191H165.498C167.503 104.963 171.354 112.482 177.051 117.678C182.793 122.827 188.968 125.402 195.576 125.402C200.68 125.402 204.736 124.012 207.744 121.232C210.798 118.452 212.324 115.217 212.324 111.525C212.324 109.338 211.732 107.219 210.547 105.168C209.408 103.117 207.653 101.18 205.283 99.3574C202.913 97.4889 198.721 95.0736 192.705 92.1113C184.274 87.9642 178.213 84.4323 174.521 81.5156C170.83 78.599 167.982 75.3405 165.977 71.7402C164.017 68.14 163.037 64.1751 163.037 59.8457C163.037 52.4629 165.749 46.1738 171.172 40.9785C176.595 35.7832 183.431 33.1855 191.68 33.1855C194.688 33.1855 197.604 33.5501 200.43 34.2793C202.572 34.8262 205.169 35.8516 208.223 37.3555C211.322 38.8138 213.486 39.543 214.717 39.543C215.902 39.543 216.836 39.1784 217.52 38.4492C218.203 37.7201 218.841 35.9655 219.434 33.1855H221.484ZM327.1 33.1855V65.3145H324.434C322.428 56.929 318.691 50.5033 313.223 46.0371C307.754 41.571 301.556 39.3379 294.629 39.3379C288.841 39.3379 283.532 41.0013 278.701 44.3281C273.87 47.6549 270.339 52.0072 268.105 57.3848C265.234 64.2663 263.799 71.9225 263.799 80.3535C263.799 88.6478 264.847 96.2129 266.943 103.049C269.04 109.839 272.321 114.989 276.787 118.498C281.253 121.962 287.041 123.693 294.15 123.693C299.984 123.693 305.316 122.417 310.146 119.865C315.023 117.313 320.15 112.915 325.527 106.672V114.67C320.332 120.093 314.909 124.035 309.258 126.496C303.652 128.911 297.09 130.119 289.57 130.119C279.681 130.119 270.885 128.137 263.184 124.172C255.527 120.207 249.603 114.51 245.41 107.082C241.263 99.6536 239.189 91.7467 239.189 83.3613C239.189 74.5202 241.491 66.1348 246.094 58.2051C250.742 50.2754 256.986 44.123 264.824 39.748C272.708 35.373 281.071 33.1855 289.912 33.1855C296.429 33.1855 303.311 34.5983 310.557 37.4238C314.749 39.0645 317.415 39.8848 318.555 39.8848C320.013 39.8848 321.266 39.3607 322.314 38.3125C323.408 37.2188 324.115 35.5098 324.434 33.1855H327.1ZM338.105 35.3047H385.957V37.834H383.564C379.964 37.834 377.48 38.2214 376.113 38.9961C374.792 39.7253 373.835 40.7507 373.242 42.0723C372.695 43.3939 372.422 46.6979 372.422 51.9844V97.375C372.422 105.669 373.037 111.161 374.268 113.85C375.544 116.538 377.617 118.771 380.488 120.549C383.359 122.326 386.982 123.215 391.357 123.215C396.37 123.215 400.632 122.098 404.141 119.865C407.695 117.587 410.339 114.465 412.07 110.5C413.848 106.535 414.736 99.6309 414.736 89.7871V51.9844C414.736 47.8372 414.303 44.875 413.438 43.0977C412.572 41.3203 411.478 40.0898 410.156 39.4062C408.105 38.3581 405.212 37.834 401.475 37.834V35.3047H433.535V37.834H431.621C429.023 37.834 426.859 38.3581 425.127 39.4062C423.395 40.4544 422.142 42.0267 421.367 44.123C420.775 45.5814 420.479 48.2018 420.479 51.9844V87.1895C420.479 98.0814 419.749 105.943 418.291 110.773C416.878 115.604 413.392 120.048 407.832 124.104C402.272 128.16 394.684 130.188 385.068 130.188C377.048 130.188 370.85 129.117 366.475 126.975C360.505 124.058 356.289 120.321 353.828 115.764C351.367 111.206 350.137 105.077 350.137 97.375V51.9844C350.137 46.6523 349.84 43.3483 349.248 42.0723C348.656 40.7507 347.63 39.7025 346.172 38.9277C344.714 38.153 342.025 37.7884 338.105 37.834V35.3047Z" fill="black"/>
<rect x="346" y="63" width="90" height="68" fill="white"/>
</svg>
