<svg width="343" height="296" viewBox="0 0 343 296" fill="none" xmlns="http://www.w3.org/2000/svg">
<path d="M65.7617 33.1855L66.5137 64.084H63.7109C62.3893 56.3366 59.1309 50.1159 53.9355 45.4219C48.7858 40.6823 43.2031 38.3125 37.1875 38.3125C32.5391 38.3125 28.8477 39.5658 26.1133 42.0723C23.4245 44.5332 22.0801 47.3815 22.0801 50.6172C22.0801 52.668 22.5586 54.4909 23.5156 56.0859C24.8372 58.2279 26.9564 60.347 29.873 62.4434C32.015 63.9473 36.9596 66.6133 44.707 70.4414C55.5534 75.7734 62.8678 80.8092 66.6504 85.5488C70.3874 90.2884 72.2559 95.7116 72.2559 101.818C72.2559 109.566 69.2253 116.242 63.1641 121.848C57.1484 127.408 49.4922 130.188 40.1953 130.188C37.2786 130.188 34.5215 129.891 31.9238 129.299C29.3262 128.706 26.0677 127.59 22.1484 125.949C19.9609 125.038 18.1608 124.582 16.748 124.582C15.5632 124.582 14.3099 125.038 12.9883 125.949C11.6667 126.861 10.5957 128.251 9.77539 130.119H7.24609V95.1191H9.77539C11.7806 104.963 15.6315 112.482 21.3281 117.678C27.0703 122.827 33.2454 125.402 39.8535 125.402C44.9577 125.402 49.0137 124.012 52.0215 121.232C55.0749 118.452 56.6016 115.217 56.6016 111.525C56.6016 109.338 56.0091 107.219 54.8242 105.168C53.6849 103.117 51.9303 101.18 49.5605 99.3574C47.1908 97.4889 42.998 95.0736 36.9824 92.1113C28.5514 87.9642 22.4902 84.4323 18.7988 81.5156C15.1074 78.599 12.2591 75.3405 10.2539 71.7402C8.29427 68.14 7.31445 64.1751 7.31445 59.8457C7.31445 52.4629 10.026 46.1738 15.4492 40.9785C20.8724 35.7832 27.7083 33.1855 35.957 33.1855C38.9648 33.1855 41.8815 33.5501 44.707 34.2793C46.849 34.8262 49.4466 35.8516 52.5 37.3555C55.599 38.8138 57.7637 39.543 58.9941 39.543C60.179 39.543 61.1133 39.1784 61.7969 38.4492C62.4805 37.7201 63.1185 35.9655 63.7109 33.1855H65.7617ZM129.199 125.471V128H80.7324V125.471H83.8086C86.4974 125.471 88.6621 124.992 90.3027 124.035C91.4876 123.397 92.3991 122.303 93.0371 120.754C93.5384 119.66 93.7891 116.789 93.7891 112.141V51.1641C93.7891 46.4245 93.5384 43.4622 93.0371 42.2773C92.5358 41.0924 91.5104 40.0671 89.9609 39.2012C88.457 38.2897 86.4062 37.834 83.8086 37.834H80.7324V35.3047H129.199V37.834H126.123C123.434 37.834 121.27 38.3125 119.629 39.2695C118.444 39.9076 117.51 41.0013 116.826 42.5508C116.325 43.6445 116.074 46.5156 116.074 51.1641V112.141C116.074 116.88 116.325 119.842 116.826 121.027C117.373 122.212 118.398 123.26 119.902 124.172C121.452 125.038 123.525 125.471 126.123 125.471H129.199ZM186.553 34.0059C201.318 33.459 213.304 37.7656 222.51 46.9258C231.761 56.0859 236.387 67.5475 236.387 81.3105C236.387 93.0684 232.946 103.413 226.064 112.346C216.95 124.195 204.076 130.119 187.441 130.119C170.762 130.119 157.865 124.468 148.75 113.166C141.549 104.234 137.949 93.638 137.949 81.3789C137.949 67.6159 142.62 56.1543 151.963 46.9941C161.351 37.7884 172.881 33.459 186.553 34.0059ZM187.373 38.3809C178.896 38.3809 172.448 42.7103 168.027 51.3691C164.427 58.4785 162.627 68.6868 162.627 81.9941C162.627 97.8079 165.407 109.497 170.967 117.062C174.84 122.349 180.264 124.992 187.236 124.992C191.93 124.992 195.85 123.853 198.994 121.574C203.005 118.658 206.126 114.009 208.359 107.629C210.592 101.203 211.709 92.8405 211.709 82.541C211.709 70.2819 210.57 61.1217 208.291 55.0605C206.012 48.9538 203.096 44.6471 199.541 42.1406C196.032 39.6341 191.976 38.3809 187.373 38.3809ZM276.309 35.3047L322.041 92.7949V52.9414C322.041 47.3815 321.243 43.6217 319.648 41.6621C317.461 39.0189 313.792 37.7428 308.643 37.834V35.3047H339.268V37.834C335.348 38.3353 332.705 38.9961 331.338 39.8164C330.016 40.5911 328.968 41.89 328.193 43.7129C327.464 45.4902 327.1 48.5664 327.1 52.9414V130.119H324.775L262.09 52.9414V111.867C262.09 117.199 263.298 120.799 265.713 122.668C268.174 124.536 270.977 125.471 274.121 125.471H276.309V128H243.428V125.471C248.532 125.425 252.087 124.377 254.092 122.326C256.097 120.275 257.1 116.789 257.1 111.867V46.4473L255.117 43.9863C253.158 41.5254 251.426 39.9076 249.922 39.1328C248.418 38.3581 246.253 37.9251 243.428 37.834V35.3047H276.309Z" fill="black"/>
<path d="M79.707 207.561H108.145V210.227C104.954 210.682 102.448 211.639 100.625 213.098C98.8021 214.51 96.4323 217.837 93.5156 223.078C90.599 228.319 86.4974 234.175 81.2109 240.646C85.8594 244.839 89.6419 247.756 92.5586 249.396C94.6094 250.536 96.6146 251.105 98.5742 251.105C101.947 251.105 105 248.895 107.734 244.475L110.537 245.979C106.8 253.316 102.812 258.534 98.5742 261.633C95.3385 263.957 91.6471 265.119 87.5 265.119C83.9453 265.119 80.5501 264.367 77.3145 262.863C74.1243 261.314 70.2279 258.443 65.625 254.25C59.9284 258.078 54.5736 260.858 49.5605 262.59C44.5475 264.276 39.3294 265.119 33.9062 265.119C25.2474 265.119 18.3659 262.772 13.2617 258.078C8.15755 253.384 5.60547 247.87 5.60547 241.535C5.60547 234.699 8.04362 228.752 12.9199 223.693C17.7962 218.635 24.8828 214.26 34.1797 210.568C32.9948 207.606 32.1061 204.712 31.5137 201.887C30.9212 199.061 30.625 196.327 30.625 193.684C30.625 186.392 33.1771 180.331 38.2812 175.5C43.431 170.624 49.9935 168.186 57.9688 168.186C64.3945 168.186 69.4759 169.803 73.2129 173.039C76.9954 176.229 78.8867 179.966 78.8867 184.25C78.8867 189.4 76.9499 193.82 73.0762 197.512C69.248 201.158 63.1641 204.507 54.8242 207.561C59.974 216.63 67.5163 226.405 77.4512 236.887C84.1504 229.367 87.5 222.919 87.5 217.541C87.5 215.627 86.8392 214.009 85.5176 212.688C84.196 211.32 82.2591 210.5 79.707 210.227V207.561ZM52.5 203.459C57.2852 201.682 60.498 199.79 62.1387 197.785C63.7793 195.734 64.5996 193.273 64.5996 190.402C64.5996 185.298 63.2552 180.992 60.5664 177.482C58.7891 175.158 56.6016 173.996 54.0039 173.996C51.862 173.996 50.0163 174.839 48.4668 176.525C46.9629 178.212 46.2109 180.49 46.2109 183.361C46.2109 185.594 46.5755 187.987 47.3047 190.539C48.0339 193.091 49.7656 197.398 52.5 203.459ZM36.0938 214.943C32.4479 216.493 29.873 218.133 28.3691 219.865C26.2272 222.417 25.1562 225.266 25.1562 228.41C25.1562 232.694 26.3867 236.955 28.8477 241.193C31.3542 245.432 34.362 248.713 37.8711 251.037C41.3802 253.361 44.8893 254.523 48.3984 254.523C50.1302 254.523 52.0671 254.159 54.209 253.43C56.3965 252.655 58.7663 251.516 61.3184 250.012C50.3353 238.755 41.9271 227.066 36.0938 214.943Z" fill="black"/>
</svg>
