<svg width="447" height="161" viewBox="0 0 447 161" fill="none" xmlns="http://www.w3.org/2000/svg">
<path d="M91.7617 33.1855L92.5137 64.084H89.7109C88.3893 56.3366 85.1309 50.1159 79.9355 45.4219C74.7858 40.6823 69.2031 38.3125 63.1875 38.3125C58.5391 38.3125 54.8477 39.5658 52.1133 42.0723C49.4245 44.5332 48.0801 47.3815 48.0801 50.6172C48.0801 52.668 48.5586 54.4909 49.5156 56.0859C50.8372 58.2279 52.9564 60.347 55.873 62.4434C58.015 63.9473 62.9596 66.6133 70.707 70.4414C81.5534 75.7734 88.8678 80.8092 92.6504 85.5488C96.3874 90.2884 98.2559 95.7116 98.2559 101.818C98.2559 109.566 95.2253 116.242 89.1641 121.848C83.1484 127.408 75.4922 130.188 66.1953 130.188C63.2786 130.188 60.5215 129.891 57.9238 129.299C55.3262 128.706 52.0677 127.59 48.1484 125.949C45.9609 125.038 44.1608 124.582 42.748 124.582C41.5632 124.582 40.3099 125.038 38.9883 125.949C37.6667 126.861 36.5957 128.251 35.7754 130.119H33.2461V95.1191H35.7754C37.7806 104.963 41.6315 112.482 47.3281 117.678C53.0703 122.827 59.2454 125.402 65.8535 125.402C70.9577 125.402 75.0137 124.012 78.0215 121.232C81.0749 118.452 82.6016 115.217 82.6016 111.525C82.6016 109.338 82.0091 107.219 80.8242 105.168C79.6849 103.117 77.9303 101.18 75.5605 99.3574C73.1908 97.4889 68.998 95.0736 62.9824 92.1113C54.5514 87.9642 48.4902 84.4323 44.7988 81.5156C41.1074 78.599 38.2591 75.3405 36.2539 71.7402C34.2943 68.14 33.3145 64.1751 33.3145 59.8457C33.3145 52.4629 36.026 46.1738 41.4492 40.9785C46.8724 35.7832 53.7083 33.1855 61.957 33.1855C64.9648 33.1855 67.8815 33.5501 70.707 34.2793C72.849 34.8262 75.4466 35.8516 78.5 37.3555C81.599 38.8138 83.7637 39.543 84.9941 39.543C86.179 39.543 87.1133 39.1784 87.7969 38.4492C88.4805 37.7201 89.1185 35.9655 89.7109 33.1855H91.7617ZM169.691 33.1855L170.443 64.084H167.641C166.319 56.3366 163.061 50.1159 157.865 45.4219C152.715 40.6823 147.133 38.3125 141.117 38.3125C136.469 38.3125 132.777 39.5658 130.043 42.0723C127.354 44.5332 126.01 47.3815 126.01 50.6172C126.01 52.668 126.488 54.4909 127.445 56.0859C128.767 58.2279 130.886 60.347 133.803 62.4434C135.945 63.9473 140.889 66.6133 148.637 70.4414C159.483 75.7734 166.798 80.8092 170.58 85.5488C174.317 90.2884 176.186 95.7116 176.186 101.818C176.186 109.566 173.155 116.242 167.094 121.848C161.078 127.408 153.422 130.188 144.125 130.188C141.208 130.188 138.451 129.891 135.854 129.299C133.256 128.706 129.997 127.59 126.078 125.949C123.891 125.038 122.09 124.582 120.678 124.582C119.493 124.582 118.24 125.038 116.918 125.949C115.596 126.861 114.525 128.251 113.705 130.119H111.176V95.1191H113.705C115.71 104.963 119.561 112.482 125.258 117.678C131 122.827 137.175 125.402 143.783 125.402C148.887 125.402 152.943 124.012 155.951 121.232C159.005 118.452 160.531 115.217 160.531 111.525C160.531 109.338 159.939 107.219 158.754 105.168C157.615 103.117 155.86 101.18 153.49 99.3574C151.12 97.4889 146.928 95.0736 140.912 92.1113C132.481 87.9642 126.42 84.4323 122.729 81.5156C119.037 78.599 116.189 75.3405 114.184 71.7402C112.224 68.14 111.244 64.1751 111.244 59.8457C111.244 52.4629 113.956 46.1738 119.379 40.9785C124.802 35.7832 131.638 33.1855 139.887 33.1855C142.895 33.1855 145.811 33.5501 148.637 34.2793C150.779 34.8262 153.376 35.8516 156.43 37.3555C159.529 38.8138 161.693 39.543 162.924 39.543C164.109 39.543 165.043 39.1784 165.727 38.4492C166.41 37.7201 167.048 35.9655 167.641 33.1855H169.691ZM233.129 125.471V128H184.662V125.471H187.738C190.427 125.471 192.592 124.992 194.232 124.035C195.417 123.397 196.329 122.303 196.967 120.754C197.468 119.66 197.719 116.789 197.719 112.141V51.1641C197.719 46.4245 197.468 43.4622 196.967 42.2773C196.465 41.0924 195.44 40.0671 193.891 39.2012C192.387 38.2897 190.336 37.834 187.738 37.834H184.662V35.3047H233.129V37.834H230.053C227.364 37.834 225.199 38.3125 223.559 39.2695C222.374 39.9076 221.439 41.0013 220.756 42.5508C220.255 43.6445 220.004 46.5156 220.004 51.1641V112.141C220.004 116.88 220.255 119.842 220.756 121.027C221.303 122.212 222.328 123.26 223.832 124.172C225.382 125.038 227.455 125.471 230.053 125.471H233.129ZM290.482 34.0059C305.248 33.459 317.234 37.7656 326.439 46.9258C335.691 56.0859 340.316 67.5475 340.316 81.3105C340.316 93.0684 336.876 103.413 329.994 112.346C320.88 124.195 308.005 130.119 291.371 130.119C274.691 130.119 261.794 124.468 252.68 113.166C245.479 104.234 241.879 93.638 241.879 81.3789C241.879 67.6159 246.55 56.1543 255.893 46.9941C265.281 37.7884 276.811 33.459 290.482 34.0059ZM291.303 38.3809C282.826 38.3809 276.378 42.7103 271.957 51.3691C268.357 58.4785 266.557 68.6868 266.557 81.9941C266.557 97.8079 269.337 109.497 274.896 117.062C278.77 122.349 284.193 124.992 291.166 124.992C295.86 124.992 299.779 123.853 302.924 121.574C306.934 118.658 310.056 114.009 312.289 107.629C314.522 101.203 315.639 92.8405 315.639 82.541C315.639 70.2819 314.499 61.1217 312.221 55.0605C309.942 48.9538 307.025 44.6471 303.471 42.1406C299.962 39.6341 295.906 38.3809 291.303 38.3809ZM380.238 35.3047L425.971 92.7949V52.9414C425.971 47.3815 425.173 43.6217 423.578 41.6621C421.391 39.0189 417.722 37.7428 412.572 37.834V35.3047H443.197V37.834C439.278 38.3353 436.635 38.9961 435.268 39.8164C433.946 40.5911 432.898 41.89 432.123 43.7129C431.394 45.4902 431.029 48.5664 431.029 52.9414V130.119H428.705L366.02 52.9414V111.867C366.02 117.199 367.227 120.799 369.643 122.668C372.104 124.536 374.906 125.471 378.051 125.471H380.238V128H347.357V125.471C352.462 125.425 356.016 124.377 358.021 122.326C360.027 120.275 361.029 116.789 361.029 111.867V46.4473L359.047 43.9863C357.087 41.5254 355.355 39.9076 353.852 39.1328C352.348 38.3581 350.183 37.9251 347.357 37.834V35.3047H380.238Z" fill="black"/>
<rect y="10" width="329" height="38" fill="white"/>
</svg>
