<svg width="421" height="161" viewBox="0 0 421 161" fill="none" xmlns="http://www.w3.org/2000/svg">
<path d="M65.7617 33.1855L66.5137 64.084H63.7109C62.3893 56.3366 59.1309 50.1159 53.9355 45.4219C48.7858 40.6823 43.2031 38.3125 37.1875 38.3125C32.5391 38.3125 28.8477 39.5658 26.1133 42.0723C23.4245 44.5332 22.0801 47.3815 22.0801 50.6172C22.0801 52.668 22.5586 54.4909 23.5156 56.0859C24.8372 58.2279 26.9564 60.347 29.873 62.4434C32.015 63.9473 36.9596 66.6133 44.707 70.4414C55.5534 75.7734 62.8678 80.8092 66.6504 85.5488C70.3874 90.2884 72.2559 95.7116 72.2559 101.818C72.2559 109.566 69.2253 116.242 63.1641 121.848C57.1484 127.408 49.4922 130.188 40.1953 130.188C37.2786 130.188 34.5215 129.891 31.9238 129.299C29.3262 128.706 26.0677 127.59 22.1484 125.949C19.9609 125.038 18.1608 124.582 16.748 124.582C15.5632 124.582 14.3099 125.038 12.9883 125.949C11.6667 126.861 10.5957 128.251 9.77539 130.119H7.24609V95.1191H9.77539C11.7806 104.963 15.6315 112.482 21.3281 117.678C27.0703 122.827 33.2454 125.402 39.8535 125.402C44.9577 125.402 49.0137 124.012 52.0215 121.232C55.0749 118.452 56.6016 115.217 56.6016 111.525C56.6016 109.338 56.0091 107.219 54.8242 105.168C53.6849 103.117 51.9303 101.18 49.5605 99.3574C47.1908 97.4889 42.998 95.0736 36.9824 92.1113C28.5514 87.9642 22.4902 84.4323 18.7988 81.5156C15.1074 78.599 12.2591 75.3405 10.2539 71.7402C8.29427 68.14 7.31445 64.1751 7.31445 59.8457C7.31445 52.4629 10.026 46.1738 15.4492 40.9785C20.8724 35.7832 27.7083 33.1855 35.957 33.1855C38.9648 33.1855 41.8815 33.5501 44.707 34.2793C46.849 34.8262 49.4466 35.8516 52.5 37.3555C55.599 38.8138 57.7637 39.543 58.9941 39.543C60.179 39.543 61.1133 39.1784 61.7969 38.4492C62.4805 37.7201 63.1185 35.9655 63.7109 33.1855H65.7617ZM143.691 33.1855L144.443 64.084H141.641C140.319 56.3366 137.061 50.1159 131.865 45.4219C126.715 40.6823 121.133 38.3125 115.117 38.3125C110.469 38.3125 106.777 39.5658 104.043 42.0723C101.354 44.5332 100.01 47.3815 100.01 50.6172C100.01 52.668 100.488 54.4909 101.445 56.0859C102.767 58.2279 104.886 60.347 107.803 62.4434C109.945 63.9473 114.889 66.6133 122.637 70.4414C133.483 75.7734 140.798 80.8092 144.58 85.5488C148.317 90.2884 150.186 95.7116 150.186 101.818C150.186 109.566 147.155 116.242 141.094 121.848C135.078 127.408 127.422 130.188 118.125 130.188C115.208 130.188 112.451 129.891 109.854 129.299C107.256 128.706 103.997 127.59 100.078 125.949C97.8906 125.038 96.0905 124.582 94.6777 124.582C93.4928 124.582 92.2396 125.038 90.918 125.949C89.5964 126.861 88.5254 128.251 87.7051 130.119H85.1758V95.1191H87.7051C89.7103 104.963 93.5612 112.482 99.2578 117.678C105 122.827 111.175 125.402 117.783 125.402C122.887 125.402 126.943 124.012 129.951 121.232C133.005 118.452 134.531 115.217 134.531 111.525C134.531 109.338 133.939 107.219 132.754 105.168C131.615 103.117 129.86 101.18 127.49 99.3574C125.12 97.4889 120.928 95.0736 114.912 92.1113C106.481 87.9642 100.42 84.4323 96.7285 81.5156C93.0371 78.599 90.1888 75.3405 88.1836 71.7402C86.224 68.14 85.2441 64.1751 85.2441 59.8457C85.2441 52.4629 87.9557 46.1738 93.3789 40.9785C98.8021 35.7832 105.638 33.1855 113.887 33.1855C116.895 33.1855 119.811 33.5501 122.637 34.2793C124.779 34.8262 127.376 35.8516 130.43 37.3555C133.529 38.8138 135.693 39.543 136.924 39.543C138.109 39.543 139.043 39.1784 139.727 38.4492C140.41 37.7201 141.048 35.9655 141.641 33.1855H143.691ZM207.129 125.471V128H158.662V125.471H161.738C164.427 125.471 166.592 124.992 168.232 124.035C169.417 123.397 170.329 122.303 170.967 120.754C171.468 119.66 171.719 116.789 171.719 112.141V51.1641C171.719 46.4245 171.468 43.4622 170.967 42.2773C170.465 41.0924 169.44 40.0671 167.891 39.2012C166.387 38.2897 164.336 37.834 161.738 37.834H158.662V35.3047H207.129V37.834H204.053C201.364 37.834 199.199 38.3125 197.559 39.2695C196.374 39.9076 195.439 41.0013 194.756 42.5508C194.255 43.6445 194.004 46.5156 194.004 51.1641V112.141C194.004 116.88 194.255 119.842 194.756 121.027C195.303 122.212 196.328 123.26 197.832 124.172C199.382 125.038 201.455 125.471 204.053 125.471H207.129ZM264.482 34.0059C279.248 33.459 291.234 37.7656 300.439 46.9258C309.691 56.0859 314.316 67.5475 314.316 81.3105C314.316 93.0684 310.876 103.413 303.994 112.346C294.88 124.195 282.005 130.119 265.371 130.119C248.691 130.119 235.794 124.468 226.68 113.166C219.479 104.234 215.879 93.638 215.879 81.3789C215.879 67.6159 220.55 56.1543 229.893 46.9941C239.281 37.7884 250.811 33.459 264.482 34.0059ZM265.303 38.3809C256.826 38.3809 250.378 42.7103 245.957 51.3691C242.357 58.4785 240.557 68.6868 240.557 81.9941C240.557 97.8079 243.337 109.497 248.896 117.062C252.77 122.349 258.193 124.992 265.166 124.992C269.86 124.992 273.779 123.853 276.924 121.574C280.934 118.658 284.056 114.009 286.289 107.629C288.522 101.203 289.639 92.8405 289.639 82.541C289.639 70.2819 288.499 61.1217 286.221 55.0605C283.942 48.9538 281.025 44.6471 277.471 42.1406C273.962 39.6341 269.906 38.3809 265.303 38.3809ZM354.238 35.3047L399.971 92.7949V52.9414C399.971 47.3815 399.173 43.6217 397.578 41.6621C395.391 39.0189 391.722 37.7428 386.572 37.834V35.3047H417.197V37.834C413.278 38.3353 410.635 38.9961 409.268 39.8164C407.946 40.5911 406.898 41.89 406.123 43.7129C405.394 45.4902 405.029 48.5664 405.029 52.9414V130.119H402.705L340.02 52.9414V111.867C340.02 117.199 341.227 120.799 343.643 122.668C346.104 124.536 348.906 125.471 352.051 125.471H354.238V128H321.357V125.471C326.462 125.425 330.016 124.377 332.021 122.326C334.027 120.275 335.029 116.789 335.029 111.867V46.4473L333.047 43.9863C331.087 41.5254 329.355 39.9076 327.852 39.1328C326.348 38.3581 324.183 37.9251 321.357 37.834V35.3047H354.238Z" fill="black"/>
</svg>
