<svg width="247" height="367" viewBox="0 0 247 367" fill="none" xmlns="http://www.w3.org/2000/svg">
<path d="M247 230.471C247 188.965 238.874 158.28 222.644 138.436C206.393 118.593 182.572 108.649 151.181 108.649C136.747 108.649 123.66 111.172 111.921 116.24C100.181 121.308 89.6393 128.151 80.252 136.811L84.5928 72.3829H230.235V24.0136H163.455V0H93.3387V36.1808H32.7594V60.3654H5.06787L0 185.095H14.4766V209.344H89.9815C89.9815 197.797 92.5047 189.5 97.5512 184.432C102.598 179.386 109.269 176.841 117.587 176.841C126.975 176.841 134.095 181.096 138.971 189.564C143.846 198.053 146.284 213.107 146.284 234.769C146.284 253.18 145.749 267.785 144.659 278.626C143.568 289.446 141.772 297.764 139.249 303.538C136.726 309.311 133.732 313.011 130.311 314.636C126.868 316.261 122.634 317.074 117.587 317.074C108.927 317.074 102.149 313.823 97.2732 307.323C92.3978 300.822 89.9601 288.569 89.9601 270.5V257.499H14.4766V329.989H50.8926V366.298H121.094V335.976H174.938V305.526H238.34C239.216 302.511 240.05 299.432 240.777 296.225C244.926 277.642 247 255.703 247 230.428V230.471Z" fill="white"/>
</svg>
