<svg width="662" height="161" viewBox="0 0 662 161" fill="none" xmlns="http://www.w3.org/2000/svg">
<path d="M58.2422 101.613H25.498L21.6016 110.637C20.3255 113.645 19.6875 116.128 19.6875 118.088C19.6875 120.686 20.7357 122.6 22.832 123.83C24.0625 124.559 27.0931 125.106 31.9238 125.471V128H1.09375V125.471C4.42057 124.969 7.15495 123.602 9.29688 121.369C11.4388 119.09 14.082 114.419 17.2266 107.355L50.3809 33.3906H51.6797L85.1074 109.406C88.2975 116.607 90.918 121.141 92.9688 123.01C94.5182 124.423 96.7057 125.243 99.5312 125.471V128H54.6875V125.471H56.5332C60.1335 125.471 62.6628 124.969 64.1211 123.967C65.1237 123.238 65.625 122.189 65.625 120.822C65.625 120.002 65.4883 119.159 65.2148 118.293C65.1237 117.883 64.4401 116.174 63.1641 113.166L58.2422 101.613ZM55.918 96.5547L42.1094 64.6309L27.8906 96.5547H55.918ZM194.619 33.1855V65.3145H191.953C189.948 56.929 186.211 50.5033 180.742 46.0371C175.273 41.571 169.076 39.3379 162.148 39.3379C156.361 39.3379 151.051 41.0013 146.221 44.3281C141.39 47.6549 137.858 52.0072 135.625 57.3848C132.754 64.2663 131.318 71.9225 131.318 80.3535C131.318 88.6478 132.367 96.2129 134.463 103.049C136.559 109.839 139.84 114.989 144.307 118.498C148.773 121.962 154.561 123.693 161.67 123.693C167.503 123.693 172.835 122.417 177.666 119.865C182.542 117.313 187.669 112.915 193.047 106.672V114.67C187.852 120.093 182.428 124.035 176.777 126.496C171.172 128.911 164.609 130.119 157.09 130.119C147.201 130.119 138.405 128.137 130.703 124.172C123.047 120.207 117.122 114.51 112.93 107.082C108.783 99.6536 106.709 91.7467 106.709 83.3613C106.709 74.5202 109.01 66.1348 113.613 58.2051C118.262 50.2754 124.505 44.123 132.344 39.748C140.228 35.373 148.59 33.1855 157.432 33.1855C163.949 33.1855 170.83 34.5983 178.076 37.4238C182.269 39.0645 184.935 39.8848 186.074 39.8848C187.533 39.8848 188.786 39.3607 189.834 38.3125C190.928 37.2188 191.634 35.5098 191.953 33.1855H194.619ZM260.654 70.7832L293.262 111.594C297.865 117.336 301.829 121.232 305.156 123.283C307.572 124.742 310.124 125.471 312.812 125.471V128H264.551V125.471C267.604 125.197 269.564 124.719 270.43 124.035C271.341 123.352 271.797 122.508 271.797 121.506C271.797 119.592 269.701 115.992 265.508 110.705L244.248 83.9766L240.83 86.8477V112.141C240.83 116.971 241.104 119.979 241.65 121.164C242.197 122.349 243.245 123.374 244.795 124.24C246.344 125.061 248.828 125.471 252.246 125.471V128H205.488V125.471H208.564C211.253 125.471 213.418 124.992 215.059 124.035C216.243 123.397 217.155 122.303 217.793 120.754C218.294 119.66 218.545 116.789 218.545 112.141V51.1641C218.545 46.4245 218.294 43.4622 217.793 42.2773C217.292 41.0924 216.266 40.0671 214.717 39.2012C213.213 38.2897 211.162 37.834 208.564 37.834H205.488V35.3047H251.631V37.834C248.486 37.834 246.094 38.2897 244.453 39.2012C243.268 39.8392 242.334 40.9102 241.65 42.4141C241.104 43.5534 240.83 46.4701 240.83 51.1641V80.0117L275.215 52.1895C280 48.3158 282.393 45.2168 282.393 42.8926C282.393 41.1608 281.413 39.7936 279.453 38.791C278.451 38.2897 275.967 37.9707 272.002 37.834V35.3047H308.164V37.834C304.928 38.0618 302.376 38.6543 300.508 39.6113C298.685 40.5228 294.447 43.6673 287.793 49.0449L260.654 70.7832ZM346.172 35.3047L391.904 92.7949V52.9414C391.904 47.3815 391.107 43.6217 389.512 41.6621C387.324 39.0189 383.656 37.7428 378.506 37.834V35.3047H409.131V37.834C405.212 38.3353 402.568 38.9961 401.201 39.8164C399.88 40.5911 398.831 41.89 398.057 43.7129C397.327 45.4902 396.963 48.5664 396.963 52.9414V130.119H394.639L331.953 52.9414V111.867C331.953 117.199 333.161 120.799 335.576 122.668C338.037 124.536 340.84 125.471 343.984 125.471H346.172V128H313.291V125.471C318.395 125.425 321.95 124.377 323.955 122.326C325.96 120.275 326.963 116.789 326.963 111.867V46.4473L324.98 43.9863C323.021 41.5254 321.289 39.9076 319.785 39.1328C318.281 38.3581 316.117 37.9251 313.291 37.834V35.3047H346.172ZM466.553 34.0059C481.318 33.459 493.304 37.7656 502.51 46.9258C511.761 56.0859 516.387 67.5475 516.387 81.3105C516.387 93.0684 512.946 103.413 506.064 112.346C496.95 124.195 484.076 130.119 467.441 130.119C450.762 130.119 437.865 124.468 428.75 113.166C421.549 104.234 417.949 93.638 417.949 81.3789C417.949 67.6159 422.62 56.1543 431.963 46.9941C441.351 37.7884 452.881 33.459 466.553 34.0059ZM467.373 38.3809C458.896 38.3809 452.448 42.7103 448.027 51.3691C444.427 58.4785 442.627 68.6868 442.627 81.9941C442.627 97.8079 445.407 109.497 450.967 117.062C454.84 122.349 460.264 124.992 467.236 124.992C471.93 124.992 475.85 123.853 478.994 121.574C483.005 118.658 486.126 114.009 488.359 107.629C490.592 101.203 491.709 92.8405 491.709 82.541C491.709 70.2819 490.57 61.1217 488.291 55.0605C486.012 48.9538 483.096 44.6471 479.541 42.1406C476.032 39.6341 471.976 38.3809 467.373 38.3809ZM660.215 35.3047V37.834C658.483 37.9707 657.025 38.4492 655.84 39.2695C654.655 40.0898 653.607 41.3431 652.695 43.0293C652.422 43.5762 650.986 47.1081 648.389 53.625L619.336 130.119H616.67L593.701 70.373L568.408 130.119H565.879L535.391 54.4453C532.292 46.8346 530.127 42.2318 528.896 40.6367C527.666 39.0417 525.592 38.1074 522.676 37.834V35.3047H562.871V37.834C559.635 37.9251 557.471 38.4264 556.377 39.3379C555.329 40.2038 554.805 41.2975 554.805 42.6191C554.805 44.3509 555.921 48.0195 558.154 53.625L576.338 98.6055L590.898 63.4688L587.07 53.625C584.974 48.2474 583.356 44.6699 582.217 42.8926C581.077 41.0697 579.756 39.7708 578.252 38.9961C576.794 38.2214 574.629 37.834 571.758 37.834V35.3047H616.67V37.834C613.525 37.8796 611.27 38.1302 609.902 38.5859C608.945 38.9049 608.193 39.4518 607.646 40.2266C607.1 40.9557 606.826 41.7988 606.826 42.7559C606.826 43.804 607.852 47.0169 609.902 52.3945L626.787 96.2812L641.895 56.5645C643.49 52.4629 644.469 49.6602 644.834 48.1562C645.199 46.6523 645.381 45.2624 645.381 43.9863C645.381 42.1178 644.743 40.6595 643.467 39.6113C642.191 38.5176 639.753 37.9251 636.152 37.834V35.3047H660.215Z" fill="black"/>
</svg>
