<svg width="175" height="280" viewBox="0 0 175 280" fill="none" xmlns="http://www.w3.org/2000/svg">
<path d="M174.77 0.984375V6.50781C150.966 12.5573 131.831 20.3822 117.365 29.9824C103.031 39.4512 91.6549 51.0241 83.2383 64.7012C74.9531 78.2467 68.5091 95.0801 63.9062 115.201C69.6927 111.256 74.4928 108.691 78.3066 107.508C86.8548 104.878 95.4688 103.562 104.148 103.562C124.138 103.562 140.774 110.861 154.057 125.459C167.471 139.925 174.178 159.717 174.178 184.836C174.178 202.458 170.561 218.634 163.328 233.363C156.095 248.092 145.837 259.468 132.555 267.49C119.272 275.512 105.069 279.523 89.9453 279.523C73.5065 279.523 58.3171 275.052 44.377 266.109C30.4368 257.035 19.5215 243.818 11.6309 226.459C3.87174 209.1 -0.0078125 190.228 -0.0078125 169.844C-0.0078125 139.859 7.15951 111.979 21.4941 86.2031C35.9603 60.2956 56.4102 39.7142 82.8438 24.459C109.409 9.07227 140.051 1.2474 174.77 0.984375ZM61.3418 131.18C60.2897 149.328 59.7637 162.611 59.7637 171.027C59.7637 189.176 61.4733 206.732 64.8926 223.697C68.4434 240.662 73.2435 252.564 79.293 259.402C83.6328 264.268 88.7617 266.701 94.6797 266.701C100.729 266.701 106.121 263.216 110.855 256.246C115.59 249.145 117.957 234.81 117.957 213.242C117.957 176.945 113.551 151.893 104.74 138.084C99.0853 129.141 91.4577 124.67 81.8574 124.67C76.597 124.67 69.7585 126.84 61.3418 131.18Z" fill="#C92B1D"/>
</svg>
