<svg width="888" height="98" viewBox="0 0 888 98" fill="none" xmlns="http://www.w3.org/2000/svg">
<path d="M86.3887 62.4609L82.9023 95H0.597656V92.4707H3.67383C6.36263 92.4707 8.52734 91.9922 10.168 91.0352C11.3529 90.3971 12.2643 89.3034 12.9023 87.7539C13.4036 86.6602 13.6543 83.7891 13.6543 79.1406V18.1641C13.6543 13.4245 13.4036 10.4622 12.9023 9.27734C12.401 8.09245 11.3757 7.06706 9.82617 6.20117C8.32227 5.28971 6.27148 4.83398 3.67383 4.83398H0.597656V2.30469H50.0215V4.83398H45.9883C43.2995 4.83398 41.1348 5.3125 39.4941 6.26953C38.3092 6.90755 37.375 8.0013 36.6914 9.55078C36.1901 10.6445 35.9395 13.5156 35.9395 18.1641V77.2266C35.9395 81.9661 36.2129 84.9967 36.7598 86.3184C37.3066 87.5944 38.3776 88.5514 39.9727 89.1895C41.112 89.5996 43.8691 89.8047 48.2441 89.8047H55.9688C60.8906 89.8047 64.9922 88.9388 68.2734 87.207C71.5547 85.4753 74.3802 82.7409 76.75 79.0039C79.1654 75.2669 81.444 69.7526 83.5859 62.4609H86.3887ZM129.523 7.63672V45.3711H131.369C137.248 45.3711 141.509 43.5254 144.152 39.834C146.796 36.1426 148.482 30.6966 149.211 23.4961H151.809V72.0312H149.211C148.664 66.7448 147.502 62.4154 145.725 59.043C143.993 55.6706 141.965 53.4147 139.641 52.2754C137.316 51.0905 133.944 50.498 129.523 50.498V76.6113C129.523 81.7155 129.729 84.8372 130.139 85.9766C130.594 87.1159 131.415 88.0501 132.6 88.7793C133.785 89.5085 135.699 89.873 138.342 89.873H143.879C152.538 89.873 159.465 87.8678 164.66 83.8574C169.901 79.847 173.661 73.7402 175.939 65.5371H178.469L174.299 95H94.1816V92.4707H97.2578C99.9466 92.4707 102.111 91.9922 103.752 91.0352C104.937 90.3971 105.848 89.3034 106.486 87.7539C106.988 86.6602 107.238 83.7891 107.238 79.1406V18.1641C107.238 13.9714 107.124 11.3965 106.896 10.4395C106.441 8.8444 105.598 7.61393 104.367 6.74805C102.635 5.47201 100.266 4.83398 97.2578 4.83398H94.1816V2.30469H171.77V29.7168H169.172C167.85 23.0176 165.982 18.2096 163.566 15.293C161.197 12.3763 157.824 10.2344 153.449 8.86719C150.897 8.04688 146.112 7.63672 139.094 7.63672H129.523ZM186.604 95V92.4707H189.68C192.368 92.4707 194.419 92.0605 195.832 91.2402C197.29 90.3743 198.361 89.2122 199.045 87.7539C199.455 86.7969 199.66 83.9258 199.66 79.1406V18.1641C199.66 13.4245 199.41 10.4622 198.908 9.27734C198.407 8.09245 197.382 7.06706 195.832 6.20117C194.328 5.28971 192.277 4.83398 189.68 4.83398H186.604V2.30469H228.098C239.172 2.30469 248.081 3.80859 254.826 6.81641C263.075 10.5078 269.318 16.0905 273.557 23.5645C277.84 31.0384 279.982 39.4922 279.982 48.9258C279.982 55.4427 278.934 61.4583 276.838 66.9727C274.742 72.4414 272.03 76.9759 268.703 80.5762C265.376 84.1309 261.525 87.002 257.15 89.1895C252.821 91.3314 247.512 92.9948 241.223 94.1797C238.443 94.7266 234.068 95 228.098 95H186.604ZM221.945 7.56836V79.8926C221.945 83.7207 222.128 86.0677 222.492 86.9336C222.857 87.7995 223.472 88.4603 224.338 88.916C225.568 89.5996 227.346 89.9414 229.67 89.9414C237.281 89.9414 243.091 87.3438 247.102 82.1484C252.57 75.1302 255.305 64.2383 255.305 49.4727C255.305 37.5781 253.436 28.0762 249.699 20.9668C246.737 15.4069 242.932 11.6243 238.283 9.61914C235.002 8.20638 229.556 7.52279 221.945 7.56836ZM382.521 0.185547V32.8613H379.992C376.939 23.929 372.359 17.1387 366.252 12.4902C360.145 7.8418 353.469 5.51758 346.223 5.51758C339.296 5.51758 333.531 7.47721 328.928 11.3965C324.325 15.2702 321.066 20.6934 319.152 27.666C317.238 34.6387 316.281 41.7936 316.281 49.1309C316.281 58.0176 317.329 65.8105 319.426 72.5098C321.522 79.209 324.895 84.1309 329.543 87.2754C334.237 90.4199 339.797 91.9922 346.223 91.9922C348.456 91.9922 350.734 91.7643 353.059 91.3086C355.428 90.8073 357.844 90.1009 360.305 89.1895V69.9121C360.305 66.2663 360.054 63.9193 359.553 62.8711C359.051 61.7773 358.003 60.7975 356.408 59.9316C354.859 59.0658 352.967 58.6328 350.734 58.6328H348.342V56.1035H393.391V58.6328C389.973 58.8607 387.58 59.3392 386.213 60.0684C384.891 60.752 383.866 61.9141 383.137 63.5547C382.727 64.4206 382.521 66.5397 382.521 69.9121V89.1895C376.597 91.8327 370.422 93.8151 363.996 95.1367C357.616 96.5039 350.985 97.1875 344.104 97.1875C335.308 97.1875 327.993 96.0026 322.16 93.6328C316.372 91.2174 311.245 88.0729 306.779 84.1992C302.359 80.2799 298.895 75.8822 296.389 71.0059C293.199 64.7168 291.604 57.6758 291.604 49.8828C291.604 35.9375 296.503 24.1569 306.301 14.541C316.099 4.92513 328.426 0.117188 343.283 0.117188C347.886 0.117188 352.033 0.481771 355.725 1.21094C357.73 1.57552 360.965 2.6237 365.432 4.35547C369.943 6.04167 372.609 6.88477 373.43 6.88477C374.706 6.88477 375.891 6.42904 376.984 5.51758C378.078 4.56055 379.081 2.7832 379.992 0.185547H382.521ZM461.613 63.418L486.77 2.30469H524.504V4.83398H521.496C518.762 4.83398 516.574 5.3125 514.934 6.26953C513.794 6.90755 512.883 7.97852 512.199 9.48242C511.698 10.5762 511.447 13.4245 511.447 18.0273V79.1406C511.447 83.8802 511.698 86.8424 512.199 88.0273C512.701 89.2122 513.726 90.2604 515.275 91.1719C516.825 92.0378 518.898 92.4707 521.496 92.4707H524.504V95H476.105V92.4707H479.113C481.848 92.4707 484.035 91.9922 485.676 91.0352C486.815 90.3971 487.727 89.3034 488.41 87.7539C488.911 86.6602 489.162 83.7891 489.162 79.1406V10.4395L453.615 95H451.975L415.881 11.0547V76.3379C415.881 80.8952 415.995 83.6979 416.223 84.7461C416.815 87.0247 418.091 88.8932 420.051 90.3516C422.056 91.7643 425.178 92.4707 429.416 92.4707V95H397.697V92.4707H398.654C400.705 92.5163 402.619 92.1973 404.396 91.5137C406.174 90.7845 407.518 89.8275 408.43 88.6426C409.341 87.4577 410.048 85.7943 410.549 83.6523C410.64 83.151 410.686 80.8268 410.686 76.6797V18.0273C410.686 13.3333 410.435 10.4167 409.934 9.27734C409.432 8.09245 408.407 7.06706 406.857 6.20117C405.308 5.28971 403.234 4.83398 400.637 4.83398H397.697V2.30469H435.568L461.613 63.418ZM565.246 7.63672V45.3711H567.092C572.971 45.3711 577.232 43.5254 579.875 39.834C582.518 36.1426 584.204 30.6966 584.934 23.4961H587.531V72.0312H584.934C584.387 66.7448 583.225 62.4154 581.447 59.043C579.715 55.6706 577.688 53.4147 575.363 52.2754C573.039 51.0905 569.667 50.498 565.246 50.498V76.6113C565.246 81.7155 565.451 84.8372 565.861 85.9766C566.317 87.1159 567.137 88.0501 568.322 88.7793C569.507 89.5085 571.421 89.873 574.064 89.873H579.602C588.26 89.873 595.188 87.8678 600.383 83.8574C605.624 79.847 609.383 73.7402 611.662 65.5371H614.191L610.021 95H529.904V92.4707H532.98C535.669 92.4707 537.834 91.9922 539.475 91.0352C540.66 90.3971 541.571 89.3034 542.209 87.7539C542.71 86.6602 542.961 83.7891 542.961 79.1406V18.1641C542.961 13.9714 542.847 11.3965 542.619 10.4395C542.163 8.8444 541.32 7.61393 540.09 6.74805C538.358 5.47201 535.988 4.83398 532.98 4.83398H529.904V2.30469H607.492V29.7168H604.895C603.573 23.0176 601.704 18.2096 599.289 15.293C596.919 12.3763 593.547 10.2344 589.172 8.86719C586.62 8.04688 581.835 7.63672 574.816 7.63672H565.246ZM655.344 2.30469L701.076 59.7949V19.9414C701.076 14.3815 700.279 10.6217 698.684 8.66211C696.496 6.01888 692.827 4.74284 687.678 4.83398V2.30469H718.303V4.83398C714.383 5.33529 711.74 5.99609 710.373 6.81641C709.051 7.59115 708.003 8.88997 707.229 10.7129C706.499 12.4902 706.135 15.5664 706.135 19.9414V97.1191H703.811L641.125 19.9414V78.8672C641.125 84.1992 642.333 87.7995 644.748 89.668C647.209 91.5365 650.012 92.4707 653.156 92.4707H655.344V95H622.463V92.4707C627.567 92.4251 631.122 91.377 633.127 89.3262C635.132 87.2754 636.135 83.7891 636.135 78.8672V13.4473L634.152 10.9863C632.193 8.52539 630.461 6.90755 628.957 6.13281C627.453 5.35807 625.288 4.92513 622.463 4.83398V2.30469H655.344ZM809.973 2.30469V27.3926H807.512C806.053 21.6048 804.436 17.4577 802.658 14.9512C800.881 12.3991 798.443 10.3711 795.344 8.86719C793.612 8.04688 790.581 7.63672 786.252 7.63672H779.348V79.1406C779.348 83.8802 779.598 86.8424 780.1 88.0273C780.646 89.2122 781.672 90.2604 783.176 91.1719C784.725 92.0378 786.822 92.4707 789.465 92.4707H792.541V95H744.006V92.4707H747.082C749.771 92.4707 751.936 91.9922 753.576 91.0352C754.761 90.3971 755.695 89.3034 756.379 87.7539C756.88 86.6602 757.131 83.7891 757.131 79.1406V7.63672H750.432C744.188 7.63672 739.654 8.95833 736.828 11.6016C732.863 15.293 730.357 20.5566 729.309 27.3926H726.711V2.30469H809.973ZM880.793 0.185547L881.545 31.084H878.742C877.421 23.3366 874.162 17.1159 868.967 12.4219C863.817 7.68229 858.234 5.3125 852.219 5.3125C847.57 5.3125 843.879 6.56576 841.145 9.07227C838.456 11.5332 837.111 14.3815 837.111 17.6172C837.111 19.668 837.59 21.4909 838.547 23.0859C839.868 25.2279 841.988 27.347 844.904 29.4434C847.046 30.9473 851.991 33.6133 859.738 37.4414C870.585 42.7734 877.899 47.8092 881.682 52.5488C885.419 57.2884 887.287 62.7116 887.287 68.8184C887.287 76.5658 884.257 83.2422 878.195 88.8477C872.18 94.4076 864.523 97.1875 855.227 97.1875C852.31 97.1875 849.553 96.8913 846.955 96.2988C844.357 95.7064 841.099 94.5898 837.18 92.9492C834.992 92.0378 833.192 91.582 831.779 91.582C830.594 91.582 829.341 92.0378 828.02 92.9492C826.698 93.8607 825.627 95.2507 824.807 97.1191H822.277V62.1191H824.807C826.812 71.9629 830.663 79.4824 836.359 84.6777C842.102 89.8275 848.277 92.4023 854.885 92.4023C859.989 92.4023 864.045 91.0124 867.053 88.2324C870.106 85.4525 871.633 82.2168 871.633 78.5254C871.633 76.3379 871.04 74.2188 869.855 72.168C868.716 70.1172 866.962 68.1803 864.592 66.3574C862.222 64.4889 858.029 62.0736 852.014 59.1113C843.583 54.9642 837.521 51.4323 833.83 48.5156C830.139 45.599 827.29 42.3405 825.285 38.7402C823.326 35.14 822.346 31.1751 822.346 26.8457C822.346 19.4629 825.057 13.1738 830.48 7.97852C835.904 2.7832 842.74 0.185547 850.988 0.185547C853.996 0.185547 856.913 0.55013 859.738 1.2793C861.88 1.82617 864.478 2.85156 867.531 4.35547C870.63 5.8138 872.795 6.54297 874.025 6.54297C875.21 6.54297 876.145 6.17839 876.828 5.44922C877.512 4.72005 878.15 2.96549 878.742 0.185547H880.793Z" fill="black"/>
</svg>
