<svg width="895" height="383" viewBox="0 0 895 383" fill="none" xmlns="http://www.w3.org/2000/svg">
<path d="M813.77 95.9844V101.508C789.966 107.557 770.831 115.382 756.365 124.982C742.031 134.451 730.655 146.024 722.238 159.701C713.953 173.247 707.509 190.08 702.906 210.201C708.693 206.256 713.493 203.691 717.307 202.508C725.855 199.878 734.469 198.562 743.148 198.562C763.138 198.562 779.774 205.861 793.057 220.459C806.471 234.925 813.178 254.717 813.178 279.836C813.178 297.458 809.561 313.634 802.328 328.363C795.095 343.092 784.837 354.468 771.555 362.49C758.272 370.512 744.069 374.523 728.945 374.523C712.507 374.523 697.317 370.052 683.377 361.109C669.437 352.035 658.521 338.818 650.631 321.459C642.872 304.1 638.992 285.228 638.992 264.844C638.992 234.859 646.16 206.979 660.494 181.203C674.96 155.296 695.41 134.714 721.844 119.459C748.409 104.072 779.051 96.2474 813.77 95.9844ZM700.342 226.18C699.29 244.328 698.764 257.611 698.764 266.027C698.764 284.176 700.473 301.732 703.893 318.697C707.443 335.662 712.243 347.564 718.293 354.402C722.633 359.268 727.762 361.701 733.68 361.701C739.729 361.701 745.121 358.216 749.855 351.246C754.59 344.145 756.957 329.81 756.957 308.242C756.957 271.945 752.551 246.893 743.74 233.084C738.085 224.141 730.458 219.67 720.857 219.67C715.597 219.67 708.758 221.84 700.342 226.18Z" fill="#C92B1D"/>
<path d="M88.3887 299.461L84.9023 332H2.59766V329.471H5.67383C8.36263 329.471 10.5273 328.992 12.168 328.035C13.3529 327.397 14.2643 326.303 14.9023 324.754C15.4036 323.66 15.6543 320.789 15.6543 316.141V255.164C15.6543 250.424 15.4036 247.462 14.9023 246.277C14.401 245.092 13.3757 244.067 11.8262 243.201C10.3223 242.29 8.27148 241.834 5.67383 241.834H2.59766V239.305H52.0215V241.834H47.9883C45.2995 241.834 43.1348 242.312 41.4941 243.27C40.3092 243.908 39.375 245.001 38.6914 246.551C38.1901 247.645 37.9395 250.516 37.9395 255.164V314.227C37.9395 318.966 38.2129 321.997 38.7598 323.318C39.3066 324.594 40.3776 325.551 41.9727 326.189C43.112 326.6 45.8691 326.805 50.2441 326.805H57.9688C62.8906 326.805 66.9922 325.939 70.2734 324.207C73.5547 322.475 76.3802 319.741 78.75 316.004C81.1654 312.267 83.444 306.753 85.5859 299.461H88.3887ZM131.523 244.637V282.371H133.369C139.248 282.371 143.509 280.525 146.152 276.834C148.796 273.143 150.482 267.697 151.211 260.496H153.809V309.031H151.211C150.664 303.745 149.502 299.415 147.725 296.043C145.993 292.671 143.965 290.415 141.641 289.275C139.316 288.09 135.944 287.498 131.523 287.498V313.611C131.523 318.715 131.729 321.837 132.139 322.977C132.594 324.116 133.415 325.05 134.6 325.779C135.785 326.508 137.699 326.873 140.342 326.873H145.879C154.538 326.873 161.465 324.868 166.66 320.857C171.901 316.847 175.661 310.74 177.939 302.537H180.469L176.299 332H96.1816V329.471H99.2578C101.947 329.471 104.111 328.992 105.752 328.035C106.937 327.397 107.848 326.303 108.486 324.754C108.988 323.66 109.238 320.789 109.238 316.141V255.164C109.238 250.971 109.124 248.396 108.896 247.439C108.441 245.844 107.598 244.614 106.367 243.748C104.635 242.472 102.266 241.834 99.2578 241.834H96.1816V239.305H173.77V266.717H171.172C169.85 260.018 167.982 255.21 165.566 252.293C163.197 249.376 159.824 247.234 155.449 245.867C152.897 245.047 148.112 244.637 141.094 244.637H131.523ZM188.604 332V329.471H191.68C194.368 329.471 196.419 329.061 197.832 328.24C199.29 327.374 200.361 326.212 201.045 324.754C201.455 323.797 201.66 320.926 201.66 316.141V255.164C201.66 250.424 201.41 247.462 200.908 246.277C200.407 245.092 199.382 244.067 197.832 243.201C196.328 242.29 194.277 241.834 191.68 241.834H188.604V239.305H230.098C241.172 239.305 250.081 240.809 256.826 243.816C265.075 247.508 271.318 253.09 275.557 260.564C279.84 268.038 281.982 276.492 281.982 285.926C281.982 292.443 280.934 298.458 278.838 303.973C276.742 309.441 274.03 313.976 270.703 317.576C267.376 321.131 263.525 324.002 259.15 326.189C254.821 328.331 249.512 329.995 243.223 331.18C240.443 331.727 236.068 332 230.098 332H188.604ZM223.945 244.568V316.893C223.945 320.721 224.128 323.068 224.492 323.934C224.857 324.799 225.472 325.46 226.338 325.916C227.568 326.6 229.346 326.941 231.67 326.941C239.281 326.941 245.091 324.344 249.102 319.148C254.57 312.13 257.305 301.238 257.305 286.473C257.305 274.578 255.436 265.076 251.699 257.967C248.737 252.407 244.932 248.624 240.283 246.619C237.002 245.206 231.556 244.523 223.945 244.568ZM384.521 237.186V269.861H381.992C378.939 260.929 374.359 254.139 368.252 249.49C362.145 244.842 355.469 242.518 348.223 242.518C341.296 242.518 335.531 244.477 330.928 248.396C326.325 252.27 323.066 257.693 321.152 264.666C319.238 271.639 318.281 278.794 318.281 286.131C318.281 295.018 319.329 302.811 321.426 309.51C323.522 316.209 326.895 321.131 331.543 324.275C336.237 327.42 341.797 328.992 348.223 328.992C350.456 328.992 352.734 328.764 355.059 328.309C357.428 327.807 359.844 327.101 362.305 326.189V306.912C362.305 303.266 362.054 300.919 361.553 299.871C361.051 298.777 360.003 297.798 358.408 296.932C356.859 296.066 354.967 295.633 352.734 295.633H350.342V293.104H395.391V295.633C391.973 295.861 389.58 296.339 388.213 297.068C386.891 297.752 385.866 298.914 385.137 300.555C384.727 301.421 384.521 303.54 384.521 306.912V326.189C378.597 328.833 372.422 330.815 365.996 332.137C359.616 333.504 352.985 334.188 346.104 334.188C337.308 334.188 329.993 333.003 324.16 330.633C318.372 328.217 313.245 325.073 308.779 321.199C304.359 317.28 300.895 312.882 298.389 308.006C295.199 301.717 293.604 294.676 293.604 286.883C293.604 272.938 298.503 261.157 308.301 251.541C318.099 241.925 330.426 237.117 345.283 237.117C349.886 237.117 354.033 237.482 357.725 238.211C359.73 238.576 362.965 239.624 367.432 241.355C371.943 243.042 374.609 243.885 375.43 243.885C376.706 243.885 377.891 243.429 378.984 242.518C380.078 241.561 381.081 239.783 381.992 237.186H384.521ZM463.613 300.418L488.77 239.305H526.504V241.834H523.496C520.762 241.834 518.574 242.312 516.934 243.27C515.794 243.908 514.883 244.979 514.199 246.482C513.698 247.576 513.447 250.424 513.447 255.027V316.141C513.447 320.88 513.698 323.842 514.199 325.027C514.701 326.212 515.726 327.26 517.275 328.172C518.825 329.038 520.898 329.471 523.496 329.471H526.504V332H478.105V329.471H481.113C483.848 329.471 486.035 328.992 487.676 328.035C488.815 327.397 489.727 326.303 490.41 324.754C490.911 323.66 491.162 320.789 491.162 316.141V247.439L455.615 332H453.975L417.881 248.055V313.338C417.881 317.895 417.995 320.698 418.223 321.746C418.815 324.025 420.091 325.893 422.051 327.352C424.056 328.764 427.178 329.471 431.416 329.471V332H399.697V329.471H400.654C402.705 329.516 404.619 329.197 406.396 328.514C408.174 327.785 409.518 326.827 410.43 325.643C411.341 324.458 412.048 322.794 412.549 320.652C412.64 320.151 412.686 317.827 412.686 313.68V255.027C412.686 250.333 412.435 247.417 411.934 246.277C411.432 245.092 410.407 244.067 408.857 243.201C407.308 242.29 405.234 241.834 402.637 241.834H399.697V239.305H437.568L463.613 300.418ZM567.246 244.637V282.371H569.092C574.971 282.371 579.232 280.525 581.875 276.834C584.518 273.143 586.204 267.697 586.934 260.496H589.531V309.031H586.934C586.387 303.745 585.225 299.415 583.447 296.043C581.715 292.671 579.688 290.415 577.363 289.275C575.039 288.09 571.667 287.498 567.246 287.498V313.611C567.246 318.715 567.451 321.837 567.861 322.977C568.317 324.116 569.137 325.05 570.322 325.779C571.507 326.508 573.421 326.873 576.064 326.873H581.602C590.26 326.873 597.188 324.868 602.383 320.857C607.624 316.847 611.383 310.74 613.662 302.537H616.191L612.021 332H531.904V329.471H534.98C537.669 329.471 539.834 328.992 541.475 328.035C542.66 327.397 543.571 326.303 544.209 324.754C544.71 323.66 544.961 320.789 544.961 316.141V255.164C544.961 250.971 544.847 248.396 544.619 247.439C544.163 245.844 543.32 244.614 542.09 243.748C540.358 242.472 537.988 241.834 534.98 241.834H531.904V239.305H609.492V266.717H606.895C605.573 260.018 603.704 255.21 601.289 252.293C598.919 249.376 595.547 247.234 591.172 245.867C588.62 245.047 583.835 244.637 576.816 244.637H567.246ZM657.344 239.305L703.076 296.795V256.941C703.076 251.382 702.279 247.622 700.684 245.662C698.496 243.019 694.827 241.743 689.678 241.834V239.305H720.303V241.834C716.383 242.335 713.74 242.996 712.373 243.816C711.051 244.591 710.003 245.89 709.229 247.713C708.499 249.49 708.135 252.566 708.135 256.941V334.119H705.811L643.125 256.941V315.867C643.125 321.199 644.333 324.799 646.748 326.668C649.209 328.536 652.012 329.471 655.156 329.471H657.344V332H624.463V329.471C629.567 329.425 633.122 328.377 635.127 326.326C637.132 324.275 638.135 320.789 638.135 315.867V250.447L636.152 247.986C634.193 245.525 632.461 243.908 630.957 243.133C629.453 242.358 627.288 241.925 624.463 241.834V239.305H657.344ZM811.973 239.305V264.393H809.512C808.053 258.605 806.436 254.458 804.658 251.951C802.881 249.399 800.443 247.371 797.344 245.867C795.612 245.047 792.581 244.637 788.252 244.637H781.348V316.141C781.348 320.88 781.598 323.842 782.1 325.027C782.646 326.212 783.672 327.26 785.176 328.172C786.725 329.038 788.822 329.471 791.465 329.471H794.541V332H746.006V329.471H749.082C751.771 329.471 753.936 328.992 755.576 328.035C756.761 327.397 757.695 326.303 758.379 324.754C758.88 323.66 759.131 320.789 759.131 316.141V244.637H752.432C746.188 244.637 741.654 245.958 738.828 248.602C734.863 252.293 732.357 257.557 731.309 264.393H728.711V239.305H811.973ZM882.793 237.186L883.545 268.084H880.742C879.421 260.337 876.162 254.116 870.967 249.422C865.817 244.682 860.234 242.312 854.219 242.312C849.57 242.312 845.879 243.566 843.145 246.072C840.456 248.533 839.111 251.382 839.111 254.617C839.111 256.668 839.59 258.491 840.547 260.086C841.868 262.228 843.988 264.347 846.904 266.443C849.046 267.947 853.991 270.613 861.738 274.441C872.585 279.773 879.899 284.809 883.682 289.549C887.419 294.288 889.287 299.712 889.287 305.818C889.287 313.566 886.257 320.242 880.195 325.848C874.18 331.408 866.523 334.188 857.227 334.188C854.31 334.188 851.553 333.891 848.955 333.299C846.357 332.706 843.099 331.59 839.18 329.949C836.992 329.038 835.192 328.582 833.779 328.582C832.594 328.582 831.341 329.038 830.02 329.949C828.698 330.861 827.627 332.251 826.807 334.119H824.277V299.119H826.807C828.812 308.963 832.663 316.482 838.359 321.678C844.102 326.827 850.277 329.402 856.885 329.402C861.989 329.402 866.045 328.012 869.053 325.232C872.106 322.452 873.633 319.217 873.633 315.525C873.633 313.338 873.04 311.219 871.855 309.168C870.716 307.117 868.962 305.18 866.592 303.357C864.222 301.489 860.029 299.074 854.014 296.111C845.583 291.964 839.521 288.432 835.83 285.516C832.139 282.599 829.29 279.34 827.285 275.74C825.326 272.14 824.346 268.175 824.346 263.846C824.346 256.463 827.057 250.174 832.48 244.979C837.904 239.783 844.74 237.186 852.988 237.186C855.996 237.186 858.913 237.55 861.738 238.279C863.88 238.826 866.478 239.852 869.531 241.355C872.63 242.814 874.795 243.543 876.025 243.543C877.21 243.543 878.145 243.178 878.828 242.449C879.512 241.72 880.15 239.965 880.742 237.186H882.793Z" fill="black"/>
<rect y="234" width="391" height="23" fill="white"/>
</svg>
