<svg width="259" height="365" viewBox="0 0 259 365" fill="none" xmlns="http://www.w3.org/2000/svg">
<path d="M252.565 172.749C248.274 157.889 242.085 146.069 234.018 137.287C225.952 128.506 216.366 122.249 205.26 118.473C194.155 114.719 181.798 112.842 168.19 112.842C153.152 112.842 139.79 115.523 128.148 120.908C116.506 126.294 108.529 133.623 104.239 142.94H103.167V82.207C103.167 70.029 105.937 60.9793 111.501 55.0802C117.043 49.1588 123.411 46.2093 130.584 46.2093C139.902 46.2093 146.516 48.7119 150.471 53.7395C155.118 59.4822 157.643 68.7777 158.001 81.6707H251.514C251.514 69.1352 249.816 56.9572 246.42 45.1367C245.816 43.081 245.124 41.07 244.364 39.1036H221.394V26.0542H103.032V0H55.84C44.1089 6.77051 34.4782 15.485 26.948 26.1659V39.2824H19.1943C12.0663 53.4491 7.19507 70.1631 4.6254 89.4914C1.51945 112.216 0 138.293 0 167.654V210.109C0 241.28 2.77077 267.156 8.33466 287.758C13.8762 308.36 22.1215 324.828 33.0481 337.207C43.9748 349.564 57.6722 358.167 74.1628 362.993C76.1068 363.574 78.0955 364.088 80.1065 364.602H115.456V331.576H194.848V253.213H258.017C258.642 245.347 259 237.102 259 228.387C259 206.177 256.855 187.63 252.542 172.771L252.565 172.749ZM152.08 296.607C147.409 305.209 140.438 309.5 131.12 309.5C120.73 309.5 113.468 305.209 109.356 296.607C105.245 288.004 103.167 271.535 103.167 247.157C103.167 222.779 105.49 206.311 110.16 197.708C114.808 189.105 121.802 184.815 131.12 184.815C141.51 184.815 148.75 189.105 152.884 197.708C156.995 206.311 159.074 222.779 159.074 247.157C159.074 271.535 156.75 288.004 152.08 296.607Z" fill="white"/>
</svg>
