<svg width="261" height="361" viewBox="0 0 261 361" fill="none" xmlns="http://www.w3.org/2000/svg">
<path d="M222.316 149.878C234.178 124.08 247.065 100.26 261 78.4167V35.4924H235.369V23.6536H127.892V0H58.8125V35.6591H0V85.7772H161.002C144.423 108.383 129.75 132.203 116.934 157.238C104.119 182.297 93.1139 207.881 83.8954 234.059C74.6531 260.238 67.0306 286.702 61.0278 313.429C57.4071 329.46 54.4058 345.3 52.0237 360.927H86.206V331.056H139.254V301.066H170.625C176.057 277.246 182.726 253.497 190.682 229.819C199.901 202.33 210.453 175.675 222.316 149.878Z" fill="white"/>
</svg>
