<svg width="258" height="360" viewBox="0 0 258 360" fill="none" xmlns="http://www.w3.org/2000/svg">
<path d="M230.671 36.9083H132.84V0.155029H90.9263C84.4817 1.31796 78.4491 2.77161 72.8282 4.58869C71.0839 5.14592 69.4121 5.75161 67.7404 6.3573V25.2791H35.0331C35.0331 25.2791 34.8636 25.4244 34.7909 25.4971C33.4584 26.7085 32.1743 27.9683 30.9629 29.2282V73.5163H18.8006V147.096C22.992 153.516 28.4917 159.137 35.3481 163.982C42.6648 169.167 51.8713 173.019 62.9434 175.515V176.581C41.8653 179.439 26.0447 188.912 15.5299 204.975C6.37187 218.93 1.21138 235.575 0 254.909H31.1325V316.18H55.6266V359.354H181.877V334.69H243.488C245.571 330.814 247.485 326.719 249.157 322.334C255.044 306.974 258 287.495 258 263.921C258 253.213 256.837 243.013 254.511 233.37C252.185 223.728 248.527 215.054 243.536 207.374C238.521 199.694 232.004 193.177 223.984 187.822C215.941 182.468 206.201 178.713 194.79 176.581V175.515C206.226 173.019 215.505 169.167 222.652 163.982C229.799 158.798 235.517 152.741 239.805 145.763C244.093 138.786 247.049 131.299 248.648 123.256C250.247 115.212 251.071 107.096 251.071 98.8826C251.071 98.6646 251.071 98.4465 251.071 98.2042H230.768V36.9083H230.671ZM150.526 221.087C155.711 228.597 158.303 243.425 158.303 265.569C158.303 287.713 155.711 303.073 150.526 310.584C145.342 318.094 138.097 321.849 128.818 321.849C119.539 321.849 112.295 318.094 107.11 310.584C101.926 303.073 99.3333 288.076 99.3333 265.569C99.3333 243.061 101.926 228.597 107.11 221.087C112.295 213.576 119.515 209.845 128.818 209.845C138.122 209.845 145.342 213.6 150.526 221.087ZM154.548 104.794C154.548 123.377 152.053 135.709 147.037 141.766C142.022 147.847 135.965 150.875 128.818 150.875C125.233 150.875 121.938 150.245 118.909 149.01C115.881 147.774 113.191 145.448 110.866 142.032C108.54 138.64 106.674 133.916 105.245 127.835C103.815 121.753 103.113 114.073 103.113 104.794C103.113 95.515 103.815 87.9075 105.245 82.0202C106.674 76.1329 108.54 71.4812 110.866 68.0893C113.191 64.6974 115.857 62.3716 118.909 61.1117C121.938 59.8519 125.257 59.2462 128.818 59.2462C132.38 59.2462 135.699 59.8761 138.727 61.1117C141.756 62.3716 144.445 64.6974 146.771 68.0893C149.097 71.4812 150.962 76.1329 152.392 82.0202C153.821 87.9075 154.548 95.515 154.548 104.794Z" fill="white"/>
</svg>
