<?xml version="1.0" encoding="UTF-8"?>
<svg id="Layer_2" data-name="Layer 2" xmlns="http://www.w3.org/2000/svg" viewBox="0 0 222.5 321.11">
  <defs>
    <style>
      .cls-1 {
        fill: #fff;
      }
    </style>
  </defs>
  <g id="Layer_1-2" data-name="Layer 1">
    <path class="cls-1" d="m127.8,135.95c-4,7.5-10,11.25-18,11.25-8.92,0-15.15-3.75-18.69-11.25-3.53-7.5-5.31-21.88-5.31-43.12s1.99-35.62,5.99-43.12c4-7.5,10-11.25,18-11.25,8.92,0,15.15,3.75,18.69,11.25,3.53,7.5,5.31,21.88,5.31,43.12s-2.01,35.62-5.99,43.12m94.61,26.24v-36.56c0-27.19-2.38-49.85-7.15-67.97-3.81-14.48-9.12-26.64-15.88-36.54h-49.42V0h-60.77v31.85h-52.47v21.3H6.78C2.26,68.69,0,87.35,0,109.23c0,19.38,1.86,35.54,5.55,48.52.51,1.79,1.05,3.53,1.64,5.22h13.71v25.03c.2.22.39.48.59.69,6.91,7.66,15.15,13.13,24.68,16.4,9.53,3.27,20.15,4.92,31.85,4.92,12.93,0,24.39-2.34,34.39-7.04,10-4.68,16.85-10.93,20.54-18.74h.92v52.98c0,10.31-2.38,18.05-7.15,23.21-4.76,5.16-10.23,7.74-16.38,7.74-8.01,0-13.69-2.18-17.07-6.57-4-5-6.15-13.13-6.46-24.38H20.91v52.38c.23.34.49.65.74.97h30.83v22.02c1.78.69,3.59,1.35,5.49,1.96,13.38,4.36,30.7,6.57,51.92,6.57,1.17,0,2.3,0,3.46-.04v-25.27h46.67v-26.8h48.45c4.82-11.19,8.2-24.04,10.11-38.62,2.62-19.84,3.93-42.59,3.93-68.21l-.1.02Z"/>
  </g>
</svg>