<svg width="729" height="407" viewBox="0 0 729 407" fill="none" xmlns="http://www.w3.org/2000/svg">
<path d="M0 0V201.671H56.3746V88.1557H104.867V201.695H146.399V0H0ZM104.891 72.9659H56.3866V24.4617H104.891V72.9659Z" fill="black"/>
<path d="M160.594 96.038H200.785V240.676H301.531V266.396H160.594V96.038Z" fill="black"/>
<path d="M518.14 126.777H405.451H327.586H214.885V188.123H327.586V317.32H405.451V188.123H518.14V126.777Z" fill="black"/>
<path d="M663.473 202.87H420.844V406.578H451.619V306.395H663.473V406.59H729V202.87H663.473ZM501.393 268.289H455.441V222.324H501.393V268.289Z" fill="black"/>
<path d="M0 0V201.671H56.3746V88.1557H104.867V201.695H146.399V0H0ZM104.891 72.9659H56.3866V24.4617H104.891V72.9659Z" fill="black"/>
<path d="M160.594 96.038H200.785V240.676H301.531V266.396H160.594V96.038Z" fill="black"/>
<path d="M518.14 126.777H405.451H327.586H214.885V188.123H327.586V317.32H405.451V188.123H518.14V126.777Z" fill="black"/>
<path d="M663.473 202.87H420.844V406.578H451.619V306.395H663.473V406.59H729V202.87H663.473ZM501.393 268.289H455.441V222.324H501.393V268.289Z" fill="black"/>
</svg>
