<?xml version="1.0" encoding="UTF-8"?>
<svg id="Layer_2" data-name="Layer 2" xmlns="http://www.w3.org/2000/svg" xmlns:xlink="http://www.w3.org/1999/xlink" viewBox="0 0 1112.37 863.15">
  <defs>
    <style>
      .cls-1 {
        clip-path: url(#clippath-45);
      }

      .cls-2 {
        clip-path: url(#clippath-20);
      }

      .cls-3 {
        clip-path: url(#clippath-11);
      }

      .cls-4 {
        clip-path: url(#clippath-16);
      }

      .cls-5 {
        clip-path: url(#clippath-33);
      }

      .cls-6 {
        clip-path: url(#clippath-47);
      }

      .cls-7 {
        clip-path: url(#clippath-41);
      }

      .cls-8 {
        clip-path: url(#clippath-32);
      }

      .cls-9 {
        clip-path: url(#clippath-2);
      }

      .cls-10 {
        clip-path: url(#clippath-13);
      }

      .cls-11 {
        clip-path: url(#clippath-37);
      }

      .cls-12 {
        clip-path: url(#clippath-46);
      }

      .cls-13 {
        clip-path: url(#clippath-25);
      }

      .cls-14 {
        clip-path: url(#clippath-15);
      }

      .cls-15 {
        clip-path: url(#clippath-6);
      }

      .cls-16 {
        clip-path: url(#clippath-40);
      }

      .cls-17 {
        clip-path: url(#clippath-26);
      }

      .cls-18 {
        clip-path: url(#clippath-7);
      }

      .cls-19 {
        clip-path: url(#clippath-21);
      }

      .cls-20 {
        clip-path: url(#clippath-34);
      }

      .cls-21 {
        clip-path: url(#clippath-1);
      }

      .cls-22 {
        clip-path: url(#clippath-4);
      }

      .cls-23 {
        clip-path: url(#clippath-38);
      }

      .cls-24 {
        clip-path: url(#clippath-36);
      }

      .cls-25 {
        clip-path: url(#clippath-27);
      }

      .cls-26 {
        clip-path: url(#clippath-44);
      }

      .cls-27 {
        clip-path: url(#clippath-12);
      }

      .cls-28 {
        clip-path: url(#clippath-24);
      }

      .cls-29 {
        clip-path: url(#clippath-30);
      }

      .cls-30 {
        clip-path: url(#clippath-22);
      }

      .cls-31 {
        clip-path: url(#clippath-9);
      }

      .cls-32 {
        clip-path: url(#clippath-52);
      }

      .cls-33 {
        clip-path: url(#clippath-50);
      }

      .cls-34 {
        clip-path: url(#clippath-48);
      }

      .cls-35 {
        clip-path: url(#clippath-39);
      }

      .cls-36, .cls-37 {
        fill: none;
      }

      .cls-38 {
        clip-path: url(#clippath-19);
      }

      .cls-39 {
        clip-path: url(#clippath-31);
      }

      .cls-40 {
        clip-path: url(#clippath-54);
      }

      .cls-41 {
        clip-path: url(#clippath-3);
      }

      .cls-42 {
        clip-path: url(#clippath-43);
      }

      .cls-43 {
        clip-path: url(#clippath-8);
      }

      .cls-44 {
        clip-path: url(#clippath-55);
      }

      .cls-45 {
        clip-path: url(#clippath-29);
      }

      .cls-46 {
        clip-path: url(#clippath-18);
      }

      .cls-47 {
        clip-path: url(#clippath-14);
      }

      .cls-48 {
        clip-path: url(#clippath-17);
      }

      .cls-49 {
        clip-path: url(#clippath-5);
      }

      .cls-50 {
        clip-path: url(#clippath-42);
      }

      .cls-51 {
        clip-path: url(#clippath-10);
      }

      .cls-52 {
        clip-path: url(#clippath-23);
      }

      .cls-53 {
        clip-path: url(#clippath-53);
      }

      .cls-54 {
        clip-path: url(#clippath-49);
      }

      .cls-55 {
        fill: #231f20;
      }

      .cls-56 {
        clip-path: url(#clippath-51);
      }

      .cls-57 {
        clip-path: url(#clippath-28);
      }

      .cls-37 {
        stroke: #000;
        stroke-miterlimit: 10;
        stroke-width: .5px;
      }

      .cls-58 {
        clip-path: url(#clippath-35);
      }
    </style>
    <clipPath id="clippath-1">
      <rect class="cls-36" x="29.27" width="1081.42" height="863.15"/>
    </clipPath>
    <clipPath id="clippath-2">
      <rect class="cls-36" x="29.27" width="1081.42" height="863.15"/>
    </clipPath>
    <clipPath id="clippath-3">
      <rect class="cls-36" x="29.27" width="1081.42" height="863.15"/>
    </clipPath>
    <clipPath id="clippath-4">
      <rect class="cls-36" x="29.27" width="1081.42" height="863.15"/>
    </clipPath>
    <clipPath id="clippath-5">
      <rect class="cls-36" x="29.27" width="1081.42" height="863.15"/>
    </clipPath>
    <clipPath id="clippath-6">
      <rect class="cls-36" x="29.27" width="1081.42" height="863.15"/>
    </clipPath>
    <clipPath id="clippath-7">
      <rect class="cls-36" x="29.27" width="1081.42" height="863.15"/>
    </clipPath>
    <clipPath id="clippath-8">
      <rect class="cls-36" x="29.27" width="1081.42" height="863.15"/>
    </clipPath>
    <clipPath id="clippath-9">
      <rect class="cls-36" x="29.27" width="1081.42" height="863.15"/>
    </clipPath>
    <clipPath id="clippath-10">
      <rect class="cls-36" x="29.27" width="1081.42" height="863.15"/>
    </clipPath>
    <clipPath id="clippath-11">
      <rect class="cls-36" x="29.27" width="1081.42" height="863.15"/>
    </clipPath>
    <clipPath id="clippath-12">
      <rect class="cls-36" x="29.27" width="1081.42" height="863.15"/>
    </clipPath>
    <clipPath id="clippath-13">
      <rect class="cls-36" x="29.27" width="1081.42" height="863.15"/>
    </clipPath>
    <clipPath id="clippath-14">
      <rect class="cls-36" x="29.27" width="1081.42" height="863.15"/>
    </clipPath>
    <clipPath id="clippath-15">
      <rect class="cls-36" x="29.27" width="1081.42" height="863.15"/>
    </clipPath>
    <clipPath id="clippath-16">
      <rect class="cls-36" x="29.27" width="1081.42" height="863.15"/>
    </clipPath>
    <clipPath id="clippath-17">
      <rect class="cls-36" x="29.27" width="1081.42" height="863.15"/>
    </clipPath>
    <clipPath id="clippath-18">
      <rect class="cls-36" x="29.27" width="1081.42" height="863.15"/>
    </clipPath>
    <clipPath id="clippath-19">
      <rect class="cls-36" x="29.27" width="1081.42" height="863.15"/>
    </clipPath>
    <clipPath id="clippath-20">
      <rect class="cls-36" x="29.27" width="1081.42" height="863.15"/>
    </clipPath>
    <clipPath id="clippath-21">
      <rect class="cls-36" x="29.27" width="1081.42" height="863.15"/>
    </clipPath>
    <clipPath id="clippath-22">
      <rect class="cls-36" x="29.27" width="1081.42" height="863.15"/>
    </clipPath>
    <clipPath id="clippath-23">
      <rect class="cls-36" x="29.27" width="1081.42" height="863.15"/>
    </clipPath>
    <clipPath id="clippath-24">
      <rect class="cls-36" x="29.27" width="1081.42" height="863.15"/>
    </clipPath>
    <clipPath id="clippath-25">
      <rect class="cls-36" x="29.27" width="1081.42" height="863.15"/>
    </clipPath>
    <clipPath id="clippath-26">
      <rect class="cls-36" x="29.27" width="1081.42" height="863.15"/>
    </clipPath>
    <clipPath id="clippath-27">
      <rect class="cls-36" x="29.27" width="1081.42" height="863.15"/>
    </clipPath>
    <clipPath id="clippath-28">
      <rect class="cls-36" x="29.27" width="1081.42" height="863.15"/>
    </clipPath>
    <clipPath id="clippath-29">
      <rect class="cls-36" x="29.27" width="1081.42" height="863.15"/>
    </clipPath>
    <clipPath id="clippath-30">
      <rect class="cls-36" x="29.27" width="1081.42" height="863.15"/>
    </clipPath>
    <clipPath id="clippath-31">
      <rect class="cls-36" x="29.27" width="1081.42" height="863.15"/>
    </clipPath>
    <clipPath id="clippath-32">
      <rect class="cls-36" x="29.27" width="1081.42" height="863.15"/>
    </clipPath>
    <clipPath id="clippath-33">
      <rect class="cls-36" x="29.27" width="1081.42" height="863.15"/>
    </clipPath>
    <clipPath id="clippath-34">
      <rect class="cls-36" x="29.27" width="1081.42" height="863.15"/>
    </clipPath>
    <clipPath id="clippath-35">
      <rect class="cls-36" x="29.27" width="1081.42" height="863.15"/>
    </clipPath>
    <clipPath id="clippath-36">
      <rect class="cls-36" x="29.27" width="1081.42" height="863.15"/>
    </clipPath>
    <clipPath id="clippath-37">
      <rect class="cls-36" x="29.27" width="1081.42" height="863.15"/>
    </clipPath>
    <clipPath id="clippath-38">
      <rect class="cls-36" x="29.27" width="1081.42" height="863.15"/>
    </clipPath>
    <clipPath id="clippath-39">
      <rect class="cls-36" x="29.27" width="1081.42" height="863.15"/>
    </clipPath>
    <clipPath id="clippath-40">
      <rect class="cls-36" x="29.27" width="1081.42" height="863.15"/>
    </clipPath>
    <clipPath id="clippath-41">
      <rect class="cls-36" x="29.27" width="1081.42" height="863.15"/>
    </clipPath>
    <clipPath id="clippath-42">
      <rect class="cls-36" x="29.27" width="1081.42" height="863.15"/>
    </clipPath>
    <clipPath id="clippath-43">
      <rect class="cls-36" x="29.27" width="1081.42" height="863.15"/>
    </clipPath>
    <clipPath id="clippath-44">
      <rect class="cls-36" x="29.27" width="1081.42" height="863.15"/>
    </clipPath>
    <clipPath id="clippath-45">
      <rect class="cls-36" x="29.27" width="1081.42" height="863.15"/>
    </clipPath>
    <clipPath id="clippath-46">
      <rect class="cls-36" x="29.27" width="1081.42" height="863.15"/>
    </clipPath>
    <clipPath id="clippath-47">
      <rect class="cls-36" x="29.27" width="1081.42" height="863.15"/>
    </clipPath>
    <clipPath id="clippath-48">
      <rect class="cls-36" x="29.27" width="1081.42" height="863.15"/>
    </clipPath>
    <clipPath id="clippath-49">
      <rect class="cls-36" x="29.27" width="1081.42" height="863.15"/>
    </clipPath>
    <clipPath id="clippath-50">
      <rect class="cls-36" x="29.27" width="1081.42" height="863.15"/>
    </clipPath>
    <clipPath id="clippath-51">
      <rect class="cls-36" x="29.27" width="1081.42" height="863.15"/>
    </clipPath>
    <clipPath id="clippath-52">
      <rect class="cls-36" x="29.27" width="1081.42" height="863.15"/>
    </clipPath>
    <clipPath id="clippath-53">
      <rect class="cls-36" x="29.27" width="1081.42" height="863.15"/>
    </clipPath>
    <clipPath id="clippath-54">
      <rect class="cls-36" x="29.27" width="1081.42" height="863.15"/>
    </clipPath>
    <clipPath id="clippath-55">
      <rect class="cls-36" x="29.27" width="1081.42" height="863.15"/>
    </clipPath>
  </defs>
  <g id="Layer_1-2" data-name="Layer 1">
    <g>
      <g class="cls-21">
        <path d="m846.27,478.75s0,0-.01,0v.6h.03v-.6s-.01,0-.02,0"/>
      </g>
      <g class="cls-9">
        <path d="m598.18,252.48v-20.81l4.31-.87v-5.35h-17.63v5.35l4.31.87v20.81c0,.96.07,1.87.21,2.74h9.14c-.22-.82-.34-1.72-.34-2.74"/>
      </g>
      <polygon points="698.73 274.32 695.49 275.19 695.49 280.52 711.51 280.52 711.51 275.19 707.77 274.32 707.77 269.29 698.73 269.29 698.73 274.32"/>
      <polygon points="662.12 274.32 658.35 275.19 658.35 280.52 674.91 280.52 674.91 275.19 671.13 274.32 671.13 269.29 662.12 269.29 662.12 274.32"/>
      <g class="cls-41">
        <path d="m645.48,270.21c.75.6,1.13,1.28,1.13,2.03s-.34,1.42-1.01,1.94c-.68.53-1.88.79-3.6.79-.92,0-1.73-.09-2.42-.28-.7-.19-1.3-.42-1.83-.7l-1.13-4.39h-6.17l.11,9.04c1.73.79,3.6,1.4,5.62,1.83,2.02.43,4.19.65,6.52.65,4.09,0,7.19-.88,9.29-2.63,2.1-1.76,3.15-4.09,3.15-7,0-.79-.08-1.51-.23-2.19h-11.4c.89.28,1.56.59,1.97.92"/>
      </g>
      <g class="cls-22">
        <path d="m622.93,231.67l4.34-.87v-5.35h-17.63v5.35l4.28.87v20.81c0,1.02-.12,1.92-.33,2.74h9.13c.14-.87.22-1.78.22-2.74v-20.81Z"/>
      </g>
      <polygon points="680.68 274.32 676.91 275.19 676.91 280.52 692.62 280.52 692.62 275.19 689.69 274.32 689.69 269.29 680.68 269.29 680.68 274.32"/>
      <g class="cls-49">
        <path d="m612.69,270.86c-.61,1.15-1.51,2-2.69,2.56-1.18.56-2.62.85-4.31.85s-3.04-.28-4.21-.85c-1.17-.56-2.07-1.42-2.69-2.56-.25-.47-.44-1-.59-1.57h-9.14c.3,1.95.92,3.68,1.88,5.18,1.39,2.17,3.35,3.82,5.9,4.94,2.54,1.13,5.5,1.69,8.88,1.69s6.33-.57,8.86-1.7c2.53-1.14,4.5-2.79,5.91-4.97.97-1.5,1.61-3.22,1.91-5.14h-9.13c-.15.57-.33,1.1-.58,1.57"/>
      </g>
      <g class="cls-15">
        <path d="m740.82,242.34l-4-6.36h-2.82l-.59,3.83c-.9-1.39-1.99-2.47-3.28-3.24-1.29-.77-2.82-1.15-4.6-1.15-2.42,0-4.5.67-6.22,2-1.73,1.33-3.06,3.19-3.98,5.59-.93,2.39-1.39,5.19-1.39,8.38v.59c0,1.14.09,2.21.22,3.25h9.07c-.19-.96-.29-2.04-.29-3.25v-.59c0-1.8.18-3.38.54-4.73.36-1.35.94-2.4,1.75-3.15s1.86-1.13,3.15-1.13c.98,0,1.85.22,2.62.65.77.43,1.4,1.05,1.89,1.86v10.34h9.01v-13.11l-1.07.23Z"/>
      </g>
      <polygon points="741.89 242.11 741.89 235.98 736.83 235.98 740.82 242.34 741.89 242.11"/>
      <g class="cls-18">
        <path d="m732.57,271.96c-.49.71-1.12,1.26-1.89,1.63-.77.38-1.65.56-2.65.56-1.97,0-3.36-.72-4.18-2.15-.43-.75-.73-1.66-.94-2.71h-9.07c.22,1.69.6,3.25,1.17,4.66.93,2.27,2.28,4.03,4.05,5.28,1.77,1.25,3.9,1.87,6.38,1.87,1.52,0,2.87-.3,4.04-.89,1.17-.59,2.2-1.43,3.08-2.52v1.72c0,2.07-.5,3.68-1.49,4.86-1,1.17-2.55,1.76-4.67,1.76-1.26,0-2.63-.16-4.13-.48-1.49-.32-2.93-.77-4.32-1.35l-1.55,6.31c1.5.75,3.24,1.32,5.22,1.72,1.98.39,3.76.59,5.34.59,3.02,0,5.63-.55,7.81-1.66,2.19-1.11,3.87-2.66,5.04-4.66,1.17-2,1.76-4.34,1.76-7.03v-10.18h-9.01v2.66Z"/>
      </g>
      <rect x="662.15" y="222.52" width="9.29" height="7.35"/>
      <g class="cls-43">
        <path d="m705.54,238.32c-1.69-1.93-4-2.9-6.93-2.9-1.9,0-3.59.43-5.07,1.28-1.48.85-2.73,2.05-3.74,3.59l-.37-4.31h-12.76v5.35l4.31.87v13.02h9.01v-10.4c.53-.79,1.18-1.39,1.96-1.82.78-.42,1.69-.63,2.75-.63,1.41,0,2.48.39,3.22,1.17s1.11,2.09,1.11,3.93v7.75h9.04v-7.75c0-4.17-.85-7.22-2.53-9.15"/>
      </g>
      <polygon points="745.44 241.36 745.44 235.98 741.89 235.98 741.89 242.11 745.44 241.36"/>
      <polygon points="658.12 235.98 658.12 241.33 662.43 242.2 662.43 255.22 671.44 255.22 671.44 235.98 658.12 235.98"/>
      <g class="cls-31">
        <path d="m652.85,251.27c-1.74-1.41-4.43-2.51-8.07-3.32-1.5-.34-2.64-.7-3.41-1.08-.77-.39-1.29-.8-1.56-1.24-.27-.44-.41-.9-.41-1.37,0-.81.34-1.47,1.03-2,.68-.53,1.7-.79,3.05-.79.77,0,1.46.09,2.08.27.62.18,1.16.44,1.63.77l.87,3.94h6.14l-.03-8.73c-1.31-.66-2.97-1.2-4.96-1.62-1.99-.42-4.13-.63-6.42-.63-2.85,0-5.17.44-6.94,1.31-1.77.87-3.08,2.02-3.9,3.44-.83,1.42-1.24,2.97-1.24,4.66,0,2.5.85,4.56,2.55,6.18,1.7,1.62,4.34,2.8,7.93,3.53,1.03.19,1.9.4,2.62.63h11.4c-.36-1.63-1.14-2.96-2.37-3.95"/>
      </g>
      <polygon points="965.06 264.44 965.06 254.92 956.99 254.92 956.99 243.55 943.41 243.55 943.41 254.92 937.34 254.92 937.34 264.44 943.41 264.44 943.41 269.13 956.99 269.13 956.99 264.44 965.06 264.44"/>
      <polygon points="913.52 254.94 908.27 254.94 908.27 263.04 913.52 264.37 913.52 269.13 927.16 269.13 927.16 254.94 913.52 254.94"/>
      <polygon points="899.78 254.94 886.14 254.94 881.15 254.94 881.15 263.04 886.14 264.37 886.14 269.13 899.78 269.13 899.78 254.94"/>
      <g class="cls-51">
        <path d="m926.91,288.83c-.92,1.15-2.03,2.03-3.35,2.62-1.32.59-2.74.89-4.28.89-2.25,0-3.92-.69-5.01-2.06-1.09-1.38-1.64-3.51-1.64-6.41v-14.74h-14.19v14.65c0,6.65,1.43,11.57,4.3,14.74,2.87,3.18,6.8,4.77,11.8,4.77,2.84,0,5.37-.58,7.6-1.73,2.23-1.15,4.12-2.81,5.65-4.97l.93,5.76h18.27v-8.38l-5.9-1.37v-23.47h-14.19v19.7Z"/>
      </g>
      <g class="cls-3">
        <path d="m979.37,302.05l-1.06-10.42c-.56.09-1.18.18-1.86.27-.68.09-1.35.13-2,.13-1.3,0-2.33-.36-3.08-1.09-.75-.72-1.13-1.94-1.13-3.66v-18.15h-14.1v18.2c0,5.56,1.26,9.61,3.77,12.17,2.51,2.55,6.13,3.83,10.85,3.84h.03c1.47,0,2.94-.12,4.4-.35,1.46-.24,2.86-.55,4.19-.93"/>
      </g>
      <polygon points="854.95 293.97 850.6 293.18 852.95 285.2 874.72 285.2 877.16 293.18 872.82 293.97 872.82 302.36 895.79 302.36 895.79 293.97 891.22 293.31 882.57 269.13 869.59 269.13 871.53 275 856.14 275 858.08 269.13 845.17 269.13 836.5 293.31 831.89 293.97 831.89 302.36 854.95 302.36 854.95 293.97"/>
      <g class="cls-27">
        <path d="m1003.99,257.94c-3.06-1.85-6.74-2.77-11.04-2.77s-7.98.93-11.04,2.79c-3.06,1.86-5.4,4.43-7.02,7.7-.54,1.1-.99,2.26-1.35,3.47h12.96c.5-1.09,1.14-2,1.95-2.72,1.16-1.03,2.66-1.54,4.51-1.54s3.39.51,4.55,1.54c.8.71,1.45,1.63,1.96,2.72h12.92c-.36-1.23-.81-2.4-1.36-3.51-1.62-3.27-3.96-5.83-7.02-7.68"/>
      </g>
      <g class="cls-10">
        <path d="m1013.93,270.85c.61,2.03.91,4.38.91,7.07v.89c0,2.78-.3,5.19-.91,7.23-.61,2.04-1.55,3.62-2.84,4.74-1.29,1.12-2.96,1.68-5.03,1.68s-3.84-.55-5.14-1.66c-1.3-1.11-2.25-2.69-2.84-4.74-.59-2.05-.89-4.47-.89-7.25v-.89c0-2.69.29-5.05.89-7.07.18-.62.41-1.19.66-1.72h-14.52c-.8,2.69-1.21,5.62-1.21,8.8v.89c0,4.85.91,9.11,2.73,12.79,1.82,3.68,4.45,6.55,7.89,8.6,3.44,2.06,7.59,3.08,12.44,3.08s8.89-1.03,12.3-3.1c3.42-2.07,6.03-4.94,7.85-8.62,1.82-3.68,2.73-7.93,2.73-12.75v-.89c0-3.19-.41-6.12-1.2-8.8h-14.47c.25.54.48,1.1.67,1.72"/>
      </g>
      <polygon points="845.05 269.13 849.95 254.24 850.66 251.98 850.92 251.98 851.59 254.07 856.57 269.13 869.54 269.13 858.33 237.79 843.38 237.79 832.15 269.13 845.05 269.13"/>
      <g class="cls-47">
        <path class="cls-55" d="m968.99,347.02c1.2-1,1.8-2.33,1.8-3.99,0-1.53-.49-2.7-1.49-3.5-.99-.8-2.52-1.43-4.6-1.89-.86-.19-1.5-.4-1.94-.62-.44-.22-.74-.45-.89-.71-.15-.25-.23-.51-.23-.78,0-.46.2-.84.59-1.14.39-.3.97-.45,1.74-.45.44,0,.84.05,1.19.15.35.1.66.25.93.44l.5,2.25h3.5l-.02-4.98c-.75-.38-1.69-.68-2.82-.92-1.13-.24-2.35-.36-3.66-.36-1.63,0-2.95.25-3.96.75-1.01.5-1.75,1.15-2.22,1.96-.47.81-.71,1.69-.71,2.66,0,1.42.48,2.6,1.45,3.52.97.93,2.47,1.6,4.52,2.02,1.32.25,2.19.54,2.62.88.43.34.64.73.64,1.16s-.19.81-.58,1.11c-.39.3-1.07.45-2.05.45-.52,0-.98-.05-1.38-.16s-.74-.24-1.04-.4l-.64-2.5h-3.51l.06,5.15c.98.45,2.05.8,3.2,1.04,1.15.25,2.39.37,3.72.37,2.33,0,4.1-.5,5.3-1.5m-17.35,1.16v-3.03l-2.15-.5v-8.1c.32-.42.66-.73,1.03-.93.36-.2.86-.29,1.48-.26l2.36.11.53-4.72c-.29-.09-.6-.15-.92-.19-.33-.04-.62-.06-.87-.06-.88,0-1.62.23-2.21.71s-1.1,1.19-1.51,2.17l-.03-.42-.16-2.13h-7.25v3.05l2.44.5v10.29l-2.14.5v3.03h9.42Zm-21.91-10.46c.08-.66.21-1.26.41-1.78s.49-.94.88-1.24c.39-.3.88-.45,1.48-.45s1.06.12,1.42.37c.36.25.61.6.77,1.07.16.47.23,1.03.23,1.69v.42h-5.14l-.05-.08Zm6.8,10.24c1.11-.37,2.04-.84,2.78-1.41l-1.28-3.13c-.74.41-1.47.71-2.19.9-.72.19-1.48.29-2.29.29s-1.44-.15-1.98-.45c-.54-.3-.96-.7-1.27-1.21s-.49-1.09-.55-1.76l.02-.1h9.9v-2.73c0-1.68-.28-3.1-.84-4.28-.56-1.17-1.38-2.06-2.46-2.67-1.08-.61-2.41-.91-3.98-.91-1.66,0-3.08.38-4.27,1.15-1.19.77-2.1,1.82-2.73,3.16-.63,1.34-.95,2.88-.95,4.61v.62c0,1.63.35,3.08,1.04,4.36.69,1.28,1.66,2.29,2.91,3.02,1.25.73,2.72,1.1,4.4,1.1,1.39,0,2.64-.19,3.75-.56m-25.73-4.63c-.45-.82-.67-1.95-.67-3.39v-.34c0-1.03.1-1.92.3-2.69.2-.77.53-1.36.98-1.8.45-.43,1.03-.65,1.75-.65.57,0,1.07.14,1.51.41.44.27.81.66,1.11,1.15v7.17c-.3.45-.68.79-1.13,1.02-.45.23-.96.34-1.52.34-1.1,0-1.88-.41-2.33-1.23m3.37,4.57c.74-.42,1.37-1.03,1.91-1.85l.39,2.14h6.59v-3.03l-2.15-.5v-21.5h-7.61v3.05l2.47.5v5.99c-.51-.7-1.12-1.23-1.81-1.61-.69-.38-1.51-.57-2.45-.57-1.35,0-2.51.38-3.49,1.14-.98.76-1.73,1.82-2.25,3.19-.53,1.36-.79,2.95-.79,4.77v.34c0,1.71.26,3.22.78,4.51.52,1.29,1.27,2.3,2.25,3.01.98.71,2.16,1.07,3.53,1.07,1.01,0,1.88-.21,2.62-.63m-21.15.29v-3.03l-1.67-.5v-8.79c.3-.45.67-.79,1.11-1.03.44-.24.97-.36,1.57-.36.8,0,1.41.22,1.84.67.42.44.63,1.19.63,2.24v7.29l-1.85.5v3.03h9.13v-3.03l-2.14-.5v-7.29c0-2.38-.48-4.11-1.44-5.21-.96-1.1-2.28-1.65-3.95-1.65-1.08,0-2.04.24-2.89.73-.85.49-1.56,1.17-2.14,2.05l-.21-2.46h-7.27v3.05l2.46.5v10.29l-2.15.5v3.03h8.96Zm-20.85-4.18c-.47-.4-.81-.97-1.03-1.72-.21-.74-.32-1.62-.32-2.62v-.32c0-.97.11-1.83.32-2.56.21-.73.56-1.31,1.03-1.73.47-.42,1.08-.62,1.83-.62s1.37.21,1.85.62c.47.42.82.99,1.03,1.73.22.73.33,1.59.33,2.56v.32c0,1.01-.11,1.88-.33,2.62-.22.74-.56,1.31-1.03,1.72-.47.41-1.07.61-1.82.61s-1.39-.2-1.86-.6m6.32,3.39c1.24-.75,2.18-1.79,2.84-3.12.66-1.33.99-2.87.99-4.61v-.32c0-1.74-.33-3.28-.99-4.61-.66-1.33-1.61-2.36-2.85-3.11-1.24-.75-2.73-1.12-4.48-1.12s-3.24.38-4.48,1.13c-1.24.75-2.19,1.79-2.85,3.12-.66,1.33-.99,2.86-.99,4.59v.32c0,1.76.33,3.3.99,4.63.66,1.33,1.61,2.37,2.86,3.11,1.25.74,2.75,1.12,4.5,1.12s3.22-.38,4.45-1.12m-18.16.42c.97-.47,1.73-1.16,2.27-2.06.54-.9.92-2.01,1.15-3.31l-.06-.1h-4.35c-.19.73-.51,1.29-.94,1.68-.43.39-1.03.59-1.79.59-.53,0-1.04-.16-1.52-.49-.48-.33-.86-.84-1.15-1.56-.29-.71-.43-1.65-.43-2.82v-.43c0-1.11.12-2.04.36-2.79.24-.75.62-1.32,1.14-1.71.52-.39,1.2-.59,2.03-.59.31,0,.64.07.99.21.35.14.64.32.85.53l.64,3.13h3.85l.06-5.21c-.7-.6-1.62-1.15-2.78-1.64-1.15-.49-2.54-.74-4.14-.74s-3.08.37-4.3,1.12c-1.22.75-2.17,1.79-2.84,3.11-.67,1.33-1.01,2.85-1.01,4.57v.43c0,1.7.33,3.21.99,4.53.66,1.32,1.6,2.36,2.82,3.11,1.23.76,2.68,1.13,4.37,1.13,1.54,0,2.8-.24,3.77-.71m-23.93.37v-3.03l-1.67-.5v-8.79c.3-.45.67-.79,1.11-1.03.44-.24.97-.36,1.57-.36.8,0,1.41.22,1.84.67.42.44.63,1.19.63,2.24v7.29l-1.85.5v3.03h9.13v-3.03l-2.14-.5v-7.29c0-2.38-.48-4.11-1.44-5.21-.96-1.1-2.28-1.65-3.95-1.65-1.08,0-2.04.24-2.89.73-.85.49-1.56,1.17-2.14,2.05l-.21-2.46h-7.27v3.05l2.46.5v10.29l-2.15.5v3.03h8.96Zm-20.73-10.46c.07-.66.21-1.26.41-1.78s.49-.94.88-1.24c.39-.3.88-.45,1.48-.45s1.06.12,1.42.37c.36.25.61.6.77,1.07.15.47.23,1.03.23,1.69v.42h-5.14l-.05-.08Zm6.8,10.24c1.11-.37,2.03-.84,2.78-1.41l-1.28-3.13c-.74.41-1.47.71-2.19.9-.72.19-1.48.29-2.29.29s-1.44-.15-1.98-.45c-.54-.3-.96-.7-1.27-1.21-.3-.51-.49-1.09-.55-1.76l.02-.1h9.9v-2.73c0-1.68-.28-3.1-.84-4.28-.56-1.17-1.38-2.06-2.46-2.67-1.08-.61-2.41-.91-3.98-.91-1.66,0-3.08.38-4.27,1.15-1.19.77-2.1,1.82-2.73,3.16-.63,1.34-.95,2.88-.95,4.61v.62c0,1.63.35,3.08,1.04,4.36.69,1.28,1.66,2.29,2.91,3.02,1.25.73,2.72,1.1,4.4,1.1,1.39,0,2.64-.19,3.75-.56"/>
      </g>
      <g class="cls-14">
        <path class="cls-55" d="m968.99,352.5c1.2,1,1.8,2.33,1.8,3.99,0,1.53-.49,2.7-1.49,3.5-.99.8-2.52,1.43-4.6,1.89-.86.19-1.5.4-1.94.62-.44.22-.74.45-.89.71-.15.25-.23.51-.23.78,0,.46.2.84.59,1.14.39.3.97.45,1.74.45.44,0,.84-.05,1.19-.15.35-.1.66-.25.93-.44l.5-2.25h3.5l-.02,4.98c-.75.38-1.69.68-2.82.92-1.13.24-2.35.36-3.66.36-1.63,0-2.95-.25-3.96-.75-1.01-.5-1.75-1.15-2.22-1.96-.47-.81-.71-1.69-.71-2.66,0-1.42.48-2.6,1.45-3.52.97-.93,2.47-1.6,4.52-2.02,1.32-.25,2.19-.54,2.62-.88.43-.34.64-.73.64-1.16s-.19-.81-.58-1.11c-.39-.3-1.07-.45-2.05-.45-.52,0-.98.05-1.38.16s-.74.24-1.04.4l-.64,2.5h-3.51l.06-5.15c.98-.45,2.05-.8,3.2-1.04,1.15-.25,2.39-.37,3.72-.37,2.33,0,4.1.5,5.3,1.5m-17.35-1.16v3.03l-2.15.5v8.1c.32.42.66.73,1.03.93.36.2.86.29,1.48.26l2.36-.11.53,4.72c-.29.09-.6.15-.92.19-.33.04-.62.06-.87.06-.88,0-1.62-.24-2.21-.71-.6-.47-1.1-1.19-1.51-2.17l-.03.42-.16,2.13h-7.25v-3.05l2.44-.5v-10.29l-2.14-.5v-3.03h9.42Zm-21.91,10.46c.08.66.21,1.26.41,1.78.2.52.49.94.88,1.24.39.3.88.45,1.48.45s1.06-.12,1.42-.37c.36-.25.61-.6.77-1.07.16-.47.23-1.03.23-1.69v-.42h-5.14l-.05.08Zm6.8-10.24c1.11.37,2.04.85,2.78,1.41l-1.28,3.13c-.74-.41-1.47-.71-2.19-.9-.72-.19-1.48-.29-2.29-.29s-1.44.15-1.98.45c-.54.3-.96.7-1.27,1.21s-.49,1.09-.55,1.76l.02.1h9.9v2.73c0,1.68-.28,3.11-.84,4.28-.56,1.17-1.38,2.06-2.46,2.67-1.08.61-2.41.92-3.98.92-1.66,0-3.08-.38-4.27-1.15-1.19-.77-2.1-1.82-2.73-3.16-.63-1.34-.95-2.88-.95-4.61v-.62c0-1.63.35-3.08,1.04-4.36.69-1.28,1.66-2.29,2.91-3.02,1.25-.73,2.72-1.1,4.4-1.1,1.39,0,2.64.19,3.75.56m-25.73,4.63c-.45.82-.67,1.95-.67,3.39v.34c0,1.03.1,1.92.3,2.69.2.77.53,1.36.98,1.8.45.43,1.03.65,1.75.65.57,0,1.07-.14,1.51-.41.44-.27.81-.65,1.11-1.15v-7.17c-.3-.45-.68-.79-1.13-1.02-.45-.23-.96-.35-1.52-.35-1.1,0-1.88.41-2.33,1.23m3.37-4.57c.74.42,1.37,1.03,1.91,1.85l.39-2.13h6.59v3.03l-2.15.5v21.5h-7.61v-3.05l2.47-.5v-5.98c-.51.7-1.12,1.23-1.81,1.61-.69.38-1.51.57-2.45.57-1.35,0-2.51-.38-3.49-1.14-.98-.76-1.73-1.82-2.25-3.19-.53-1.36-.79-2.95-.79-4.77v-.34c0-1.71.26-3.21.78-4.51.52-1.29,1.27-2.3,2.25-3.01.98-.71,2.16-1.07,3.53-1.07,1.01,0,1.88.21,2.62.63m-21.15-.29v3.03l-1.67.5v8.79c.3.45.67.79,1.11,1.04.44.24.97.36,1.57.36.8,0,1.41-.22,1.84-.67.42-.44.63-1.19.63-2.24v-7.29l-1.85-.5v-3.03h9.13v3.03l-2.14.5v7.29c0,2.38-.48,4.11-1.44,5.21-.96,1.1-2.28,1.65-3.95,1.65-1.08,0-2.04-.24-2.89-.73-.85-.49-1.56-1.17-2.14-2.05l-.21,2.45h-7.27v-3.05l2.46-.5v-10.29l-2.15-.5v-3.03h8.96Zm-20.85,4.18c-.47.4-.81.97-1.03,1.72-.21.74-.32,1.62-.32,2.62v.32c0,.97.11,1.83.32,2.56s.56,1.31,1.03,1.73c.47.42,1.08.63,1.83.63s1.37-.21,1.85-.63c.47-.42.82-.99,1.03-1.73.22-.73.33-1.59.33-2.56v-.32c0-1.01-.11-1.88-.33-2.62-.22-.74-.56-1.31-1.03-1.72-.47-.41-1.07-.61-1.82-.61s-1.39.2-1.86.6m6.32-3.39c1.24.75,2.18,1.79,2.84,3.12.66,1.33.99,2.87.99,4.61v.32c0,1.74-.33,3.28-.99,4.61-.66,1.33-1.61,2.36-2.85,3.11-1.24.75-2.73,1.12-4.48,1.12s-3.24-.38-4.48-1.13c-1.24-.76-2.19-1.79-2.85-3.12-.66-1.33-.99-2.86-.99-4.59v-.32c0-1.76.33-3.3.99-4.63s1.61-2.37,2.86-3.11c1.25-.74,2.75-1.12,4.5-1.12s3.22.37,4.45,1.12m-18.16-.42c.97.47,1.73,1.16,2.27,2.06.54.9.92,2.01,1.15,3.31l-.06.1h-4.35c-.19-.73-.51-1.29-.94-1.68-.43-.39-1.03-.59-1.79-.59-.53,0-1.04.16-1.52.49-.48.33-.86.85-1.15,1.56-.29.71-.43,1.65-.43,2.82v.43c0,1.11.12,2.04.36,2.79.24.75.62,1.32,1.14,1.71.52.39,1.2.59,2.03.59.31,0,.64-.07.99-.21.35-.14.64-.32.85-.53l.64-3.13h3.85l.06,5.22c-.7.6-1.62,1.14-2.78,1.64-1.15.49-2.54.74-4.14.74s-3.08-.38-4.3-1.12c-1.22-.75-2.17-1.79-2.84-3.11-.67-1.33-1.01-2.85-1.01-4.57v-.43c0-1.7.33-3.21.99-4.53.66-1.32,1.6-2.36,2.82-3.11,1.23-.76,2.68-1.13,4.37-1.13,1.54,0,2.8.24,3.77.71m-23.93-.37v3.03l-1.67.5v8.79c.3.45.67.79,1.11,1.04.44.24.97.36,1.57.36.8,0,1.41-.22,1.84-.67.42-.44.63-1.19.63-2.24v-7.29l-1.85-.5v-3.03h9.13v3.03l-2.14.5v7.29c0,2.38-.48,4.11-1.44,5.21-.96,1.1-2.28,1.65-3.95,1.65-1.08,0-2.04-.24-2.89-.73-.85-.49-1.56-1.17-2.14-2.05l-.21,2.45h-7.27v-3.05l2.46-.5v-10.29l-2.15-.5v-3.03h8.96Zm-20.73,10.46c.07.66.21,1.26.41,1.78.2.52.49.94.88,1.24.39.3.88.45,1.48.45s1.06-.12,1.42-.37c.36-.25.61-.6.77-1.07.15-.47.23-1.03.23-1.69v-.42h-5.14l-.05.08Zm6.8-10.24c1.11.37,2.03.85,2.78,1.41l-1.28,3.13c-.74-.41-1.47-.71-2.19-.9-.72-.19-1.48-.29-2.29-.29s-1.44.15-1.98.45c-.54.3-.96.7-1.27,1.21-.3.51-.49,1.09-.55,1.76l.02.1h9.9v2.73c0,1.68-.28,3.11-.84,4.28-.56,1.17-1.38,2.06-2.46,2.67-1.08.61-2.41.92-3.98.92-1.66,0-3.08-.38-4.27-1.15-1.19-.77-2.1-1.82-2.73-3.16-.63-1.34-.95-2.88-.95-4.61v-.62c0-1.63.35-3.08,1.04-4.36.69-1.28,1.66-2.29,2.91-3.02,1.25-.73,2.72-1.1,4.4-1.1,1.39,0,2.64.19,3.75.56"/>
      </g>
      <g class="cls-4">
        <path class="cls-55" d="m1012.01,762.85c.88-.46,1.61-1.06,2.18-1.81.57-.75,1.03-1.56,1.37-2.44l7.28-18.4,2.22-.32v-3.38h-10v3.38l2.26.32-3.33,8.83h-.11l-.21-.62-2.81-8.17,2.37-.35v-3.38h-10.86v3.38l2.47.35,6.32,15.91-.3.94c-.21.66-.6,1.16-1.17,1.5-.56.34-1.22.51-1.97.51-.22,0-.46-.01-.7-.04-.24-.03-.48-.07-.72-.12l-.66,4.13c.51.14,1.03.25,1.56.34.53.08,1.03.12,1.52.12,1.3,0,2.4-.23,3.28-.69m-20.99-7.09v-3.36l-2.05-.55v-9.84c.33-.49.75-.85,1.26-1.09.51-.24,1.08-.36,1.71-.36.9,0,1.59.26,2.06.79.47.53.71,1.46.71,2.79v7.72l-2.05.55v3.36h10.12v-3.36l-2.38-.55v-7.69c0-2.73-.56-4.75-1.69-6.05-1.13-1.31-2.64-1.96-4.54-1.96-1.14,0-2.14.24-3.02.73-.87.49-1.6,1.17-2.2,2.05v-10.93h-8.4v3.38l2.74.55v19.91l-2.38.55v3.36h10.09Zm-22.47-4.33c-.49-.24-.89-.6-1.18-1.08v-8.15c.3-.55.69-.96,1.17-1.24.49-.28,1.04-.42,1.67-.42.82,0,1.48.24,1.98.71.5.47.88,1.14,1.11,1.99.24.85.36,1.85.36,2.99v.37c0,1.6-.26,2.86-.78,3.79-.52.92-1.4,1.39-2.63,1.39-.64,0-1.21-.12-1.7-.37m1.17,11.74v-3.38l-2.35-.55v-5.25c.55.71,1.2,1.25,1.95,1.61s1.63.54,2.62.54c1.55,0,2.89-.39,3.99-1.18,1.11-.79,1.96-1.9,2.55-3.34.59-1.44.88-3.1.88-5v-.37c0-2.02-.29-3.78-.88-5.29-.59-1.51-1.43-2.69-2.53-3.53-1.1-.84-2.41-1.26-3.94-1.26-1.1,0-2.04.22-2.81.67-.77.45-1.43,1.08-1.98,1.9l-.23-2.21h-8.03v3.38l2.74.55v18.79l-2.46.55v3.38h10.46Zm-24.58-11.67c-.41-.36-.61-.85-.61-1.5s.26-1.22.79-1.67c.53-.45,1.29-.68,2.29-.68h2.26v2.92c-.34.45-.79.81-1.35,1.07-.56.26-1.13.39-1.73.39-.69,0-1.24-.18-1.65-.53m2.86,3.99c.78-.44,1.48-1.03,2.08-1.78.06.37.17.74.32,1.1.15.37.3.69.45.96h6.83v-3.36l-2.03-.32c-.05-.24-.07-.48-.08-.74s0-.52,0-.79v-7.54c0-2.19-.75-3.89-2.24-5.07-1.5-1.19-3.53-1.78-6.1-1.78-1.45,0-2.76.18-3.95.53-1.19.36-2.3.8-3.35,1.33l.07,5.16h4.06l.41-2.49c.33-.22.7-.4,1.09-.52.4-.12.84-.18,1.33-.18,1.01,0,1.76.28,2.25.84.49.56.74,1.26.74,2.12v1.28h-2.3c-2.88,0-5.05.57-6.51,1.72-1.46,1.14-2.19,2.62-2.19,4.42s.57,3.17,1.72,4.21c1.14,1.04,2.67,1.56,4.56,1.56,1.11,0,2.06-.22,2.85-.66m-13.88.28v-3.36l-2.38-.55v-8.99c.36-.46.74-.81,1.14-1.03.4-.22.95-.32,1.64-.28l2.62.12.59-5.23c-.32-.1-.66-.17-1.02-.21-.36-.05-.68-.07-.97-.07-.97,0-1.79.26-2.46.78-.66.52-1.22,1.32-1.67,2.4l-.03-.46-.18-2.37h-8.04v3.38l2.71.55v11.41l-2.37.55v3.36h10.45Zm-12.53-15.86v-3.4h-5.45l2.53,4.02,2.92-.62Zm-13.44,10.47c-.52-.91-.77-2.16-.77-3.76v-.37c0-1.14.11-2.14.34-2.99.22-.85.59-1.52,1.1-1.99.51-.47,1.17-.71,1.99-.71.62,0,1.17.14,1.65.41.49.27.88.67,1.19,1.18v8.22c-.31.45-.71.79-1.19,1.03-.49.24-1.04.36-1.67.36-1.24,0-2.13-.45-2.64-1.36m6.9,12.11c1.38-.7,2.44-1.68,3.19-2.94.74-1.26,1.11-2.74,1.11-4.44v-18.6h-4.98l-.37,2.42c-.57-.88-1.26-1.56-2.07-2.05-.81-.49-1.78-.73-2.91-.73-1.53,0-2.84.42-3.93,1.26-1.09.84-1.93,2.02-2.52,3.53-.59,1.51-.88,3.28-.88,5.29v.37c0,1.9.29,3.57.88,5,.59,1.43,1.44,2.55,2.56,3.34,1.12.79,2.47,1.18,4.03,1.18.96,0,1.81-.19,2.55-.56.74-.37,1.39-.9,1.95-1.59v1.09c0,1.3-.31,2.33-.94,3.07-.63.74-1.61,1.11-2.95,1.11-.79,0-1.66-.1-2.61-.3-.94-.2-1.85-.49-2.73-.85l-.98,3.99c.95.47,2.05.84,3.3,1.09,1.25.25,2.38.37,3.37.37,1.91,0,3.56-.35,4.94-1.05m-26.95-11.36c-.52-.44-.9-1.08-1.14-1.9-.24-.82-.36-1.79-.36-2.91v-.36c0-1.08.12-2.03.36-2.84.24-.81.62-1.45,1.14-1.91.52-.46,1.2-.69,2.03-.69s1.52.23,2.05.69c.52.46.9,1.1,1.15,1.91.24.81.36,1.76.36,2.84v.36c0,1.11-.12,2.08-.36,2.9-.24.82-.62,1.45-1.14,1.9-.52.45-1.19.68-2.02.68s-1.54-.22-2.06-.67m7,3.76c1.37-.83,2.42-1.98,3.15-3.46.73-1.48,1.1-3.18,1.1-5.12v-.36c0-1.93-.36-3.64-1.1-5.11-.73-1.47-1.78-2.62-3.16-3.45-1.38-.83-3.03-1.25-4.97-1.25s-3.59.42-4.96,1.25c-1.38.84-2.43,1.99-3.16,3.46-.73,1.47-1.09,3.17-1.09,5.09v.36c0,1.94.37,3.66,1.09,5.13.73,1.48,1.79,2.63,3.17,3.45,1.38.83,3.05,1.24,4.99,1.24s3.57-.41,4.94-1.25m-27.39-3.46c-.49-.24-.89-.6-1.18-1.08v-8.15c.3-.55.69-.96,1.17-1.24.49-.28,1.04-.42,1.67-.42.82,0,1.48.24,1.98.71.5.47.87,1.14,1.11,1.99.24.85.36,1.85.36,2.99v.37c0,1.6-.26,2.86-.78,3.79-.52.92-1.4,1.39-2.63,1.39-.64,0-1.21-.12-1.7-.37m1.16,11.74v-3.38l-2.35-.55v-5.25c.55.71,1.2,1.25,1.95,1.61.75.36,1.63.54,2.62.54,1.55,0,2.89-.39,3.99-1.18,1.11-.79,1.96-1.9,2.54-3.34.59-1.44.88-3.1.88-5v-.37c0-2.02-.29-3.78-.88-5.29-.59-1.51-1.43-2.69-2.53-3.53-1.1-.84-2.41-1.26-3.94-1.26-1.1,0-2.04.22-2.81.67-.77.45-1.43,1.08-1.98,1.9l-.23-2.21h-8.03v3.38l2.74.55v18.79l-2.46.55v3.38h10.46Zm-24.87-.31c.88-.46,1.61-1.06,2.18-1.81.57-.75,1.03-1.56,1.37-2.44l7.28-18.4,2.22-.32v-3.38h-10v3.38l2.26.32-3.33,8.83h-.11l-.21-.62-2.81-8.17,2.37-.35v-3.38h-10.85v3.38l2.47.35,6.32,15.91-.3.94c-.21.66-.6,1.16-1.16,1.5-.56.34-1.22.51-1.97.51-.23,0-.46-.01-.7-.04-.24-.03-.48-.07-.72-.12l-.66,4.13c.51.14,1.03.25,1.56.34s1.04.12,1.52.12c1.3,0,2.4-.23,3.28-.69m-16.42-7.09v-3.36l-2.74-.55v-17.6h4.41l.21,2.95h4.34v-7.35h-23.56v7.35h4.29l.23-2.95h4.38v17.6l-2.74.55v3.36h11.18Z"/>
      </g>
      <g class="cls-48">
        <path d="m914.18,564.53c.1-.89.28-1.68.55-2.38.27-.7.66-1.25,1.17-1.65.52-.4,1.17-.6,1.97-.6s1.42.17,1.9.49c.48.33.82.8,1.03,1.43.21.62.31,1.38.31,2.27v.56h-6.87l-.06-.11Zm9.09,13.7c1.48-.5,2.72-1.13,3.73-1.89l-1.72-4.19c-.99.55-1.96.95-2.93,1.2-.97.26-1.99.39-3.06.39s-1.93-.2-2.65-.6-1.29-.94-1.7-1.62c-.41-.68-.66-1.46-.74-2.35l.02-.13h13.25v-3.65c0-2.25-.38-4.15-1.13-5.72-.75-1.57-1.85-2.76-3.3-3.58s-3.22-1.22-5.33-1.22c-2.22,0-4.12.51-5.71,1.54-1.59,1.02-2.81,2.43-3.65,4.23-.85,1.8-1.27,3.85-1.27,6.17v.84c0,2.18.46,4.12,1.39,5.83.92,1.71,2.22,3.06,3.9,4.04,1.67.98,3.64,1.47,5.88,1.47,1.86,0,3.53-.25,5.01-.75m-19.99.6c.71-.11,1.39-.27,2.03-.45l-.52-5.05c-.27.04-.57.09-.9.13-.33.04-.65.06-.97.06-.63,0-1.13-.18-1.49-.53-.36-.35-.55-.94-.55-1.77v-11.14h4.06v-4.79h-4.06v-5.71h-6.83v5.71h-3.05v4.79h3.05v11.16c0,2.69.61,4.65,1.83,5.89,1.22,1.24,2.97,1.86,5.26,1.86.71,0,1.43-.06,2.14-.17m-27.61-5.45c-.49-.43-.74-1.03-.74-1.8s.32-1.47.96-2.02c.64-.54,1.56-.82,2.76-.82h2.73v3.52c-.41.54-.96.97-1.63,1.29-.67.32-1.37.47-2.08.47-.83,0-1.49-.21-1.99-.64m3.45,4.81c.94-.53,1.78-1.25,2.51-2.15.07.44.2.89.39,1.33.19.44.36.83.54,1.16h8.24v-4.06l-2.45-.39c-.06-.29-.09-.58-.1-.89,0-.31-.01-.63-.01-.96v-9.1c0-2.65-.9-4.69-2.71-6.12-1.8-1.43-4.26-2.15-7.36-2.15-1.75,0-3.34.21-4.77.64-1.43.43-2.78.97-4.04,1.61l.09,6.23h4.89l.49-3.01c.4-.27.84-.48,1.32-.62.48-.14,1.01-.21,1.6-.21,1.22,0,2.12.34,2.72,1.01s.89,1.52.89,2.55v1.55h-2.77c-3.48,0-6.1.69-7.86,2.07-1.76,1.38-2.64,3.16-2.64,5.34s.69,3.83,2.07,5.08c1.38,1.25,3.22,1.88,5.51,1.88,1.35,0,2.49-.26,3.44-.79m-16.75.34v-4.06l-2.88-.66v-10.84c.43-.56.89-.97,1.37-1.24s1.15-.39,1.98-.34l3.16.15.71-6.31c-.39-.11-.8-.2-1.23-.26-.44-.06-.83-.09-1.17-.09-1.17,0-2.16.32-2.96.95-.8.63-1.48,1.6-2.02,2.9l-.04-.56-.21-2.86h-9.71v4.08l3.26.67v13.76l-2.86.66v4.06h12.6Zm-29.31-14c.1-.89.28-1.68.55-2.38.26-.7.65-1.25,1.17-1.65.52-.4,1.17-.6,1.98-.6s1.42.17,1.9.49c.48.33.82.8,1.03,1.43.21.62.31,1.38.31,2.27v.56h-6.87l-.06-.11Zm9.09,13.7c1.48-.5,2.72-1.13,3.72-1.89l-1.72-4.19c-.99.55-1.97.95-2.93,1.2-.97.26-1.99.39-3.06.39s-1.93-.2-2.65-.6c-.72-.4-1.29-.94-1.7-1.62-.41-.68-.65-1.46-.74-2.35l.02-.13h13.25v-3.65c0-2.25-.38-4.15-1.13-5.72-.75-1.57-1.85-2.76-3.29-3.58-1.45-.82-3.22-1.22-5.33-1.22-2.22,0-4.12.51-5.71,1.54-1.59,1.02-2.8,2.43-3.65,4.23-.84,1.8-1.27,3.85-1.27,6.17v.84c0,2.18.46,4.12,1.38,5.83.92,1.71,2.22,3.06,3.9,4.04,1.67.98,3.64,1.47,5.88,1.47,1.86,0,3.53-.25,5.01-.75m-32.28.3v-4.06l-2.23-.66v-11.77c.4-.6.9-1.06,1.49-1.38.59-.32,1.29-.48,2.09-.48,1.07,0,1.89.3,2.46.89s.85,1.59.85,2.99v9.75l-2.47.66v4.06h12.22v-4.06l-2.86-.66v-9.75c0-3.18-.64-5.5-1.93-6.98s-3.05-2.21-5.28-2.21c-1.45,0-2.73.33-3.86.98-1.13.65-2.08,1.56-2.86,2.74l-.28-3.28h-9.73v4.08l3.29.67v13.76l-2.88.66v4.06h11.98Zm-27.74-14c.1-.89.28-1.68.55-2.38.26-.7.66-1.25,1.17-1.65.52-.4,1.17-.6,1.98-.6s1.42.17,1.9.49c.48.33.82.8,1.03,1.43.21.62.31,1.38.31,2.27v.56h-6.87l-.07-.11Zm9.09,13.7c1.48-.5,2.72-1.13,3.73-1.89l-1.72-4.19c-.99.55-1.96.95-2.93,1.2-.97.26-1.98.39-3.06.39s-1.93-.2-2.65-.6c-.72-.4-1.29-.94-1.7-1.62-.41-.68-.65-1.46-.74-2.35l.02-.13h13.25v-3.65c0-2.25-.38-4.15-1.13-5.72-.75-1.57-1.85-2.76-3.3-3.58-1.45-.82-3.22-1.22-5.32-1.22-2.22,0-4.12.51-5.71,1.54-1.59,1.02-2.81,2.43-3.65,4.23-.84,1.8-1.27,3.85-1.27,6.17v.84c0,2.18.46,4.12,1.39,5.83.92,1.71,2.22,3.06,3.9,4.04,1.67.98,3.64,1.47,5.88,1.47,1.86,0,3.53-.25,5.01-.75m-24.48-.11c2.04-.57,3.82-1.37,5.33-2.4v-12.8h-10.89v4.77l4.02.39v4.7c-.56.27-1.29.51-2.2.71-.91.2-1.86.3-2.87.3-1.8,0-3.32-.41-4.55-1.22-1.23-.82-2.17-1.96-2.81-3.45-.64-1.48-.97-3.22-.97-5.23v-1.29c0-2.09.32-3.93.95-5.51.64-1.58,1.56-2.82,2.77-3.71,1.21-.89,2.68-1.34,4.41-1.34,1.17,0,2.22.16,3.13.47.92.32,1.64.72,2.17,1.2l1.01,4.08h4.98v-7.11c-1.55-1.32-3.35-2.29-5.4-2.92-2.05-.63-4.18-.95-6.37-.95-3.01,0-5.59.67-7.76,2.02-2.17,1.35-3.83,3.2-4.98,5.57-1.15,2.37-1.73,5.11-1.73,8.23v1.24c0,2.98.58,5.6,1.75,7.87,1.17,2.27,2.85,4.04,5.07,5.31,2.21,1.27,4.91,1.91,8.08,1.91,2.52,0,4.8-.29,6.84-.86"/>
      </g>
      <g class="cls-46">
        <path d="m864.8,461.8c-.44-.06-.83-.09-1.17-.09-1.17,0-2.16.32-2.96.95-.42.33-.81.77-1.16,1.29h6.32l.21-1.89c-.39-.12-.8-.2-1.23-.26"/>
      </g>
      <g class="cls-38">
        <path d="m877.5,461.71c-1.75,0-3.34.22-4.77.64-1.41.42-2.74.96-3.99,1.59h16.21s-.06-.06-.1-.09c-1.8-1.43-4.26-2.15-7.36-2.15"/>
      </g>
      <g class="cls-2">
        <path d="m746.07,461.25c-.41.84-.72,1.75-.99,2.69h7.02s0,0,0-.01c.64-1.58,1.56-2.82,2.77-3.71,1.21-.89,2.68-1.34,4.41-1.34,1.17,0,2.22.16,3.13.47.92.31,1.64.72,2.17,1.2l.84,3.39h5.15v-6.42c-1.55-1.32-3.35-2.29-5.4-2.92-2.05-.63-4.17-.94-6.36-.95h-.02c-3,0-5.58.68-7.75,2.02-2.17,1.35-3.83,3.2-4.98,5.57"/>
      </g>
      <polygon points="900.22 462.14 900.22 456.43 893.39 456.43 893.39 462.14 890.34 462.14 890.34 463.94 904.27 463.94 904.27 462.14 900.22 462.14"/>
      <g class="cls-19">
        <path d="m922.37,462.94c-1.45-.82-3.22-1.22-5.33-1.22-2.22,0-4.12.51-5.71,1.54-.33.21-.63.45-.93.7h13.34c-.42-.38-.87-.72-1.37-1.01"/>
      </g>
      <g class="cls-30">
        <path d="m785.01,461.71c-2.22,0-4.12.51-5.71,1.54-.33.21-.63.45-.93.7h13.34c-.42-.38-.87-.72-1.37-1.01-1.45-.82-3.22-1.22-5.32-1.22"/>
      </g>
      <polygon points="765.43 462.94 765.6 463.63 770.58 463.63 770.58 462.94 765.43 462.94"/>
      <polygon points="858.39 462.14 848.69 462.14 848.69 463.94 858.53 463.94 858.39 462.14"/>
      <g class="cls-52">
        <path d="m835.94,461.71c-2.22,0-4.12.51-5.71,1.54-.33.21-.63.45-.93.7h13.34c-.42-.38-.87-.72-1.37-1.01-1.45-.82-3.22-1.22-5.32-1.22"/>
      </g>
      <polygon points="806.54 462.14 796.82 462.14 796.82 463.94 806.7 463.94 806.54 462.14"/>
      <g class="cls-28">
        <path d="m813.54,461.71c-1.45,0-2.73.33-3.86.98-.6.34-1.14.76-1.64,1.26h10.8s0-.01-.02-.02c-1.29-1.47-3.05-2.21-5.28-2.21"/>
      </g>
      <g class="cls-13">
        <path d="m746.39,473.87c-.7,1.43-1.16,3.02-1.43,4.72h6.86c.15-.72.34-1.4.6-2.04.64-1.58,1.56-2.82,2.77-3.71,1.21-.89,2.68-1.34,4.41-1.34,1.17,0,2.22.16,3.13.47.92.31,1.64.72,2.17,1.2l1.01,4.08h4.98v-7.11c-1.55-1.32-3.35-2.29-5.4-2.92-2.05-.63-4.17-.94-6.36-.95h-.02c-3,0-5.58.68-7.75,2.02-2.17,1.35-3.83,3.2-4.98,5.57"/>
      </g>
      <g class="cls-17">
        <path d="m885.18,476.48c-1.8-1.43-4.26-2.15-7.36-2.15-1.75,0-3.34.21-4.77.64-1.43.43-2.78.97-4.04,1.61l.03,2.01h17.91c-.44-.81-1.02-1.52-1.78-2.11"/>
      </g>
      <g class="cls-25">
        <path d="m922.69,475.55c-1.45-.82-3.22-1.22-5.33-1.22-2.22,0-4.12.51-5.71,1.54-1.11.72-2.03,1.63-2.78,2.73h16.8c-.73-1.3-1.72-2.32-2.99-3.04"/>
      </g>
      <polygon points="904.59 474.76 900.53 474.76 900.53 469.05 893.7 469.05 893.7 474.76 890.65 474.76 890.65 478.59 904.59 478.59 904.59 474.76"/>
      <g class="cls-57">
        <path d="m866.35,474.67c-.39-.11-.8-.2-1.23-.26-.44-.06-.83-.09-1.17-.09-1.17,0-2.16.32-2.96.95-.8.63-1.48,1.6-2.02,2.9l-.04-.56-.21-2.85h-9.71v3.83h16.91l.44-3.92Z"/>
      </g>
      <g class="cls-45">
        <path d="m790.65,475.55c-1.45-.82-3.22-1.22-5.32-1.22-2.22,0-4.12.51-5.71,1.54-1.11.72-2.03,1.63-2.78,2.73h16.8c-.73-1.3-1.72-2.32-2.99-3.04"/>
      </g>
      <g class="cls-29">
        <path d="m819.14,476.54c-1.29-1.47-3.05-2.21-5.28-2.21-1.45,0-2.73.33-3.86.98-1.13.65-2.08,1.56-2.86,2.74l-.28-3.28h-9.73v3.83h23.19c-.3-.8-.7-1.49-1.19-2.05"/>
      </g>
      <g class="cls-39">
        <path d="m841.57,475.55c-1.45-.82-3.22-1.22-5.33-1.22-2.22,0-4.12.51-5.71,1.54-1.11.72-2.03,1.63-2.78,2.73h16.8c-.73-1.3-1.72-2.32-2.99-3.04"/>
      </g>
      <g class="cls-8">
        <path d="m783.76,495.68c.51-.4,1.17-.6,1.97-.6s1.42.17,1.9.49c.48.33.82.81,1.03,1.43h0s6.27,0,6.27,0c-.18-.77-.41-1.5-.73-2.15-.75-1.57-1.85-2.76-3.3-3.57-1.45-.82-3.22-1.22-5.32-1.22-2.22,0-4.12.51-5.71,1.54-1.59,1.02-2.81,2.43-3.65,4.23-.18.38-.33.78-.47,1.18h7.01c.25-.53.57-.99,1-1.32"/>
      </g>
      <g class="cls-5">
        <path d="m860.77,496.9c.49-.27,1.14-.39,1.97-.34l3.16.15.71-6.31c-.39-.12-.8-.2-1.23-.26-.44-.06-.83-.09-1.17-.09-1.17,0-2.16.32-2.96.95-.8.63-1.47,1.6-2.02,2.9l-.04-.56-.21-2.85h-9.71v4.08l3.26.67v1.77h8.11s.09-.07.14-.1"/>
      </g>
      <g class="cls-20">
        <path d="m746.65,489.59c-1.05,2.15-1.59,4.63-1.69,7.41h6.8c.07-1.76.37-3.35.92-4.73.64-1.58,1.56-2.82,2.77-3.71,1.21-.89,2.68-1.34,4.41-1.34,1.17,0,2.22.16,3.13.47.92.31,1.64.72,2.17,1.2l1.01,4.08h4.98v-7.11c-1.55-1.32-3.35-2.29-5.4-2.92-2.05-.63-4.17-.94-6.36-.95h-.02c-3,0-5.58.68-7.75,2.02-2.17,1.35-3.83,3.2-4.98,5.57"/>
      </g>
      <g class="cls-58">
        <path d="m809.04,495.84c.59-.32,1.29-.48,2.09-.48,1.07,0,1.89.3,2.46.89.19.2.34.46.46.75h7.16c-.24-2.05-.85-3.63-1.81-4.74-1.29-1.48-3.05-2.21-5.28-2.21-1.45,0-2.73.33-3.86.98-1.13.65-2.08,1.56-2.86,2.74l-.28-3.28h-9.73v4.08l3.28.66v1.77h7.06c.37-.48.79-.89,1.31-1.16"/>
      </g>
      <polygon points="874.25 498.53 874.5 497 869.34 497 869.36 498.53 874.25 498.53"/>
      <g class="cls-24">
        <path d="m874.75,495.53c.4-.27.84-.48,1.32-.62.48-.14,1.01-.21,1.6-.21,1.22,0,2.12.34,2.72,1.01.33.38.56.81.71,1.3h6.96c-.26-2.01-1.12-3.62-2.61-4.8-1.8-1.43-4.26-2.15-7.36-2.15-1.75,0-3.33.21-4.77.64-1.43.43-2.78.97-4.04,1.61l.07,4.69h5.17l.24-1.47Z"/>
      </g>
      <g class="cls-11">
        <path d="m834.68,495.68c.52-.4,1.17-.6,1.98-.6s1.42.17,1.9.49c.48.33.82.81,1.03,1.43h0s6.27,0,6.27,0c-.18-.77-.41-1.5-.73-2.15-.75-1.57-1.85-2.76-3.29-3.57-1.45-.82-3.22-1.22-5.33-1.22-2.22,0-4.12.51-5.71,1.54-1.59,1.02-2.8,2.43-3.65,4.23-.18.38-.33.78-.47,1.18h7.01c.26-.53.57-.99,1-1.32"/>
      </g>
      <polygon points="900.79 495.27 904.85 495.27 904.85 490.48 900.79 490.48 900.79 484.77 893.96 484.77 893.96 490.48 890.91 490.48 890.91 495.27 893.96 495.27 893.96 497 900.79 497 900.79 495.27"/>
      <g class="cls-23">
        <path d="m915.8,495.68c.51-.4,1.17-.6,1.97-.6s1.42.17,1.9.49c.48.33.82.81,1.03,1.43,0,0,0,0,0,0h6.27c-.18-.77-.41-1.5-.73-2.15-.75-1.57-1.85-2.76-3.3-3.57-1.45-.82-3.22-1.22-5.33-1.22-2.22,0-4.12.51-5.71,1.54-1.59,1.02-2.8,2.43-3.65,4.23-.18.38-.33.78-.47,1.18h7.01c.26-.53.57-.99,1-1.32"/>
      </g>
      <g class="cls-35">
        <path d="m807.69,515.52c.4-.6.9-1.06,1.49-1.38.59-.32,1.29-.48,2.09-.48,1.07,0,1.89.3,2.46.89s.85,1.59.85,2.99v.46h6.89v-.46c0-3.18-.64-5.5-1.93-6.98-1.29-1.48-3.05-2.21-5.28-2.21-1.45,0-2.73.33-3.86.98-1.13.65-2.08,1.56-2.86,2.74l-.28-3.28h-9.73v4.08l3.28.67v4.48h6.87v-2.48Z"/>
      </g>
      <g class="cls-16">
        <path d="m746.79,507.89c-1.15,2.37-1.73,5.11-1.73,8.23v1.25c0,.22.03.42.03.63h6.8c0-.21-.03-.42-.03-.63v-1.29c0-2.09.32-3.92.96-5.51.64-1.58,1.56-2.82,2.77-3.71,1.21-.89,2.68-1.34,4.41-1.34,1.17,0,2.22.16,3.13.47.92.31,1.64.72,2.17,1.2l1.01,4.08h4.98v-7.11c-1.55-1.32-3.35-2.29-5.4-2.92-2.05-.63-4.17-.94-6.36-.95h-.02c-3,0-5.58.68-7.75,2.02-2.17,1.35-3.83,3.2-4.98,5.57"/>
      </g>
      <g class="cls-7">
        <path d="m782.73,515.63c.26-.7.65-1.25,1.17-1.65.52-.4,1.17-.6,1.97-.6s1.42.17,1.9.49c.48.33.82.8,1.03,1.43.21.62.31,1.38.31,2.26v.44h6.32c-.09-1.87-.44-3.5-1.09-4.85-.75-1.57-1.85-2.76-3.3-3.58s-3.22-1.22-5.32-1.22c-2.22,0-4.12.51-5.71,1.54-1.59,1.02-2.81,2.43-3.65,4.23-.55,1.18-.91,2.48-1.1,3.89h6.92c.1-.88.28-1.68.55-2.37"/>
      </g>
      <g class="cls-50">
        <path d="m888.28,516.61c0-2.65-.9-4.69-2.71-6.12-1.8-1.43-4.26-2.15-7.36-2.15-1.75,0-3.34.21-4.77.64-1.43.43-2.78.97-4.04,1.61l.09,6.23h4.89l.49-3.01c.4-.27.84-.48,1.32-.62.48-.14,1.01-.21,1.6-.21,1.22,0,2.12.34,2.72,1.01s.89,1.52.89,2.55v1.45h6.87v-1.39Z"/>
      </g>
      <polygon points="900.93 513.57 904.99 513.57 904.99 508.78 900.93 508.78 900.93 503.07 894.1 503.07 894.1 508.78 891.05 508.78 891.05 513.57 894.1 513.57 894.1 518 900.93 518 900.93 513.57"/>
      <rect x="761.25" y="516.4" width="10.89" height="1.6"/>
      <g class="cls-42">
        <path d="m859.54,516.44c.43-.56.89-.97,1.37-1.24s1.15-.39,1.98-.34l3.16.15.71-6.31c-.39-.11-.8-.2-1.23-.26-.44-.06-.83-.09-1.17-.09-1.17,0-2.16.32-2.96.95-.8.63-1.48,1.6-2.02,2.9l-.04-.56-.21-2.85h-9.71v4.08l3.26.67v4.48h6.87v-1.56Z"/>
      </g>
      <g class="cls-26">
        <path d="m833.65,515.63c.26-.7.65-1.25,1.17-1.65.52-.4,1.17-.6,1.98-.6s1.42.17,1.9.49c.48.33.82.8,1.03,1.43.21.62.31,1.38.31,2.26v.44h6.32c-.09-1.87-.44-3.5-1.09-4.85-.75-1.57-1.85-2.76-3.3-3.58-1.45-.82-3.22-1.22-5.32-1.22-2.22,0-4.12.51-5.71,1.54-1.59,1.02-2.81,2.43-3.65,4.23-.55,1.18-.91,2.48-1.1,3.89h6.92c.1-.88.28-1.68.55-2.37"/>
      </g>
      <g class="cls-1">
        <path d="m914.77,515.63c.26-.7.65-1.25,1.17-1.65.52-.4,1.17-.6,1.98-.6s1.42.17,1.9.49c.48.33.82.8,1.03,1.43.21.62.31,1.38.31,2.26v.44h6.32c-.09-1.87-.44-3.5-1.09-4.85-.75-1.57-1.85-2.76-3.3-3.58-1.45-.82-3.22-1.22-5.32-1.22-2.22,0-4.12.51-5.71,1.54-1.59,1.02-2.81,2.43-3.65,4.23-.55,1.18-.91,2.48-1.1,3.89h6.92c.1-.88.28-1.68.55-2.37"/>
      </g>
      <g class="cls-12">
        <path d="m885.56,530.6c-1.8-1.43-4.26-2.15-7.36-2.15-1.75,0-3.34.21-4.77.64-1.43.43-2.78.97-4.04,1.61l.09,6.23h4.9l.49-3.01c.4-.27.84-.48,1.32-.62.48-.14,1.01-.21,1.6-.21,1.22,0,2.12.34,2.72,1.01.59.67.89,1.52.89,2.56v1.54h-2.77c-2.84,0-5.1.47-6.8,1.39h16.44v-2.87c0-2.65-.9-4.69-2.7-6.12"/>
      </g>
      <polygon points="904.97 533.67 904.97 528.89 900.91 528.89 900.91 523.17 894.08 523.17 894.08 528.89 891.04 528.89 891.04 533.67 894.08 533.67 894.08 539.6 900.91 539.6 900.91 533.67 904.97 533.67"/>
      <g class="cls-6">
        <path d="m746.77,527.99c-1.15,2.37-1.73,5.11-1.73,8.23v1.25c0,.73.04,1.44.11,2.12h6.85c-.09-.67-.15-1.38-.15-2.12v-1.29c0-2.09.32-3.92.96-5.51.64-1.58,1.56-2.82,2.77-3.71,1.21-.89,2.68-1.34,4.41-1.34,1.17,0,2.22.16,3.13.47.92.31,1.64.72,2.17,1.2l1.01,4.08h4.98v-7.11c-1.55-1.32-3.35-2.29-5.4-2.92-2.05-.63-4.17-.94-6.36-.95h-.02c-3,0-5.58.68-7.75,2.02-2.17,1.35-3.83,3.2-4.98,5.57"/>
      </g>
      <g class="cls-34">
        <path d="m921.14,538.22h-6.87l-.06-.11c.1-.89.28-1.68.55-2.38.27-.7.65-1.25,1.17-1.65.51-.4,1.17-.6,1.97-.6s1.42.17,1.9.49c.48.33.82.8,1.03,1.43.21.62.31,1.38.31,2.27v.56Zm5.23-4.97c-.75-1.57-1.85-2.76-3.3-3.57s-3.22-1.22-5.33-1.22c-2.22,0-4.12.51-5.71,1.54-1.59,1.02-2.8,2.43-3.65,4.23-.75,1.58-1.14,3.39-1.23,5.38h20.34v-.63c0-2.24-.38-4.15-1.13-5.72"/>
      </g>
      <g class="cls-54">
        <path d="m840.02,538.22h-6.87l-.06-.11c.1-.89.28-1.68.55-2.38.27-.7.66-1.25,1.17-1.65.52-.4,1.17-.6,1.98-.6s1.42.17,1.9.49c.48.33.82.8,1.03,1.43.21.62.31,1.38.31,2.27v.56Zm5.23-4.97c-.75-1.57-1.85-2.76-3.3-3.57-1.45-.82-3.22-1.22-5.33-1.22-2.22,0-4.12.51-5.71,1.54-1.59,1.02-2.8,2.43-3.65,4.23-.74,1.58-1.14,3.39-1.23,5.38h20.34v-.62c0-2.25-.38-4.15-1.13-5.72"/>
      </g>
      <g class="cls-33">
        <path d="m819.52,530.67c-1.29-1.47-3.05-2.21-5.28-2.21-1.45,0-2.73.33-3.86.98-1.13.65-2.08,1.56-2.86,2.74l-.28-3.28h-9.73v4.08l3.28.66v5.97h6.87v-3.97c.4-.6.9-1.06,1.49-1.39.59-.32,1.29-.48,2.09-.48,1.07,0,1.89.3,2.46.89.57.59.85,1.59.85,2.99v1.95h6.89v-1.95c0-3.18-.64-5.5-1.93-6.98"/>
      </g>
      <g class="cls-56">
        <path d="m860.89,535.3c.49-.27,1.14-.39,1.97-.34l3.16.15.71-6.31c-.39-.12-.8-.2-1.23-.26-.44-.06-.83-.09-1.17-.09-1.17,0-2.16.32-2.96.95-.8.63-1.47,1.6-2.02,2.9l-.04-.56-.21-2.85h-9.71v4.08l3.26.67v5.97h6.87v-3.05c.43-.56.89-.97,1.37-1.25"/>
      </g>
      <rect x="761.23" y="536.51" width="10.89" height="3.09"/>
      <g class="cls-32">
        <path d="m789.1,538.22h-6.87l-.07-.11c.1-.89.28-1.68.55-2.38.26-.7.65-1.25,1.17-1.65.51-.4,1.17-.6,1.97-.6s1.42.17,1.9.49c.48.33.82.8,1.03,1.43.21.62.31,1.38.31,2.27v.56Zm5.23-4.97c-.75-1.57-1.85-2.76-3.3-3.57s-3.22-1.22-5.32-1.22c-2.22,0-4.12.51-5.71,1.54-1.59,1.02-2.81,2.43-3.65,4.23-.74,1.58-1.14,3.39-1.23,5.38h20.34v-.62c0-2.25-.38-4.15-1.13-5.72"/>
      </g>
      <g class="cls-53">
        <path class="cls-55" d="m759.57,603.43h-13.91v5.84h13.91v-5.84Zm-33.33,17.76v-4.49l-2.47-.74v-13.01c.44-.66.99-1.17,1.65-1.53.66-.36,1.43-.53,2.31-.53,1.19,0,2.09.33,2.72.99.62.66.94,1.76.94,3.31v10.78l-2.73.74v4.49h13.51v-4.49l-3.16-.74v-10.78c0-3.51-.71-6.09-2.14-7.72-1.42-1.63-3.37-2.44-5.84-2.44-1.6,0-3.02.36-4.27,1.08-1.25.72-2.3,1.73-3.16,3.03l-.31-3.63h-10.75v4.51l3.63.74v15.22l-3.18.74v4.49h13.24Zm-30.84-6.18c-.7-.59-1.2-1.44-1.52-2.54-.32-1.1-.48-2.39-.48-3.88v-.48c0-1.44.16-2.7.48-3.79.32-1.08.82-1.93,1.52-2.55.7-.62,1.6-.93,2.71-.93s2.03.31,2.73.93c.7.62,1.21,1.47,1.53,2.55.32,1.08.49,2.35.49,3.79v.48c0,1.49-.16,2.78-.49,3.87-.32,1.09-.83,1.94-1.52,2.54-.69.6-1.59.9-2.69.9s-2.06-.3-2.75-.89m9.34,5.02c1.83-1.11,3.23-2.65,4.2-4.62.97-1.97,1.46-4.24,1.46-6.82v-.48c0-2.58-.49-4.85-1.46-6.81-.97-1.96-2.38-3.5-4.21-4.61-1.84-1.11-4.04-1.66-6.62-1.66s-4.79.56-6.62,1.67c-1.84,1.12-3.24,2.65-4.21,4.62-.97,1.96-1.46,4.23-1.46,6.79v.48c0,2.6.49,4.88,1.46,6.85.97,1.97,2.38,3.51,4.23,4.61,1.84,1.1,4.06,1.65,6.66,1.65s4.76-.55,6.59-1.66m-23.12,1.49c.78-.13,1.53-.29,2.24-.5l-.57-5.58c-.3.05-.63.1-1,.14-.37.05-.72.07-1.07.07-.7,0-1.25-.19-1.65-.58-.4-.39-.61-1.04-.61-1.96v-12.32h4.49v-5.29h-4.49v-6.31h-7.55v6.31h-3.37v5.29h3.37v12.34c0,2.97.67,5.15,2.02,6.52,1.35,1.37,3.28,2.05,5.82,2.05.79,0,1.58-.06,2.36-.19m-30.54-15.81c.11-.98.31-1.86.61-2.63.29-.77.72-1.39,1.29-1.83.57-.44,1.3-.67,2.18-.67s1.57.18,2.1.55c.53.37.91.89,1.14,1.58.23.69.34,1.52.34,2.5v.62h-7.6l-.07-.12Zm10.05,15.15c1.64-.55,3.01-1.25,4.12-2.09l-1.9-4.63c-1.09.6-2.17,1.04-3.24,1.33-1.07.28-2.2.43-3.38.43s-2.13-.22-2.93-.66c-.8-.44-1.42-1.04-1.88-1.79-.45-.75-.72-1.62-.82-2.6l.02-.14h14.65v-4.04c0-2.48-.41-4.59-1.25-6.33s-2.05-3.05-3.64-3.95c-1.6-.9-3.56-1.35-5.89-1.35-2.45,0-4.56.57-6.31,1.7-1.76,1.13-3.1,2.69-4.04,4.68-.93,1.99-1.4,4.26-1.4,6.82v.93c0,2.41.51,4.55,1.53,6.45,1.02,1.89,2.46,3.38,4.31,4.46,1.85,1.09,4.02,1.63,6.51,1.63,2.06,0,3.9-.28,5.54-.83m-19.48.33v-4.49l-3.18-.74v-31.81h-11.28v4.51l3.68.74v26.56l-3.2.74v4.49h13.98Zm-31.33-15.48c.11-.98.31-1.86.61-2.63.29-.77.72-1.39,1.29-1.83.57-.44,1.3-.67,2.18-.67s1.57.18,2.1.55c.53.37.91.89,1.14,1.58.23.69.34,1.52.34,2.5v.62h-7.6l-.07-.12Zm10.05,15.15c1.64-.55,3.01-1.25,4.12-2.09l-1.9-4.63c-1.09.6-2.17,1.04-3.24,1.33-1.07.28-2.2.43-3.38.43s-2.13-.22-2.93-.66c-.8-.44-1.42-1.04-1.88-1.79-.45-.75-.72-1.62-.82-2.6l.02-.14h14.65v-4.04c0-2.48-.41-4.59-1.25-6.33-.83-1.73-2.05-3.05-3.64-3.95-1.6-.9-3.56-1.35-5.89-1.35-2.45,0-4.56.57-6.31,1.7-1.76,1.13-3.1,2.69-4.03,4.68-.93,1.99-1.4,4.26-1.4,6.82v.93c0,2.41.51,4.55,1.53,6.45,1.02,1.89,2.46,3.38,4.31,4.46,1.85,1.09,4.02,1.63,6.5,1.63,2.06,0,3.9-.28,5.54-.83m-23.25-19.94l3.32-.9v-4.51h-14.03v4.46l2.59.4-.02.05-11.16,9.95,3.82,3.92,15.48-13.36Zm4.13,20.27v-4.49l-3.06-.81-7.83-10.42-5.01,4.77,4.39,6.12.07.1-1.78.5v4.23h13.22Zm-16.05,0v-4.49l-2.73-.74v-31.81h-11.23v4.51l3.68.74v26.56l-3.2.74v4.49h13.48Zm-21.84-.64c1.95-.76,3.46-1.85,4.55-3.29,1.08-1.43,1.63-3.15,1.63-5.16,0-2.9-1-5.21-3-6.95-2-1.74-4.93-3.17-8.79-4.27-1.71-.6-3.05-1.15-4.01-1.65-.97-.5-1.65-1.02-2.04-1.56-.4-.54-.59-1.15-.59-1.83,0-.84.23-1.55.7-2.12.47-.58,1.1-1.01,1.9-1.3s1.72-.44,2.77-.44c1.22,0,2.33.13,3.33.38,1.01.25,1.79.55,2.36.88l.95,4.68h5.65v-8.05c-1.57-1.22-3.4-2.15-5.51-2.8-2.11-.65-4.53-.94-7.26-.88-2.44.03-4.59.46-6.46,1.28-1.87.82-3.33,1.95-4.4,3.38-1.07,1.43-1.6,3.09-1.6,4.97s.46,3.59,1.36,4.93c.91,1.34,2.29,2.49,4.13,3.46,1.84.97,4.19,1.9,7.04,2.77,1.46.49,2.61.99,3.47,1.49.85.51,1.47,1.06,1.84,1.65.37.59.56,1.27.56,2.03s-.21,1.48-.62,2.05c-.41.58-1.01,1.02-1.8,1.33-.79.31-1.77.46-2.92.46-1.5,0-2.89-.19-4.15-.57-1.27-.38-2.2-.86-2.8-1.45l-.74-4.77h-5.86v8.67c2.09,1.44,4.2,2.44,6.34,2.99,2.14.55,4.54.83,7.22.83s4.84-.38,6.79-1.14"/>
      </g>
      <g class="cls-40">
        <path class="cls-55" d="m752.73,737.8c1.21-.67,2.89-1,5.04-1h.5c1.52,0,2.85.15,3.99.45,1.14.3,2.03.79,2.67,1.45.64.67.97,1.53.97,2.6,0,.84-.2,1.59-.61,2.24-.41.65-.97,1.2-1.7,1.64h-10.65c-.67-.44-1.17-1-1.51-1.68-.34-.67-.51-1.42-.51-2.25,0-1.64.61-2.79,1.82-3.45m-6.78,5c.62,1.1,1.53,2.04,2.74,2.84l-3.17.57v9.79h4.5l.74-3.19h31.92v-11.29h-4.53l-.74,3.67h-8.88c1.03-.76,1.83-1.65,2.39-2.68.56-1.03.85-2.24.85-3.63,0-2-.56-3.73-1.69-5.18-1.13-1.45-2.7-2.57-4.73-3.35-2.02-.78-4.39-1.17-7.09-1.17h-.5c-2.54,0-4.77.38-6.69,1.16-1.92.77-3.41,1.88-4.47,3.35-1.06,1.46-1.58,3.21-1.58,5.24,0,1.49.31,2.79.93,3.88m15.1-31.27c.98.11,1.87.31,2.64.61.78.29,1.39.73,1.83,1.3.44.57.67,1.3.67,2.19s-.18,1.58-.55,2.11-.89.91-1.58,1.14c-.69.23-1.53.35-2.51.35h-.62v-7.62l.12-.07Zm-15.2,10.09c.55,1.64,1.25,3.02,2.1,4.13l4.64-1.91c-.6-1.09-1.05-2.18-1.33-3.25-.28-1.07-.43-2.2-.43-3.39s.22-2.14.67-2.94c.45-.8,1.04-1.43,1.8-1.88.75-.45,1.62-.73,2.61-.82l.14.02v14.7h4.05c2.49,0,4.61-.42,6.35-1.25,1.74-.83,3.06-2.05,3.97-3.66.9-1.6,1.36-3.57,1.36-5.91,0-2.46-.57-4.57-1.7-6.34-1.14-1.76-2.7-3.11-4.69-4.05-1.99-.94-4.28-1.41-6.85-1.41h-.93c-2.41,0-4.57.51-6.47,1.54-1.9,1.02-3.39,2.46-4.48,4.32-1.09,1.86-1.63,4.03-1.63,6.53,0,2.06.28,3.92.83,5.56m1.39-23.69c1.48,1.78,3.46,2.67,5.92,2.67,2.27,0,4-.74,5.19-2.2,1.19-1.47,2.13-3.74,2.81-6.82.29-1.27.59-2.23.92-2.88.33-.65.67-1.09,1.05-1.32.37-.23.76-.35,1.15-.35.68,0,1.25.29,1.69.87.44.58.67,1.44.67,2.58,0,.65-.08,1.24-.23,1.76s-.37.98-.65,1.38l-3.33.74v5.19l7.38-.02c.56-1.11,1.01-2.51,1.37-4.19s.54-3.49.54-5.43c0-2.41-.37-4.37-1.11-5.87-.74-1.5-1.71-2.6-2.9-3.3-1.2-.7-2.51-1.05-3.94-1.05-2.11,0-3.85.72-5.23,2.15-1.37,1.44-2.37,3.67-2.99,6.71-.37,1.95-.8,3.25-1.31,3.88-.51.63-1.08.95-1.72.95s-1.2-.29-1.64-.86c-.44-.57-.67-1.59-.67-3.05,0-.78.08-1.46.24-2.05.16-.59.36-1.1.6-1.55l3.72-.95v-5.22l-7.65.1c-.67,1.46-1.18,3.04-1.55,4.75-.36,1.71-.55,3.54-.55,5.51,0,3.46.74,6.08,2.23,7.86m3.99-38c.48-.55,1.14-.82,2-.82s1.64.35,2.24,1.06c.6.71.9,1.73.9,3.06v3.02h-3.91c-.6-.46-1.08-1.06-1.43-1.81-.35-.75-.52-1.52-.52-2.31,0-.92.24-1.65.71-2.2m-5.34,3.82c.59,1.05,1.38,1.98,2.38,2.79-.49.08-.98.22-1.48.43-.49.21-.92.4-1.29.6v9.15h4.5l.43-2.72c.32-.06.65-.1.99-.11.34,0,.69-.01,1.06-.01h10.1c2.94,0,5.2-1,6.79-3,1.59-2,2.38-4.72,2.38-8.17,0-1.94-.24-3.7-.71-5.29-.48-1.59-1.07-3.08-1.79-4.48l-6.91.1v5.43l3.34.55c.3.44.53.93.69,1.46.16.53.24,1.12.24,1.77,0,1.35-.37,2.35-1.12,3.01-.75.66-1.69.99-2.83.99h-1.71v-3.07c0-3.86-.77-6.76-2.3-8.72-1.53-1.95-3.51-2.93-5.92-2.93s-4.24.77-5.63,2.3c-1.39,1.53-2.08,3.57-2.08,6.11,0,1.49.29,2.76.88,3.81m5.5-30.01c.33-.65.83-1.2,1.5-1.64h10.58c.73.38,1.31.91,1.75,1.58.44.68.65,1.47.65,2.39,0,1.05-.31,1.9-.92,2.55-.61.65-1.48,1.13-2.61,1.44-1.13.31-2.49.46-4.1.46h-.5c-2.24,0-3.94-.35-5.11-1.04-1.17-.69-1.75-1.86-1.75-3.51,0-.84.17-1.59.5-2.24m-4.81,9.94c1.05,1.45,2.53,2.56,4.44,3.31,1.91.75,4.16,1.13,6.73,1.13h.5c2.75,0,5.13-.38,7.16-1.13,2.03-.75,3.59-1.85,4.69-3.29,1.1-1.44,1.66-3.19,1.66-5.25,0-1.4-.27-2.63-.81-3.69-.54-1.06-1.31-1.95-2.31-2.67h14.03v-11.24h-4.53l-.74,3.64h-31.89v6.57l3.12.52c-1.17.75-2.07,1.67-2.69,2.76-.62,1.1-.93,2.43-.93,4,0,2.1.52,3.87,1.57,5.32"/>
      </g>
      <g class="cls-44">
        <path class="cls-55" d="m679.67,401.95c-.85-.68-1.49-1.61-1.91-2.79s-.63-2.52-.63-4.02v-.43c0-1.5.21-2.84.63-4.02.42-1.18,1.05-2.11,1.9-2.79.84-.68,1.89-1.02,3.12-1.02s2.3.34,3.15,1.02c.84.68,1.48,1.61,1.91,2.79.43,1.18.64,2.52.64,4.02v.43c0,1.5-.21,2.85-.64,4.02-.43,1.18-1.06,2.11-1.9,2.79-.84.68-1.88,1.02-3.12,1.02s-2.3-.34-3.15-1.02m8.24,2.68c1.42-.92,2.52-2.21,3.3-3.85.78-1.64,1.17-3.52,1.17-5.65v-.43c0-2.12-.39-4-1.17-5.64-.78-1.63-1.88-2.92-3.31-3.86-1.43-.94-3.13-1.4-5.11-1.4s-3.64.47-5.07,1.4c-1.43.94-2.53,2.23-3.31,3.87-.78,1.64-1.17,3.52-1.17,5.63v.43c0,2.11.39,3.99,1.17,5.63.78,1.64,1.88,2.93,3.31,3.86,1.43.93,3.13,1.39,5.11,1.39s3.66-.46,5.08-1.38m-18.94,1.11c.82-.13,1.52-.28,2.09-.45l-.53-2.55c-.32.07-.76.14-1.33.23-.57.09-1.08.13-1.54.13-.69,0-1.23-.24-1.64-.73-.41-.49-.61-1.25-.61-2.27v-12.99h4.65v-2.89h-4.65v-5.16h-3.9v5.16h-3.38v2.89h3.38v12.99c0,2.04.46,3.53,1.39,4.46.93.93,2.19,1.4,3.77,1.4.71,0,1.48-.07,2.3-.2"/>
      </g>
      <path class="cls-37" d="m515.13,348.3h595.56m-595.56-79h595.56m-595.56,136.46h595.56m-595.56,57.87h595.56m-595.28,85.66h595.27m-212.53,292.6V0m29.15,841.89V0M745.11,0v841.89m-230.03-586.95h595.61M657.65,0v841.89M635.79,0v578.12m72.62-366.27h168.33m-361.33,14.36h474.56M810.44,0v841.89M514.64,179.58h596.05M708.41,0v226.21M795.87,0v211.85m314.82,367.27h-595.56m499.38-230.82h-43.47m141.34-122.09h-132.83m131.15-14.36h-319.16m319.16,409.36h-595.56m69.39-215.45V0m29.15,578.12v-172.36m131.18,215.45v-35.91m226.18-122.09v-114.91m43.47,0V0m-29.15,269.3V0"/>
      <line class="cls-37" x1="1081.42" y1="463.71" x2="1110.68" y2="463.71"/>
      <rect class="cls-36" width="1081.42" height="863.15"/>
    </g>
  </g>
</svg>