<svg width="1445" height="295" viewBox="0 0 1445 295" fill="none" xmlns="http://www.w3.org/2000/svg">
<path d="M852.03 242.848C852.03 245.058 851.631 246.963 850.831 248.562C850.032 250.172 848.997 251.478 847.751 252.477C846.493 253.488 845.117 254.205 843.612 254.664C842.107 255.122 840.649 255.346 839.25 255.346C836.44 255.346 834.43 254.24 833.23 252.03C832.031 249.82 831.42 247.163 831.42 244.047C831.42 240.437 832.325 237.569 834.124 235.464C835.276 234.124 836.91 233.03 839.027 232.184H814.524C813.807 233.477 813.196 234.9 812.749 236.452C811.95 239.215 811.55 242.495 811.55 246.316C811.55 249.02 811.903 251.76 812.608 254.523C813.313 257.286 814.419 259.766 815.924 261.977C817.428 264.187 819.439 265.916 821.943 267.174C824.448 268.432 827.516 269.055 831.126 269.055C836.146 269.055 840.238 268.432 843.4 267.174C846.563 265.916 849.35 263.188 851.76 258.967H852.066C852.371 260.378 852.689 261.8 853.041 263.258C853.394 264.716 853.923 266.092 854.617 267.397H874.487C873.487 264.987 872.805 262.729 872.453 260.625C872.1 258.52 871.924 255.557 871.924 251.748V232.207H852.054V242.871L852.03 242.848Z" fill="black"/>
<path d="M847.515 229.515C849.114 228.868 850.619 227.986 852.03 226.881V230.667H871.9V209.116C871.9 205.506 871.524 202.167 870.771 199.11C870.019 196.053 868.585 193.42 866.48 191.209C864.375 188.999 861.413 187.294 857.603 186.095C853.794 184.896 848.773 184.284 842.554 184.284C838.639 184.284 834.947 184.708 831.49 185.566C828.034 186.424 825.012 187.823 822.461 189.775C819.897 191.727 817.875 194.29 816.358 197.453C814.854 200.615 814.101 204.554 814.101 209.269V211.22H832.772V208.963C832.772 205.753 833.571 203.19 835.182 201.285C836.781 199.381 839.191 198.428 842.413 198.428C845.928 198.428 848.409 199.31 849.867 201.062C851.325 202.814 852.054 205.248 852.054 208.363C852.054 211.068 851.454 213.125 850.243 214.536C849.032 215.947 846.881 217.04 843.765 217.852L832.019 221.014C828.41 222.014 825.318 223.178 822.766 224.471C820.203 225.776 818.099 227.41 816.441 229.362C816.088 229.773 815.771 230.22 815.453 230.667H844.129C845.176 230.373 846.293 230.009 847.515 229.515Z" fill="black"/>
<path d="M957.259 232.184H935.578V267.385H957.259V232.184Z" fill="black"/>
<path d="M957.258 177.665H980.737V159.9H912.098V177.665H935.578V230.679H957.258V177.665Z" fill="black"/>
<path d="M986.64 186.389V227.798L987.451 230.679H1006.22L996.692 186.389H986.64Z" fill="black"/>
<path d="M1012.2 230.679V225.612L1011.25 230.679H1012.2Z" fill="black"/>
<path d="M1013.71 282.376C1014.38 281.13 1015 279.777 1015.59 278.296C1017.24 274.134 1018.97 268.69 1020.78 261.965L1028.5 232.184H1013.71V282.376Z" fill="black"/>
<path d="M1010.95 232.184L1009.04 242.389H1008.73L1006.53 232.184H987.863L997.739 267.385C997.433 270.701 996.458 273.358 994.8 275.368C993.154 277.367 990.426 278.367 986.628 278.378V293.428H989.603C994.424 293.428 998.409 293.075 1001.57 292.37C1004.73 291.664 1007.44 290.183 1009.7 287.925C1010.57 287.055 1011.39 286.032 1012.18 284.88V232.184H1010.94H1010.95Z" fill="black"/>
<path d="M975.012 186.389L985.135 222.437V186.389H975.012Z" fill="black"/>
<path d="M1028.88 230.679L1040.35 186.389H1019.57L1013.71 217.616V230.679H1028.88Z" fill="black"/>
<path d="M981.185 293.416H985.135V278.296C983.818 278.237 982.501 278.12 981.185 277.908V293.416Z" fill="black"/>
<path d="M1106.81 256.545C1109.45 250.831 1110.94 242.707 1111.3 232.184H1106.81V256.545Z" fill="black"/>
<path d="M1088.59 246.833C1087.24 251.301 1084.3 253.535 1079.78 253.535C1075.27 253.535 1072.17 251.301 1070.82 246.833C1069.75 243.318 1069.12 238.415 1068.88 232.184H1048.01V293.428H1068.79V259.861H1069.09C1071.3 263.07 1073.79 265.41 1076.55 266.856C1079.31 268.314 1082.65 269.043 1086.55 269.043C1095.03 269.043 1101.29 265.81 1105.29 259.355V232.184H1090.52C1090.29 238.415 1089.65 243.318 1088.58 246.833H1088.59Z" fill="black"/>
<path d="M1106.81 197.053V230.679H1111.35C1111.39 229.444 1111.4 228.186 1111.4 226.893C1111.4 213.76 1109.87 203.813 1106.81 197.065V197.053Z" fill="black"/>
<path d="M1086.56 184.284C1082.34 184.284 1078.82 185.107 1075.95 186.765C1073.09 188.423 1070.5 191.151 1068.2 194.972H1067.89V186.389H1048.02V230.667H1068.85C1068.81 229.444 1068.8 228.198 1068.8 226.881C1068.8 218.051 1069.48 211.409 1070.83 206.941C1072.19 202.473 1075.17 200.239 1079.79 200.239C1084.41 200.239 1087.25 202.473 1088.6 206.941C1089.95 211.409 1090.63 218.051 1090.63 226.881C1090.63 228.198 1090.61 229.456 1090.59 230.667H1105.32V194.184C1101.3 187.588 1095.05 184.273 1086.58 184.273L1086.56 184.284Z" fill="black"/>
<path d="M1162.28 240.132C1161.68 245.246 1160.58 249.067 1158.97 251.572C1157.36 254.076 1154.81 255.334 1151.29 255.334C1149.39 255.334 1147.77 254.805 1146.47 253.758C1145.16 252.7 1144.11 251.301 1143.31 249.549C1142.51 247.798 1141.93 245.787 1141.58 243.53C1141.23 241.272 1141.05 238.933 1141.05 236.534V232.196H1120.42C1120.52 235.299 1120.69 238.403 1120.96 241.507C1121.4 246.622 1122.64 251.242 1124.65 255.358C1126.66 259.473 1129.76 262.788 1133.98 265.292C1138.19 267.797 1144.07 269.055 1151.6 269.055C1161.53 269.055 1168.81 266.598 1173.42 261.683C1173.98 261.072 1174.52 260.437 1175.03 259.755V240.155H1162.28V240.132Z" fill="black"/>
<path d="M1182.15 230.044V225.376C1182.15 219.157 1181.75 213.513 1180.95 208.446C1180.17 203.472 1178.68 199.228 1176.54 195.701V230.056H1182.16L1182.15 230.044Z" fill="black"/>
<path d="M1180.94 240.132H1176.53V257.45C1179.17 252.924 1180.65 247.163 1180.94 240.132Z" fill="black"/>
<path d="M1167.32 187.224C1163.45 185.272 1158.51 184.284 1152.49 184.284C1145.46 184.284 1139.85 185.437 1135.63 187.741C1131.42 190.057 1128.18 193.161 1125.92 197.076C1123.66 200.992 1122.16 205.459 1121.4 210.48C1120.65 215.5 1120.27 220.72 1120.27 226.129C1120.27 227.645 1120.33 229.162 1120.38 230.667H1141.05V230.044H1175.03V193.549C1172.98 190.927 1170.43 188.799 1167.32 187.212V187.224ZM1141.05 217.71V214.548C1141.05 212.643 1141.23 210.738 1141.58 208.822C1141.93 206.917 1142.51 205.189 1143.31 203.625C1144.11 202.073 1145.19 200.815 1146.54 199.863C1147.89 198.91 1149.63 198.428 1151.74 198.428C1153.84 198.428 1155.57 198.852 1156.93 199.71C1158.29 200.568 1159.34 201.815 1160.1 203.472C1160.85 205.13 1161.38 207.141 1161.67 209.492C1161.98 211.855 1162.18 214.583 1162.27 217.699H1141.05V217.71Z" fill="black"/>
<path d="M1234.63 173.773C1235.53 173.773 1236.22 173.82 1236.73 173.926V159.171C1235.2 159.041 1233.67 158.959 1232.14 158.888V173.797C1232.32 173.797 1232.47 173.773 1232.66 173.773H1234.61H1234.63Z" fill="black"/>
<path d="M1236.73 187.33H1232.14V196.876H1236.73V187.33Z" fill="black"/>
<path d="M1236.73 198.381H1232.14V201.474H1236.73V198.381Z" fill="black"/>
<path d="M1224.69 256.333H1203.92V268.314H1224.69V256.333Z" fill="black"/>
<path d="M1230.64 187.33H1224.68V180.252C1224.68 177.947 1225.28 176.29 1226.49 175.29C1227.39 174.538 1228.77 174.067 1230.64 173.879V158.83C1228.96 158.771 1227.27 158.724 1225.58 158.724C1222.27 158.724 1219.26 159.053 1216.55 159.7C1213.85 160.358 1211.56 161.428 1209.7 162.933C1207.84 164.438 1206.41 166.449 1205.41 168.953C1204.41 171.457 1203.9 174.526 1203.9 178.135V187.318H1193.37V196.865H1230.64V187.318V187.33Z" fill="black"/>
<path d="M1224.69 201.474H1230.64V198.381H1193.38V201.474H1203.92V254.828H1224.69V201.474Z" fill="black"/>
<path d="M1299.35 196.876C1298.56 195.136 1297.53 193.549 1296.19 192.15C1294.08 189.94 1291.12 188.235 1287.31 187.036C1283.59 185.86 1278.74 185.26 1272.74 185.237V196.888H1299.35V196.876Z" fill="black"/>
<path d="M1262.93 252.959C1261.73 250.749 1261.12 248.091 1261.12 244.976C1261.12 241.366 1262.02 238.497 1263.82 236.393C1265.38 234.57 1267.85 233.195 1271.23 232.278V219.38L1261.71 221.943C1258.11 222.942 1255.01 224.106 1252.46 225.4C1249.9 226.705 1247.79 228.339 1246.14 230.291C1244.48 232.243 1243.26 234.606 1242.44 237.369C1241.64 240.132 1241.25 243.412 1241.25 247.233C1241.25 249.737 1241.56 252.277 1242.16 254.817H1264.44C1263.84 254.323 1263.33 253.7 1262.91 252.947L1262.93 252.959Z" fill="black"/>
<path d="M1271.24 185.248C1267.71 185.319 1264.35 185.719 1261.2 186.495C1257.74 187.353 1254.72 188.752 1252.17 190.704C1250.04 192.338 1248.3 194.407 1246.9 196.865H1271.25V185.237L1271.24 185.248Z" fill="black"/>
<path d="M1246.07 198.381C1244.56 201.544 1243.81 205.483 1243.81 210.198V212.149H1262.48V209.892C1262.48 206.682 1263.28 204.119 1264.89 202.214C1266.35 200.486 1268.46 199.545 1271.25 199.393V198.37H1246.09L1246.07 198.381Z" fill="black"/>
<path d="M1242.56 256.333C1243.27 258.732 1244.27 260.93 1245.61 262.894C1247.11 265.104 1249.12 266.833 1251.63 268.091C1254.13 269.349 1257.2 269.972 1260.81 269.972C1264.9 269.972 1268.37 269.549 1271.23 268.714V256.333H1242.56Z" fill="black"/>
<path d="M1272.74 268.208C1272.86 268.161 1272.98 268.126 1273.08 268.091C1276.25 266.833 1279.03 264.105 1281.44 259.884H1281.75C1282.06 261.295 1282.37 262.718 1282.73 264.175C1283.08 265.633 1283.61 267.009 1284.3 268.314H1304.17C1303.17 265.904 1302.49 263.646 1302.14 261.542C1301.91 260.178 1301.76 258.414 1301.68 256.333H1272.73V268.208H1272.74Z" fill="black"/>
<path d="M1301.61 210.056C1301.61 206.447 1301.23 203.108 1300.48 200.051C1300.34 199.475 1300.15 198.934 1299.96 198.381H1272.74V199.393C1275.92 199.498 1278.2 200.357 1279.56 202.003C1281.02 203.755 1281.75 206.188 1281.75 209.304C1281.75 212.008 1281.15 214.066 1279.94 215.477C1278.74 216.887 1276.58 217.981 1273.46 218.792L1272.74 218.98V231.913C1272.74 231.913 1272.82 231.89 1272.86 231.89C1274.17 231.584 1275.62 231.114 1277.22 230.455C1278.82 229.809 1280.33 228.927 1281.74 227.822V243.776C1281.74 245.987 1281.34 247.892 1280.54 249.491C1279.74 251.101 1278.7 252.406 1277.46 253.406C1276.75 253.97 1276.01 254.429 1275.22 254.828H1301.64C1301.63 254.135 1301.62 253.429 1301.62 252.653V210.056H1301.61Z" fill="black"/>
<path d="M1367.92 193.643C1363.05 188.023 1355.8 185.213 1346.17 185.213C1341.35 185.213 1336.94 185.872 1332.92 187.165C1328.9 188.47 1325.44 190.751 1322.54 194.019C1321.76 194.889 1321.03 195.842 1320.35 196.865H1370.27C1369.55 195.736 1368.79 194.643 1367.92 193.643Z" fill="black"/>
<path d="M1375.22 237.298H1355.35C1355.35 243.918 1354.55 248.738 1352.94 251.748C1352.23 253.065 1351.34 254.076 1350.27 254.817H1372.17C1374.2 250.043 1375.22 244.212 1375.22 237.298Z" fill="black"/>
<path d="M1321.1 261.307C1323.66 264.575 1326.87 266.833 1330.73 268.079C1334.6 269.337 1339.14 269.96 1344.36 269.96C1355.4 269.96 1363.3 267.174 1368.07 261.601C1369.4 260.049 1370.53 258.273 1371.49 256.322H1318.09C1318.97 258.191 1319.97 259.86 1321.11 261.307H1321.1Z" fill="black"/>
<path d="M1315.76 207.117C1314.15 212.584 1313.35 219.486 1313.35 227.81C1313.35 236.134 1314 242.742 1315.3 248.209C1315.88 250.631 1316.59 252.83 1317.42 254.817H1339.85C1339.78 254.77 1339.69 254.734 1339.62 254.675C1338.16 253.617 1337.03 251.948 1336.23 249.632C1335.43 247.327 1334.88 244.388 1334.57 240.825C1334.27 237.263 1334.13 232.971 1334.13 227.951C1334.13 223.236 1334.28 219.145 1334.57 215.676C1334.88 212.22 1335.42 209.351 1336.23 207.094C1337.03 204.836 1338.24 203.131 1339.84 201.979C1341.44 200.827 1343.5 200.251 1346.01 200.251C1348.03 200.251 1349.62 200.733 1350.84 201.685C1352.03 202.638 1352.96 203.896 1353.62 205.448C1354.27 206.999 1354.73 208.74 1354.97 210.644C1355.22 212.549 1355.35 214.512 1355.35 216.511H1375.22C1375.22 209.351 1373.87 203.308 1371.18 198.358H1319.41C1317.95 200.862 1316.73 203.778 1315.75 207.094L1315.76 207.117Z" fill="black"/>
<path d="M1435.1 241.06V254.817H1441C1442.57 250.937 1443.48 246.363 1443.71 241.06H1435.1Z" fill="black"/>
<path d="M1406.07 250.478C1405.27 248.726 1404.7 246.716 1404.34 244.458C1403.99 242.201 1403.81 239.861 1403.81 237.463V230.985H1433.6V198.381H1388.51C1386.37 202.214 1384.91 206.541 1384.18 211.409C1383.43 216.429 1383.05 221.649 1383.05 227.058C1383.05 232.172 1383.27 237.298 1383.73 242.413C1384.13 246.951 1385.18 251.066 1386.8 254.817H1409.45C1409.37 254.77 1409.3 254.734 1409.25 254.676C1407.94 253.617 1406.88 252.218 1406.08 250.466L1406.07 250.478ZM1403.81 215.477C1403.81 213.572 1403.99 211.667 1404.34 209.751C1404.7 207.846 1405.27 206.118 1406.07 204.554C1406.87 203.002 1407.95 201.744 1409.3 200.792C1410.66 199.839 1412.4 199.357 1414.5 199.357C1416.61 199.357 1418.33 199.781 1419.7 200.639C1421.05 201.497 1422.11 202.743 1422.86 204.401C1423.61 206.059 1424.14 208.069 1424.44 210.421C1424.74 212.784 1424.94 215.512 1425.04 218.628H1403.81V215.465V215.477Z" fill="black"/>
<path d="M1421.73 252.5C1421.12 253.453 1420.37 254.229 1419.47 254.817H1433.59V241.06H1425.05C1424.45 246.175 1423.34 249.996 1421.73 252.5Z" fill="black"/>
<path d="M1433.6 190.375C1432.5 189.552 1431.36 188.799 1430.09 188.152C1426.22 186.201 1421.29 185.213 1415.27 185.213C1408.23 185.213 1402.63 186.365 1398.41 188.67C1394.61 190.751 1391.62 193.49 1389.41 196.865H1433.61V190.363L1433.6 190.375Z" fill="black"/>
<path d="M1435.1 191.562V196.876H1439.44C1439.36 196.735 1439.29 196.571 1439.2 196.43C1438.06 194.596 1436.69 192.973 1435.11 191.562H1435.1Z" fill="black"/>
<path d="M1435.1 230.985H1444.92V226.317C1444.92 220.097 1444.52 214.454 1443.72 209.386C1443.05 205.201 1441.88 201.544 1440.26 198.393H1435.11V230.996L1435.1 230.985Z" fill="black"/>
<path d="M1396.75 266.198C1400.96 268.702 1406.84 269.96 1414.36 269.96C1422.63 269.96 1429.01 268.232 1433.6 264.834V256.322H1387.45C1389.46 260.413 1392.55 263.705 1396.75 266.198Z" fill="black"/>
<path d="M1435.1 263.599C1435.46 263.27 1435.84 262.953 1436.18 262.588C1437.86 260.801 1439.25 258.708 1440.37 256.333H1435.1V263.599Z" fill="black"/>
<path d="M685.053 229.585C686.064 229.174 687.017 228.645 687.957 228.057V214.324C687.887 214.419 687.84 214.524 687.769 214.607C686.57 216.018 684.407 217.111 681.291 217.922L669.545 221.085C665.936 222.084 662.844 223.248 660.292 224.542C657.729 225.847 655.625 227.481 653.967 229.433C653.638 229.821 653.332 230.244 653.038 230.667H681.914C682.89 230.385 683.925 230.044 685.053 229.585Z" fill="black"/>
<path d="M689.567 230.679H709.437V209.198C709.437 205.589 709.061 202.25 708.308 199.193C707.556 196.136 706.122 193.502 704.017 191.292C701.912 189.081 698.95 187.377 695.14 186.177C693.482 185.648 691.578 185.249 689.461 184.955V206.682C689.52 207.258 689.567 207.834 689.567 208.458C689.567 209.116 689.532 209.727 689.461 210.315V227.046C689.461 227.046 689.532 226.999 689.567 226.975V230.691V230.679Z" fill="black"/>
<path d="M680.079 184.355C676.164 184.355 672.472 184.778 669.016 185.637C665.559 186.495 662.537 187.894 659.986 189.846C657.423 191.797 655.401 194.36 653.884 197.523C652.379 200.686 651.626 204.625 651.626 209.339V211.291H670.297V209.034C670.297 205.824 671.097 203.261 672.707 201.356C674.306 199.451 676.717 198.499 679.938 198.499C683.454 198.499 685.934 199.381 687.392 201.133C687.604 201.391 687.78 201.697 687.957 201.991V184.743C685.593 184.484 682.972 184.343 680.091 184.343L680.079 184.355Z" fill="black"/>
<path d="M690.543 263.305C690.896 264.763 691.425 266.139 692.119 267.444H711.989C710.989 265.034 710.307 262.776 709.954 260.672C709.602 258.567 709.425 255.604 709.425 251.795V232.184H689.556V242.918C689.556 243.553 689.508 244.153 689.45 244.741V259.026H689.556C689.861 260.437 690.179 261.859 690.531 263.317L690.543 263.305Z" fill="black"/>
<path d="M649.075 246.375C649.075 249.079 649.428 251.819 650.133 254.582C650.839 257.344 651.944 259.825 653.449 262.036C654.954 264.246 656.964 265.974 659.469 267.232C661.973 268.49 665.042 269.114 668.651 269.114C673.672 269.114 677.763 268.49 680.926 267.232C683.524 266.198 685.876 264.14 687.968 261.107V249.373C687.228 250.643 686.346 251.713 685.288 252.559C684.03 253.57 682.654 254.288 681.149 254.746C679.644 255.193 678.186 255.428 676.787 255.428C673.977 255.428 671.967 254.323 670.767 252.112C669.568 249.902 668.957 247.245 668.957 244.129C668.957 240.52 669.862 237.651 671.661 235.546C672.837 234.171 674.553 233.054 676.764 232.196H652.109C651.368 233.512 650.756 234.947 650.286 236.534C649.487 239.297 649.087 242.577 649.087 246.398L649.075 246.375Z" fill="black"/>
<path d="M738.114 267.068C740.677 267.62 743.957 267.891 747.978 267.891C750.389 267.891 752.669 267.82 754.833 267.667C756.984 267.515 759.218 267.444 761.534 267.444V252.994C760.829 253.1 760.077 253.171 759.277 253.218C758.478 253.265 757.666 253.288 756.867 253.288C753.857 253.288 751.87 252.606 750.918 251.254C749.965 249.902 749.483 247.621 749.483 244.4V232.16H730.048V259.508C730.577 261.166 731.295 262.588 732.247 263.74C733.599 265.398 735.563 266.503 738.114 267.056V267.068Z" fill="black"/>
<path d="M749.471 200.615H761.511V186.459H749.471V163.286H730.048V230.679H749.471V200.615Z" fill="black"/>
<path d="M728.543 186.459H718.162V200.604H728.543V186.459Z" fill="black"/>
<path d="M37.8583 255.087C35.354 255.087 33.3435 254.382 31.8386 252.983C31.2742 252.453 30.7804 251.83 30.3219 251.148H9.01758C9.95816 253.958 11.1221 256.474 12.58 258.626C14.9903 262.188 18.2471 264.799 22.3621 266.456C26.4772 268.114 31.6387 268.89 37.8701 268.784C43.7958 268.784 48.7809 267.926 52.8489 266.221C56.9169 264.516 60.1972 261.883 62.7133 258.32C64.183 256.239 65.3705 253.829 66.3581 251.148H45.2772C43.5841 253.77 41.1151 255.087 37.8701 255.087H37.8583Z" fill="black"/>
<path d="M28.4532 247.115C27.7008 244.611 27.2187 241.601 27.0188 238.086C26.819 234.57 26.7132 230.761 26.7132 226.646C26.7132 222.531 26.8072 218.722 27.0188 215.206C27.2187 211.691 27.7008 208.681 28.4532 206.176C29.2057 203.672 30.3344 201.709 31.8393 200.31C33.3443 198.91 35.3548 198.205 37.8591 198.205C42.0682 198.205 44.984 200.415 46.5948 204.824C48.1938 209.245 49.005 216.523 49.005 226.646C49.005 236.769 48.2056 244.059 46.5948 248.468C46.442 248.891 46.2656 249.267 46.0892 249.643H66.8762C67.3465 248.174 67.7815 246.645 68.1225 244.999C69.2277 239.685 69.7803 233.559 69.7803 226.634C69.7803 219.709 69.2747 213.29 68.2753 207.964C67.2759 202.649 65.5711 198.181 63.1609 194.56C60.7506 190.951 57.4938 188.258 53.3788 186.506C49.2637 184.755 44.0905 183.92 37.8709 184.026C31.9452 184.026 26.9601 184.954 22.892 186.812C18.824 188.67 15.5437 191.374 13.0276 194.936C10.5233 198.499 8.71268 202.943 7.60749 208.257C6.5023 213.572 5.94971 219.697 5.94971 226.622C5.94971 233.548 6.45527 239.849 7.45465 245.211C7.74858 246.763 8.11306 248.221 8.52456 249.632H29.4644C29.0881 248.856 28.7354 248.021 28.4532 247.092V247.115Z" fill="black"/>
<path d="M97.6568 158.642C95.129 159.3 92.9774 160.335 91.2256 161.757C89.3679 163.262 87.9335 165.273 86.9341 167.777C85.9348 170.281 85.4292 173.35 85.4292 176.959V178.265H97.6568V158.63V158.642Z" fill="black"/>
<path d="M106.204 251.148H99.1616V267.127H106.204V251.148Z" fill="black"/>
<path d="M118.244 200.298V186.154H106.204V179.781H99.1616V249.643H106.204V200.298H118.244Z" fill="black"/>
<path d="M108.014 174.103C109.214 173.103 111.271 172.598 114.187 172.598H116.139C117.044 172.598 117.738 172.645 118.243 172.75V157.995C114.528 157.689 110.813 157.548 107.109 157.548C104.229 157.548 101.595 157.807 99.1729 158.301V178.276H106.263C106.392 176.395 106.956 174.984 108.014 174.103Z" fill="black"/>
<path d="M97.6567 179.781H85.4291V186.154H74.8945V200.298H85.4291V249.643H97.6567V179.781Z" fill="black"/>
<path d="M97.6568 251.148H85.4292V267.127H97.6568V251.148Z" fill="black"/>
<path d="M222.261 251.148H162.204V267.127H222.261V251.148Z" fill="black"/>
<path d="M183.885 159.653H162.204V178.276H183.885V159.653Z" fill="black"/>
<path d="M222.261 249.373H183.873V179.781H162.204V249.643H222.261V249.373Z" fill="black"/>
<path d="M260.496 255.087C257.991 255.087 255.981 254.382 254.476 252.983C253.911 252.453 253.418 251.83 252.959 251.148H231.643C232.584 253.958 233.748 256.474 235.206 258.626C237.616 262.188 240.873 264.799 244.988 266.456C249.103 268.114 254.264 268.89 260.496 268.784C266.421 268.784 271.406 267.926 275.474 266.221C279.542 264.516 282.823 261.883 285.339 258.32C286.808 256.239 287.996 253.829 288.984 251.148H267.903C266.21 253.77 263.741 255.087 260.496 255.087Z" fill="black"/>
<path d="M292.405 226.646C292.405 219.521 291.9 213.301 290.9 207.975C289.901 202.661 288.196 198.193 285.786 194.572C283.376 190.962 280.119 188.27 276.004 186.518C271.889 184.766 266.715 183.932 260.496 184.037C254.57 184.037 249.585 184.966 245.517 186.824C241.449 188.682 238.169 191.386 235.653 194.948C233.148 198.511 231.338 202.955 230.232 208.269C229.127 213.584 228.575 219.709 228.575 226.634C228.575 233.559 229.08 239.861 230.08 245.223C230.374 246.774 230.738 248.232 231.15 249.643H252.089C251.713 248.867 251.36 248.033 251.078 247.104C250.326 244.599 249.844 241.59 249.644 238.074C249.444 234.559 249.338 230.749 249.338 226.634C249.338 222.519 249.432 218.71 249.644 215.194C249.844 211.679 250.326 208.669 251.078 206.165C251.831 203.66 252.959 201.697 254.464 200.298C255.969 198.899 257.98 198.193 260.484 198.193C264.693 198.193 267.609 200.404 269.22 204.813C270.819 209.233 271.63 216.511 271.63 226.634C271.63 236.757 270.831 244.047 269.22 248.456C269.067 248.879 268.891 249.255 268.714 249.632H289.501C289.971 248.162 290.406 246.633 290.747 244.987C291.853 239.673 292.405 233.547 292.405 226.622V226.646Z" fill="black"/>
<path d="M332.756 255.087C330.252 255.087 328.241 254.382 326.737 252.983C326.172 252.453 325.678 251.83 325.22 251.148H303.904C304.844 253.958 306.008 256.474 307.466 258.626C309.877 262.188 313.133 264.799 317.248 266.456C321.363 268.114 326.525 268.89 332.756 268.784C338.682 268.784 343.667 267.926 347.735 266.221C351.803 264.516 355.083 261.883 357.6 258.32C359.069 256.239 360.257 253.829 361.244 251.148H340.163C338.47 253.77 336.001 255.087 332.756 255.087Z" fill="black"/>
<path d="M323.338 247.115C322.586 244.611 322.104 241.601 321.904 238.086C321.704 234.57 321.598 230.761 321.598 226.646C321.598 222.531 321.692 218.722 321.904 215.206C322.104 211.691 322.586 208.681 323.338 206.176C324.091 203.672 325.219 201.709 326.724 200.31C328.229 198.91 330.24 198.205 332.744 198.205C336.953 198.205 339.869 200.415 341.48 204.824C343.079 209.245 343.89 216.523 343.89 226.646C343.89 236.769 343.091 244.059 341.48 248.468C341.327 248.891 341.151 249.267 340.974 249.643H361.761C362.231 248.174 362.666 246.645 363.007 244.999C364.113 239.685 364.665 233.559 364.665 226.634C364.665 219.709 364.16 213.29 363.16 207.964C362.161 202.649 360.456 198.181 358.046 194.56C355.636 190.951 352.379 188.258 348.264 186.506C344.149 184.755 338.975 183.92 332.756 184.026C326.83 184.026 321.845 184.954 317.777 186.812C313.709 188.67 310.429 191.374 307.913 194.936C305.408 198.499 303.598 202.943 302.492 208.257C302.351 208.951 302.246 209.692 302.116 210.409V243.765C302.199 244.235 302.257 244.74 302.34 245.211C302.634 246.763 302.998 248.221 303.41 249.632H324.349C323.973 248.856 323.62 248.021 323.338 247.092V247.115Z" fill="black"/>
<path d="M394.846 159.653H376.552V178.276H394.846V159.653Z" fill="black"/>
<path d="M397.327 159.653H396.352V178.276H397.327V159.653Z" fill="black"/>
<path d="M423.417 267.138H444.898L436.174 251.148H423.417V267.138Z" fill="black"/>
<path d="M394.846 179.781H376.552V249.655H394.846V179.781Z" fill="black"/>
<path d="M397.327 243.506L404.699 233.865L412.918 249.643H421.912V225.035L418.103 218.063L421.912 212.855V186.154H418.549L397.633 216.405H397.327V179.781H396.352V249.643H397.327V243.506Z" fill="black"/>
<path d="M397.327 251.148H396.352V267.127H397.327V251.148Z" fill="black"/>
<path d="M394.846 251.148H376.552V267.127H394.846V251.148Z" fill="black"/>
<path d="M435.351 249.643L423.417 227.787V249.643H435.351Z" fill="black"/>
<path d="M421.912 266.927V251.148H413.693L421.912 266.927Z" fill="black"/>
<path d="M441.429 186.154H423.417V210.797L441.429 186.154Z" fill="black"/>
<path d="M472.598 186.154H451.823V249.655H472.598V186.154Z" fill="black"/>
<path d="M472.598 158.454H451.823V176.219H472.598V158.454Z" fill="black"/>
<path d="M472.598 251.148H451.823V267.127H472.598V251.148Z" fill="black"/>
<path d="M507.964 251.148H487.188V267.127H507.964V251.148Z" fill="black"/>
<path d="M518.957 199.992C522.061 199.992 524.318 200.815 525.729 202.473C527.128 204.131 527.833 207.058 527.833 211.279V249.644H548.609V207.07C548.609 198.946 546.822 193.067 543.271 189.458C539.708 185.848 534.617 184.038 527.986 184.038C523.718 184.038 519.897 184.884 516.523 186.542V200.18C517.287 200.051 518.098 199.992 518.957 199.992Z" fill="black"/>
<path d="M548.608 251.148H527.833V267.127H548.608V251.148Z" fill="black"/>
<path d="M507.364 195.63H507.058V186.142H487.188V249.643H507.964V213.384C507.964 206.235 510.315 201.956 515.018 200.533V187.365C511.926 189.234 509.375 191.985 507.364 195.63Z" fill="black"/>
<path d="M565.092 197.511C563.34 201.473 562.176 205.918 561.624 210.832C561.071 215.747 560.801 220.567 560.801 225.282C560.801 235.393 561.777 243.518 563.74 249.643H584.739V246.375C584.245 245.622 583.822 244.799 583.457 243.87C582.705 241.919 582.199 239.685 581.952 237.169C581.705 234.664 581.576 232.007 581.576 229.186C581.576 223.765 581.705 219.18 581.952 215.418C582.199 211.655 582.728 208.645 583.528 206.388C583.869 205.424 584.28 204.601 584.727 203.86V184.073C579.812 184.284 575.815 185.519 572.758 187.788C569.395 190.292 566.832 193.537 565.08 197.499L565.092 197.511Z" fill="black"/>
<path d="M586.244 266.186C589.336 266.08 592.322 265.21 595.203 263.517C598.26 261.706 600.846 259.308 602.951 256.286H603.257V266.974C603.257 270.983 602.398 274.345 600.693 277.061C598.989 279.777 596.026 281.129 591.817 281.129C590.512 281.129 589.277 280.93 588.125 280.53C587.466 280.306 586.843 280.013 586.244 279.695V294.298C587.267 294.356 588.325 294.38 589.406 294.38C601.552 294.38 610.205 291.77 615.378 286.55C620.54 281.329 623.126 273.499 623.126 263.07V251.16H586.244V266.198V266.186Z" fill="black"/>
<path d="M586.844 201.497C588.243 200.498 590.101 199.992 592.417 199.992C596.532 199.992 599.365 202.05 600.917 206.165C602.469 210.28 603.245 217.252 603.245 227.093C603.245 230.503 603.069 233.642 602.716 236.499C602.364 239.356 601.764 241.79 600.906 243.8C600.047 245.811 598.895 247.386 597.449 248.538C596.849 249.009 596.179 249.361 595.45 249.643H623.115V186.142H603.245V195.172H602.94C600.929 190.963 598.378 188.047 595.262 186.436C592.146 184.825 589.136 184.026 586.232 184.026V202.015C586.432 201.838 586.62 201.638 586.832 201.485L586.844 201.497Z" fill="black"/>
<path d="M581.729 272.699H561.859C561.859 279.624 564.246 284.962 569.008 288.725C572.888 291.793 578.155 293.592 584.739 294.157V278.743C582.74 277.25 581.729 275.227 581.729 272.688V272.699Z" fill="black"/>
<path d="M586.244 248.174V249.643H588.525C587.819 249.361 587.172 249.009 586.62 248.538C586.491 248.421 586.373 248.291 586.244 248.174Z" fill="black"/>
<path d="M567.056 256.827C571.065 262.859 576.968 265.963 584.739 266.186V251.148H564.258C565.057 253.312 565.986 255.205 567.044 256.815L567.056 256.827Z" fill="black"/>
<path d="M591.97 250.278C593.275 250.278 594.427 250.055 595.462 249.655H588.525C589.524 250.055 590.665 250.278 591.97 250.278Z" fill="black"/>
<path d="M45.1717 82.9128H23.4912V108.473H45.1717V82.9128Z" fill="black"/>
<path d="M45.1717 28.7936H23.4912V81.4077H45.1717V28.7936Z" fill="black"/>
<path d="M45.1599 18.9646H68.651V1.19928H0V18.9646H23.4911V27.2888H45.1599V18.9646Z" fill="black"/>
<path d="M98.1507 1.19928H77.3755V27.277H98.1507V1.19928Z" fill="black"/>
<path d="M98.1507 82.9128H77.3755V108.473H98.1507V82.9128Z" fill="black"/>
<path d="M138.795 82.9128H118.02V108.473H138.795V82.9128Z" fill="black"/>
<path d="M118.173 25.5957C114.516 25.5957 111.283 26.1836 108.438 27.2888H127.778C125.039 26.1718 121.853 25.5957 118.173 25.5957Z" fill="black"/>
<path d="M98.1507 81.4077V54.9419C98.1507 46.0064 101.819 41.5503 109.144 41.5503C112.248 41.5503 114.505 42.3734 115.916 44.0311C117.315 45.6889 118.021 48.6165 118.021 52.8374V81.4077H138.796V48.6283C138.796 40.5039 137.009 34.6253 133.458 31.0158C132.635 30.1692 131.706 29.4403 130.718 28.7936H105.428C102.607 30.5102 100.255 32.8734 98.4564 35.9774H98.1507V28.7936H77.3755V81.4077H98.1507Z" fill="black"/>
<path d="M162.381 28.0414V81.4079H174.173V27.7004H161.628V28.0414H162.381Z" fill="black"/>
<path d="M160.876 82.9128H153.398V108.473H160.876V82.9128Z" fill="black"/>
<path d="M174.173 0H153.398V17.7653H174.173V0Z" fill="black"/>
<path d="M160.876 28.7936H153.398V81.4077H160.876V28.7936Z" fill="black"/>
<path d="M174.172 82.9128H162.38V108.473H174.172V82.9128Z" fill="black"/>
<path d="M209.551 82.9128H189.446V108.473H209.551V82.9128Z" fill="black"/>
<path d="M209.539 60.0682C209.539 57.364 209.986 55.0831 210.892 53.2137C211.797 51.356 212.996 49.8511 214.501 48.6989C216.006 47.5466 217.664 46.7119 219.463 46.2181C221.273 45.7125 223.072 45.4656 224.883 45.4656C225.988 45.4656 227.07 45.4891 228.116 45.5361C229.174 45.5832 230.244 45.6655 231.349 45.7595V25.8896C230.75 25.7956 230.115 25.7133 229.468 25.6662C228.81 25.6192 228.187 25.5957 227.587 25.5957C223.272 25.5957 219.604 26.7714 216.594 29.1347C213.584 31.4979 211.021 34.6253 208.916 38.5405H208.611V27.7003H188.741V81.4077H209.516V60.0682H209.539Z" fill="black"/>
<path d="M284.445 94.1997C283.739 94.3055 282.987 94.3761 282.187 94.4231C281.846 94.4466 281.517 94.4466 281.188 94.4584V108.708C282.258 108.673 283.34 108.649 284.457 108.649V94.1997H284.445Z" fill="black"/>
<path d="M273.839 92.4714C272.887 91.1193 272.405 88.8384 272.405 85.6169V76.4109H251.63V88.1682C251.63 92.2833 251.877 95.6929 252.382 98.4089C252.888 101.113 253.817 103.3 255.169 104.958C256.521 106.615 258.484 107.721 261.036 108.273C263.599 108.826 266.879 109.096 270.9 109.096C273.31 109.096 275.591 109.026 277.755 108.873C278.39 108.826 279.036 108.802 279.683 108.779V94.4937C276.732 94.4819 274.78 93.8 273.839 92.4597V92.4714Z" fill="black"/>
<path d="M284.457 27.6651H281.188V41.8092H284.457V27.6651Z" fill="black"/>
<path d="M272.405 4.47955H251.63V27.665H241.096V41.8208H251.63V47.8994H272.405V41.8208H279.683V27.665H272.405V4.47955Z" fill="black"/>
<path d="M272.405 49.4043H251.63V74.9177H272.405V49.4043Z" fill="black"/>
<path d="M293.028 96.61C295.038 100.725 298.142 104.041 302.363 106.545C306.572 109.049 312.451 110.307 319.976 110.307C329.91 110.307 337.188 107.85 341.797 102.935C346.418 98.0209 348.922 90.8372 349.322 81.4078H330.651C330.052 86.5222 328.946 90.3434 327.336 92.8477C325.725 95.352 323.173 96.61 319.658 96.61C317.753 96.61 316.143 96.081 314.838 95.0345C313.532 93.9764 312.474 92.5773 311.675 90.8254C310.875 89.0736 310.299 87.0631 309.947 84.8057C309.594 82.5483 309.417 80.2085 309.417 77.8101V76.4344H288.901C289.007 78.5508 289.136 80.6553 289.324 82.7716C289.771 87.8861 291.005 92.5067 293.016 96.6218L293.028 96.61Z" fill="black"/>
<path d="M311.687 44.9013C312.486 43.3493 313.568 42.0913 314.92 41.1389C316.272 40.1866 318.012 39.7045 320.117 39.7045C322.221 39.7045 323.949 40.1278 325.313 40.9861C326.665 41.8444 327.724 43.0906 328.476 44.7484C328.899 45.6773 329.24 46.7354 329.522 47.8876H348.957C348.099 43.6197 346.735 39.8809 344.807 36.7652C342.597 33.2027 339.563 30.4398 335.695 28.488C331.827 26.5363 326.889 25.5487 320.869 25.5487C313.838 25.5487 308.23 26.7009 304.009 29.0054C299.8 31.3216 296.555 34.4255 294.297 38.3407C292.64 41.2212 291.393 44.4075 290.547 47.8759H310.523C310.84 46.8295 311.216 45.8183 311.687 44.8895V44.9013Z" fill="black"/>
<path d="M288.666 67.4048C288.666 69.9091 288.724 72.4134 288.83 74.9177H309.441V71.32H350.533V66.6523C350.533 60.4327 350.133 54.7891 349.333 49.7217C349.31 49.6159 349.286 49.5101 349.275 49.4043H329.851C329.934 49.8511 330.004 50.2979 330.063 50.7799C330.369 53.1431 330.569 55.8708 330.663 58.9865H309.441V55.8238C309.441 53.9191 309.617 52.0144 309.97 50.098C310.017 49.8511 310.099 49.6394 310.146 49.4043H290.253C290.088 50.1803 289.924 50.9563 289.794 51.7558C289.042 56.7761 288.666 61.9964 288.666 67.4048Z" fill="black"/>
<path d="M362.725 96.61C364.735 100.725 367.839 104.041 372.06 106.545C376.269 109.049 382.148 110.307 389.673 110.307C399.608 110.307 406.886 107.85 411.494 102.935C416.115 98.0209 418.619 90.8372 419.019 81.4078H400.348C399.749 86.5222 398.644 90.3434 397.033 92.8477C395.422 95.352 392.871 96.61 389.355 96.61C387.451 96.61 385.84 96.081 384.535 95.0345C383.23 93.9764 382.172 92.5773 381.372 90.8254C380.573 89.0736 379.996 87.0631 379.644 84.8057C379.291 82.5483 379.115 80.2085 379.115 77.8101V76.4344H358.598C358.704 78.5508 358.833 80.6553 359.021 82.7716C359.468 87.8861 360.703 92.5067 362.713 96.6218L362.725 96.61Z" fill="black"/>
<path d="M381.384 44.9013C382.183 43.3493 383.265 42.0913 384.617 41.1389C385.969 40.1866 387.709 39.7045 389.814 39.7045C391.918 39.7045 393.647 40.1278 395.011 40.9861C396.363 41.8444 397.421 43.0906 398.173 44.7484C398.597 45.6773 398.938 46.7354 399.22 47.8876H418.655C417.796 43.6197 416.432 39.8809 414.504 36.7652C412.294 33.2027 409.26 30.4398 405.392 28.488C401.524 26.5363 396.586 25.5487 390.566 25.5487C383.535 25.5487 377.927 26.7009 373.706 29.0054C369.497 31.3216 366.252 34.4255 363.995 38.3407C362.337 41.2212 361.091 44.4075 360.244 47.8759H380.22C380.537 46.8295 380.914 45.8183 381.384 44.8895V44.9013Z" fill="black"/>
<path d="M358.363 67.4048C358.363 69.9091 358.422 72.4134 358.528 74.9177H379.138V71.32H420.23V66.6523C420.23 60.4327 419.831 54.7891 419.031 49.7217C419.008 49.6159 418.984 49.5101 418.972 49.4043H399.549C399.632 49.8511 399.702 50.2979 399.761 50.7799C400.067 53.1431 400.266 55.8708 400.36 58.9865H379.138V55.8238C379.138 53.9191 379.315 52.0144 379.668 50.098C379.715 49.8511 379.797 49.6394 379.844 49.4043H359.951C359.786 50.1803 359.621 50.9563 359.492 51.7558C358.74 56.7761 358.363 61.9964 358.363 67.4048Z" fill="black"/>
<path d="M492.479 76.4226H471.704V108.649H492.479V76.4226Z" fill="black"/>
<path d="M451.834 54.9068C451.834 52.8257 452.046 50.9916 452.446 49.3926H443.545V74.906H451.834V54.9068Z" fill="black"/>
<path d="M442.028 49.4043H431.059V74.9177H442.028V49.4043Z" fill="black"/>
<path d="M462.827 41.5152C465.931 41.5152 468.188 42.3382 469.599 43.996C470.375 44.9013 470.916 46.2181 471.269 47.8876H492.455C492.35 40.1278 490.586 34.4725 487.129 30.9688C483.567 27.3593 478.476 25.5487 471.845 25.5487C467.33 25.5487 463.309 26.4775 459.805 28.3352C456.29 30.1929 453.433 33.1322 451.223 37.1414H450.917V27.6533H443.521V47.8759H452.869C454.432 43.6197 457.748 41.5034 462.803 41.5034L462.827 41.5152Z" fill="black"/>
<path d="M442.028 27.6651H431.059V47.8877H442.028V27.6651Z" fill="black"/>
<path d="M451.834 76.4226H443.545V108.649H451.834V76.4226Z" fill="black"/>
<path d="M442.028 76.4226H431.059V108.649H442.028V76.4226Z" fill="black"/>
<path d="M492.479 49.4043H471.516C471.645 50.4272 471.715 51.5559 471.715 52.8139V74.9294H492.491V49.416L492.479 49.4043Z" fill="black"/>
<path d="M558.931 47.8993L551.936 1.17572H537.78V37.4941L539.673 47.8993H558.931Z" fill="black"/>
<path d="M564.846 108.649H574.969L579.954 76.4226H564.846V108.649Z" fill="black"/>
<path d="M609.288 74.9177L605.22 49.4043H590.206L594.145 74.9177H609.288Z" fill="black"/>
<path d="M580.177 74.9177L584.128 49.4043H569.102L565.045 74.9177H580.177Z" fill="black"/>
<path d="M563.341 108.649V77.3279L563.2 76.4226H544.87L550.737 108.649H563.341Z" fill="black"/>
<path d="M610.499 80.6552H610.194L609.523 76.4226H594.38L599.353 108.649H623.597L629.464 76.4226H611.134L610.499 80.6552Z" fill="black"/>
<path d="M531.172 1.17572L536.275 29.2287V1.17572H531.172Z" fill="black"/>
<path d="M587.02 30.6749H587.314L589.971 47.8993H604.985L597.554 1.17572H576.779L569.349 47.8993H584.351L587.02 30.6749Z" fill="black"/>
<path d="M559.155 49.4043H539.944L544.6 74.9177H562.976L559.155 49.4043Z" fill="black"/>
<path d="M629.734 74.9177L634.378 49.4043H615.179L611.357 74.9177H629.734Z" fill="black"/>
<path d="M643.16 1.17572H622.385L615.401 47.8993H634.66L643.16 1.17572Z" fill="black"/>
<path d="M667.098 50.2508C667.098 49.9569 667.145 49.6865 667.157 49.4043H657.951V52.5082H667.098V50.2508Z" fill="black"/>
<path d="M650.768 70.6381C649.71 71.8962 648.84 73.3305 648.135 74.906H656.447V66.0998C654.19 67.3461 652.273 68.8392 650.768 70.6264V70.6381Z" fill="black"/>
<path d="M648.429 52.5082H656.447V49.4043H648.487C648.487 49.7923 648.44 50.1568 648.44 50.5565V52.5082H648.429Z" fill="black"/>
<path d="M686.369 84.1119C686.369 86.3223 685.969 88.227 685.17 89.826C684.37 91.4368 683.336 92.7418 682.089 93.7412C680.831 94.7523 679.456 95.4695 677.951 95.9281C676.446 96.3748 674.988 96.61 673.589 96.61C670.779 96.61 668.768 95.5048 667.569 93.2944C666.37 91.084 665.758 88.4269 665.758 85.3112C665.758 81.7017 666.664 78.8329 668.463 76.7283C668.557 76.6225 668.674 76.5167 668.768 76.4109H657.963V109.12C660.127 109.896 662.608 110.296 665.453 110.296C670.473 110.296 674.565 109.672 677.727 108.414C680.89 107.156 683.677 104.429 686.087 100.208H686.393C686.698 101.619 687.016 103.041 687.368 104.499C687.721 105.957 688.25 107.333 688.944 108.638H708.814C707.814 106.227 707.133 103.97 706.78 101.866C706.427 99.761 706.251 96.7981 706.251 92.9887V76.4109H686.381V84.1002L686.369 84.1119Z" fill="black"/>
<path d="M647.076 77.716C646.277 80.479 645.877 83.7593 645.877 87.5804C645.877 90.2846 646.23 93.024 646.935 95.787C647.641 98.55 648.746 101.031 650.251 103.241C651.756 105.452 653.766 107.18 656.27 108.438C656.329 108.473 656.4 108.485 656.459 108.52V76.4344H647.535C647.382 76.8577 647.217 77.281 647.088 77.7278L647.076 77.716Z" fill="black"/>
<path d="M656.446 31.3451C654.06 33.2615 652.131 35.7188 650.697 38.7287C649.486 41.2683 648.792 44.3487 648.545 47.8877H656.446V31.3451Z" fill="black"/>
<path d="M706.216 49.4043H686.358C686.358 49.4866 686.37 49.5689 686.37 49.6512C686.37 52.3554 685.77 54.4129 684.559 55.8238C683.36 57.2347 681.196 58.3281 678.081 59.1394L666.335 62.3021C663.114 63.1956 660.327 64.2185 657.94 65.359V74.9294H670.556C672.308 73.7537 674.612 72.8484 677.481 72.237C678.786 71.9313 680.244 71.461 681.843 70.8026C683.442 70.156 684.947 69.2742 686.358 68.169V74.9294H706.228V50.4154C706.228 50.0744 706.204 49.757 706.204 49.416L706.216 49.4043Z" fill="black"/>
<path d="M667.263 47.8994C667.569 45.7713 668.31 43.9842 669.509 42.5733C671.108 40.6686 673.518 39.7163 676.74 39.7163C680.255 39.7163 682.736 40.5981 684.194 42.3499C685.358 43.7608 686.04 45.6184 686.263 47.8994H706.18C706.039 45.2422 705.698 42.7379 705.122 40.3982C704.37 37.3413 702.935 34.7076 700.831 32.4973C698.726 30.2869 695.763 28.5821 691.954 27.3828C688.144 26.1836 683.124 25.5722 676.904 25.5722C672.989 25.5722 669.297 25.9955 665.841 26.8537C662.878 27.5827 660.268 28.7349 657.975 30.2751V47.9111H667.287L667.263 47.8994Z" fill="black"/>
<path d="M720.489 47.8995H726.168V27.6651H714.81L720.489 47.8995Z" fill="black"/>
<path d="M720.983 134.692H726.168V119.631C724.44 119.619 722.711 119.478 720.983 119.184V134.692Z" fill="black"/>
<path d="M728.073 74.9177H746.649L741.17 49.4043H727.673V73.4715L728.073 74.9177Z" fill="black"/>
<path d="M726.168 49.4043H720.912L726.168 68.1102V49.4043Z" fill="black"/>
<path d="M780.146 27.6651H759.37L755.573 47.8995H774.914L780.146 27.6651Z" fill="black"/>
<path d="M748.836 83.6652H748.53L746.978 76.4227H728.495L737.537 108.649C737.231 111.965 736.255 114.622 734.597 116.633C733.128 118.408 730.812 119.396 727.661 119.596V134.692H729.401C734.221 134.692 738.207 134.339 741.37 133.634C744.532 132.928 747.237 131.447 749.494 129.19C751.751 126.932 753.715 123.722 755.361 119.56C757.019 115.398 758.747 109.955 760.558 103.229L767.506 76.4109H750.188L748.824 83.6534L748.836 83.6652Z" fill="black"/>
<path d="M750.482 74.9177H767.906L774.514 49.4043H755.279L750.482 74.9177Z" fill="black"/>
<path d="M740.841 47.8995L736.491 27.6651H727.673V47.8995H740.841Z" fill="black"/>
<path d="M826.364 62.1375L813.866 57.9284C810.35 56.8232 807.964 55.4711 806.717 53.8603C805.671 52.52 805.083 51.0268 804.907 49.4043H784.978C784.978 49.5924 784.955 49.7688 784.955 49.9451C784.955 55.6592 786.412 60.3621 789.317 64.0186C792.221 67.6869 796.547 70.5204 802.261 72.5192L808.892 74.9059H842.495C841.884 73.3892 841.131 72.0019 840.202 70.7791C837.498 67.2166 832.877 64.3361 826.352 62.1257L826.364 62.1375Z" fill="black"/>
<path d="M807.763 41.8914C809.715 40.4335 811.996 39.7045 814.618 39.7045C818.027 39.7045 820.414 40.6804 821.766 42.6439C822.648 43.9137 823.236 45.6655 823.541 47.8876H842.435C842.294 40.9038 840.06 35.4601 835.687 31.5685C831.172 27.5592 824.2 25.5487 814.759 25.5487C809.444 25.5487 804.894 26.2071 801.132 27.5004C797.37 28.8055 794.277 30.5691 791.879 32.7677C789.469 34.9781 787.717 37.5647 786.612 40.5158C785.742 42.8555 785.224 45.3128 785.048 47.8759H804.859C804.977 45.2422 805.941 43.2317 807.775 41.8796L807.763 41.8914Z" fill="black"/>
<path d="M816.876 77.7983C818.886 78.5978 820.638 79.6794 822.143 81.0315C823.648 82.3836 824.4 84.3706 824.4 86.9807C824.4 90.1905 823.448 92.6007 821.543 94.2115C819.639 95.8222 817.076 96.6217 813.866 96.6217C810.35 96.6217 807.67 95.5401 805.812 93.3885C803.954 91.2369 803.026 88.4034 803.026 84.8879V82.1837H784.355V85.0408C784.355 88.956 784.802 92.4949 785.707 95.6576C786.612 98.8204 788.188 101.501 790.445 103.711C792.703 105.922 795.76 107.58 799.628 108.673C803.484 109.778 808.328 110.331 814.16 110.331C818.569 110.331 822.613 109.884 826.282 108.979C829.95 108.073 833.101 106.568 835.77 104.464C838.427 102.359 840.508 99.7257 842.013 96.5629C843.518 93.4002 844.27 89.6614 844.27 85.3465C844.27 81.9956 843.847 79.0328 843.036 76.4462H813.066L816.864 77.8218L816.876 77.7983Z" fill="black"/>
<path d="M823.801 51.8969H842.472V49.3926H823.707C823.766 50.1803 823.801 51.0033 823.801 51.8969Z" fill="black"/>
<path d="M564.845 76.4224V76.2111L564.81 76.4224H564.845Z" fill="black"/>
</svg>
