<svg width="1327" height="620" viewBox="0 0 1327 620" fill="none" xmlns="http://www.w3.org/2000/svg">
<path d="M236.348 87.8408V0.552246H0V303.781H367.394V87.8408H236.348ZM160.341 85.3509H97.0932V22.1153H160.341V85.3509ZM291.303 238.413H162.485V175.165H291.303V238.413Z" fill="black"/>
<path d="M654.646 1.98145H592.245V302.065H654.646V1.98145Z" fill="black"/>
<path d="M670.471 315H585.774V399.697H670.471V315Z" fill="black"/>
<path d="M805.66 315H743.389V399.618H805.66V315Z" fill="black"/>
<path d="M670.419 427.013H585.788V534.28H670.419V427.013Z" fill="black"/>
<path d="M670.419 427.013H743.39V399.618L670.471 399.696L670.419 427.013Z" fill="black"/>
<path d="M805.62 427.013H743.389V534.057H805.62V427.013Z" fill="black"/>
<path d="M824.287 337.056V620H1026.64V481.749H1165.98V620H1367.47V337.056H824.287ZM1165.98 446.4H1026.64V383.88H1165.98V446.4Z" fill="black"/>
<path d="M534.573 1.95801H384.275V299.969H403.336V171.127H534.573V299.969H575.364V1.95801H534.573ZM532.249 120.924H496.736V40.0805H532.249V120.924Z" fill="black"/>
<path d="M236.348 87.8408V0.552246H0V303.781H367.394V87.8408H236.348ZM160.341 85.3509H97.0932V22.1153H160.341V85.3509ZM291.303 238.413H162.485V175.165H291.303V238.413Z" fill="black"/>
<path d="M654.646 1.98145H592.245V302.065H654.646V1.98145Z" fill="black"/>
<path d="M670.471 315H585.774V399.697H670.471V315Z" fill="black"/>
<path d="M805.66 315H743.389V399.618H805.66V315Z" fill="black"/>
<path d="M670.419 427.013H585.788V534.28H670.419V427.013Z" fill="black"/>
<path d="M670.419 427.013H743.39V399.618L670.471 399.696L670.419 427.013Z" fill="black"/>
<path d="M805.62 427.013H743.389V534.057H805.62V427.013Z" fill="black"/>
<path d="M824.287 337.056V620H1026.64V481.749H1165.98V620H1367.47V337.056H824.287ZM1165.98 446.4H1026.64V383.88H1165.98V446.4Z" fill="black"/>
<path d="M534.573 1.95801H384.275V299.969H403.336V171.127H534.573V299.969H575.364V1.95801H534.573ZM532.249 120.924H496.736V40.0805H532.249V120.924Z" fill="black"/>
</svg>
