<svg width="152" height="218" viewBox="0 0 152 218" fill="none" xmlns="http://www.w3.org/2000/svg">
<g clip-path="url(#clip0_201_868)">
<path d="M10.9835 13.6753C12.4178 12.3785 13.1251 10.8067 13.1251 8.94006C13.1251 7.91835 12.909 6.89663 12.4571 5.89456C12.0248 4.91214 11.455 4.06726 10.728 3.41886C10.001 2.77047 9.11686 2.31855 8.07549 2.04348C7.03413 1.7684 5.65874 1.63086 3.91003 1.63086H0V15.8563H14.0486C13.2823 14.8346 12.2606 14.1076 11.0031 13.6753H10.9835ZM8.37022 11.8677C7.68252 12.5161 6.62151 12.8304 5.14788 12.8304H3.91003V5.24616H5.28542C6.62151 5.24616 7.62358 5.56054 8.33092 6.20894C9.03826 6.83769 9.37228 7.78081 9.37228 8.99901C9.37228 10.2172 9.03826 11.2193 8.35057 11.8677H8.37022Z" fill="#C92B1D"/>
<path d="M24.3838 15.2865H34.5224V11.5926H24.3838V5.34441H34.8367V1.63086H20.4541V15.8563H24.3838V15.2865Z" fill="#C92B1D"/>
<path d="M42.6565 14.756C42.6565 11.9856 43.58 9.6474 45.4269 7.74151C47.2542 5.81597 49.5138 4.8532 52.2056 4.8532C54.642 4.8532 56.9802 5.79632 59.2594 7.70221V3.04554C57.0784 1.7684 54.8188 1.13965 52.4807 1.13965C48.1973 1.13965 44.6999 2.73117 41.9884 5.91421C39.7878 8.5078 38.6875 11.4747 38.6875 14.7953C38.6875 15.149 38.6875 15.5026 38.7268 15.8563H42.7154C42.6761 15.5026 42.6565 15.1293 42.6565 14.756Z" fill="#C92B1D"/>
<path d="M74.6832 8.82213L77.768 15.8563H81.8745L74.7618 0L67.374 15.8563H71.4609L74.6832 8.82213Z" fill="#C92B1D"/>
<path d="M108.754 1.63086H104.824V15.8563H108.754V1.63086Z" fill="#C92B1D"/>
<path d="M93.3887 1.63086H89.459V15.8563H93.3887V1.63086Z" fill="#C92B1D"/>
<path d="M128.952 15.3456C127.969 14.1077 126.417 13.0664 124.315 12.2215L121.721 11.1605C119.835 10.3745 118.892 9.35281 118.892 8.09531C118.892 7.17183 119.246 6.40555 119.973 5.79645C120.7 5.18735 121.603 4.87297 122.684 4.87297C123.568 4.87297 124.295 5.04981 124.865 5.40348C125.415 5.71785 125.965 6.3859 126.574 7.42726L129.758 5.54102C128.068 2.61341 125.73 1.15942 122.723 1.15942C120.503 1.15942 118.637 1.82747 117.143 3.14391C115.65 4.46035 114.903 6.09117 114.903 8.05601C114.903 10.964 116.691 13.1646 120.248 14.6775L122.763 15.7189C122.881 15.7778 122.998 15.8171 123.097 15.8761H129.345C129.227 15.6992 129.109 15.5224 128.972 15.3652L128.952 15.3456Z" fill="#C92B1D"/>
<path d="M139.091 15.2865H149.249V11.5926H139.091V5.34441H149.544V1.63086H135.161V15.8563H139.091V15.2865Z" fill="#C92B1D"/>
<path d="M10.9835 34.8565C12.4178 33.5597 13.1251 31.9878 13.1251 30.1212C13.1251 29.0995 12.909 28.0778 12.4571 27.0757C12.0248 26.0933 11.455 25.2484 10.728 24.6C10.001 23.9516 9.11686 23.4997 8.07549 23.2246C7.03413 22.9496 5.65874 22.812 3.91003 22.812H0V37.0375H14.0486C13.2823 36.0157 12.2606 35.2887 11.0031 34.8565H10.9835ZM8.37022 33.0488C7.68252 33.6972 6.62151 34.0116 5.14788 34.0116H3.91003V26.4273H5.28542C6.62151 26.4273 7.62358 26.7417 8.33092 27.3901C9.03826 28.0188 9.37228 28.962 9.37228 30.1802C9.37228 31.3984 9.03826 32.4004 8.35057 33.0488H8.37022Z" fill="#C92B1D"/>
<path d="M24.3838 36.4676H34.5224V32.7738H24.3838V26.5059H34.8367V22.812H20.4541V37.0375H24.3838V36.4676Z" fill="#C92B1D"/>
<path d="M42.6565 35.9371C42.6565 33.1667 43.58 30.8286 45.4269 28.9227C47.2542 26.9971 49.5138 26.0343 52.2056 26.0343C54.642 26.0343 56.9802 26.9775 59.2594 28.8834V24.2267C57.0784 22.9496 54.8188 22.3208 52.4807 22.3208C48.1973 22.3208 44.6999 23.9123 41.9884 27.0954C39.7878 29.689 38.6875 32.6559 38.6875 35.9764C38.6875 36.3301 38.6875 36.6838 38.7268 37.0375H42.7154C42.6761 36.6838 42.6565 36.3105 42.6565 35.9371Z" fill="#C92B1D"/>
<path d="M74.6832 29.9836L77.768 37.0374H81.8745L74.7618 21.1812L67.374 37.0374H71.4609L74.6832 29.9836Z" fill="#C92B1D"/>
<path d="M108.754 22.812H104.824V37.0375H108.754V22.812Z" fill="#C92B1D"/>
<path d="M93.3887 22.812H89.459V37.0375H93.3887V22.812Z" fill="#C92B1D"/>
<path d="M128.952 36.5069C127.969 35.2691 126.417 34.2277 124.315 33.3828L121.721 32.3218C119.835 31.5359 118.892 30.5142 118.892 29.2567C118.892 28.3332 119.246 27.5669 119.973 26.9578C120.7 26.3487 121.603 26.0343 122.684 26.0343C123.568 26.0343 124.295 26.2112 124.865 26.5649C125.415 26.8792 125.965 27.5473 126.574 28.5886L129.758 26.7024C128.068 23.7748 125.73 22.3208 122.723 22.3208C120.503 22.3208 118.637 22.9888 117.143 24.3053C115.65 25.6217 114.903 27.2525 114.903 29.2174C114.903 32.1254 116.691 34.326 120.248 35.8389L122.763 36.8803C122.881 36.9392 122.998 36.9785 123.097 37.0375H129.345C129.227 36.8606 129.109 36.6838 128.972 36.5266L128.952 36.5069Z" fill="#C92B1D"/>
<path d="M139.091 36.4676H149.249V32.7738H139.091V26.5059H149.544V22.812H135.161V37.0375H139.091V36.4676Z" fill="#C92B1D"/>
<path d="M138.325 79.3404C139.621 80.7747 141.193 81.4821 143.06 81.4821C144.082 81.4821 145.103 81.2659 146.105 80.814C147.088 80.3818 147.933 79.8119 148.581 79.085C149.229 78.358 149.681 77.4738 149.956 76.4324C150.231 75.3911 150.369 74.0157 150.369 72.267V68.3569H136.144V82.4055C137.165 81.6392 137.892 80.6175 138.325 79.36V79.3404ZM140.132 76.7271C139.484 76.0395 139.169 74.9784 139.169 73.5048V72.267H146.754V73.6423C146.754 74.9784 146.439 75.9805 145.791 76.6878C145.162 77.3952 144.219 77.7292 143.001 77.7292C141.783 77.7292 140.781 77.3952 140.132 76.7075V76.7271Z" fill="#C92B1D"/>
<path d="M136.694 92.7207V102.879H140.407V92.7207H146.655V103.174H150.369V88.791H136.144V92.7207H136.694Z" fill="#C92B1D"/>
<path d="M137.244 111.013C140.014 111.013 142.352 111.937 144.258 113.784C146.184 115.611 147.147 117.871 147.147 120.563C147.147 122.999 146.204 125.337 144.298 127.616H148.954C150.231 125.435 150.86 123.176 150.86 120.838C150.86 116.554 149.269 113.057 146.086 110.345C143.492 108.145 140.525 107.044 137.205 107.044C136.851 107.044 136.497 107.044 136.144 107.084V111.072C136.497 111.033 136.871 111.013 137.244 111.013Z" fill="#C92B1D"/>
<path d="M143.178 143.04L136.144 146.106V150.232L152 143.099L136.144 135.731V139.818L143.178 143.04Z" fill="#C92B1D"/>
<path d="M150.369 173.181H136.144V177.11H150.369V173.181Z" fill="#C92B1D"/>
<path d="M150.369 157.816H136.144V161.746H150.369V157.816Z" fill="#C92B1D"/>
<path d="M136.655 197.29C137.892 196.307 138.934 194.755 139.779 192.653L140.84 190.059C141.626 188.173 142.647 187.23 143.905 187.23C144.828 187.23 145.595 187.583 146.204 188.31C146.813 189.037 147.127 189.941 147.127 191.022C147.127 191.906 146.95 192.633 146.597 193.203C146.282 193.753 145.614 194.303 144.573 194.912L146.459 198.095C149.387 196.405 150.841 194.067 150.841 191.061C150.841 188.841 150.173 186.974 148.856 185.481C147.54 183.988 145.909 183.241 143.944 183.241C141.036 183.241 138.836 185.029 137.323 188.585L136.281 191.1C136.222 191.218 136.183 191.336 136.124 191.434V197.683C136.301 197.565 136.478 197.447 136.635 197.309L136.655 197.29Z" fill="#C92B1D"/>
<path d="M136.694 207.448V217.587H140.407V207.448H146.655V217.901H150.369V203.518H136.144V207.448H136.694Z" fill="#C92B1D"/>
<path d="M117.143 79.3404C118.44 80.7747 120.012 81.4821 121.878 81.4821C122.9 81.4821 123.922 81.2659 124.924 80.814C125.906 80.3818 126.751 79.8119 127.399 79.085C128.048 78.358 128.5 77.4738 128.775 76.4324C129.05 75.3911 129.187 74.0157 129.187 72.267V68.3569H114.962V82.4055C115.984 81.6392 116.711 80.6175 117.143 79.36V79.3404ZM118.951 76.7271C118.302 76.0395 117.988 74.9784 117.988 73.5048V72.267H125.572V73.6423C125.572 74.9784 125.258 75.9805 124.609 76.6878C123.981 77.3952 123.037 77.7292 121.819 77.7292C120.601 77.7292 119.599 77.3952 118.951 76.7075V76.7271Z" fill="#C92B1D"/>
<path d="M115.532 92.7207V102.879H119.226V92.7207H125.493V103.174H129.187V88.791H114.962V92.7207H115.532Z" fill="#C92B1D"/>
<path d="M116.062 111.013C118.833 111.013 121.171 111.937 123.077 113.784C125.002 115.611 125.965 117.871 125.965 120.563C125.965 122.999 125.022 125.337 123.116 127.616H127.773C129.05 125.435 129.679 123.176 129.679 120.838C129.679 116.554 128.087 113.057 124.904 110.345C122.31 108.145 119.344 107.044 116.023 107.044C115.669 107.044 115.316 107.044 114.962 107.084V111.072C115.316 111.033 115.689 111.013 116.062 111.013Z" fill="#C92B1D"/>
<path d="M122.016 143.04L114.962 146.106V150.232L130.818 143.099L114.962 135.731V139.818L122.016 143.04Z" fill="#C92B1D"/>
<path d="M129.187 173.181H114.962V177.11H129.187V173.181Z" fill="#C92B1D"/>
<path d="M129.187 157.816H114.962V161.746H129.187V157.816Z" fill="#C92B1D"/>
<path d="M115.492 197.29C116.73 196.307 117.772 194.755 118.617 192.653L119.678 190.059C120.463 188.173 121.485 187.23 122.743 187.23C123.666 187.23 124.432 187.583 125.042 188.31C125.651 189.037 125.965 189.941 125.965 191.022C125.965 191.906 125.788 192.633 125.435 193.203C125.12 193.753 124.452 194.303 123.411 194.912L125.297 198.095C128.225 196.405 129.679 194.067 129.679 191.061C129.679 188.841 129.011 186.974 127.694 185.481C126.378 183.988 124.747 183.241 122.782 183.241C119.874 183.241 117.673 185.029 116.16 188.585L115.119 191.1C115.06 191.218 115.021 191.336 114.962 191.434V197.683C115.139 197.565 115.316 197.447 115.473 197.309L115.492 197.29Z" fill="#C92B1D"/>
<path d="M115.532 207.448V217.587H119.226V207.448H125.493V217.901H129.187V203.518H114.962V207.448H115.532Z" fill="#C92B1D"/>
<path d="M10.9835 57.2161C12.4178 55.9193 13.1251 54.3474 13.1251 52.4808C13.1251 51.4591 12.909 50.4374 12.4571 49.4353C12.0248 48.4529 11.455 47.608 10.728 46.9596C10.001 46.3112 9.11686 45.8593 8.07549 45.5842C7.03413 45.3092 5.65874 45.1716 3.91003 45.1716H0V59.3971H14.0486C13.2823 58.3754 12.2606 57.6484 11.0031 57.2161H10.9835ZM8.37022 55.4084C7.68252 56.0568 6.62151 56.3712 5.14788 56.3712H3.91003V48.7869H5.28542C6.62151 48.7869 7.62358 49.1013 8.33092 49.7497C9.03826 50.3785 9.37228 51.3216 9.37228 52.5398C9.37228 53.758 9.03826 54.7601 8.35057 55.4084H8.37022Z" fill="#C92B1D"/>
<path d="M24.3838 58.847H34.5224V55.1531H24.3838V48.8853H34.8367V45.1914H20.4541V59.3972H24.3838V58.847Z" fill="#C92B1D"/>
<path d="M42.6565 58.2968C42.6565 55.5263 43.58 53.1882 45.4269 51.2823C47.2542 49.3567 49.5138 48.394 52.2056 48.394C54.642 48.394 56.9802 49.3371 59.2594 51.243V46.5863C57.0784 45.3092 54.8188 44.6804 52.4807 44.6804C48.1973 44.6804 44.6999 46.2719 41.9884 49.455C39.7878 52.0486 38.6875 55.0155 38.6875 58.3361C38.6875 58.6897 38.6875 59.0434 38.7268 59.3971H42.7154C42.6761 59.0434 42.6565 58.6701 42.6565 58.2968Z" fill="#C92B1D"/>
<path d="M74.6832 52.3629L77.768 59.397H81.8745L74.7618 43.5408L67.374 59.397H71.4609L74.6832 52.3629Z" fill="#C92B1D"/>
<path d="M108.754 45.1914H104.824V59.4168H108.754V45.1914Z" fill="#C92B1D"/>
<path d="M93.3887 45.1914H89.459V59.4168H93.3887V45.1914Z" fill="#C92B1D"/>
<path d="M128.952 58.8863C127.969 57.6485 126.417 56.6071 124.315 55.7622L121.721 54.7012C119.835 53.9153 118.892 52.8936 118.892 51.6361C118.892 50.7126 119.246 49.9463 119.973 49.3372C120.7 48.7281 121.603 48.4137 122.684 48.4137C123.568 48.4137 124.295 48.5906 124.865 48.9442C125.415 49.2586 125.965 49.9267 126.574 50.968L129.758 49.0818C128.068 46.1542 125.73 44.7002 122.723 44.7002C120.503 44.7002 118.637 45.3682 117.143 46.6847C115.65 48.0011 114.903 49.6319 114.903 51.5968C114.903 54.5047 116.691 56.7054 120.248 58.2183L122.763 59.2597C122.881 59.3186 122.998 59.3579 123.097 59.4168H129.345C129.227 59.24 129.109 59.0632 128.972 58.906L128.952 58.8863Z" fill="#C92B1D"/>
<path d="M139.091 58.847H149.249V55.1531H139.091V48.8853H149.544V45.1914H135.161V59.3972H139.091V58.847Z" fill="#C92B1D"/>
</g>
<defs>
<clipPath id="clip0_201_868">
<rect width="152" height="217.901" fill="white"/>
</clipPath>
</defs>
</svg>
