<svg width="1512" height="1696" viewBox="0 0 1512 1696" fill="none" xmlns="http://www.w3.org/2000/svg">
<g clip-path="url(#clip0_447_1448)">
<rect width="1512" height="1696" fill="white"/>
<g clip-path="url(#clip1_447_1448)">
<mask id="mask0_447_1448" style="mask-type:luminance" maskUnits="userSpaceOnUse" x="-1147" y="-161" width="2655" height="2120">
<path d="M1507.83 -160.303H-1146.09V1958.86H1507.83V-160.303Z" fill="white"/>
</mask>
<g mask="url(#mask0_447_1448)">
<path d="M250.074 459.588V408.524L260.627 406.314V393.057H217.434V406.314L227.986 408.524V459.588C227.986 462.043 228.232 464.253 228.477 466.217H250.81C250.319 464.253 250.074 462.043 250.074 459.588Z" fill="black"/>
</g>
<path d="M496.717 513.107L488.863 515.317V528.328H528.13V515.317L519.049 513.107V500.832H496.717V513.107Z" fill="black"/>
<path d="M406.894 513.107L397.568 515.317V528.328H438.307V515.317L428.981 513.107V500.832H406.894V513.107Z" fill="black"/>
<mask id="mask1_447_1448" style="mask-type:luminance" maskUnits="userSpaceOnUse" x="-1147" y="-161" width="2655" height="2120">
<path d="M1507.83 -160.303H-1146.09V1958.86H1507.83V-160.303Z" fill="white"/>
</mask>
<g mask="url(#mask1_447_1448)">
<path d="M366.156 503.041C368.119 504.514 368.856 506.233 368.856 507.951C368.856 509.67 368.119 511.388 366.401 512.616C364.683 513.843 361.739 514.58 357.567 514.58C355.358 514.58 353.394 514.334 351.676 513.843C349.959 513.352 348.486 512.861 347.259 512.125L344.56 501.323H329.344L329.589 523.418C333.761 525.382 338.424 526.855 343.332 527.837C348.241 528.819 353.64 529.31 359.284 529.31C369.346 529.31 376.954 527.101 382.108 522.927C387.262 518.508 389.961 512.861 389.961 505.742C389.961 503.778 389.716 502.059 389.47 500.341H361.493C363.456 501.568 365.174 502.305 366.156 503.041Z" fill="black"/>
</g>
<mask id="mask2_447_1448" style="mask-type:luminance" maskUnits="userSpaceOnUse" x="-1147" y="-161" width="2655" height="2120">
<path d="M1507.83 -160.303H-1146.09V1958.86H1507.83V-160.303Z" fill="white"/>
</mask>
<g mask="url(#mask2_447_1448)">
<path d="M310.691 408.278L321.244 406.069V392.812H278.051V406.069L288.604 408.278V459.342C288.604 461.797 288.358 464.007 287.867 465.971H310.2C310.446 463.761 310.691 461.552 310.691 459.342V408.278Z" fill="black"/>
</g>
<path d="M452.543 513.107L443.217 515.317V528.328H481.747V515.317L474.63 513.107V500.832H452.543V513.107Z" fill="black"/>
<mask id="mask3_447_1448" style="mask-type:luminance" maskUnits="userSpaceOnUse" x="-1147" y="-161" width="2655" height="2120">
<path d="M1507.83 -160.303H-1146.09V1958.86H1507.83V-160.303Z" fill="white"/>
</mask>
<g mask="url(#mask3_447_1448)">
<path d="M285.66 504.514C284.188 507.215 281.979 509.425 279.034 510.898C276.089 512.371 272.653 513.107 268.481 513.107C264.309 513.107 261.119 512.371 258.174 510.898C255.229 509.425 253.02 507.46 251.548 504.514C251.057 503.287 250.566 502.059 250.075 500.586H227.742C228.478 505.496 229.951 509.67 232.405 513.353C235.841 518.754 240.504 522.682 246.885 525.382C253.02 528.083 260.382 529.556 268.727 529.556C277.071 529.556 284.188 528.083 290.569 525.382C296.704 522.682 301.612 518.508 305.048 513.107C307.502 509.424 308.975 505.251 309.711 500.586H287.378C286.642 502.059 286.151 503.532 285.66 504.514Z" fill="black"/>
</g>
<mask id="mask4_447_1448" style="mask-type:luminance" maskUnits="userSpaceOnUse" x="-1147" y="-161" width="2655" height="2120">
<path d="M1507.83 -160.303H-1146.09V1958.86H1507.83V-160.303Z" fill="white"/>
</mask>
<g mask="url(#mask4_447_1448)">
<path d="M600.036 434.547L590.22 418.834H583.348L581.876 428.163C579.667 424.726 576.967 422.026 573.777 420.307C570.586 418.343 566.905 417.607 562.488 417.607C556.598 417.607 551.444 419.325 547.272 422.517C543.1 425.708 539.664 430.373 537.455 436.265C535.247 442.157 534.02 449.031 534.02 456.887V458.36C534.02 461.061 534.265 463.761 534.51 466.216H556.843C556.352 463.761 556.107 461.306 556.107 458.36V456.887C556.107 452.468 556.598 448.54 557.334 445.349C558.07 442.157 559.543 439.457 561.751 437.738C563.96 436.019 566.414 435.038 569.605 435.038C572.059 435.038 574.022 435.528 575.985 436.51C577.949 437.493 579.421 439.211 580.648 441.175V466.462H602.736V434.301L600.036 434.547Z" fill="black"/>
</g>
<path d="M602.737 434.056V419.08H590.221L600.037 434.547L602.737 434.056Z" fill="black"/>
<mask id="mask5_447_1448" style="mask-type:luminance" maskUnits="userSpaceOnUse" x="-1147" y="-161" width="2655" height="2120">
<path d="M1507.83 -160.303H-1146.09V1958.86H1507.83V-160.303Z" fill="white"/>
</mask>
<g mask="url(#mask5_447_1448)">
<path d="M579.911 507.215C578.684 508.934 577.212 510.407 575.249 511.143C573.285 512.125 571.077 512.616 568.622 512.616C563.714 512.616 560.278 510.898 558.315 507.461C557.333 505.497 556.597 503.287 556.106 500.832H533.773C534.264 505.006 535.246 508.688 536.718 512.371C538.927 518.017 542.363 522.191 546.535 525.382C550.953 528.328 556.106 530.047 562.242 530.047C565.923 530.047 569.359 529.31 572.058 527.837C575.003 526.364 577.457 524.4 579.666 521.7V525.873C579.666 531.029 578.439 534.957 575.985 537.903C573.531 540.849 569.849 542.322 564.45 542.322C561.26 542.322 558.07 541.831 554.388 541.094C550.707 540.358 547.271 539.13 543.836 537.657L540.154 553.124C543.836 555.088 548.007 556.315 552.916 557.297C557.824 558.279 562.242 558.77 565.923 558.77C573.285 558.77 579.666 557.543 585.065 554.597C590.464 551.896 594.636 547.968 597.336 543.058C600.036 538.148 601.754 532.502 601.754 525.873V500.832H579.666L579.911 507.215Z" fill="black"/>
</g>
<path d="M429.964 385.938H407.141V404.105H429.964V385.938Z" fill="black"/>
<mask id="mask6_447_1448" style="mask-type:luminance" maskUnits="userSpaceOnUse" x="-1147" y="-161" width="2655" height="2120">
<path d="M1507.83 -160.303H-1146.09V1958.86H1507.83V-160.303Z" fill="white"/>
</mask>
<g mask="url(#mask6_447_1448)">
<path d="M513.404 424.726C509.232 420.062 503.587 417.607 496.47 417.607C491.807 417.607 487.635 418.589 483.954 420.798C480.273 423.008 477.328 425.954 474.873 429.636L473.892 419.08H442.479V432.337L453.031 434.547V466.462H475.119V440.684C476.346 438.72 478.064 437.247 480.027 436.265C481.99 435.283 484.199 434.792 486.899 434.792C490.335 434.792 493.034 435.774 494.752 437.738C496.47 439.702 497.452 442.894 497.452 447.313V466.462H519.539V447.313C519.784 437.002 517.576 429.391 513.404 424.726Z" fill="black"/>
</g>
<path d="M611.326 432.092V419.08H602.736V434.056L611.326 432.092Z" fill="black"/>
<path d="M397.078 419.08V432.092L407.631 434.301V466.216H429.718V419.08H397.078Z" fill="black"/>
<mask id="mask7_447_1448" style="mask-type:luminance" maskUnits="userSpaceOnUse" x="-1147" y="-161" width="2655" height="2120">
<path d="M1507.83 -160.303H-1146.09V1958.86H1507.83V-160.303Z" fill="white"/>
</mask>
<g mask="url(#mask7_447_1448)">
<path d="M384.07 456.396C379.898 452.959 373.272 450.259 364.192 448.295C360.51 447.558 357.811 446.576 355.847 445.594C353.884 444.612 352.657 443.63 351.921 442.648C351.185 441.666 350.939 440.439 350.939 439.211C350.939 437.247 351.675 435.529 353.393 434.301C355.111 433.074 357.565 432.337 360.756 432.337C362.719 432.337 364.437 432.583 365.909 433.074C367.382 433.565 368.854 434.056 369.836 435.038L372.045 444.612H387.015V423.254C383.825 421.535 379.653 420.307 374.744 419.325C369.836 418.343 364.682 417.853 359.038 417.853C352.166 417.853 346.276 418.835 342.104 421.044C337.932 423.254 334.496 425.954 332.533 429.391C330.57 432.828 329.588 436.756 329.588 440.93C329.588 447.067 331.551 452.223 335.723 456.151C339.895 460.079 346.276 463.025 355.111 464.743C357.565 465.234 359.774 465.725 361.492 466.216H389.469C389.224 462.288 387.261 458.851 384.07 456.396Z" fill="black"/>
</g>
<path d="M1150.5 488.802V465.48H1130.62V437.493H1097.25V465.48H1082.28V488.802H1097.25V500.341H1130.62V488.802H1150.5Z" fill="black"/>
<path d="M1023.87 465.48H1011.11V485.366L1023.87 488.557V500.341H1057.49V465.48H1023.87Z" fill="black"/>
<path d="M990.247 465.48H956.625H944.6V485.366L956.625 488.557V500.341H990.247V465.48Z" fill="black"/>
<mask id="mask8_447_1448" style="mask-type:luminance" maskUnits="userSpaceOnUse" x="-1147" y="-161" width="2655" height="2120">
<path d="M1507.83 -160.303H-1146.09V1958.86H1507.83V-160.303Z" fill="white"/>
</mask>
<g mask="url(#mask8_447_1448)">
<path d="M1056.75 548.705C1054.55 551.405 1051.85 553.615 1048.66 555.088C1045.47 556.561 1042.03 557.297 1038.1 557.297C1032.7 557.297 1028.53 555.579 1025.83 552.142C1023.13 548.705 1021.91 543.549 1021.91 536.43V500.341H987.057V536.43C987.057 552.633 990.492 564.908 997.609 572.518C1004.73 580.374 1014.3 584.302 1026.57 584.302C1033.44 584.302 1039.82 582.829 1045.22 580.129C1050.62 577.428 1055.28 573.255 1059.21 567.854L1061.42 582.093H1106.08V561.471L1091.6 558.034V500.341H1056.75V548.705Z" fill="black"/>
</g>
<mask id="mask9_447_1448" style="mask-type:luminance" maskUnits="userSpaceOnUse" x="-1147" y="-161" width="2655" height="2120">
<path d="M1507.83 -160.303H-1146.09V1958.86H1507.83V-160.303Z" fill="white"/>
</mask>
<g mask="url(#mask9_447_1448)">
<path d="M1185.6 581.111L1182.9 555.579C1181.43 555.824 1179.95 556.07 1178.24 556.315C1176.52 556.561 1175.05 556.561 1173.33 556.561C1170.14 556.561 1167.68 555.579 1165.72 553.86C1163.76 552.142 1163.02 549.196 1163.02 544.777V500.341H1128.42V545.022C1128.42 558.77 1131.61 568.59 1137.74 574.973C1143.88 581.111 1152.71 584.302 1164.25 584.302C1167.93 584.302 1171.36 584.057 1175.04 583.32C1178.97 582.829 1182.41 582.093 1185.6 581.111Z" fill="black"/>
</g>
<path d="M880.3 561.225L869.502 559.507L875.392 539.867H928.647L934.782 559.507L923.984 561.225V581.847H980.43V561.225L969.141 559.752L948.035 500.341H916.131L920.794 514.825H883L887.908 500.341H856.25L834.898 559.752L823.609 561.225V581.847H880.3V561.225Z" fill="black"/>
<mask id="mask10_447_1448" style="mask-type:luminance" maskUnits="userSpaceOnUse" x="-1147" y="-161" width="2655" height="2120">
<path d="M1507.83 -160.303H-1146.09V1958.86H1507.83V-160.303Z" fill="white"/>
</mask>
<g mask="url(#mask10_447_1448)">
<path d="M1245.97 472.845C1238.36 468.18 1229.53 465.971 1218.97 465.971C1208.42 465.971 1199.34 468.18 1191.98 472.845C1184.62 477.509 1178.73 483.647 1174.8 491.748C1173.57 494.449 1172.35 497.395 1171.61 500.341H1203.51C1204.74 497.64 1206.21 495.431 1208.42 493.712C1211.37 491.257 1215.05 490.03 1219.47 490.03C1223.88 490.03 1227.81 491.257 1230.51 493.712C1232.47 495.431 1234.19 497.64 1235.42 500.341H1267.08C1266.09 497.395 1265.11 494.449 1263.64 491.748C1259.22 483.647 1253.58 477.509 1245.97 472.845Z" fill="black"/>
</g>
<mask id="mask11_447_1448" style="mask-type:luminance" maskUnits="userSpaceOnUse" x="-1147" y="-161" width="2655" height="2120">
<path d="M1507.83 -160.303H-1146.09V1958.86H1507.83V-160.303Z" fill="white"/>
</mask>
<g mask="url(#mask11_447_1448)">
<path d="M1270.26 504.514C1271.74 509.424 1272.47 515.316 1272.47 521.945V524.154C1272.47 531.029 1271.74 536.921 1270.26 541.831C1268.79 546.741 1266.58 550.669 1263.39 553.369C1260.2 556.07 1256.03 557.543 1251.12 557.543C1246.21 557.543 1241.8 556.315 1238.61 553.369C1235.42 550.669 1233.21 546.741 1231.73 541.831C1230.26 536.921 1229.53 530.783 1229.53 524.154V521.945C1229.53 515.316 1230.26 509.67 1231.73 504.514C1232.23 503.041 1232.72 501.568 1233.45 500.341H1197.87C1195.9 506.969 1194.92 514.089 1194.92 521.945V524.154C1194.92 536.184 1197.13 546.495 1201.55 555.579C1205.97 564.662 1212.59 571.536 1220.94 576.692C1229.28 581.847 1239.59 584.302 1251.37 584.302C1263.15 584.302 1273.21 581.847 1281.55 576.692C1289.9 571.536 1296.28 564.662 1300.94 555.579C1305.36 546.495 1307.57 536.184 1307.57 524.154V521.945C1307.57 514.089 1306.59 506.969 1304.62 500.341H1269.04C1269.28 501.568 1270.02 503.041 1270.26 504.514Z" fill="black"/>
</g>
<path d="M855.759 500.341L868.03 463.761L869.748 458.36H870.238L871.956 463.27L884.227 500.341H915.886L888.399 423.499H851.832L824.346 500.341H855.759Z" fill="black"/>
<mask id="mask12_447_1448" style="mask-type:luminance" maskUnits="userSpaceOnUse" x="-1147" y="-161" width="2655" height="2120">
<path d="M1507.83 -160.303H-1146.09V1958.86H1507.83V-160.303Z" fill="white"/>
</mask>
<g mask="url(#mask12_447_1448)">
<path d="M747.777 691.587C750.722 689.132 752.194 685.94 752.194 681.767C752.194 678.084 750.967 675.138 748.513 673.174C746.059 671.21 742.378 669.737 737.224 668.51C735.015 668.019 733.543 667.528 732.561 667.037C731.579 666.546 730.843 665.809 730.353 665.318C729.862 664.827 729.862 664.091 729.862 663.354C729.862 662.127 730.352 661.39 731.334 660.654C732.316 659.917 733.788 659.426 735.506 659.426C736.488 659.426 737.47 659.426 738.451 659.672C739.433 659.917 740.169 660.163 740.66 660.654L741.887 666.055H750.476V653.78C748.513 652.798 746.304 652.061 743.605 651.57C740.905 651.079 737.96 650.588 734.524 650.588C730.598 650.588 727.162 651.079 724.708 652.552C722.254 654.025 720.29 655.253 719.309 657.462C718.327 659.672 717.591 661.636 717.591 664.091C717.591 667.528 718.818 670.474 721.272 672.683C723.726 674.893 727.407 676.611 732.316 677.593C735.506 678.084 737.715 678.821 738.697 679.803C739.678 680.785 740.169 681.521 740.169 682.749C740.169 683.976 739.678 684.713 738.697 685.449C737.715 686.186 735.997 686.677 733.788 686.677C732.561 686.677 731.334 686.677 730.353 686.186C729.371 685.695 728.635 685.695 727.898 685.204L726.426 679.066H717.836L718.082 691.587C720.536 692.815 722.99 693.551 725.935 694.042C728.88 694.533 731.825 695.024 735.015 695.024C740.414 695.27 744.832 694.042 747.777 691.587ZM705.32 694.533V687.168L699.921 685.94V666.055C700.657 665.073 701.639 664.336 702.375 663.845C703.357 663.354 704.584 663.109 706.056 663.109L711.946 663.354L713.173 651.816C712.437 651.57 711.701 651.57 710.965 651.325C710.228 651.325 709.492 651.079 708.756 651.079C706.547 651.079 704.829 651.57 703.357 652.798C701.884 654.025 700.657 655.744 699.676 658.199V657.217L699.185 652.061H681.515V659.426L687.405 660.654V685.94L682.251 687.168V694.533H705.32ZM651.574 668.755C651.819 667.037 652.065 665.564 652.556 664.336C653.047 663.109 653.783 662.127 654.764 661.39C655.746 660.654 656.973 660.163 658.446 660.163C659.918 660.163 661.145 660.408 661.882 661.145C662.618 661.881 663.354 662.618 663.845 663.845C664.336 665.073 664.336 666.3 664.336 668.019V669.001L651.574 668.755ZM668.262 693.797C670.962 692.814 673.171 691.833 675.134 690.359L671.944 682.749C670.226 683.731 668.262 684.467 666.545 684.958C664.827 685.449 662.863 685.695 660.9 685.695C658.937 685.695 657.464 685.449 655.992 684.467C654.764 683.731 653.537 682.749 652.801 681.521C652.065 680.294 651.574 678.821 651.574 677.102V676.857H675.87V670.228C675.87 666.055 675.134 662.618 673.907 659.672C672.434 656.726 670.471 654.516 667.772 653.043C665.072 651.57 661.882 650.834 657.955 650.834C653.783 650.834 650.347 651.816 647.402 653.534C644.457 655.253 642.248 657.953 640.776 661.39C639.303 664.827 638.322 668.51 638.322 672.683V674.156C638.322 678.084 639.058 681.767 640.776 684.958C642.494 688.15 644.948 690.605 647.893 692.323C650.838 694.042 654.519 695.024 658.691 695.024C662.372 695.27 665.563 694.779 668.262 693.797ZM604.945 682.503C603.718 680.539 603.227 677.593 603.227 674.156V673.42C603.227 670.965 603.473 668.755 603.964 666.791C604.454 664.827 605.191 663.354 606.418 662.372C607.645 661.39 608.872 660.899 610.835 660.899C612.308 660.899 613.535 661.145 614.516 661.881C615.498 662.618 616.48 663.6 617.216 664.582V682.258C616.48 683.485 615.498 684.222 614.516 684.713C613.289 685.204 612.062 685.449 610.835 685.449C608.136 685.449 606.172 684.467 604.945 682.503ZM613.289 693.797C615.007 692.814 616.725 691.342 617.952 689.132L618.934 694.287H635.131V686.922L629.732 685.695V632.912H611.081V640.277L617.216 641.505V656.235C615.989 654.516 614.516 653.289 612.798 652.307C611.081 651.325 609.117 650.834 606.663 650.834C603.473 650.834 600.528 651.816 598.074 653.534C595.619 655.253 593.901 657.953 592.674 661.39C591.447 664.827 590.711 668.755 590.711 673.174V673.911C590.711 678.084 591.447 681.767 592.674 684.958C593.901 688.15 595.865 690.605 598.074 692.323C600.528 694.042 603.473 695.024 606.663 695.024C609.363 695.27 611.571 694.779 613.289 693.797ZM561.261 694.533V687.168L557.089 685.94V664.336C557.825 663.109 558.807 662.372 559.789 661.881C560.77 661.39 562.243 660.899 563.715 660.899C565.679 660.899 567.151 661.39 568.133 662.618C569.115 663.6 569.605 665.564 569.605 668.019V685.94L565.188 687.168V694.533H587.521V687.168L582.367 685.94V668.019C582.367 662.127 581.14 657.953 578.931 655.253C576.722 652.552 573.287 651.325 569.115 651.325C566.415 651.325 564.206 651.816 561.997 653.043C560.034 654.271 558.071 655.989 556.844 657.953L556.353 651.816H538.438V659.181L544.573 660.408V685.695L539.174 686.922V694.287L561.261 694.533ZM510.215 684.222C508.988 683.24 508.252 681.767 507.761 680.048C507.27 678.33 507.025 676.12 507.025 673.665V672.929C507.025 670.474 507.27 668.51 507.761 666.546C508.252 664.582 509.233 663.354 510.215 662.372C511.442 661.39 512.914 660.899 514.632 660.899C516.35 660.899 518.068 661.39 519.05 662.372C520.277 663.354 521.013 664.827 521.504 666.546C521.995 668.264 522.24 670.474 522.24 672.929V673.665C522.24 676.12 521.995 678.33 521.504 680.048C521.013 681.767 520.031 683.24 519.05 684.222C517.823 685.204 516.35 685.695 514.632 685.695C512.914 685.695 511.442 685.204 510.215 684.222ZM525.676 692.569C528.621 690.605 531.075 688.15 532.548 684.958C534.266 681.767 535.002 677.839 535.002 673.665V672.929C535.002 668.755 534.266 664.827 532.548 661.636C530.83 658.444 528.621 655.744 525.676 654.025C522.731 652.307 519.05 651.325 514.632 651.325C510.215 651.325 506.779 652.307 503.589 654.025C500.398 655.744 498.19 658.444 496.717 661.636C495.245 664.827 494.263 668.755 494.263 672.929V673.665C494.263 678.084 494.999 681.767 496.717 684.958C498.435 688.15 500.644 690.85 503.834 692.569C507.024 694.288 510.706 695.27 514.878 695.27C519.05 695.27 522.731 694.533 525.676 692.569ZM481.01 693.551C483.465 692.323 485.182 690.605 486.655 688.395C487.882 686.186 488.864 683.485 489.6 680.294L489.355 680.048H478.802C478.311 681.767 477.575 683.24 476.593 684.222C475.611 685.204 474.139 685.695 472.176 685.695C470.948 685.695 469.721 685.204 468.494 684.467C467.267 683.731 466.286 682.503 465.549 680.539C464.813 678.821 464.568 676.611 464.568 673.665V672.683C464.568 669.983 464.813 667.773 465.549 665.809C466.286 663.845 467.022 662.618 468.249 661.636C469.476 660.654 471.194 660.163 473.157 660.163C473.893 660.163 474.63 660.408 475.611 660.654C476.347 660.899 477.084 661.39 477.575 661.881L479.047 669.492H488.373L488.618 656.726C486.9 655.253 484.692 654.025 481.747 652.798C478.802 651.57 475.611 651.079 471.685 651.079C467.758 651.079 464.077 652.061 461.132 653.78C458.187 655.498 455.733 658.199 454.26 661.39C452.542 664.582 451.806 668.51 451.806 672.683V673.665C451.806 677.839 452.542 681.521 454.26 684.713C455.978 687.904 458.187 690.605 461.132 692.323C464.077 694.287 467.758 695.024 471.93 695.024C475.611 695.27 478.802 694.778 481.01 693.551ZM422.356 694.533V687.168L418.184 685.94V664.336C418.92 663.109 419.902 662.372 420.884 661.881C421.865 661.39 423.338 660.899 424.81 660.899C426.774 660.899 428.246 661.39 429.228 662.618C430.209 663.6 430.7 665.564 430.7 668.019V685.94L426.283 687.168V694.533H448.616V687.168L443.462 685.94V668.019C443.462 662.127 442.235 657.953 440.026 655.253C437.817 652.552 434.381 651.325 430.209 651.325C427.51 651.325 425.301 651.816 423.092 653.043C421.129 654.271 419.166 655.989 417.939 657.953L417.448 651.816H399.532V659.181L405.668 660.408V685.695L400.269 686.922V694.287L422.356 694.533ZM371.555 668.755C371.801 667.037 372.046 665.564 372.537 664.336C373.028 663.109 373.764 662.127 374.746 661.39C375.727 660.654 376.954 660.163 378.427 660.163C379.899 660.163 381.126 660.408 381.863 661.145C382.599 661.881 383.335 662.618 383.826 663.845C384.317 665.073 384.317 666.3 384.317 668.019V669.001L371.555 668.755ZM388.243 694.042C390.943 693.06 393.152 692.078 395.115 690.605L391.925 682.994C390.207 683.976 388.243 684.713 386.526 685.204C384.808 685.695 382.844 685.94 380.881 685.94C378.918 685.94 377.445 685.695 375.973 684.713C374.746 683.976 373.519 682.994 372.782 681.767C372.046 680.539 371.555 679.066 371.555 677.348V677.102H395.851V670.474C395.851 666.3 395.115 662.863 393.888 659.917C392.415 656.971 390.452 654.762 387.753 653.289C385.053 651.816 381.863 651.079 377.936 651.079C373.764 651.079 370.328 652.061 367.383 653.78C364.438 655.498 362.229 658.199 360.757 661.636C359.284 665.073 358.303 668.755 358.303 672.929V674.402C358.303 678.33 359.039 682.012 360.757 685.204C362.475 688.395 364.929 690.85 367.874 692.569C370.819 694.288 374.5 695.27 378.672 695.27C382.353 695.27 385.544 694.779 388.243 694.042Z" fill="black"/>
</g>
<mask id="mask13_447_1448" style="mask-type:luminance" maskUnits="userSpaceOnUse" x="-1147" y="-161" width="2655" height="2120">
<path d="M1507.83 -160.303H-1146.09V1958.86H1507.83V-160.303Z" fill="white"/>
</mask>
<g mask="url(#mask13_447_1448)">
<path d="M747.777 705.089C750.722 707.544 752.194 710.736 752.194 714.909C752.194 718.592 750.967 721.538 748.513 723.502C746.059 725.466 742.378 726.939 737.224 728.166C735.015 728.657 733.543 729.148 732.561 729.639C731.579 730.13 730.843 730.867 730.353 731.358C729.862 731.849 729.862 732.585 729.862 733.322C729.862 734.549 730.352 735.286 731.334 736.022C732.316 736.759 733.788 737.25 735.506 737.25C736.488 737.25 737.47 737.25 738.451 737.004C739.433 736.759 740.169 736.513 740.66 736.022L741.887 730.621H750.476V742.896C748.513 743.878 746.304 744.615 743.605 745.106C740.905 745.597 737.96 746.088 734.524 746.088C730.598 746.088 727.162 745.597 724.708 744.124C722.254 742.651 720.29 741.423 719.309 739.214C718.327 737.004 717.591 735.04 717.591 732.585C717.591 729.148 718.818 726.202 721.272 723.993C723.726 721.783 727.407 720.065 732.316 719.083C735.506 718.592 737.715 717.855 738.697 716.873C739.678 715.891 740.169 715.155 740.169 713.927C740.169 712.7 739.678 711.963 738.697 711.227C737.715 710.49 735.997 709.999 733.788 709.999C732.561 709.999 731.334 709.999 730.353 710.49C729.371 710.981 728.635 710.981 727.898 711.472L726.426 717.61H717.836L718.082 705.089C720.536 703.862 722.99 703.125 725.935 702.634C728.88 702.143 731.825 701.652 735.015 701.652C740.414 701.407 744.832 702.634 747.777 705.089ZM705.32 702.143V709.508L699.921 710.736V730.621C700.657 731.603 701.639 732.34 702.375 732.831C703.357 733.322 704.584 733.567 706.056 733.567L711.946 733.322L713.173 744.86C712.437 745.106 711.701 745.106 710.965 745.351C710.228 745.351 709.492 745.597 708.756 745.597C706.547 745.597 704.829 745.106 703.357 743.878C701.884 742.651 700.657 740.932 699.676 738.477V739.459L699.185 744.615H681.515V737.25L687.405 736.022V710.736L682.251 709.508V702.143H705.32ZM651.574 727.921C651.819 729.639 652.065 731.112 652.556 732.34C653.047 733.567 653.783 734.549 654.764 735.286C655.746 736.022 656.973 736.513 658.446 736.513C659.918 736.513 661.145 736.268 661.882 735.531C662.618 734.795 663.354 734.058 663.845 732.831C664.336 731.603 664.336 730.376 664.336 728.657V727.675L651.574 727.921ZM668.262 702.634C670.962 703.616 673.171 704.844 675.134 706.071L671.944 713.682C670.226 712.7 668.262 711.963 666.545 711.472C664.827 710.981 662.863 710.736 660.9 710.736C658.937 710.736 657.464 710.981 655.992 711.963C654.764 712.7 653.537 713.682 652.801 714.909C652.065 716.137 651.574 717.61 651.574 719.328V719.574H675.87V726.202C675.87 730.376 675.134 733.813 673.907 736.759C672.68 739.705 670.471 741.914 667.772 743.387C665.072 744.86 661.882 745.597 657.955 745.597C653.783 745.597 650.347 744.615 647.402 742.896C644.457 741.178 642.248 738.477 640.776 735.04C639.303 731.603 638.322 727.921 638.322 723.747V722.274C638.322 718.346 639.058 714.664 640.776 711.472C642.494 708.281 644.948 705.826 647.893 704.107C650.838 702.389 654.519 701.407 658.691 701.407C662.372 701.407 665.563 701.898 668.262 702.634ZM604.945 714.173C603.718 716.137 603.227 719.083 603.227 722.52V723.256C603.227 725.711 603.473 727.921 603.964 729.885C604.454 731.849 605.191 733.322 606.418 734.304C607.645 735.286 608.872 735.777 610.835 735.777C612.308 735.777 613.535 735.531 614.516 734.795C615.498 734.058 616.48 733.322 617.216 732.094V714.418C616.48 713.191 615.498 712.454 614.516 711.963C613.289 711.472 612.062 710.981 610.835 710.981C608.136 710.981 606.172 711.963 604.945 714.173ZM613.289 702.88C615.007 703.862 616.725 705.335 617.952 707.544L618.934 702.389H635.131V709.754L629.732 710.981V763.764H611.081V756.399L617.216 755.172V740.441C615.989 742.16 614.516 743.387 612.798 744.369C611.081 745.351 609.117 745.842 606.663 745.842C603.473 745.842 600.528 744.86 598.074 743.142C595.619 741.423 593.901 738.723 592.674 735.286C591.447 731.849 590.711 727.921 590.711 723.502V722.765C590.711 718.592 591.447 714.909 592.674 711.718C593.901 708.526 595.865 706.071 598.074 704.353C600.528 702.634 603.473 701.652 606.663 701.652C609.363 701.407 611.571 701.898 613.289 702.88ZM561.261 702.143V709.508L557.089 710.736V732.34C557.825 733.567 558.807 734.304 559.789 734.795C560.77 735.286 562.243 735.777 563.715 735.777C565.679 735.777 567.151 735.286 568.133 734.058C569.115 733.076 569.605 731.112 569.605 728.657V710.736L565.188 709.508V702.143H587.521V709.508L582.367 710.736V728.657C582.367 734.549 581.14 738.723 578.931 741.423C576.722 744.124 573.287 745.351 569.115 745.351C566.415 745.351 564.206 744.86 561.997 743.633C560.034 742.405 558.071 740.687 556.844 738.723L556.353 744.86H538.438V737.495L544.573 736.268V710.736L539.174 709.508V702.143H561.261ZM510.215 712.454C508.988 713.436 508.252 714.909 507.761 716.628C507.27 718.346 507.025 720.556 507.025 723.011V723.747C507.025 726.202 507.27 728.166 507.761 730.13C508.252 732.094 509.233 733.322 510.215 734.304C511.442 735.286 512.914 735.777 514.632 735.777C516.35 735.777 518.068 735.286 519.05 734.304C520.277 733.322 521.013 731.849 521.504 730.13C521.995 728.412 522.24 726.202 522.24 723.747V723.011C522.24 720.556 521.995 718.346 521.504 716.628C521.013 714.909 520.031 713.436 519.05 712.454C517.823 711.472 516.35 710.981 514.632 710.981C512.914 710.981 511.442 711.472 510.215 712.454ZM525.676 704.107C528.621 706.071 531.075 708.526 532.548 711.718C534.266 714.909 535.002 718.837 535.002 723.011V723.747C535.002 727.921 534.266 731.849 532.548 735.04C530.83 738.232 528.621 740.932 525.676 742.651C522.731 744.369 519.05 745.351 514.632 745.351C510.215 745.351 506.779 744.369 503.589 742.651C500.644 740.687 498.19 738.232 496.717 735.04C495.245 731.849 494.263 727.921 494.263 723.747V723.011C494.263 718.592 494.999 714.909 496.717 711.718C498.435 708.526 500.644 705.826 503.834 704.107C507.024 702.389 510.706 701.407 514.878 701.407C519.05 701.407 522.731 702.143 525.676 704.107ZM481.01 703.125C483.465 704.353 485.182 706.071 486.655 708.281C487.882 710.49 488.864 713.191 489.6 716.382L489.355 716.628H478.802C478.311 714.909 477.575 713.436 476.593 712.454C475.611 711.472 474.139 710.981 472.176 710.981C470.948 710.981 469.721 711.472 468.494 712.209C467.267 712.945 466.286 714.418 465.549 716.137C464.813 717.855 464.568 720.065 464.568 723.011V723.993C464.568 726.693 464.813 728.903 465.549 730.867C466.286 732.831 467.022 734.058 468.249 735.04C469.476 736.022 471.194 736.513 473.157 736.513C473.893 736.513 474.63 736.268 475.611 736.022C476.347 735.777 477.084 735.286 477.575 734.795L479.047 727.184H488.373L488.618 739.95C486.9 741.423 484.692 742.651 481.747 743.878C478.802 745.106 475.611 745.597 471.685 745.597C467.758 745.597 464.077 744.615 461.132 742.896C458.187 740.932 455.733 738.477 454.26 735.286C452.542 732.094 451.806 728.166 451.806 723.993V723.011C451.806 718.837 452.542 715.155 454.26 711.963C455.978 708.772 458.187 706.071 461.132 704.353C464.077 702.389 467.758 701.652 471.93 701.652C475.611 701.407 478.802 701.898 481.01 703.125ZM422.356 702.143V709.508L418.184 710.736V732.34C418.92 733.567 419.902 734.304 420.884 734.795C421.865 735.286 423.338 735.777 424.81 735.777C426.774 735.777 428.246 735.286 429.228 734.058C430.209 733.076 430.7 731.112 430.7 728.657V710.736L426.283 709.508V702.143H448.616V709.508L443.462 710.736V728.657C443.462 734.549 442.235 738.723 440.026 741.423C437.817 744.124 434.381 745.351 430.209 745.351C427.51 745.351 425.301 744.86 423.092 743.633C421.129 742.405 419.166 740.687 417.939 738.723L417.448 744.86H399.532V737.495L405.668 736.268V710.736L400.269 709.508V702.143H422.356ZM371.555 727.921C371.801 729.639 372.046 731.112 372.537 732.34C373.028 733.567 373.764 734.549 374.746 735.286C375.727 736.022 376.954 736.513 378.427 736.513C379.899 736.513 381.126 736.268 381.863 735.531C382.599 734.795 383.335 734.058 383.826 732.831C384.317 731.603 384.317 730.376 384.317 728.657V727.675L371.555 727.921ZM388.243 702.634C390.943 703.616 393.152 704.844 395.115 706.071L391.925 713.682C390.207 712.7 388.243 711.963 386.526 711.472C384.808 710.981 382.844 710.736 380.881 710.736C378.918 710.736 377.445 710.981 375.973 711.963C374.746 712.7 373.519 713.682 372.782 714.909C372.046 716.137 371.555 717.61 371.555 719.328V719.574H395.851V726.202C395.851 730.376 395.115 733.813 393.888 736.759C392.661 739.705 390.452 741.914 387.753 743.387C385.053 744.86 381.863 745.597 377.936 745.597C373.764 745.597 370.328 744.615 367.383 742.896C364.438 741.178 362.229 738.477 360.757 735.04C359.284 731.603 358.303 727.921 358.303 723.747V722.274C358.303 718.346 359.039 714.664 360.757 711.472C362.475 708.281 364.929 705.826 367.874 704.107C370.819 702.389 374.5 701.407 378.672 701.407C382.353 701.407 385.544 701.898 388.243 702.634Z" fill="black"/>
</g>
<mask id="mask14_447_1448" style="mask-type:luminance" maskUnits="userSpaceOnUse" x="-1147" y="-161" width="2655" height="2120">
<path d="M1507.83 -160.303H-1146.09V1958.86H1507.83V-160.303Z" fill="white"/>
</mask>
<g mask="url(#mask14_447_1448)">
<path d="M1025.59 1225.55C1025.83 1223.34 1026.32 1221.38 1026.81 1219.66C1027.55 1217.94 1028.53 1216.71 1029.76 1215.49C1030.98 1214.5 1032.7 1214.01 1034.67 1214.01C1036.63 1214.01 1038.1 1214.5 1039.33 1215.24C1040.56 1215.98 1041.29 1217.21 1041.78 1218.68C1042.27 1220.15 1042.52 1222.12 1042.52 1224.32V1225.8H1025.59V1225.55ZM1047.92 1259.19C1051.6 1257.96 1054.54 1256.49 1057 1254.52L1052.83 1244.21C1050.37 1245.44 1047.92 1246.67 1045.71 1247.16C1043.26 1247.89 1040.8 1248.14 1038.1 1248.14C1035.4 1248.14 1033.44 1247.65 1031.48 1246.67C1029.51 1245.68 1028.29 1244.46 1027.3 1242.74C1026.32 1241.02 1025.59 1239.05 1025.59 1237.09V1236.85H1057.98V1227.76C1057.98 1222.36 1057 1217.45 1055.28 1213.77C1053.32 1209.84 1050.86 1206.89 1047.18 1204.93C1043.5 1202.97 1039.33 1201.98 1034.18 1201.98C1028.78 1201.98 1024.11 1203.21 1020.19 1205.67C1016.26 1208.12 1013.31 1211.56 1011.11 1215.98C1009.14 1220.4 1007.92 1225.31 1007.92 1231.2V1233.16C1007.92 1238.56 1009.14 1243.23 1011.35 1247.4C1013.56 1251.58 1016.75 1255.01 1020.92 1257.22C1025.09 1259.68 1029.76 1260.9 1035.4 1260.9C1040.07 1261.15 1044.24 1260.41 1047.92 1259.19ZM998.835 1260.66C1000.55 1260.41 1002.27 1259.92 1003.74 1259.43L1002.52 1247.16C1001.78 1247.16 1001.04 1247.4 1000.31 1247.4C999.572 1247.4 998.59 1247.65 997.854 1247.65C996.381 1247.65 995.154 1247.16 994.173 1246.42C993.191 1245.68 992.946 1244.21 992.946 1242V1214.75H1003.01V1202.97H992.946V1188.97H976.012V1202.97H968.649V1214.75H976.012V1242.25C976.012 1248.87 977.484 1253.78 980.429 1256.73C983.374 1259.68 987.792 1261.4 993.436 1261.4C995.154 1261.15 997.118 1260.9 998.835 1260.66ZM931.101 1247.4C929.874 1246.42 929.383 1244.95 929.383 1242.98C929.383 1241.02 930.119 1239.3 931.837 1238.07C933.31 1236.85 935.764 1236.11 938.709 1236.11H945.335V1244.7C944.353 1245.93 942.881 1247.16 941.408 1247.89C939.936 1248.63 937.972 1249.12 936.255 1249.12C933.8 1248.87 932.328 1248.38 931.101 1247.4ZM939.445 1259.19C941.654 1257.96 943.862 1256.24 945.58 1253.78C945.826 1254.77 946.071 1255.99 946.562 1256.98C947.053 1257.96 947.544 1258.94 947.789 1259.92H967.913V1249.86L961.778 1248.87C961.532 1248.14 961.532 1247.4 961.532 1246.67C961.532 1245.93 961.532 1245.19 961.532 1244.21V1221.87C961.532 1215.24 959.324 1210.33 954.906 1206.89C950.489 1203.46 944.353 1201.49 936.745 1201.49C932.328 1201.49 928.647 1201.98 924.965 1202.97C921.284 1203.95 918.094 1205.42 915.149 1206.89L915.394 1222.12H927.42L928.647 1214.75C929.628 1214.01 930.61 1213.52 931.837 1213.28C933.064 1213.03 934.291 1212.79 935.764 1212.79C938.709 1212.79 940.917 1213.52 942.39 1215.24C943.862 1216.96 944.599 1218.92 944.599 1221.38V1225.06H937.727C929.138 1225.06 922.757 1226.78 918.339 1230.22C913.922 1233.65 911.958 1238.07 911.958 1243.23C911.958 1248.38 913.676 1252.56 917.112 1255.75C920.548 1258.94 924.965 1260.41 930.61 1260.41C934.291 1261.15 937.236 1260.41 939.445 1259.19ZM898.461 1259.92V1249.86L891.344 1248.14V1221.62C892.325 1220.15 893.552 1219.17 894.779 1218.68C896.006 1218.19 897.724 1217.7 899.688 1217.94L907.541 1218.43L909.259 1202.97C908.277 1202.72 907.295 1202.47 906.314 1202.23C905.332 1201.98 904.351 1201.98 903.369 1201.98C900.424 1201.98 897.97 1202.72 896.006 1204.44C894.043 1205.91 892.325 1208.37 891.098 1211.56V1210.09L890.607 1202.97H866.802V1213.03L874.901 1214.75V1248.38L867.784 1250.1V1260.17L898.461 1259.92ZM826.554 1225.55C826.799 1223.34 827.29 1221.38 827.781 1219.66C828.517 1217.94 829.499 1216.71 830.726 1215.49C831.953 1214.5 833.671 1214.01 835.634 1214.01C837.598 1214.01 839.07 1214.5 840.297 1215.24C841.524 1215.98 842.261 1217.21 842.751 1218.68C843.242 1220.15 843.488 1222.12 843.488 1224.32V1225.8H826.554V1225.55ZM848.641 1259.19C852.322 1257.96 855.267 1256.49 857.722 1254.52L853.55 1244.21C851.095 1245.44 848.641 1246.67 846.433 1247.16C843.978 1247.89 841.524 1248.14 838.825 1248.14C836.125 1248.14 834.162 1247.65 832.199 1246.67C830.481 1245.68 829.008 1244.46 828.026 1242.74C827.045 1241.02 826.308 1239.05 826.308 1237.09V1236.85H858.703V1227.76C858.703 1222.36 857.722 1217.45 856.004 1213.77C854.04 1209.84 851.586 1206.89 847.905 1204.93C844.224 1202.97 840.052 1201.98 834.898 1201.98C829.499 1201.98 824.836 1203.21 820.909 1205.67C816.983 1208.12 814.038 1211.56 811.829 1215.98C809.866 1220.4 808.639 1225.31 808.639 1231.2V1233.16C808.639 1238.56 809.866 1243.23 812.074 1247.4C814.283 1251.58 817.473 1255.01 821.646 1257.22C825.818 1259.68 830.481 1260.9 836.125 1260.9C841.033 1261.15 844.96 1260.41 848.641 1259.19ZM769.372 1259.92V1249.86L763.973 1248.14V1219.17C764.955 1217.7 766.182 1216.47 767.654 1215.73C769.127 1215 770.845 1214.5 772.808 1214.5C775.508 1214.5 777.471 1215.24 778.943 1216.71C780.416 1218.19 780.907 1220.64 780.907 1224.08V1248.14L774.771 1249.86V1259.92H804.712V1249.86L797.595 1248.14V1224.08C797.595 1216.22 796.122 1210.58 792.932 1206.89C789.742 1203.21 785.569 1201.49 779.925 1201.49C776.244 1201.49 773.299 1202.23 770.354 1203.95C767.654 1205.67 765.2 1207.88 763.237 1210.58L762.501 1202.47H738.695V1212.54L746.794 1214.26V1248.38L739.677 1250.1V1260.17L769.372 1259.92ZM701.392 1225.55C701.637 1223.34 702.128 1221.38 702.619 1219.66C703.355 1217.94 704.337 1216.71 705.564 1215.49C706.791 1214.5 708.509 1214.01 710.472 1214.01C712.436 1214.01 713.908 1214.5 715.135 1215.24C716.362 1215.98 717.099 1217.21 717.59 1218.68C718.08 1220.15 718.326 1222.12 718.326 1224.32V1225.8H701.392V1225.55ZM723.725 1259.19C727.406 1257.96 730.351 1256.49 732.805 1254.52L728.633 1244.21C726.179 1245.44 723.725 1246.67 721.516 1247.16C719.062 1247.89 716.608 1248.14 713.908 1248.14C711.209 1248.14 709.245 1247.65 707.282 1246.67C705.564 1245.68 704.092 1244.46 703.11 1242.74C702.128 1241.02 701.392 1239.05 701.392 1237.09V1236.85H733.787V1227.76C733.787 1222.36 732.805 1217.45 731.087 1213.77C729.124 1209.84 726.67 1206.89 722.989 1204.93C719.307 1202.97 715.135 1201.98 709.982 1201.98C704.582 1201.98 699.92 1203.21 695.993 1205.67C692.066 1208.12 689.121 1211.56 686.913 1215.98C684.704 1220.4 683.722 1225.31 683.722 1231.2V1233.16C683.722 1238.56 684.949 1243.23 687.158 1247.4C689.367 1251.58 692.557 1255.01 696.729 1257.22C700.901 1259.68 705.564 1260.9 711.209 1260.9C715.872 1261.15 720.044 1260.41 723.725 1259.19ZM663.598 1258.94C668.506 1257.47 672.924 1255.5 676.605 1253.05V1221.62H649.855V1233.41L659.671 1234.39V1245.93C658.199 1246.67 656.481 1247.16 654.272 1247.65C652.064 1248.14 649.609 1248.38 647.155 1248.38C642.738 1248.38 639.057 1247.4 636.112 1245.44C633.167 1243.47 630.713 1240.53 629.24 1236.85C627.768 1233.16 626.786 1228.99 626.786 1224.08V1220.89C626.786 1215.73 627.522 1211.31 629.24 1207.38C630.713 1203.46 633.167 1200.51 636.112 1198.3C639.057 1196.09 642.738 1195.11 646.91 1195.11C649.855 1195.11 652.309 1195.6 654.518 1196.34C656.727 1197.07 658.444 1198.06 659.917 1199.28L662.371 1209.35H674.642V1191.92C670.961 1188.73 666.543 1186.27 661.389 1184.8C656.481 1183.33 651.082 1182.34 645.683 1182.34C638.32 1182.34 631.939 1184.06 626.54 1187.25C621.141 1190.45 617.215 1195.11 614.27 1201C611.325 1206.89 610.098 1213.52 610.098 1221.13V1224.08C610.098 1231.44 611.57 1237.83 614.515 1243.47C617.46 1249.12 621.387 1253.29 627.031 1256.49C632.43 1259.68 639.057 1261.15 646.91 1261.15C653.045 1261.15 658.69 1260.41 663.598 1258.94Z" fill="black"/>
</g>
<mask id="mask15_447_1448" style="mask-type:luminance" maskUnits="userSpaceOnUse" x="-1147" y="-161" width="2655" height="2120">
<path d="M1507.83 -160.303H-1146.09V1958.86H1507.83V-160.303Z" fill="white"/>
</mask>
<g mask="url(#mask15_447_1448)">
<path d="M904.352 973.422C903.37 973.177 902.389 973.177 901.407 973.177C898.462 973.177 896.008 973.913 894.044 975.632C893.063 976.368 892.081 977.596 891.1 978.823H906.561L907.052 974.159C906.561 973.668 905.334 973.422 904.352 973.422Z" fill="black"/>
</g>
<mask id="mask16_447_1448" style="mask-type:luminance" maskUnits="userSpaceOnUse" x="-1147" y="-161" width="2655" height="2120">
<path d="M1507.83 -160.303H-1146.09V1958.86H1507.83V-160.303Z" fill="white"/>
</mask>
<g mask="url(#mask16_447_1448)">
<path d="M935.518 973.177C931.101 973.177 927.42 973.668 923.738 974.65C920.303 975.632 917.112 977.105 913.922 978.578H953.925L953.679 978.332C949.262 974.895 943.126 973.177 935.518 973.177Z" fill="black"/>
</g>
<mask id="mask17_447_1448" style="mask-type:luminance" maskUnits="userSpaceOnUse" x="-1147" y="-161" width="2655" height="2120">
<path d="M1507.83 -160.303H-1146.09V1958.86H1507.83V-160.303Z" fill="white"/>
</mask>
<g mask="url(#mask17_447_1448)">
<path d="M613.044 971.95C612.062 973.914 611.326 976.369 610.59 978.578H627.769C629.241 974.65 631.696 971.704 634.641 969.495C637.586 967.285 641.267 966.303 645.439 966.303C648.384 966.303 650.838 966.794 653.047 967.531C655.256 968.267 656.973 969.249 658.446 970.477L660.409 978.824H673.171V963.112C669.49 959.92 665.072 957.465 659.918 955.992C655.01 954.519 649.611 953.783 644.212 953.537C636.849 953.537 630.469 955.256 625.069 958.447C619.916 961.639 615.744 966.058 613.044 971.95Z" fill="black"/>
</g>
<path d="M991.23 974.159V960.165H974.542V974.159H966.934V978.578H1001.29V974.159H991.23Z" fill="black"/>
<mask id="mask18_447_1448" style="mask-type:luminance" maskUnits="userSpaceOnUse" x="-1147" y="-161" width="2655" height="2120">
<path d="M1507.83 -160.303H-1146.09V1958.86H1507.83V-160.303Z" fill="white"/>
</mask>
<g mask="url(#mask18_447_1448)">
<path d="M1045.71 976.123C1042.03 974.159 1037.86 973.177 1032.7 973.177C1027.3 973.177 1022.64 974.404 1018.71 976.859C1017.98 977.35 1017.24 978.087 1016.51 978.578H1049.15C1047.92 977.841 1046.94 976.859 1045.71 976.123Z" fill="black"/>
</g>
<mask id="mask19_447_1448" style="mask-type:luminance" maskUnits="userSpaceOnUse" x="-1147" y="-161" width="2655" height="2120">
<path d="M1507.83 -160.303H-1146.09V1958.86H1507.83V-160.303Z" fill="white"/>
</mask>
<g mask="url(#mask19_447_1448)">
<path d="M708.51 973.177C703.111 973.177 698.448 974.404 694.521 976.859C693.785 977.35 693.049 978.087 692.312 978.578H724.953C723.971 977.596 722.744 976.859 721.517 976.123C718.081 974.159 713.664 973.177 708.51 973.177Z" fill="black"/>
</g>
<path d="M660.408 976.123L660.899 977.842H673.17V976.123H660.408Z" fill="black"/>
<path d="M888.645 974.159H864.84V978.578H888.891L888.645 974.159Z" fill="black"/>
<mask id="mask20_447_1448" style="mask-type:luminance" maskUnits="userSpaceOnUse" x="-1147" y="-161" width="2655" height="2120">
<path d="M1507.83 -160.303H-1146.09V1958.86H1507.83V-160.303Z" fill="white"/>
</mask>
<g mask="url(#mask20_447_1448)">
<path d="M833.426 973.177C828.027 973.177 823.364 974.404 819.437 976.859C818.701 977.35 817.965 978.087 817.229 978.578H849.869C848.887 977.596 847.66 976.859 846.433 976.123C842.997 974.159 838.825 973.177 833.426 973.177Z" fill="black"/>
</g>
<path d="M761.274 974.159H737.469V978.578H761.765L761.274 974.159Z" fill="black"/>
<mask id="mask21_447_1448" style="mask-type:luminance" maskUnits="userSpaceOnUse" x="-1147" y="-161" width="2655" height="2120">
<path d="M1507.83 -160.303H-1146.09V1958.86H1507.83V-160.303Z" fill="white"/>
</mask>
<g mask="url(#mask21_447_1448)">
<path d="M778.453 973.177C774.772 973.177 771.827 973.913 768.882 975.632C767.409 976.368 766.182 977.596 764.955 978.823H791.46C788.27 974.895 784.097 973.177 778.453 973.177Z" fill="black"/>
</g>
<mask id="mask22_447_1448" style="mask-type:luminance" maskUnits="userSpaceOnUse" x="-1147" y="-161" width="2655" height="2120">
<path d="M1507.83 -160.303H-1146.09V1958.86H1507.83V-160.303Z" fill="white"/>
</mask>
<g mask="url(#mask22_447_1448)">
<path d="M613.78 1002.88C612.062 1006.32 610.835 1010.25 610.344 1014.42H627.277C627.768 1012.7 628.014 1010.98 628.75 1009.51C630.222 1005.58 632.677 1002.64 635.621 1000.43C638.566 998.218 642.248 997.236 646.42 997.236C649.365 997.236 651.819 997.727 654.028 998.463C656.236 999.2 657.954 1000.18 659.427 1001.41L661.881 1011.47H674.152V994.044C670.471 990.853 666.053 988.398 660.899 986.925C655.991 985.452 650.592 984.715 645.193 984.47C637.83 984.47 631.45 986.188 626.05 989.38C620.651 992.571 616.479 997.236 613.78 1002.88Z" fill="black"/>
</g>
<mask id="mask23_447_1448" style="mask-type:luminance" maskUnits="userSpaceOnUse" x="-1147" y="-161" width="2655" height="2120">
<path d="M1507.83 -160.303H-1146.09V1958.86H1507.83V-160.303Z" fill="white"/>
</mask>
<g mask="url(#mask23_447_1448)">
<path d="M954.416 1009.51C949.998 1006.07 943.863 1004.11 936.255 1004.11C931.837 1004.11 928.156 1004.6 924.475 1005.58C920.794 1006.57 917.603 1008.04 914.658 1009.51V1014.42H958.833C957.606 1012.7 956.133 1010.74 954.416 1009.51Z" fill="black"/>
</g>
<mask id="mask24_447_1448" style="mask-type:luminance" maskUnits="userSpaceOnUse" x="-1147" y="-161" width="2655" height="2120">
<path d="M1507.83 -160.303H-1146.09V1958.86H1507.83V-160.303Z" fill="white"/>
</mask>
<g mask="url(#mask24_447_1448)">
<path d="M1046.45 1007.06C1042.77 1005.09 1038.59 1004.11 1033.44 1004.11C1028.04 1004.11 1023.38 1005.34 1019.45 1007.79C1016.75 1009.51 1014.54 1011.72 1012.58 1014.42H1053.81C1051.85 1011.48 1049.39 1009.02 1046.45 1007.06Z" fill="black"/>
</g>
<path d="M1002.03 1005.09H991.965V991.099H975.277V1005.09H967.914V1014.67H1002.03V1005.09Z" fill="black"/>
<mask id="mask25_447_1448" style="mask-type:luminance" maskUnits="userSpaceOnUse" x="-1147" y="-161" width="2655" height="2120">
<path d="M1507.83 -160.303H-1146.09V1958.86H1507.83V-160.303Z" fill="white"/>
</mask>
<g mask="url(#mask25_447_1448)">
<path d="M908.033 1004.85C907.051 1004.6 906.07 1004.36 905.088 1004.11C904.106 1003.86 903.125 1003.86 902.143 1003.86C899.198 1003.86 896.744 1004.6 894.781 1006.32C892.817 1007.79 891.099 1010.25 889.872 1013.44V1011.97L889.381 1004.85H865.576V1014.18H907.051L908.033 1004.85Z" fill="black"/>
</g>
<mask id="mask26_447_1448" style="mask-type:luminance" maskUnits="userSpaceOnUse" x="-1147" y="-161" width="2655" height="2120">
<path d="M1507.83 -160.303H-1146.09V1958.86H1507.83V-160.303Z" fill="white"/>
</mask>
<g mask="url(#mask26_447_1448)">
<path d="M722.498 1007.06C718.817 1005.09 714.645 1004.11 709.491 1004.11C704.092 1004.11 699.429 1005.34 695.502 1007.79C692.803 1009.51 690.594 1011.72 688.631 1014.42H729.861C727.897 1011.48 725.443 1009.02 722.498 1007.06Z" fill="black"/>
</g>
<mask id="mask27_447_1448" style="mask-type:luminance" maskUnits="userSpaceOnUse" x="-1147" y="-161" width="2655" height="2120">
<path d="M1507.83 -160.303H-1146.09V1958.86H1507.83V-160.303Z" fill="white"/>
</mask>
<g mask="url(#mask27_447_1448)">
<path d="M792.196 1009.51C789.005 1005.83 784.833 1004.11 779.189 1004.11C775.507 1004.11 772.563 1004.85 769.618 1006.57C766.918 1008.04 764.464 1010.49 762.501 1013.19L761.764 1005.09H737.959V1014.42H794.895C794.405 1012.7 793.423 1010.98 792.196 1009.51Z" fill="black"/>
</g>
<mask id="mask28_447_1448" style="mask-type:luminance" maskUnits="userSpaceOnUse" x="-1147" y="-161" width="2655" height="2120">
<path d="M1507.83 -160.303H-1146.09V1958.86H1507.83V-160.303Z" fill="white"/>
</mask>
<g mask="url(#mask28_447_1448)">
<path d="M847.414 1007.06C843.733 1005.09 839.561 1004.11 834.407 1004.11C829.008 1004.11 824.345 1005.34 820.418 1007.79C817.719 1009.51 815.51 1011.72 813.547 1014.42H854.777C852.813 1011.48 850.359 1009.02 847.414 1007.06Z" fill="black"/>
</g>
<mask id="mask29_447_1448" style="mask-type:luminance" maskUnits="userSpaceOnUse" x="-1147" y="-161" width="2655" height="2120">
<path d="M1507.83 -160.303H-1146.09V1958.86H1507.83V-160.303Z" fill="white"/>
</mask>
<g mask="url(#mask29_447_1448)">
<path d="M705.565 1056.65C706.792 1055.66 708.51 1055.17 710.473 1055.17C712.436 1055.17 713.909 1055.66 715.136 1056.4C716.363 1057.14 717.099 1058.37 717.59 1059.84H733.051C732.561 1057.87 732.07 1056.16 731.333 1054.44C729.37 1050.51 726.916 1047.56 723.235 1045.6C719.554 1043.64 715.382 1042.65 710.228 1042.65C704.829 1042.65 700.166 1043.88 696.239 1046.34C692.312 1048.79 689.367 1052.23 687.159 1056.65C686.668 1057.63 686.422 1058.61 685.932 1059.59H703.111C703.602 1058.61 704.338 1057.38 705.565 1056.65Z" fill="black"/>
</g>
<mask id="mask30_447_1448" style="mask-type:luminance" maskUnits="userSpaceOnUse" x="-1147" y="-161" width="2655" height="2120">
<path d="M1507.83 -160.303H-1146.09V1958.86H1507.83V-160.303Z" fill="white"/>
</mask>
<g mask="url(#mask30_447_1448)">
<path d="M894.534 1059.59C895.761 1058.86 897.233 1058.61 899.442 1058.86L907.296 1059.35L909.013 1043.88C908.032 1043.64 907.05 1043.39 906.068 1043.15C905.087 1042.9 904.105 1042.9 903.123 1042.9C900.178 1042.9 897.724 1043.64 895.761 1045.35C893.798 1046.83 892.08 1049.28 890.853 1052.47V1051L890.362 1043.88H866.557V1053.95L874.655 1055.67V1060.08H894.534C894.043 1059.84 894.288 1059.59 894.534 1059.59Z" fill="black"/>
</g>
<mask id="mask31_447_1448" style="mask-type:luminance" maskUnits="userSpaceOnUse" x="-1147" y="-161" width="2655" height="2120">
<path d="M1507.83 -160.303H-1146.09V1958.86H1507.83V-160.303Z" fill="white"/>
</mask>
<g mask="url(#mask31_447_1448)">
<path d="M614.516 1041.67C612.062 1046.83 610.589 1052.97 610.344 1059.84H627.032C627.277 1055.42 628.014 1051.74 629.241 1048.3C630.713 1044.37 633.167 1041.43 636.112 1039.22C639.057 1037.01 642.739 1036.03 646.911 1036.03C649.856 1036.03 652.31 1036.52 654.519 1037.25C656.727 1037.99 658.445 1038.97 659.918 1040.2L662.372 1050.26H674.643V1032.34C670.961 1029.15 666.544 1026.7 661.39 1025.22C656.482 1023.75 651.083 1023.01 645.684 1022.77C638.321 1022.77 631.94 1024.49 626.541 1027.68C621.142 1031.12 617.215 1035.78 614.516 1041.67Z" fill="black"/>
</g>
<mask id="mask32_447_1448" style="mask-type:luminance" maskUnits="userSpaceOnUse" x="-1147" y="-161" width="2655" height="2120">
<path d="M1507.83 -160.303H-1146.09V1958.86H1507.83V-160.303Z" fill="white"/>
</mask>
<g mask="url(#mask32_447_1448)">
<path d="M767.41 1056.89C768.882 1056.16 770.6 1055.67 772.563 1055.67C775.263 1055.67 777.226 1056.4 778.699 1057.88C779.189 1058.37 779.435 1059.1 779.926 1059.84H797.596C797.105 1054.93 795.632 1051 793.178 1048.3C789.988 1044.62 785.816 1042.9 780.171 1042.9C776.49 1042.9 773.545 1043.64 770.6 1045.35C767.655 1047.07 765.446 1049.28 763.483 1051.98L762.747 1043.88H738.941V1053.95L747.04 1055.67V1060.08H764.465C765.201 1058.61 766.182 1057.63 767.41 1056.89Z" fill="black"/>
</g>
<path d="M927.42 1063.52L928.156 1059.84H915.395L915.64 1063.52H927.42Z" fill="black"/>
<mask id="mask33_447_1448" style="mask-type:luminance" maskUnits="userSpaceOnUse" x="-1147" y="-161" width="2655" height="2120">
<path d="M1507.83 -160.303H-1146.09V1958.86H1507.83V-160.303Z" fill="white"/>
</mask>
<g mask="url(#mask33_447_1448)">
<path d="M928.892 1056.16C929.874 1055.42 930.856 1054.93 932.083 1054.68C933.31 1054.44 934.537 1054.19 936.009 1054.19C938.954 1054.19 941.163 1054.93 942.636 1056.65C943.372 1057.63 944.108 1058.61 944.354 1059.84H961.533C960.796 1054.93 958.833 1051 955.152 1048.06C950.734 1044.62 944.599 1042.9 936.991 1042.9C932.574 1042.9 928.892 1043.39 925.211 1044.37C921.775 1045.35 918.34 1046.83 915.395 1048.3L915.64 1059.84H928.402L928.892 1056.16Z" fill="black"/>
</g>
<mask id="mask34_447_1448" style="mask-type:luminance" maskUnits="userSpaceOnUse" x="-1147" y="-161" width="2655" height="2120">
<path d="M1507.83 -160.303H-1146.09V1958.86H1507.83V-160.303Z" fill="white"/>
</mask>
<g mask="url(#mask34_447_1448)">
<path d="M830.481 1056.65C831.708 1055.66 833.426 1055.17 835.389 1055.17C837.353 1055.17 838.825 1055.66 840.052 1056.4C841.279 1057.14 842.015 1058.37 842.506 1059.84H857.967C857.477 1057.87 856.986 1056.16 856.249 1054.44C854.286 1050.51 851.832 1047.56 848.151 1045.6C844.47 1043.64 840.297 1042.65 835.144 1042.65C829.745 1042.65 825.082 1043.88 821.155 1046.34C817.228 1048.79 814.283 1052.23 812.075 1056.65C811.584 1057.63 811.338 1058.61 810.848 1059.59H828.027C828.763 1058.61 829.499 1057.38 830.481 1056.65Z" fill="black"/>
</g>
<path d="M992.7 1055.42H1002.52V1043.88H992.7V1029.64H976.012V1043.88H968.404V1055.42H976.012V1059.84H992.7V1055.42Z" fill="black"/>
<mask id="mask35_447_1448" style="mask-type:luminance" maskUnits="userSpaceOnUse" x="-1147" y="-161" width="2655" height="2120">
<path d="M1507.83 -160.303H-1146.09V1958.86H1507.83V-160.303Z" fill="white"/>
</mask>
<g mask="url(#mask35_447_1448)">
<path d="M1029.51 1056.65C1030.74 1055.66 1032.46 1055.17 1034.42 1055.17C1036.38 1055.17 1037.86 1055.66 1039.08 1056.4C1040.31 1057.14 1041.05 1058.37 1041.54 1059.84H1057C1056.51 1057.87 1056.02 1056.16 1055.28 1054.44C1053.32 1050.51 1050.86 1047.56 1047.18 1045.6C1043.5 1043.64 1039.33 1042.65 1034.18 1042.65C1028.78 1042.65 1024.11 1043.88 1020.19 1046.34C1016.26 1048.79 1013.31 1052.23 1011.11 1056.65C1010.62 1057.63 1010.37 1058.61 1009.88 1059.59H1027.06C1027.79 1058.61 1028.53 1057.38 1029.51 1056.65Z" fill="black"/>
</g>
<mask id="mask36_447_1448" style="mask-type:luminance" maskUnits="userSpaceOnUse" x="-1147" y="-161" width="2655" height="2120">
<path d="M1507.83 -160.303H-1146.09V1958.86H1507.83V-160.303Z" fill="white"/>
</mask>
<g mask="url(#mask36_447_1448)">
<path d="M764.22 1105.26C765.202 1103.78 766.429 1102.56 767.901 1101.82C769.374 1101.08 771.091 1100.59 773.055 1100.59C775.754 1100.59 777.718 1101.33 779.19 1102.8C780.663 1104.27 781.153 1106.73 781.153 1110.17V1111.39H798.087V1110.17C798.087 1102.31 796.615 1096.66 793.424 1092.98C790.234 1089.3 786.062 1087.58 780.417 1087.58C776.736 1087.58 773.791 1088.32 770.846 1090.04C768.147 1091.51 765.692 1093.96 763.729 1096.66L762.993 1088.56H739.188V1098.63L747.286 1100.35V1111.39H764.22V1105.26Z" fill="black"/>
</g>
<mask id="mask37_447_1448" style="mask-type:luminance" maskUnits="userSpaceOnUse" x="-1147" y="-161" width="2655" height="2120">
<path d="M1507.83 -160.303H-1146.09V1958.86H1507.83V-160.303Z" fill="white"/>
</mask>
<g mask="url(#mask37_447_1448)">
<path d="M614.762 1086.6C611.817 1092.49 610.59 1099.12 610.59 1106.73V1109.68C610.59 1110.17 610.59 1110.66 610.59 1111.15H627.278C627.278 1110.66 627.278 1110.17 627.278 1109.68V1106.48C627.278 1101.33 628.014 1096.91 629.732 1092.98C631.205 1089.05 633.659 1086.11 636.604 1083.9C639.549 1081.69 643.23 1080.71 647.402 1080.71C650.347 1080.71 652.801 1081.2 655.01 1081.93C657.219 1082.67 658.937 1083.65 660.409 1084.88L662.863 1094.95H675.134V1077.52C671.453 1074.32 667.035 1071.87 661.882 1070.4C656.973 1068.92 651.574 1068.19 646.175 1067.94C638.813 1067.94 632.432 1069.66 627.033 1072.85C621.634 1076.04 617.462 1080.71 614.762 1086.6Z" fill="black"/>
</g>
<mask id="mask38_447_1448" style="mask-type:luminance" maskUnits="userSpaceOnUse" x="-1147" y="-161" width="2655" height="2120">
<path d="M1507.83 -160.303H-1146.09V1958.86H1507.83V-160.303Z" fill="white"/>
</mask>
<g mask="url(#mask38_447_1448)">
<path d="M702.865 1105.5C703.601 1103.78 704.583 1102.56 705.81 1101.33C707.037 1100.35 708.755 1099.86 710.718 1099.86C712.682 1099.86 714.154 1100.35 715.381 1101.08C716.608 1101.82 717.345 1103.05 717.835 1104.52C718.326 1105.99 718.572 1107.96 718.572 1110.17V1111.15H734.033C733.787 1106.48 733.051 1102.56 731.333 1099.36C729.37 1095.44 726.916 1092.49 723.235 1090.53C719.553 1088.56 715.381 1087.58 710.228 1087.58C704.828 1087.58 700.166 1088.81 696.239 1091.26C692.312 1093.72 689.367 1097.15 687.158 1101.57C685.931 1104.52 684.95 1107.71 684.459 1111.15H701.393C701.883 1109.18 702.374 1107.22 702.865 1105.5Z" fill="black"/>
</g>
<mask id="mask39_447_1448" style="mask-type:luminance" maskUnits="userSpaceOnUse" x="-1147" y="-161" width="2655" height="2120">
<path d="M1507.83 -160.303H-1146.09V1958.86H1507.83V-160.303Z" fill="white"/>
</mask>
<g mask="url(#mask39_447_1448)">
<path d="M962.024 1107.96C962.024 1101.33 959.815 1096.42 955.398 1092.98C950.98 1089.54 944.845 1087.83 937.237 1087.83C932.82 1087.83 929.138 1088.32 925.457 1089.3C922.021 1090.28 918.586 1091.75 915.641 1093.23L915.886 1108.45H927.911L929.138 1101.08C930.12 1100.35 931.102 1099.86 932.329 1099.61C933.556 1099.36 934.783 1099.12 936.255 1099.12C939.2 1099.12 941.409 1099.86 942.882 1101.57C944.354 1103.29 945.09 1105.26 945.09 1107.71V1111.39H962.024V1107.96Z" fill="black"/>
</g>
<path d="M992.947 1100.35H1003.01V1088.81H992.947V1074.57H976.258V1088.81H968.65V1100.35H976.258V1111.39H992.947V1100.35Z" fill="black"/>
<path d="M676.852 1107.47H650.102V1111.39H676.852V1107.47Z" fill="black"/>
<mask id="mask40_447_1448" style="mask-type:luminance" maskUnits="userSpaceOnUse" x="-1147" y="-161" width="2655" height="2120">
<path d="M1507.83 -160.303H-1146.09V1958.86H1507.83V-160.303Z" fill="white"/>
</mask>
<g mask="url(#mask40_447_1448)">
<path d="M891.344 1107.47C892.326 1105.99 893.553 1105.01 894.78 1104.52C896.007 1104.03 897.725 1103.54 899.688 1103.78L907.542 1104.27L909.26 1088.81C908.278 1088.56 907.296 1088.32 906.315 1088.07C905.333 1087.83 904.351 1087.83 903.37 1087.83C900.425 1087.83 897.971 1088.56 896.007 1090.28C894.044 1091.75 892.326 1094.21 891.099 1097.4V1095.93L890.608 1089.05H866.803V1099.12L874.901 1100.84V1111.89H891.835L891.344 1107.47Z" fill="black"/>
</g>
<mask id="mask41_447_1448" style="mask-type:luminance" maskUnits="userSpaceOnUse" x="-1147" y="-161" width="2655" height="2120">
<path d="M1507.83 -160.303H-1146.09V1958.86H1507.83V-160.303Z" fill="white"/>
</mask>
<g mask="url(#mask41_447_1448)">
<path d="M828.027 1105.5C828.763 1103.78 829.745 1102.56 830.972 1101.33C832.199 1100.35 833.917 1099.86 835.881 1099.86C837.844 1099.86 839.316 1100.35 840.543 1101.08C841.77 1101.82 842.507 1103.05 842.998 1104.52C843.488 1105.99 843.734 1107.96 843.734 1110.17V1111.15H859.195C858.95 1106.48 858.213 1102.56 856.495 1099.36C854.532 1095.44 852.078 1092.49 848.397 1090.53C844.715 1088.56 840.543 1087.58 835.39 1087.58C829.991 1087.58 825.328 1088.81 821.401 1091.26C817.474 1093.72 814.529 1097.15 812.321 1101.57C811.094 1104.52 810.112 1107.71 809.621 1111.15H826.555C826.8 1109.18 827.291 1107.22 828.027 1105.5Z" fill="black"/>
</g>
<mask id="mask42_447_1448" style="mask-type:luminance" maskUnits="userSpaceOnUse" x="-1147" y="-161" width="2655" height="2120">
<path d="M1507.83 -160.303H-1146.09V1958.86H1507.83V-160.303Z" fill="white"/>
</mask>
<g mask="url(#mask42_447_1448)">
<path d="M1027.06 1105.5C1027.79 1103.78 1028.78 1102.56 1030 1101.33C1031.23 1100.35 1032.95 1099.86 1034.91 1099.86C1036.88 1099.86 1038.35 1100.35 1039.57 1101.08C1040.8 1101.82 1041.54 1103.05 1042.03 1104.52C1042.52 1105.99 1042.77 1107.96 1042.77 1110.17V1111.15H1058.23C1057.98 1106.48 1057.24 1102.56 1055.53 1099.36C1053.56 1095.44 1051.11 1092.49 1047.43 1090.53C1043.75 1088.56 1039.57 1087.58 1034.42 1087.58C1029.02 1087.58 1024.36 1088.81 1020.43 1091.26C1016.51 1093.72 1013.56 1097.15 1011.35 1101.57C1010.12 1104.52 1009.14 1107.71 1008.65 1111.15H1025.59C1025.83 1109.18 1026.32 1107.22 1027.06 1105.5Z" fill="black"/>
</g>
<mask id="mask43_447_1448" style="mask-type:luminance" maskUnits="userSpaceOnUse" x="-1147" y="-161" width="2655" height="2120">
<path d="M1507.83 -160.303H-1146.09V1958.86H1507.83V-160.303Z" fill="white"/>
</mask>
<g mask="url(#mask43_447_1448)">
<path d="M955.398 1142.33C950.98 1138.89 944.845 1136.93 937.237 1136.93C932.82 1136.93 929.138 1137.42 925.457 1138.4C921.776 1139.38 918.586 1140.85 915.641 1142.33L915.886 1157.55H927.911L929.138 1150.18C930.12 1149.45 931.102 1148.96 932.329 1148.71C933.556 1148.46 934.783 1148.22 936.255 1148.22C939.2 1148.22 941.409 1148.96 942.882 1150.67C944.354 1152.39 945.09 1154.36 945.09 1157.06V1160.74H938.219C931.347 1160.74 925.703 1161.97 921.531 1164.18H961.779V1157.06C962.024 1150.67 959.815 1145.76 955.398 1142.33Z" fill="black"/>
</g>
<path d="M1003.01 1149.69V1138.15H992.947V1123.91H976.258V1138.15H968.65V1149.69H976.258V1164.42H992.947V1149.69H1003.01Z" fill="black"/>
<mask id="mask44_447_1448" style="mask-type:luminance" maskUnits="userSpaceOnUse" x="-1147" y="-161" width="2655" height="2120">
<path d="M1507.83 -160.303H-1146.09V1958.86H1507.83V-160.303Z" fill="white"/>
</mask>
<g mask="url(#mask44_447_1448)">
<path d="M614.762 1135.94C611.817 1141.84 610.59 1148.46 610.59 1156.08V1159.02C610.59 1160.74 610.59 1162.46 610.835 1164.18H627.524C627.278 1162.46 627.033 1160.74 627.033 1159.02V1155.83C627.033 1150.67 627.769 1146.26 629.487 1142.33C630.959 1138.4 633.413 1135.45 636.358 1133.24C639.303 1131.03 642.985 1130.05 647.157 1130.05C650.102 1130.05 652.556 1130.54 654.765 1131.28C656.973 1132.02 658.691 1133 660.164 1134.23L662.618 1144.29H674.889V1126.86C671.207 1123.67 666.79 1121.21 661.636 1119.74C656.728 1118.27 651.329 1117.53 645.93 1117.29C638.567 1117.29 632.186 1119 626.787 1122.2C621.634 1125.39 617.462 1130.05 614.762 1135.94Z" fill="black"/>
</g>
<mask id="mask45_447_1448" style="mask-type:luminance" maskUnits="userSpaceOnUse" x="-1147" y="-161" width="2655" height="2120">
<path d="M1507.83 -160.303H-1146.09V1958.86H1507.83V-160.303Z" fill="white"/>
</mask>
<g mask="url(#mask45_447_1448)">
<path d="M1042.52 1160.99H1025.59L1025.34 1160.74C1025.59 1158.53 1026.08 1156.57 1026.57 1154.85C1027.3 1153.13 1028.28 1151.9 1029.51 1150.67C1030.74 1149.69 1032.46 1149.2 1034.42 1149.2C1036.38 1149.2 1037.86 1149.69 1039.08 1150.43C1040.31 1151.16 1041.05 1152.39 1041.54 1153.87C1042.03 1155.34 1042.27 1157.3 1042.27 1159.51V1160.99H1042.52ZM1055.53 1148.71C1053.56 1144.78 1051.11 1141.84 1047.43 1139.87C1043.75 1137.91 1039.57 1136.93 1034.42 1136.93C1029.02 1136.93 1024.36 1138.15 1020.43 1140.61C1016.5 1143.06 1013.56 1146.5 1011.35 1150.92C1009.39 1154.85 1008.65 1159.27 1008.41 1164.18H1058.23V1162.7C1058.23 1157.3 1057.24 1152.64 1055.53 1148.71Z" fill="black"/>
</g>
<mask id="mask46_447_1448" style="mask-type:luminance" maskUnits="userSpaceOnUse" x="-1147" y="-161" width="2655" height="2120">
<path d="M1507.83 -160.303H-1146.09V1958.86H1507.83V-160.303Z" fill="white"/>
</mask>
<g mask="url(#mask46_447_1448)">
<path d="M843.489 1160.99H826.555L826.31 1160.74C826.555 1158.53 827.046 1156.57 827.537 1154.85C828.273 1153.13 829.255 1151.9 830.482 1150.67C831.709 1149.69 833.427 1149.2 835.39 1149.2C837.354 1149.2 838.826 1149.69 840.053 1150.43C841.28 1151.16 842.016 1152.39 842.507 1153.87C842.998 1155.34 843.244 1157.3 843.244 1159.51L843.489 1160.99ZM856.251 1148.71C854.287 1144.78 851.833 1141.84 848.152 1139.87C844.471 1137.91 840.299 1136.93 835.145 1136.93C829.746 1136.93 825.083 1138.15 821.156 1140.61C817.23 1143.06 814.285 1146.5 812.076 1150.92C810.358 1154.85 809.376 1159.27 809.131 1164.18H858.95V1162.7C859.196 1157.3 858.214 1152.64 856.251 1148.71Z" fill="black"/>
</g>
<mask id="mask47_447_1448" style="mask-type:luminance" maskUnits="userSpaceOnUse" x="-1147" y="-161" width="2655" height="2120">
<path d="M1507.83 -160.303H-1146.09V1958.86H1507.83V-160.303Z" fill="white"/>
</mask>
<g mask="url(#mask47_447_1448)">
<path d="M793.178 1142.33C789.988 1138.64 785.816 1136.93 780.171 1136.93C776.49 1136.93 773.545 1137.66 770.6 1139.38C767.9 1141.1 765.446 1143.31 763.483 1146.01L762.747 1137.91H738.941V1147.97L747.04 1149.69V1164.42H763.974V1154.6C764.955 1153.13 766.182 1151.9 767.655 1151.16C769.127 1150.43 770.845 1149.94 772.809 1149.94C775.508 1149.94 777.472 1150.67 778.944 1152.15C780.417 1153.62 780.907 1156.07 780.907 1159.51V1164.42H797.841V1159.51C797.841 1151.66 796.369 1146.01 793.178 1142.33Z" fill="black"/>
</g>
<mask id="mask48_447_1448" style="mask-type:luminance" maskUnits="userSpaceOnUse" x="-1147" y="-161" width="2655" height="2120">
<path d="M1507.83 -160.303H-1146.09V1958.86H1507.83V-160.303Z" fill="white"/>
</mask>
<g mask="url(#mask48_447_1448)">
<path d="M894.78 1153.87C896.007 1153.13 897.48 1152.88 899.688 1153.13L907.542 1153.62L909.26 1138.15C908.278 1137.91 907.296 1137.66 906.315 1137.42C905.333 1137.17 904.351 1137.17 903.37 1137.17C900.425 1137.17 897.971 1137.91 896.007 1139.63C894.044 1141.1 892.326 1143.55 891.099 1146.75V1145.27L890.608 1138.4H866.803V1148.46L874.901 1150.18V1164.91H891.835V1157.55C892.326 1155.58 893.553 1154.6 894.78 1153.87Z" fill="black"/>
</g>
<path d="M676.852 1156.81H650.102V1164.42H676.852V1156.81Z" fill="black"/>
<mask id="mask49_447_1448" style="mask-type:luminance" maskUnits="userSpaceOnUse" x="-1147" y="-161" width="2655" height="2120">
<path d="M1507.83 -160.303H-1146.09V1958.86H1507.83V-160.303Z" fill="white"/>
</mask>
<g mask="url(#mask49_447_1448)">
<path d="M718.571 1160.99H701.637L701.392 1160.74C701.637 1158.53 702.128 1156.57 702.619 1154.85C703.355 1153.13 704.337 1151.9 705.564 1150.67C706.791 1149.69 708.509 1149.2 710.472 1149.2C712.436 1149.2 713.908 1149.69 715.135 1150.43C716.362 1151.16 717.099 1152.39 717.589 1153.87C718.08 1155.34 718.326 1157.3 718.326 1159.51L718.571 1160.99ZM731.333 1148.71C729.369 1144.78 726.915 1141.84 723.234 1139.87C719.553 1137.91 715.381 1136.93 710.227 1136.93C704.828 1136.93 700.165 1138.15 696.238 1140.61C692.312 1143.06 689.367 1146.5 687.158 1150.92C685.44 1154.85 684.458 1159.27 684.213 1164.18H734.032V1162.7C734.278 1157.3 733.296 1152.64 731.333 1148.71Z" fill="black"/>
</g>
<mask id="mask50_447_1448" style="mask-type:luminance" maskUnits="userSpaceOnUse" x="-1147" y="-161" width="2655" height="2120">
<path d="M1507.83 -160.303H-1146.09V1958.86H1507.83V-160.303Z" fill="white"/>
</mask>
<g mask="url(#mask50_447_1448)">
<path d="M646.174 1321.05H612.061V1335.29H646.174V1321.05ZM564.205 1364.75V1353.7L558.07 1351.99V1320.07C559.051 1318.35 560.524 1317.12 562.242 1316.39C563.96 1315.41 565.678 1315.16 567.886 1315.16C570.831 1315.16 573.04 1315.9 574.513 1317.62C575.985 1319.33 576.721 1322.03 576.721 1325.72V1352.23L570.095 1353.95V1365H603.226V1353.95L595.373 1352.23V1325.72C595.373 1317.12 593.655 1310.74 590.219 1306.81C586.783 1302.89 581.875 1300.92 575.985 1300.92C572.058 1300.92 568.623 1301.9 565.432 1303.62C562.487 1305.34 559.788 1307.8 557.579 1310.99L556.843 1302.15H530.338V1313.2L539.173 1314.91V1352.23L531.319 1353.95V1365L564.205 1364.75ZM488.617 1349.53C486.899 1348.06 485.672 1346.09 484.936 1343.39C484.2 1340.69 483.709 1337.5 483.709 1333.82V1332.59C483.709 1329.15 484.2 1325.96 484.936 1323.26C485.672 1320.56 486.899 1318.6 488.617 1317.12C490.335 1315.65 492.544 1314.91 495.243 1314.91C497.943 1314.91 500.152 1315.65 501.87 1317.12C503.587 1318.6 504.815 1320.81 505.551 1323.26C506.287 1325.72 506.778 1328.91 506.778 1332.59V1333.82C506.778 1337.5 506.287 1340.69 505.551 1343.39C504.815 1346.09 503.587 1348.06 501.87 1349.53C500.152 1351 497.943 1351.74 495.243 1351.74C492.544 1351.74 490.335 1351 488.617 1349.53ZM511.686 1361.81C516.104 1359.1 519.539 1355.18 521.994 1350.51C524.448 1345.6 525.675 1340.2 525.675 1333.82V1332.59C525.675 1326.21 524.448 1320.81 521.994 1315.9C519.539 1310.99 516.104 1307.3 511.686 1304.6C507.269 1301.9 501.87 1300.43 495.489 1300.43C489.108 1300.43 483.709 1301.9 479.291 1304.6C474.874 1307.3 471.438 1311.23 468.984 1315.9C466.53 1320.81 465.303 1326.21 465.303 1332.59V1333.82C465.303 1340.2 466.53 1345.85 468.984 1350.51C471.438 1355.42 474.874 1359.1 479.291 1361.81C483.709 1364.51 489.353 1365.98 495.734 1365.98C502.115 1365.98 507.023 1364.51 511.686 1361.81ZM454.75 1365.49C456.713 1365.24 458.431 1364.75 460.149 1364.26L458.677 1350.51C457.94 1350.51 457.204 1350.76 456.222 1350.76C455.241 1350.76 454.504 1351 453.523 1351C451.805 1351 450.578 1350.51 449.351 1349.53C448.124 1348.55 447.878 1347.08 447.878 1344.62V1314.67H458.922V1301.66H448.369V1286.19H429.963V1301.66H421.619V1314.67H429.963V1344.87C429.963 1352.23 431.681 1357.63 434.871 1360.82C438.062 1364.26 442.97 1365.73 449.105 1365.73C451.069 1365.98 453.032 1365.73 454.75 1365.49ZM379.898 1326.7C380.144 1324.24 380.634 1322.03 381.371 1320.32C382.107 1318.35 383.089 1316.88 384.561 1315.9C386.034 1314.91 387.751 1314.18 389.96 1314.18C392.169 1314.18 393.887 1314.67 395.114 1315.41C396.341 1316.39 397.323 1317.62 397.814 1319.33C398.304 1321.05 398.55 1323.02 398.55 1325.47V1326.94H379.898V1326.7ZM404.44 1363.77C408.366 1362.54 411.802 1360.82 414.502 1358.61L409.839 1347.32C407.139 1348.79 404.44 1349.78 401.985 1350.51C399.286 1351.25 396.586 1351.49 393.641 1351.49C390.696 1351.49 388.488 1351 386.524 1349.78C384.561 1348.55 383.089 1347.32 381.862 1345.36C380.634 1343.39 380.144 1341.43 379.898 1338.97V1338.73H415.974V1328.91C415.974 1322.77 414.992 1317.62 413.029 1313.44C411.066 1309.27 408.121 1306.08 404.194 1303.62C400.268 1301.41 395.359 1300.43 389.715 1300.43C383.579 1300.43 378.426 1301.9 374.254 1304.6C369.836 1307.3 366.646 1311.23 364.437 1316.14C362.228 1321.05 361.001 1326.7 361.001 1332.84V1335.05C361.001 1340.94 362.228 1346.09 364.682 1351C367.137 1355.67 370.818 1359.35 375.235 1362.05C379.653 1364.75 385.052 1365.98 391.187 1365.98C396.096 1365.98 400.513 1365.24 404.44 1363.77ZM356.829 1364.75V1353.7L348.976 1351.99V1273.92H321.244V1284.96L330.324 1286.68V1351.99L322.471 1353.7V1364.75H356.829ZM279.769 1326.7C280.014 1324.24 280.505 1322.03 281.241 1320.32C281.978 1318.35 282.959 1316.88 284.432 1315.9C285.904 1314.91 287.622 1314.18 289.831 1314.18C292.04 1314.18 293.757 1314.67 294.984 1315.41C296.212 1316.39 297.193 1317.62 297.684 1319.33C298.175 1321.05 298.42 1323.02 298.42 1325.47V1326.94H279.769V1326.7ZM304.556 1364.01C308.482 1362.79 311.918 1361.07 314.618 1358.86L309.955 1347.57C307.255 1349.04 304.556 1350.02 302.102 1350.76C299.402 1351.49 296.702 1351.74 293.757 1351.74C290.812 1351.74 288.604 1351.25 286.64 1350.02C284.677 1348.79 283.205 1347.57 281.978 1345.6C280.75 1343.64 280.26 1341.67 280.014 1339.22V1338.97H315.845V1329.15C315.845 1323.02 314.863 1317.86 312.9 1313.69C310.936 1309.51 307.992 1306.32 304.065 1303.87C300.138 1301.66 295.23 1300.68 289.585 1300.68C283.45 1300.68 278.296 1302.15 274.124 1304.85C269.707 1307.55 266.516 1311.48 264.308 1316.39C262.099 1321.3 260.872 1326.94 260.872 1333.08V1335.29C260.872 1341.18 262.099 1346.34 264.553 1351.25C267.007 1355.91 270.688 1359.6 275.106 1362.3C279.523 1365 284.923 1366.22 291.058 1366.22C295.966 1365.98 300.384 1365.24 304.556 1364.01ZM247.374 1314.91L255.473 1312.71V1301.66H221.115V1312.71L227.495 1313.69L200.009 1338.24L209.334 1347.81L247.374 1314.91ZM257.681 1364.75V1353.7L250.074 1351.74L230.931 1326.21L218.66 1337.99L229.459 1352.97L229.704 1353.21L225.286 1354.44V1364.75H257.681ZM218.17 1364.75V1353.7L211.543 1351.99V1273.92H184.057V1284.96L193.137 1286.68V1351.99L185.284 1353.7V1364.75H218.17ZM164.669 1363.28C169.577 1361.31 173.259 1358.86 175.713 1355.18C178.412 1351.74 179.639 1347.32 179.639 1342.41C179.639 1335.29 177.185 1329.64 172.277 1325.23C167.369 1320.81 160.252 1317.37 150.68 1314.67C146.508 1313.2 143.318 1311.72 140.864 1310.5C138.41 1309.27 136.692 1308.04 135.955 1306.57C134.974 1305.34 134.483 1303.62 134.483 1302.15C134.483 1300.18 134.974 1298.47 136.201 1296.99C137.428 1295.52 138.9 1294.54 140.864 1293.8C142.827 1293.07 145.036 1292.82 147.735 1292.82C150.68 1292.82 153.38 1293.07 155.834 1293.8C158.288 1294.29 160.252 1295.03 161.724 1296.01L164.178 1307.55H178.167V1287.91C174.24 1284.96 169.823 1282.51 164.669 1281.04C159.515 1279.32 153.625 1278.83 146.754 1278.83C140.864 1278.83 135.464 1280.05 130.802 1282.02C126.139 1283.98 122.703 1286.93 120.003 1290.36C117.304 1293.8 116.077 1297.98 116.077 1302.64C116.077 1307.3 117.304 1311.48 119.513 1314.67C121.721 1317.86 125.157 1320.81 129.575 1323.26C133.992 1325.72 139.882 1327.93 146.754 1330.14C150.435 1331.36 153.134 1332.59 155.343 1333.82C157.306 1335.05 159.024 1336.52 159.761 1337.99C160.742 1339.46 161.233 1341.18 161.233 1342.9C161.233 1344.62 160.742 1346.58 159.761 1347.81C158.779 1349.28 157.306 1350.27 155.343 1351C153.38 1351.74 150.926 1352.23 148.226 1352.23C144.545 1352.23 141.109 1351.74 137.919 1350.76C134.728 1349.78 132.52 1348.55 131.047 1347.08L129.329 1335.29H114.85V1356.65C120.003 1360.09 125.157 1362.54 130.311 1364.01C135.465 1365.49 141.354 1365.98 147.981 1365.98C154.607 1365.98 160.006 1365 164.669 1363.28Z" fill="black"/>
</g>
<mask id="mask51_447_1448" style="mask-type:luminance" maskUnits="userSpaceOnUse" x="-1147" y="-161" width="2655" height="2120">
<path d="M1507.83 -160.303H-1146.09V1958.86H1507.83V-160.303Z" fill="white"/>
</mask>
<g mask="url(#mask51_447_1448)">
<path d="M629.24 1651.01C632.185 1649.29 636.357 1648.55 641.511 1648.55H642.738C646.419 1648.55 649.609 1649.04 652.554 1649.78C655.499 1650.52 657.463 1651.74 659.181 1653.46C660.653 1655.18 661.635 1657.14 661.635 1659.84C661.635 1661.81 661.144 1663.77 660.162 1665.25C659.181 1666.96 657.708 1668.19 655.99 1669.17H629.731C628.013 1668.19 626.786 1666.72 626.05 1665C625.313 1663.28 624.823 1661.56 624.823 1659.6C624.823 1655.43 626.295 1652.48 629.24 1651.01ZM612.797 1663.28C614.27 1665.98 616.478 1668.19 619.423 1670.16L611.57 1671.63V1695.69H622.614L624.332 1687.83H702.619V1660.09H691.575L689.858 1669.17H668.016C670.47 1667.21 672.433 1665 673.906 1662.54C675.378 1660.09 675.869 1657.14 675.869 1653.71C675.869 1648.8 674.396 1644.62 671.697 1640.94C668.997 1637.26 665.071 1634.56 660.162 1632.84C655.254 1630.88 649.364 1629.89 642.738 1629.89H641.511C635.375 1629.89 629.731 1630.88 625.068 1632.84C620.405 1634.8 616.724 1637.5 614.024 1640.94C611.325 1644.62 610.098 1648.8 610.098 1653.71C610.343 1657.39 611.079 1660.58 612.797 1663.28ZM649.855 1586.44C652.309 1586.68 654.518 1587.18 656.236 1587.91C658.199 1588.65 659.671 1589.63 660.653 1591.1C661.635 1592.58 662.371 1594.3 662.371 1596.5C662.371 1598.71 661.88 1600.43 661.144 1601.66C660.408 1602.89 658.935 1603.87 657.217 1604.36C655.499 1604.85 653.536 1605.1 651.082 1605.1H649.609V1586.44H649.855ZM612.552 1611.23C613.779 1615.16 615.497 1618.6 617.705 1621.3L628.995 1616.64C627.522 1613.94 626.54 1611.23 625.804 1608.78C625.068 1606.32 624.823 1603.38 624.823 1600.43C624.823 1597.49 625.313 1595.28 626.54 1593.31C627.767 1591.35 628.995 1589.88 630.958 1588.65C632.921 1587.42 634.885 1586.93 637.339 1586.68H637.584V1622.77H647.401C653.536 1622.77 658.69 1621.79 662.862 1619.83C667.034 1617.86 670.47 1614.92 672.679 1610.74C674.887 1606.82 676.114 1601.91 676.114 1596.26C676.114 1590.12 674.642 1584.97 671.942 1580.79C669.243 1576.37 665.316 1573.18 660.408 1570.97C655.499 1568.76 649.855 1567.54 643.719 1567.54H641.511C635.621 1567.54 630.222 1568.76 625.559 1571.22C620.896 1573.67 617.215 1577.36 614.515 1581.77C611.816 1586.44 610.588 1591.59 610.588 1597.73C610.343 1602.64 611.079 1607.31 612.552 1611.23ZM615.988 1553.05C619.669 1557.47 624.577 1559.68 630.467 1559.68C636.112 1559.68 640.284 1557.96 643.229 1554.28C646.174 1550.6 648.382 1545.2 650.1 1537.58C650.837 1534.39 651.573 1532.18 652.309 1530.47C653.045 1528.75 654.027 1527.76 654.763 1527.27C655.745 1526.78 656.726 1526.54 657.708 1526.54C659.426 1526.54 660.653 1527.27 661.88 1528.75C663.107 1530.22 663.598 1532.18 663.598 1535.13C663.598 1536.85 663.353 1538.08 663.107 1539.55C662.862 1541.02 662.126 1542 661.389 1542.99L653.291 1544.7V1557.47H671.451C672.924 1554.77 673.906 1551.33 674.887 1547.16C675.869 1542.99 676.114 1538.57 676.114 1533.9C676.114 1528.01 675.133 1523.1 673.415 1519.42C671.697 1515.73 669.243 1513.03 666.298 1511.32C663.353 1509.6 660.162 1508.86 656.727 1508.86C651.573 1508.86 647.401 1510.58 643.965 1514.26C640.529 1517.7 638.075 1523.35 636.602 1530.71C635.621 1535.62 634.639 1538.57 633.412 1540.29C632.185 1542 630.713 1542.74 629.24 1542.74C627.768 1542.74 626.295 1542 625.313 1540.53C624.332 1539.06 623.595 1536.6 623.595 1533.17C623.595 1531.2 623.841 1529.48 624.086 1528.26C624.577 1526.78 625.068 1525.55 625.559 1524.57L634.639 1522.12V1509.35L615.742 1509.6C614.024 1513.28 612.797 1516.96 612.061 1521.38C611.079 1525.55 610.834 1529.97 610.834 1534.88C610.343 1542.25 612.306 1548.63 615.988 1553.05ZM625.804 1459.76C627.031 1458.53 628.504 1457.8 630.712 1457.8C632.921 1457.8 634.639 1458.53 636.112 1460.5C637.584 1462.46 638.32 1464.67 638.32 1468.11V1475.47H628.749C627.277 1474.25 626.05 1472.77 625.313 1471.05C624.577 1469.34 624.086 1467.37 624.086 1465.41C623.841 1462.95 624.577 1460.99 625.804 1459.76ZM612.552 1469.09C614.024 1471.54 615.988 1474 618.442 1475.96C617.215 1476.21 615.988 1476.45 614.76 1476.95C613.533 1477.44 612.552 1477.93 611.57 1478.42V1501H622.614L623.595 1494.38C624.332 1494.13 625.313 1494.13 626.05 1494.13C626.786 1494.13 627.767 1494.13 628.749 1494.13H653.536C660.653 1494.13 666.298 1491.68 670.224 1486.77C674.151 1481.86 676.114 1475.23 676.114 1466.63C676.114 1461.97 675.623 1457.55 674.396 1453.62C673.169 1449.69 671.697 1446.01 669.979 1442.58L653.045 1442.82V1456.08L661.144 1457.31C661.88 1458.29 662.371 1459.52 662.862 1460.99C663.353 1462.46 663.353 1463.69 663.353 1465.41C663.353 1468.6 662.371 1471.05 660.653 1472.77C658.69 1474.49 656.481 1475.23 653.782 1475.23H649.609V1467.62C649.609 1458.04 647.646 1450.92 643.965 1446.26C640.284 1441.35 635.375 1439.14 629.485 1439.14C623.595 1439.14 619.178 1441.1 615.742 1444.79C612.306 1448.47 610.588 1453.62 610.588 1459.76C610.343 1463.44 611.079 1466.63 612.552 1469.09ZM626.05 1395.44C626.786 1393.72 628.013 1392.49 629.731 1391.51H655.745C657.463 1392.49 658.935 1393.72 660.162 1395.44C661.144 1397.16 661.88 1399.12 661.88 1401.33C661.88 1403.79 661.144 1406 659.671 1407.47C658.199 1409.19 655.99 1410.17 653.291 1410.91C650.591 1411.64 647.155 1412.13 643.229 1412.13H642.002C636.603 1412.13 632.43 1411.4 629.485 1409.68C626.54 1407.96 625.068 1405.01 625.068 1401.09C624.823 1398.88 625.313 1396.91 626.05 1395.44ZM614.27 1419.74C616.724 1423.43 620.405 1426.13 625.068 1427.85C629.731 1429.56 635.375 1430.55 641.511 1430.55H642.738C649.609 1430.55 655.254 1429.56 660.408 1427.85C665.316 1425.88 669.243 1423.43 671.942 1419.74C674.642 1416.06 676.114 1411.89 676.114 1406.98C676.114 1403.54 675.378 1400.59 674.151 1397.89C672.924 1395.19 670.961 1392.98 668.506 1391.27H702.865V1363.77H691.821L690.103 1372.61H611.815V1388.81L619.423 1390.04C616.478 1392 614.27 1394.21 612.797 1396.91C611.325 1399.61 610.588 1402.8 610.588 1406.73C610.343 1411.89 611.57 1416.31 614.27 1419.74Z" fill="black"/>
</g>
<path d="M-56.4489 694.778H1507.83M-49.3318 500.832H1507.83M-76.8184 835.696H1507.83M-58.9031 977.841H1507.83M-22.0908 1188.24H1507.58M986.075 1976.54V-230.271M1057.74 2016.8V-270.779M610.59 -254.576V2000.6M-60.1301 465.48H1507.83M396.097 -242.546V1988.57M342.351 -230.271V1258.94M520.523 359.669H933.556M-35.0978 395.021H1211.61M770.846 -250.402V1996.67M-6.62957 280.617H1507.58M520.523 -238.127V395.021M735.261 -245.738V359.669M1507.83 1261.4H-38.779M1512 395.021H1185.84M1507.83 359.669H724.463M1507.83 1364.75H-29.2078M1534.33 1704.03H-14.2375M216.453 835.696V-238.127M288.114 1258.94V835.696M610.099 1364.75V1276.62M1164.98 976.859V694.778H1271.74V-254.576M1200.32 500.832V-234.445" stroke="black" stroke-width="0.5" stroke-miterlimit="10"/>
<path d="M1435.92 978.087H1507.83" stroke="black" stroke-width="0.5" stroke-miterlimit="10"/>
<path d="M780.156 1651.26V1648.48L783.029 1647.94V1628.44H777.735L777.338 1631.81H773.923V1624.96H796.705V1631.81H793.272L792.875 1628.44H787.582V1647.94L790.454 1648.48V1651.26H780.156ZM803.209 1659.16C802.836 1659.16 802.402 1659.12 801.908 1659.05C801.426 1658.98 801.005 1658.89 800.644 1658.78L801.149 1655.36C801.366 1655.4 801.625 1655.43 801.926 1655.45C802.239 1655.48 802.486 1655.49 802.667 1655.49C803.426 1655.49 804.064 1655.25 804.582 1654.77C805.1 1654.3 805.521 1653.64 805.847 1652.8L806.443 1651.23L799.758 1634.84L797.482 1634.52V1631.71H806.949V1634.52L804.546 1634.88L807.942 1643.98L808.539 1645.68H808.647L812.658 1634.86L810.255 1634.52V1631.71H819.234V1634.52L817.12 1634.82L809.55 1654.21C809.189 1655.12 808.737 1655.95 808.195 1656.7C807.665 1657.46 806.991 1658.06 806.172 1658.49C805.365 1658.93 804.377 1659.16 803.209 1659.16ZM820.499 1658.78V1655.98L823.136 1655.44V1635.06L820.264 1634.52V1631.71H827.219L827.508 1634.03C828.111 1633.17 828.845 1632.52 829.712 1632.06C830.58 1631.59 831.603 1631.35 832.784 1631.35C834.374 1631.35 835.735 1631.79 836.867 1632.65C837.999 1633.52 838.86 1634.73 839.45 1636.29C840.052 1637.84 840.354 1639.66 840.354 1641.74V1642.12C840.354 1644.02 840.052 1645.69 839.45 1647.13C838.848 1648.55 837.981 1649.65 836.849 1650.45C835.729 1651.24 834.374 1651.64 832.784 1651.64C831.664 1651.64 830.682 1651.45 829.839 1651.06C828.996 1650.67 828.273 1650.09 827.671 1649.33V1655.44L830.453 1655.98V1658.78H820.499ZM831.411 1648.14C832.904 1648.14 834.006 1647.59 834.717 1646.49C835.439 1645.39 835.801 1643.93 835.801 1642.12V1641.74C835.801 1640.39 835.638 1639.21 835.313 1638.2C835 1637.18 834.512 1636.38 833.85 1635.82C833.199 1635.24 832.374 1634.95 831.375 1634.95C830.531 1634.95 829.797 1635.14 829.17 1635.53C828.556 1635.9 828.056 1636.43 827.671 1637.12V1646.08C828.056 1646.74 828.556 1647.25 829.17 1647.61C829.785 1647.96 830.531 1648.14 831.411 1648.14ZM852.422 1651.64C850.543 1651.64 848.929 1651.22 847.58 1650.38C846.231 1649.53 845.195 1648.37 844.473 1646.87C843.75 1645.37 843.389 1643.64 843.389 1641.69V1641.31C843.389 1639.37 843.75 1637.65 844.473 1636.16C845.195 1634.67 846.231 1633.49 847.58 1632.64C848.929 1631.78 850.531 1631.35 852.386 1631.35C854.265 1631.35 855.879 1631.78 857.228 1632.64C858.576 1633.48 859.612 1634.65 860.335 1636.14C861.058 1637.63 861.419 1639.36 861.419 1641.31V1641.69C861.419 1643.64 861.058 1645.37 860.335 1646.87C859.612 1648.37 858.576 1649.53 857.228 1650.38C855.891 1651.22 854.289 1651.64 852.422 1651.64ZM852.422 1648.14C853.434 1648.14 854.265 1647.87 854.915 1647.32C855.577 1646.77 856.071 1646.01 856.396 1645.05C856.722 1644.07 856.884 1642.95 856.884 1641.69V1641.31C856.884 1640.06 856.722 1638.95 856.396 1637.98C856.071 1637.02 855.577 1636.26 854.915 1635.71C854.253 1635.15 853.41 1634.88 852.386 1634.88C851.386 1634.88 850.555 1635.15 849.893 1635.71C849.23 1636.26 848.736 1637.02 848.411 1637.98C848.098 1638.95 847.941 1640.06 847.941 1641.31V1641.69C847.941 1642.95 848.098 1644.07 848.411 1645.05C848.736 1646.01 849.23 1646.77 849.893 1647.32C850.567 1647.87 851.41 1648.14 852.422 1648.14ZM872.945 1659.16C871.982 1659.16 870.91 1659.03 869.729 1658.76C868.561 1658.51 867.531 1658.15 866.64 1657.69L867.58 1654.37C868.35 1654.72 869.2 1655 870.127 1655.22C871.054 1655.44 871.934 1655.54 872.765 1655.54C874.258 1655.54 875.348 1655.13 876.035 1654.3C876.733 1653.48 877.083 1652.32 877.083 1650.81V1649.28C876.48 1650.05 875.764 1650.64 874.933 1651.05C874.102 1651.44 873.15 1651.64 872.078 1651.64C870.488 1651.64 869.115 1651.24 867.959 1650.45C866.815 1649.65 865.936 1648.54 865.321 1647.11C864.719 1645.67 864.418 1644.01 864.418 1642.12V1641.74C864.418 1639.66 864.719 1637.84 865.321 1636.29C865.936 1634.73 866.809 1633.52 867.941 1632.65C869.085 1631.79 870.446 1631.35 872.024 1631.35C873.216 1631.35 874.252 1631.6 875.131 1632.09C876.011 1632.58 876.757 1633.27 877.372 1634.17L877.715 1631.71H881.635V1650.83C881.635 1652.53 881.292 1654 880.605 1655.24C879.919 1656.49 878.925 1657.45 877.625 1658.13C876.324 1658.81 874.764 1659.16 872.945 1659.16ZM873.307 1648.05C874.186 1648.05 874.933 1647.86 875.547 1647.49C876.173 1647.11 876.685 1646.57 877.083 1645.86V1637.15C876.685 1636.47 876.173 1635.93 875.547 1635.54C874.921 1635.15 874.18 1634.95 873.325 1634.95C872.325 1634.95 871.5 1635.24 870.85 1635.82C870.211 1636.38 869.736 1637.18 869.422 1638.2C869.121 1639.21 868.971 1640.39 868.971 1641.74V1642.12C868.971 1643.93 869.314 1645.37 870 1646.44C870.699 1647.51 871.801 1648.05 873.307 1648.05ZM881.021 1635.15L879.106 1631.71H883.984V1634.52L881.021 1635.15ZM885.899 1651.26V1648.48L888.609 1647.94V1635.06L885.754 1634.52V1631.71H892.8L893.035 1634.17L893.071 1634.57C893.589 1633.53 894.222 1632.74 894.968 1632.18C895.727 1631.63 896.612 1631.35 897.624 1631.35C897.961 1631.35 898.317 1631.38 898.69 1631.44C899.075 1631.5 899.389 1631.57 899.629 1631.64L899.105 1635.85L896.558 1635.71C895.727 1635.66 895.041 1635.82 894.499 1636.2C893.969 1636.57 893.523 1637.09 893.162 1637.75V1647.94L895.872 1648.48V1651.26H885.899ZM907.723 1651.64C905.736 1651.64 904.188 1651.13 903.08 1650.11C901.972 1649.08 901.418 1647.67 901.418 1645.88C901.418 1644.04 902.171 1642.54 903.676 1641.4C905.182 1640.25 907.332 1639.68 910.126 1639.68H913.107V1638.04C913.107 1637 912.794 1636.18 912.167 1635.56C911.553 1634.95 910.656 1634.64 909.476 1634.64C908.801 1634.64 908.205 1634.73 907.687 1634.89C907.169 1635.05 906.705 1635.28 906.296 1635.58L905.88 1638.22H902.538L902.502 1633.4C903.465 1632.77 904.537 1632.27 905.718 1631.91C906.898 1631.54 908.211 1631.35 909.656 1631.35C912.137 1631.35 914.089 1631.94 915.51 1633.11C916.943 1634.26 917.66 1635.92 917.66 1638.09V1646.71C917.66 1646.97 917.66 1647.23 917.66 1647.49C917.672 1647.74 917.69 1647.99 917.714 1648.23L919.701 1648.48V1651.26H913.757C913.637 1650.84 913.522 1650.43 913.414 1650.03C913.318 1649.64 913.245 1649.24 913.197 1648.84C912.547 1649.66 911.758 1650.34 910.831 1650.87C909.915 1651.38 908.879 1651.64 907.723 1651.64ZM908.753 1648.12C909.668 1648.12 910.523 1647.91 911.318 1647.49C912.113 1647.05 912.709 1646.51 913.107 1645.86V1642.59H910.072C908.711 1642.59 907.681 1642.91 906.982 1643.55C906.296 1644.17 905.953 1644.91 905.953 1645.75C905.953 1646.51 906.194 1647.1 906.675 1647.5C907.157 1647.91 907.85 1648.12 908.753 1648.12ZM921.634 1658.78V1655.98L924.272 1655.44V1635.06L921.399 1634.52V1631.71H928.355L928.644 1634.03C929.246 1633.17 929.981 1632.52 930.848 1632.06C931.715 1631.59 932.739 1631.35 933.919 1631.35C935.509 1631.35 936.87 1631.79 938.002 1632.65C939.135 1633.52 939.996 1634.73 940.586 1636.29C941.188 1637.84 941.489 1639.66 941.489 1641.74V1642.12C941.489 1644.02 941.188 1645.69 940.586 1647.13C939.984 1648.55 939.117 1649.65 937.984 1650.45C936.864 1651.24 935.509 1651.64 933.919 1651.64C932.799 1651.64 931.818 1651.45 930.975 1651.06C930.132 1650.67 929.409 1650.09 928.807 1649.33V1655.44L931.589 1655.98V1658.78H921.634ZM932.546 1648.14C934.04 1648.14 935.142 1647.59 935.853 1646.49C936.575 1645.39 936.937 1643.93 936.937 1642.12V1641.74C936.937 1640.39 936.774 1639.21 936.449 1638.2C936.136 1637.18 935.648 1636.38 934.985 1635.82C934.335 1635.24 933.51 1634.95 932.51 1634.95C931.667 1634.95 930.932 1635.14 930.306 1635.53C929.692 1635.9 929.192 1636.43 928.807 1637.12V1646.08C929.192 1646.74 929.692 1647.25 930.306 1647.61C930.92 1647.96 931.667 1648.14 932.546 1648.14ZM943.368 1651.26V1648.48L946.078 1647.94V1626.42L943.206 1625.88V1623.08H950.613V1634.24C951.251 1633.33 952.04 1632.62 952.979 1632.11C953.919 1631.61 954.979 1631.35 956.159 1631.35C958.171 1631.35 959.748 1632 960.893 1633.29C962.049 1634.56 962.627 1636.54 962.627 1639.21V1647.94L965.337 1648.48V1651.26H955.527V1648.48L958.092 1647.94V1639.18C958.092 1637.68 957.791 1636.6 957.189 1635.94C956.587 1635.28 955.701 1634.95 954.533 1634.95C953.702 1634.95 952.949 1635.14 952.275 1635.51C951.612 1635.87 951.058 1636.38 950.613 1637.04V1647.94L953.178 1648.48V1651.26H943.368ZM970.468 1659.16C970.094 1659.16 969.661 1659.12 969.167 1659.05C968.685 1658.98 968.264 1658.89 967.902 1658.78L968.408 1655.36C968.625 1655.4 968.884 1655.43 969.185 1655.45C969.498 1655.48 969.745 1655.49 969.926 1655.49C970.685 1655.49 971.323 1655.25 971.841 1654.77C972.359 1654.3 972.78 1653.64 973.105 1652.8L973.702 1651.23L967.017 1634.84L964.741 1634.52V1631.71H974.208V1634.52L971.805 1634.88L975.201 1643.98L975.797 1645.68H975.906L979.917 1634.86L977.514 1634.52V1631.71H986.493V1634.52L984.379 1634.82L976.809 1654.21C976.448 1655.12 975.996 1655.95 975.454 1656.7C974.924 1657.46 974.25 1658.06 973.431 1658.49C972.624 1658.93 971.636 1659.16 970.468 1659.16Z" fill="black"/>
<path d="M1075.46 778.667C1073.9 778.667 1072.66 778.211 1071.73 777.299C1070.82 776.375 1070.37 774.903 1070.37 772.885V760.053H1067.03V757.202H1070.37V752.104H1074.21V757.202H1078.8V760.053H1074.21V772.885C1074.21 773.901 1074.42 774.65 1074.82 775.131C1075.22 775.613 1075.76 775.854 1076.44 775.854C1076.9 775.854 1077.4 775.815 1077.96 775.737C1078.52 775.646 1078.96 775.568 1079.27 775.502L1079.8 778.022C1079.24 778.191 1078.55 778.341 1077.73 778.471C1076.92 778.601 1076.17 778.667 1075.46 778.667ZM1091.42 778.745C1089.47 778.745 1087.78 778.289 1086.36 777.377C1084.96 776.453 1083.87 775.183 1083.1 773.569C1082.33 771.941 1081.95 770.086 1081.95 768.002V767.573C1081.95 765.489 1082.33 763.64 1083.1 762.026C1083.87 760.398 1084.96 759.122 1086.36 758.198C1087.78 757.273 1089.46 756.811 1091.38 756.811C1093.34 756.811 1095.02 757.273 1096.42 758.198C1097.84 759.122 1098.93 760.392 1099.7 762.006C1100.47 763.621 1100.86 765.476 1100.86 767.573V768.002C1100.86 770.099 1100.47 771.961 1099.7 773.588C1098.93 775.203 1097.85 776.466 1096.44 777.377C1095.04 778.289 1093.36 778.745 1091.42 778.745ZM1091.42 775.737C1092.65 775.737 1093.67 775.405 1094.49 774.741C1095.32 774.064 1095.95 773.146 1096.36 771.987C1096.79 770.815 1097.01 769.487 1097.01 768.002V767.573C1097.01 766.088 1096.79 764.767 1096.36 763.608C1095.95 762.436 1095.32 761.518 1094.49 760.854C1093.65 760.177 1092.62 759.838 1091.38 759.838C1090.16 759.838 1089.13 760.177 1088.3 760.854C1087.46 761.518 1086.84 762.436 1086.42 763.608C1086.01 764.767 1085.8 766.088 1085.8 767.573V768.002C1085.8 769.487 1086.01 770.815 1086.42 771.987C1086.84 773.146 1087.46 774.064 1088.3 774.741C1089.14 775.405 1090.18 775.737 1091.42 775.737Z" fill="black"/>
</g>
</g>
<defs>
<clipPath id="clip0_447_1448">
<rect width="1512" height="1696" fill="white"/>
</clipPath>
<clipPath id="clip1_447_1448">
<rect width="2730" height="1982" fill="white" transform="translate(-1218 -286)"/>
</clipPath>
</defs>
</svg>
