<svg width="1512" height="2484" viewBox="0 0 1512 2484" fill="none" xmlns="http://www.w3.org/2000/svg">
<g clip-path="url(#clip0_447_1448)">
<rect width="1512" height="2484" fill="white"/>
<g clip-path="url(#clip1_447_1448)">
<mask id="mask0_447_1448" style="mask-type:luminance" maskUnits="userSpaceOnUse" x="-1064" y="-157" width="2655" height="2120">
<path d="M1590.83 -156.524H-1063.09V1962.64H1590.83V-156.524Z" fill="white"/>
</mask>
<g mask="url(#mask0_447_1448)">
<path d="M333.074 463.367V412.302L343.627 410.093V396.836H300.434V410.093L310.986 412.302V463.367C310.986 465.822 311.232 468.031 311.477 469.995H333.81C333.319 468.031 333.074 465.822 333.074 463.367Z" fill="black"/>
</g>
<path d="M579.717 516.886L571.863 519.095V532.107H611.13V519.095L602.049 516.886V504.611H579.717V516.886Z" fill="black"/>
<path d="M489.894 516.886L480.568 519.095V532.107H521.307V519.095L511.981 516.886V504.611H489.894V516.886Z" fill="black"/>
<mask id="mask1_447_1448" style="mask-type:luminance" maskUnits="userSpaceOnUse" x="-1064" y="-157" width="2655" height="2120">
<path d="M1590.83 -156.524H-1063.09V1962.64H1590.83V-156.524Z" fill="white"/>
</mask>
<g mask="url(#mask1_447_1448)">
<path d="M449.156 506.82C451.119 508.293 451.856 510.012 451.856 511.73C451.856 513.449 451.119 515.167 449.401 516.395C447.683 517.622 444.739 518.359 440.567 518.359C438.358 518.359 436.394 518.113 434.676 517.622C432.959 517.131 431.486 516.64 430.259 515.904L427.56 505.102H412.344L412.589 527.197C416.761 529.161 421.424 530.634 426.332 531.616C431.241 532.598 436.64 533.089 442.284 533.089C452.346 533.089 459.954 530.879 465.108 526.706C470.262 522.287 472.961 516.64 472.961 509.521C472.961 507.557 472.716 505.838 472.471 504.12H444.493C446.456 505.347 448.174 506.084 449.156 506.82Z" fill="black"/>
</g>
<mask id="mask2_447_1448" style="mask-type:luminance" maskUnits="userSpaceOnUse" x="-1064" y="-157" width="2655" height="2120">
<path d="M1590.83 -156.524H-1063.09V1962.64H1590.83V-156.524Z" fill="white"/>
</mask>
<g mask="url(#mask2_447_1448)">
<path d="M393.691 412.057L404.244 409.847V396.59H361.051V409.847L371.604 412.057V463.121C371.604 465.576 371.358 467.786 370.867 469.75H393.2C393.446 467.54 393.691 465.331 393.691 463.121V412.057Z" fill="black"/>
</g>
<path d="M535.543 516.886L526.217 519.095V532.107H564.747V519.095L557.63 516.886V504.611H535.543V516.886Z" fill="black"/>
<mask id="mask3_447_1448" style="mask-type:luminance" maskUnits="userSpaceOnUse" x="-1064" y="-157" width="2655" height="2120">
<path d="M1590.83 -156.524H-1063.09V1962.64H1590.83V-156.524Z" fill="white"/>
</mask>
<g mask="url(#mask3_447_1448)">
<path d="M368.66 508.293C367.188 510.994 364.979 513.203 362.034 514.676C359.089 516.149 355.653 516.886 351.481 516.886C347.309 516.886 344.119 516.149 341.174 514.676C338.229 513.203 336.02 511.239 334.548 508.293C334.057 507.066 333.566 505.838 333.075 504.365H310.742C311.478 509.275 312.951 513.449 315.405 517.131C318.841 522.532 323.504 526.46 329.885 529.161C336.02 531.861 343.382 533.334 351.727 533.334C360.071 533.334 367.188 531.861 373.569 529.161C379.704 526.46 384.612 522.287 388.048 516.886C390.502 513.203 391.975 509.03 392.711 504.365H370.378C369.642 505.838 369.151 507.311 368.66 508.293Z" fill="black"/>
</g>
<mask id="mask4_447_1448" style="mask-type:luminance" maskUnits="userSpaceOnUse" x="-1064" y="-157" width="2655" height="2120">
<path d="M1590.83 -156.524H-1063.09V1962.64H1590.83V-156.524Z" fill="white"/>
</mask>
<g mask="url(#mask4_447_1448)">
<path d="M683.036 438.325L673.22 422.613H666.348L664.876 431.942C662.667 428.505 659.967 425.805 656.777 424.086C653.586 422.122 649.905 421.386 645.488 421.386C639.598 421.386 634.444 423.104 630.272 426.296C626.1 429.487 622.664 434.152 620.455 440.044C618.247 445.936 617.02 452.81 617.02 460.666V462.139C617.02 464.84 617.265 467.54 617.51 469.995H639.843C639.352 467.54 639.107 465.085 639.107 462.139V460.666C639.107 456.247 639.598 452.319 640.334 449.127C641.07 445.936 642.543 443.235 644.751 441.517C646.96 439.798 649.414 438.816 652.605 438.816C655.059 438.816 657.022 439.307 658.985 440.289C660.949 441.271 662.421 442.99 663.648 444.954V470.241H685.736V438.08L683.036 438.325Z" fill="black"/>
</g>
<path d="M685.737 437.834V422.859H673.221L683.037 438.325L685.737 437.834Z" fill="black"/>
<mask id="mask5_447_1448" style="mask-type:luminance" maskUnits="userSpaceOnUse" x="-1064" y="-157" width="2655" height="2120">
<path d="M1590.83 -156.524H-1063.09V1962.64H1590.83V-156.524Z" fill="white"/>
</mask>
<g mask="url(#mask5_447_1448)">
<path d="M662.911 510.994C661.684 512.712 660.212 514.185 658.249 514.922C656.285 515.904 654.077 516.395 651.622 516.395C646.714 516.395 643.278 514.676 641.315 511.239C640.333 509.275 639.597 507.066 639.106 504.611H616.773C617.264 508.784 618.246 512.467 619.718 516.149C621.927 521.796 625.363 525.969 629.535 529.161C633.953 532.107 639.106 533.825 645.242 533.825C648.923 533.825 652.359 533.089 655.058 531.616C658.003 530.143 660.457 528.179 662.666 525.478V529.652C662.666 534.808 661.439 538.736 658.985 541.682C656.531 544.628 652.849 546.101 647.45 546.101C644.26 546.101 641.07 545.61 637.388 544.873C633.707 544.137 630.271 542.909 626.836 541.436L623.154 556.903C626.836 558.867 631.007 560.094 635.916 561.076C640.824 562.058 645.242 562.549 648.923 562.549C656.285 562.549 662.666 561.322 668.065 558.376C673.464 555.675 677.636 551.747 680.336 546.837C683.036 541.927 684.754 536.281 684.754 529.652V504.611H662.666L662.911 510.994Z" fill="black"/>
</g>
<path d="M512.964 389.716H490.141V407.883H512.964V389.716Z" fill="black"/>
<mask id="mask6_447_1448" style="mask-type:luminance" maskUnits="userSpaceOnUse" x="-1064" y="-157" width="2655" height="2120">
<path d="M1590.83 -156.524H-1063.09V1962.64H1590.83V-156.524Z" fill="white"/>
</mask>
<g mask="url(#mask6_447_1448)">
<path d="M596.404 428.505C592.232 423.841 586.587 421.386 579.47 421.386C574.807 421.386 570.635 422.368 566.954 424.577C563.273 426.787 560.328 429.733 557.873 433.415L556.892 422.859H525.479V436.116L536.031 438.325V470.241H558.119V444.463C559.346 442.499 561.064 441.026 563.027 440.044C564.991 439.062 567.199 438.571 569.899 438.571C573.335 438.571 576.034 439.553 577.752 441.517C579.47 443.481 580.452 446.672 580.452 451.091V470.241H602.539V451.091C602.784 440.78 600.576 433.17 596.404 428.505Z" fill="black"/>
</g>
<path d="M694.326 435.87V422.859H685.736V437.834L694.326 435.87Z" fill="black"/>
<path d="M480.078 422.859V435.87L490.631 438.08V469.995H512.718V422.859H480.078Z" fill="black"/>
<mask id="mask7_447_1448" style="mask-type:luminance" maskUnits="userSpaceOnUse" x="-1064" y="-157" width="2655" height="2120">
<path d="M1590.83 -156.524H-1063.09V1962.64H1590.83V-156.524Z" fill="white"/>
</mask>
<g mask="url(#mask7_447_1448)">
<path d="M467.07 460.175C462.898 456.738 456.272 454.038 447.192 452.074C443.51 451.337 440.811 450.355 438.847 449.373C436.884 448.391 435.657 447.409 434.921 446.427C434.185 445.445 433.939 444.217 433.939 442.99C433.939 441.026 434.675 439.307 436.393 438.08C438.111 436.852 440.565 436.116 443.756 436.116C445.719 436.116 447.437 436.361 448.909 436.852C450.382 437.343 451.854 437.834 452.836 438.816L455.045 448.391H470.015V427.032C466.825 425.314 462.653 424.086 457.744 423.104C452.836 422.122 447.682 421.631 442.038 421.631C435.166 421.631 429.276 422.613 425.104 424.823C420.932 427.032 417.496 429.733 415.533 433.17C413.57 436.607 412.588 440.535 412.588 444.708C412.588 450.846 414.551 456.001 418.723 459.93C422.895 463.858 429.276 466.804 438.111 468.522C440.565 469.013 442.774 469.504 444.492 469.995H472.469C472.224 466.067 470.261 462.63 467.07 460.175Z" fill="black"/>
</g>
<path d="M1233.5 492.581V469.259H1213.62V441.271H1180.25V469.259H1165.28V492.581H1180.25V504.12H1213.62V492.581H1233.5Z" fill="black"/>
<path d="M1106.87 469.259H1094.11V489.144L1106.87 492.336V504.12H1140.49V469.259H1106.87Z" fill="black"/>
<path d="M1073.25 469.259H1039.62H1027.6V489.144L1039.62 492.336V504.12H1073.25V469.259Z" fill="black"/>
<mask id="mask8_447_1448" style="mask-type:luminance" maskUnits="userSpaceOnUse" x="-1064" y="-157" width="2655" height="2120">
<path d="M1590.83 -156.524H-1063.09V1962.64H1590.83V-156.524Z" fill="white"/>
</mask>
<g mask="url(#mask8_447_1448)">
<path d="M1139.75 552.483C1137.55 555.184 1134.85 557.393 1131.66 558.866C1128.47 560.339 1125.03 561.076 1121.1 561.076C1115.7 561.076 1111.53 559.357 1108.83 555.92C1106.13 552.483 1104.91 547.328 1104.91 540.208V504.12H1070.06V540.208C1070.06 556.411 1073.49 568.687 1080.61 576.297C1087.73 584.153 1097.3 588.081 1109.57 588.081C1116.44 588.081 1122.82 586.608 1128.22 583.908C1133.62 581.207 1138.28 577.034 1142.21 571.633L1144.42 585.872H1189.08V565.25L1174.6 561.812V504.12H1139.75V552.483Z" fill="black"/>
</g>
<mask id="mask9_447_1448" style="mask-type:luminance" maskUnits="userSpaceOnUse" x="-1064" y="-157" width="2655" height="2120">
<path d="M1590.83 -156.524H-1063.09V1962.64H1590.83V-156.524Z" fill="white"/>
</mask>
<g mask="url(#mask9_447_1448)">
<path d="M1268.6 584.89L1265.9 559.357C1264.43 559.603 1262.95 559.848 1261.24 560.094C1259.52 560.339 1258.05 560.34 1256.33 560.34C1253.14 560.34 1250.68 559.357 1248.72 557.639C1246.76 555.92 1246.02 552.974 1246.02 548.555V504.12H1211.42V548.801C1211.42 562.549 1214.61 572.369 1220.74 578.752C1226.88 584.89 1235.71 588.081 1247.25 588.081C1250.93 588.081 1254.36 587.836 1258.04 587.099C1261.97 586.608 1265.41 585.872 1268.6 584.89Z" fill="black"/>
</g>
<path d="M963.3 565.004L952.502 563.285L958.392 543.645H1011.65L1017.78 563.285L1006.98 565.004V585.626H1063.43V565.004L1052.14 563.531L1031.03 504.12H999.131L1003.79 518.604H966L970.908 504.12H939.25L917.898 563.531L906.609 565.004V585.626H963.3V565.004Z" fill="black"/>
<mask id="mask10_447_1448" style="mask-type:luminance" maskUnits="userSpaceOnUse" x="-1064" y="-157" width="2655" height="2120">
<path d="M1590.83 -156.524H-1063.09V1962.64H1590.83V-156.524Z" fill="white"/>
</mask>
<g mask="url(#mask10_447_1448)">
<path d="M1328.97 476.624C1321.36 471.959 1312.53 469.75 1301.97 469.75C1291.42 469.75 1282.34 471.959 1274.98 476.624C1267.62 481.288 1261.73 487.426 1257.8 495.527C1256.57 498.228 1255.35 501.174 1254.61 504.12H1286.51C1287.74 501.419 1289.21 499.21 1291.42 497.491C1294.37 495.036 1298.05 493.809 1302.47 493.809C1306.88 493.809 1310.81 495.036 1313.51 497.491C1315.47 499.21 1317.19 501.419 1318.42 504.12H1350.08C1349.09 501.174 1348.11 498.228 1346.64 495.527C1342.22 487.426 1336.58 481.288 1328.97 476.624Z" fill="black"/>
</g>
<mask id="mask11_447_1448" style="mask-type:luminance" maskUnits="userSpaceOnUse" x="-1064" y="-157" width="2655" height="2120">
<path d="M1590.83 -156.524H-1063.09V1962.64H1590.83V-156.524Z" fill="white"/>
</mask>
<g mask="url(#mask11_447_1448)">
<path d="M1353.26 508.293C1354.74 513.203 1355.47 519.095 1355.47 525.724V527.933C1355.47 534.807 1354.74 540.699 1353.26 545.609C1351.79 550.519 1349.58 554.447 1346.39 557.148C1343.2 559.848 1339.03 561.321 1334.12 561.321C1329.21 561.321 1324.8 560.094 1321.61 557.148C1318.42 554.447 1316.21 550.519 1314.73 545.609C1313.26 540.699 1312.53 534.562 1312.53 527.933V525.724C1312.53 519.095 1313.26 513.449 1314.73 508.293C1315.23 506.82 1315.72 505.347 1316.45 504.12H1280.87C1278.9 510.748 1277.92 517.868 1277.92 525.724V527.933C1277.92 539.963 1280.13 550.274 1284.55 559.357C1288.97 568.441 1295.59 575.315 1303.94 580.471C1312.28 585.626 1322.59 588.081 1334.37 588.081C1346.15 588.081 1356.21 585.626 1364.55 580.471C1372.9 575.315 1379.28 568.441 1383.94 559.357C1388.36 550.274 1390.57 539.963 1390.57 527.933V525.724C1390.57 517.868 1389.59 510.748 1387.62 504.12H1352.04C1352.28 505.347 1353.02 506.82 1353.26 508.293Z" fill="black"/>
</g>
<path d="M938.759 504.12L951.03 467.54L952.748 462.139H953.238L954.956 467.049L967.227 504.12H998.886L971.399 427.278H934.832L907.346 504.12H938.759Z" fill="black"/>
<mask id="mask12_447_1448" style="mask-type:luminance" maskUnits="userSpaceOnUse" x="-1064" y="-157" width="2655" height="2120">
<path d="M1590.83 -156.524H-1063.09V1962.64H1590.83V-156.524Z" fill="white"/>
</mask>
<g mask="url(#mask12_447_1448)">
<path d="M830.777 695.366C833.722 692.911 835.194 689.719 835.194 685.546C835.194 681.863 833.967 678.917 831.513 676.953C829.059 674.989 825.378 673.516 820.224 672.289C818.015 671.798 816.543 671.307 815.561 670.816C814.579 670.325 813.843 669.588 813.353 669.097C812.862 668.606 812.862 667.87 812.862 667.133C812.862 665.906 813.352 665.169 814.334 664.433C815.316 663.696 816.788 663.205 818.506 663.205C819.488 663.205 820.47 663.205 821.451 663.451C822.433 663.696 823.169 663.942 823.66 664.433L824.887 669.834H833.476V657.559C831.513 656.577 829.304 655.84 826.605 655.349C823.905 654.858 820.96 654.367 817.524 654.367C813.598 654.367 810.162 654.858 807.708 656.331C805.254 657.804 803.29 659.032 802.309 661.241C801.327 663.451 800.591 665.415 800.591 667.87C800.591 671.307 801.818 674.253 804.272 676.462C806.726 678.672 810.408 680.39 815.316 681.372C818.506 681.863 820.715 682.6 821.697 683.582C822.678 684.564 823.169 685.3 823.169 686.528C823.169 687.755 822.678 688.492 821.697 689.228C820.715 689.965 818.997 690.456 816.788 690.456C815.561 690.456 814.334 690.456 813.353 689.965C812.371 689.474 811.635 689.474 810.898 688.983L809.426 682.845H800.836L801.082 695.366C803.536 696.593 805.99 697.33 808.935 697.821C811.88 698.312 814.825 698.803 818.015 698.803C823.414 699.048 827.832 697.821 830.777 695.366ZM788.32 698.312V690.947L782.921 689.719V669.834C783.657 668.852 784.639 668.115 785.375 667.624C786.357 667.133 787.584 666.888 789.056 666.888L794.946 667.133L796.173 655.595C795.437 655.349 794.701 655.349 793.965 655.104C793.228 655.104 792.492 654.858 791.756 654.858C789.547 654.858 787.829 655.349 786.357 656.577C784.884 657.804 783.657 659.523 782.676 661.978V660.996L782.185 655.84H764.515V663.205L770.405 664.433V689.719L765.251 690.947V698.312H788.32ZM734.574 672.534C734.819 670.816 735.065 669.343 735.556 668.115C736.047 666.888 736.783 665.906 737.764 665.169C738.746 664.433 739.973 663.942 741.446 663.942C742.918 663.942 744.145 664.187 744.882 664.924C745.618 665.66 746.354 666.397 746.845 667.624C747.336 668.852 747.336 670.079 747.336 671.798V672.78L734.574 672.534ZM751.262 697.575C753.962 696.593 756.171 695.611 758.134 694.138L754.944 686.528C753.226 687.51 751.262 688.246 749.544 688.737C747.827 689.228 745.863 689.474 743.9 689.474C741.937 689.474 740.464 689.228 738.992 688.246C737.764 687.51 736.537 686.528 735.801 685.3C735.065 684.073 734.574 682.6 734.574 680.881V680.636H758.87V674.007C758.87 669.834 758.134 666.397 756.907 663.451C755.434 660.505 753.471 658.295 750.772 656.822C748.072 655.349 744.882 654.613 740.955 654.613C736.783 654.613 733.347 655.595 730.402 657.313C727.457 659.032 725.248 661.732 723.776 665.169C722.303 668.606 721.322 672.289 721.322 676.462V677.935C721.322 681.863 722.058 685.546 723.776 688.737C725.494 691.929 727.948 694.384 730.893 696.102C733.838 697.821 737.519 698.803 741.691 698.803C745.372 699.048 748.563 698.557 751.262 697.575ZM687.945 686.282C686.718 684.318 686.227 681.372 686.227 677.935V677.199C686.227 674.744 686.473 672.534 686.964 670.57C687.454 668.606 688.191 667.133 689.418 666.151C690.645 665.169 691.872 664.678 693.835 664.678C695.308 664.678 696.535 664.924 697.516 665.66C698.498 666.397 699.48 667.379 700.216 668.361V686.037C699.48 687.264 698.498 688.001 697.516 688.492C696.289 688.983 695.062 689.228 693.835 689.228C691.136 689.228 689.172 688.246 687.945 686.282ZM696.289 697.575C698.007 696.593 699.725 695.12 700.952 692.911L701.934 698.066H718.131V690.701L712.732 689.474V636.691H694.081V644.056L700.216 645.283V660.014C698.989 658.295 697.516 657.068 695.798 656.086C694.081 655.104 692.117 654.613 689.663 654.613C686.473 654.613 683.528 655.595 681.074 657.313C678.619 659.032 676.901 661.732 675.674 665.169C674.447 668.606 673.711 672.534 673.711 676.953V677.69C673.711 681.863 674.447 685.546 675.674 688.737C676.901 691.929 678.865 694.384 681.074 696.102C683.528 697.821 686.473 698.803 689.663 698.803C692.363 699.048 694.571 698.557 696.289 697.575ZM644.261 698.312V690.947L640.089 689.719V668.115C640.825 666.888 641.807 666.151 642.789 665.66C643.77 665.169 645.243 664.678 646.715 664.678C648.679 664.678 650.151 665.169 651.133 666.397C652.115 667.379 652.605 669.343 652.605 671.798V689.719L648.188 690.947V698.312H670.521V690.947L665.367 689.719V671.798C665.367 665.906 664.14 661.732 661.931 659.032C659.722 656.331 656.287 655.104 652.115 655.104C649.415 655.104 647.206 655.595 644.997 656.822C643.034 658.05 641.071 659.768 639.844 661.732L639.353 655.595H621.438V662.96L627.573 664.187V689.474L622.174 690.701V698.066L644.261 698.312ZM593.215 688.001C591.988 687.019 591.252 685.546 590.761 683.827C590.27 682.109 590.025 679.899 590.025 677.444V676.708C590.025 674.253 590.27 672.289 590.761 670.325C591.252 668.361 592.233 667.133 593.215 666.151C594.442 665.169 595.914 664.678 597.632 664.678C599.35 664.678 601.068 665.169 602.05 666.151C603.277 667.133 604.013 668.606 604.504 670.325C604.995 672.043 605.24 674.253 605.24 676.708V677.444C605.24 679.899 604.995 682.109 604.504 683.827C604.013 685.546 603.031 687.019 602.05 688.001C600.823 688.983 599.35 689.474 597.632 689.474C595.914 689.474 594.442 688.983 593.215 688.001ZM608.676 696.348C611.621 694.384 614.075 691.929 615.548 688.737C617.266 685.546 618.002 681.618 618.002 677.444V676.708C618.002 672.534 617.266 668.606 615.548 665.415C613.83 662.223 611.621 659.523 608.676 657.804C605.731 656.086 602.05 655.104 597.632 655.104C593.215 655.104 589.779 656.086 586.589 657.804C583.398 659.523 581.19 662.223 579.717 665.415C578.245 668.606 577.263 672.534 577.263 676.708V677.444C577.263 681.863 577.999 685.546 579.717 688.737C581.435 691.929 583.644 694.629 586.834 696.348C590.024 698.066 593.706 699.048 597.878 699.048C602.05 699.048 605.731 698.312 608.676 696.348ZM564.01 697.33C566.465 696.102 568.182 694.384 569.655 692.174C570.882 689.965 571.864 687.264 572.6 684.073L572.355 683.827H561.802C561.311 685.546 560.575 687.019 559.593 688.001C558.611 688.983 557.139 689.474 555.176 689.474C553.948 689.474 552.721 688.983 551.494 688.246C550.267 687.51 549.286 686.282 548.549 684.318C547.813 682.6 547.568 680.39 547.568 677.444V676.462C547.568 673.762 547.813 671.552 548.549 669.588C549.286 667.624 550.022 666.397 551.249 665.415C552.476 664.433 554.194 663.942 556.157 663.942C556.893 663.942 557.63 664.187 558.611 664.433C559.347 664.678 560.084 665.169 560.575 665.66L562.047 673.271H571.373L571.618 660.505C569.9 659.032 567.692 657.804 564.747 656.577C561.802 655.349 558.611 654.858 554.685 654.858C550.758 654.858 547.077 655.84 544.132 657.559C541.187 659.277 538.733 661.978 537.26 665.169C535.542 668.361 534.806 672.289 534.806 676.462V677.444C534.806 681.618 535.542 685.3 537.26 688.492C538.978 691.683 541.187 694.384 544.132 696.102C547.077 698.066 550.758 698.803 554.93 698.803C558.611 699.048 561.802 698.557 564.01 697.33ZM505.356 698.312V690.947L501.184 689.719V668.115C501.92 666.888 502.902 666.151 503.884 665.66C504.865 665.169 506.338 664.678 507.81 664.678C509.774 664.678 511.246 665.169 512.228 666.397C513.209 667.379 513.7 669.343 513.7 671.798V689.719L509.283 690.947V698.312H531.616V690.947L526.462 689.719V671.798C526.462 665.906 525.235 661.732 523.026 659.032C520.817 656.331 517.381 655.104 513.209 655.104C510.51 655.104 508.301 655.595 506.092 656.822C504.129 658.05 502.166 659.768 500.939 661.732L500.448 655.595H482.532V662.96L488.668 664.187V689.474L483.269 690.701V698.066L505.356 698.312ZM454.555 672.534C454.801 670.816 455.046 669.343 455.537 668.115C456.028 666.888 456.764 665.906 457.746 665.169C458.727 664.433 459.954 663.942 461.427 663.942C462.899 663.942 464.126 664.187 464.863 664.924C465.599 665.66 466.335 666.397 466.826 667.624C467.317 668.852 467.317 670.079 467.317 671.798V672.78L454.555 672.534ZM471.243 697.821C473.943 696.839 476.152 695.857 478.115 694.384L474.925 686.773C473.207 687.755 471.243 688.492 469.525 688.983C467.808 689.474 465.844 689.719 463.881 689.719C461.918 689.719 460.445 689.474 458.973 688.492C457.746 687.755 456.519 686.773 455.782 685.546C455.046 684.318 454.555 682.845 454.555 681.127V680.881H478.851V674.253C478.851 670.079 478.115 666.642 476.888 663.696C475.415 660.75 473.452 658.541 470.753 657.068C468.053 655.595 464.863 654.858 460.936 654.858C456.764 654.858 453.328 655.84 450.383 657.559C447.438 659.277 445.229 661.978 443.757 665.415C442.284 668.852 441.303 672.534 441.303 676.708V678.181C441.303 682.109 442.039 685.791 443.757 688.983C445.475 692.174 447.929 694.629 450.874 696.348C453.819 698.066 457.5 699.048 461.672 699.048C465.353 699.048 468.544 698.557 471.243 697.821Z" fill="black"/>
</g>
<mask id="mask13_447_1448" style="mask-type:luminance" maskUnits="userSpaceOnUse" x="-1064" y="-157" width="2655" height="2120">
<path d="M1590.83 -156.524H-1063.09V1962.64H1590.83V-156.524Z" fill="white"/>
</mask>
<g mask="url(#mask13_447_1448)">
<path d="M830.777 708.868C833.722 711.323 835.194 714.515 835.194 718.688C835.194 722.371 833.967 725.317 831.513 727.281C829.059 729.245 825.378 730.718 820.224 731.945C818.015 732.436 816.543 732.927 815.561 733.418C814.579 733.909 813.843 734.646 813.353 735.137C812.862 735.628 812.862 736.364 812.862 737.101C812.862 738.328 813.352 739.065 814.334 739.801C815.316 740.538 816.788 741.029 818.506 741.029C819.488 741.029 820.47 741.029 821.451 740.783C822.433 740.538 823.169 740.292 823.66 739.801L824.887 734.4H833.476V746.675C831.513 747.657 829.304 748.394 826.605 748.885C823.905 749.376 820.96 749.867 817.524 749.867C813.598 749.867 810.162 749.376 807.708 747.903C805.254 746.43 803.29 745.202 802.309 742.993C801.327 740.783 800.591 738.819 800.591 736.364C800.591 732.927 801.818 729.981 804.272 727.772C806.726 725.562 810.408 723.844 815.316 722.862C818.506 722.371 820.715 721.634 821.697 720.652C822.678 719.67 823.169 718.934 823.169 717.706C823.169 716.479 822.678 715.742 821.697 715.006C820.715 714.269 818.997 713.778 816.788 713.778C815.561 713.778 814.334 713.778 813.353 714.269C812.371 714.76 811.635 714.76 810.898 715.251L809.426 721.389H800.836L801.082 708.868C803.536 707.641 805.99 706.904 808.935 706.413C811.88 705.922 814.825 705.431 818.015 705.431C823.414 705.185 827.832 706.413 830.777 708.868ZM788.32 705.922V713.287L782.921 714.515V734.4C783.657 735.382 784.639 736.119 785.375 736.61C786.357 737.101 787.584 737.346 789.056 737.346L794.946 737.101L796.173 748.639C795.437 748.885 794.701 748.885 793.965 749.13C793.228 749.13 792.492 749.376 791.756 749.376C789.547 749.376 787.829 748.885 786.357 747.657C784.884 746.43 783.657 744.711 782.676 742.256V743.238L782.185 748.394H764.515V741.029L770.405 739.801V714.515L765.251 713.287V705.922H788.32ZM734.574 731.7C734.819 733.418 735.065 734.891 735.556 736.119C736.047 737.346 736.783 738.328 737.764 739.065C738.746 739.801 739.973 740.292 741.446 740.292C742.918 740.292 744.145 740.047 744.882 739.31C745.618 738.574 746.354 737.837 746.845 736.61C747.336 735.382 747.336 734.155 747.336 732.436V731.454L734.574 731.7ZM751.262 706.413C753.962 707.395 756.171 708.623 758.134 709.85L754.944 717.461C753.226 716.479 751.262 715.742 749.544 715.251C747.827 714.76 745.863 714.515 743.9 714.515C741.937 714.515 740.464 714.76 738.992 715.742C737.764 716.479 736.537 717.461 735.801 718.688C735.065 719.916 734.574 721.389 734.574 723.107V723.353H758.87V729.981C758.87 734.155 758.134 737.592 756.907 740.538C755.68 743.484 753.471 745.693 750.772 747.166C748.072 748.639 744.882 749.376 740.955 749.376C736.783 749.376 733.347 748.394 730.402 746.675C727.457 744.957 725.248 742.256 723.776 738.819C722.303 735.382 721.322 731.7 721.322 727.526V726.053C721.322 722.125 722.058 718.443 723.776 715.251C725.494 712.06 727.948 709.605 730.893 707.886C733.838 706.167 737.519 705.186 741.691 705.186C745.372 705.186 748.563 705.677 751.262 706.413ZM687.945 717.952C686.718 719.916 686.227 722.862 686.227 726.299V727.035C686.227 729.49 686.473 731.7 686.964 733.664C687.454 735.628 688.191 737.101 689.418 738.083C690.645 739.065 691.872 739.556 693.835 739.556C695.308 739.556 696.535 739.31 697.516 738.574C698.498 737.837 699.48 737.101 700.216 735.873V718.197C699.48 716.97 698.498 716.233 697.516 715.742C696.289 715.251 695.062 714.76 693.835 714.76C691.136 714.76 689.172 715.742 687.945 717.952ZM696.289 706.658C698.007 707.641 699.725 709.114 700.952 711.323L701.934 706.168H718.131V713.533L712.732 714.76V767.543H694.081V760.178L700.216 758.95V744.22C698.989 745.939 697.516 747.166 695.798 748.148C694.081 749.13 692.117 749.621 689.663 749.621C686.473 749.621 683.528 748.639 681.074 746.921C678.619 745.202 676.901 742.502 675.674 739.065C674.447 735.628 673.711 731.7 673.711 727.281V726.544C673.711 722.371 674.447 718.688 675.674 715.497C676.901 712.305 678.865 709.85 681.074 708.132C683.528 706.413 686.473 705.431 689.663 705.431C692.363 705.185 694.571 705.676 696.289 706.658ZM644.261 705.922V713.287L640.089 714.515V736.119C640.825 737.346 641.807 738.083 642.789 738.574C643.77 739.065 645.243 739.556 646.715 739.556C648.679 739.556 650.151 739.065 651.133 737.837C652.115 736.855 652.605 734.891 652.605 732.436V714.515L648.188 713.287V705.922H670.521V713.287L665.367 714.515V732.436C665.367 738.328 664.14 742.502 661.931 745.202C659.722 747.903 656.287 749.13 652.115 749.13C649.415 749.13 647.206 748.639 644.997 747.412C643.034 746.184 641.071 744.466 639.844 742.502L639.353 748.639H621.438V741.274L627.573 740.047V714.515L622.174 713.287V705.922H644.261ZM593.215 716.233C591.988 717.215 591.252 718.688 590.761 720.407C590.27 722.125 590.025 724.335 590.025 726.79V727.526C590.025 729.981 590.27 731.945 590.761 733.909C591.252 735.873 592.233 737.101 593.215 738.083C594.442 739.065 595.914 739.556 597.632 739.556C599.35 739.556 601.068 739.065 602.05 738.083C603.277 737.101 604.013 735.628 604.504 733.909C604.995 732.191 605.24 729.981 605.24 727.526V726.79C605.24 724.335 604.995 722.125 604.504 720.407C604.013 718.688 603.031 717.215 602.05 716.233C600.823 715.251 599.35 714.76 597.632 714.76C595.914 714.76 594.442 715.251 593.215 716.233ZM608.676 707.886C611.621 709.85 614.075 712.305 615.548 715.497C617.266 718.688 618.002 722.616 618.002 726.79V727.526C618.002 731.7 617.266 735.628 615.548 738.819C613.83 742.011 611.621 744.711 608.676 746.43C605.731 748.148 602.05 749.13 597.632 749.13C593.215 749.13 589.779 748.148 586.589 746.43C583.644 744.466 581.19 742.011 579.717 738.819C578.245 735.628 577.263 731.7 577.263 727.526V726.79C577.263 722.371 577.999 718.688 579.717 715.497C581.435 712.305 583.644 709.605 586.834 707.886C590.024 706.167 593.706 705.186 597.878 705.186C602.05 705.186 605.731 705.922 608.676 707.886ZM564.01 706.904C566.465 708.132 568.182 709.85 569.655 712.06C570.882 714.269 571.864 716.97 572.6 720.161L572.355 720.407H561.802C561.311 718.688 560.575 717.215 559.593 716.233C558.611 715.251 557.139 714.76 555.176 714.76C553.948 714.76 552.721 715.251 551.494 715.988C550.267 716.724 549.286 718.197 548.549 719.916C547.813 721.634 547.568 723.844 547.568 726.79V727.772C547.568 730.472 547.813 732.682 548.549 734.646C549.286 736.61 550.022 737.837 551.249 738.819C552.476 739.801 554.194 740.292 556.157 740.292C556.893 740.292 557.63 740.047 558.611 739.801C559.347 739.556 560.084 739.065 560.575 738.574L562.047 730.963H571.373L571.618 743.729C569.9 745.202 567.692 746.43 564.747 747.657C561.802 748.885 558.611 749.376 554.685 749.376C550.758 749.376 547.077 748.394 544.132 746.675C541.187 744.711 538.733 742.256 537.26 739.065C535.542 735.873 534.806 731.945 534.806 727.772V726.79C534.806 722.616 535.542 718.934 537.26 715.742C538.978 712.551 541.187 709.85 544.132 708.132C547.077 706.168 550.758 705.431 554.93 705.431C558.611 705.185 561.802 705.677 564.01 706.904ZM505.356 705.922V713.287L501.184 714.515V736.119C501.92 737.346 502.902 738.083 503.884 738.574C504.865 739.065 506.338 739.556 507.81 739.556C509.774 739.556 511.246 739.065 512.228 737.837C513.209 736.855 513.7 734.891 513.7 732.436V714.515L509.283 713.287V705.922H531.616V713.287L526.462 714.515V732.436C526.462 738.328 525.235 742.502 523.026 745.202C520.817 747.903 517.381 749.13 513.209 749.13C510.51 749.13 508.301 748.639 506.092 747.412C504.129 746.184 502.166 744.466 500.939 742.502L500.448 748.639H482.532V741.274L488.668 740.047V714.515L483.269 713.287V705.922H505.356ZM454.555 731.7C454.801 733.418 455.046 734.891 455.537 736.119C456.028 737.346 456.764 738.328 457.746 739.065C458.727 739.801 459.954 740.292 461.427 740.292C462.899 740.292 464.126 740.047 464.863 739.31C465.599 738.574 466.335 737.837 466.826 736.61C467.317 735.382 467.317 734.155 467.317 732.436V731.454L454.555 731.7ZM471.243 706.413C473.943 707.395 476.152 708.623 478.115 709.85L474.925 717.461C473.207 716.479 471.243 715.742 469.525 715.251C467.808 714.76 465.844 714.515 463.881 714.515C461.918 714.515 460.445 714.76 458.973 715.742C457.746 716.479 456.519 717.461 455.782 718.688C455.046 719.916 454.555 721.389 454.555 723.107V723.353H478.851V729.981C478.851 734.155 478.115 737.592 476.888 740.538C475.661 743.484 473.452 745.693 470.753 747.166C468.053 748.639 464.863 749.376 460.936 749.376C456.764 749.376 453.328 748.394 450.383 746.675C447.438 744.957 445.229 742.256 443.757 738.819C442.284 735.382 441.303 731.7 441.303 727.526V726.053C441.303 722.125 442.039 718.443 443.757 715.251C445.475 712.06 447.929 709.605 450.874 707.886C453.819 706.167 457.5 705.186 461.672 705.186C465.353 705.186 468.544 705.677 471.243 706.413Z" fill="black"/>
</g>
<mask id="mask14_447_1448" style="mask-type:luminance" maskUnits="userSpaceOnUse" x="-1064" y="-157" width="2655" height="2120">
<path d="M1590.83 -156.524H-1063.09V1962.64H1590.83V-156.524Z" fill="white"/>
</mask>
<g mask="url(#mask14_447_1448)">
<path d="M1108.59 1229.33C1108.83 1227.12 1109.32 1225.16 1109.81 1223.44C1110.55 1221.72 1111.53 1220.49 1112.76 1219.27C1113.98 1218.28 1115.7 1217.79 1117.67 1217.79C1119.63 1217.79 1121.1 1218.28 1122.33 1219.02C1123.56 1219.76 1124.29 1220.98 1124.78 1222.46C1125.27 1223.93 1125.52 1225.89 1125.52 1228.1V1229.58H1108.59V1229.33ZM1130.92 1262.97C1134.6 1261.74 1137.54 1260.26 1140 1258.3L1135.83 1247.99C1133.37 1249.22 1130.92 1250.44 1128.71 1250.94C1126.26 1251.67 1123.8 1251.92 1121.1 1251.92C1118.4 1251.92 1116.44 1251.43 1114.48 1250.44C1112.51 1249.46 1111.29 1248.24 1110.3 1246.52C1109.32 1244.8 1108.59 1242.83 1108.59 1240.87V1240.62H1140.98V1231.54C1140.98 1226.14 1140 1221.23 1138.28 1217.55C1136.32 1213.62 1133.86 1210.67 1130.18 1208.71C1126.5 1206.75 1122.33 1205.76 1117.18 1205.76C1111.78 1205.76 1107.11 1206.99 1103.19 1209.45C1099.26 1211.9 1096.31 1215.34 1094.11 1219.76C1092.14 1224.18 1090.92 1229.09 1090.92 1234.98V1236.94C1090.92 1242.34 1092.14 1247.01 1094.35 1251.18C1096.56 1255.35 1099.75 1258.79 1103.92 1261C1108.09 1263.46 1112.76 1264.68 1118.4 1264.68C1123.07 1264.93 1127.24 1264.19 1130.92 1262.97ZM1081.84 1264.44C1083.55 1264.19 1085.27 1263.7 1086.74 1263.21L1085.52 1250.94C1084.78 1250.94 1084.04 1251.18 1083.31 1251.18C1082.57 1251.18 1081.59 1251.43 1080.85 1251.43C1079.38 1251.43 1078.15 1250.94 1077.17 1250.2C1076.19 1249.46 1075.95 1247.99 1075.95 1245.78V1218.53H1086.01V1206.75H1075.95V1192.75H1059.01V1206.75H1051.65V1218.53H1059.01V1246.03C1059.01 1252.65 1060.48 1257.56 1063.43 1260.51C1066.37 1263.46 1070.79 1265.17 1076.44 1265.17C1078.15 1264.93 1080.12 1264.68 1081.84 1264.44ZM1014.1 1251.18C1012.87 1250.2 1012.38 1248.73 1012.38 1246.76C1012.38 1244.8 1013.12 1243.08 1014.84 1241.85C1016.31 1240.62 1018.76 1239.89 1021.71 1239.89H1028.33V1248.48C1027.35 1249.71 1025.88 1250.94 1024.41 1251.67C1022.94 1252.41 1020.97 1252.9 1019.25 1252.9C1016.8 1252.65 1015.33 1252.16 1014.1 1251.18ZM1022.44 1262.97C1024.65 1261.74 1026.86 1260.02 1028.58 1257.56C1028.83 1258.55 1029.07 1259.77 1029.56 1260.76C1030.05 1261.74 1030.54 1262.72 1030.79 1263.7H1050.91V1253.64L1044.78 1252.65C1044.53 1251.92 1044.53 1251.18 1044.53 1250.44C1044.53 1249.71 1044.53 1248.97 1044.53 1247.99V1225.65C1044.53 1219.02 1042.32 1214.11 1037.91 1210.67C1033.49 1207.24 1027.35 1205.27 1019.75 1205.27C1015.33 1205.27 1011.65 1205.76 1007.97 1206.75C1004.28 1207.73 1001.09 1209.2 998.149 1210.67L998.394 1225.89H1010.42L1011.65 1218.53C1012.63 1217.79 1013.61 1217.3 1014.84 1217.06C1016.06 1216.81 1017.29 1216.57 1018.76 1216.57C1021.71 1216.57 1023.92 1217.3 1025.39 1219.02C1026.86 1220.74 1027.6 1222.7 1027.6 1225.16V1228.84H1020.73C1012.14 1228.84 1005.76 1230.56 1001.34 1234C996.922 1237.43 994.958 1241.85 994.958 1247.01C994.958 1252.16 996.676 1256.34 1000.11 1259.53C1003.55 1262.72 1007.97 1264.19 1013.61 1264.19C1017.29 1264.93 1020.24 1264.19 1022.44 1262.97ZM981.461 1263.7V1253.64L974.344 1251.92V1225.4C975.325 1223.93 976.552 1222.95 977.779 1222.46C979.007 1221.97 980.724 1221.48 982.688 1221.72L990.541 1222.21L992.259 1206.75C991.277 1206.5 990.295 1206.25 989.314 1206.01C988.332 1205.76 987.351 1205.76 986.369 1205.76C983.424 1205.76 980.97 1206.5 979.007 1208.22C977.043 1209.69 975.325 1212.15 974.098 1215.34V1213.86L973.607 1206.75H949.802V1216.81L957.901 1218.53V1252.16L950.784 1253.88V1263.95L981.461 1263.7ZM909.554 1229.33C909.799 1227.12 910.29 1225.16 910.781 1223.44C911.517 1221.72 912.499 1220.49 913.726 1219.27C914.953 1218.28 916.671 1217.79 918.634 1217.79C920.598 1217.79 922.07 1218.28 923.297 1219.02C924.524 1219.76 925.261 1220.98 925.751 1222.46C926.242 1223.93 926.488 1225.89 926.488 1228.1V1229.58H909.554V1229.33ZM931.641 1262.97C935.322 1261.74 938.267 1260.26 940.722 1258.3L936.55 1247.99C934.095 1249.22 931.641 1250.44 929.433 1250.94C926.978 1251.67 924.524 1251.92 921.825 1251.92C919.125 1251.92 917.162 1251.43 915.199 1250.44C913.481 1249.46 912.008 1248.24 911.026 1246.52C910.045 1244.8 909.308 1242.83 909.308 1240.87V1240.62H941.703V1231.54C941.703 1226.14 940.722 1221.23 939.004 1217.55C937.04 1213.62 934.586 1210.67 930.905 1208.71C927.224 1206.75 923.052 1205.76 917.898 1205.76C912.499 1205.76 907.836 1206.99 903.909 1209.45C899.983 1211.9 897.038 1215.34 894.829 1219.76C892.866 1224.18 891.639 1229.09 891.639 1234.98V1236.94C891.639 1242.34 892.866 1247.01 895.074 1251.18C897.283 1255.35 900.473 1258.79 904.646 1261C908.818 1263.46 913.481 1264.68 919.125 1264.68C924.033 1264.93 927.96 1264.19 931.641 1262.97ZM852.372 1263.7V1253.64L846.973 1251.92V1222.95C847.955 1221.48 849.182 1220.25 850.654 1219.51C852.127 1218.77 853.845 1218.28 855.808 1218.28C858.508 1218.28 860.471 1219.02 861.943 1220.49C863.416 1221.97 863.907 1224.42 863.907 1227.86V1251.92L857.771 1253.64V1263.7H887.712V1253.64L880.595 1251.92V1227.86C880.595 1220 879.122 1214.36 875.932 1210.67C872.742 1206.99 868.569 1205.27 862.925 1205.27C859.244 1205.27 856.299 1206.01 853.354 1207.73C850.654 1209.45 848.2 1211.66 846.237 1214.36L845.501 1206.25H821.695V1216.32L829.794 1218.04V1252.16L822.677 1253.88V1263.95L852.372 1263.7ZM784.392 1229.33C784.637 1227.12 785.128 1225.16 785.619 1223.44C786.355 1221.72 787.337 1220.49 788.564 1219.27C789.791 1218.28 791.509 1217.79 793.472 1217.79C795.436 1217.79 796.908 1218.28 798.135 1219.02C799.362 1219.76 800.099 1220.98 800.59 1222.46C801.08 1223.93 801.326 1225.89 801.326 1228.1V1229.58H784.392V1229.33ZM806.725 1262.97C810.406 1261.74 813.351 1260.26 815.805 1258.3L811.633 1247.99C809.179 1249.22 806.725 1250.44 804.516 1250.94C802.062 1251.67 799.608 1251.92 796.908 1251.92C794.209 1251.92 792.245 1251.43 790.282 1250.44C788.564 1249.46 787.092 1248.24 786.11 1246.52C785.128 1244.8 784.392 1242.83 784.392 1240.87V1240.62H816.787V1231.54C816.787 1226.14 815.805 1221.23 814.087 1217.55C812.124 1213.62 809.67 1210.67 805.989 1208.71C802.307 1206.75 798.135 1205.76 792.982 1205.76C787.582 1205.76 782.92 1206.99 778.993 1209.45C775.066 1211.9 772.121 1215.34 769.913 1219.76C767.704 1224.18 766.722 1229.09 766.722 1234.98V1236.94C766.722 1242.34 767.949 1247.01 770.158 1251.18C772.367 1255.35 775.557 1258.79 779.729 1261C783.901 1263.46 788.564 1264.68 794.209 1264.68C798.872 1264.93 803.044 1264.19 806.725 1262.97ZM746.598 1262.72C751.506 1261.25 755.924 1259.28 759.605 1256.83V1225.4H732.855V1237.19L742.671 1238.17V1249.71C741.199 1250.44 739.481 1250.94 737.272 1251.43C735.064 1251.92 732.609 1252.16 730.155 1252.16C725.738 1252.16 722.057 1251.18 719.112 1249.22C716.167 1247.25 713.713 1244.31 712.24 1240.62C710.768 1236.94 709.786 1232.77 709.786 1227.86V1224.67C709.786 1219.51 710.522 1215.09 712.24 1211.16C713.713 1207.24 716.167 1204.29 719.112 1202.08C722.057 1199.87 725.738 1198.89 729.91 1198.89C732.855 1198.89 735.309 1199.38 737.518 1200.12C739.727 1200.85 741.444 1201.84 742.917 1203.06L745.371 1213.13H757.642V1195.7C753.961 1192.51 749.543 1190.05 744.389 1188.58C739.481 1187.11 734.082 1186.12 728.683 1186.12C721.32 1186.12 714.939 1187.84 709.54 1191.03C704.141 1194.22 700.215 1198.89 697.27 1204.78C694.325 1210.67 693.098 1217.3 693.098 1224.91V1227.86C693.098 1235.22 694.57 1241.61 697.515 1247.25C700.46 1252.9 704.387 1257.07 710.031 1260.26C715.43 1263.46 722.057 1264.93 729.91 1264.93C736.045 1264.93 741.69 1264.19 746.598 1262.72Z" fill="black"/>
</g>
<mask id="mask15_447_1448" style="mask-type:luminance" maskUnits="userSpaceOnUse" x="-1064" y="-157" width="2655" height="2120">
<path d="M1590.83 -156.524H-1063.09V1962.64H1590.83V-156.524Z" fill="white"/>
</mask>
<g mask="url(#mask15_447_1448)">
<path d="M987.352 977.201C986.37 976.955 985.389 976.955 984.407 976.955C981.462 976.955 979.008 977.692 977.044 979.41C976.063 980.147 975.081 981.374 974.1 982.602H989.561L990.052 977.937C989.561 977.446 988.334 977.201 987.352 977.201Z" fill="black"/>
</g>
<mask id="mask16_447_1448" style="mask-type:luminance" maskUnits="userSpaceOnUse" x="-1064" y="-157" width="2655" height="2120">
<path d="M1590.83 -156.524H-1063.09V1962.64H1590.83V-156.524Z" fill="white"/>
</mask>
<g mask="url(#mask16_447_1448)">
<path d="M1018.52 976.956C1014.1 976.956 1010.42 977.447 1006.74 978.429C1003.3 979.411 1000.11 980.884 996.922 982.357H1036.92L1036.68 982.112C1032.26 978.675 1026.13 976.956 1018.52 976.956Z" fill="black"/>
</g>
<mask id="mask17_447_1448" style="mask-type:luminance" maskUnits="userSpaceOnUse" x="-1064" y="-157" width="2655" height="2120">
<path d="M1590.83 -156.524H-1063.09V1962.64H1590.83V-156.524Z" fill="white"/>
</mask>
<g mask="url(#mask17_447_1448)">
<path d="M696.044 975.729C695.062 977.693 694.326 980.148 693.59 982.358H710.769C712.241 978.429 714.696 975.484 717.641 973.274C720.586 971.064 724.267 970.083 728.439 970.083C731.384 970.083 733.838 970.574 736.047 971.31C738.256 972.047 739.973 973.028 741.446 974.256L743.409 982.603H756.171V966.891C752.49 963.699 748.072 961.244 742.918 959.771C738.01 958.298 732.611 957.562 727.212 957.316C719.849 957.316 713.469 959.035 708.069 962.226C702.916 965.418 698.744 969.837 696.044 975.729Z" fill="black"/>
</g>
<path d="M1074.23 977.937V963.943H1057.54V977.937H1049.93V982.356H1084.29V977.937H1074.23Z" fill="black"/>
<mask id="mask18_447_1448" style="mask-type:luminance" maskUnits="userSpaceOnUse" x="-1064" y="-157" width="2655" height="2120">
<path d="M1590.83 -156.524H-1063.09V1962.64H1590.83V-156.524Z" fill="white"/>
</mask>
<g mask="url(#mask18_447_1448)">
<path d="M1128.71 979.902C1125.03 977.938 1120.86 976.956 1115.7 976.956C1110.3 976.956 1105.64 978.184 1101.71 980.639C1100.98 981.13 1100.24 981.866 1099.51 982.357H1132.15C1130.92 981.62 1129.94 980.638 1128.71 979.902Z" fill="black"/>
</g>
<mask id="mask19_447_1448" style="mask-type:luminance" maskUnits="userSpaceOnUse" x="-1064" y="-157" width="2655" height="2120">
<path d="M1590.83 -156.524H-1063.09V1962.64H1590.83V-156.524Z" fill="white"/>
</mask>
<g mask="url(#mask19_447_1448)">
<path d="M791.51 976.956C786.111 976.956 781.448 978.184 777.521 980.639C776.785 981.13 776.049 981.866 775.312 982.357H807.953C806.971 981.375 805.744 980.638 804.517 979.902C801.081 977.938 796.664 976.956 791.51 976.956Z" fill="black"/>
</g>
<path d="M743.408 979.902L743.899 981.621H756.17V979.902H743.408Z" fill="black"/>
<path d="M971.645 977.938H947.84V982.356H971.891L971.645 977.938Z" fill="black"/>
<mask id="mask20_447_1448" style="mask-type:luminance" maskUnits="userSpaceOnUse" x="-1064" y="-157" width="2655" height="2120">
<path d="M1590.83 -156.524H-1063.09V1962.64H1590.83V-156.524Z" fill="white"/>
</mask>
<g mask="url(#mask20_447_1448)">
<path d="M916.426 976.956C911.027 976.956 906.364 978.184 902.437 980.639C901.701 981.13 900.965 981.866 900.229 982.357H932.869C931.887 981.375 930.66 980.638 929.433 979.902C925.997 977.938 921.825 976.956 916.426 976.956Z" fill="black"/>
</g>
<path d="M844.274 977.938H820.469V982.356H844.765L844.274 977.938Z" fill="black"/>
<mask id="mask21_447_1448" style="mask-type:luminance" maskUnits="userSpaceOnUse" x="-1064" y="-157" width="2655" height="2120">
<path d="M1590.83 -156.524H-1063.09V1962.64H1590.83V-156.524Z" fill="white"/>
</mask>
<g mask="url(#mask21_447_1448)">
<path d="M861.453 976.956C857.772 976.956 854.827 977.693 851.882 979.411C850.409 980.148 849.182 981.375 847.955 982.603H874.46C871.27 978.675 867.097 976.956 861.453 976.956Z" fill="black"/>
</g>
<mask id="mask22_447_1448" style="mask-type:luminance" maskUnits="userSpaceOnUse" x="-1064" y="-157" width="2655" height="2120">
<path d="M1590.83 -156.524H-1063.09V1962.64H1590.83V-156.524Z" fill="white"/>
</mask>
<g mask="url(#mask22_447_1448)">
<path d="M696.78 1006.66C695.062 1010.1 693.835 1014.03 693.344 1018.2H710.277C710.768 1016.48 711.014 1014.76 711.75 1013.29C713.222 1009.36 715.677 1006.42 718.621 1004.21C721.566 1002 725.248 1001.02 729.42 1001.02C732.365 1001.02 734.819 1001.51 737.028 1002.24C739.236 1002.98 740.954 1003.96 742.427 1005.19L744.881 1015.25H757.152V997.824C753.471 994.632 749.053 992.177 743.899 990.704C738.991 989.231 733.592 988.495 728.193 988.249C720.83 988.249 714.45 989.968 709.05 993.159C703.651 996.351 699.479 1001.02 696.78 1006.66Z" fill="black"/>
</g>
<mask id="mask23_447_1448" style="mask-type:luminance" maskUnits="userSpaceOnUse" x="-1064" y="-157" width="2655" height="2120">
<path d="M1590.83 -156.524H-1063.09V1962.64H1590.83V-156.524Z" fill="white"/>
</mask>
<g mask="url(#mask23_447_1448)">
<path d="M1037.42 1013.29C1033 1009.85 1026.86 1007.89 1019.25 1007.89C1014.84 1007.89 1011.16 1008.38 1007.47 1009.36C1003.79 1010.34 1000.6 1011.82 997.658 1013.29V1018.2H1041.83C1040.61 1016.48 1039.13 1014.52 1037.42 1013.29Z" fill="black"/>
</g>
<mask id="mask24_447_1448" style="mask-type:luminance" maskUnits="userSpaceOnUse" x="-1064" y="-157" width="2655" height="2120">
<path d="M1590.83 -156.524H-1063.09V1962.64H1590.83V-156.524Z" fill="white"/>
</mask>
<g mask="url(#mask24_447_1448)">
<path d="M1129.45 1010.83C1125.77 1008.87 1121.59 1007.89 1116.44 1007.89C1111.04 1007.89 1106.38 1009.12 1102.45 1011.57C1099.75 1013.29 1097.54 1015.5 1095.58 1018.2H1136.81C1134.85 1015.25 1132.39 1012.8 1129.45 1010.83Z" fill="black"/>
</g>
<path d="M1085.03 1008.87H1074.96V994.877H1058.28V1008.87H1050.91V1018.45H1085.03V1008.87Z" fill="black"/>
<mask id="mask25_447_1448" style="mask-type:luminance" maskUnits="userSpaceOnUse" x="-1064" y="-157" width="2655" height="2120">
<path d="M1590.83 -156.524H-1063.09V1962.64H1590.83V-156.524Z" fill="white"/>
</mask>
<g mask="url(#mask25_447_1448)">
<path d="M991.033 1008.62C990.051 1008.38 989.07 1008.13 988.088 1007.89C987.106 1007.64 986.125 1007.64 985.143 1007.64C982.198 1007.64 979.744 1008.38 977.781 1010.1C975.817 1011.57 974.099 1014.03 972.872 1017.22V1015.74L972.381 1008.62H948.576V1017.95H990.051L991.033 1008.62Z" fill="black"/>
</g>
<mask id="mask26_447_1448" style="mask-type:luminance" maskUnits="userSpaceOnUse" x="-1064" y="-157" width="2655" height="2120">
<path d="M1590.83 -156.524H-1063.09V1962.64H1590.83V-156.524Z" fill="white"/>
</mask>
<g mask="url(#mask26_447_1448)">
<path d="M805.498 1010.83C801.817 1008.87 797.645 1007.89 792.491 1007.89C787.092 1007.89 782.429 1009.12 778.502 1011.57C775.803 1013.29 773.594 1015.5 771.631 1018.2H812.861C810.897 1015.25 808.443 1012.8 805.498 1010.83Z" fill="black"/>
</g>
<mask id="mask27_447_1448" style="mask-type:luminance" maskUnits="userSpaceOnUse" x="-1064" y="-157" width="2655" height="2120">
<path d="M1590.83 -156.524H-1063.09V1962.64H1590.83V-156.524Z" fill="white"/>
</mask>
<g mask="url(#mask27_447_1448)">
<path d="M875.196 1013.29C872.005 1009.61 867.833 1007.89 862.189 1007.89C858.507 1007.89 855.563 1008.63 852.618 1010.34C849.918 1011.82 847.464 1014.27 845.501 1016.97L844.764 1008.87H820.959V1018.2H877.895C877.405 1016.48 876.423 1014.76 875.196 1013.29Z" fill="black"/>
</g>
<mask id="mask28_447_1448" style="mask-type:luminance" maskUnits="userSpaceOnUse" x="-1064" y="-157" width="2655" height="2120">
<path d="M1590.83 -156.524H-1063.09V1962.64H1590.83V-156.524Z" fill="white"/>
</mask>
<g mask="url(#mask28_447_1448)">
<path d="M930.414 1010.83C926.733 1008.87 922.561 1007.89 917.407 1007.89C912.008 1007.89 907.345 1009.12 903.418 1011.57C900.719 1013.29 898.51 1015.5 896.547 1018.2H937.777C935.813 1015.25 933.359 1012.8 930.414 1010.83Z" fill="black"/>
</g>
<mask id="mask29_447_1448" style="mask-type:luminance" maskUnits="userSpaceOnUse" x="-1064" y="-157" width="2655" height="2120">
<path d="M1590.83 -156.524H-1063.09V1962.64H1590.83V-156.524Z" fill="white"/>
</mask>
<g mask="url(#mask29_447_1448)">
<path d="M788.565 1060.43C789.792 1059.44 791.51 1058.95 793.473 1058.95C795.436 1058.95 796.909 1059.44 798.136 1060.18C799.363 1060.92 800.099 1062.14 800.59 1063.62H816.051C815.561 1061.65 815.07 1059.94 814.333 1058.22C812.37 1054.29 809.916 1051.34 806.235 1049.38C802.554 1047.41 798.382 1046.43 793.228 1046.43C787.829 1046.43 783.166 1047.66 779.239 1050.12C775.312 1052.57 772.367 1056.01 770.159 1060.43C769.668 1061.41 769.422 1062.39 768.932 1063.37H786.111C786.602 1062.39 787.338 1061.16 788.565 1060.43Z" fill="black"/>
</g>
<mask id="mask30_447_1448" style="mask-type:luminance" maskUnits="userSpaceOnUse" x="-1064" y="-157" width="2655" height="2120">
<path d="M1590.83 -156.524H-1063.09V1962.64H1590.83V-156.524Z" fill="white"/>
</mask>
<g mask="url(#mask30_447_1448)">
<path d="M977.534 1063.37C978.761 1062.64 980.233 1062.39 982.442 1062.64L990.296 1063.13L992.013 1047.66C991.032 1047.41 990.05 1047.17 989.068 1046.92C988.087 1046.68 987.105 1046.68 986.123 1046.68C983.178 1046.68 980.724 1047.41 978.761 1049.13C976.798 1050.61 975.08 1053.06 973.853 1056.25V1054.78L973.362 1047.66H949.557V1057.73L957.655 1059.44V1063.86H977.534C977.043 1063.62 977.288 1063.37 977.534 1063.37Z" fill="black"/>
</g>
<mask id="mask31_447_1448" style="mask-type:luminance" maskUnits="userSpaceOnUse" x="-1064" y="-157" width="2655" height="2120">
<path d="M1590.83 -156.524H-1063.09V1962.64H1590.83V-156.524Z" fill="white"/>
</mask>
<g mask="url(#mask31_447_1448)">
<path d="M697.516 1045.45C695.062 1050.61 693.589 1056.74 693.344 1063.62H710.032C710.277 1059.2 711.014 1055.52 712.241 1052.08C713.713 1048.15 716.167 1045.21 719.112 1043C722.057 1040.79 725.739 1039.8 729.911 1039.8C732.856 1039.8 735.31 1040.3 737.519 1041.03C739.727 1041.77 741.445 1042.75 742.918 1043.98L745.372 1054.04H757.643V1036.12C753.961 1032.93 749.544 1030.47 744.39 1029C739.482 1027.53 734.083 1026.79 728.684 1026.55C721.321 1026.55 714.94 1028.27 709.541 1031.46C704.142 1034.89 700.215 1039.56 697.516 1045.45Z" fill="black"/>
</g>
<mask id="mask32_447_1448" style="mask-type:luminance" maskUnits="userSpaceOnUse" x="-1064" y="-157" width="2655" height="2120">
<path d="M1590.83 -156.524H-1063.09V1962.64H1590.83V-156.524Z" fill="white"/>
</mask>
<g mask="url(#mask32_447_1448)">
<path d="M850.41 1060.67C851.882 1059.93 853.6 1059.44 855.563 1059.44C858.263 1059.44 860.226 1060.18 861.699 1061.65C862.189 1062.14 862.435 1062.88 862.926 1063.62H880.596C880.105 1058.71 878.632 1054.78 876.178 1052.08C872.988 1048.4 868.816 1046.68 863.171 1046.68C859.49 1046.68 856.545 1047.41 853.6 1049.13C850.655 1050.85 848.446 1053.06 846.483 1055.76L845.747 1047.66H821.941V1057.73L830.04 1059.44V1063.86H847.465C848.201 1062.39 849.182 1061.41 850.41 1060.67Z" fill="black"/>
</g>
<path d="M1010.42 1067.3L1011.16 1063.62H998.395L998.64 1067.3H1010.42Z" fill="black"/>
<mask id="mask33_447_1448" style="mask-type:luminance" maskUnits="userSpaceOnUse" x="-1064" y="-157" width="2655" height="2120">
<path d="M1590.83 -156.524H-1063.09V1962.64H1590.83V-156.524Z" fill="white"/>
</mask>
<g mask="url(#mask33_447_1448)">
<path d="M1011.89 1059.93C1012.87 1059.2 1013.86 1058.71 1015.08 1058.46C1016.31 1058.22 1017.54 1057.97 1019.01 1057.97C1021.95 1057.97 1024.16 1058.71 1025.64 1060.43C1026.37 1061.41 1027.11 1062.39 1027.35 1063.62H1044.53C1043.8 1058.71 1041.83 1054.78 1038.15 1051.83C1033.73 1048.4 1027.6 1046.68 1019.99 1046.68C1015.57 1046.68 1011.89 1047.17 1008.21 1048.15C1004.78 1049.13 1001.34 1050.61 998.395 1052.08L998.64 1063.62H1011.4L1011.89 1059.93Z" fill="black"/>
</g>
<mask id="mask34_447_1448" style="mask-type:luminance" maskUnits="userSpaceOnUse" x="-1064" y="-157" width="2655" height="2120">
<path d="M1590.83 -156.524H-1063.09V1962.64H1590.83V-156.524Z" fill="white"/>
</mask>
<g mask="url(#mask34_447_1448)">
<path d="M913.481 1060.43C914.708 1059.44 916.426 1058.95 918.389 1058.95C920.353 1058.95 921.825 1059.44 923.052 1060.18C924.279 1060.92 925.015 1062.14 925.506 1063.62H940.967C940.477 1061.65 939.986 1059.94 939.249 1058.22C937.286 1054.29 934.832 1051.34 931.151 1049.38C927.47 1047.41 923.297 1046.43 918.144 1046.43C912.745 1046.43 908.082 1047.66 904.155 1050.12C900.228 1052.57 897.283 1056.01 895.075 1060.43C894.584 1061.41 894.338 1062.39 893.848 1063.37H911.027C911.763 1062.39 912.499 1061.16 913.481 1060.43Z" fill="black"/>
</g>
<path d="M1075.7 1059.2H1085.52V1047.66H1075.7V1033.42H1059.01V1047.66H1051.4V1059.2H1059.01V1063.62H1075.7V1059.2Z" fill="black"/>
<mask id="mask35_447_1448" style="mask-type:luminance" maskUnits="userSpaceOnUse" x="-1064" y="-157" width="2655" height="2120">
<path d="M1590.83 -156.524H-1063.09V1962.64H1590.83V-156.524Z" fill="white"/>
</mask>
<g mask="url(#mask35_447_1448)">
<path d="M1112.51 1060.43C1113.74 1059.44 1115.46 1058.95 1117.42 1058.95C1119.38 1058.95 1120.86 1059.44 1122.08 1060.18C1123.31 1060.92 1124.05 1062.14 1124.54 1063.62H1140C1139.51 1061.65 1139.02 1059.93 1138.28 1058.22C1136.32 1054.29 1133.86 1051.34 1130.18 1049.38C1126.5 1047.41 1122.33 1046.43 1117.18 1046.43C1111.78 1046.43 1107.11 1047.66 1103.19 1050.11C1099.26 1052.57 1096.31 1056.01 1094.11 1060.43C1093.62 1061.41 1093.37 1062.39 1092.88 1063.37H1110.06C1110.79 1062.39 1111.53 1061.16 1112.51 1060.43Z" fill="black"/>
</g>
<mask id="mask36_447_1448" style="mask-type:luminance" maskUnits="userSpaceOnUse" x="-1064" y="-157" width="2655" height="2120">
<path d="M1590.83 -156.524H-1063.09V1962.64H1590.83V-156.524Z" fill="white"/>
</mask>
<g mask="url(#mask36_447_1448)">
<path d="M847.22 1109.04C848.202 1107.56 849.429 1106.33 850.901 1105.6C852.374 1104.86 854.091 1104.37 856.055 1104.37C858.754 1104.37 860.718 1105.11 862.19 1106.58C863.663 1108.05 864.153 1110.51 864.153 1113.95V1115.17H881.087V1113.95C881.087 1106.09 879.615 1100.44 876.424 1096.76C873.234 1093.08 869.062 1091.36 863.417 1091.36C859.736 1091.36 856.791 1092.1 853.846 1093.81C851.147 1095.29 848.692 1097.74 846.729 1100.44L845.993 1092.34H822.188V1102.41L830.286 1104.13V1115.17H847.22V1109.04Z" fill="black"/>
</g>
<mask id="mask37_447_1448" style="mask-type:luminance" maskUnits="userSpaceOnUse" x="-1064" y="-157" width="2655" height="2120">
<path d="M1590.83 -156.524H-1063.09V1962.64H1590.83V-156.524Z" fill="white"/>
</mask>
<g mask="url(#mask37_447_1448)">
<path d="M697.762 1090.38C694.817 1096.27 693.59 1102.9 693.59 1110.51V1113.45C693.59 1113.94 693.59 1114.44 693.59 1114.93H710.278C710.278 1114.44 710.278 1113.94 710.278 1113.45V1110.26C710.278 1105.11 711.014 1100.69 712.732 1096.76C714.205 1092.83 716.659 1089.89 719.604 1087.68C722.549 1085.47 726.23 1084.48 730.402 1084.48C733.347 1084.48 735.801 1084.98 738.01 1085.71C740.219 1086.45 741.937 1087.43 743.409 1088.66L745.863 1098.72H758.134V1081.29C754.453 1078.1 750.035 1075.65 744.882 1074.17C739.973 1072.7 734.574 1071.96 729.175 1071.72C721.813 1071.72 715.432 1073.44 710.033 1076.63C704.634 1079.82 700.462 1084.48 697.762 1090.38Z" fill="black"/>
</g>
<mask id="mask38_447_1448" style="mask-type:luminance" maskUnits="userSpaceOnUse" x="-1064" y="-157" width="2655" height="2120">
<path d="M1590.83 -156.524H-1063.09V1962.64H1590.83V-156.524Z" fill="white"/>
</mask>
<g mask="url(#mask38_447_1448)">
<path d="M785.865 1109.28C786.601 1107.56 787.583 1106.33 788.81 1105.11C790.037 1104.13 791.755 1103.63 793.718 1103.63C795.682 1103.63 797.154 1104.13 798.381 1104.86C799.608 1105.6 800.345 1106.83 800.835 1108.3C801.326 1109.77 801.572 1111.74 801.572 1113.95V1114.93H817.033C816.787 1110.26 816.051 1106.33 814.333 1103.14C812.37 1099.22 809.916 1096.27 806.235 1094.31C802.553 1092.34 798.381 1091.36 793.228 1091.36C787.828 1091.36 783.166 1092.59 779.239 1095.04C775.312 1097.5 772.367 1100.93 770.158 1105.35C768.931 1108.3 767.95 1111.49 767.459 1114.93H784.393C784.883 1112.96 785.374 1111 785.865 1109.28Z" fill="black"/>
</g>
<mask id="mask39_447_1448" style="mask-type:luminance" maskUnits="userSpaceOnUse" x="-1064" y="-157" width="2655" height="2120">
<path d="M1590.83 -156.524H-1063.09V1962.64H1590.83V-156.524Z" fill="white"/>
</mask>
<g mask="url(#mask39_447_1448)">
<path d="M1045.02 1111.74C1045.02 1105.11 1042.82 1100.2 1038.4 1096.76C1033.98 1093.32 1027.85 1091.6 1020.24 1091.6C1015.82 1091.6 1012.14 1092.1 1008.46 1093.08C1005.02 1094.06 1001.59 1095.53 998.641 1097.01L998.886 1112.23H1010.91L1012.14 1104.86C1013.12 1104.13 1014.1 1103.63 1015.33 1103.39C1016.56 1103.14 1017.78 1102.9 1019.26 1102.9C1022.2 1102.9 1024.41 1103.63 1025.88 1105.35C1027.35 1107.07 1028.09 1109.04 1028.09 1111.49V1115.17H1045.02V1111.74Z" fill="black"/>
</g>
<path d="M1075.95 1104.13H1086.01V1092.59H1075.95V1078.35H1059.26V1092.59H1051.65V1104.13H1059.26V1115.17H1075.95V1104.13Z" fill="black"/>
<path d="M759.852 1111.24H733.102V1115.17H759.852V1111.24Z" fill="black"/>
<mask id="mask40_447_1448" style="mask-type:luminance" maskUnits="userSpaceOnUse" x="-1064" y="-157" width="2655" height="2120">
<path d="M1590.83 -156.524H-1063.09V1962.64H1590.83V-156.524Z" fill="white"/>
</mask>
<g mask="url(#mask40_447_1448)">
<path d="M974.344 1111.24C975.326 1109.77 976.553 1108.79 977.78 1108.3C979.007 1107.81 980.725 1107.32 982.688 1107.56L990.542 1108.05L992.26 1092.59C991.278 1092.34 990.296 1092.1 989.315 1091.85C988.333 1091.6 987.351 1091.6 986.37 1091.6C983.425 1091.6 980.971 1092.34 979.007 1094.06C977.044 1095.53 975.326 1097.99 974.099 1101.18V1099.71L973.608 1092.83H949.803V1102.9L957.901 1104.62V1115.66H974.835L974.344 1111.24Z" fill="black"/>
</g>
<mask id="mask41_447_1448" style="mask-type:luminance" maskUnits="userSpaceOnUse" x="-1064" y="-157" width="2655" height="2120">
<path d="M1590.83 -156.524H-1063.09V1962.64H1590.83V-156.524Z" fill="white"/>
</mask>
<g mask="url(#mask41_447_1448)">
<path d="M911.027 1109.28C911.763 1107.56 912.745 1106.33 913.972 1105.11C915.199 1104.13 916.917 1103.63 918.881 1103.63C920.844 1103.63 922.316 1104.13 923.543 1104.86C924.77 1105.6 925.507 1106.83 925.998 1108.3C926.488 1109.77 926.734 1111.74 926.734 1113.95V1114.93H942.195C941.95 1110.26 941.213 1106.33 939.495 1103.14C937.532 1099.22 935.078 1096.27 931.397 1094.31C927.715 1092.34 923.543 1091.36 918.39 1091.36C912.991 1091.36 908.328 1092.59 904.401 1095.04C900.474 1097.5 897.529 1100.93 895.321 1105.35C894.094 1108.3 893.112 1111.49 892.621 1114.93H909.555C909.8 1112.96 910.291 1111 911.027 1109.28Z" fill="black"/>
</g>
<mask id="mask42_447_1448" style="mask-type:luminance" maskUnits="userSpaceOnUse" x="-1064" y="-157" width="2655" height="2120">
<path d="M1590.83 -156.524H-1063.09V1962.64H1590.83V-156.524Z" fill="white"/>
</mask>
<g mask="url(#mask42_447_1448)">
<path d="M1110.06 1109.28C1110.79 1107.56 1111.78 1106.33 1113 1105.11C1114.23 1104.13 1115.95 1103.63 1117.91 1103.63C1119.88 1103.63 1121.35 1104.13 1122.57 1104.86C1123.8 1105.6 1124.54 1106.83 1125.03 1108.3C1125.52 1109.77 1125.77 1111.74 1125.77 1113.95V1114.93H1141.23C1140.98 1110.26 1140.24 1106.33 1138.53 1103.14C1136.56 1099.22 1134.11 1096.27 1130.43 1094.31C1126.75 1092.34 1122.57 1091.36 1117.42 1091.36C1112.02 1091.36 1107.36 1092.59 1103.43 1095.04C1099.51 1097.5 1096.56 1100.93 1094.35 1105.35C1093.12 1108.3 1092.14 1111.49 1091.65 1114.93H1108.59C1108.83 1112.96 1109.32 1111 1110.06 1109.28Z" fill="black"/>
</g>
<mask id="mask43_447_1448" style="mask-type:luminance" maskUnits="userSpaceOnUse" x="-1064" y="-157" width="2655" height="2120">
<path d="M1590.83 -156.524H-1063.09V1962.64H1590.83V-156.524Z" fill="white"/>
</mask>
<g mask="url(#mask43_447_1448)">
<path d="M1038.4 1146.11C1033.98 1142.67 1027.85 1140.71 1020.24 1140.71C1015.82 1140.71 1012.14 1141.2 1008.46 1142.18C1004.78 1143.16 1001.59 1144.63 998.641 1146.11L998.886 1161.33H1010.91L1012.14 1153.96C1013.12 1153.23 1014.1 1152.73 1015.33 1152.49C1016.56 1152.24 1017.78 1152 1019.26 1152C1022.2 1152 1024.41 1152.73 1025.88 1154.45C1027.35 1156.17 1028.09 1158.14 1028.09 1160.84V1164.52H1021.22C1014.35 1164.52 1008.7 1165.75 1004.53 1167.96H1044.78V1160.84C1045.02 1154.45 1042.82 1149.54 1038.4 1146.11Z" fill="black"/>
</g>
<path d="M1086.01 1153.47V1141.93H1075.95V1127.69H1059.26V1141.93H1051.65V1153.47H1059.26V1168.2H1075.95V1153.47H1086.01Z" fill="black"/>
<mask id="mask44_447_1448" style="mask-type:luminance" maskUnits="userSpaceOnUse" x="-1064" y="-157" width="2655" height="2120">
<path d="M1590.83 -156.524H-1063.09V1962.64H1590.83V-156.524Z" fill="white"/>
</mask>
<g mask="url(#mask44_447_1448)">
<path d="M697.762 1139.72C694.817 1145.61 693.59 1152.24 693.59 1159.85V1162.8C693.59 1164.52 693.59 1166.24 693.835 1167.96H710.524C710.278 1166.24 710.033 1164.52 710.033 1162.8V1159.61C710.033 1154.45 710.769 1150.03 712.487 1146.11C713.959 1142.18 716.413 1139.23 719.358 1137.02C722.303 1134.81 725.985 1133.83 730.157 1133.83C733.102 1133.83 735.556 1134.32 737.765 1135.06C739.973 1135.79 741.691 1136.78 743.164 1138L745.618 1148.07H757.889V1130.64C754.207 1127.45 749.79 1124.99 744.636 1123.52C739.728 1122.05 734.329 1121.31 728.93 1121.06C721.567 1121.06 715.186 1122.78 709.787 1125.97C704.634 1129.17 700.462 1133.83 697.762 1139.72Z" fill="black"/>
</g>
<mask id="mask45_447_1448" style="mask-type:luminance" maskUnits="userSpaceOnUse" x="-1064" y="-157" width="2655" height="2120">
<path d="M1590.83 -156.524H-1063.09V1962.64H1590.83V-156.524Z" fill="white"/>
</mask>
<g mask="url(#mask45_447_1448)">
<path d="M1125.52 1164.76H1108.59L1108.34 1164.52C1108.59 1162.31 1109.08 1160.35 1109.57 1158.63C1110.3 1156.91 1111.28 1155.68 1112.51 1154.45C1113.74 1153.47 1115.46 1152.98 1117.42 1152.98C1119.38 1152.98 1120.86 1153.47 1122.08 1154.21C1123.31 1154.94 1124.05 1156.17 1124.54 1157.64C1125.03 1159.12 1125.27 1161.08 1125.27 1163.29V1164.76H1125.52ZM1138.53 1152.49C1136.56 1148.56 1134.11 1145.62 1130.43 1143.65C1126.75 1141.69 1122.57 1140.71 1117.42 1140.71C1112.02 1140.71 1107.36 1141.93 1103.43 1144.39C1099.5 1146.84 1096.56 1150.28 1094.35 1154.7C1092.39 1158.63 1091.65 1163.05 1091.41 1167.96H1141.23V1166.48C1141.23 1161.08 1140.24 1156.42 1138.53 1152.49Z" fill="black"/>
</g>
<mask id="mask46_447_1448" style="mask-type:luminance" maskUnits="userSpaceOnUse" x="-1064" y="-157" width="2655" height="2120">
<path d="M1590.83 -156.524H-1063.09V1962.64H1590.83V-156.524Z" fill="white"/>
</mask>
<g mask="url(#mask46_447_1448)">
<path d="M926.489 1164.76H909.555L909.31 1164.52C909.555 1162.31 910.046 1160.35 910.537 1158.63C911.273 1156.91 912.255 1155.68 913.482 1154.45C914.709 1153.47 916.427 1152.98 918.39 1152.98C920.354 1152.98 921.826 1153.47 923.053 1154.21C924.28 1154.94 925.016 1156.17 925.507 1157.64C925.998 1159.12 926.244 1161.08 926.244 1163.29L926.489 1164.76ZM939.251 1152.49C937.287 1148.56 934.833 1145.62 931.152 1143.65C927.471 1141.69 923.299 1140.71 918.145 1140.71C912.746 1140.71 908.083 1141.93 904.156 1144.39C900.23 1146.84 897.285 1150.28 895.076 1154.7C893.358 1158.63 892.376 1163.05 892.131 1167.96H941.95V1166.48C942.196 1161.08 941.214 1156.42 939.251 1152.49Z" fill="black"/>
</g>
<mask id="mask47_447_1448" style="mask-type:luminance" maskUnits="userSpaceOnUse" x="-1064" y="-157" width="2655" height="2120">
<path d="M1590.83 -156.524H-1063.09V1962.64H1590.83V-156.524Z" fill="white"/>
</mask>
<g mask="url(#mask47_447_1448)">
<path d="M876.178 1146.11C872.988 1142.42 868.816 1140.71 863.171 1140.71C859.49 1140.71 856.545 1141.44 853.6 1143.16C850.9 1144.88 848.446 1147.09 846.483 1149.79L845.747 1141.69H821.941V1151.75L830.04 1153.47V1168.2H846.974V1158.38C847.955 1156.91 849.182 1155.68 850.655 1154.94C852.127 1154.21 853.845 1153.72 855.809 1153.72C858.508 1153.72 860.472 1154.45 861.944 1155.93C863.417 1157.4 863.907 1159.85 863.907 1163.29V1168.2H880.841V1163.29C880.841 1155.44 879.369 1149.79 876.178 1146.11Z" fill="black"/>
</g>
<mask id="mask48_447_1448" style="mask-type:luminance" maskUnits="userSpaceOnUse" x="-1064" y="-157" width="2655" height="2120">
<path d="M1590.83 -156.524H-1063.09V1962.64H1590.83V-156.524Z" fill="white"/>
</mask>
<g mask="url(#mask48_447_1448)">
<path d="M977.78 1157.64C979.007 1156.91 980.48 1156.66 982.688 1156.91L990.542 1157.4L992.26 1141.93C991.278 1141.69 990.296 1141.44 989.315 1141.2C988.333 1140.95 987.351 1140.95 986.37 1140.95C983.425 1140.95 980.971 1141.69 979.007 1143.41C977.044 1144.88 975.326 1147.33 974.099 1150.52V1149.05L973.608 1142.18H949.803V1152.24L957.901 1153.96V1168.69H974.835V1161.33C975.326 1159.36 976.553 1158.38 977.78 1157.64Z" fill="black"/>
</g>
<path d="M759.852 1160.59H733.102V1168.2H759.852V1160.59Z" fill="black"/>
<mask id="mask49_447_1448" style="mask-type:luminance" maskUnits="userSpaceOnUse" x="-1064" y="-157" width="2655" height="2120">
<path d="M1590.83 -156.524H-1063.09V1962.64H1590.83V-156.524Z" fill="white"/>
</mask>
<g mask="url(#mask49_447_1448)">
<path d="M801.571 1164.76H784.637L784.392 1164.52C784.637 1162.31 785.128 1160.35 785.619 1158.63C786.355 1156.91 787.337 1155.68 788.564 1154.45C789.791 1153.47 791.509 1152.98 793.472 1152.98C795.436 1152.98 796.908 1153.47 798.135 1154.21C799.362 1154.94 800.099 1156.17 800.589 1157.64C801.08 1159.12 801.326 1161.08 801.326 1163.29L801.571 1164.76ZM814.333 1152.49C812.369 1148.56 809.915 1145.62 806.234 1143.65C802.553 1141.69 798.381 1140.71 793.227 1140.71C787.828 1140.71 783.165 1141.93 779.238 1144.39C775.312 1146.84 772.367 1150.28 770.158 1154.7C768.44 1158.63 767.458 1163.05 767.213 1167.96H817.032V1166.48C817.278 1161.08 816.296 1156.42 814.333 1152.49Z" fill="black"/>
</g>
<mask id="mask50_447_1448" style="mask-type:luminance" maskUnits="userSpaceOnUse" x="-1064" y="-157" width="2655" height="2120">
<path d="M1590.83 -156.524H-1063.09V1962.64H1590.83V-156.524Z" fill="white"/>
</mask>
<g mask="url(#mask50_447_1448)">
<path d="M729.174 1324.83H695.061V1339.07H729.174V1324.83ZM647.205 1368.53V1357.48L641.07 1355.76V1323.85C642.051 1322.13 643.524 1320.9 645.242 1320.17C646.96 1319.19 648.678 1318.94 650.886 1318.94C653.831 1318.94 656.04 1319.68 657.513 1321.39C658.985 1323.11 659.721 1325.81 659.721 1329.5V1356.01L653.095 1357.73V1368.78H686.226V1357.73L678.373 1356.01V1329.5C678.373 1320.9 676.655 1314.52 673.219 1310.59C669.783 1306.66 664.875 1304.7 658.985 1304.7C655.058 1304.7 651.623 1305.68 648.432 1307.4C645.487 1309.12 642.788 1311.57 640.579 1314.77L639.843 1305.93H613.338V1316.98L622.173 1318.69V1356.01L614.319 1357.73V1368.78L647.205 1368.53ZM571.617 1353.31C569.899 1351.84 568.672 1349.87 567.936 1347.17C567.2 1344.47 566.709 1341.28 566.709 1337.6V1336.37C566.709 1332.93 567.2 1329.74 567.936 1327.04C568.672 1324.34 569.899 1322.38 571.617 1320.9C573.335 1319.43 575.544 1318.69 578.243 1318.69C580.943 1318.69 583.152 1319.43 584.87 1320.9C586.587 1322.38 587.815 1324.59 588.551 1327.04C589.287 1329.5 589.778 1332.69 589.778 1336.37V1337.6C589.778 1341.28 589.287 1344.47 588.551 1347.17C587.815 1349.87 586.587 1351.84 584.87 1353.31C583.152 1354.78 580.943 1355.52 578.243 1355.52C575.544 1355.52 573.335 1354.78 571.617 1353.31ZM594.686 1365.58C599.104 1362.88 602.539 1358.96 604.994 1354.29C607.448 1349.38 608.675 1343.98 608.675 1337.6V1336.37C608.675 1329.99 607.448 1324.59 604.994 1319.68C602.539 1314.77 599.104 1311.08 594.686 1308.38C590.269 1305.68 584.87 1304.21 578.489 1304.21C572.108 1304.21 566.709 1305.68 562.291 1308.38C557.874 1311.08 554.438 1315.01 551.984 1319.68C549.53 1324.59 548.303 1329.99 548.303 1336.37V1337.6C548.303 1343.98 549.53 1349.63 551.984 1354.29C554.438 1359.2 557.874 1362.88 562.291 1365.58C566.709 1368.29 572.353 1369.76 578.734 1369.76C585.115 1369.76 590.023 1368.29 594.686 1365.58ZM537.75 1369.27C539.713 1369.02 541.431 1368.53 543.149 1368.04L541.677 1354.29C540.94 1354.29 540.204 1354.54 539.222 1354.54C538.241 1354.54 537.504 1354.78 536.523 1354.78C534.805 1354.78 533.578 1354.29 532.351 1353.31C531.124 1352.33 530.878 1350.85 530.878 1348.4V1318.45H541.922V1305.44H531.369V1289.97H512.963V1305.44H504.619V1318.45H512.963V1348.65C512.963 1356.01 514.681 1361.41 517.871 1364.6C521.062 1368.04 525.97 1369.51 532.105 1369.51C534.069 1369.76 536.032 1369.51 537.75 1369.27ZM462.898 1330.48C463.144 1328.02 463.634 1325.81 464.371 1324.09C465.107 1322.13 466.089 1320.66 467.561 1319.68C469.034 1318.69 470.751 1317.96 472.96 1317.96C475.169 1317.96 476.887 1318.45 478.114 1319.18C479.341 1320.17 480.323 1321.39 480.814 1323.11C481.304 1324.83 481.55 1326.8 481.55 1329.25V1330.72H462.898V1330.48ZM487.44 1367.55C491.366 1366.32 494.802 1364.6 497.502 1362.39L492.839 1351.1C490.139 1352.57 487.44 1353.56 484.986 1354.29C482.286 1355.03 479.586 1355.27 476.641 1355.27C473.696 1355.27 471.488 1354.78 469.524 1353.56C467.561 1352.33 466.089 1351.1 464.862 1349.14C463.634 1347.17 463.144 1345.21 462.898 1342.75V1342.51H498.974V1332.69C498.974 1326.55 497.992 1321.39 496.029 1317.22C494.066 1313.05 491.121 1309.86 487.194 1307.4C483.268 1305.19 478.359 1304.21 472.715 1304.21C466.579 1304.21 461.426 1305.68 457.254 1308.38C452.836 1311.08 449.646 1315.01 447.437 1319.92C445.228 1324.83 444.001 1330.48 444.001 1336.62V1338.83C444.001 1344.72 445.228 1349.87 447.682 1354.78C450.137 1359.45 453.818 1363.13 458.235 1365.83C462.653 1368.53 468.052 1369.76 474.187 1369.76C479.096 1369.76 483.513 1369.02 487.44 1367.55ZM439.829 1368.53V1357.48L431.976 1355.76V1277.7H404.244V1288.74L413.324 1290.46V1355.76L405.471 1357.48V1368.53H439.829ZM362.769 1330.48C363.014 1328.02 363.505 1325.81 364.241 1324.09C364.978 1322.13 365.959 1320.66 367.432 1319.68C368.904 1318.69 370.622 1317.96 372.831 1317.96C375.04 1317.96 376.757 1318.45 377.984 1319.18C379.212 1320.17 380.193 1321.39 380.684 1323.11C381.175 1324.83 381.42 1326.8 381.42 1329.25V1330.72H362.769V1330.48ZM387.556 1367.79C391.482 1366.57 394.918 1364.85 397.618 1362.64L392.955 1351.35C390.255 1352.82 387.556 1353.8 385.102 1354.54C382.402 1355.27 379.702 1355.52 376.757 1355.52C373.812 1355.52 371.604 1355.03 369.64 1353.8C367.677 1352.57 366.205 1351.35 364.978 1349.38C363.75 1347.42 363.26 1345.45 363.014 1343V1342.75H398.845V1332.93C398.845 1326.8 397.863 1321.64 395.9 1317.47C393.936 1313.29 390.992 1310.1 387.065 1307.65C383.138 1305.44 378.23 1304.45 372.585 1304.45C366.45 1304.45 361.296 1305.93 357.124 1308.63C352.707 1311.33 349.516 1315.26 347.308 1320.17C345.099 1325.08 343.872 1330.72 343.872 1336.86V1339.07C343.872 1344.96 345.099 1350.12 347.553 1355.03C350.007 1359.69 353.688 1363.38 358.106 1366.08C362.523 1368.78 367.923 1370 374.058 1370C378.966 1369.76 383.384 1369.02 387.556 1367.79ZM330.374 1318.69L338.473 1316.48V1305.44H304.115V1316.48L310.495 1317.47L283.009 1342.02L292.334 1351.59L330.374 1318.69ZM340.681 1368.53V1357.48L333.074 1355.52L313.931 1329.99L301.66 1341.77L312.459 1356.75L312.704 1356.99L308.286 1358.22V1368.53H340.681ZM301.17 1368.53V1357.48L294.543 1355.76V1277.7H267.057V1288.74L276.137 1290.46V1355.76L268.284 1357.48V1368.53H301.17ZM247.669 1367.06C252.577 1365.09 256.259 1362.64 258.713 1358.96C261.412 1355.52 262.639 1351.1 262.639 1346.19C262.639 1339.07 260.185 1333.42 255.277 1329.01C250.369 1324.59 243.252 1321.15 233.68 1318.45C229.508 1316.98 226.318 1315.5 223.864 1314.27C221.41 1313.05 219.692 1311.82 218.955 1310.35C217.974 1309.12 217.483 1307.4 217.483 1305.93C217.483 1303.96 217.974 1302.25 219.201 1300.77C220.428 1299.3 221.9 1298.32 223.864 1297.58C225.827 1296.84 228.036 1296.6 230.735 1296.6C233.68 1296.6 236.38 1296.84 238.834 1297.58C241.288 1298.07 243.252 1298.81 244.724 1299.79L247.178 1311.33H261.167V1291.69C257.24 1288.74 252.823 1286.29 247.669 1284.81C242.515 1283.1 236.625 1282.61 229.754 1282.61C223.864 1282.61 218.464 1283.83 213.802 1285.8C209.139 1287.76 205.703 1290.71 203.003 1294.14C200.304 1297.58 199.077 1301.75 199.077 1306.42C199.077 1311.08 200.304 1315.26 202.513 1318.45C204.721 1321.64 208.157 1324.59 212.575 1327.04C216.992 1329.5 222.882 1331.71 229.754 1333.92C233.435 1335.14 236.134 1336.37 238.343 1337.6C240.306 1338.83 242.024 1340.3 242.761 1341.77C243.742 1343.24 244.233 1344.96 244.233 1346.68C244.233 1348.4 243.742 1350.36 242.761 1351.59C241.779 1353.06 240.306 1354.05 238.343 1354.78C236.38 1355.52 233.926 1356.01 231.226 1356.01C227.545 1356.01 224.109 1355.52 220.919 1354.54C217.728 1353.56 215.52 1352.33 214.047 1350.85L212.329 1339.07H197.85V1360.43C203.003 1363.87 208.157 1366.32 213.311 1367.79C218.465 1369.27 224.354 1369.76 230.981 1369.76C237.607 1369.76 243.006 1368.78 247.669 1367.06Z" fill="black"/>
</g>
<mask id="mask51_447_1448" style="mask-type:luminance" maskUnits="userSpaceOnUse" x="-1064" y="-157" width="2655" height="2120">
<path d="M1590.83 -156.524H-1063.09V1962.64H1590.83V-156.524Z" fill="white"/>
</mask>
<g mask="url(#mask51_447_1448)">
<path d="M712.24 1654.79C715.185 1653.07 719.357 1652.33 724.511 1652.33H725.738C729.419 1652.33 732.609 1652.82 735.554 1653.56C738.499 1654.29 740.463 1655.52 742.181 1657.24C743.653 1658.96 744.635 1660.92 744.635 1663.62C744.635 1665.59 744.144 1667.55 743.162 1669.02C742.181 1670.74 740.708 1671.97 738.99 1672.95H712.731C711.013 1671.97 709.786 1670.5 709.05 1668.78C708.313 1667.06 707.823 1665.34 707.823 1663.38C707.823 1659.2 709.295 1656.26 712.24 1654.79ZM695.797 1667.06C697.27 1669.76 699.478 1671.97 702.423 1673.93L694.57 1675.41V1699.47H705.614L707.332 1691.61H785.619V1663.87H774.575L772.858 1672.95H751.016C753.47 1670.99 755.433 1668.78 756.906 1666.32C758.378 1663.87 758.869 1660.92 758.869 1657.49C758.869 1652.58 757.396 1648.4 754.697 1644.72C751.997 1641.04 748.071 1638.34 743.162 1636.62C738.254 1634.65 732.364 1633.67 725.738 1633.67H724.511C718.375 1633.67 712.731 1634.65 708.068 1636.62C703.405 1638.58 699.724 1641.28 697.024 1644.72C694.325 1648.4 693.098 1652.58 693.098 1657.49C693.343 1661.17 694.079 1664.36 695.797 1667.06ZM732.855 1590.22C735.309 1590.46 737.518 1590.96 739.236 1591.69C741.199 1592.43 742.671 1593.41 743.653 1594.88C744.635 1596.36 745.371 1598.07 745.371 1600.28C745.371 1602.49 744.88 1604.21 744.144 1605.44C743.408 1606.67 741.935 1607.65 740.217 1608.14C738.499 1608.63 736.536 1608.88 734.082 1608.88H732.609V1590.22H732.855ZM695.552 1615.01C696.779 1618.94 698.497 1622.38 700.705 1625.08L711.995 1620.42C710.522 1617.71 709.54 1615.01 708.804 1612.56C708.068 1610.1 707.823 1607.16 707.823 1604.21C707.823 1601.27 708.313 1599.06 709.54 1597.09C710.767 1595.13 711.995 1593.66 713.958 1592.43C715.921 1591.2 717.885 1590.71 720.339 1590.46H720.584V1626.55H730.401C736.536 1626.55 741.69 1625.57 745.862 1623.61C750.034 1621.64 753.47 1618.7 755.679 1614.52C757.887 1610.6 759.114 1605.69 759.114 1600.04C759.114 1593.9 757.642 1588.75 754.942 1584.57C752.243 1580.15 748.316 1576.96 743.408 1574.75C738.499 1572.54 732.855 1571.32 726.719 1571.32H724.511C718.621 1571.32 713.222 1572.54 708.559 1575C703.896 1577.45 700.215 1581.14 697.515 1585.55C694.816 1590.22 693.588 1595.37 693.588 1601.51C693.343 1606.42 694.079 1611.09 695.552 1615.01ZM698.988 1556.83C702.669 1561.25 707.577 1563.46 713.467 1563.46C719.112 1563.46 723.284 1561.74 726.229 1558.06C729.174 1554.38 731.382 1548.97 733.1 1541.36C733.837 1538.17 734.573 1535.96 735.309 1534.24C736.045 1532.53 737.027 1531.54 737.763 1531.05C738.745 1530.56 739.726 1530.32 740.708 1530.32C742.426 1530.32 743.653 1531.05 744.88 1532.53C746.107 1534 746.598 1535.96 746.598 1538.91C746.598 1540.63 746.353 1541.85 746.107 1543.33C745.862 1544.8 745.126 1545.78 744.389 1546.76L736.291 1548.48V1561.25H754.451C755.924 1558.55 756.906 1555.11 757.887 1550.94C758.869 1546.76 759.114 1542.35 759.114 1537.68C759.114 1531.79 758.133 1526.88 756.415 1523.2C754.697 1519.51 752.243 1516.81 749.298 1515.1C746.353 1513.38 743.162 1512.64 739.727 1512.64C734.573 1512.64 730.401 1514.36 726.965 1518.04C723.529 1521.48 721.075 1527.12 719.602 1534.49C718.621 1539.4 717.639 1542.35 716.412 1544.06C715.185 1545.78 713.713 1546.52 712.24 1546.52C710.768 1546.52 709.295 1545.78 708.313 1544.31C707.332 1542.84 706.595 1540.38 706.595 1536.94C706.595 1534.98 706.841 1533.26 707.086 1532.03C707.577 1530.56 708.068 1529.33 708.559 1528.35L717.639 1525.9V1513.13L698.742 1513.38C697.024 1517.06 695.797 1520.74 695.061 1525.16C694.079 1529.33 693.834 1533.75 693.834 1538.66C693.343 1546.03 695.306 1552.41 698.988 1556.83ZM708.804 1463.54C710.031 1462.31 711.504 1461.58 713.712 1461.58C715.921 1461.58 717.639 1462.31 719.112 1464.28C720.584 1466.24 721.32 1468.45 721.32 1471.89V1479.25H711.749C710.277 1478.02 709.05 1476.55 708.313 1474.83C707.577 1473.11 707.086 1471.15 707.086 1469.19C706.841 1466.73 707.577 1464.77 708.804 1463.54ZM695.552 1472.87C697.024 1475.32 698.988 1477.78 701.442 1479.74C700.215 1479.99 698.988 1480.23 697.76 1480.72C696.533 1481.22 695.552 1481.71 694.57 1482.2V1504.78H705.614L706.595 1498.16C707.332 1497.91 708.313 1497.91 709.05 1497.91C709.786 1497.91 710.767 1497.91 711.749 1497.91H736.536C743.653 1497.91 749.298 1495.46 753.224 1490.54C757.151 1485.63 759.114 1479.01 759.114 1470.41C759.114 1465.75 758.623 1461.33 757.396 1457.4C756.169 1453.47 754.697 1449.79 752.979 1446.35L736.045 1446.6V1459.86L744.144 1461.08C744.88 1462.07 745.371 1463.29 745.862 1464.77C746.353 1466.24 746.353 1467.47 746.353 1469.19C746.353 1472.38 745.371 1474.83 743.653 1476.55C741.69 1478.27 739.481 1479.01 736.782 1479.01H732.609V1471.4C732.609 1461.82 730.646 1454.7 726.965 1450.04C723.284 1445.13 718.375 1442.92 712.485 1442.92C706.595 1442.92 702.178 1444.88 698.742 1448.56C695.306 1452.25 693.588 1457.4 693.588 1463.54C693.343 1467.22 694.079 1470.41 695.552 1472.87ZM709.05 1399.22C709.786 1397.5 711.013 1396.27 712.731 1395.29H738.745C740.463 1396.27 741.935 1397.5 743.162 1399.22C744.144 1400.94 744.88 1402.9 744.88 1405.11C744.88 1407.57 744.144 1409.78 742.671 1411.25C741.199 1412.97 738.99 1413.95 736.291 1414.69C733.591 1415.42 730.155 1415.91 726.229 1415.91H725.002C719.603 1415.91 715.43 1415.18 712.485 1413.46C709.54 1411.74 708.068 1408.79 708.068 1404.87C707.823 1402.66 708.313 1400.69 709.05 1399.22ZM697.27 1423.52C699.724 1427.21 703.405 1429.91 708.068 1431.62C712.731 1433.34 718.375 1434.33 724.511 1434.33H725.738C732.609 1434.33 738.254 1433.34 743.408 1431.62C748.316 1429.66 752.243 1427.21 754.942 1423.52C757.642 1419.84 759.114 1415.67 759.114 1410.76C759.114 1407.32 758.378 1404.37 757.151 1401.67C755.924 1398.97 753.961 1396.76 751.506 1395.05H785.865V1367.55H774.821L773.103 1376.39H694.815V1392.59L702.423 1393.82C699.478 1395.78 697.27 1397.99 695.797 1400.69C694.325 1403.39 693.588 1406.58 693.588 1410.51C693.343 1415.67 694.57 1420.09 697.27 1423.52Z" fill="black"/>
</g>
<path d="M-52.3181 698.557H1590.83M-45.201 504.611H1590.83M-72.6875 839.475H1590.83M-54.7722 981.62H1590.83M-17.9599 1192.01H1590.58M1069.08 1707.81V-226.492M1140.74 2071.55V-267M693.589 -250.797V1707.81M-55.9993 469.259H1590.83M425.351 -226.492V1262.72M603.522 363.448H1016.56M-30.9669 398.8H1294.61M853.846 -246.623V2451.5H-10.1066M-2.49871 284.396H1590.58M603.522 -234.348V398.8M818.261 -241.959V363.448M1590.83 1265.17H-34.6481M1595 398.8H1268.84M1590.83 363.448H807.462M1590.83 1368.53H-25.0769M1617.33 1707.81H-10.1066M299.453 839.475V-234.348M371.114 1262.72V839.475M1247.98 980.638V698.557H1354.74V-250.797M1283.32 504.611V-230.666M473.5 -182.5V2071.55H1527M115 8.9541V2263H1527" stroke="black" stroke-width="0.5" stroke-miterlimit="10"/>
<path d="M-52.3181 698.557H1590.83M-45.201 504.611H1590.83M-72.6875 839.475H1590.83M-54.7722 981.62H1590.83M-17.9599 1192.01H1590.58M1069.08 1707.81V-226.492M1140.74 2071.55V-267M693.589 -250.797V1707.81M-55.9993 469.259H1590.83M425.351 -226.492V1262.72M603.522 363.448H1016.56M-30.9669 398.8H1294.61M853.846 -246.623V2451.5H-10.1066M-2.49871 284.396H1590.58M603.522 -234.348V398.8M818.261 -241.959V363.448M1590.83 1265.17H-34.6481M1595 398.8H1268.84M1590.83 363.448H807.462M1590.83 1368.53H-25.0769M1617.33 1707.81H-10.1066M299.453 839.475V-234.348M371.114 1262.72V839.475M1247.98 980.638V698.557H1354.74V-250.797M1283.32 504.611V-230.666M473.5 -182.5V2071.55H1527M115 8.9541V2263H1527" stroke="black" stroke-width="0.5" stroke-miterlimit="10"/>
<path d="M861.156 1708.04V1705.26L864.029 1704.72V1685.22H858.735L858.338 1688.58H854.923V1681.74H877.705V1688.58H874.272L873.875 1685.22H868.582V1704.72L871.454 1705.26V1708.04H861.156ZM884.209 1715.94C883.836 1715.94 883.402 1715.9 882.908 1715.83C882.426 1715.76 882.005 1715.67 881.644 1715.56L882.149 1712.14C882.366 1712.18 882.625 1712.21 882.926 1712.23C883.239 1712.26 883.486 1712.27 883.667 1712.27C884.426 1712.27 885.064 1712.03 885.582 1711.55C886.1 1711.08 886.521 1710.42 886.847 1709.58L887.443 1708L880.758 1691.62L878.482 1691.29V1688.49H887.949V1691.29L885.546 1691.65L888.942 1700.76L889.539 1702.46H889.647L893.658 1691.64L891.255 1691.29V1688.49H900.234V1691.29L898.12 1691.6L890.55 1710.99C890.189 1711.9 889.737 1712.73 889.195 1713.48C888.665 1714.24 887.991 1714.83 887.172 1715.27C886.365 1715.71 885.377 1715.94 884.209 1715.94ZM901.499 1715.56V1712.76L904.136 1712.21V1691.84L901.264 1691.29V1688.49H908.219L908.508 1690.81C909.111 1689.95 909.845 1689.29 910.712 1688.84C911.58 1688.37 912.603 1688.13 913.784 1688.13C915.374 1688.13 916.735 1688.57 917.867 1689.43C918.999 1690.3 919.86 1691.51 920.45 1693.06C921.052 1694.62 921.354 1696.44 921.354 1698.52V1698.9C921.354 1700.8 921.052 1702.47 920.45 1703.9C919.848 1705.33 918.981 1706.43 917.849 1707.23C916.729 1708.02 915.374 1708.42 913.784 1708.42C912.664 1708.42 911.682 1708.23 910.839 1707.84C909.996 1707.44 909.273 1706.87 908.671 1706.11V1712.21L911.453 1712.76V1715.56H901.499ZM912.411 1704.92C913.904 1704.92 915.006 1704.37 915.717 1703.27C916.439 1702.16 916.801 1700.71 916.801 1698.9V1698.52C916.801 1697.17 916.638 1695.99 916.313 1694.98C916 1693.96 915.512 1693.16 914.85 1692.59C914.199 1692.02 913.374 1691.73 912.375 1691.73C911.531 1691.73 910.797 1691.92 910.17 1692.31C909.556 1692.68 909.056 1693.21 908.671 1693.9V1702.86C909.056 1703.52 909.556 1704.03 910.17 1704.39C910.785 1704.74 911.531 1704.92 912.411 1704.92ZM933.422 1708.42C931.543 1708.42 929.929 1708 928.58 1707.16C927.231 1706.31 926.195 1705.14 925.473 1703.65C924.75 1702.15 924.389 1700.42 924.389 1698.47V1698.09C924.389 1696.15 924.75 1694.43 925.473 1692.94C926.195 1691.44 927.231 1690.27 928.58 1689.41C929.929 1688.56 931.531 1688.13 933.386 1688.13C935.265 1688.13 936.879 1688.56 938.228 1689.41C939.576 1690.26 940.612 1691.43 941.335 1692.92C942.058 1694.41 942.419 1696.14 942.419 1698.09V1698.47C942.419 1700.42 942.058 1702.15 941.335 1703.65C940.612 1705.14 939.576 1706.31 938.228 1707.16C936.891 1708 935.289 1708.42 933.422 1708.42ZM933.422 1704.92C934.434 1704.92 935.265 1704.64 935.915 1704.1C936.577 1703.55 937.071 1702.79 937.396 1701.83C937.722 1700.85 937.884 1699.73 937.884 1698.47V1698.09C937.884 1696.83 937.722 1695.73 937.396 1694.76C937.071 1693.8 936.577 1693.04 935.915 1692.49C935.253 1691.93 934.41 1691.65 933.386 1691.65C932.386 1691.65 931.555 1691.93 930.893 1692.49C930.23 1693.04 929.736 1693.8 929.411 1694.76C929.098 1695.73 928.941 1696.83 928.941 1698.09V1698.47C928.941 1699.73 929.098 1700.85 929.411 1701.83C929.736 1702.79 930.23 1703.55 930.893 1704.1C931.567 1704.64 932.41 1704.92 933.422 1704.92ZM953.945 1715.94C952.982 1715.94 951.91 1715.8 950.729 1715.54C949.561 1715.29 948.531 1714.93 947.64 1714.47L948.58 1711.15C949.35 1711.5 950.2 1711.78 951.127 1712C952.054 1712.21 952.934 1712.32 953.765 1712.32C955.258 1712.32 956.348 1711.91 957.035 1711.08C957.733 1710.26 958.083 1709.09 958.083 1707.59V1706.05C957.48 1706.82 956.764 1707.41 955.933 1707.82C955.102 1708.22 954.15 1708.42 953.078 1708.42C951.488 1708.42 950.115 1708.02 948.959 1707.23C947.815 1706.43 946.936 1705.32 946.321 1703.89C945.719 1702.45 945.418 1700.79 945.418 1698.9V1698.52C945.418 1696.44 945.719 1694.62 946.321 1693.06C946.936 1691.51 947.809 1690.3 948.941 1689.43C950.085 1688.57 951.446 1688.13 953.024 1688.13C954.216 1688.13 955.252 1688.38 956.131 1688.87C957.011 1689.35 957.757 1690.05 958.372 1690.95L958.715 1688.49H962.635V1707.61C962.635 1709.31 962.292 1710.78 961.605 1712.02C960.919 1713.27 959.925 1714.23 958.625 1714.91C957.324 1715.59 955.764 1715.94 953.945 1715.94ZM954.307 1704.83C955.186 1704.83 955.933 1704.64 956.547 1704.27C957.173 1703.89 957.685 1703.35 958.083 1702.64V1693.93C957.685 1693.24 957.173 1692.71 956.547 1692.32C955.921 1691.93 955.18 1691.73 954.325 1691.73C953.325 1691.73 952.5 1692.02 951.85 1692.59C951.211 1693.16 950.736 1693.96 950.422 1694.98C950.121 1695.99 949.971 1697.17 949.971 1698.52V1698.9C949.971 1700.71 950.314 1702.15 951 1703.22C951.699 1704.29 952.801 1704.83 954.307 1704.83ZM962.021 1691.93L960.106 1688.49H964.984V1691.29L962.021 1691.93ZM966.899 1708.04V1705.26L969.609 1704.72V1691.84L966.754 1691.29V1688.49H973.8L974.035 1690.95L974.071 1691.35C974.589 1690.31 975.222 1689.52 975.968 1688.96C976.727 1688.41 977.612 1688.13 978.624 1688.13C978.961 1688.13 979.317 1688.16 979.69 1688.22C980.075 1688.28 980.389 1688.35 980.629 1688.42L980.105 1692.63L977.558 1692.49C976.727 1692.44 976.041 1692.6 975.499 1692.97C974.969 1693.35 974.523 1693.86 974.162 1694.53V1704.72L976.872 1705.26V1708.04H966.899ZM988.723 1708.42C986.736 1708.42 985.188 1707.91 984.08 1706.88C982.972 1705.86 982.418 1704.45 982.418 1702.66C982.418 1700.81 983.171 1699.32 984.676 1698.18C986.182 1697.03 988.332 1696.46 991.126 1696.46H994.107V1694.82C994.107 1693.78 993.794 1692.96 993.167 1692.34C992.553 1691.73 991.656 1691.42 990.476 1691.42C989.801 1691.42 989.205 1691.5 988.687 1691.67C988.169 1691.83 987.705 1692.06 987.296 1692.36L986.88 1695H983.538L983.502 1690.17C984.465 1689.55 985.537 1689.05 986.718 1688.69C987.898 1688.32 989.211 1688.13 990.656 1688.13C993.137 1688.13 995.089 1688.72 996.51 1689.88C997.943 1691.04 998.66 1692.7 998.66 1694.87V1703.49C998.66 1703.75 998.66 1704.01 998.66 1704.27C998.672 1704.52 998.69 1704.76 998.714 1705.01L1000.7 1705.26V1708.04H994.757C994.637 1707.62 994.522 1707.21 994.414 1706.81C994.318 1706.42 994.245 1706.02 994.197 1705.62C993.547 1706.44 992.758 1707.11 991.831 1707.64C990.915 1708.16 989.879 1708.42 988.723 1708.42ZM989.753 1704.9C990.668 1704.9 991.523 1704.69 992.318 1704.27C993.113 1703.83 993.709 1703.29 994.107 1702.64V1699.37H991.072C989.711 1699.37 988.681 1699.69 987.982 1700.33C987.296 1700.95 986.953 1701.69 986.953 1702.53C986.953 1703.29 987.194 1703.87 987.675 1704.28C988.157 1704.69 988.85 1704.9 989.753 1704.9ZM1002.63 1715.56V1712.76L1005.27 1712.21V1691.84L1002.4 1691.29V1688.49H1009.35L1009.64 1690.81C1010.25 1689.95 1010.98 1689.29 1011.85 1688.84C1012.72 1688.37 1013.74 1688.13 1014.92 1688.13C1016.51 1688.13 1017.87 1688.57 1019 1689.43C1020.13 1690.3 1021 1691.51 1021.59 1693.06C1022.19 1694.62 1022.49 1696.44 1022.49 1698.52V1698.9C1022.49 1700.8 1022.19 1702.47 1021.59 1703.9C1020.98 1705.33 1020.12 1706.43 1018.98 1707.23C1017.86 1708.02 1016.51 1708.42 1014.92 1708.42C1013.8 1708.42 1012.82 1708.23 1011.97 1707.84C1011.13 1707.44 1010.41 1706.87 1009.81 1706.11V1712.21L1012.59 1712.76V1715.56H1002.63ZM1013.55 1704.92C1015.04 1704.92 1016.14 1704.37 1016.85 1703.27C1017.58 1702.16 1017.94 1700.71 1017.94 1698.9V1698.52C1017.94 1697.17 1017.77 1695.99 1017.45 1694.98C1017.14 1693.96 1016.65 1693.16 1015.99 1692.59C1015.33 1692.02 1014.51 1691.73 1013.51 1691.73C1012.67 1691.73 1011.93 1691.92 1011.31 1692.31C1010.69 1692.68 1010.19 1693.21 1009.81 1693.9V1702.86C1010.19 1703.52 1010.69 1704.03 1011.31 1704.39C1011.92 1704.74 1012.67 1704.92 1013.55 1704.92ZM1024.37 1708.04V1705.26L1027.08 1704.72V1683.2L1024.21 1682.66V1679.86H1031.61V1691.02C1032.25 1690.11 1033.04 1689.4 1033.98 1688.89C1034.92 1688.38 1035.98 1688.13 1037.16 1688.13C1039.17 1688.13 1040.75 1688.78 1041.89 1690.06C1043.05 1691.34 1043.63 1693.32 1043.63 1695.99V1704.72L1046.34 1705.26V1708.04H1036.53V1705.26L1039.09 1704.72V1695.95C1039.09 1694.46 1038.79 1693.38 1038.19 1692.72C1037.59 1692.06 1036.7 1691.73 1035.53 1691.73C1034.7 1691.73 1033.95 1691.91 1033.27 1692.29C1032.61 1692.65 1032.06 1693.16 1031.61 1693.82V1704.72L1034.18 1705.26V1708.04H1024.37ZM1051.47 1715.94C1051.09 1715.94 1050.66 1715.9 1050.17 1715.83C1049.69 1715.76 1049.26 1715.67 1048.9 1715.56L1049.41 1712.14C1049.62 1712.18 1049.88 1712.21 1050.19 1712.23C1050.5 1712.26 1050.75 1712.27 1050.93 1712.27C1051.68 1712.27 1052.32 1712.03 1052.84 1711.55C1053.36 1711.08 1053.78 1710.42 1054.11 1709.58L1054.7 1708L1048.02 1691.62L1045.74 1691.29V1688.49H1055.21V1691.29L1052.8 1691.65L1056.2 1700.76L1056.8 1702.46H1056.91L1060.92 1691.64L1058.51 1691.29V1688.49H1067.49V1691.29L1065.38 1691.6L1057.81 1710.99C1057.45 1711.9 1057 1712.73 1056.45 1713.48C1055.92 1714.24 1055.25 1714.83 1054.43 1715.27C1053.62 1715.71 1052.64 1715.94 1051.47 1715.94Z" fill="black"/>
<path d="M1158.46 782.445C1156.9 782.445 1155.66 781.99 1154.73 781.078C1153.82 780.154 1153.37 778.682 1153.37 776.664V763.832H1150.03V760.98H1153.37V755.883H1157.21V760.98H1161.8V763.832H1157.21V776.664C1157.21 777.68 1157.42 778.428 1157.82 778.91C1158.22 779.392 1158.76 779.633 1159.44 779.633C1159.9 779.633 1160.4 779.594 1160.96 779.516C1161.52 779.424 1161.96 779.346 1162.27 779.281L1162.8 781.801C1162.24 781.97 1161.55 782.12 1160.73 782.25C1159.92 782.38 1159.17 782.445 1158.46 782.445ZM1174.42 782.523C1172.47 782.523 1170.78 782.068 1169.36 781.156C1167.96 780.232 1166.87 778.962 1166.1 777.348C1165.33 775.72 1164.95 773.865 1164.95 771.781V771.352C1164.95 769.268 1165.33 767.419 1166.1 765.805C1166.87 764.177 1167.96 762.901 1169.36 761.977C1170.78 761.052 1172.46 760.59 1174.38 760.59C1176.34 760.59 1178.02 761.052 1179.42 761.977C1180.84 762.901 1181.93 764.171 1182.7 765.785C1183.47 767.4 1183.86 769.255 1183.86 771.352V771.781C1183.86 773.878 1183.47 775.74 1182.7 777.367C1181.93 778.982 1180.85 780.245 1179.44 781.156C1178.04 782.068 1176.36 782.523 1174.42 782.523ZM1174.42 779.516C1175.65 779.516 1176.67 779.184 1177.49 778.52C1178.32 777.842 1178.95 776.924 1179.36 775.766C1179.79 774.594 1180.01 773.266 1180.01 771.781V771.352C1180.01 769.867 1179.79 768.546 1179.36 767.387C1178.95 766.215 1178.32 765.297 1177.49 764.633C1176.65 763.956 1175.62 763.617 1174.38 763.617C1173.16 763.617 1172.13 763.956 1171.3 764.633C1170.46 765.297 1169.84 766.215 1169.42 767.387C1169.01 768.546 1168.8 769.867 1168.8 771.352V771.781C1168.8 773.266 1169.01 774.594 1169.42 775.766C1169.84 776.924 1170.46 777.842 1171.3 778.52C1172.14 779.184 1173.18 779.516 1174.42 779.516Z" fill="black"/>
</g>
</g>
<defs>
<clipPath id="clip0_447_1448">
<rect width="1512" height="2484" fill="white"/>
</clipPath>
<clipPath id="clip1_447_1448">
<rect width="2730" height="2819" fill="white" transform="translate(-1218 -286)"/>
</clipPath>
</defs>
</svg>
