<svg width="295" height="98" viewBox="0 0 295 98" fill="none" xmlns="http://www.w3.org/2000/svg">
<path d="M0.845703 95V92.4707H3.92188C6.61068 92.4707 8.66146 92.0605 10.0742 91.2402C11.5326 90.3743 12.6035 89.2122 13.2871 87.7539C13.6973 86.7969 13.9023 83.9258 13.9023 79.1406V18.1641C13.9023 13.4245 13.6517 10.4622 13.1504 9.27734C12.6491 8.09245 11.6237 7.06706 10.0742 6.20117C8.57031 5.28971 6.51953 4.83398 3.92188 4.83398H0.845703V2.30469H42.3398C53.4141 2.30469 62.3236 3.80859 69.0684 6.81641C77.3171 10.5078 83.5605 16.0905 87.7988 23.5645C92.0827 31.0384 94.2246 39.4922 94.2246 48.9258C94.2246 55.4427 93.1764 61.4583 91.0801 66.9727C88.9837 72.4414 86.2721 76.9759 82.9453 80.5762C79.6185 84.1309 75.7676 87.002 71.3926 89.1895C67.0632 91.3314 61.7539 92.9948 55.4648 94.1797C52.6849 94.7266 48.3099 95 42.3398 95H0.845703ZM36.1875 7.56836V79.8926C36.1875 83.7207 36.3698 86.0677 36.7344 86.9336C37.099 87.7995 37.7142 88.4603 38.5801 88.916C39.8105 89.5996 41.5879 89.9414 43.9121 89.9414C51.5228 89.9414 57.3333 87.3438 61.3438 82.1484C66.8125 75.1302 69.5469 64.2383 69.5469 49.4727C69.5469 37.5781 67.6784 28.0762 63.9414 20.9668C60.9792 15.4069 57.1738 11.6243 52.5254 9.61914C49.2441 8.20638 43.7982 7.52279 36.1875 7.56836ZM103.453 2.30469H151.305V4.83398H148.912C145.312 4.83398 142.828 5.22135 141.461 5.99609C140.139 6.72526 139.182 7.75065 138.59 9.07227C138.043 10.3939 137.77 13.6979 137.77 18.9844V64.375C137.77 72.6693 138.385 78.1608 139.615 80.8496C140.891 83.5384 142.965 85.7715 145.836 87.5488C148.707 89.3262 152.33 90.2148 156.705 90.2148C161.718 90.2148 165.979 89.0983 169.488 86.8652C173.043 84.5866 175.686 81.4648 177.418 77.5C179.195 73.5352 180.084 66.6309 180.084 56.7871V18.9844C180.084 14.8372 179.651 11.875 178.785 10.0977C177.919 8.32031 176.826 7.08984 175.504 6.40625C173.453 5.35807 170.559 4.83398 166.822 4.83398V2.30469H198.883V4.83398H196.969C194.371 4.83398 192.206 5.35807 190.475 6.40625C188.743 7.45443 187.49 9.02669 186.715 11.123C186.122 12.5814 185.826 15.2018 185.826 18.9844V54.1895C185.826 65.0814 185.097 72.9427 183.639 77.7734C182.226 82.6042 178.74 87.0475 173.18 91.1035C167.62 95.1595 160.032 97.1875 150.416 97.1875C142.395 97.1875 136.197 96.1165 131.822 93.9746C125.852 91.0579 121.637 87.321 119.176 82.7637C116.715 78.2064 115.484 72.0768 115.484 64.375V18.9844C115.484 13.6523 115.188 10.3483 114.596 9.07227C114.003 7.75065 112.978 6.70247 111.52 5.92773C110.061 5.15299 107.372 4.78841 103.453 4.83398V2.30469ZM294.791 0.185547V32.3145H292.125C290.12 23.929 286.383 17.5033 280.914 13.0371C275.445 8.57096 269.247 6.33789 262.32 6.33789C256.533 6.33789 251.223 8.0013 246.393 11.3281C241.562 14.6549 238.03 19.0072 235.797 24.3848C232.926 31.2663 231.49 38.9225 231.49 47.3535C231.49 55.6478 232.538 63.2129 234.635 70.0488C236.731 76.8392 240.012 81.9889 244.479 85.498C248.945 88.9616 254.732 90.6934 261.842 90.6934C267.675 90.6934 273.007 89.4173 277.838 86.8652C282.714 84.3132 287.841 79.9154 293.219 73.6719V81.6699C288.023 87.0931 282.6 91.0352 276.949 93.4961C271.344 95.9115 264.781 97.1191 257.262 97.1191C247.372 97.1191 238.577 95.1367 230.875 91.1719C223.219 87.207 217.294 81.5104 213.102 74.082C208.954 66.6536 206.881 58.7467 206.881 50.3613C206.881 41.5202 209.182 33.1348 213.785 25.2051C218.434 17.2754 224.677 11.123 232.516 6.74805C240.4 2.37305 248.762 0.185547 257.604 0.185547C264.12 0.185547 271.002 1.59831 278.248 4.42383C282.441 6.06445 285.107 6.88477 286.246 6.88477C287.704 6.88477 288.958 6.36068 290.006 5.3125C291.1 4.21875 291.806 2.50977 292.125 0.185547H294.791Z" fill="black"/>
</svg>
