<svg width="1512" height="1696" viewBox="0 0 1512 1696" fill="none" xmlns="http://www.w3.org/2000/svg">
<g clip-path="url(#clip0_447_2596)">
<rect width="1512" height="1696" fill="white"/>
<path d="M-67.6306 728.557H1496.65M-60.5135 534.611H1496.65M-88 869.475H1496.65M-70.0847 1011.62H1496.65M-33.2724 1222.01H1496.4M974.894 2010.32V-196.492M1046.55 2050.58V-237M599.408 -220.797V2034.38M-71.3118 499.259H1496.65M384.915 -208.767V2022.35M331.169 -196.492V1292.72M509.341 393.448H922.375M-46.2794 428.8H1200.43M759.665 -216.623V2030.45M-17.8112 314.396H1496.4M509.341 -204.348V428.8M724.079 -211.959V393.448M1496.65 1295.17H-49.9606M1500.82 428.8H1174.66M1496.65 393.448H713.281M1496.65 1398.53H-40.3894M1523.15 1737.81H-25.4191M205.271 869.475V-204.348M276.933 1292.72V869.475M1153.8 1010.64V728.557H1260.56V-220.797M1189.14 534.611V-200.666" stroke="black" stroke-width="0.5" stroke-miterlimit="10"/>
</g>
<defs>
<clipPath id="clip0_447_2596">
<rect width="1512" height="1696" fill="white"/>
</clipPath>
</defs>
</svg>
