<svg width="146" height="274" viewBox="0 0 146 274" fill="none" xmlns="http://www.w3.org/2000/svg">
<path d="M105.576 0.984375V219.752C105.576 236.191 106.299 246.712 107.746 251.314C109.193 255.786 112.217 259.468 116.82 262.361C121.423 265.255 128.788 266.701 138.914 266.701H145.029V274H4.18164V266.701H11.2832C22.7246 266.701 30.8783 265.386 35.7441 262.756C40.61 260.126 43.8978 256.509 45.6074 251.906C47.3171 247.303 48.1719 236.585 48.1719 219.752V81.0742C48.1719 68.7122 47.5801 61.0189 46.3965 57.9941C45.2129 54.8379 42.9772 52.2077 39.6895 50.1035C36.5332 47.8678 32.8509 46.75 28.6426 46.75C21.9355 46.75 13.7819 48.8542 4.18164 53.0625L0.630859 45.9609L99.0664 0.984375H105.576Z" fill="#C92B1D"/>
</svg>
