<svg width="453" height="98" viewBox="0 0 453 98" fill="none" xmlns="http://www.w3.org/2000/svg">
<path d="M49.2695 92.4707V95H0.802734V92.4707H3.87891C6.56771 92.4707 8.73242 91.9922 10.373 91.0352C11.5579 90.3971 12.4694 89.3034 13.1074 87.7539C13.6087 86.6602 13.8594 83.7891 13.8594 79.1406V18.1641C13.8594 13.4245 13.6087 10.4622 13.1074 9.27734C12.6061 8.09245 11.5807 7.06706 10.0312 6.20117C8.52734 5.28971 6.47656 4.83398 3.87891 4.83398H0.802734V2.30469H49.2695V4.83398H46.1934C43.5046 4.83398 41.3398 5.3125 39.6992 6.26953C38.5143 6.90755 37.5801 8.0013 36.8965 9.55078C36.3952 10.6445 36.1445 13.5156 36.1445 18.1641V79.1406C36.1445 83.8802 36.3952 86.8424 36.8965 88.0273C37.4434 89.2122 38.4688 90.2604 39.9727 91.1719C41.5221 92.0378 43.5957 92.4707 46.1934 92.4707H49.2695ZM87.4141 2.30469L133.146 59.7949V19.9414C133.146 14.3815 132.349 10.6217 130.754 8.66211C128.566 6.01888 124.898 4.74284 119.748 4.83398V2.30469H150.373V4.83398C146.454 5.33529 143.811 5.99609 142.443 6.81641C141.122 7.59115 140.074 8.88997 139.299 10.7129C138.57 12.4902 138.205 15.5664 138.205 19.9414V97.1191H135.881L73.1953 19.9414V78.8672C73.1953 84.1992 74.403 87.7995 76.8184 89.668C79.2793 91.5365 82.082 92.4707 85.2266 92.4707H87.4141V95H54.5332V92.4707C59.6374 92.4251 63.1921 91.377 65.1973 89.3262C67.2025 87.2754 68.2051 83.7891 68.2051 78.8672V13.4473L66.2227 10.9863C64.263 8.52539 62.5312 6.90755 61.0273 6.13281C59.5234 5.35807 57.3587 4.92513 54.5332 4.83398V2.30469H87.4141ZM242.043 2.30469V27.3926H239.582C238.124 21.6048 236.506 17.4577 234.729 14.9512C232.951 12.3991 230.513 10.3711 227.414 8.86719C225.682 8.04688 222.652 7.63672 218.322 7.63672H211.418V79.1406C211.418 83.8802 211.669 86.8424 212.17 88.0273C212.717 89.2122 213.742 90.2604 215.246 91.1719C216.796 92.0378 218.892 92.4707 221.535 92.4707H224.611V95H176.076V92.4707H179.152C181.841 92.4707 184.006 91.9922 185.646 91.0352C186.831 90.3971 187.766 89.3034 188.449 87.7539C188.951 86.6602 189.201 83.7891 189.201 79.1406V7.63672H182.502C176.258 7.63672 171.724 8.95833 168.898 11.6016C164.934 15.293 162.427 20.5566 161.379 27.3926H158.781V2.30469H242.043ZM284.289 52.7539V78.7305C284.289 83.7435 284.585 86.9108 285.178 88.2324C285.816 89.5085 286.91 90.5339 288.459 91.3086C290.008 92.0833 292.902 92.4707 297.141 92.4707V95H249.699V92.4707C253.983 92.4707 256.877 92.0833 258.381 91.3086C259.93 90.4883 261.001 89.4401 261.594 88.1641C262.232 86.888 262.551 83.7435 262.551 78.7305V18.5742C262.551 13.5612 262.232 10.4167 261.594 9.14062C261.001 7.81901 259.93 6.77083 258.381 5.99609C256.831 5.22135 253.938 4.83398 249.699 4.83398V2.30469H292.766C303.977 2.30469 312.18 3.07943 317.375 4.62891C322.57 6.17839 326.809 9.04948 330.09 13.2422C333.371 17.3893 335.012 22.2656 335.012 27.8711C335.012 34.707 332.551 40.3581 327.629 44.8242C324.484 47.6497 320.087 49.7689 314.436 51.1816L336.721 82.5586C339.637 86.6146 341.711 89.1439 342.941 90.1465C344.81 91.5592 346.975 92.334 349.436 92.4707V95H320.246L290.373 52.7539H284.289ZM284.289 7.29492V47.9004H288.186C294.52 47.9004 299.26 47.3307 302.404 46.1914C305.549 45.0065 308.01 42.9102 309.787 39.9023C311.61 36.849 312.521 32.8841 312.521 28.0078C312.521 20.944 310.858 15.7259 307.531 12.3535C304.25 8.98112 298.941 7.29492 291.604 7.29492H284.289ZM402.346 1.00586C417.111 0.458984 429.097 4.76562 438.303 13.9258C447.554 23.0859 452.18 34.5475 452.18 48.3105C452.18 60.0684 448.739 70.4134 441.857 79.3457C432.743 91.1947 419.868 97.1191 403.234 97.1191C386.555 97.1191 373.658 91.4681 364.543 80.166C357.342 71.2337 353.742 60.638 353.742 48.3789C353.742 34.6159 358.413 23.1543 367.756 13.9941C377.144 4.78841 388.674 0.458984 402.346 1.00586ZM403.166 5.38086C394.689 5.38086 388.241 9.71029 383.82 18.3691C380.22 25.4785 378.42 35.6868 378.42 48.9941C378.42 64.8079 381.2 76.4974 386.76 84.0625C390.633 89.349 396.057 91.9922 403.029 91.9922C407.723 91.9922 411.643 90.8529 414.787 88.5742C418.798 85.6576 421.919 81.0091 424.152 74.6289C426.385 68.2031 427.502 59.8405 427.502 49.541C427.502 37.2819 426.363 28.1217 424.084 22.0605C421.805 15.9538 418.889 11.6471 415.334 9.14062C411.825 6.63411 407.769 5.38086 403.166 5.38086Z" fill="black"/>
</svg>
