<svg width="419" height="98" viewBox="0 0 419 98" fill="none" xmlns="http://www.w3.org/2000/svg">
<path d="M58.7617 0.185547L59.5137 31.084H56.7109C55.3893 23.3366 52.1309 17.1159 46.9355 12.4219C41.7858 7.68229 36.2031 5.3125 30.1875 5.3125C25.5391 5.3125 21.8477 6.56576 19.1133 9.07227C16.4245 11.5332 15.0801 14.3815 15.0801 17.6172C15.0801 19.668 15.5586 21.4909 16.5156 23.0859C17.8372 25.2279 19.9564 27.347 22.873 29.4434C25.015 30.9473 29.9596 33.6133 37.707 37.4414C48.5534 42.7734 55.8678 47.8092 59.6504 52.5488C63.3874 57.2884 65.2559 62.7116 65.2559 68.8184C65.2559 76.5658 62.2253 83.2422 56.1641 88.8477C50.1484 94.4076 42.4922 97.1875 33.1953 97.1875C30.2786 97.1875 27.5215 96.8913 24.9238 96.2988C22.3262 95.7064 19.0677 94.5898 15.1484 92.9492C12.9609 92.0378 11.1608 91.582 9.74805 91.582C8.56315 91.582 7.3099 92.0378 5.98828 92.9492C4.66667 93.8607 3.5957 95.2507 2.77539 97.1191H0.246094V62.1191H2.77539C4.7806 71.9629 8.63151 79.4824 14.3281 84.6777C20.0703 89.8275 26.2454 92.4023 32.8535 92.4023C37.9577 92.4023 42.0137 91.0124 45.0215 88.2324C48.0749 85.4525 49.6016 82.2168 49.6016 78.5254C49.6016 76.3379 49.0091 74.2188 47.8242 72.168C46.6849 70.1172 44.9303 68.1803 42.5605 66.3574C40.1908 64.4889 35.998 62.0736 29.9824 59.1113C21.5514 54.9642 15.4902 51.4323 11.7988 48.5156C8.10742 45.599 5.25911 42.3405 3.25391 38.7402C1.29427 35.14 0.314453 31.1751 0.314453 26.8457C0.314453 19.4629 3.02604 13.1738 8.44922 7.97852C13.8724 2.7832 20.7083 0.185547 28.957 0.185547C31.9648 0.185547 34.8815 0.55013 37.707 1.2793C39.849 1.82617 42.4466 2.85156 45.5 4.35547C48.599 5.8138 50.7637 6.54297 51.9941 6.54297C53.179 6.54297 54.1133 6.17839 54.7969 5.44922C55.4805 4.72005 56.1185 2.96549 56.7109 0.185547H58.7617ZM74.2109 2.30469H122.062V4.83398H119.67C116.07 4.83398 113.586 5.22135 112.219 5.99609C110.897 6.72526 109.94 7.75065 109.348 9.07227C108.801 10.3939 108.527 13.6979 108.527 18.9844V64.375C108.527 72.6693 109.143 78.1608 110.373 80.8496C111.649 83.5384 113.723 85.7715 116.594 87.5488C119.465 89.3262 123.088 90.2148 127.463 90.2148C132.476 90.2148 136.737 89.0983 140.246 86.8652C143.801 84.5866 146.444 81.4648 148.176 77.5C149.953 73.5352 150.842 66.6309 150.842 56.7871V18.9844C150.842 14.8372 150.409 11.875 149.543 10.0977C148.677 8.32031 147.583 7.08984 146.262 6.40625C144.211 5.35807 141.317 4.83398 137.58 4.83398V2.30469H169.641V4.83398H167.727C165.129 4.83398 162.964 5.35807 161.232 6.40625C159.501 7.45443 158.247 9.02669 157.473 11.123C156.88 12.5814 156.584 15.2018 156.584 18.9844V54.1895C156.584 65.0814 155.855 72.9427 154.396 77.7734C152.984 82.6042 149.497 87.0475 143.938 91.1035C138.378 95.1595 130.79 97.1875 121.174 97.1875C113.153 97.1875 106.955 96.1165 102.58 93.9746C96.61 91.0579 92.3945 87.321 89.9336 82.7637C87.4727 78.2064 86.2422 72.0768 86.2422 64.375V18.9844C86.2422 13.6523 85.946 10.3483 85.3535 9.07227C84.7611 7.75065 83.7357 6.70247 82.2773 5.92773C80.819 5.15299 78.1302 4.78841 74.2109 4.83398V2.30469ZM260.49 62.4609L257.004 95H174.699V92.4707H177.775C180.464 92.4707 182.629 91.9922 184.27 91.0352C185.454 90.3971 186.366 89.3034 187.004 87.7539C187.505 86.6602 187.756 83.7891 187.756 79.1406V18.1641C187.756 13.4245 187.505 10.4622 187.004 9.27734C186.503 8.09245 185.477 7.06706 183.928 6.20117C182.424 5.28971 180.373 4.83398 177.775 4.83398H174.699V2.30469H224.123V4.83398H220.09C217.401 4.83398 215.236 5.3125 213.596 6.26953C212.411 6.90755 211.477 8.0013 210.793 9.55078C210.292 10.6445 210.041 13.5156 210.041 18.1641V77.2266C210.041 81.9661 210.314 84.9967 210.861 86.3184C211.408 87.5944 212.479 88.5514 214.074 89.1895C215.214 89.5996 217.971 89.8047 222.346 89.8047H230.07C234.992 89.8047 239.094 88.9388 242.375 87.207C245.656 85.4753 248.482 82.7409 250.852 79.0039C253.267 75.2669 255.546 69.7526 257.688 62.4609H260.49ZM340.949 2.30469V27.3926H338.488C337.03 21.6048 335.412 17.4577 333.635 14.9512C331.857 12.3991 329.419 10.3711 326.32 8.86719C324.589 8.04688 321.558 7.63672 317.229 7.63672H310.324V79.1406C310.324 83.8802 310.575 86.8424 311.076 88.0273C311.623 89.2122 312.648 90.2604 314.152 91.1719C315.702 92.0378 317.798 92.4707 320.441 92.4707H323.518V95H274.982V92.4707H278.059C280.747 92.4707 282.912 91.9922 284.553 91.0352C285.738 90.3971 286.672 89.3034 287.355 87.7539C287.857 86.6602 288.107 83.7891 288.107 79.1406V7.63672H281.408C275.165 7.63672 270.63 8.95833 267.805 11.6016C263.84 15.293 261.333 20.5566 260.285 27.3926H257.688V2.30469H340.949ZM411.77 0.185547L412.521 31.084H409.719C408.397 23.3366 405.139 17.1159 399.943 12.4219C394.794 7.68229 389.211 5.3125 383.195 5.3125C378.547 5.3125 374.855 6.56576 372.121 9.07227C369.432 11.5332 368.088 14.3815 368.088 17.6172C368.088 19.668 368.566 21.4909 369.523 23.0859C370.845 25.2279 372.964 27.347 375.881 29.4434C378.023 30.9473 382.967 33.6133 390.715 37.4414C401.561 42.7734 408.876 47.8092 412.658 52.5488C416.395 57.2884 418.264 62.7116 418.264 68.8184C418.264 76.5658 415.233 83.2422 409.172 88.8477C403.156 94.4076 395.5 97.1875 386.203 97.1875C383.286 97.1875 380.529 96.8913 377.932 96.2988C375.334 95.7064 372.076 94.5898 368.156 92.9492C365.969 92.0378 364.169 91.582 362.756 91.582C361.571 91.582 360.318 92.0378 358.996 92.9492C357.674 93.8607 356.604 95.2507 355.783 97.1191H353.254V62.1191H355.783C357.788 71.9629 361.639 79.4824 367.336 84.6777C373.078 89.8275 379.253 92.4023 385.861 92.4023C390.965 92.4023 395.021 91.0124 398.029 88.2324C401.083 85.4525 402.609 82.2168 402.609 78.5254C402.609 76.3379 402.017 74.2188 400.832 72.168C399.693 70.1172 397.938 68.1803 395.568 66.3574C393.199 64.4889 389.006 62.0736 382.99 59.1113C374.559 54.9642 368.498 51.4323 364.807 48.5156C361.115 45.599 358.267 42.3405 356.262 38.7402C354.302 35.14 353.322 31.1751 353.322 26.8457C353.322 19.4629 356.034 13.1738 361.457 7.97852C366.88 2.7832 373.716 0.185547 381.965 0.185547C384.973 0.185547 387.889 0.55013 390.715 1.2793C392.857 1.82617 395.454 2.85156 398.508 4.35547C401.607 5.8138 403.771 6.54297 405.002 6.54297C406.187 6.54297 407.121 6.17839 407.805 5.44922C408.488 4.72005 409.126 2.96549 409.719 0.185547H411.77Z" fill="black"/>
</svg>
