<svg width="350" height="98" viewBox="0 0 350 98" fill="none" xmlns="http://www.w3.org/2000/svg">
<path d="M83.3203 2.30469V27.3926H80.8594C79.401 21.6048 77.7832 17.4577 76.0059 14.9512C74.2285 12.3991 71.7904 10.3711 68.6914 8.86719C66.9596 8.04688 63.929 7.63672 59.5996 7.63672H52.6953V79.1406C52.6953 83.8802 52.946 86.8424 53.4473 88.0273C53.9941 89.2122 55.0195 90.2604 56.5234 91.1719C58.0729 92.0378 60.1693 92.4707 62.8125 92.4707H65.8887V95H17.3535V92.4707H20.4297C23.1185 92.4707 25.2832 91.9922 26.9238 91.0352C28.1087 90.3971 29.043 89.3034 29.7266 87.7539C30.2279 86.6602 30.4785 83.7891 30.4785 79.1406V7.63672H23.7793C17.5358 7.63672 13.0013 8.95833 10.1758 11.6016C6.21094 15.293 3.70443 20.5566 2.65625 27.3926H0.0585938V2.30469H83.3203ZM139.648 92.4707V95H91.1816V92.4707H94.2578C96.9466 92.4707 99.1113 91.9922 100.752 91.0352C101.937 90.3971 102.848 89.3034 103.486 87.7539C103.988 86.6602 104.238 83.7891 104.238 79.1406V18.1641C104.238 13.4245 103.988 10.4622 103.486 9.27734C102.985 8.09245 101.96 7.06706 100.41 6.20117C98.9062 5.28971 96.8555 4.83398 94.2578 4.83398H91.1816V2.30469H139.648V4.83398H136.572C133.883 4.83398 131.719 5.3125 130.078 6.26953C128.893 6.90755 127.959 8.0013 127.275 9.55078C126.774 10.6445 126.523 13.5156 126.523 18.1641V79.1406C126.523 83.8802 126.774 86.8424 127.275 88.0273C127.822 89.2122 128.848 90.2604 130.352 91.1719C131.901 92.0378 133.975 92.4707 136.572 92.4707H139.648ZM197.002 1.00586C211.768 0.458984 223.753 4.76562 232.959 13.9258C242.21 23.0859 246.836 34.5475 246.836 48.3105C246.836 60.0684 243.395 70.4134 236.514 79.3457C227.399 91.1947 214.525 97.1191 197.891 97.1191C181.211 97.1191 168.314 91.4681 159.199 80.166C151.999 71.2337 148.398 60.638 148.398 48.3789C148.398 34.6159 153.07 23.1543 162.412 13.9941C171.8 4.78841 183.33 0.458984 197.002 1.00586ZM197.822 5.38086C189.346 5.38086 182.897 9.71029 178.477 18.3691C174.876 25.4785 173.076 35.6868 173.076 48.9941C173.076 64.8079 175.856 76.4974 181.416 84.0625C185.29 89.349 190.713 91.9922 197.686 91.9922C202.38 91.9922 206.299 90.8529 209.443 88.5742C213.454 85.6576 216.576 81.0091 218.809 74.6289C221.042 68.2031 222.158 59.8405 222.158 49.541C222.158 37.2819 221.019 28.1217 218.74 22.0605C216.462 15.9538 213.545 11.6471 209.99 9.14062C206.481 6.63411 202.425 5.38086 197.822 5.38086ZM286.758 2.30469L332.49 59.7949V19.9414C332.49 14.3815 331.693 10.6217 330.098 8.66211C327.91 6.01888 324.242 4.74284 319.092 4.83398V2.30469H349.717V4.83398C345.798 5.33529 343.154 5.99609 341.787 6.81641C340.465 7.59115 339.417 8.88997 338.643 10.7129C337.913 12.4902 337.549 15.5664 337.549 19.9414V97.1191H335.225L272.539 19.9414V78.8672C272.539 84.1992 273.747 87.7995 276.162 89.668C278.623 91.5365 281.426 92.4707 284.57 92.4707H286.758V95H253.877V92.4707C258.981 92.4251 262.536 91.377 264.541 89.3262C266.546 87.2754 267.549 83.7891 267.549 78.8672V13.4473L265.566 10.9863C263.607 8.52539 261.875 6.90755 260.371 6.13281C258.867 5.35807 256.702 4.92513 253.877 4.83398V2.30469H286.758Z" fill="black"/>
</svg>
