<svg width="143" height="28" viewBox="0 0 143 28" fill="none" xmlns="http://www.w3.org/2000/svg">
<path d="M62.06 20L66.5 6.88H68.38L72.82 20H71.06L68.76 12.66C68.52 11.9267 68.2933 11.2 68.08 10.48C67.8667 9.74667 67.6533 9 67.44 8.24H67.36C67.16 9 66.9533 9.74667 66.74 10.48C66.5267 11.2 66.3 11.9267 66.06 12.66L63.74 20H62.06ZM64.38 16V14.68H70.44V16H64.38ZM74.4994 24.1V10.28H75.8594L75.9994 11.4H76.0594C76.4994 11.0267 76.986 10.7067 77.5194 10.44C78.0527 10.1733 78.5994 10.04 79.1594 10.04C79.986 10.04 80.686 10.2467 81.2594 10.66C81.8327 11.06 82.266 11.6333 82.5594 12.38C82.8527 13.1133 82.9994 13.9867 82.9994 15C82.9994 16.0933 82.7994 17.0333 82.3994 17.82C82.0127 18.6067 81.4994 19.2067 80.8594 19.62C80.2194 20.0333 79.5327 20.24 78.7994 20.24C78.3594 20.24 77.9127 20.14 77.4594 19.94C77.006 19.74 76.5527 19.4667 76.0994 19.12L76.1394 20.82V24.1H74.4994ZM78.5194 18.86C79.0527 18.86 79.526 18.7067 79.9394 18.4C80.366 18.0933 80.6994 17.6533 80.9394 17.08C81.1794 16.4933 81.2994 15.8 81.2994 15C81.2994 14.2933 81.2127 13.6733 81.0394 13.14C80.866 12.5933 80.5927 12.1733 80.2194 11.88C79.846 11.5733 79.3527 11.42 78.7394 11.42C78.3394 11.42 77.926 11.5333 77.4994 11.76C77.0727 11.9733 76.6194 12.3 76.1394 12.74V17.84C76.5927 18.2133 77.0194 18.48 77.4194 18.64C77.8327 18.7867 78.1994 18.86 78.5194 18.86ZM85.5931 24.1V10.28H86.9531L87.0931 11.4H87.1531C87.5931 11.0267 88.0798 10.7067 88.6131 10.44C89.1465 10.1733 89.6931 10.04 90.2531 10.04C91.0798 10.04 91.7798 10.2467 92.3531 10.66C92.9265 11.06 93.3598 11.6333 93.6531 12.38C93.9465 13.1133 94.0931 13.9867 94.0931 15C94.0931 16.0933 93.8931 17.0333 93.4931 17.82C93.1065 18.6067 92.5931 19.2067 91.9531 19.62C91.3131 20.0333 90.6265 20.24 89.8931 20.24C89.4531 20.24 89.0065 20.14 88.5531 19.94C88.0998 19.74 87.6465 19.4667 87.1931 19.12L87.2331 20.82V24.1H85.5931ZM89.6131 18.86C90.1465 18.86 90.6198 18.7067 91.0331 18.4C91.4598 18.0933 91.7931 17.6533 92.0331 17.08C92.2731 16.4933 92.3931 15.8 92.3931 15C92.3931 14.2933 92.3065 13.6733 92.1331 13.14C91.9598 12.5933 91.6865 12.1733 91.3131 11.88C90.9398 11.5733 90.4465 11.42 89.8331 11.42C89.4331 11.42 89.0198 11.5333 88.5931 11.76C88.1665 11.9733 87.7131 12.3 87.2331 12.74V17.84C87.6865 18.2133 88.1131 18.48 88.5131 18.64C88.9265 18.7867 89.2931 18.86 89.6131 18.86ZM96.6869 20V10.28H98.0469L98.1869 12.04H98.2469C98.5669 11.4267 98.9669 10.94 99.4469 10.58C99.9269 10.22 100.447 10.04 101.007 10.04C101.22 10.04 101.407 10.0533 101.567 10.08C101.727 10.1067 101.887 10.16 102.047 10.24L101.687 11.64C101.54 11.6 101.4 11.5733 101.267 11.56C101.147 11.5333 100.987 11.52 100.787 11.52C100.374 11.52 99.9402 11.6867 99.4869 12.02C99.0469 12.3533 98.6602 12.9333 98.3269 13.76V20H96.6869ZM107.205 20.24C106.418 20.24 105.678 20.04 104.985 19.64C104.305 19.24 103.752 18.66 103.325 17.9C102.912 17.14 102.705 16.2267 102.705 15.16C102.705 14.0667 102.912 13.14 103.325 12.38C103.752 11.62 104.305 11.04 104.985 10.64C105.678 10.24 106.418 10.04 107.205 10.04C108.005 10.04 108.745 10.24 109.425 10.64C110.105 11.04 110.652 11.62 111.065 12.38C111.492 13.14 111.705 14.0667 111.705 15.16C111.705 16.2267 111.492 17.14 111.065 17.9C110.652 18.66 110.105 19.24 109.425 19.64C108.745 20.04 108.005 20.24 107.205 20.24ZM107.205 18.88C107.765 18.88 108.258 18.7267 108.685 18.42C109.112 18.1 109.438 17.66 109.665 17.1C109.892 16.54 110.005 15.8933 110.005 15.16C110.005 14.4133 109.892 13.76 109.665 13.2C109.438 12.6267 109.112 12.1867 108.685 11.88C108.258 11.56 107.765 11.4 107.205 11.4C106.645 11.4 106.152 11.56 105.725 11.88C105.312 12.1867 104.985 12.6267 104.745 13.2C104.518 13.76 104.405 14.4133 104.405 15.16C104.405 15.8933 104.518 16.54 104.745 17.1C104.985 17.66 105.312 18.1 105.725 18.42C106.152 18.7267 106.645 18.88 107.205 18.88ZM116.232 20.24C115.698 20.24 115.212 20.1333 114.772 19.92C114.345 19.6933 114.005 19.38 113.752 18.98C113.498 18.5667 113.372 18.0667 113.372 17.48C113.372 16.3867 113.852 15.56 114.812 15C115.772 14.44 117.292 14.0467 119.372 13.82C119.358 13.42 119.292 13.0333 119.172 12.66C119.065 12.2867 118.865 11.9867 118.572 11.76C118.278 11.5333 117.872 11.42 117.352 11.42C116.792 11.42 116.265 11.5267 115.772 11.74C115.278 11.94 114.838 12.1667 114.452 12.42L113.812 11.3C114.105 11.1 114.452 10.9067 114.852 10.72C115.252 10.52 115.685 10.36 116.152 10.24C116.618 10.1067 117.112 10.04 117.632 10.04C118.418 10.04 119.058 10.2067 119.552 10.54C120.058 10.86 120.425 11.32 120.652 11.92C120.892 12.52 121.012 13.2267 121.012 14.04V20H119.652L119.512 18.84H119.452C118.985 19.2267 118.485 19.56 117.952 19.84C117.418 20.1067 116.845 20.24 116.232 20.24ZM116.692 18.88C117.172 18.88 117.618 18.7733 118.032 18.56C118.458 18.3467 118.905 18.0333 119.372 17.62V15C118.278 15.1333 117.412 15.3067 116.772 15.52C116.145 15.72 115.692 15.9733 115.412 16.28C115.132 16.5867 114.992 16.9533 114.992 17.38C114.992 17.9133 115.158 18.3 115.492 18.54C115.825 18.7667 116.225 18.88 116.692 18.88ZM127.93 20.24C127.063 20.24 126.283 20.04 125.59 19.64C124.896 19.24 124.35 18.66 123.95 17.9C123.55 17.14 123.35 16.2267 123.35 15.16C123.35 14.0667 123.563 13.14 123.99 12.38C124.43 11.62 125.003 11.04 125.71 10.64C126.43 10.24 127.203 10.04 128.03 10.04C128.67 10.04 129.216 10.1467 129.67 10.36C130.136 10.5733 130.536 10.8467 130.87 11.18L130.05 12.2C129.81 11.96 129.523 11.7733 129.19 11.64C128.87 11.4933 128.503 11.42 128.09 11.42C127.516 11.42 126.996 11.58 126.53 11.9C126.076 12.2067 125.716 12.64 125.45 13.2C125.183 13.76 125.05 14.4133 125.05 15.16C125.05 15.8933 125.176 16.54 125.43 17.1C125.683 17.66 126.036 18.1 126.49 18.42C126.943 18.7267 127.47 18.88 128.07 18.88C128.523 18.88 128.943 18.7933 129.33 18.62C129.716 18.4467 130.05 18.2267 130.33 17.96L131.05 18.96C130.636 19.3467 130.17 19.66 129.65 19.9C129.13 20.1267 128.556 20.24 127.93 20.24ZM133.191 20V5.76H134.831V9.64L134.771 11.64C135.237 11.2 135.724 10.8267 136.231 10.52C136.751 10.2 137.344 10.04 138.011 10.04C139.037 10.04 139.784 10.3667 140.251 11.02C140.731 11.66 140.971 12.6 140.971 13.84V20H139.331V14.06C139.331 13.14 139.184 12.48 138.891 12.08C138.611 11.6667 138.144 11.46 137.491 11.46C136.997 11.46 136.551 11.5867 136.151 11.84C135.764 12.0933 135.324 12.4667 134.831 12.96V20H133.191Z" fill="#C92B1D"/>
<line x1="-0.00488281" y1="17" x2="50.0051" y2="17" stroke="#C92B1D"/>
</svg>
