<svg width="165" height="28" viewBox="0 0 165 28" fill="none" xmlns="http://www.w3.org/2000/svg">
<path d="M61.8 20V6.88H63.46V20H61.8ZM66.8939 20V10.28H68.2539L68.3939 11.68H68.4539C68.9206 11.2133 69.4139 10.8267 69.9339 10.52C70.4539 10.2 71.0472 10.04 71.7139 10.04C72.7406 10.04 73.4872 10.3667 73.9539 11.02C74.4339 11.66 74.6739 12.6 74.6739 13.84V20H73.0339V14.06C73.0339 13.14 72.8872 12.48 72.5939 12.08C72.3139 11.6667 71.8472 11.46 71.1939 11.46C70.7006 11.46 70.2539 11.5867 69.8539 11.84C69.4672 12.0933 69.0272 12.4667 68.5339 12.96V20H66.8939ZM80.8914 20.18C79.8647 20.18 79.1447 19.88 78.7314 19.28C78.3181 18.68 78.1114 17.9 78.1114 16.94V11.62H76.6714V10.38L78.1914 10.28L78.3914 7.16H79.7714V10.28H82.4114V11.62H79.7714V16.96C79.7714 17.5467 79.8781 18.0067 80.0914 18.34C80.3181 18.6733 80.7114 18.84 81.2714 18.84C81.4447 18.84 81.6247 18.8267 81.8114 18.8C81.9981 18.76 82.1847 18.6933 82.3714 18.6L82.7314 19.76C82.4781 19.88 82.1914 19.98 81.8714 20.06C81.5514 20.14 81.2247 20.18 80.8914 20.18ZM84.5892 20V10.28H85.9492L86.0892 12.04H86.1492C86.4692 11.4267 86.8692 10.94 87.3492 10.58C87.8292 10.22 88.3492 10.04 88.9092 10.04C89.1226 10.04 89.3092 10.0533 89.4692 10.08C89.6292 10.1067 89.7892 10.16 89.9492 10.24L89.5892 11.64C89.4426 11.6 89.3026 11.5733 89.1692 11.56C89.0492 11.5333 88.8892 11.52 88.6892 11.52C88.2759 11.52 87.8426 11.6867 87.3892 12.02C86.9492 12.3533 86.5626 12.9333 86.2292 13.76V20H84.5892ZM95.1075 20.24C94.3208 20.24 93.5808 20.04 92.8875 19.64C92.2075 19.24 91.6542 18.66 91.2275 17.9C90.8142 17.14 90.6075 16.2267 90.6075 15.16C90.6075 14.0667 90.8142 13.14 91.2275 12.38C91.6542 11.62 92.2075 11.04 92.8875 10.64C93.5808 10.24 94.3208 10.04 95.1075 10.04C95.9075 10.04 96.6475 10.24 97.3275 10.64C98.0075 11.04 98.5542 11.62 98.9675 12.38C99.3942 13.14 99.6075 14.0667 99.6075 15.16C99.6075 16.2267 99.3942 17.14 98.9675 17.9C98.5542 18.66 98.0075 19.24 97.3275 19.64C96.6475 20.04 95.9075 20.24 95.1075 20.24ZM95.1075 18.88C95.6675 18.88 96.1608 18.7267 96.5875 18.42C97.0142 18.1 97.3408 17.66 97.5675 17.1C97.7942 16.54 97.9075 15.8933 97.9075 15.16C97.9075 14.4133 97.7942 13.76 97.5675 13.2C97.3408 12.6267 97.0142 12.1867 96.5875 11.88C96.1608 11.56 95.6675 11.4 95.1075 11.4C94.5475 11.4 94.0542 11.56 93.6275 11.88C93.2142 12.1867 92.8875 12.6267 92.6475 13.2C92.4208 13.76 92.3075 14.4133 92.3075 15.16C92.3075 15.8933 92.4208 16.54 92.6475 17.1C92.8875 17.66 93.2142 18.1 93.6275 18.42C94.0542 18.7267 94.5475 18.88 95.1075 18.88ZM105.487 20.24C104.261 20.24 103.281 19.8 102.547 18.92C101.827 18.0267 101.467 16.7733 101.467 15.16C101.467 14.1067 101.661 13.2 102.047 12.44C102.447 11.6667 102.967 11.0733 103.607 10.66C104.247 10.2467 104.941 10.04 105.687 10.04C106.261 10.04 106.747 10.14 107.147 10.34C107.561 10.5267 107.981 10.8 108.407 11.16L108.327 9.5V5.76H109.987V20H108.627L108.487 18.86H108.427C108.054 19.2333 107.614 19.56 107.107 19.84C106.601 20.1067 106.061 20.24 105.487 20.24ZM105.847 18.86C106.301 18.86 106.727 18.7467 107.127 18.52C107.527 18.2933 107.927 17.96 108.327 17.52V12.44C107.927 12.0667 107.534 11.8067 107.147 11.66C106.761 11.5 106.367 11.42 105.967 11.42C105.447 11.42 104.974 11.58 104.547 11.9C104.134 12.2067 103.801 12.64 103.547 13.2C103.294 13.7467 103.167 14.3933 103.167 15.14C103.167 16.3 103.401 17.2133 103.867 17.88C104.334 18.5333 104.994 18.86 105.847 18.86ZM116.101 20.24C115.074 20.24 114.321 19.92 113.841 19.28C113.374 18.6267 113.141 17.68 113.141 16.44V10.28H114.781V16.22C114.781 17.1267 114.921 17.7867 115.201 18.2C115.494 18.6 115.961 18.8 116.601 18.8C117.094 18.8 117.534 18.6733 117.921 18.42C118.321 18.1533 118.754 17.74 119.221 17.18V10.28H120.861V20H119.501L119.361 18.48H119.301C118.861 19.0133 118.381 19.44 117.861 19.76C117.354 20.08 116.768 20.24 116.101 20.24ZM128 20.24C127.133 20.24 126.353 20.04 125.66 19.64C124.967 19.24 124.42 18.66 124.02 17.9C123.62 17.14 123.42 16.2267 123.42 15.16C123.42 14.0667 123.633 13.14 124.06 12.38C124.5 11.62 125.073 11.04 125.78 10.64C126.5 10.24 127.273 10.04 128.1 10.04C128.74 10.04 129.287 10.1467 129.74 10.36C130.207 10.5733 130.607 10.8467 130.94 11.18L130.12 12.2C129.88 11.96 129.593 11.7733 129.26 11.64C128.94 11.4933 128.573 11.42 128.16 11.42C127.587 11.42 127.067 11.58 126.6 11.9C126.147 12.2067 125.787 12.64 125.52 13.2C125.253 13.76 125.12 14.4133 125.12 15.16C125.12 15.8933 125.247 16.54 125.5 17.1C125.753 17.66 126.107 18.1 126.56 18.42C127.013 18.7267 127.54 18.88 128.14 18.88C128.593 18.88 129.013 18.7933 129.4 18.62C129.787 18.4467 130.12 18.2267 130.4 17.96L131.12 18.96C130.707 19.3467 130.24 19.66 129.72 19.9C129.2 20.1267 128.627 20.24 128 20.24ZM136.126 20.18C135.099 20.18 134.379 19.88 133.966 19.28C133.552 18.68 133.346 17.9 133.346 16.94V11.62H131.906V10.38L133.426 10.28L133.626 7.16H135.006V10.28H137.646V11.62H135.006V16.96C135.006 17.5467 135.112 18.0067 135.326 18.34C135.552 18.6733 135.946 18.84 136.506 18.84C136.679 18.84 136.859 18.8267 137.046 18.8C137.232 18.76 137.419 18.6933 137.606 18.6L137.966 19.76C137.712 19.88 137.426 19.98 137.106 20.06C136.786 20.14 136.459 20.18 136.126 20.18ZM139.824 20V10.28H141.464V20H139.824ZM140.644 8.28C140.324 8.28 140.057 8.18 139.844 7.98C139.644 7.78 139.544 7.52 139.544 7.2C139.544 6.88 139.644 6.62 139.844 6.42C140.057 6.22 140.324 6.12 140.644 6.12C140.964 6.12 141.224 6.22 141.424 6.42C141.637 6.62 141.744 6.88 141.744 7.2C141.744 7.52 141.637 7.78 141.424 7.98C141.224 8.18 140.964 8.28 140.644 8.28ZM148.525 20.24C147.739 20.24 146.999 20.04 146.305 19.64C145.625 19.24 145.072 18.66 144.645 17.9C144.232 17.14 144.025 16.2267 144.025 15.16C144.025 14.0667 144.232 13.14 144.645 12.38C145.072 11.62 145.625 11.04 146.305 10.64C146.999 10.24 147.739 10.04 148.525 10.04C149.325 10.04 150.065 10.24 150.745 10.64C151.425 11.04 151.972 11.62 152.385 12.38C152.812 13.14 153.025 14.0667 153.025 15.16C153.025 16.2267 152.812 17.14 152.385 17.9C151.972 18.66 151.425 19.24 150.745 19.64C150.065 20.04 149.325 20.24 148.525 20.24ZM148.525 18.88C149.085 18.88 149.579 18.7267 150.005 18.42C150.432 18.1 150.759 17.66 150.985 17.1C151.212 16.54 151.325 15.8933 151.325 15.16C151.325 14.4133 151.212 13.76 150.985 13.2C150.759 12.6267 150.432 12.1867 150.005 11.88C149.579 11.56 149.085 11.4 148.525 11.4C147.965 11.4 147.472 11.56 147.045 11.88C146.632 12.1867 146.305 12.6267 146.065 13.2C145.839 13.76 145.725 14.4133 145.725 15.16C145.725 15.8933 145.839 16.54 146.065 17.1C146.305 17.66 146.632 18.1 147.045 18.42C147.472 18.7267 147.965 18.88 148.525 18.88ZM155.585 20V10.28H156.945L157.085 11.68H157.145C157.612 11.2133 158.105 10.8267 158.625 10.52C159.145 10.2 159.739 10.04 160.405 10.04C161.432 10.04 162.179 10.3667 162.645 11.02C163.125 11.66 163.365 12.6 163.365 13.84V20H161.725V14.06C161.725 13.14 161.579 12.48 161.285 12.08C161.005 11.6667 160.539 11.46 159.885 11.46C159.392 11.46 158.945 11.5867 158.545 11.84C158.159 12.0933 157.719 12.4667 157.225 12.96V20H155.585Z" fill="#C92B1D"/>
<line y1="17.5" x2="48" y2="17.5" stroke="#C92B1D"/>
</svg>
