<svg width="283" height="28" viewBox="0 0 283 28" fill="none" xmlns="http://www.w3.org/2000/svg">
<path d="M66.78 20.24C65.6867 20.24 64.7 19.9733 63.82 19.44C62.9533 18.8933 62.2733 18.1133 61.78 17.1C61.2867 16.0867 61.04 14.8667 61.04 13.44C61.04 12.3867 61.18 11.44 61.46 10.6C61.7533 9.76 62.1667 9.04667 62.7 8.46C63.2333 7.86 63.8467 7.40667 64.54 7.1C65.2467 6.79333 66.02 6.64 66.86 6.64C67.6467 6.64 68.3467 6.8 68.96 7.12C69.5867 7.44 70.0867 7.82 70.46 8.26L69.56 9.28C69.2133 8.90667 68.8133 8.62 68.36 8.42C67.92 8.20667 67.4267 8.1 66.88 8.1C66.0667 8.1 65.3467 8.32 64.72 8.76C64.1067 9.18667 63.6267 9.8 63.28 10.6C62.9333 11.3867 62.76 12.32 62.76 13.4C62.76 14.5067 62.9267 15.46 63.26 16.26C63.5933 17.06 64.0733 17.68 64.7 18.12C65.3267 18.5467 66.06 18.76 66.9 18.76C67.5133 18.76 68.06 18.6467 68.54 18.42C69.0333 18.18 69.48 17.8333 69.88 17.38L70.76 18.36C70.24 18.96 69.66 19.4267 69.02 19.76C68.38 20.08 67.6333 20.24 66.78 20.24ZM76.8458 20.24C76.0591 20.24 75.3191 20.04 74.6258 19.64C73.9458 19.24 73.3924 18.66 72.9658 17.9C72.5524 17.14 72.3458 16.2267 72.3458 15.16C72.3458 14.0667 72.5524 13.14 72.9658 12.38C73.3924 11.62 73.9458 11.04 74.6258 10.64C75.3191 10.24 76.0591 10.04 76.8458 10.04C77.6458 10.04 78.3858 10.24 79.0658 10.64C79.7458 11.04 80.2924 11.62 80.7058 12.38C81.1324 13.14 81.3458 14.0667 81.3458 15.16C81.3458 16.2267 81.1324 17.14 80.7058 17.9C80.2924 18.66 79.7458 19.24 79.0658 19.64C78.3858 20.04 77.6458 20.24 76.8458 20.24ZM76.8458 18.88C77.4058 18.88 77.8991 18.7267 78.3258 18.42C78.7524 18.1 79.0791 17.66 79.3058 17.1C79.5324 16.54 79.6458 15.8933 79.6458 15.16C79.6458 14.4133 79.5324 13.76 79.3058 13.2C79.0791 12.6267 78.7524 12.1867 78.3258 11.88C77.8991 11.56 77.4058 11.4 76.8458 11.4C76.2858 11.4 75.7924 11.56 75.3658 11.88C74.9524 12.1867 74.6258 12.6267 74.3858 13.2C74.1591 13.76 74.0458 14.4133 74.0458 15.16C74.0458 15.8933 74.1591 16.54 74.3858 17.1C74.6258 17.66 74.9524 18.1 75.3658 18.42C75.7924 18.7267 76.2858 18.88 76.8458 18.88ZM83.9056 20V10.28H85.2656L85.4056 11.68H85.4656C85.9323 11.2133 86.4256 10.8267 86.9456 10.52C87.4656 10.2 88.059 10.04 88.7256 10.04C89.7523 10.04 90.499 10.3667 90.9656 11.02C91.4456 11.66 91.6856 12.6 91.6856 13.84V20H90.0456V14.06C90.0456 13.14 89.899 12.48 89.6056 12.08C89.3256 11.6667 88.859 11.46 88.2056 11.46C87.7123 11.46 87.2656 11.5867 86.8656 11.84C86.479 12.0933 86.039 12.4667 85.5456 12.96V20H83.9056ZM98.7031 20.24C97.8365 20.24 97.0565 20.04 96.3631 19.64C95.6698 19.24 95.1231 18.66 94.7231 17.9C94.3231 17.14 94.1231 16.2267 94.1231 15.16C94.1231 14.0667 94.3365 13.14 94.7631 12.38C95.2031 11.62 95.7765 11.04 96.4831 10.64C97.2031 10.24 97.9765 10.04 98.8031 10.04C99.4431 10.04 99.9898 10.1467 100.443 10.36C100.91 10.5733 101.31 10.8467 101.643 11.18L100.823 12.2C100.583 11.96 100.296 11.7733 99.9631 11.64C99.6431 11.4933 99.2765 11.42 98.8631 11.42C98.2898 11.42 97.7698 11.58 97.3031 11.9C96.8498 12.2067 96.4898 12.64 96.2231 13.2C95.9565 13.76 95.8231 14.4133 95.8231 15.16C95.8231 15.8933 95.9498 16.54 96.2031 17.1C96.4565 17.66 96.8098 18.1 97.2631 18.42C97.7165 18.7267 98.2431 18.88 98.8431 18.88C99.2965 18.88 99.7165 18.7933 100.103 18.62C100.49 18.4467 100.823 18.2267 101.103 17.96L101.823 18.96C101.41 19.3467 100.943 19.66 100.423 19.9C99.9031 20.1267 99.3298 20.24 98.7031 20.24ZM105.704 20.18C105.291 20.18 104.958 20.1 104.704 19.94C104.451 19.7667 104.264 19.52 104.144 19.2C104.024 18.8667 103.964 18.4667 103.964 18V5.76H105.604V18.12C105.604 18.3867 105.651 18.5733 105.744 18.68C105.838 18.7733 105.951 18.82 106.084 18.82C106.138 18.82 106.184 18.82 106.224 18.82C106.278 18.8067 106.344 18.7933 106.424 18.78L106.664 20.02C106.544 20.06 106.404 20.0933 106.244 20.12C106.098 20.16 105.918 20.18 105.704 20.18ZM111.902 20.24C110.875 20.24 110.122 19.92 109.642 19.28C109.175 18.6267 108.942 17.68 108.942 16.44V10.28H110.582V16.22C110.582 17.1267 110.722 17.7867 111.002 18.2C111.295 18.6 111.762 18.8 112.402 18.8C112.895 18.8 113.335 18.6733 113.722 18.42C114.122 18.1533 114.555 17.74 115.022 17.18V10.28H116.662V20H115.302L115.162 18.48H115.102C114.662 19.0133 114.182 19.44 113.662 19.76C113.155 20.08 112.569 20.24 111.902 20.24ZM122.481 20.24C121.774 20.24 121.101 20.12 120.461 19.88C119.834 19.6267 119.301 19.28 118.861 18.84L119.621 17.88C120.047 18.2267 120.487 18.4933 120.941 18.68C121.407 18.8667 121.941 18.96 122.541 18.96C123.181 18.96 123.661 18.8133 123.981 18.52C124.301 18.2133 124.461 17.8533 124.461 17.44C124.461 17.1067 124.347 16.8333 124.121 16.62C123.907 16.3933 123.634 16.2067 123.301 16.06C122.981 15.9 122.634 15.7533 122.261 15.62C121.781 15.4467 121.321 15.2467 120.881 15.02C120.441 14.78 120.081 14.4867 119.801 14.14C119.534 13.78 119.401 13.3333 119.401 12.8C119.401 12.0133 119.694 11.36 120.281 10.84C120.881 10.3067 121.707 10.04 122.761 10.04C123.361 10.04 123.921 10.1467 124.441 10.36C124.961 10.56 125.407 10.82 125.781 11.14L125.021 12.08C124.674 11.84 124.321 11.6533 123.961 11.52C123.601 11.3867 123.201 11.32 122.761 11.32C122.147 11.32 121.694 11.46 121.401 11.74C121.121 12.02 120.981 12.3467 120.981 12.72C120.981 13.0133 121.067 13.26 121.241 13.46C121.414 13.6467 121.654 13.8133 121.961 13.96C122.281 14.1067 122.641 14.2467 123.041 14.38C123.547 14.5667 124.027 14.78 124.481 15.02C124.947 15.2467 125.321 15.5467 125.601 15.92C125.894 16.28 126.041 16.7533 126.041 17.34C126.041 17.8733 125.901 18.36 125.621 18.8C125.354 19.2267 124.954 19.5733 124.421 19.84C123.901 20.1067 123.254 20.24 122.481 20.24ZM128.32 20V10.28H129.96V20H128.32ZM129.14 8.28C128.82 8.28 128.553 8.18 128.34 7.98C128.14 7.78 128.04 7.52 128.04 7.2C128.04 6.88 128.14 6.62 128.34 6.42C128.553 6.22 128.82 6.12 129.14 6.12C129.46 6.12 129.72 6.22 129.92 6.42C130.133 6.62 130.24 6.88 130.24 7.2C130.24 7.52 130.133 7.78 129.92 7.98C129.72 8.18 129.46 8.28 129.14 8.28ZM137.022 20.24C136.235 20.24 135.495 20.04 134.802 19.64C134.122 19.24 133.568 18.66 133.142 17.9C132.728 17.14 132.522 16.2267 132.522 15.16C132.522 14.0667 132.728 13.14 133.142 12.38C133.568 11.62 134.122 11.04 134.802 10.64C135.495 10.24 136.235 10.04 137.022 10.04C137.822 10.04 138.562 10.24 139.242 10.64C139.922 11.04 140.468 11.62 140.882 12.38C141.308 13.14 141.522 14.0667 141.522 15.16C141.522 16.2267 141.308 17.14 140.882 17.9C140.468 18.66 139.922 19.24 139.242 19.64C138.562 20.04 137.822 20.24 137.022 20.24ZM137.022 18.88C137.582 18.88 138.075 18.7267 138.502 18.42C138.928 18.1 139.255 17.66 139.482 17.1C139.708 16.54 139.822 15.8933 139.822 15.16C139.822 14.4133 139.708 13.76 139.482 13.2C139.255 12.6267 138.928 12.1867 138.502 11.88C138.075 11.56 137.582 11.4 137.022 11.4C136.462 11.4 135.968 11.56 135.542 11.88C135.128 12.1867 134.802 12.6267 134.562 13.2C134.335 13.76 134.222 14.4133 134.222 15.16C134.222 15.8933 134.335 16.54 134.562 17.1C134.802 17.66 135.128 18.1 135.542 18.42C135.968 18.7267 136.462 18.88 137.022 18.88ZM144.081 20V10.28H145.441L145.581 11.68H145.641C146.108 11.2133 146.601 10.8267 147.121 10.52C147.641 10.2 148.235 10.04 148.901 10.04C149.928 10.04 150.675 10.3667 151.141 11.02C151.621 11.66 151.861 12.6 151.861 13.84V20H150.221V14.06C150.221 13.14 150.075 12.48 149.781 12.08C149.501 11.6667 149.035 11.46 148.381 11.46C147.888 11.46 147.441 11.5867 147.041 11.84C146.655 12.0933 146.215 12.4667 145.721 12.96V20H144.081ZM161.263 20.24C160.729 20.24 160.243 20.1333 159.803 19.92C159.376 19.6933 159.036 19.38 158.783 18.98C158.529 18.5667 158.403 18.0667 158.403 17.48C158.403 16.3867 158.883 15.56 159.843 15C160.803 14.44 162.323 14.0467 164.403 13.82C164.389 13.42 164.323 13.0333 164.203 12.66C164.096 12.2867 163.896 11.9867 163.603 11.76C163.309 11.5333 162.903 11.42 162.383 11.42C161.823 11.42 161.296 11.5267 160.803 11.74C160.309 11.94 159.869 12.1667 159.483 12.42L158.843 11.3C159.136 11.1 159.483 10.9067 159.883 10.72C160.283 10.52 160.716 10.36 161.183 10.24C161.649 10.1067 162.143 10.04 162.663 10.04C163.449 10.04 164.089 10.2067 164.583 10.54C165.089 10.86 165.456 11.32 165.683 11.92C165.923 12.52 166.043 13.2267 166.043 14.04V20H164.683L164.543 18.84H164.483C164.016 19.2267 163.516 19.56 162.983 19.84C162.449 20.1067 161.876 20.24 161.263 20.24ZM161.723 18.88C162.203 18.88 162.649 18.7733 163.063 18.56C163.489 18.3467 163.936 18.0333 164.403 17.62V15C163.309 15.1333 162.443 15.3067 161.803 15.52C161.176 15.72 160.723 15.9733 160.443 16.28C160.163 16.5867 160.023 16.9533 160.023 17.38C160.023 17.9133 160.189 18.3 160.523 18.54C160.856 18.7667 161.256 18.88 161.723 18.88ZM169.101 20V10.28H170.461L170.601 11.68H170.661C171.128 11.2133 171.621 10.8267 172.141 10.52C172.661 10.2 173.254 10.04 173.921 10.04C174.948 10.04 175.694 10.3667 176.161 11.02C176.641 11.66 176.881 12.6 176.881 13.84V20H175.241V14.06C175.241 13.14 175.094 12.48 174.801 12.08C174.521 11.6667 174.054 11.46 173.401 11.46C172.908 11.46 172.461 11.5867 172.061 11.84C171.674 12.0933 171.234 12.4667 170.741 12.96V20H169.101ZM183.358 20.24C182.132 20.24 181.152 19.8 180.418 18.92C179.698 18.0267 179.338 16.7733 179.338 15.16C179.338 14.1067 179.532 13.2 179.918 12.44C180.318 11.6667 180.838 11.0733 181.478 10.66C182.118 10.2467 182.812 10.04 183.558 10.04C184.132 10.04 184.618 10.14 185.018 10.34C185.432 10.5267 185.852 10.8 186.278 11.16L186.198 9.5V5.76H187.858V20H186.498L186.358 18.86H186.298C185.925 19.2333 185.485 19.56 184.978 19.84C184.472 20.1067 183.932 20.24 183.358 20.24ZM183.718 18.86C184.172 18.86 184.598 18.7467 184.998 18.52C185.398 18.2933 185.798 17.96 186.198 17.52V12.44C185.798 12.0667 185.405 11.8067 185.018 11.66C184.632 11.5 184.238 11.42 183.838 11.42C183.318 11.42 182.845 11.58 182.418 11.9C182.005 12.2067 181.672 12.64 181.418 13.2C181.165 13.7467 181.038 14.3933 181.038 15.14C181.038 16.3 181.272 17.2133 181.738 17.88C182.205 18.5333 182.865 18.86 183.718 18.86ZM195.296 20V6.88H198.576C199.923 6.88 201.056 7.13333 201.976 7.64C202.896 8.14667 203.589 8.88667 204.056 9.86C204.536 10.82 204.776 11.9933 204.776 13.38C204.776 14.7667 204.536 15.96 204.056 16.96C203.589 17.9467 202.903 18.7 201.996 19.22C201.089 19.74 199.976 20 198.656 20H195.296ZM196.956 18.64H198.456C199.483 18.64 200.336 18.4333 201.016 18.02C201.696 17.5933 202.203 16.9933 202.536 16.22C202.869 15.4467 203.036 14.5 203.036 13.38C203.036 12.2867 202.869 11.3533 202.536 10.58C202.203 9.80667 201.696 9.22667 201.016 8.84C200.336 8.44 199.483 8.24 198.456 8.24H196.956V18.64ZM207.441 20V10.28H209.081V20H207.441ZM208.261 8.28C207.941 8.28 207.674 8.18 207.461 7.98C207.261 7.78 207.161 7.52 207.161 7.2C207.161 6.88 207.261 6.62 207.461 6.42C207.674 6.22 207.941 6.12 208.261 6.12C208.581 6.12 208.841 6.22 209.041 6.42C209.254 6.62 209.361 6.88 209.361 7.2C209.361 7.52 209.254 7.78 209.041 7.98C208.841 8.18 208.581 8.28 208.261 8.28ZM214.903 20.24C214.196 20.24 213.523 20.12 212.883 19.88C212.256 19.6267 211.723 19.28 211.283 18.84L212.043 17.88C212.469 18.2267 212.909 18.4933 213.363 18.68C213.829 18.8667 214.363 18.96 214.963 18.96C215.603 18.96 216.083 18.8133 216.403 18.52C216.723 18.2133 216.883 17.8533 216.883 17.44C216.883 17.1067 216.769 16.8333 216.543 16.62C216.329 16.3933 216.056 16.2067 215.723 16.06C215.403 15.9 215.056 15.7533 214.683 15.62C214.203 15.4467 213.743 15.2467 213.303 15.02C212.863 14.78 212.503 14.4867 212.223 14.14C211.956 13.78 211.823 13.3333 211.823 12.8C211.823 12.0133 212.116 11.36 212.703 10.84C213.303 10.3067 214.129 10.04 215.183 10.04C215.783 10.04 216.343 10.1467 216.863 10.36C217.383 10.56 217.829 10.82 218.203 11.14L217.443 12.08C217.096 11.84 216.743 11.6533 216.383 11.52C216.023 11.3867 215.623 11.32 215.183 11.32C214.569 11.32 214.116 11.46 213.823 11.74C213.543 12.02 213.403 12.3467 213.403 12.72C213.403 13.0133 213.489 13.26 213.663 13.46C213.836 13.6467 214.076 13.8133 214.383 13.96C214.703 14.1067 215.063 14.2467 215.463 14.38C215.969 14.5667 216.449 14.78 216.903 15.02C217.369 15.2467 217.743 15.5467 218.023 15.92C218.316 16.28 218.463 16.7533 218.463 17.34C218.463 17.8733 218.323 18.36 218.043 18.8C217.776 19.2267 217.376 19.5733 216.843 19.84C216.323 20.1067 215.676 20.24 214.903 20.24ZM224.602 20.24C223.735 20.24 222.955 20.04 222.262 19.64C221.568 19.24 221.022 18.66 220.622 17.9C220.222 17.14 220.022 16.2267 220.022 15.16C220.022 14.0667 220.235 13.14 220.662 12.38C221.102 11.62 221.675 11.04 222.382 10.64C223.102 10.24 223.875 10.04 224.702 10.04C225.342 10.04 225.888 10.1467 226.342 10.36C226.808 10.5733 227.208 10.8467 227.542 11.18L226.722 12.2C226.482 11.96 226.195 11.7733 225.862 11.64C225.542 11.4933 225.175 11.42 224.762 11.42C224.188 11.42 223.668 11.58 223.202 11.9C222.748 12.2067 222.388 12.64 222.122 13.2C221.855 13.76 221.722 14.4133 221.722 15.16C221.722 15.8933 221.848 16.54 222.102 17.1C222.355 17.66 222.708 18.1 223.162 18.42C223.615 18.7267 224.142 18.88 224.742 18.88C225.195 18.88 225.615 18.7933 226.002 18.62C226.388 18.4467 226.722 18.2267 227.002 17.96L227.722 18.96C227.308 19.3467 226.842 19.66 226.322 19.9C225.802 20.1267 225.228 20.24 224.602 20.24ZM232.703 20.24C231.676 20.24 230.923 19.92 230.443 19.28C229.976 18.6267 229.743 17.68 229.743 16.44V10.28H231.383V16.22C231.383 17.1267 231.523 17.7867 231.803 18.2C232.096 18.6 232.563 18.8 233.203 18.8C233.696 18.8 234.136 18.6733 234.523 18.42C234.923 18.1533 235.356 17.74 235.823 17.18V10.28H237.463V20H236.103L235.963 18.48H235.903C235.463 19.0133 234.983 19.44 234.463 19.76C233.956 20.08 233.369 20.24 232.703 20.24ZM243.282 20.24C242.575 20.24 241.902 20.12 241.262 19.88C240.635 19.6267 240.102 19.28 239.662 18.84L240.422 17.88C240.848 18.2267 241.288 18.4933 241.742 18.68C242.208 18.8667 242.742 18.96 243.342 18.96C243.982 18.96 244.462 18.8133 244.782 18.52C245.102 18.2133 245.262 17.8533 245.262 17.44C245.262 17.1067 245.148 16.8333 244.922 16.62C244.708 16.3933 244.435 16.2067 244.102 16.06C243.782 15.9 243.435 15.7533 243.062 15.62C242.582 15.4467 242.122 15.2467 241.682 15.02C241.242 14.78 240.882 14.4867 240.602 14.14C240.335 13.78 240.202 13.3333 240.202 12.8C240.202 12.0133 240.495 11.36 241.082 10.84C241.682 10.3067 242.508 10.04 243.562 10.04C244.162 10.04 244.722 10.1467 245.242 10.36C245.762 10.56 246.208 10.82 246.582 11.14L245.822 12.08C245.475 11.84 245.122 11.6533 244.762 11.52C244.402 11.3867 244.002 11.32 243.562 11.32C242.948 11.32 242.495 11.46 242.202 11.74C241.922 12.02 241.782 12.3467 241.782 12.72C241.782 13.0133 241.868 13.26 242.042 13.46C242.215 13.6467 242.455 13.8133 242.762 13.96C243.082 14.1067 243.442 14.2467 243.842 14.38C244.348 14.5667 244.828 14.78 245.282 15.02C245.748 15.2467 246.122 15.5467 246.402 15.92C246.695 16.28 246.842 16.7533 246.842 17.34C246.842 17.8733 246.702 18.36 246.422 18.8C246.155 19.2267 245.755 19.5733 245.222 19.84C244.702 20.1067 244.055 20.24 243.282 20.24ZM251.66 20.24C250.954 20.24 250.28 20.12 249.64 19.88C249.014 19.6267 248.48 19.28 248.04 18.84L248.8 17.88C249.227 18.2267 249.667 18.4933 250.12 18.68C250.587 18.8667 251.12 18.96 251.72 18.96C252.36 18.96 252.84 18.8133 253.16 18.52C253.48 18.2133 253.64 17.8533 253.64 17.44C253.64 17.1067 253.527 16.8333 253.3 16.62C253.087 16.3933 252.814 16.2067 252.48 16.06C252.16 15.9 251.814 15.7533 251.44 15.62C250.96 15.4467 250.5 15.2467 250.06 15.02C249.62 14.78 249.26 14.4867 248.98 14.14C248.714 13.78 248.58 13.3333 248.58 12.8C248.58 12.0133 248.874 11.36 249.46 10.84C250.06 10.3067 250.887 10.04 251.94 10.04C252.54 10.04 253.1 10.1467 253.62 10.36C254.14 10.56 254.587 10.82 254.96 11.14L254.2 12.08C253.854 11.84 253.5 11.6533 253.14 11.52C252.78 11.3867 252.38 11.32 251.94 11.32C251.327 11.32 250.874 11.46 250.58 11.74C250.3 12.02 250.16 12.3467 250.16 12.72C250.16 13.0133 250.247 13.26 250.42 13.46C250.594 13.6467 250.834 13.8133 251.14 13.96C251.46 14.1067 251.82 14.2467 252.22 14.38C252.727 14.5667 253.207 14.78 253.66 15.02C254.127 15.2467 254.5 15.5467 254.78 15.92C255.074 16.28 255.22 16.7533 255.22 17.34C255.22 17.8733 255.08 18.36 254.8 18.8C254.534 19.2267 254.134 19.5733 253.6 19.84C253.08 20.1067 252.434 20.24 251.66 20.24ZM257.499 20V10.28H259.139V20H257.499ZM258.319 8.28C257.999 8.28 257.733 8.18 257.519 7.98C257.319 7.78 257.219 7.52 257.219 7.2C257.219 6.88 257.319 6.62 257.519 6.42C257.733 6.22 257.999 6.12 258.319 6.12C258.639 6.12 258.899 6.22 259.099 6.42C259.313 6.62 259.419 6.88 259.419 7.2C259.419 7.52 259.313 7.78 259.099 7.98C258.899 8.18 258.639 8.28 258.319 8.28ZM266.201 20.24C265.415 20.24 264.675 20.04 263.981 19.64C263.301 19.24 262.748 18.66 262.321 17.9C261.908 17.14 261.701 16.2267 261.701 15.16C261.701 14.0667 261.908 13.14 262.321 12.38C262.748 11.62 263.301 11.04 263.981 10.64C264.675 10.24 265.415 10.04 266.201 10.04C267.001 10.04 267.741 10.24 268.421 10.64C269.101 11.04 269.648 11.62 270.061 12.38C270.488 13.14 270.701 14.0667 270.701 15.16C270.701 16.2267 270.488 17.14 270.061 17.9C269.648 18.66 269.101 19.24 268.421 19.64C267.741 20.04 267.001 20.24 266.201 20.24ZM266.201 18.88C266.761 18.88 267.255 18.7267 267.681 18.42C268.108 18.1 268.435 17.66 268.661 17.1C268.888 16.54 269.001 15.8933 269.001 15.16C269.001 14.4133 268.888 13.76 268.661 13.2C268.435 12.6267 268.108 12.1867 267.681 11.88C267.255 11.56 266.761 11.4 266.201 11.4C265.641 11.4 265.148 11.56 264.721 11.88C264.308 12.1867 263.981 12.6267 263.741 13.2C263.515 13.76 263.401 14.4133 263.401 15.16C263.401 15.8933 263.515 16.54 263.741 17.1C263.981 17.66 264.308 18.1 264.721 18.42C265.148 18.7267 265.641 18.88 266.201 18.88ZM273.261 20V10.28H274.621L274.761 11.68H274.821C275.288 11.2133 275.781 10.8267 276.301 10.52C276.821 10.2 277.414 10.04 278.081 10.04C279.108 10.04 279.854 10.3667 280.321 11.02C280.801 11.66 281.041 12.6 281.041 13.84V20H279.401V14.06C279.401 13.14 279.254 12.48 278.961 12.08C278.681 11.6667 278.214 11.46 277.561 11.46C277.068 11.46 276.621 11.5867 276.221 11.84C275.834 12.0933 275.394 12.4667 274.901 12.96V20H273.261Z" fill="#C92B1D"/>
<line y1="17.5" x2="48" y2="17.5" stroke="#C92B1D"/>
</svg>
