<svg width="215" height="28" viewBox="0 0 215 28" fill="none" xmlns="http://www.w3.org/2000/svg">
<path d="M60.06 20L64.5 6.88H66.38L70.82 20H69.06L66.76 12.66C66.52 11.9267 66.2933 11.2 66.08 10.48C65.8667 9.74667 65.6533 9 65.44 8.24H65.36C65.16 9 64.9533 9.74667 64.74 10.48C64.5267 11.2 64.3 11.9267 64.06 12.66L61.74 20H60.06ZM62.38 16V14.68H68.44V16H62.38ZM76.3594 20.24C75.4927 20.24 74.7127 20.04 74.0194 19.64C73.326 19.24 72.7794 18.66 72.3794 17.9C71.9794 17.14 71.7794 16.2267 71.7794 15.16C71.7794 14.0667 71.9927 13.14 72.4194 12.38C72.8594 11.62 73.4327 11.04 74.1394 10.64C74.8594 10.24 75.6327 10.04 76.4594 10.04C77.0994 10.04 77.646 10.1467 78.0994 10.36C78.566 10.5733 78.966 10.8467 79.2994 11.18L78.4794 12.2C78.2394 11.96 77.9527 11.7733 77.6194 11.64C77.2994 11.4933 76.9327 11.42 76.5194 11.42C75.946 11.42 75.426 11.58 74.9594 11.9C74.506 12.2067 74.146 12.64 73.8794 13.2C73.6127 13.76 73.4794 14.4133 73.4794 15.16C73.4794 15.8933 73.606 16.54 73.8594 17.1C74.1127 17.66 74.466 18.1 74.9194 18.42C75.3727 18.7267 75.8994 18.88 76.4994 18.88C76.9527 18.88 77.3727 18.7933 77.7594 18.62C78.146 18.4467 78.4794 18.2267 78.7594 17.96L79.4794 18.96C79.066 19.3467 78.5994 19.66 78.0794 19.9C77.5594 20.1267 76.986 20.24 76.3594 20.24ZM81.6205 20V5.76H83.2605V15.38H83.3005L87.4205 10.28H89.2605L86.0205 14.2L89.7005 20H87.9005L85.0605 15.32L83.2605 17.44V20H81.6205ZM91.5228 20V10.28H92.8828L93.0228 11.68H93.0828C93.5495 11.2133 94.0428 10.8267 94.5628 10.52C95.0828 10.2 95.6761 10.04 96.3428 10.04C97.3695 10.04 98.1161 10.3667 98.5828 11.02C99.0628 11.66 99.3028 12.6 99.3028 13.84V20H97.6628V14.06C97.6628 13.14 97.5161 12.48 97.2228 12.08C96.9428 11.6667 96.4761 11.46 95.8228 11.46C95.3295 11.46 94.8828 11.5867 94.4828 11.84C94.0961 12.0933 93.6561 12.4667 93.1628 12.96V20H91.5228ZM106.24 20.24C105.454 20.24 104.714 20.04 104.02 19.64C103.34 19.24 102.787 18.66 102.36 17.9C101.947 17.14 101.74 16.2267 101.74 15.16C101.74 14.0667 101.947 13.14 102.36 12.38C102.787 11.62 103.34 11.04 104.02 10.64C104.714 10.24 105.454 10.04 106.24 10.04C107.04 10.04 107.78 10.24 108.46 10.64C109.14 11.04 109.687 11.62 110.1 12.38C110.527 13.14 110.74 14.0667 110.74 15.16C110.74 16.2267 110.527 17.14 110.1 17.9C109.687 18.66 109.14 19.24 108.46 19.64C107.78 20.04 107.04 20.24 106.24 20.24ZM106.24 18.88C106.8 18.88 107.294 18.7267 107.72 18.42C108.147 18.1 108.474 17.66 108.7 17.1C108.927 16.54 109.04 15.8933 109.04 15.16C109.04 14.4133 108.927 13.76 108.7 13.2C108.474 12.6267 108.147 12.1867 107.72 11.88C107.294 11.56 106.8 11.4 106.24 11.4C105.68 11.4 105.187 11.56 104.76 11.88C104.347 12.1867 104.02 12.6267 103.78 13.2C103.554 13.76 103.44 14.4133 103.44 15.16C103.44 15.8933 103.554 16.54 103.78 17.1C104.02 17.66 104.347 18.1 104.76 18.42C105.187 18.7267 105.68 18.88 106.24 18.88ZM114.762 20L112.062 10.28H113.782L115.202 15.9C115.309 16.34 115.409 16.78 115.502 17.22C115.595 17.66 115.682 18.14 115.762 18.66H115.842C115.949 18.14 116.049 17.66 116.142 17.22C116.249 16.78 116.355 16.34 116.462 15.9L117.902 10.28H119.702L121.162 15.9C121.282 16.34 121.389 16.78 121.482 17.22C121.589 17.66 121.695 18.14 121.802 18.66H121.882C121.989 18.14 122.089 17.66 122.182 17.22C122.275 16.78 122.369 16.34 122.462 15.9L123.882 10.28H125.482L122.862 20H120.722L119.422 14.8C119.315 14.3467 119.209 13.9 119.102 13.46C119.009 13.0067 118.909 12.4933 118.802 11.92H118.722C118.629 12.4933 118.529 13.0067 118.422 13.46C118.329 13.9133 118.222 14.36 118.102 14.8L116.802 20H114.762ZM129.337 20.18C128.924 20.18 128.59 20.1 128.337 19.94C128.084 19.7667 127.897 19.52 127.777 19.2C127.657 18.8667 127.597 18.4667 127.597 18V5.76H129.237V18.12C129.237 18.3867 129.284 18.5733 129.377 18.68C129.47 18.7733 129.584 18.82 129.717 18.82C129.77 18.82 129.817 18.82 129.857 18.82C129.91 18.8067 129.977 18.7933 130.057 18.78L130.297 20.02C130.177 20.06 130.037 20.0933 129.877 20.12C129.73 20.16 129.55 20.18 129.337 20.18ZM136.635 20.24C135.768 20.24 134.975 20.04 134.255 19.64C133.548 19.2267 132.988 18.6467 132.575 17.9C132.161 17.14 131.955 16.22 131.955 15.14C131.955 14.0867 132.168 13.18 132.595 12.42C133.021 11.66 133.568 11.0733 134.235 10.66C134.901 10.2467 135.608 10.04 136.355 10.04C137.181 10.04 137.881 10.2333 138.455 10.62C139.041 10.9933 139.481 11.52 139.775 12.2C140.068 12.88 140.215 13.68 140.215 14.6C140.215 14.7733 140.208 14.94 140.195 15.1C140.195 15.26 140.175 15.42 140.135 15.58H133.135V14.28H138.735C138.735 13.3467 138.528 12.6333 138.115 12.14C137.715 11.6333 137.135 11.38 136.375 11.38C135.935 11.38 135.501 11.5067 135.075 11.76C134.648 12 134.295 12.3933 134.015 12.94C133.748 13.4867 133.615 14.2133 133.615 15.12C133.615 15.9467 133.755 16.64 134.035 17.2C134.328 17.76 134.721 18.1867 135.215 18.48C135.708 18.76 136.248 18.9 136.835 18.9C137.301 18.9 137.735 18.8333 138.135 18.7C138.548 18.5667 138.921 18.3867 139.255 18.16L139.855 19.24C139.428 19.5333 138.948 19.7733 138.415 19.96C137.895 20.1467 137.301 20.24 136.635 20.24ZM145.937 20.24C144.71 20.24 143.73 19.8 142.997 18.92C142.277 18.0267 141.917 16.7733 141.917 15.16C141.917 14.1067 142.11 13.2 142.497 12.44C142.897 11.6667 143.417 11.0733 144.057 10.66C144.697 10.2467 145.39 10.04 146.137 10.04C146.71 10.04 147.197 10.14 147.597 10.34C148.01 10.5267 148.43 10.8 148.857 11.16L148.777 9.5V5.76H150.437V20H149.077L148.937 18.86H148.877C148.503 19.2333 148.063 19.56 147.557 19.84C147.05 20.1067 146.51 20.24 145.937 20.24ZM146.297 18.86C146.75 18.86 147.177 18.7467 147.577 18.52C147.977 18.2933 148.377 17.96 148.777 17.52V12.44C148.377 12.0667 147.983 11.8067 147.597 11.66C147.21 11.5 146.817 11.42 146.417 11.42C145.897 11.42 145.423 11.58 144.997 11.9C144.583 12.2067 144.25 12.64 143.997 13.2C143.743 13.7467 143.617 14.3933 143.617 15.14C143.617 16.3 143.85 17.2133 144.317 17.88C144.783 18.5333 145.443 18.86 146.297 18.86ZM156.99 24.48C156.204 24.48 155.504 24.3733 154.89 24.16C154.29 23.96 153.817 23.6667 153.47 23.28C153.137 22.8933 152.97 22.42 152.97 21.86C152.97 21.4467 153.097 21.0467 153.35 20.66C153.604 20.2867 153.95 19.9533 154.39 19.66V19.58C154.15 19.42 153.944 19.2133 153.77 18.96C153.61 18.6933 153.53 18.3733 153.53 18C153.53 17.5867 153.644 17.2267 153.87 16.92C154.11 16.6133 154.35 16.3733 154.59 16.2V16.12C154.284 15.8533 153.997 15.4933 153.73 15.04C153.464 14.5867 153.33 14.0733 153.33 13.5C153.33 12.7933 153.497 12.18 153.83 11.66C154.177 11.14 154.624 10.74 155.17 10.46C155.73 10.18 156.337 10.04 156.99 10.04C157.257 10.04 157.51 10.0667 157.75 10.12C157.99 10.16 158.197 10.2133 158.37 10.28H161.75V11.54H159.73V11.62C159.97 11.8333 160.164 12.1 160.31 12.42C160.47 12.74 160.55 13.12 160.55 13.56C160.55 14.2533 160.39 14.8533 160.07 15.36C159.75 15.8533 159.324 16.24 158.79 16.52C158.257 16.7867 157.657 16.92 156.99 16.92C156.75 16.92 156.504 16.8933 156.25 16.84C155.997 16.7733 155.757 16.6867 155.53 16.58C155.37 16.7267 155.224 16.8867 155.09 17.06C154.97 17.2333 154.91 17.46 154.91 17.74C154.91 18.0467 155.03 18.3 155.27 18.5C155.524 18.7 155.977 18.8 156.63 18.8H158.51C159.644 18.8 160.49 18.9867 161.05 19.36C161.624 19.72 161.91 20.3067 161.91 21.12C161.91 21.72 161.71 22.2733 161.31 22.78C160.91 23.2867 160.337 23.6933 159.59 24C158.857 24.32 157.99 24.48 156.99 24.48ZM156.99 15.82C157.364 15.82 157.704 15.7267 158.01 15.54C158.33 15.34 158.584 15.0667 158.77 14.72C158.957 14.3733 159.05 13.9667 159.05 13.5C159.05 12.78 158.85 12.2267 158.45 11.84C158.05 11.44 157.564 11.24 156.99 11.24C156.417 11.24 155.93 11.44 155.53 11.84C155.13 12.2267 154.93 12.78 154.93 13.5C154.93 13.9667 155.024 14.3733 155.21 14.72C155.397 15.0667 155.644 15.34 155.95 15.54C156.27 15.7267 156.617 15.82 156.99 15.82ZM157.23 23.34C157.844 23.34 158.377 23.2467 158.83 23.06C159.297 22.8733 159.657 22.6267 159.91 22.32C160.177 22.0133 160.31 21.6933 160.31 21.36C160.31 20.9067 160.137 20.5933 159.79 20.42C159.457 20.2467 158.977 20.16 158.35 20.16H156.67C156.484 20.16 156.277 20.1467 156.05 20.12C155.837 20.0933 155.624 20.0533 155.41 20C155.05 20.2533 154.79 20.52 154.63 20.8C154.484 21.08 154.41 21.36 154.41 21.64C154.41 22.16 154.657 22.5733 155.15 22.88C155.657 23.1867 156.35 23.34 157.23 23.34ZM163.788 20V10.28H165.148L165.288 11.68H165.348C165.775 11.2267 166.235 10.84 166.728 10.52C167.235 10.2 167.782 10.04 168.368 10.04C169.115 10.04 169.695 10.2067 170.108 10.54C170.535 10.8733 170.848 11.3267 171.048 11.9C171.555 11.34 172.068 10.8933 172.588 10.56C173.108 10.2133 173.662 10.04 174.248 10.04C175.262 10.04 176.008 10.3667 176.488 11.02C176.968 11.66 177.208 12.6 177.208 13.84V20H175.568V14.06C175.568 13.14 175.422 12.48 175.128 12.08C174.835 11.6667 174.382 11.46 173.768 11.46C173.382 11.46 172.988 11.5867 172.588 11.84C172.202 12.08 171.782 12.4533 171.328 12.96V20H169.688V14.06C169.688 13.14 169.542 12.48 169.248 12.08C168.955 11.6667 168.495 11.46 167.868 11.46C167.135 11.46 166.322 11.96 165.428 12.96V20H163.788ZM184.31 20.24C183.444 20.24 182.65 20.04 181.93 19.64C181.224 19.2267 180.664 18.6467 180.25 17.9C179.837 17.14 179.63 16.22 179.63 15.14C179.63 14.0867 179.844 13.18 180.27 12.42C180.697 11.66 181.244 11.0733 181.91 10.66C182.577 10.2467 183.284 10.04 184.03 10.04C184.857 10.04 185.557 10.2333 186.13 10.62C186.717 10.9933 187.157 11.52 187.45 12.2C187.744 12.88 187.89 13.68 187.89 14.6C187.89 14.7733 187.884 14.94 187.87 15.1C187.87 15.26 187.85 15.42 187.81 15.58H180.81V14.28H186.41C186.41 13.3467 186.204 12.6333 185.79 12.14C185.39 11.6333 184.81 11.38 184.05 11.38C183.61 11.38 183.177 11.5067 182.75 11.76C182.324 12 181.97 12.3933 181.69 12.94C181.424 13.4867 181.29 14.2133 181.29 15.12C181.29 15.9467 181.43 16.64 181.71 17.2C182.004 17.76 182.397 18.1867 182.89 18.48C183.384 18.76 183.924 18.9 184.51 18.9C184.977 18.9 185.41 18.8333 185.81 18.7C186.224 18.5667 186.597 18.3867 186.93 18.16L187.53 19.24C187.104 19.5333 186.624 19.7733 186.09 19.96C185.57 20.1467 184.977 20.24 184.31 20.24ZM190.292 20V10.28H191.652L191.792 11.68H191.852C192.319 11.2133 192.812 10.8267 193.332 10.52C193.852 10.2 194.446 10.04 195.112 10.04C196.139 10.04 196.886 10.3667 197.352 11.02C197.832 11.66 198.072 12.6 198.072 13.84V20H196.432V14.06C196.432 13.14 196.286 12.48 195.992 12.08C195.712 11.6667 195.246 11.46 194.592 11.46C194.099 11.46 193.652 11.5867 193.252 11.84C192.866 12.0933 192.426 12.4667 191.932 12.96V20H190.292ZM204.29 20.18C203.263 20.18 202.543 19.88 202.13 19.28C201.717 18.68 201.51 17.9 201.51 16.94V11.62H200.07V10.38L201.59 10.28L201.79 7.16H203.17V10.28H205.81V11.62H203.17V16.96C203.17 17.5467 203.277 18.0067 203.49 18.34C203.717 18.6733 204.11 18.84 204.67 18.84C204.843 18.84 205.023 18.8267 205.21 18.8C205.397 18.76 205.583 18.6933 205.77 18.6L206.13 19.76C205.877 19.88 205.59 19.98 205.27 20.06C204.95 20.14 204.623 20.18 204.29 20.18ZM210.332 20.24C209.626 20.24 208.952 20.12 208.312 19.88C207.686 19.6267 207.152 19.28 206.712 18.84L207.472 17.88C207.899 18.2267 208.339 18.4933 208.792 18.68C209.259 18.8667 209.792 18.96 210.392 18.96C211.032 18.96 211.512 18.8133 211.832 18.52C212.152 18.2133 212.312 17.8533 212.312 17.44C212.312 17.1067 212.199 16.8333 211.972 16.62C211.759 16.3933 211.486 16.2067 211.152 16.06C210.832 15.9 210.486 15.7533 210.112 15.62C209.632 15.4467 209.172 15.2467 208.732 15.02C208.292 14.78 207.932 14.4867 207.652 14.14C207.386 13.78 207.252 13.3333 207.252 12.8C207.252 12.0133 207.546 11.36 208.132 10.84C208.732 10.3067 209.559 10.04 210.612 10.04C211.212 10.04 211.772 10.1467 212.292 10.36C212.812 10.56 213.259 10.82 213.632 11.14L212.872 12.08C212.526 11.84 212.172 11.6533 211.812 11.52C211.452 11.3867 211.052 11.32 210.612 11.32C209.999 11.32 209.546 11.46 209.252 11.74C208.972 12.02 208.832 12.3467 208.832 12.72C208.832 13.0133 208.919 13.26 209.092 13.46C209.266 13.6467 209.506 13.8133 209.812 13.96C210.132 14.1067 210.492 14.2467 210.892 14.38C211.399 14.5667 211.879 14.78 212.332 15.02C212.799 15.2467 213.172 15.5467 213.452 15.92C213.746 16.28 213.892 16.7533 213.892 17.34C213.892 17.8733 213.752 18.36 213.472 18.8C213.206 19.2267 212.806 19.5733 212.272 19.84C211.752 20.1067 211.106 20.24 210.332 20.24Z" fill="#C92B1D"/>
<line x1="4.37114e-08" y1="17.5" x2="48" y2="17.5" stroke="#C92B1D"/>
</svg>
