<svg width="121" height="28" viewBox="0 0 121 28" fill="none" xmlns="http://www.w3.org/2000/svg">
<path d="M61.8 20V6.88H65.9C66.7933 6.88 67.5867 7 68.28 7.24C68.9733 7.46667 69.5133 7.85333 69.9 8.4C70.3 8.93333 70.5 9.65333 70.5 10.56C70.5 11.44 70.3 12.1667 69.9 12.74C69.5133 13.3133 68.9733 13.7467 68.28 14.04C67.5867 14.32 66.7933 14.46 65.9 14.46H63.46V20H61.8ZM63.46 13.1H65.66C66.6867 13.1 67.4733 12.8933 68.02 12.48C68.5667 12.0533 68.84 11.4133 68.84 10.56C68.84 9.70667 68.5667 9.10667 68.02 8.76C67.4733 8.4 66.6867 8.22 65.66 8.22H63.46V13.1ZM69 20L65.58 14L66.88 13.12L70.88 20H69ZM76.7714 20.24C75.9047 20.24 75.1114 20.04 74.3914 19.64C73.6847 19.2267 73.1247 18.6467 72.7114 17.9C72.2981 17.14 72.0914 16.22 72.0914 15.14C72.0914 14.0867 72.3047 13.18 72.7314 12.42C73.1581 11.66 73.7047 11.0733 74.3714 10.66C75.0381 10.2467 75.7447 10.04 76.4914 10.04C77.3181 10.04 78.0181 10.2333 78.5914 10.62C79.1781 10.9933 79.6181 11.52 79.9114 12.2C80.2047 12.88 80.3514 13.68 80.3514 14.6C80.3514 14.7733 80.3447 14.94 80.3314 15.1C80.3314 15.26 80.3114 15.42 80.2714 15.58H73.2714V14.28H78.8714C78.8714 13.3467 78.6647 12.6333 78.2514 12.14C77.8514 11.6333 77.2714 11.38 76.5114 11.38C76.0714 11.38 75.6381 11.5067 75.2114 11.76C74.7847 12 74.4314 12.3933 74.1514 12.94C73.8847 13.4867 73.7514 14.2133 73.7514 15.12C73.7514 15.9467 73.8914 16.64 74.1714 17.2C74.4647 17.76 74.8581 18.1867 75.3514 18.48C75.8447 18.76 76.3847 18.9 76.9714 18.9C77.4381 18.9 77.8714 18.8333 78.2714 18.7C78.6847 18.5667 79.0581 18.3867 79.3914 18.16L79.9914 19.24C79.5647 19.5333 79.0847 19.7733 78.5514 19.96C78.0314 20.1467 77.4381 20.24 76.7714 20.24ZM85.2933 20.24C84.5866 20.24 83.9133 20.12 83.2733 19.88C82.6466 19.6267 82.1133 19.28 81.6733 18.84L82.4333 17.88C82.8599 18.2267 83.2999 18.4933 83.7533 18.68C84.2199 18.8667 84.7533 18.96 85.3533 18.96C85.9933 18.96 86.4733 18.8133 86.7933 18.52C87.1133 18.2133 87.2733 17.8533 87.2733 17.44C87.2733 17.1067 87.1599 16.8333 86.9333 16.62C86.7199 16.3933 86.4466 16.2067 86.1133 16.06C85.7933 15.9 85.4466 15.7533 85.0733 15.62C84.5933 15.4467 84.1333 15.2467 83.6933 15.02C83.2533 14.78 82.8933 14.4867 82.6133 14.14C82.3466 13.78 82.2133 13.3333 82.2133 12.8C82.2133 12.0133 82.5066 11.36 83.0933 10.84C83.6933 10.3067 84.5199 10.04 85.5733 10.04C86.1733 10.04 86.7333 10.1467 87.2533 10.36C87.7733 10.56 88.2199 10.82 88.5933 11.14L87.8333 12.08C87.4866 11.84 87.1333 11.6533 86.7733 11.52C86.4133 11.3867 86.0133 11.32 85.5733 11.32C84.9599 11.32 84.5066 11.46 84.2133 11.74C83.9333 12.02 83.7933 12.3467 83.7933 12.72C83.7933 13.0133 83.8799 13.26 84.0533 13.46C84.2266 13.6467 84.4666 13.8133 84.7733 13.96C85.0933 14.1067 85.4533 14.2467 85.8533 14.38C86.3599 14.5667 86.8399 14.78 87.2933 15.02C87.7599 15.2467 88.1333 15.5467 88.4133 15.92C88.7066 16.28 88.8533 16.7533 88.8533 17.34C88.8533 17.8733 88.7133 18.36 88.4333 18.8C88.1666 19.2267 87.7666 19.5733 87.2333 19.84C86.7133 20.1067 86.0666 20.24 85.2933 20.24ZM93.9722 20.24C92.9455 20.24 92.1922 19.92 91.7122 19.28C91.2455 18.6267 91.0122 17.68 91.0122 16.44V10.28H92.6522V16.22C92.6522 17.1267 92.7922 17.7867 93.0722 18.2C93.3655 18.6 93.8322 18.8 94.4722 18.8C94.9655 18.8 95.4055 18.6733 95.7922 18.42C96.1922 18.1533 96.6255 17.74 97.0922 17.18V10.28H98.7322V20H97.3722L97.2322 18.48H97.1722C96.7322 19.0133 96.2522 19.44 95.7322 19.76C95.2255 20.08 94.6389 20.24 93.9722 20.24ZM103.751 20.18C103.338 20.18 103.004 20.1 102.751 19.94C102.498 19.7667 102.311 19.52 102.191 19.2C102.071 18.8667 102.011 18.4667 102.011 18V5.76H103.651V18.12C103.651 18.3867 103.698 18.5733 103.791 18.68C103.884 18.7733 103.998 18.82 104.131 18.82C104.184 18.82 104.231 18.82 104.271 18.82C104.324 18.8067 104.391 18.7933 104.471 18.78L104.711 20.02C104.591 20.06 104.451 20.0933 104.291 20.12C104.144 20.16 103.964 20.18 103.751 20.18ZM110.169 20.18C109.142 20.18 108.422 19.88 108.009 19.28C107.595 18.68 107.389 17.9 107.389 16.94V11.62H105.949V10.38L107.469 10.28L107.669 7.16H109.049V10.28H111.689V11.62H109.049V16.96C109.049 17.5467 109.155 18.0067 109.369 18.34C109.595 18.6733 109.989 18.84 110.549 18.84C110.722 18.84 110.902 18.8267 111.089 18.8C111.275 18.76 111.462 18.6933 111.649 18.6L112.009 19.76C111.755 19.88 111.469 19.98 111.149 20.06C110.829 20.14 110.502 20.18 110.169 20.18ZM116.211 20.24C115.505 20.24 114.831 20.12 114.191 19.88C113.565 19.6267 113.031 19.28 112.591 18.84L113.351 17.88C113.778 18.2267 114.218 18.4933 114.671 18.68C115.138 18.8667 115.671 18.96 116.271 18.96C116.911 18.96 117.391 18.8133 117.711 18.52C118.031 18.2133 118.191 17.8533 118.191 17.44C118.191 17.1067 118.078 16.8333 117.851 16.62C117.638 16.3933 117.365 16.2067 117.031 16.06C116.711 15.9 116.365 15.7533 115.991 15.62C115.511 15.4467 115.051 15.2467 114.611 15.02C114.171 14.78 113.811 14.4867 113.531 14.14C113.265 13.78 113.131 13.3333 113.131 12.8C113.131 12.0133 113.425 11.36 114.011 10.84C114.611 10.3067 115.438 10.04 116.491 10.04C117.091 10.04 117.651 10.1467 118.171 10.36C118.691 10.56 119.138 10.82 119.511 11.14L118.751 12.08C118.405 11.84 118.051 11.6533 117.691 11.52C117.331 11.3867 116.931 11.32 116.491 11.32C115.878 11.32 115.425 11.46 115.131 11.74C114.851 12.02 114.711 12.3467 114.711 12.72C114.711 13.0133 114.798 13.26 114.971 13.46C115.145 13.6467 115.385 13.8133 115.691 13.96C116.011 14.1067 116.371 14.2467 116.771 14.38C117.278 14.5667 117.758 14.78 118.211 15.02C118.678 15.2467 119.051 15.5467 119.331 15.92C119.625 16.28 119.771 16.7533 119.771 17.34C119.771 17.8733 119.631 18.36 119.351 18.8C119.085 19.2267 118.685 19.5733 118.151 19.84C117.631 20.1067 116.985 20.24 116.211 20.24Z" fill="#C92B1D"/>
<line y1="17.5" x2="48" y2="17.5" stroke="#C92B1D"/>
</svg>
